<svg width="268" height="31" viewBox="0 0 268 31" fill="none" xmlns="http://www.w3.org/2000/svg">
<mask id="path-1-inside-1_567_1863" fill="white">
<path d="M79.4262 0L73.6943 30.0142H74.6329L80.3648 0H79.4262Z"/>
</mask>
<path d="M79.4262 0L73.6943 30.0142H74.6329L80.3648 0H79.4262Z" fill="#FEC311"/>
<path d="M79.4262 0V-1H78.5991L78.444 -0.187582L79.4262 0ZM73.6943 30.0142L72.7121 29.8267L72.4853 31.0142H73.6943V30.0142ZM74.6329 30.0142V31.0142H75.46L75.6152 30.2018L74.6329 30.0142ZM80.3648 0L81.3471 0.187582L81.5739 -1H80.3648V0ZM79.4262 0L78.444 -0.187582L72.7121 29.8267L73.6943 30.0142L74.6766 30.2018L80.4085 0.187582L79.4262 0ZM73.6943 30.0142V31.0142H74.6329V30.0142V29.0142H73.6943V30.0142ZM74.6329 30.0142L75.6152 30.2018L81.3471 0.187582L80.3648 0L79.3826 -0.187582L73.6507 29.8267L74.6329 30.0142ZM80.3648 0V-1H79.4262V0V1H80.3648V0Z" fill="#FEC311" mask="url(#path-1-inside-1_567_1863)"/>
<mask id="path-3-inside-2_567_1863" fill="white">
<path d="M190.601 0L184.869 30.0142H185.808L191.54 0H190.601Z"/>
</mask>
<path d="M190.601 0L184.869 30.0142H185.808L191.54 0H190.601Z" fill="#FEC311"/>
<path d="M190.601 0V-1H189.774L189.619 -0.187582L190.601 0ZM184.869 30.0142L183.887 29.8267L183.66 31.0142H184.869V30.0142ZM185.808 30.0142V31.0142H186.635L186.79 30.2018L185.808 30.0142ZM191.54 0L192.522 0.187582L192.749 -1H191.54V0ZM190.601 0L189.619 -0.187582L183.887 29.8267L184.869 30.0142L185.851 30.2018L191.583 0.187582L190.601 0ZM184.869 30.0142V31.0142H185.808V30.0142V29.0142H184.869V30.0142ZM185.808 30.0142L186.79 30.2018L192.522 0.187582L191.54 0L190.557 -0.187582L184.825 29.8267L185.808 30.0142ZM191.54 0V-1H190.601V0V1H191.54V0Z" fill="#FEC311" mask="url(#path-3-inside-2_567_1863)"/>
<mask id="path-5-inside-3_567_1863" fill="white">
<path d="M228.081 0L222.35 30.0142H223.288L229.02 0H228.081Z"/>
</mask>
<path d="M228.081 0L222.35 30.0142H223.288L229.02 0H228.081Z" fill="#FEC311"/>
<path d="M228.081 0V-1H227.254L227.099 -0.187582L228.081 0ZM222.35 30.0142L221.367 29.8267L221.141 31.0142H222.35V30.0142ZM223.288 30.0142V31.0142H224.115L224.27 30.2018L223.288 30.0142ZM229.02 0L230.002 0.187582L230.229 -1H229.02V0ZM228.081 0L227.099 -0.187582L221.367 29.8267L222.35 30.0142L223.332 30.2018L229.064 0.187582L228.081 0ZM222.35 30.0142V31.0142H223.288V30.0142V29.0142H222.35V30.0142ZM223.288 30.0142L224.27 30.2018L230.002 0.187582L229.02 0L228.038 -0.187582L222.306 29.8267L223.288 30.0142ZM229.02 0V-1H228.081V0V1H229.02V0Z" fill="#FEC311" mask="url(#path-5-inside-3_567_1863)"/>
<mask id="path-7-inside-4_567_1863" fill="white">
<path d="M74.0769 0L68.3359 30.0142H69.2745L75.0155 0H74.0769Z"/>
</mask>
<path d="M74.0769 0L68.3359 30.0142H69.2745L75.0155 0H74.0769Z" fill="#FEC311"/>
<path d="M74.0769 0V-1H73.2501L73.0947 -0.18787L74.0769 0ZM68.3359 30.0142L67.3537 29.8264L67.1265 31.0142H68.3359V30.0142ZM69.2745 30.0142V31.0142H70.1014L70.2567 30.2021L69.2745 30.0142ZM75.0155 0L75.9977 0.18787L76.2249 -1H75.0155V0ZM74.0769 0L73.0947 -0.18787L67.3537 29.8264L68.3359 30.0142L69.3181 30.2021L75.0591 0.18787L74.0769 0ZM68.3359 30.0142V31.0142H69.2745V30.0142V29.0142H68.3359V30.0142ZM69.2745 30.0142L70.2567 30.2021L75.9977 0.18787L75.0155 0L74.0333 -0.18787L68.2924 29.8264L69.2745 30.0142ZM75.0155 0V-1H74.0769V0V1H75.0155V0Z" fill="#FEC311" mask="url(#path-7-inside-4_567_1863)"/>
<mask id="path-9-inside-5_567_1863" fill="white">
<path d="M185.252 0L179.511 30.0142H180.449L186.19 0H185.252Z"/>
</mask>
<path d="M185.252 0L179.511 30.0142H180.449L186.19 0H185.252Z" fill="#FEC311"/>
<path d="M185.252 0V-1H184.425L184.27 -0.18787L185.252 0ZM179.511 30.0142L178.529 29.8264L178.301 31.0142H179.511V30.0142ZM180.449 30.0142V31.0142H181.276L181.432 30.2021L180.449 30.0142ZM186.19 0L187.173 0.18787L187.4 -1H186.19V0ZM185.252 0L184.27 -0.18787L178.529 29.8264L179.511 30.0142L180.493 30.2021L186.234 0.18787L185.252 0ZM179.511 30.0142V31.0142H180.449V30.0142V29.0142H179.511V30.0142ZM180.449 30.0142L181.432 30.2021L187.173 0.18787L186.19 0L185.208 -0.18787L179.467 29.8264L180.449 30.0142ZM186.19 0V-1H185.252V0V1H186.19V0Z" fill="#FEC311" mask="url(#path-9-inside-5_567_1863)"/>
<mask id="path-11-inside-6_567_1863" fill="white">
<path d="M68.9013 0L63.1694 30.0142H64.108L69.8399 0H68.9013Z"/>
</mask>
<path d="M68.9013 0L63.1694 30.0142H64.108L69.8399 0H68.9013Z" fill="#FEC311"/>
<path d="M68.9013 0V-1H68.0742L67.9191 -0.187582L68.9013 0ZM63.1694 30.0142L62.1872 29.8267L61.9604 31.0142H63.1694V30.0142ZM64.108 30.0142V31.0142H64.9351L65.0903 30.2018L64.108 30.0142ZM69.8399 0L70.8222 0.187582L71.049 -1H69.8399V0ZM68.9013 0L67.9191 -0.187582L62.1872 29.8267L63.1694 30.0142L64.1517 30.2018L69.8836 0.187582L68.9013 0ZM63.1694 30.0142V31.0142H64.108V30.0142V29.0142H63.1694V30.0142ZM64.108 30.0142L65.0903 30.2018L70.8222 0.187582L69.8399 0L68.8577 -0.187582L63.1258 29.8267L64.108 30.0142ZM69.8399 0V-1H68.9013V0V1H69.8399V0Z" fill="#FEC311" mask="url(#path-11-inside-6_567_1863)"/>
<mask id="path-13-inside-7_567_1863" fill="white">
<path d="M180.076 0L174.344 30.0142H175.283L181.015 0H180.076Z"/>
</mask>
<path d="M180.076 0L174.344 30.0142H175.283L181.015 0H180.076Z" fill="#FEC311"/>
<path d="M180.076 0V-1H179.249L179.094 -0.187582L180.076 0ZM174.344 30.0142L173.362 29.8267L173.135 31.0142H174.344V30.0142ZM175.283 30.0142V31.0142H176.11L176.265 30.2018L175.283 30.0142ZM181.015 0L181.997 0.187582L182.224 -1H181.015V0ZM180.076 0L179.094 -0.187582L173.362 29.8267L174.344 30.0142L175.326 30.2018L181.058 0.187582L180.076 0ZM174.344 30.0142V31.0142H175.283V30.0142V29.0142H174.344V30.0142ZM175.283 30.0142L176.265 30.2018L181.997 0.187582L181.015 0L180.032 -0.187582L174.301 29.8267L175.283 30.0142ZM181.015 0V-1H180.076V0V1H181.015V0Z" fill="#FEC311" mask="url(#path-13-inside-7_567_1863)"/>
<mask id="path-15-inside-8_567_1863" fill="white">
<path d="M63.6157 0L57.8838 30.0142H58.8133L64.5543 0H63.6157Z"/>
</mask>
<path d="M63.6157 0L57.8838 30.0142H58.8133L64.5543 0H63.6157Z" fill="#FEC311"/>
<path d="M63.6157 0V-1H62.7886L62.6334 -0.187582L63.6157 0ZM57.8838 30.0142L56.9015 29.8267L56.6747 31.0142H57.8838V30.0142ZM58.8133 30.0142V31.0142H59.6401L59.7955 30.2021L58.8133 30.0142ZM64.5543 0L65.5365 0.18787L65.7637 -1H64.5543V0ZM63.6157 0L62.6334 -0.187582L56.9015 29.8267L57.8838 30.0142L58.866 30.2018L64.5979 0.187582L63.6157 0ZM57.8838 30.0142V31.0142H58.8133V30.0142V29.0142H57.8838V30.0142ZM58.8133 30.0142L59.7955 30.2021L65.5365 0.18787L64.5543 0L63.5721 -0.18787L57.8311 29.8264L58.8133 30.0142ZM64.5543 0V-1H63.6157V0V1H64.5543V0Z" fill="#FEC311" mask="url(#path-15-inside-8_567_1863)"/>
<mask id="path-17-inside-9_567_1863" fill="white">
<path d="M174.79 0L169.059 30.0142H169.988L175.729 0H174.79Z"/>
</mask>
<path d="M174.79 0L169.059 30.0142H169.988L175.729 0H174.79Z" fill="#FEC311"/>
<path d="M174.79 0V-1H173.963L173.808 -0.187582L174.79 0ZM169.059 30.0142L168.076 29.8267L167.85 31.0142H169.059V30.0142ZM169.988 30.0142V31.0142H170.815L170.97 30.2021L169.988 30.0142ZM175.729 0L176.711 0.18787L176.938 -1H175.729V0ZM174.79 0L173.808 -0.187582L168.076 29.8267L169.059 30.0142L170.041 30.2018L175.773 0.187582L174.79 0ZM169.059 30.0142V31.0142H169.988V30.0142V29.0142H169.059V30.0142ZM169.988 30.0142L170.97 30.2021L176.711 0.18787L175.729 0L174.747 -0.18787L169.006 29.8264L169.988 30.0142ZM175.729 0V-1H174.79V0V1H175.729V0Z" fill="#FEC311" mask="url(#path-17-inside-9_567_1863)"/>
<mask id="path-19-inside-10_567_1863" fill="white">
<path d="M58.3484 0L52.6074 30.0142H53.546L59.287 0H58.3484Z"/>
</mask>
<path d="M58.3484 0L52.6074 30.0142H53.546L59.287 0H58.3484Z" fill="#FEC311"/>
<path d="M58.3484 0V-1H57.5216L57.3662 -0.18787L58.3484 0ZM52.6074 30.0142L51.6252 29.8264L51.398 31.0142H52.6074V30.0142ZM53.546 30.0142V31.0142H54.3729L54.5282 30.2021L53.546 30.0142ZM59.287 0L60.2692 0.18787L60.4964 -1H59.287V0ZM58.3484 0L57.3662 -0.18787L51.6252 29.8264L52.6074 30.0142L53.5896 30.2021L59.3306 0.18787L58.3484 0ZM52.6074 30.0142V31.0142H53.546V30.0142V29.0142H52.6074V30.0142ZM53.546 30.0142L54.5282 30.2021L60.2692 0.18787L59.287 0L58.3048 -0.18787L52.5638 29.8264L53.546 30.0142ZM59.287 0V-1H58.3484V0V1H59.287V0Z" fill="#FEC311" mask="url(#path-19-inside-10_567_1863)"/>
<mask id="path-21-inside-11_567_1863" fill="white">
<path d="M169.523 0L163.782 30.0142H164.721L170.462 0H169.523Z"/>
</mask>
<path d="M169.523 0L163.782 30.0142H164.721L170.462 0H169.523Z" fill="#FEC311"/>
<path d="M169.523 0V-1H168.696L168.541 -0.18787L169.523 0ZM163.782 30.0142L162.8 29.8264L162.573 31.0142H163.782V30.0142ZM164.721 30.0142V31.0142H165.548L165.703 30.2021L164.721 30.0142ZM170.462 0L171.444 0.18787L171.671 -1H170.462V0ZM169.523 0L168.541 -0.18787L162.8 29.8264L163.782 30.0142L164.764 30.2021L170.505 0.18787L169.523 0ZM163.782 30.0142V31.0142H164.721V30.0142V29.0142H163.782V30.0142ZM164.721 30.0142L165.703 30.2021L171.444 0.18787L170.462 0L169.48 -0.18787L163.739 29.8264L164.721 30.0142ZM170.462 0V-1H169.523V0V1H170.462V0Z" fill="#FEC311" mask="url(#path-21-inside-11_567_1863)"/>
<mask id="path-23-inside-12_567_1863" fill="white">
<path d="M53.0633 0L47.3223 30.0142H47.3314H48.2609L54.0019 0H53.0633Z"/>
</mask>
<path d="M53.0633 0L47.3223 30.0142H47.3314H48.2609L54.0019 0H53.0633Z" fill="#FEC311"/>
<path d="M53.0633 0V-1H52.2364L52.0811 -0.18787L53.0633 0ZM47.3223 30.0142L46.3401 29.8264L46.1129 31.0142H47.3223V30.0142ZM48.2609 30.0142V31.0142H49.0877L49.2431 30.2021L48.2609 30.0142ZM54.0019 0L54.9841 0.18787L55.2113 -1H54.0019V0ZM53.0633 0L52.0811 -0.18787L46.3401 29.8264L47.3223 30.0142L48.3045 30.2021L54.0455 0.18787L53.0633 0ZM47.3223 30.0142V31.0142H47.3314V30.0142V29.0142H47.3223V30.0142ZM47.3314 30.0142V31.0142H48.2609V30.0142V29.0142H47.3314V30.0142ZM48.2609 30.0142L49.2431 30.2021L54.9841 0.18787L54.0019 0L53.0197 -0.18787L47.2787 29.8264L48.2609 30.0142ZM54.0019 0V-1H53.0633V0V1H54.0019V0Z" fill="#FEC311" mask="url(#path-23-inside-12_567_1863)"/>
<mask id="path-25-inside-13_567_1863" fill="white">
<path d="M164.238 0L158.497 30.0142H158.506H159.436L165.177 0H164.238Z"/>
</mask>
<path d="M164.238 0L158.497 30.0142H158.506H159.436L165.177 0H164.238Z" fill="#FEC311"/>
<path d="M164.238 0V-1H163.411L163.256 -0.18787L164.238 0ZM158.497 30.0142L157.515 29.8264L157.288 31.0142H158.497V30.0142ZM159.436 30.0142V31.0142H160.263L160.418 30.2021L159.436 30.0142ZM165.177 0L166.159 0.18787L166.386 -1H165.177V0ZM164.238 0L163.256 -0.18787L157.515 29.8264L158.497 30.0142L159.479 30.2021L165.22 0.18787L164.238 0ZM158.497 30.0142V31.0142H158.506V30.0142V29.0142H158.497V30.0142ZM158.506 30.0142V31.0142H159.436V30.0142V29.0142H158.506V30.0142ZM159.436 30.0142L160.418 30.2021L166.159 0.18787L165.177 0L164.194 -0.18787L158.453 29.8264L159.436 30.0142ZM165.177 0V-1H164.238V0V1H165.177V0Z" fill="#FEC311" mask="url(#path-25-inside-13_567_1863)"/>
<mask id="path-27-inside-14_567_1863" fill="white">
<path d="M47.8326 0L42.0916 30.0142H43.0302L48.7712 0H47.8326Z"/>
</mask>
<path d="M47.8326 0L42.0916 30.0142H43.0302L48.7712 0H47.8326Z" fill="#FEC311"/>
<path d="M47.8326 0V-1H47.0057L46.8504 -0.18787L47.8326 0ZM42.0916 30.0142L41.1094 29.8264L40.8821 31.0142H42.0916V30.0142ZM43.0302 30.0142V31.0142H43.857L44.0124 30.2021L43.0302 30.0142ZM48.7712 0L49.7534 0.18787L49.9806 -1H48.7712V0ZM47.8326 0L46.8504 -0.18787L41.1094 29.8264L42.0916 30.0142L43.0737 30.2021L48.8147 0.18787L47.8326 0ZM42.0916 30.0142V31.0142H43.0302V30.0142V29.0142H42.0916V30.0142ZM43.0302 30.0142L44.0124 30.2021L49.7534 0.18787L48.7712 0L47.789 -0.18787L42.048 29.8264L43.0302 30.0142ZM48.7712 0V-1H47.8326V0V1H48.7712V0Z" fill="#FEC311" mask="url(#path-27-inside-14_567_1863)"/>
<mask id="path-29-inside-15_567_1863" fill="white">
<path d="M159.008 0L153.267 30.0142H154.205L159.946 0H159.008Z"/>
</mask>
<path d="M159.008 0L153.267 30.0142H154.205L159.946 0H159.008Z" fill="#FEC311"/>
<path d="M159.008 0V-1H158.181L158.025 -0.18787L159.008 0ZM153.267 30.0142L152.284 29.8264L152.057 31.0142H153.267V30.0142ZM154.205 30.0142V31.0142H155.032L155.187 30.2021L154.205 30.0142ZM159.946 0L160.928 0.18787L161.156 -1H159.946V0ZM159.008 0L158.025 -0.18787L152.284 29.8264L153.267 30.0142L154.249 30.2021L159.99 0.18787L159.008 0ZM153.267 30.0142V31.0142H154.205V30.0142V29.0142H153.267V30.0142ZM154.205 30.0142L155.187 30.2021L160.928 0.18787L159.946 0L158.964 -0.18787L153.223 29.8264L154.205 30.0142ZM159.946 0V-1H159.008V0V1H159.946V0Z" fill="#FEC311" mask="url(#path-29-inside-15_567_1863)"/>
<mask id="path-31-inside-16_567_1863" fill="white">
<path d="M42.5291 0L36.7881 30.0142H37.7267L43.4677 0H42.5291Z"/>
</mask>
<path d="M42.5291 0L36.7881 30.0142H37.7267L43.4677 0H42.5291Z" fill="#FEC311"/>
<path d="M42.5291 0V-1H41.7022L41.5469 -0.18787L42.5291 0ZM36.7881 30.0142L35.8059 29.8264L35.5787 31.0142H36.7881V30.0142ZM37.7267 30.0142V31.0142H38.5535L38.7089 30.2021L37.7267 30.0142ZM43.4677 0L44.4499 0.18787L44.6771 -1H43.4677V0ZM42.5291 0L41.5469 -0.18787L35.8059 29.8264L36.7881 30.0142L37.7703 30.2021L43.5113 0.18787L42.5291 0ZM36.7881 30.0142V31.0142H37.7267V30.0142V29.0142H36.7881V30.0142ZM37.7267 30.0142L38.7089 30.2021L44.4499 0.18787L43.4677 0L42.4855 -0.18787L36.7445 29.8264L37.7267 30.0142ZM43.4677 0V-1H42.5291V0V1H43.4677V0Z" fill="#FEC311" mask="url(#path-31-inside-16_567_1863)"/>
<mask id="path-33-inside-17_567_1863" fill="white">
<path d="M153.704 0L147.963 30.0142H148.901L154.642 0H153.704Z"/>
</mask>
<path d="M153.704 0L147.963 30.0142H148.901L154.642 0H153.704Z" fill="#FEC311"/>
<path d="M153.704 0V-1H152.877L152.722 -0.18787L153.704 0ZM147.963 30.0142L146.981 29.8264L146.753 31.0142H147.963V30.0142ZM148.901 30.0142V31.0142H149.728L149.884 30.2021L148.901 30.0142ZM154.642 0L155.625 0.18787L155.852 -1H154.642V0ZM153.704 0L152.722 -0.18787L146.981 29.8264L147.963 30.0142L148.945 30.2021L154.686 0.18787L153.704 0ZM147.963 30.0142V31.0142H148.901V30.0142V29.0142H147.963V30.0142ZM148.901 30.0142L149.884 30.2021L155.625 0.18787L154.642 0L153.66 -0.18787L147.919 29.8264L148.901 30.0142ZM154.642 0V-1H153.704V0V1H154.642V0Z" fill="#FEC311" mask="url(#path-33-inside-17_567_1863)"/>
<mask id="path-35-inside-18_567_1863" fill="white">
<path d="M37.2709 0L31.5391 30.0142H32.4777L38.2096 0H37.2709Z"/>
</mask>
<path d="M37.2709 0L31.5391 30.0142H32.4777L38.2096 0H37.2709Z" fill="#FEC311"/>
<path d="M37.2709 0V-1H36.4439L36.2887 -0.187582L37.2709 0ZM31.5391 30.0142L30.5568 29.8267L30.33 31.0142H31.5391V30.0142ZM32.4777 30.0142V31.0142H33.3048L33.4599 30.2018L32.4777 30.0142ZM38.2096 0L39.1918 0.187582L39.4186 -1H38.2096V0ZM37.2709 0L36.2887 -0.187582L30.5568 29.8267L31.5391 30.0142L32.5213 30.2018L38.2532 0.187582L37.2709 0ZM31.5391 30.0142V31.0142H32.4777V30.0142V29.0142H31.5391V30.0142ZM32.4777 30.0142L33.4599 30.2018L39.1918 0.187582L38.2096 0L37.2273 -0.187582L31.4954 29.8267L32.4777 30.0142ZM38.2096 0V-1H37.2709V0V1H38.2096V0Z" fill="#FEC311" mask="url(#path-35-inside-18_567_1863)"/>
<mask id="path-37-inside-19_567_1863" fill="white">
<path d="M148.446 0L142.714 30.0142H143.652L149.384 0H148.446Z"/>
</mask>
<path d="M148.446 0L142.714 30.0142H143.652L149.384 0H148.446Z" fill="#FEC311"/>
<path d="M148.446 0V-1H147.619L147.464 -0.187582L148.446 0ZM142.714 30.0142L141.732 29.8267L141.505 31.0142H142.714V30.0142ZM143.652 30.0142V31.0142H144.48L144.635 30.2018L143.652 30.0142ZM149.384 0L150.367 0.187582L150.593 -1H149.384V0ZM148.446 0L147.464 -0.187582L141.732 29.8267L142.714 30.0142L143.696 30.2018L149.428 0.187582L148.446 0ZM142.714 30.0142V31.0142H143.652V30.0142V29.0142H142.714V30.0142ZM143.652 30.0142L144.635 30.2018L150.367 0.187582L149.384 0L148.402 -0.187582L142.67 29.8267L143.652 30.0142ZM149.384 0V-1H148.446V0V1H149.384V0Z" fill="#FEC311" mask="url(#path-37-inside-19_567_1863)"/>
<mask id="path-39-inside-20_567_1863" fill="white">
<path d="M31.9676 0L26.2266 30.0142H26.2357H27.1652L32.9062 0H31.9676Z"/>
</mask>
<path d="M31.9676 0L26.2266 30.0142H26.2357H27.1652L32.9062 0H31.9676Z" fill="#FEC311"/>
<path d="M31.9676 0V-1H31.1407L30.9854 -0.18787L31.9676 0ZM26.2266 30.0142L25.2444 29.8264L25.0172 31.0142H26.2266V30.0142ZM27.1652 30.0142V31.0142H27.992L28.1474 30.2021L27.1652 30.0142ZM32.9062 0L33.8884 0.18787L34.1156 -1H32.9062V0ZM31.9676 0L30.9854 -0.18787L25.2444 29.8264L26.2266 30.0142L27.2088 30.2021L32.9498 0.18787L31.9676 0ZM26.2266 30.0142V31.0142H26.2357V30.0142V29.0142H26.2266V30.0142ZM26.2357 30.0142V31.0142H27.1652V30.0142V29.0142H26.2357V30.0142ZM27.1652 30.0142L28.1474 30.2021L33.8884 0.18787L32.9062 0L31.924 -0.18787L26.183 29.8264L27.1652 30.0142ZM32.9062 0V-1H31.9676V0V1H32.9062V0Z" fill="#FEC311" mask="url(#path-39-inside-20_567_1863)"/>
<mask id="path-41-inside-21_567_1863" fill="white">
<path d="M143.142 0L137.401 30.0142H137.41H138.34L144.081 0H143.142Z"/>
</mask>
<path d="M143.142 0L137.401 30.0142H137.41H138.34L144.081 0H143.142Z" fill="#FEC311"/>
<path d="M143.142 0V-1H142.316L142.16 -0.18787L143.142 0ZM137.401 30.0142L136.419 29.8264L136.192 31.0142H137.401V30.0142ZM138.34 30.0142V31.0142H139.167L139.322 30.2021L138.34 30.0142ZM144.081 0L145.063 0.18787L145.29 -1H144.081V0ZM143.142 0L142.16 -0.18787L136.419 29.8264L137.401 30.0142L138.384 30.2021L144.125 0.18787L143.142 0ZM137.401 30.0142V31.0142H137.41V30.0142V29.0142H137.401V30.0142ZM137.41 30.0142V31.0142H138.34V30.0142V29.0142H137.41V30.0142ZM138.34 30.0142L139.322 30.2021L145.063 0.18787L144.081 0L143.099 -0.18787L137.358 29.8264L138.34 30.0142ZM144.081 0V-1H143.142V0V1H144.081V0Z" fill="#FEC311" mask="url(#path-41-inside-21_567_1863)"/>
<mask id="path-43-inside-22_567_1863" fill="white">
<path d="M26.8914 0L21.1504 30.0142H22.089L27.8209 0H26.8914Z"/>
</mask>
<path d="M26.8914 0L21.1504 30.0142H22.089L27.8209 0H26.8914Z" fill="#FEC311"/>
<path d="M26.8914 0V-1H26.0645L25.9092 -0.18787L26.8914 0ZM21.1504 30.0142L20.1682 29.8264L19.941 31.0142H21.1504V30.0142ZM22.089 30.0142V31.0142H22.9161L23.0712 30.2018L22.089 30.0142ZM27.8209 0L28.8031 0.187582L29.0299 -1H27.8209V0ZM26.8914 0L25.9092 -0.18787L20.1682 29.8264L21.1504 30.0142L22.1326 30.2021L27.8736 0.18787L26.8914 0ZM21.1504 30.0142V31.0142H22.089V30.0142V29.0142H21.1504V30.0142ZM22.089 30.0142L23.0712 30.2018L28.8031 0.187582L27.8209 0L26.8386 -0.187582L21.1067 29.8267L22.089 30.0142ZM27.8209 0V-1H26.8914V0V1H27.8209V0Z" fill="#FEC311" mask="url(#path-43-inside-22_567_1863)"/>
<mask id="path-45-inside-23_567_1863" fill="white">
<path d="M138.066 0L132.325 30.0142H133.264L138.996 0H138.066Z"/>
</mask>
<path d="M138.066 0L132.325 30.0142H133.264L138.996 0H138.066Z" fill="#FEC311"/>
<path d="M138.066 0V-1H137.239L137.084 -0.18787L138.066 0ZM132.325 30.0142L131.343 29.8264L131.116 31.0142H132.325V30.0142ZM133.264 30.0142V31.0142H134.091L134.246 30.2018L133.264 30.0142ZM138.996 0L139.978 0.187582L140.205 -1H138.996V0ZM138.066 0L137.084 -0.18787L131.343 29.8264L132.325 30.0142L133.307 30.2021L139.048 0.18787L138.066 0ZM132.325 30.0142V31.0142H133.264V30.0142V29.0142H132.325V30.0142ZM133.264 30.0142L134.246 30.2018L139.978 0.187582L138.996 0L138.013 -0.187582L132.282 29.8267L133.264 30.0142ZM138.996 0V-1H138.066V0V1H138.996V0Z" fill="#FEC311" mask="url(#path-45-inside-23_567_1863)"/>
<mask id="path-47-inside-24_567_1863" fill="white">
<path d="M21.5515 0L15.8105 30.0142H16.7492L22.4902 0H21.5515Z"/>
</mask>
<path d="M21.5515 0L15.8105 30.0142H16.7492L22.4902 0H21.5515Z" fill="#FEC311"/>
<path d="M21.5515 0V-1H20.7247L20.5694 -0.18787L21.5515 0ZM15.8105 30.0142L14.8284 29.8264L14.6011 31.0142H15.8105V30.0142ZM16.7492 30.0142V31.0142H17.576L17.7313 30.2021L16.7492 30.0142ZM22.4902 0L23.4723 0.18787L23.6996 -1H22.4902V0ZM21.5515 0L20.5694 -0.18787L14.8284 29.8264L15.8105 30.0142L16.7927 30.2021L22.5337 0.18787L21.5515 0ZM15.8105 30.0142V31.0142H16.7492V30.0142V29.0142H15.8105V30.0142ZM16.7492 30.0142L17.7313 30.2021L23.4723 0.18787L22.4902 0L21.508 -0.18787L15.767 29.8264L16.7492 30.0142ZM22.4902 0V-1H21.5515V0V1H22.4902V0Z" fill="#FEC311" mask="url(#path-47-inside-24_567_1863)"/>
<mask id="path-49-inside-25_567_1863" fill="white">
<path d="M132.726 0L126.985 30.0142H127.924L133.665 0H132.726Z"/>
</mask>
<path d="M132.726 0L126.985 30.0142H127.924L133.665 0H132.726Z" fill="#FEC311"/>
<path d="M132.726 0V-1H131.899L131.744 -0.18787L132.726 0ZM126.985 30.0142L126.003 29.8264L125.776 31.0142H126.985V30.0142ZM127.924 30.0142V31.0142H128.751L128.906 30.2021L127.924 30.0142ZM133.665 0L134.647 0.18787L134.874 -1H133.665V0ZM132.726 0L131.744 -0.18787L126.003 29.8264L126.985 30.0142L127.968 30.2021L133.709 0.18787L132.726 0ZM126.985 30.0142V31.0142H127.924V30.0142V29.0142H126.985V30.0142ZM127.924 30.0142L128.906 30.2021L134.647 0.18787L133.665 0L132.683 -0.18787L126.942 29.8264L127.924 30.0142ZM133.665 0V-1H132.726V0V1H133.665V0Z" fill="#FEC311" mask="url(#path-49-inside-25_567_1863)"/>
<mask id="path-51-inside-26_567_1863" fill="white">
<path d="M16.2114 0L10.4795 30.0142H11.409L17.15 0H16.2114Z"/>
</mask>
<path d="M16.2114 0L10.4795 30.0142H11.409L17.15 0H16.2114Z" fill="#FEC311"/>
<path d="M16.2114 0V-1H15.3843L15.2291 -0.187582L16.2114 0ZM10.4795 30.0142L9.49724 29.8267L9.27045 31.0142H10.4795V30.0142ZM11.409 30.0142V31.0142H12.2358L12.3912 30.2021L11.409 30.0142ZM17.15 0L18.1322 0.18787L18.3594 -1H17.15V0ZM16.2114 0L15.2291 -0.187582L9.49724 29.8267L10.4795 30.0142L11.4617 30.2018L17.1936 0.187582L16.2114 0ZM10.4795 30.0142V31.0142H11.409V30.0142V29.0142H10.4795V30.0142ZM11.409 30.0142L12.3912 30.2021L18.1322 0.18787L17.15 0L16.1678 -0.18787L10.4268 29.8264L11.409 30.0142ZM17.15 0V-1H16.2114V0V1H17.15V0Z" fill="#FEC311" mask="url(#path-51-inside-26_567_1863)"/>
<mask id="path-53-inside-27_567_1863" fill="white">
<path d="M127.386 0L121.654 30.0142H122.584L128.325 0H127.386Z"/>
</mask>
<path d="M127.386 0L121.654 30.0142H122.584L128.325 0H127.386Z" fill="#FEC311"/>
<path d="M127.386 0V-1H126.559L126.404 -0.187582L127.386 0ZM121.654 30.0142L120.672 29.8267L120.445 31.0142H121.654V30.0142ZM122.584 30.0142V31.0142H123.411L123.566 30.2021L122.584 30.0142ZM128.325 0L129.307 0.18787L129.534 -1H128.325V0ZM127.386 0L126.404 -0.187582L120.672 29.8267L121.654 30.0142L122.637 30.2018L128.368 0.187582L127.386 0ZM121.654 30.0142V31.0142H122.584V30.0142V29.0142H121.654V30.0142ZM122.584 30.0142L123.566 30.2021L129.307 0.18787L128.325 0L127.343 -0.18787L121.602 29.8264L122.584 30.0142ZM128.325 0V-1H127.386V0V1H128.325V0Z" fill="#FEC311" mask="url(#path-53-inside-27_567_1863)"/>
<mask id="path-55-inside-28_567_1863" fill="white">
<path d="M10.9807 0L5.23975 30.0142H6.17835L11.9102 0H10.9807Z"/>
</mask>
<path d="M10.9807 0L5.23975 30.0142H6.17835L11.9102 0H10.9807Z" fill="#FEC311"/>
<path d="M10.9807 0V-1H10.1539L9.99855 -0.18787L10.9807 0ZM5.23975 30.0142L4.25755 29.8264L4.03034 31.0142H5.23975V30.0142ZM6.17835 30.0142V31.0142H7.00545L7.1606 30.2018L6.17835 30.0142ZM11.9102 0L12.8925 0.187582L13.1193 -1H11.9102V0ZM10.9807 0L9.99855 -0.18787L4.25755 29.8264L5.23975 30.0142L6.22194 30.2021L11.9629 0.18787L10.9807 0ZM5.23975 30.0142V31.0142H6.17835V30.0142V29.0142H5.23975V30.0142ZM6.17835 30.0142L7.1606 30.2018L12.8925 0.187582L11.9102 0L10.928 -0.187582L5.19611 29.8267L6.17835 30.0142ZM11.9102 0V-1H10.9807V0V1H11.9102V0Z" fill="#FEC311" mask="url(#path-55-inside-28_567_1863)"/>
<mask id="path-57-inside-29_567_1863" fill="white">
<path d="M122.156 0L116.415 30.0142H117.354L123.086 0H122.156Z"/>
</mask>
<path d="M122.156 0L116.415 30.0142H117.354L123.086 0H122.156Z" fill="#FEC311"/>
<path d="M122.156 0V-1H121.329L121.174 -0.18787L122.156 0ZM116.415 30.0142L115.433 29.8264L115.206 31.0142H116.415V30.0142ZM117.354 30.0142V31.0142H118.181L118.336 30.2018L117.354 30.0142ZM123.086 0L124.068 0.187582L124.295 -1H123.086V0ZM122.156 0L121.174 -0.18787L115.433 29.8264L116.415 30.0142L117.397 30.2021L123.138 0.18787L122.156 0ZM116.415 30.0142V31.0142H117.354V30.0142V29.0142H116.415V30.0142ZM117.354 30.0142L118.336 30.2018L124.068 0.187582L123.086 0L122.103 -0.187582L116.371 29.8267L117.354 30.0142ZM123.086 0V-1H122.156V0V1H123.086V0Z" fill="#FEC311" mask="url(#path-57-inside-29_567_1863)"/>
<mask id="path-59-inside-30_567_1863" fill="white">
<path d="M5.73189 3.05176e-05L0 30.0143H0.929495L6.6705 3.05176e-05H5.73189Z"/>
</mask>
<path d="M5.73189 3.05176e-05L0 30.0143H0.929495L6.6705 3.05176e-05H5.73189Z" fill="#FEC311"/>
<path d="M5.73189 3.05176e-05V-0.999969H4.90479L4.74964 -0.187552L5.73189 3.05176e-05ZM0 30.0143L-0.982249 29.8267L-1.20904 31.0143H0V30.0143ZM0.929495 30.0143V31.0143H1.75635L1.91169 30.2021L0.929495 30.0143ZM6.6705 3.05176e-05L7.65269 0.187901L7.8799 -0.999969H6.6705V3.05176e-05ZM5.73189 3.05176e-05L4.74964 -0.187552L-0.982249 29.8267L0 30.0143L0.982249 30.2019L6.71414 0.187613L5.73189 3.05176e-05ZM0 30.0143V31.0143H0.929495V30.0143V29.0143H0V30.0143ZM0.929495 30.0143L1.91169 30.2021L7.65269 0.187901L6.6705 3.05176e-05L5.6883 -0.187839L-0.0526984 29.8264L0.929495 30.0143ZM6.6705 3.05176e-05V-0.999969H5.73189V3.05176e-05V1.00003H6.6705V3.05176e-05Z" fill="#FEC311" mask="url(#path-59-inside-30_567_1863)"/>
<mask id="path-61-inside-31_567_1863" fill="white">
<path d="M116.907 0L111.175 30.0142H112.104L117.845 0H116.907Z"/>
</mask>
<path d="M116.907 0L111.175 30.0142H112.104L117.845 0H116.907Z" fill="#FEC311"/>
<path d="M116.907 0V-1H116.08L115.924 -0.187582L116.907 0ZM111.175 30.0142L110.193 29.8267L109.966 31.0142H111.175V30.0142ZM112.104 30.0142V31.0142H112.931L113.086 30.2021L112.104 30.0142ZM117.845 0L118.827 0.18787L119.055 -1H117.845V0ZM116.907 0L115.924 -0.187582L110.193 29.8267L111.175 30.0142L112.157 30.2018L117.889 0.187582L116.907 0ZM111.175 30.0142V31.0142H112.104V30.0142V29.0142H111.175V30.0142ZM112.104 30.0142L113.086 30.2021L118.827 0.18787L117.845 0L116.863 -0.18787L111.122 29.8264L112.104 30.0142ZM117.845 0V-1H116.907V0V1H117.845V0Z" fill="#FEC311" mask="url(#path-61-inside-31_567_1863)"/>
<mask id="path-63-inside-32_567_1863" fill="white">
<path d="M89.9881 0L84.2471 30.0142H85.1857L90.9267 0H89.9881Z"/>
</mask>
<path d="M89.9881 0L84.2471 30.0142H85.1857L90.9267 0H89.9881Z" fill="#FEC311"/>
<path d="M89.9881 0V-1H89.1612L89.0059 -0.18787L89.9881 0ZM84.2471 30.0142L83.2649 29.8264L83.0377 31.0142H84.2471V30.0142ZM85.1857 30.0142V31.0142H86.0125L86.1679 30.2021L85.1857 30.0142ZM90.9267 0L91.9089 0.18787L92.1361 -1H90.9267V0ZM89.9881 0L89.0059 -0.18787L83.2649 29.8264L84.2471 30.0142L85.2293 30.2021L90.9703 0.18787L89.9881 0ZM84.2471 30.0142V31.0142H85.1857V30.0142V29.0142H84.2471V30.0142ZM85.1857 30.0142L86.1679 30.2021L91.9089 0.18787L90.9267 0L89.9445 -0.18787L84.2035 29.8264L85.1857 30.0142ZM90.9267 0V-1H89.9881V0V1H90.9267V0Z" fill="#FEC311" mask="url(#path-63-inside-32_567_1863)"/>
<mask id="path-65-inside-33_567_1863" fill="white">
<path d="M201.163 0L195.422 30.0142H196.36L202.101 0H201.163Z"/>
</mask>
<path d="M201.163 0L195.422 30.0142H196.36L202.101 0H201.163Z" fill="#FEC311"/>
<path d="M201.163 0V-1H200.336L200.181 -0.18787L201.163 0ZM195.422 30.0142L194.44 29.8264L194.212 31.0142H195.422V30.0142ZM196.36 30.0142V31.0142H197.187L197.343 30.2021L196.36 30.0142ZM202.101 0L203.084 0.18787L203.311 -1H202.101V0ZM201.163 0L200.181 -0.18787L194.44 29.8264L195.422 30.0142L196.404 30.2021L202.145 0.18787L201.163 0ZM195.422 30.0142V31.0142H196.36V30.0142V29.0142H195.422V30.0142ZM196.36 30.0142L197.343 30.2021L203.084 0.18787L202.101 0L201.119 -0.18787L195.378 29.8264L196.36 30.0142ZM202.101 0V-1H201.163V0V1H202.101V0Z" fill="#FEC311" mask="url(#path-65-inside-33_567_1863)"/>
<mask id="path-67-inside-34_567_1863" fill="white">
<path d="M238.643 0L232.902 30.0142H233.841L239.582 0H238.643Z"/>
</mask>
<path d="M238.643 0L232.902 30.0142H233.841L239.582 0H238.643Z" fill="#FEC311"/>
<path d="M238.643 0V-1H237.816L237.661 -0.18787L238.643 0ZM232.902 30.0142L231.92 29.8264L231.693 31.0142H232.902V30.0142ZM233.841 30.0142V31.0142H234.668L234.823 30.2021L233.841 30.0142ZM239.582 0L240.564 0.18787L240.791 -1H239.582V0ZM238.643 0L237.661 -0.18787L231.92 29.8264L232.902 30.0142L233.885 30.2021L239.626 0.18787L238.643 0ZM232.902 30.0142V31.0142H233.841V30.0142V29.0142H232.902V30.0142ZM233.841 30.0142L234.823 30.2021L240.564 0.18787L239.582 0L238.6 -0.18787L232.859 29.8264L233.841 30.0142ZM239.582 0V-1H238.643V0V1H239.582V0Z" fill="#FEC311" mask="url(#path-67-inside-34_567_1863)"/>
<mask id="path-69-inside-35_567_1863" fill="white">
<path d="M84.7478 0L79.0068 30.0142H79.9454L85.6864 0H84.7478Z"/>
</mask>
<path d="M84.7478 0L79.0068 30.0142H79.9454L85.6864 0H84.7478Z" fill="#FEC311"/>
<path d="M84.7478 0V-1H83.921L83.7656 -0.18787L84.7478 0ZM79.0068 30.0142L78.0246 29.8264L77.7974 31.0142H79.0068V30.0142ZM79.9454 30.0142V31.0142H80.7723L80.9276 30.2021L79.9454 30.0142ZM85.6864 0L86.6686 0.18787L86.8958 -1H85.6864V0ZM84.7478 0L83.7656 -0.18787L78.0246 29.8264L79.0068 30.0142L79.989 30.2021L85.73 0.18787L84.7478 0ZM79.0068 30.0142V31.0142H79.9454V30.0142V29.0142H79.0068V30.0142ZM79.9454 30.0142L80.9276 30.2021L86.6686 0.18787L85.6864 0L84.7042 -0.18787L78.9632 29.8264L79.9454 30.0142ZM85.6864 0V-1H84.7478V0V1H85.6864V0Z" fill="#FEC311" mask="url(#path-69-inside-35_567_1863)"/>
<mask id="path-71-inside-36_567_1863" fill="white">
<path d="M195.923 0L190.182 30.0142H191.121L196.862 0H195.923Z"/>
</mask>
<path d="M195.923 0L190.182 30.0142H191.121L196.862 0H195.923Z" fill="#FEC311"/>
<path d="M195.923 0V-1H195.096L194.941 -0.18787L195.923 0ZM190.182 30.0142L189.2 29.8264L188.973 31.0142H190.182V30.0142ZM191.121 30.0142V31.0142H191.948L192.103 30.2021L191.121 30.0142ZM196.862 0L197.844 0.18787L198.071 -1H196.862V0ZM195.923 0L194.941 -0.18787L189.2 29.8264L190.182 30.0142L191.164 30.2021L196.905 0.18787L195.923 0ZM190.182 30.0142V31.0142H191.121V30.0142V29.0142H190.182V30.0142ZM191.121 30.0142L192.103 30.2021L197.844 0.18787L196.862 0L195.88 -0.18787L190.139 29.8264L191.121 30.0142ZM196.862 0V-1H195.923V0V1H196.862V0Z" fill="#FEC311" mask="url(#path-71-inside-36_567_1863)"/>
<mask id="path-73-inside-37_567_1863" fill="white">
<path d="M233.403 0L227.662 30.0142H228.601L234.342 0H233.403Z"/>
</mask>
<path d="M233.403 0L227.662 30.0142H228.601L234.342 0H233.403Z" fill="#FEC311"/>
<path d="M233.403 0V-1H232.576L232.421 -0.18787L233.403 0ZM227.662 30.0142L226.68 29.8264L226.453 31.0142H227.662V30.0142ZM228.601 30.0142V31.0142H229.428L229.583 30.2021L228.601 30.0142ZM234.342 0L235.324 0.18787L235.551 -1H234.342V0ZM233.403 0L232.421 -0.18787L226.68 29.8264L227.662 30.0142L228.644 30.2021L234.385 0.18787L233.403 0ZM227.662 30.0142V31.0142H228.601V30.0142V29.0142H227.662V30.0142ZM228.601 30.0142L229.583 30.2021L235.324 0.18787L234.342 0L233.36 -0.18787L227.619 29.8264L228.601 30.0142ZM234.342 0V-1H233.403V0V1H234.342V0Z" fill="#FEC311" mask="url(#path-73-inside-37_567_1863)"/>
<mask id="path-75-inside-38_567_1863" fill="white">
<path d="M95.2278 0L89.4868 30.0142H90.4254L96.1664 0H95.2278Z"/>
</mask>
<path d="M95.2278 0L89.4868 30.0142H90.4254L96.1664 0H95.2278Z" fill="#FEC311"/>
<path d="M95.2278 0V-1H94.401L94.2456 -0.18787L95.2278 0ZM89.4868 30.0142L88.5046 29.8264L88.2774 31.0142H89.4868V30.0142ZM90.4254 30.0142V31.0142H91.2523L91.4076 30.2021L90.4254 30.0142ZM96.1664 0L97.1486 0.18787L97.3758 -1H96.1664V0ZM95.2278 0L94.2456 -0.18787L88.5046 29.8264L89.4868 30.0142L90.469 30.2021L96.21 0.18787L95.2278 0ZM89.4868 30.0142V31.0142H90.4254V30.0142V29.0142H89.4868V30.0142ZM90.4254 30.0142L91.4076 30.2021L97.1486 0.18787L96.1664 0L95.1842 -0.18787L89.4432 29.8264L90.4254 30.0142ZM96.1664 0V-1H95.2278V0V1H96.1664V0Z" fill="#FEC311" mask="url(#path-75-inside-38_567_1863)"/>
<mask id="path-77-inside-39_567_1863" fill="white">
<path d="M206.403 0L200.662 30.0142H201.6L207.341 0H206.403Z"/>
</mask>
<path d="M206.403 0L200.662 30.0142H201.6L207.341 0H206.403Z" fill="#FEC311"/>
<path d="M206.403 0V-1H205.576L205.42 -0.18787L206.403 0ZM200.662 30.0142L199.679 29.8264L199.452 31.0142H200.662V30.0142ZM201.6 30.0142V31.0142H202.427L202.582 30.2021L201.6 30.0142ZM207.341 0L208.323 0.18787L208.551 -1H207.341V0ZM206.403 0L205.42 -0.18787L199.679 29.8264L200.662 30.0142L201.644 30.2021L207.385 0.18787L206.403 0ZM200.662 30.0142V31.0142H201.6V30.0142V29.0142H200.662V30.0142ZM201.6 30.0142L202.582 30.2021L208.323 0.18787L207.341 0L206.359 -0.18787L200.618 29.8264L201.6 30.0142ZM207.341 0V-1H206.403V0V1H207.341V0Z" fill="#FEC311" mask="url(#path-77-inside-39_567_1863)"/>
<mask id="path-79-inside-40_567_1863" fill="white">
<path d="M243.883 0L238.142 30.0142H239.081L244.822 0H243.883Z"/>
</mask>
<path d="M243.883 0L238.142 30.0142H239.081L244.822 0H243.883Z" fill="#FEC311"/>
<path d="M243.883 0V-1H243.056L242.901 -0.18787L243.883 0ZM238.142 30.0142L237.16 29.8264L236.933 31.0142H238.142V30.0142ZM239.081 30.0142V31.0142H239.908L240.063 30.2021L239.081 30.0142ZM244.822 0L245.804 0.18787L246.031 -1H244.822V0ZM243.883 0L242.901 -0.18787L237.16 29.8264L238.142 30.0142L239.124 30.2021L244.865 0.18787L243.883 0ZM238.142 30.0142V31.0142H239.081V30.0142V29.0142H238.142V30.0142ZM239.081 30.0142L240.063 30.2021L245.804 0.18787L244.822 0L243.84 -0.18787L238.099 29.8264L239.081 30.0142ZM244.822 0V-1H243.883V0V1H244.822V0Z" fill="#FEC311" mask="url(#path-79-inside-40_567_1863)"/>
<mask id="path-81-inside-41_567_1863" fill="white">
<path d="M264.542 0L258.801 30.0142H259.739L265.48 0H264.542Z"/>
</mask>
<path d="M264.542 0L258.801 30.0142H259.739L265.48 0H264.542Z" fill="#FEC311"/>
<path d="M264.542 0V-1H263.715L263.56 -0.18787L264.542 0ZM258.801 30.0142L257.819 29.8264L257.591 31.0142H258.801V30.0142ZM259.739 30.0142V31.0142H260.566L260.722 30.2021L259.739 30.0142ZM265.48 0L266.463 0.18787L266.69 -1H265.48V0ZM264.542 0L263.56 -0.18787L257.819 29.8264L258.801 30.0142L259.783 30.2021L265.524 0.18787L264.542 0ZM258.801 30.0142V31.0142H259.739V30.0142V29.0142H258.801V30.0142ZM259.739 30.0142L260.722 30.2021L266.463 0.18787L265.48 0L264.498 -0.18787L258.757 29.8264L259.739 30.0142ZM265.48 0V-1H264.542V0V1H265.48V0Z" fill="#FEC311" mask="url(#path-81-inside-41_567_1863)"/>
<mask id="path-83-inside-42_567_1863" fill="white">
<path d="M100.522 0L94.7812 30.0142H95.7199L101.461 0H100.522Z"/>
</mask>
<path d="M100.522 0L94.7812 30.0142H95.7199L101.461 0H100.522Z" fill="#FEC311"/>
<path d="M100.522 0V-1H99.6954L99.5401 -0.18787L100.522 0ZM94.7812 30.0142L93.7991 29.8264L93.5718 31.0142H94.7812V30.0142ZM95.7199 30.0142V31.0142H96.5467L96.7021 30.2021L95.7199 30.0142ZM101.461 0L102.443 0.18787L102.67 -1H101.461V0ZM100.522 0L99.5401 -0.18787L93.7991 29.8264L94.7812 30.0142L95.7634 30.2021L101.504 0.18787L100.522 0ZM94.7812 30.0142V31.0142H95.7199V30.0142V29.0142H94.7812V30.0142ZM95.7199 30.0142L96.7021 30.2021L102.443 0.18787L101.461 0L100.479 -0.18787L94.7377 29.8264L95.7199 30.0142ZM101.461 0V-1H100.522V0V1H101.461V0Z" fill="#FEC311" mask="url(#path-83-inside-42_567_1863)"/>
<mask id="path-85-inside-43_567_1863" fill="white">
<path d="M211.697 0L205.956 30.0142H206.895L212.636 0H211.697Z"/>
</mask>
<path d="M211.697 0L205.956 30.0142H206.895L212.636 0H211.697Z" fill="#FEC311"/>
<path d="M211.697 0V-1H210.87L210.715 -0.18787L211.697 0ZM205.956 30.0142L204.974 29.8264L204.747 31.0142H205.956V30.0142ZM206.895 30.0142V31.0142H207.722L207.877 30.2021L206.895 30.0142ZM212.636 0L213.618 0.18787L213.845 -1H212.636V0ZM211.697 0L210.715 -0.18787L204.974 29.8264L205.956 30.0142L206.938 30.2021L212.679 0.18787L211.697 0ZM205.956 30.0142V31.0142H206.895V30.0142V29.0142H205.956V30.0142ZM206.895 30.0142L207.877 30.2021L213.618 0.18787L212.636 0L211.653 -0.18787L205.912 29.8264L206.895 30.0142ZM212.636 0V-1H211.697V0V1H212.636V0Z" fill="#FEC311" mask="url(#path-85-inside-43_567_1863)"/>
<mask id="path-87-inside-44_567_1863" fill="white">
<path d="M249.178 0L243.437 30.0142H244.375L250.116 0H249.178Z"/>
</mask>
<path d="M249.178 0L243.437 30.0142H244.375L250.116 0H249.178Z" fill="#FEC311"/>
<path d="M249.178 0V-1H248.351L248.195 -0.18787L249.178 0ZM243.437 30.0142L242.454 29.8264L242.227 31.0142H243.437V30.0142ZM244.375 30.0142V31.0142H245.202L245.357 30.2021L244.375 30.0142ZM250.116 0L251.098 0.18787L251.326 -1H250.116V0ZM249.178 0L248.195 -0.18787L242.454 29.8264L243.437 30.0142L244.419 30.2021L250.16 0.18787L249.178 0ZM243.437 30.0142V31.0142H244.375V30.0142V29.0142H243.437V30.0142ZM244.375 30.0142L245.357 30.2021L251.098 0.18787L250.116 0L249.134 -0.18787L243.393 29.8264L244.375 30.0142ZM250.116 0V-1H249.178V0V1H250.116V0Z" fill="#FEC311" mask="url(#path-87-inside-44_567_1863)"/>
<mask id="path-89-inside-45_567_1863" fill="white">
<path d="M265.033 30.0142H264.095L268 9.59727V14.5L265.033 30.0142Z"/>
</mask>
<path d="M265.033 30.0142H264.095L268 9.59727V14.5L265.033 30.0142Z" fill="#FEC311"/>
<path d="M264.095 30.0142L263.113 29.8264L262.885 31.0142H264.095V30.0142ZM265.033 30.0142V31.0142H265.86L266.016 30.2021L265.033 30.0142ZM268 9.59727H269L267.018 9.4094L268 9.59727ZM268 14.5L268.982 14.6878L269 14.5947V14.5H268ZM264.095 30.0142V31.0142H265.033V30.0142V29.0142H264.095V30.0142ZM268 9.59727L267.018 9.4094L263.113 29.8264L264.095 30.0142L265.077 30.2021L268.982 9.78514L268 9.59727ZM265.033 30.0142L266.016 30.2021L268.982 14.6878L268 14.5L267.018 14.3122L264.051 29.8264L265.033 30.0142ZM268 9.59727H267V14.5H268H269V9.59727H268Z" fill="#FEC311" mask="url(#path-89-inside-45_567_1863)"/>
<mask id="path-91-inside-46_567_1863" fill="white">
<path d="M105.716 0L99.9844 30.0142H100.923L106.655 0H105.716Z"/>
</mask>
<path d="M105.716 0L99.9844 30.0142H100.923L106.655 0H105.716Z" fill="#FEC311"/>
<path d="M105.716 0V-1H104.889L104.734 -0.187582L105.716 0ZM99.9844 30.0142L99.0021 29.8267L98.7753 31.0142H99.9844V30.0142ZM100.923 30.0142V31.0142H101.75L101.905 30.2018L100.923 30.0142ZM106.655 0L107.637 0.187582L107.864 -1H106.655V0ZM105.716 0L104.734 -0.187582L99.0021 29.8267L99.9844 30.0142L100.967 30.2018L106.699 0.187582L105.716 0ZM99.9844 30.0142V31.0142H100.923V30.0142V29.0142H99.9844V30.0142ZM100.923 30.0142L101.905 30.2018L107.637 0.187582L106.655 0L105.673 -0.187582L99.9407 29.8267L100.923 30.0142ZM106.655 0V-1H105.716V0V1H106.655V0Z" fill="#FEC311" mask="url(#path-91-inside-46_567_1863)"/>
<mask id="path-93-inside-47_567_1863" fill="white">
<path d="M216.891 0L211.159 30.0142H212.098L217.83 0H216.891Z"/>
</mask>
<path d="M216.891 0L211.159 30.0142H212.098L217.83 0H216.891Z" fill="#FEC311"/>
<path d="M216.891 0V-1H216.064L215.909 -0.187582L216.891 0ZM211.159 30.0142L210.177 29.8267L209.95 31.0142H211.159V30.0142ZM212.098 30.0142V31.0142H212.925L213.08 30.2018L212.098 30.0142ZM217.83 0L218.812 0.187582L219.039 -1H217.83V0ZM216.891 0L215.909 -0.187582L210.177 29.8267L211.159 30.0142L212.141 30.2018L217.873 0.187582L216.891 0ZM211.159 30.0142V31.0142H212.098V30.0142V29.0142H211.159V30.0142ZM212.098 30.0142L213.08 30.2018L218.812 0.187582L217.83 0L216.847 -0.187582L211.116 29.8267L212.098 30.0142ZM217.83 0V-1H216.891V0V1H217.83V0Z" fill="#FEC311" mask="url(#path-93-inside-47_567_1863)"/>
<mask id="path-95-inside-48_567_1863" fill="white">
<path d="M254.372 0L248.64 30.0142H249.579L255.311 0H254.372Z"/>
</mask>
<path d="M254.372 0L248.64 30.0142H249.579L255.311 0H254.372Z" fill="#FEC311"/>
<path d="M254.372 0V-1H253.545L253.39 -0.187582L254.372 0ZM248.64 30.0142L247.658 29.8267L247.431 31.0142H248.64V30.0142ZM249.579 30.0142V31.0142H250.406L250.561 30.2018L249.579 30.0142ZM255.311 0L256.293 0.187582L256.52 -1H255.311V0ZM254.372 0L253.39 -0.187582L247.658 29.8267L248.64 30.0142L249.622 30.2018L255.354 0.187582L254.372 0ZM248.64 30.0142V31.0142H249.579V30.0142V29.0142H248.64V30.0142ZM249.579 30.0142L250.561 30.2018L256.293 0.187582L255.311 0L254.328 -0.187582L248.596 29.8267L249.579 30.0142ZM255.311 0V-1H254.372V0V1H255.311V0Z" fill="#FEC311" mask="url(#path-95-inside-48_567_1863)"/>
<mask id="path-97-inside-49_567_1863" fill="white">
<path d="M110.965 0L105.233 30.0142H106.172L111.904 0H110.965Z"/>
</mask>
<path d="M110.965 0L105.233 30.0142H106.172L111.904 0H110.965Z" fill="#FEC311"/>
<path d="M110.965 0V-1H110.138L109.983 -0.187582L110.965 0ZM105.233 30.0142L104.251 29.8267L104.024 31.0142H105.233V30.0142ZM106.172 30.0142V31.0142H106.999L107.154 30.2018L106.172 30.0142ZM111.904 0L112.886 0.187582L113.113 -1H111.904V0ZM110.965 0L109.983 -0.187582L104.251 29.8267L105.233 30.0142L106.216 30.2018L111.948 0.187582L110.965 0ZM105.233 30.0142V31.0142H106.172V30.0142V29.0142H105.233V30.0142ZM106.172 30.0142L107.154 30.2018L112.886 0.187582L111.904 0L110.922 -0.187582L105.19 29.8267L106.172 30.0142ZM111.904 0V-1H110.965V0V1H111.904V0Z" fill="#FEC311" mask="url(#path-97-inside-49_567_1863)"/>
<mask id="path-99-inside-50_567_1863" fill="white">
<path d="M222.14 0L216.408 30.0142H217.347L223.079 0H222.14Z"/>
</mask>
<path d="M222.14 0L216.408 30.0142H217.347L223.079 0H222.14Z" fill="#FEC311"/>
<path d="M222.14 0V-1H221.313L221.158 -0.187582L222.14 0ZM216.408 30.0142L215.426 29.8267L215.199 31.0142H216.408V30.0142ZM217.347 30.0142V31.0142H218.174L218.329 30.2018L217.347 30.0142ZM223.079 0L224.061 0.187582L224.288 -1H223.079V0ZM222.14 0L221.158 -0.187582L215.426 29.8267L216.408 30.0142L217.39 30.2018L223.122 0.187582L222.14 0ZM216.408 30.0142V31.0142H217.347V30.0142V29.0142H216.408V30.0142ZM217.347 30.0142L218.329 30.2018L224.061 0.187582L223.079 0L222.096 -0.187582L216.365 29.8267L217.347 30.0142ZM223.079 0V-1H222.14V0V1H223.079V0Z" fill="#FEC311" mask="url(#path-99-inside-50_567_1863)"/>
<mask id="path-101-inside-51_567_1863" fill="white">
<path d="M259.621 0L253.889 30.0142H254.827L260.559 0H259.621Z"/>
</mask>
<path d="M259.621 0L253.889 30.0142H254.827L260.559 0H259.621Z" fill="#FEC311"/>
<path d="M259.621 0V-1H258.793L258.638 -0.187582L259.621 0ZM253.889 30.0142L252.906 29.8267L252.68 31.0142H253.889V30.0142ZM254.827 30.0142V31.0142H255.654L255.81 30.2018L254.827 30.0142ZM260.559 0L261.541 0.187582L261.768 -1H260.559V0ZM259.621 0L258.638 -0.187582L252.906 29.8267L253.889 30.0142L254.871 30.2018L260.603 0.187582L259.621 0ZM253.889 30.0142V31.0142H254.827V30.0142V29.0142H253.889V30.0142ZM254.827 30.0142L255.81 30.2018L261.541 0.187582L260.559 0L259.577 -0.187582L253.845 29.8267L254.827 30.0142ZM260.559 0V-1H259.621V0V1H260.559V0Z" fill="#FEC311" mask="url(#path-101-inside-51_567_1863)"/>
</svg>
