<svg width="108" height="31" viewBox="0 0 108 31" fill="none" xmlns="http://www.w3.org/2000/svg">
<path d="M79.9035 0L74.1372 30.0142H75.0815L80.8478 0H79.9035Z" fill="#FEC311"/>
<path d="M74.5222 0L68.7467 30.0142H69.691L75.4664 0H74.5222Z" fill="#FEC311"/>
<path d="M69.3152 0L63.5488 30.0142H64.4931L70.2594 0H69.3152Z" fill="#FEC311"/>
<path d="M63.998 0L58.2317 30.0142H59.1668L64.9423 0H63.998Z" fill="#FEC311"/>
<path d="M58.6992 0L52.9237 30.0142H53.868L59.6435 0H58.6992Z" fill="#FEC311"/>
<path d="M53.3821 0L47.6066 30.0142H47.6157H48.5508L54.3263 0H53.3821Z" fill="#FEC311"/>
<path d="M48.12 0L42.3445 30.0142H43.2887L49.0642 0H48.12Z" fill="#FEC311"/>
<path d="M42.7845 0L37.009 30.0142H37.9533L43.7288 0H42.7845Z" fill="#FEC311"/>
<path d="M37.4948 0L31.7285 30.0142H32.6728L38.4391 0H37.4948Z" fill="#FEC311"/>
<path d="M32.1594 0L26.3839 30.0142H26.3931H27.3282L33.1037 0H32.1594Z" fill="#FEC311"/>
<path d="M27.0531 0L21.2776 30.0142H22.2218L27.9882 0H27.0531Z" fill="#FEC311"/>
<path d="M21.681 0L15.9055 30.0142H16.8498L22.6253 0H21.681Z" fill="#FEC311"/>
<path d="M16.3089 0L10.5426 30.0142H11.4777L17.2532 0H16.3089Z" fill="#FEC311"/>
<path d="M11.0469 0L5.27136 30.0142H6.21561L11.9819 0H11.0469Z" fill="#FEC311"/>
<path d="M5.76633 0L0 30.0142H0.935081L6.71058 0H5.76633Z" fill="#FEC311"/>
<path d="M90.5285 0L84.7531 30.0142H85.6973L91.4728 0H90.5285Z" fill="#FEC311"/>
<path d="M85.2573 0L79.4818 30.0142H80.4261L86.2015 0H85.2573Z" fill="#FEC311"/>
<path d="M95.7998 0L90.0243 30.0142H90.9685L96.744 0H95.7998Z" fill="#FEC311"/>
<path d="M101.126 0L95.3507 30.0142H96.295L102.07 0H101.126Z" fill="#FEC311"/>
<path d="M106.352 0L100.585 30.0142H101.529L107.296 0H106.352Z" fill="#FEC311"/>
</svg>
