<svg width="172" height="36" viewBox="0 0 172 36" fill="none" xmlns="http://www.w3.org/2000/svg">
<g clip-path="url(#clip0_702_5428)">
<path d="M7 0L0 36H165L172 0H7Z" fill="#FFA20E"/>
<g clip-path="url(#clip1_702_5428)">
<path d="M35.4951 21.4893L38.4277 13.0469H39.8564L36.1719 23H35.1533L35.4951 21.4893ZM32.7539 13.0469L35.6592 21.4893L36.0215 23H35.0029L31.3252 13.0469H32.7539ZM40.3555 19.3838V19.2266C40.3555 18.6934 40.4329 18.1989 40.5879 17.7432C40.7428 17.2829 40.9661 16.8841 41.2578 16.5469C41.5495 16.2051 41.9027 15.9408 42.3174 15.7539C42.7321 15.5625 43.1969 15.4668 43.7119 15.4668C44.2314 15.4668 44.6986 15.5625 45.1133 15.7539C45.5326 15.9408 45.888 16.2051 46.1797 16.5469C46.4759 16.8841 46.7015 17.2829 46.8564 17.7432C47.0114 18.1989 47.0889 18.6934 47.0889 19.2266V19.3838C47.0889 19.917 47.0114 20.4115 46.8564 20.8672C46.7015 21.3229 46.4759 21.7217 46.1797 22.0635C45.888 22.4007 45.5348 22.665 45.1201 22.8564C44.71 23.0433 44.2451 23.1367 43.7256 23.1367C43.2061 23.1367 42.7389 23.0433 42.3242 22.8564C41.9095 22.665 41.554 22.4007 41.2578 22.0635C40.9661 21.7217 40.7428 21.3229 40.5879 20.8672C40.4329 20.4115 40.3555 19.917 40.3555 19.3838ZM41.6201 19.2266V19.3838C41.6201 19.7529 41.6634 20.1016 41.75 20.4297C41.8366 20.7533 41.9665 21.0404 42.1396 21.291C42.3174 21.5417 42.5384 21.7399 42.8027 21.8857C43.0671 22.027 43.3747 22.0977 43.7256 22.0977C44.0719 22.0977 44.375 22.027 44.6348 21.8857C44.8991 21.7399 45.1178 21.5417 45.291 21.291C45.4642 21.0404 45.5941 20.7533 45.6807 20.4297C45.7718 20.1016 45.8174 19.7529 45.8174 19.3838V19.2266C45.8174 18.862 45.7718 18.5179 45.6807 18.1943C45.5941 17.8662 45.4619 17.5768 45.2842 17.3262C45.111 17.071 44.8923 16.8704 44.6279 16.7246C44.3682 16.5788 44.0628 16.5059 43.7119 16.5059C43.3656 16.5059 43.0602 16.5788 42.7959 16.7246C42.5361 16.8704 42.3174 17.071 42.1396 17.3262C41.9665 17.5768 41.8366 17.8662 41.75 18.1943C41.6634 18.5179 41.6201 18.862 41.6201 19.2266ZM50.0488 12.5V23H48.7773V12.5H50.0488ZM55.1758 15.6035V16.5742H51.1768V15.6035H55.1758ZM52.5303 13.8057H53.7949V21.168C53.7949 21.4186 53.8337 21.6077 53.9111 21.7354C53.9886 21.863 54.0889 21.9473 54.2119 21.9883C54.335 22.0293 54.4671 22.0498 54.6084 22.0498C54.7132 22.0498 54.8226 22.0407 54.9365 22.0225C55.055 21.9997 55.1439 21.9814 55.2031 21.9678L55.21 23C55.1097 23.0319 54.9775 23.0615 54.8135 23.0889C54.654 23.1208 54.4603 23.1367 54.2324 23.1367C53.9225 23.1367 53.6377 23.0752 53.3779 22.9521C53.1182 22.8291 52.9108 22.624 52.7559 22.3369C52.6055 22.0452 52.5303 21.6533 52.5303 21.1611V13.8057ZM61.0205 21.7354V17.9277C61.0205 17.6361 60.9613 17.3831 60.8428 17.1689C60.7288 16.9502 60.5557 16.7816 60.3232 16.6631C60.0908 16.5446 59.8037 16.4854 59.4619 16.4854C59.1429 16.4854 58.8626 16.54 58.6211 16.6494C58.3841 16.7588 58.1973 16.9023 58.0605 17.0801C57.9284 17.2578 57.8623 17.4492 57.8623 17.6543H56.5977C56.5977 17.39 56.666 17.1279 56.8027 16.8682C56.9395 16.6084 57.1354 16.3737 57.3906 16.1641C57.6504 15.9499 57.9603 15.7812 58.3203 15.6582C58.6849 15.5306 59.0905 15.4668 59.5371 15.4668C60.0749 15.4668 60.5488 15.5579 60.959 15.7402C61.3737 15.9225 61.6973 16.1982 61.9297 16.5674C62.1667 16.932 62.2852 17.39 62.2852 17.9414V21.3867C62.2852 21.6328 62.3057 21.8949 62.3467 22.1729C62.3923 22.4508 62.4583 22.6901 62.5449 22.8906V23H61.2256C61.1618 22.8542 61.1117 22.6605 61.0752 22.4189C61.0387 22.1729 61.0205 21.945 61.0205 21.7354ZM61.2393 18.5156L61.2529 19.4043H59.9746C59.6146 19.4043 59.2933 19.4339 59.0107 19.4932C58.7282 19.5479 58.4912 19.6322 58.2998 19.7461C58.1084 19.86 57.9626 20.0036 57.8623 20.1768C57.762 20.3454 57.7119 20.5436 57.7119 20.7715C57.7119 21.0039 57.7643 21.2158 57.8691 21.4072C57.974 21.5986 58.1312 21.7513 58.3408 21.8652C58.555 21.9746 58.8171 22.0293 59.127 22.0293C59.5143 22.0293 59.8561 21.9473 60.1523 21.7832C60.4486 21.6191 60.6833 21.4186 60.8564 21.1816C61.0342 20.9447 61.1299 20.7145 61.1436 20.4912L61.6836 21.0996C61.6517 21.291 61.5651 21.5029 61.4238 21.7354C61.2826 21.9678 61.0934 22.1911 60.8564 22.4053C60.624 22.6149 60.346 22.7904 60.0225 22.9316C59.7035 23.0684 59.3434 23.1367 58.9424 23.1367C58.4411 23.1367 58.0013 23.0387 57.623 22.8428C57.2493 22.6468 56.9577 22.3848 56.748 22.0566C56.543 21.724 56.4404 21.3525 56.4404 20.9424C56.4404 20.5459 56.5179 20.1973 56.6729 19.8965C56.8278 19.5911 57.0511 19.3382 57.3428 19.1377C57.6344 18.9326 57.9854 18.7777 58.3955 18.6729C58.8057 18.568 59.2637 18.5156 59.7695 18.5156H61.2393ZM65.5391 16.7656V23H64.2744V15.6035H65.5049L65.5391 16.7656ZM67.8496 15.5625L67.8428 16.7383C67.738 16.7155 67.6377 16.7018 67.542 16.6973C67.4508 16.6882 67.346 16.6836 67.2275 16.6836C66.9359 16.6836 66.6784 16.7292 66.4551 16.8203C66.2318 16.9115 66.0426 17.0391 65.8877 17.2031C65.7327 17.3672 65.6097 17.5632 65.5186 17.791C65.432 18.0143 65.375 18.2604 65.3477 18.5293L64.9922 18.7344C64.9922 18.2878 65.0355 17.8685 65.1221 17.4766C65.2132 17.0846 65.3522 16.7383 65.5391 16.4375C65.7259 16.1322 65.9629 15.8952 66.25 15.7266C66.5417 15.5534 66.888 15.4668 67.2891 15.4668C67.3802 15.4668 67.485 15.4782 67.6035 15.501C67.722 15.5192 67.804 15.5397 67.8496 15.5625ZM76.8525 21.7354V17.9277C76.8525 17.6361 76.7933 17.3831 76.6748 17.1689C76.5609 16.9502 76.3877 16.7816 76.1553 16.6631C75.9229 16.5446 75.6357 16.4854 75.2939 16.4854C74.9749 16.4854 74.6947 16.54 74.4531 16.6494C74.2161 16.7588 74.0293 16.9023 73.8926 17.0801C73.7604 17.2578 73.6943 17.4492 73.6943 17.6543H72.4297C72.4297 17.39 72.498 17.1279 72.6348 16.8682C72.7715 16.6084 72.9674 16.3737 73.2227 16.1641C73.4824 15.9499 73.7923 15.7812 74.1523 15.6582C74.5169 15.5306 74.9225 15.4668 75.3691 15.4668C75.9069 15.4668 76.3809 15.5579 76.791 15.7402C77.2057 15.9225 77.5293 16.1982 77.7617 16.5674C77.9987 16.932 78.1172 17.39 78.1172 17.9414V21.3867C78.1172 21.6328 78.1377 21.8949 78.1787 22.1729C78.2243 22.4508 78.2904 22.6901 78.377 22.8906V23H77.0576C76.9938 22.8542 76.9437 22.6605 76.9072 22.4189C76.8708 22.1729 76.8525 21.945 76.8525 21.7354ZM77.0713 18.5156L77.085 19.4043H75.8066C75.4466 19.4043 75.1253 19.4339 74.8428 19.4932C74.5602 19.5479 74.3232 19.6322 74.1318 19.7461C73.9404 19.86 73.7946 20.0036 73.6943 20.1768C73.5941 20.3454 73.5439 20.5436 73.5439 20.7715C73.5439 21.0039 73.5964 21.2158 73.7012 21.4072C73.806 21.5986 73.9632 21.7513 74.1729 21.8652C74.387 21.9746 74.6491 22.0293 74.959 22.0293C75.3464 22.0293 75.6882 21.9473 75.9844 21.7832C76.2806 21.6191 76.5153 21.4186 76.6885 21.1816C76.8662 20.9447 76.9619 20.7145 76.9756 20.4912L77.5156 21.0996C77.4837 21.291 77.3971 21.5029 77.2559 21.7354C77.1146 21.9678 76.9255 22.1911 76.6885 22.4053C76.4561 22.6149 76.1781 22.7904 75.8545 22.9316C75.5355 23.0684 75.1755 23.1367 74.7744 23.1367C74.2731 23.1367 73.8333 23.0387 73.4551 22.8428C73.0814 22.6468 72.7897 22.3848 72.5801 22.0566C72.375 21.724 72.2725 21.3525 72.2725 20.9424C72.2725 20.5459 72.3499 20.1973 72.5049 19.8965C72.6598 19.5911 72.8831 19.3382 73.1748 19.1377C73.4665 18.9326 73.8174 18.7777 74.2275 18.6729C74.6377 18.568 75.0957 18.5156 75.6016 18.5156H77.0713ZM79.7715 19.3838V19.2266C79.7715 18.6934 79.849 18.1989 80.0039 17.7432C80.1589 17.2829 80.3822 16.8841 80.6738 16.5469C80.9655 16.2051 81.3187 15.9408 81.7334 15.7539C82.1481 15.5625 82.613 15.4668 83.1279 15.4668C83.6475 15.4668 84.1146 15.5625 84.5293 15.7539C84.9486 15.9408 85.304 16.2051 85.5957 16.5469C85.8919 16.8841 86.1175 17.2829 86.2725 17.7432C86.4274 18.1989 86.5049 18.6934 86.5049 19.2266V19.3838C86.5049 19.917 86.4274 20.4115 86.2725 20.8672C86.1175 21.3229 85.8919 21.7217 85.5957 22.0635C85.304 22.4007 84.9508 22.665 84.5361 22.8564C84.126 23.0433 83.6611 23.1367 83.1416 23.1367C82.6221 23.1367 82.1549 23.0433 81.7402 22.8564C81.3255 22.665 80.9701 22.4007 80.6738 22.0635C80.3822 21.7217 80.1589 21.3229 80.0039 20.8672C79.849 20.4115 79.7715 19.917 79.7715 19.3838ZM81.0361 19.2266V19.3838C81.0361 19.7529 81.0794 20.1016 81.166 20.4297C81.2526 20.7533 81.3825 21.0404 81.5557 21.291C81.7334 21.5417 81.9544 21.7399 82.2188 21.8857C82.4831 22.027 82.7907 22.0977 83.1416 22.0977C83.488 22.0977 83.791 22.027 84.0508 21.8857C84.3151 21.7399 84.5339 21.5417 84.707 21.291C84.8802 21.0404 85.0101 20.7533 85.0967 20.4297C85.1878 20.1016 85.2334 19.7529 85.2334 19.3838V19.2266C85.2334 18.862 85.1878 18.5179 85.0967 18.1943C85.0101 17.8662 84.8779 17.5768 84.7002 17.3262C84.527 17.071 84.3083 16.8704 84.0439 16.7246C83.7842 16.5788 83.4788 16.5059 83.1279 16.5059C82.7816 16.5059 82.4762 16.5788 82.2119 16.7246C81.9521 16.8704 81.7334 17.071 81.5557 17.3262C81.3825 17.5768 81.2526 17.8662 81.166 18.1943C81.0794 18.5179 81.0361 18.862 81.0361 19.2266ZM94.6602 15.6035V16.5742H90.6611V15.6035H94.6602ZM92.0146 13.8057H93.2793V21.168C93.2793 21.4186 93.318 21.6077 93.3955 21.7354C93.473 21.863 93.5732 21.9473 93.6963 21.9883C93.8193 22.0293 93.9515 22.0498 94.0928 22.0498C94.1976 22.0498 94.307 22.0407 94.4209 22.0225C94.5394 21.9997 94.6283 21.9814 94.6875 21.9678L94.6943 23C94.5941 23.0319 94.4619 23.0615 94.2979 23.0889C94.1383 23.1208 93.9447 23.1367 93.7168 23.1367C93.4069 23.1367 93.1221 23.0752 92.8623 22.9521C92.6025 22.8291 92.3952 22.624 92.2402 22.3369C92.0898 22.0452 92.0146 21.6533 92.0146 21.1611V13.8057ZM95.6719 19.3838V19.2266C95.6719 18.6934 95.7493 18.1989 95.9043 17.7432C96.0592 17.2829 96.2826 16.8841 96.5742 16.5469C96.8659 16.2051 97.2191 15.9408 97.6338 15.7539C98.0485 15.5625 98.5133 15.4668 99.0283 15.4668C99.5479 15.4668 100.015 15.5625 100.43 15.7539C100.849 15.9408 101.204 16.2051 101.496 16.5469C101.792 16.8841 102.018 17.2829 102.173 17.7432C102.328 18.1989 102.405 18.6934 102.405 19.2266V19.3838C102.405 19.917 102.328 20.4115 102.173 20.8672C102.018 21.3229 101.792 21.7217 101.496 22.0635C101.204 22.4007 100.851 22.665 100.437 22.8564C100.026 23.0433 99.5615 23.1367 99.042 23.1367C98.5225 23.1367 98.0553 23.0433 97.6406 22.8564C97.2259 22.665 96.8704 22.4007 96.5742 22.0635C96.2826 21.7217 96.0592 21.3229 95.9043 20.8672C95.7493 20.4115 95.6719 19.917 95.6719 19.3838ZM96.9365 19.2266V19.3838C96.9365 19.7529 96.9798 20.1016 97.0664 20.4297C97.153 20.7533 97.2829 21.0404 97.4561 21.291C97.6338 21.5417 97.8548 21.7399 98.1191 21.8857C98.3835 22.027 98.6911 22.0977 99.042 22.0977C99.3883 22.0977 99.6914 22.027 99.9512 21.8857C100.215 21.7399 100.434 21.5417 100.607 21.291C100.781 21.0404 100.91 20.7533 100.997 20.4297C101.088 20.1016 101.134 19.7529 101.134 19.3838V19.2266C101.134 18.862 101.088 18.5179 100.997 18.1943C100.91 17.8662 100.778 17.5768 100.601 17.3262C100.427 17.071 100.209 16.8704 99.9443 16.7246C99.6846 16.5788 99.3792 16.5059 99.0283 16.5059C98.682 16.5059 98.3766 16.5788 98.1123 16.7246C97.8525 16.8704 97.6338 17.071 97.4561 17.3262C97.2829 17.5768 97.153 17.8662 97.0664 18.1943C96.9798 18.5179 96.9365 18.862 96.9365 19.2266ZM105.256 17.0254V25.8438H103.984V15.6035H105.146L105.256 17.0254ZM110.239 19.2402V19.3838C110.239 19.9215 110.175 20.4206 110.048 20.8809C109.92 21.3366 109.733 21.7331 109.487 22.0703C109.246 22.4076 108.947 22.6696 108.592 22.8564C108.236 23.0433 107.828 23.1367 107.368 23.1367C106.899 23.1367 106.484 23.0592 106.124 22.9043C105.764 22.7493 105.459 22.5238 105.208 22.2275C104.957 21.9313 104.757 21.5758 104.606 21.1611C104.461 20.7464 104.36 20.2793 104.306 19.7598V18.9941C104.36 18.4473 104.463 17.9574 104.613 17.5244C104.764 17.0915 104.962 16.7223 105.208 16.417C105.459 16.1071 105.762 15.8724 106.117 15.7129C106.473 15.5488 106.883 15.4668 107.348 15.4668C107.812 15.4668 108.225 15.5579 108.585 15.7402C108.945 15.918 109.248 16.1732 109.494 16.5059C109.74 16.8385 109.925 17.2373 110.048 17.7021C110.175 18.1624 110.239 18.6751 110.239 19.2402ZM108.968 19.3838V19.2402C108.968 18.8711 108.929 18.5247 108.852 18.2012C108.774 17.873 108.653 17.5859 108.489 17.3398C108.33 17.0892 108.125 16.8932 107.874 16.752C107.623 16.6061 107.325 16.5332 106.979 16.5332C106.66 16.5332 106.382 16.5879 106.145 16.6973C105.912 16.8066 105.714 16.9548 105.55 17.1416C105.386 17.3239 105.251 17.5335 105.146 17.7705C105.046 18.0029 104.971 18.2445 104.921 18.4951V20.2656C105.012 20.5846 105.14 20.8854 105.304 21.168C105.468 21.446 105.687 21.6715 105.96 21.8447C106.233 22.0133 106.577 22.0977 106.992 22.0977C107.334 22.0977 107.628 22.027 107.874 21.8857C108.125 21.7399 108.33 21.5417 108.489 21.291C108.653 21.0404 108.774 20.7533 108.852 20.4297C108.929 20.1016 108.968 19.7529 108.968 19.3838ZM111.518 19.3838V19.2266C111.518 18.6934 111.595 18.1989 111.75 17.7432C111.905 17.2829 112.128 16.8841 112.42 16.5469C112.712 16.2051 113.065 15.9408 113.479 15.7539C113.894 15.5625 114.359 15.4668 114.874 15.4668C115.394 15.4668 115.861 15.5625 116.275 15.7539C116.695 15.9408 117.05 16.2051 117.342 16.5469C117.638 16.8841 117.864 17.2829 118.019 17.7432C118.174 18.1989 118.251 18.6934 118.251 19.2266V19.3838C118.251 19.917 118.174 20.4115 118.019 20.8672C117.864 21.3229 117.638 21.7217 117.342 22.0635C117.05 22.4007 116.697 22.665 116.282 22.8564C115.872 23.0433 115.407 23.1367 114.888 23.1367C114.368 23.1367 113.901 23.0433 113.486 22.8564C113.072 22.665 112.716 22.4007 112.42 22.0635C112.128 21.7217 111.905 21.3229 111.75 20.8672C111.595 20.4115 111.518 19.917 111.518 19.3838ZM112.782 19.2266V19.3838C112.782 19.7529 112.826 20.1016 112.912 20.4297C112.999 20.7533 113.129 21.0404 113.302 21.291C113.479 21.5417 113.701 21.7399 113.965 21.8857C114.229 22.027 114.537 22.0977 114.888 22.0977C115.234 22.0977 115.537 22.027 115.797 21.8857C116.061 21.7399 116.28 21.5417 116.453 21.291C116.626 21.0404 116.756 20.7533 116.843 20.4297C116.934 20.1016 116.979 19.7529 116.979 19.3838V19.2266C116.979 18.862 116.934 18.5179 116.843 18.1943C116.756 17.8662 116.624 17.5768 116.446 17.3262C116.273 17.071 116.054 16.8704 115.79 16.7246C115.53 16.5788 115.225 16.5059 114.874 16.5059C114.528 16.5059 114.222 16.5788 113.958 16.7246C113.698 16.8704 113.479 17.071 113.302 17.3262C113.129 17.5768 112.999 17.8662 112.912 18.1943C112.826 18.5179 112.782 18.862 112.782 19.2266Z" fill="#00213A"/>
<path d="M140.143 16.4267L133.703 10.02L127.263 16.4267C127.187 16.4845 127.124 16.5581 127.079 16.6422C127.034 16.7264 127.007 16.8193 127.001 16.9146C126.995 17.0099 127.01 17.1054 127.044 17.1947C127.078 17.2839 127.131 17.3648 127.199 17.4318C127.267 17.4989 127.348 17.5505 127.438 17.5833C127.528 17.6161 127.623 17.6292 127.719 17.6217C127.814 17.6143 127.906 17.5865 127.99 17.5402C128.073 17.4939 128.146 17.4302 128.203 17.3534L133.036 12.56V25.3134C133.036 25.4902 133.106 25.6597 133.231 25.7848C133.356 25.9098 133.526 25.98 133.703 25.98C133.88 25.98 134.049 25.9098 134.174 25.7848C134.299 25.6597 134.369 25.4902 134.369 25.3134V12.56L139.203 17.3534C139.328 17.478 139.498 17.5477 139.675 17.5471C139.852 17.5464 140.021 17.4756 140.146 17.35C140.271 17.2245 140.34 17.0546 140.34 16.8777C140.339 16.7008 140.268 16.5313 140.143 16.4067V16.4267Z" fill="#00213A"/>
</g>
</g>
<defs>
<clipPath id="clip0_702_5428">
<rect width="172" height="36" fill="white"/>
</clipPath>
<clipPath id="clip1_702_5428">
<rect width="109.34" height="24" fill="white" transform="translate(31 6)"/>
</clipPath>
</defs>
</svg>
