<svg width="375" height="31" viewBox="0 0 375 31" fill="none" xmlns="http://www.w3.org/2000/svg">
<mask id="path-1-inside-1_54642_5932" fill="white">
<path d="M5.69558 0L0 30.0142H0.932662L6.62824 0H5.69558Z"/>
</mask>
<path d="M5.69558 0L0 30.0142H0.932662L6.62824 0H5.69558Z" fill="#FEC311"/>
<path d="M5.69558 0V-1H4.86749L4.71311 -0.186435L5.69558 0ZM0 30.0142L-0.982467 29.8278L-1.20761 31.0142H0V30.0142ZM0.932662 30.0142V31.0142H1.76074L1.91513 30.2007L0.932662 30.0142ZM6.62824 0L7.6107 0.186435L7.83584 -1H6.62824V0ZM5.69558 0L4.71311 -0.186435L-0.982467 29.8278L0 30.0142L0.982467 30.2007L6.67804 0.186435L5.69558 0ZM0 30.0142V31.0142H0.932662V30.0142V29.0142H0V30.0142ZM0.932662 30.0142L1.91513 30.2007L7.6107 0.186435L6.62824 0L5.64577 -0.186435L-0.0498056 29.8278L0.932662 30.0142ZM6.62824 0V-1H5.69558V0V1H6.62824V0Z" fill="#FEC311" mask="url(#path-1-inside-1_54642_5932)"/>
<mask id="path-3-inside-2_54642_5932" fill="white">
<path d="M10.3484 0L4.65278 30.0142H5.58544L11.281 0H10.3484Z"/>
</mask>
<path d="M10.3484 0L4.65278 30.0142H5.58544L11.281 0H10.3484Z" fill="#FEC311"/>
<path d="M10.3484 0V-1H9.52027L9.36589 -0.186435L10.3484 0ZM4.65278 30.0142L3.67031 29.8278L3.44517 31.0142H4.65278V30.0142ZM5.58544 30.0142V31.0142H6.41352L6.56791 30.2007L5.58544 30.0142ZM11.281 0L12.2635 0.186435L12.4886 -1H11.281V0ZM10.3484 0L9.36589 -0.186435L3.67031 29.8278L4.65278 30.0142L5.63525 30.2007L11.3308 0.186435L10.3484 0ZM4.65278 30.0142V31.0142H5.58544V30.0142V29.0142H4.65278V30.0142ZM5.58544 30.0142L6.56791 30.2007L12.2635 0.186435L11.281 0L10.2985 -0.186435L4.60297 29.8278L5.58544 30.0142ZM11.281 0V-1H10.3484V0V1H11.281V0Z" fill="#FEC311" mask="url(#path-3-inside-2_54642_5932)"/>
<mask id="path-5-inside-3_54642_5932" fill="white">
<path d="M15.0011 0L9.30556 30.0142H10.2382L15.9338 0H15.0011Z"/>
</mask>
<path d="M15.0011 0L9.30556 30.0142H10.2382L15.9338 0H15.0011Z" fill="#FEC311"/>
<path d="M15.0011 0V-1H14.173L14.0187 -0.186435L15.0011 0ZM9.30556 30.0142L8.32309 29.8278L8.09795 31.0142H9.30556V30.0142ZM10.2382 30.0142V31.0142H11.0663L11.2207 30.2007L10.2382 30.0142ZM15.9338 0L16.9163 0.186435L17.1414 -1H15.9338V0ZM15.0011 0L14.0187 -0.186435L8.32309 29.8278L9.30556 30.0142L10.288 30.2007L15.9836 0.186435L15.0011 0ZM9.30556 30.0142V31.0142H10.2382V30.0142V29.0142H9.30556V30.0142ZM10.2382 30.0142L11.2207 30.2007L16.9163 0.186435L15.9338 0L14.9513 -0.186435L9.25575 29.8278L10.2382 30.0142ZM15.9338 0V-1H15.0011V0V1H15.9338V0Z" fill="#FEC311" mask="url(#path-5-inside-3_54642_5932)"/>
<mask id="path-7-inside-4_54642_5932" fill="white">
<path d="M19.6539 0L13.9583 30.0142H14.891L20.5866 0H19.6539Z"/>
</mask>
<path d="M19.6539 0L13.9583 30.0142H14.891L20.5866 0H19.6539Z" fill="#FEC311"/>
<path d="M19.6539 0V-1H18.8258L18.6714 -0.186435L19.6539 0ZM13.9583 30.0142L12.9759 29.8278L12.7507 31.0142H13.9583V30.0142ZM14.891 30.0142V31.0142H15.7191L15.8735 30.2007L14.891 30.0142ZM20.5866 0L21.569 0.186435L21.7942 -1H20.5866V0ZM19.6539 0L18.6714 -0.186435L12.9759 29.8278L13.9583 30.0142L14.9408 30.2007L20.6364 0.186435L19.6539 0ZM13.9583 30.0142V31.0142H14.891V30.0142V29.0142H13.9583V30.0142ZM14.891 30.0142L15.8735 30.2007L21.569 0.186435L20.5866 0L19.6041 -0.186435L13.9085 29.8278L14.891 30.0142ZM20.5866 0V-1H19.6539V0V1H20.5866V0Z" fill="#FEC311" mask="url(#path-7-inside-4_54642_5932)"/>
<mask id="path-9-inside-5_54642_5932" fill="white">
<path d="M24.3067 0L18.6111 30.0142H19.5438L25.2393 0H24.3067Z"/>
</mask>
<path d="M24.3067 0L18.6111 30.0142H19.5438L25.2393 0H24.3067Z" fill="#FEC311"/>
<path d="M24.3067 0V-1H23.4786L23.3242 -0.186435L24.3067 0ZM18.6111 30.0142L17.6286 29.8278L17.4035 31.0142H18.6111V30.0142ZM19.5438 30.0142V31.0142H20.3719L20.5262 30.2007L19.5438 30.0142ZM25.2393 0L26.2218 0.186435L26.447 -1H25.2393V0ZM24.3067 0L23.3242 -0.186435L17.6286 29.8278L18.6111 30.0142L19.5936 30.2007L25.2892 0.186435L24.3067 0ZM18.6111 30.0142V31.0142H19.5438V30.0142V29.0142H18.6111V30.0142ZM19.5438 30.0142L20.5262 30.2007L26.2218 0.186435L25.2393 0L24.2569 -0.186435L18.5613 29.8278L19.5438 30.0142ZM25.2393 0V-1H24.3067V0V1H25.2393V0Z" fill="#FEC311" mask="url(#path-9-inside-5_54642_5932)"/>
<mask id="path-11-inside-6_54642_5932" fill="white">
<path d="M28.9595 0L23.2639 30.0142H24.1966L29.8921 0H28.9595Z"/>
</mask>
<path d="M28.9595 0L23.2639 30.0142H24.1966L29.8921 0H28.9595Z" fill="#FEC311"/>
<path d="M28.9595 0V-1H28.1314L27.977 -0.186435L28.9595 0ZM23.2639 30.0142L22.2814 29.8278L22.0563 31.0142H23.2639V30.0142ZM24.1966 30.0142V31.0142H25.0246L25.179 30.2007L24.1966 30.0142ZM29.8921 0L30.8746 0.186435L31.0997 -1H29.8921V0ZM28.9595 0L27.977 -0.186435L22.2814 29.8278L23.2639 30.0142L24.2464 30.2007L29.9419 0.186435L28.9595 0ZM23.2639 30.0142V31.0142H24.1966V30.0142V29.0142H23.2639V30.0142ZM24.1966 30.0142L25.179 30.2007L30.8746 0.186435L29.8921 0L28.9097 -0.186435L23.2141 29.8278L24.1966 30.0142ZM29.8921 0V-1H28.9595V0V1H29.8921V0Z" fill="#FEC311" mask="url(#path-11-inside-6_54642_5932)"/>
<mask id="path-13-inside-7_54642_5932" fill="white">
<path d="M33.2733 0L27.5777 30.0142H28.5104L34.206 0H33.2733Z"/>
</mask>
<path d="M33.2733 0L27.5777 30.0142H28.5104L34.206 0H33.2733Z" fill="#FEC311"/>
<path d="M33.2733 0V-1H32.4452L32.2908 -0.186435L33.2733 0ZM27.5777 30.0142L26.5953 29.8278L26.3701 31.0142H27.5777V30.0142ZM28.5104 30.0142V31.0142H29.3385L29.4929 30.2007L28.5104 30.0142ZM34.206 0L35.1884 0.186435L35.4136 -1H34.206V0ZM33.2733 0L32.2908 -0.186435L26.5953 29.8278L27.5777 30.0142L28.5602 30.2007L34.2558 0.186435L33.2733 0ZM27.5777 30.0142V31.0142H28.5104V30.0142V29.0142H27.5777V30.0142ZM28.5104 30.0142L29.4929 30.2007L35.1884 0.186435L34.206 0L33.2235 -0.186435L27.5279 29.8278L28.5104 30.0142ZM34.206 0V-1H33.2733V0V1H34.206V0Z" fill="#FEC311" mask="url(#path-13-inside-7_54642_5932)"/>
<mask id="path-15-inside-8_54642_5932" fill="white">
<path d="M37.5872 0L31.8916 30.0142H32.8242L38.5198 0H37.5872Z"/>
</mask>
<path d="M37.5872 0L31.8916 30.0142H32.8242L38.5198 0H37.5872Z" fill="#FEC311"/>
<path d="M37.5872 0V-1H36.7591L36.6047 -0.186435L37.5872 0ZM31.8916 30.0142L30.9091 29.8278L30.684 31.0142H31.8916V30.0142ZM32.8242 30.0142V31.0142H33.6523L33.8067 30.2007L32.8242 30.0142ZM38.5198 0L39.5023 0.186435L39.7274 -1H38.5198V0ZM37.5872 0L36.6047 -0.186435L30.9091 29.8278L31.8916 30.0142L32.8741 30.2007L38.5696 0.186435L37.5872 0ZM31.8916 30.0142V31.0142H32.8242V30.0142V29.0142H31.8916V30.0142ZM32.8242 30.0142L33.8067 30.2007L39.5023 0.186435L38.5198 0L37.5374 -0.186435L31.8418 29.8278L32.8242 30.0142ZM38.5198 0V-1H37.5872V0V1H38.5198V0Z" fill="#FEC311" mask="url(#path-15-inside-8_54642_5932)"/>
<mask id="path-17-inside-9_54642_5932" fill="white">
<path d="M41.901 0L36.2054 30.0142H37.1381L42.8337 0H41.901Z"/>
</mask>
<path d="M41.901 0L36.2054 30.0142H37.1381L42.8337 0H41.901Z" fill="#FEC311"/>
<path d="M41.901 0V-1H41.0729L40.9185 -0.186435L41.901 0ZM36.2054 30.0142L35.223 29.8278L34.9978 31.0142H36.2054V30.0142ZM37.1381 30.0142V31.0142H37.9662L38.1206 30.2007L37.1381 30.0142ZM42.8337 0L43.8161 0.186435L44.0413 -1H42.8337V0ZM41.901 0L40.9185 -0.186435L35.223 29.8278L36.2054 30.0142L37.1879 30.2007L42.8835 0.186435L41.901 0ZM36.2054 30.0142V31.0142H37.1381V30.0142V29.0142H36.2054V30.0142ZM37.1381 30.0142L38.1206 30.2007L43.8161 0.186435L42.8337 0L41.8512 -0.186435L36.1556 29.8278L37.1381 30.0142ZM42.8337 0V-1H41.901V0V1H42.8337V0Z" fill="#FEC311" mask="url(#path-17-inside-9_54642_5932)"/>
<mask id="path-19-inside-10_54642_5932" fill="white">
<path d="M46.2149 0L40.5193 30.0142H41.4519L47.1475 0H46.2149Z"/>
</mask>
<path d="M46.2149 0L40.5193 30.0142H41.4519L47.1475 0H46.2149Z" fill="#FEC311"/>
<path d="M46.2149 0V-1H45.3868L45.2324 -0.186435L46.2149 0ZM40.5193 30.0142L39.5368 29.8278L39.3117 31.0142H40.5193V30.0142ZM41.4519 30.0142V31.0142H42.28L42.4344 30.2007L41.4519 30.0142ZM47.1475 0L48.13 0.186435L48.3551 -1H47.1475V0ZM46.2149 0L45.2324 -0.186435L39.5368 29.8278L40.5193 30.0142L41.5018 30.2007L47.1973 0.186435L46.2149 0ZM40.5193 30.0142V31.0142H41.4519V30.0142V29.0142H40.5193V30.0142ZM41.4519 30.0142L42.4344 30.2007L48.13 0.186435L47.1475 0L46.1651 -0.186435L40.4695 29.8278L41.4519 30.0142ZM47.1475 0V-1H46.2149V0V1H47.1475V0Z" fill="#FEC311" mask="url(#path-19-inside-10_54642_5932)"/>
<mask id="path-21-inside-11_54642_5932" fill="white">
<path d="M50.5287 0L44.8331 30.0142H45.7658L51.4614 0H50.5287Z"/>
</mask>
<path d="M50.5287 0L44.8331 30.0142H45.7658L51.4614 0H50.5287Z" fill="#FEC311"/>
<path d="M50.5287 0V-1H49.7006L49.5462 -0.186435L50.5287 0ZM44.8331 30.0142L43.8507 29.8278L43.6255 31.0142H44.8331V30.0142ZM45.7658 30.0142V31.0142H46.5939L46.7483 30.2007L45.7658 30.0142ZM51.4614 0L52.4438 0.186435L52.669 -1H51.4614V0ZM50.5287 0L49.5462 -0.186435L43.8507 29.8278L44.8331 30.0142L45.8156 30.2007L51.5112 0.186435L50.5287 0ZM44.8331 30.0142V31.0142H45.7658V30.0142V29.0142H44.8331V30.0142ZM45.7658 30.0142L46.7483 30.2007L52.4438 0.186435L51.4614 0L50.4789 -0.186435L44.7833 29.8278L45.7658 30.0142ZM51.4614 0V-1H50.5287V0V1H51.4614V0Z" fill="#FEC311" mask="url(#path-21-inside-11_54642_5932)"/>
<mask id="path-23-inside-12_54642_5932" fill="white">
<path d="M54.8426 0L49.147 30.0142H50.0796L55.7752 0H54.8426Z"/>
</mask>
<path d="M54.8426 0L49.147 30.0142H50.0796L55.7752 0H54.8426Z" fill="#FEC311"/>
<path d="M54.8426 0V-1H54.0145L53.8601 -0.186435L54.8426 0ZM49.147 30.0142L48.1645 29.8278L47.9394 31.0142H49.147V30.0142ZM50.0796 30.0142V31.0142H50.9077L51.0621 30.2007L50.0796 30.0142ZM55.7752 0L56.7577 0.186435L56.9828 -1H55.7752V0ZM54.8426 0L53.8601 -0.186435L48.1645 29.8278L49.147 30.0142L50.1294 30.2007L55.825 0.186435L54.8426 0ZM49.147 30.0142V31.0142H50.0796V30.0142V29.0142H49.147V30.0142ZM50.0796 30.0142L51.0621 30.2007L56.7577 0.186435L55.7752 0L54.7927 -0.186435L49.0972 29.8278L50.0796 30.0142ZM55.7752 0V-1H54.8426V0V1H55.7752V0Z" fill="#FEC311" mask="url(#path-23-inside-12_54642_5932)"/>
<mask id="path-25-inside-13_54642_5932" fill="white">
<path d="M59.1564 0L53.4608 30.0142H54.3935L60.0891 0H59.1564Z"/>
</mask>
<path d="M59.1564 0L53.4608 30.0142H54.3935L60.0891 0H59.1564Z" fill="#FEC311"/>
<path d="M59.1564 0V-1H58.3283L58.1739 -0.186435L59.1564 0ZM53.4608 30.0142L52.4784 29.8278L52.2532 31.0142H53.4608V30.0142ZM54.3935 30.0142V31.0142H55.2216L55.376 30.2007L54.3935 30.0142ZM60.0891 0L61.0715 0.186435L61.2967 -1H60.0891V0ZM59.1564 0L58.1739 -0.186435L52.4784 29.8278L53.4608 30.0142L54.4433 30.2007L60.1389 0.186435L59.1564 0ZM53.4608 30.0142V31.0142H54.3935V30.0142V29.0142H53.4608V30.0142ZM54.3935 30.0142L55.376 30.2007L61.0715 0.186435L60.0891 0L59.1066 -0.186435L53.411 29.8278L54.3935 30.0142ZM60.0891 0V-1H59.1564V0V1H60.0891V0Z" fill="#FEC311" mask="url(#path-25-inside-13_54642_5932)"/>
<mask id="path-27-inside-14_54642_5932" fill="white">
<path d="M63.4703 0L57.7747 30.0142H58.7073L64.4029 0H63.4703Z"/>
</mask>
<path d="M63.4703 0L57.7747 30.0142H58.7073L64.4029 0H63.4703Z" fill="#FEC311"/>
<path d="M63.4703 0V-1H62.6422L62.4878 -0.186435L63.4703 0ZM57.7747 30.0142L56.7922 29.8278L56.5671 31.0142H57.7747V30.0142ZM58.7073 30.0142V31.0142H59.5354L59.6898 30.2007L58.7073 30.0142ZM64.4029 0L65.3854 0.186435L65.6105 -1H64.4029V0ZM63.4703 0L62.4878 -0.186435L56.7922 29.8278L57.7747 30.0142L58.7571 30.2007L64.4527 0.186435L63.4703 0ZM57.7747 30.0142V31.0142H58.7073V30.0142V29.0142H57.7747V30.0142ZM58.7073 30.0142L59.6898 30.2007L65.3854 0.186435L64.4029 0L63.4204 -0.186435L57.7249 29.8278L58.7073 30.0142ZM64.4029 0V-1H63.4703V0V1H64.4029V0Z" fill="#FEC311" mask="url(#path-27-inside-14_54642_5932)"/>
<mask id="path-29-inside-15_54642_5932" fill="white">
<path d="M67.7841 0L62.0885 30.0142H63.0212L68.7168 0H67.7841Z"/>
</mask>
<path d="M67.7841 0L62.0885 30.0142H63.0212L68.7168 0H67.7841Z" fill="#FEC311"/>
<path d="M67.7841 0V-1H66.956L66.8016 -0.186435L67.7841 0ZM62.0885 30.0142L61.1061 29.8278L60.8809 31.0142H62.0885V30.0142ZM63.0212 30.0142V31.0142H63.8493L64.0037 30.2007L63.0212 30.0142ZM68.7168 0L69.6992 0.186435L69.9244 -1H68.7168V0ZM67.7841 0L66.8016 -0.186435L61.1061 29.8278L62.0885 30.0142L63.071 30.2007L68.7666 0.186435L67.7841 0ZM62.0885 30.0142V31.0142H63.0212V30.0142V29.0142H62.0885V30.0142ZM63.0212 30.0142L64.0037 30.2007L69.6992 0.186435L68.7168 0L67.7343 -0.186435L62.0387 29.8278L63.0212 30.0142ZM68.7168 0V-1H67.7841V0V1H68.7168V0Z" fill="#FEC311" mask="url(#path-29-inside-15_54642_5932)"/>
<mask id="path-31-inside-16_54642_5932" fill="white">
<path d="M72.0979 0L66.4024 30.0142H67.335L73.0306 0H72.0979Z"/>
</mask>
<path d="M72.0979 0L66.4024 30.0142H67.335L73.0306 0H72.0979Z" fill="#FEC311"/>
<path d="M72.0979 0V-1H71.2699L71.1155 -0.186435L72.0979 0ZM66.4024 30.0142L65.4199 29.8278L65.1948 31.0142H66.4024V30.0142ZM67.335 30.0142V31.0142H68.1631L68.3175 30.2007L67.335 30.0142ZM73.0306 0L74.0131 0.186435L74.2382 -1H73.0306V0ZM72.0979 0L71.1155 -0.186435L65.4199 29.8278L66.4024 30.0142L67.3848 30.2007L73.0804 0.186435L72.0979 0ZM66.4024 30.0142V31.0142H67.335V30.0142V29.0142H66.4024V30.0142ZM67.335 30.0142L68.3175 30.2007L74.0131 0.186435L73.0306 0L72.0481 -0.186435L66.3526 29.8278L67.335 30.0142ZM73.0306 0V-1H72.0979V0V1H73.0306V0Z" fill="#FEC311" mask="url(#path-31-inside-16_54642_5932)"/>
<mask id="path-33-inside-17_54642_5932" fill="white">
<path d="M76.4118 0L70.7162 30.0142H71.6489L77.3445 0H76.4118Z"/>
</mask>
<path d="M76.4118 0L70.7162 30.0142H71.6489L77.3445 0H76.4118Z" fill="#FEC311"/>
<path d="M76.4118 0V-1H75.5837L75.4293 -0.186435L76.4118 0ZM70.7162 30.0142L69.7338 29.8278L69.5086 31.0142H70.7162V30.0142ZM71.6489 30.0142V31.0142H72.477L72.6314 30.2007L71.6489 30.0142ZM77.3445 0L78.3269 0.186435L78.5521 -1H77.3445V0ZM76.4118 0L75.4293 -0.186435L69.7338 29.8278L70.7162 30.0142L71.6987 30.2007L77.3943 0.186435L76.4118 0ZM70.7162 30.0142V31.0142H71.6489V30.0142V29.0142H70.7162V30.0142ZM71.6489 30.0142L72.6314 30.2007L78.3269 0.186435L77.3445 0L76.362 -0.186435L70.6664 29.8278L71.6489 30.0142ZM77.3445 0V-1H76.4118V0V1H77.3445V0Z" fill="#FEC311" mask="url(#path-33-inside-17_54642_5932)"/>
<mask id="path-35-inside-18_54642_5932" fill="white">
<path d="M80.7256 0L75.0301 30.0142H75.9627L81.6583 0H80.7256Z"/>
</mask>
<path d="M80.7256 0L75.0301 30.0142H75.9627L81.6583 0H80.7256Z" fill="#FEC311"/>
<path d="M80.7256 0V-1H79.8976L79.7432 -0.186435L80.7256 0ZM75.0301 30.0142L74.0476 29.8278L73.8225 31.0142H75.0301V30.0142ZM75.9627 30.0142V31.0142H76.7908L76.9452 30.2007L75.9627 30.0142ZM81.6583 0L82.6408 0.186435L82.8659 -1H81.6583V0ZM80.7256 0L79.7432 -0.186435L74.0476 29.8278L75.0301 30.0142L76.0125 30.2007L81.7081 0.186435L80.7256 0ZM75.0301 30.0142V31.0142H75.9627V30.0142V29.0142H75.0301V30.0142ZM75.9627 30.0142L76.9452 30.2007L82.6408 0.186435L81.6583 0L80.6758 -0.186435L74.9803 29.8278L75.9627 30.0142ZM81.6583 0V-1H80.7256V0V1H81.6583V0Z" fill="#FEC311" mask="url(#path-35-inside-18_54642_5932)"/>
<mask id="path-37-inside-19_54642_5932" fill="white">
<path d="M85.0395 0L79.3439 30.0142H80.2766L85.9722 0H85.0395Z"/>
</mask>
<path d="M85.0395 0L79.3439 30.0142H80.2766L85.9722 0H85.0395Z" fill="#FEC311"/>
<path d="M85.0395 0V-1H84.2114L84.057 -0.186435L85.0395 0ZM79.3439 30.0142L78.3615 29.8278L78.1363 31.0142H79.3439V30.0142ZM80.2766 30.0142V31.0142H81.1047L81.259 30.2007L80.2766 30.0142ZM85.9722 0L86.9546 0.186435L87.1798 -1H85.9722V0ZM85.0395 0L84.057 -0.186435L78.3615 29.8278L79.3439 30.0142L80.3264 30.2007L86.022 0.186435L85.0395 0ZM79.3439 30.0142V31.0142H80.2766V30.0142V29.0142H79.3439V30.0142ZM80.2766 30.0142L81.259 30.2007L86.9546 0.186435L85.9722 0L84.9897 -0.186435L79.2941 29.8278L80.2766 30.0142ZM85.9722 0V-1H85.0395V0V1H85.9722V0Z" fill="#FEC311" mask="url(#path-37-inside-19_54642_5932)"/>
<mask id="path-39-inside-20_54642_5932" fill="white">
<path d="M89.3533 0L83.6578 30.0142H84.5904L90.286 0H89.3533Z"/>
</mask>
<path d="M89.3533 0L83.6578 30.0142H84.5904L90.286 0H89.3533Z" fill="#FEC311"/>
<path d="M89.3533 0V-1H88.5253L88.3709 -0.186435L89.3533 0ZM83.6578 30.0142L82.6753 29.8278L82.4502 31.0142H83.6578V30.0142ZM84.5904 30.0142V31.0142H85.4185L85.5729 30.2007L84.5904 30.0142ZM90.286 0L91.2685 0.186435L91.4936 -1H90.286V0ZM89.3533 0L88.3709 -0.186435L82.6753 29.8278L83.6578 30.0142L84.6402 30.2007L90.3358 0.186435L89.3533 0ZM83.6578 30.0142V31.0142H84.5904V30.0142V29.0142H83.6578V30.0142ZM84.5904 30.0142L85.5729 30.2007L91.2685 0.186435L90.286 0L89.3035 -0.186435L83.608 29.8278L84.5904 30.0142ZM90.286 0V-1H89.3533V0V1H90.286V0Z" fill="#FEC311" mask="url(#path-39-inside-20_54642_5932)"/>
<mask id="path-41-inside-21_54642_5932" fill="white">
<path d="M93.6672 0L87.9716 30.0142H88.9043L94.5999 0H93.6672Z"/>
</mask>
<path d="M93.6672 0L87.9716 30.0142H88.9043L94.5999 0H93.6672Z" fill="#FEC311"/>
<path d="M93.6672 0V-1H92.8391L92.6847 -0.186435L93.6672 0ZM87.9716 30.0142L86.9892 29.8278L86.764 31.0142H87.9716V30.0142ZM88.9043 30.0142V31.0142H89.7324L89.8867 30.2007L88.9043 30.0142ZM94.5999 0L95.5823 0.186435L95.8075 -1H94.5999V0ZM93.6672 0L92.6847 -0.186435L86.9892 29.8278L87.9716 30.0142L88.9541 30.2007L94.6497 0.186435L93.6672 0ZM87.9716 30.0142V31.0142H88.9043V30.0142V29.0142H87.9716V30.0142ZM88.9043 30.0142L89.8867 30.2007L95.5823 0.186435L94.5999 0L93.6174 -0.186435L87.9218 29.8278L88.9043 30.0142ZM94.5999 0V-1H93.6672V0V1H94.5999V0Z" fill="#FEC311" mask="url(#path-41-inside-21_54642_5932)"/>
<mask id="path-43-inside-22_54642_5932" fill="white">
<path d="M97.981 0L92.2855 30.0142H93.2181L98.9137 0H97.981Z"/>
</mask>
<path d="M97.981 0L92.2855 30.0142H93.2181L98.9137 0H97.981Z" fill="#FEC311"/>
<path d="M97.981 0V-1H97.153L96.9986 -0.186435L97.981 0ZM92.2855 30.0142L91.303 29.8278L91.0779 31.0142H92.2855V30.0142ZM93.2181 30.0142V31.0142H94.0462L94.2006 30.2007L93.2181 30.0142ZM98.9137 0L99.8962 0.186435L100.121 -1H98.9137V0ZM97.981 0L96.9986 -0.186435L91.303 29.8278L92.2855 30.0142L93.2679 30.2007L98.9635 0.186435L97.981 0ZM92.2855 30.0142V31.0142H93.2181V30.0142V29.0142H92.2855V30.0142ZM93.2181 30.0142L94.2006 30.2007L99.8962 0.186435L98.9137 0L97.9312 -0.186435L92.2357 29.8278L93.2181 30.0142ZM98.9137 0V-1H97.981V0V1H98.9137V0Z" fill="#FEC311" mask="url(#path-43-inside-22_54642_5932)"/>
<mask id="path-45-inside-23_54642_5932" fill="white">
<path d="M102.295 0L96.5993 30.0142H97.532L103.228 0H102.295Z"/>
</mask>
<path d="M102.295 0L96.5993 30.0142H97.532L103.228 0H102.295Z" fill="#FEC311"/>
<path d="M102.295 0V-1H101.467L101.312 -0.186435L102.295 0ZM96.5993 30.0142L95.6168 29.8278L95.3917 31.0142H96.5993V30.0142ZM97.532 30.0142V31.0142H98.3601L98.5144 30.2007L97.532 30.0142ZM103.228 0L104.21 0.186435L104.435 -1H103.228V0ZM102.295 0L101.312 -0.186435L95.6168 29.8278L96.5993 30.0142L97.5818 30.2007L103.277 0.186435L102.295 0ZM96.5993 30.0142V31.0142H97.532V30.0142V29.0142H96.5993V30.0142ZM97.532 30.0142L98.5144 30.2007L104.21 0.186435L103.228 0L102.245 -0.186435L96.5495 29.8278L97.532 30.0142ZM103.228 0V-1H102.295V0V1H103.228V0Z" fill="#FEC311" mask="url(#path-45-inside-23_54642_5932)"/>
<mask id="path-47-inside-24_54642_5932" fill="white">
<path d="M106.609 0L100.913 30.0142H101.846L107.541 0H106.609Z"/>
</mask>
<path d="M106.609 0L100.913 30.0142H101.846L107.541 0H106.609Z" fill="#FEC311"/>
<path d="M106.609 0V-1H105.781L105.626 -0.186435L106.609 0ZM100.913 30.0142L99.9307 29.8278L99.7056 31.0142H100.913V30.0142ZM101.846 30.0142V31.0142H102.674L102.828 30.2007L101.846 30.0142ZM107.541 0L108.524 0.186435L108.749 -1H107.541V0ZM106.609 0L105.626 -0.186435L99.9307 29.8278L100.913 30.0142L101.896 30.2007L107.591 0.186435L106.609 0ZM100.913 30.0142V31.0142H101.846V30.0142V29.0142H100.913V30.0142ZM101.846 30.0142L102.828 30.2007L108.524 0.186435L107.541 0L106.559 -0.186435L100.863 29.8278L101.846 30.0142ZM107.541 0V-1H106.609V0V1H107.541V0Z" fill="#FEC311" mask="url(#path-47-inside-24_54642_5932)"/>
<mask id="path-49-inside-25_54642_5932" fill="white">
<path d="M110.923 0L105.227 30.0142H106.16L111.855 0H110.923Z"/>
</mask>
<path d="M110.923 0L105.227 30.0142H106.16L111.855 0H110.923Z" fill="#FEC311"/>
<path d="M110.923 0V-1H110.094L109.94 -0.186435L110.923 0ZM105.227 30.0142L104.245 29.8278L104.019 31.0142H105.227V30.0142ZM106.16 30.0142V31.0142H106.988L107.142 30.2007L106.16 30.0142ZM111.855 0L112.838 0.186435L113.063 -1H111.855V0ZM110.923 0L109.94 -0.186435L104.245 29.8278L105.227 30.0142L106.209 30.2007L111.905 0.186435L110.923 0ZM105.227 30.0142V31.0142H106.16V30.0142V29.0142H105.227V30.0142ZM106.16 30.0142L107.142 30.2007L112.838 0.186435L111.855 0L110.873 -0.186435L105.177 29.8278L106.16 30.0142ZM111.855 0V-1H110.923V0V1H111.855V0Z" fill="#FEC311" mask="url(#path-49-inside-25_54642_5932)"/>
<mask id="path-51-inside-26_54642_5932" fill="white">
<path d="M115.236 0L109.541 30.0142H110.474L116.169 0H115.236Z"/>
</mask>
<path d="M115.236 0L109.541 30.0142H110.474L116.169 0H115.236Z" fill="#FEC311"/>
<path d="M115.236 0V-1H114.408L114.254 -0.186435L115.236 0ZM109.541 30.0142L108.558 29.8278L108.333 31.0142H109.541V30.0142ZM110.474 30.0142V31.0142H111.302L111.456 30.2007L110.474 30.0142ZM116.169 0L117.152 0.186435L117.377 -1H116.169V0ZM115.236 0L114.254 -0.186435L108.558 29.8278L109.541 30.0142L110.523 30.2007L116.219 0.186435L115.236 0ZM109.541 30.0142V31.0142H110.474V30.0142V29.0142H109.541V30.0142ZM110.474 30.0142L111.456 30.2007L117.152 0.186435L116.169 0L115.187 -0.186435L109.491 29.8278L110.474 30.0142ZM116.169 0V-1H115.236V0V1H116.169V0Z" fill="#FEC311" mask="url(#path-51-inside-26_54642_5932)"/>
<mask id="path-53-inside-27_54642_5932" fill="white">
<path d="M119.55 0L113.855 30.0142H114.787L120.483 0H119.55Z"/>
</mask>
<path d="M119.55 0L113.855 30.0142H114.787L120.483 0H119.55Z" fill="#FEC311"/>
<path d="M119.55 0V-1H118.722L118.568 -0.186435L119.55 0ZM113.855 30.0142L112.872 29.8278L112.647 31.0142H113.855V30.0142ZM114.787 30.0142V31.0142H115.615L115.77 30.2007L114.787 30.0142ZM120.483 0L121.465 0.186435L121.691 -1H120.483V0ZM119.55 0L118.568 -0.186435L112.872 29.8278L113.855 30.0142L114.837 30.2007L120.533 0.186435L119.55 0ZM113.855 30.0142V31.0142H114.787V30.0142V29.0142H113.855V30.0142ZM114.787 30.0142L115.77 30.2007L121.465 0.186435L120.483 0L119.5 -0.186435L113.805 29.8278L114.787 30.0142ZM120.483 0V-1H119.55V0V1H120.483V0Z" fill="#FEC311" mask="url(#path-53-inside-27_54642_5932)"/>
<mask id="path-55-inside-28_54642_5932" fill="white">
<path d="M123.864 0L118.169 30.0142H119.101L124.797 0H123.864Z"/>
</mask>
<path d="M123.864 0L118.169 30.0142H119.101L124.797 0H123.864Z" fill="#FEC311"/>
<path d="M123.864 0V-1H123.036L122.882 -0.186435L123.864 0ZM118.169 30.0142L117.186 29.8278L116.961 31.0142H118.169V30.0142ZM119.101 30.0142V31.0142H119.929L120.084 30.2007L119.101 30.0142ZM124.797 0L125.779 0.186435L126.004 -1H124.797V0ZM123.864 0L122.882 -0.186435L117.186 29.8278L118.169 30.0142L119.151 30.2007L124.847 0.186435L123.864 0ZM118.169 30.0142V31.0142H119.101V30.0142V29.0142H118.169V30.0142ZM119.101 30.0142L120.084 30.2007L125.779 0.186435L124.797 0L123.814 -0.186435L118.119 29.8278L119.101 30.0142ZM124.797 0V-1H123.864V0V1H124.797V0Z" fill="#FEC311" mask="url(#path-55-inside-28_54642_5932)"/>
<mask id="path-57-inside-29_54642_5932" fill="white">
<path d="M128.178 0L122.482 30.0142H123.415L129.111 0H128.178Z"/>
</mask>
<path d="M128.178 0L122.482 30.0142H123.415L129.111 0H128.178Z" fill="#FEC311"/>
<path d="M128.178 0V-1H127.35L127.196 -0.186435L128.178 0ZM122.482 30.0142L121.5 29.8278L121.275 31.0142H122.482V30.0142ZM123.415 30.0142V31.0142H124.243L124.398 30.2007L123.415 30.0142ZM129.111 0L130.093 0.186435L130.318 -1H129.111V0ZM128.178 0L127.196 -0.186435L121.5 29.8278L122.482 30.0142L123.465 30.2007L129.16 0.186435L128.178 0ZM122.482 30.0142V31.0142H123.415V30.0142V29.0142H122.482V30.0142ZM123.415 30.0142L124.398 30.2007L130.093 0.186435L129.111 0L128.128 -0.186435L122.433 29.8278L123.415 30.0142ZM129.111 0V-1H128.178V0V1H129.111V0Z" fill="#FEC311" mask="url(#path-57-inside-29_54642_5932)"/>
<mask id="path-59-inside-30_54642_5932" fill="white">
<path d="M132.492 0L126.796 30.0142H127.729L133.424 0H132.492Z"/>
</mask>
<path d="M132.492 0L126.796 30.0142H127.729L133.424 0H132.492Z" fill="#FEC311"/>
<path d="M132.492 0V-1H131.664L131.509 -0.186435L132.492 0ZM126.796 30.0142L125.814 29.8278L125.589 31.0142H126.796V30.0142ZM127.729 30.0142V31.0142H128.557L128.711 30.2007L127.729 30.0142ZM133.424 0L134.407 0.186435L134.632 -1H133.424V0ZM132.492 0L131.509 -0.186435L125.814 29.8278L126.796 30.0142L127.779 30.2007L133.474 0.186435L132.492 0ZM126.796 30.0142V31.0142H127.729V30.0142V29.0142H126.796V30.0142ZM127.729 30.0142L128.711 30.2007L134.407 0.186435L133.424 0L132.442 -0.186435L126.746 29.8278L127.729 30.0142ZM133.424 0V-1H132.492V0V1H133.424V0Z" fill="#FEC311" mask="url(#path-59-inside-30_54642_5932)"/>
<mask id="path-61-inside-31_54642_5932" fill="white">
<path d="M136.806 0L131.11 30.0142H132.043L137.738 0H136.806Z"/>
</mask>
<path d="M136.806 0L131.11 30.0142H132.043L137.738 0H136.806Z" fill="#FEC311"/>
<path d="M136.806 0V-1H135.978L135.823 -0.186435L136.806 0ZM131.11 30.0142L130.128 29.8278L129.902 31.0142H131.11V30.0142ZM132.043 30.0142V31.0142H132.871L133.025 30.2007L132.043 30.0142ZM137.738 0L138.721 0.186435L138.946 -1H137.738V0ZM136.806 0L135.823 -0.186435L130.128 29.8278L131.11 30.0142L132.093 30.2007L137.788 0.186435L136.806 0ZM131.11 30.0142V31.0142H132.043V30.0142V29.0142H131.11V30.0142ZM132.043 30.0142L133.025 30.2007L138.721 0.186435L137.738 0L136.756 -0.186435L131.06 29.8278L132.043 30.0142ZM137.738 0V-1H136.806V0V1H137.738V0Z" fill="#FEC311" mask="url(#path-61-inside-31_54642_5932)"/>
<mask id="path-63-inside-32_54642_5932" fill="white">
<path d="M141.12 0L135.424 30.0142H136.357L142.052 0H141.12Z"/>
</mask>
<path d="M141.12 0L135.424 30.0142H136.357L142.052 0H141.12Z" fill="#FEC311"/>
<path d="M141.12 0V-1H140.291L140.137 -0.186435L141.12 0ZM135.424 30.0142L134.441 29.8278L134.216 31.0142H135.424V30.0142ZM136.357 30.0142V31.0142H137.185L137.339 30.2007L136.357 30.0142ZM142.052 0L143.035 0.186435L143.26 -1H142.052V0ZM141.12 0L140.137 -0.186435L134.441 29.8278L135.424 30.0142L136.406 30.2007L142.102 0.186435L141.12 0ZM135.424 30.0142V31.0142H136.357V30.0142V29.0142H135.424V30.0142ZM136.357 30.0142L137.339 30.2007L143.035 0.186435L142.052 0L141.07 -0.186435L135.374 29.8278L136.357 30.0142ZM142.052 0V-1H141.12V0V1H142.052V0Z" fill="#FEC311" mask="url(#path-63-inside-32_54642_5932)"/>
<mask id="path-65-inside-33_54642_5932" fill="white">
<path d="M145.433 0L139.738 30.0142H140.67L146.366 0H145.433Z"/>
</mask>
<path d="M145.433 0L139.738 30.0142H140.67L146.366 0H145.433Z" fill="#FEC311"/>
<path d="M145.433 0V-1H144.605L144.451 -0.186435L145.433 0ZM139.738 30.0142L138.755 29.8278L138.53 31.0142H139.738V30.0142ZM140.67 30.0142V31.0142H141.499L141.653 30.2007L140.67 30.0142ZM146.366 0L147.349 0.186435L147.574 -1H146.366V0ZM145.433 0L144.451 -0.186435L138.755 29.8278L139.738 30.0142L140.72 30.2007L146.416 0.186435L145.433 0ZM139.738 30.0142V31.0142H140.67V30.0142V29.0142H139.738V30.0142ZM140.67 30.0142L141.653 30.2007L147.349 0.186435L146.366 0L145.384 -0.186435L139.688 29.8278L140.67 30.0142ZM146.366 0V-1H145.433V0V1H146.366V0Z" fill="#FEC311" mask="url(#path-65-inside-33_54642_5932)"/>
<mask id="path-67-inside-34_54642_5932" fill="white">
<path d="M149.747 0L144.052 30.0142H144.984L150.68 0H149.747Z"/>
</mask>
<path d="M149.747 0L144.052 30.0142H144.984L150.68 0H149.747Z" fill="#FEC311"/>
<path d="M149.747 0V-1H148.919L148.765 -0.186435L149.747 0ZM144.052 30.0142L143.069 29.8278L142.844 31.0142H144.052V30.0142ZM144.984 30.0142V31.0142H145.812L145.967 30.2007L144.984 30.0142ZM150.68 0L151.662 0.186435L151.887 -1H150.68V0ZM149.747 0L148.765 -0.186435L143.069 29.8278L144.052 30.0142L145.034 30.2007L150.73 0.186435L149.747 0ZM144.052 30.0142V31.0142H144.984V30.0142V29.0142H144.052V30.0142ZM144.984 30.0142L145.967 30.2007L151.662 0.186435L150.68 0L149.697 -0.186435L144.002 29.8278L144.984 30.0142ZM150.68 0V-1H149.747V0V1H150.68V0Z" fill="#FEC311" mask="url(#path-67-inside-34_54642_5932)"/>
<mask id="path-69-inside-35_54642_5932" fill="white">
<path d="M154.061 0L148.365 30.0142H149.298L154.994 0H154.061Z"/>
</mask>
<path d="M154.061 0L148.365 30.0142H149.298L154.994 0H154.061Z" fill="#FEC311"/>
<path d="M154.061 0V-1H153.233L153.079 -0.186435L154.061 0ZM148.365 30.0142L147.383 29.8278L147.158 31.0142H148.365V30.0142ZM149.298 30.0142V31.0142H150.126L150.281 30.2007L149.298 30.0142ZM154.994 0L155.976 0.186435L156.201 -1H154.994V0ZM154.061 0L153.079 -0.186435L147.383 29.8278L148.365 30.0142L149.348 30.2007L155.044 0.186435L154.061 0ZM148.365 30.0142V31.0142H149.298V30.0142V29.0142H148.365V30.0142ZM149.298 30.0142L150.281 30.2007L155.976 0.186435L154.994 0L154.011 -0.186435L148.316 29.8278L149.298 30.0142ZM154.994 0V-1H154.061V0V1H154.994V0Z" fill="#FEC311" mask="url(#path-69-inside-35_54642_5932)"/>
<mask id="path-71-inside-36_54642_5932" fill="white">
<path d="M158.375 0L152.679 30.0142H153.612L159.308 0H158.375Z"/>
</mask>
<path d="M158.375 0L152.679 30.0142H153.612L159.308 0H158.375Z" fill="#FEC311"/>
<path d="M158.375 0V-1H157.547L157.392 -0.186435L158.375 0ZM152.679 30.0142L151.697 29.8278L151.472 31.0142H152.679V30.0142ZM153.612 30.0142V31.0142H154.44L154.594 30.2007L153.612 30.0142ZM159.308 0L160.29 0.186435L160.515 -1H159.308V0ZM158.375 0L157.392 -0.186435L151.697 29.8278L152.679 30.0142L153.662 30.2007L159.357 0.186435L158.375 0ZM152.679 30.0142V31.0142H153.612V30.0142V29.0142H152.679V30.0142ZM153.612 30.0142L154.594 30.2007L160.29 0.186435L159.308 0L158.325 -0.186435L152.63 29.8278L153.612 30.0142ZM159.308 0V-1H158.375V0V1H159.308V0Z" fill="#FEC311" mask="url(#path-71-inside-36_54642_5932)"/>
<mask id="path-73-inside-37_54642_5932" fill="white">
<path d="M162.689 0L156.993 30.0142H157.926L163.621 0H162.689Z"/>
</mask>
<path d="M162.689 0L156.993 30.0142H157.926L163.621 0H162.689Z" fill="#FEC311"/>
<path d="M162.689 0V-1H161.861L161.706 -0.186435L162.689 0ZM156.993 30.0142L156.011 29.8278L155.786 31.0142H156.993V30.0142ZM157.926 30.0142V31.0142H158.754L158.908 30.2007L157.926 30.0142ZM163.621 0L164.604 0.186435L164.829 -1H163.621V0ZM162.689 0L161.706 -0.186435L156.011 29.8278L156.993 30.0142L157.976 30.2007L163.671 0.186435L162.689 0ZM156.993 30.0142V31.0142H157.926V30.0142V29.0142H156.993V30.0142ZM157.926 30.0142L158.908 30.2007L164.604 0.186435L163.621 0L162.639 -0.186435L156.943 29.8278L157.926 30.0142ZM163.621 0V-1H162.689V0V1H163.621V0Z" fill="#FEC311" mask="url(#path-73-inside-37_54642_5932)"/>
<mask id="path-75-inside-38_54642_5932" fill="white">
<path d="M167.003 0L161.307 30.0142H162.24L167.935 0H167.003Z"/>
</mask>
<path d="M167.003 0L161.307 30.0142H162.24L167.935 0H167.003Z" fill="#FEC311"/>
<path d="M167.003 0V-1H166.175L166.02 -0.186435L167.003 0ZM161.307 30.0142L160.325 29.8278L160.099 31.0142H161.307V30.0142ZM162.24 30.0142V31.0142H163.068L163.222 30.2007L162.24 30.0142ZM167.935 0L168.918 0.186435L169.143 -1H167.935V0ZM167.003 0L166.02 -0.186435L160.325 29.8278L161.307 30.0142L162.29 30.2007L167.985 0.186435L167.003 0ZM161.307 30.0142V31.0142H162.24V30.0142V29.0142H161.307V30.0142ZM162.24 30.0142L163.222 30.2007L168.918 0.186435L167.935 0L166.953 -0.186435L161.257 29.8278L162.24 30.0142ZM167.935 0V-1H167.003V0V1H167.935V0Z" fill="#FEC311" mask="url(#path-75-inside-38_54642_5932)"/>
<mask id="path-77-inside-39_54642_5932" fill="white">
<path d="M171.316 0L165.621 30.0142H166.554L172.249 0H171.316Z"/>
</mask>
<path d="M171.316 0L165.621 30.0142H166.554L172.249 0H171.316Z" fill="#FEC311"/>
<path d="M171.316 0V-1H170.488L170.334 -0.186435L171.316 0ZM165.621 30.0142L164.638 29.8278L164.413 31.0142H165.621V30.0142ZM166.554 30.0142V31.0142H167.382L167.536 30.2007L166.554 30.0142ZM172.249 0L173.232 0.186435L173.457 -1H172.249V0ZM171.316 0L170.334 -0.186435L164.638 29.8278L165.621 30.0142L166.603 30.2007L172.299 0.186435L171.316 0ZM165.621 30.0142V31.0142H166.554V30.0142V29.0142H165.621V30.0142ZM166.554 30.0142L167.536 30.2007L173.232 0.186435L172.249 0L171.267 -0.186435L165.571 29.8278L166.554 30.0142ZM172.249 0V-1H171.316V0V1H172.249V0Z" fill="#FEC311" mask="url(#path-77-inside-39_54642_5932)"/>
<mask id="path-79-inside-40_54642_5932" fill="white">
<path d="M175.63 0L169.935 30.0142H170.867L176.563 0H175.63Z"/>
</mask>
<path d="M175.63 0L169.935 30.0142H170.867L176.563 0H175.63Z" fill="#FEC311"/>
<path d="M175.63 0V-1H174.802L174.648 -0.186435L175.63 0ZM169.935 30.0142L168.952 29.8278L168.727 31.0142H169.935V30.0142ZM170.867 30.0142V31.0142H171.695L171.85 30.2007L170.867 30.0142ZM176.563 0L177.545 0.186435L177.771 -1H176.563V0ZM175.63 0L174.648 -0.186435L168.952 29.8278L169.935 30.0142L170.917 30.2007L176.613 0.186435L175.63 0ZM169.935 30.0142V31.0142H170.867V30.0142V29.0142H169.935V30.0142ZM170.867 30.0142L171.85 30.2007L177.545 0.186435L176.563 0L175.581 -0.186435L169.885 29.8278L170.867 30.0142ZM176.563 0V-1H175.63V0V1H176.563V0Z" fill="#FEC311" mask="url(#path-79-inside-40_54642_5932)"/>
<mask id="path-81-inside-41_54642_5932" fill="white">
<path d="M179.944 0L174.249 30.0142H175.181L180.877 0H179.944Z"/>
</mask>
<path d="M179.944 0L174.249 30.0142H175.181L180.877 0H179.944Z" fill="#FEC311"/>
<path d="M179.944 0V-1H179.116L178.962 -0.186435L179.944 0ZM174.249 30.0142L173.266 29.8278L173.041 31.0142H174.249V30.0142ZM175.181 30.0142V31.0142H176.009L176.164 30.2007L175.181 30.0142ZM180.877 0L181.859 0.186435L182.084 -1H180.877V0ZM179.944 0L178.962 -0.186435L173.266 29.8278L174.249 30.0142L175.231 30.2007L180.927 0.186435L179.944 0ZM174.249 30.0142V31.0142H175.181V30.0142V29.0142H174.249V30.0142ZM175.181 30.0142L176.164 30.2007L181.859 0.186435L180.877 0L179.894 -0.186435L174.199 29.8278L175.181 30.0142ZM180.877 0V-1H179.944V0V1H180.877V0Z" fill="#FEC311" mask="url(#path-81-inside-41_54642_5932)"/>
<mask id="path-83-inside-42_54642_5932" fill="white">
<path d="M184.258 0L178.562 30.0142H179.495L185.191 0H184.258Z"/>
</mask>
<path d="M184.258 0L178.562 30.0142H179.495L185.191 0H184.258Z" fill="#FEC311"/>
<path d="M184.258 0V-1H183.43L183.276 -0.186435L184.258 0ZM178.562 30.0142L177.58 29.8278L177.355 31.0142H178.562V30.0142ZM179.495 30.0142V31.0142H180.323L180.478 30.2007L179.495 30.0142ZM185.191 0L186.173 0.186435L186.398 -1H185.191V0ZM184.258 0L183.276 -0.186435L177.58 29.8278L178.562 30.0142L179.545 30.2007L185.24 0.186435L184.258 0ZM178.562 30.0142V31.0142H179.495V30.0142V29.0142H178.562V30.0142ZM179.495 30.0142L180.478 30.2007L186.173 0.186435L185.191 0L184.208 -0.186435L178.513 29.8278L179.495 30.0142ZM185.191 0V-1H184.258V0V1H185.191V0Z" fill="#FEC311" mask="url(#path-83-inside-42_54642_5932)"/>
<mask id="path-85-inside-43_54642_5932" fill="white">
<path d="M188.572 0L182.876 30.0142H183.809L189.505 0H188.572Z"/>
</mask>
<path d="M188.572 0L182.876 30.0142H183.809L189.505 0H188.572Z" fill="#FEC311"/>
<path d="M188.572 0V-1H187.744L187.589 -0.186435L188.572 0ZM182.876 30.0142L181.894 29.8278L181.669 31.0142H182.876V30.0142ZM183.809 30.0142V31.0142H184.637L184.791 30.2007L183.809 30.0142ZM189.505 0L190.487 0.186435L190.712 -1H189.505V0ZM188.572 0L187.589 -0.186435L181.894 29.8278L182.876 30.0142L183.859 30.2007L189.554 0.186435L188.572 0ZM182.876 30.0142V31.0142H183.809V30.0142V29.0142H182.876V30.0142ZM183.809 30.0142L184.791 30.2007L190.487 0.186435L189.505 0L188.522 -0.186435L182.826 29.8278L183.809 30.0142ZM189.505 0V-1H188.572V0V1H189.505V0Z" fill="#FEC311" mask="url(#path-85-inside-43_54642_5932)"/>
<mask id="path-87-inside-44_54642_5932" fill="white">
<path d="M192.886 0L187.19 30.0142H188.123L193.818 0H192.886Z"/>
</mask>
<path d="M192.886 0L187.19 30.0142H188.123L193.818 0H192.886Z" fill="#FEC311"/>
<path d="M192.886 0V-1H192.058L191.903 -0.186435L192.886 0ZM187.19 30.0142L186.208 29.8278L185.983 31.0142H187.19V30.0142ZM188.123 30.0142V31.0142H188.951L189.105 30.2007L188.123 30.0142ZM193.818 0L194.801 0.186435L195.026 -1H193.818V0ZM192.886 0L191.903 -0.186435L186.208 29.8278L187.19 30.0142L188.173 30.2007L193.868 0.186435L192.886 0ZM187.19 30.0142V31.0142H188.123V30.0142V29.0142H187.19V30.0142ZM188.123 30.0142L189.105 30.2007L194.801 0.186435L193.818 0L192.836 -0.186435L187.14 29.8278L188.123 30.0142ZM193.818 0V-1H192.886V0V1H193.818V0Z" fill="#FEC311" mask="url(#path-87-inside-44_54642_5932)"/>
<mask id="path-89-inside-45_54642_5932" fill="white">
<path d="M197.2 0L191.504 30.0142H192.437L198.132 0H197.2Z"/>
</mask>
<path d="M197.2 0L191.504 30.0142H192.437L198.132 0H197.2Z" fill="#FEC311"/>
<path d="M197.2 0V-1H196.371L196.217 -0.186435L197.2 0ZM191.504 30.0142L190.522 29.8278L190.296 31.0142H191.504V30.0142ZM192.437 30.0142V31.0142H193.265L193.419 30.2007L192.437 30.0142ZM198.132 0L199.115 0.186435L199.34 -1H198.132V0ZM197.2 0L196.217 -0.186435L190.522 29.8278L191.504 30.0142L192.486 30.2007L198.182 0.186435L197.2 0ZM191.504 30.0142V31.0142H192.437V30.0142V29.0142H191.504V30.0142ZM192.437 30.0142L193.419 30.2007L199.115 0.186435L198.132 0L197.15 -0.186435L191.454 29.8278L192.437 30.0142ZM198.132 0V-1H197.2V0V1H198.132V0Z" fill="#FEC311" mask="url(#path-89-inside-45_54642_5932)"/>
<mask id="path-91-inside-46_54642_5932" fill="white">
<path d="M201.513 0L195.818 30.0142H196.75L202.446 0H201.513Z"/>
</mask>
<path d="M201.513 0L195.818 30.0142H196.75L202.446 0H201.513Z" fill="#FEC311"/>
<path d="M201.513 0V-1H200.685L200.531 -0.186435L201.513 0ZM195.818 30.0142L194.835 29.8278L194.61 31.0142H195.818V30.0142ZM196.75 30.0142V31.0142H197.579L197.733 30.2007L196.75 30.0142ZM202.446 0L203.429 0.186435L203.654 -1H202.446V0ZM201.513 0L200.531 -0.186435L194.835 29.8278L195.818 30.0142L196.8 30.2007L202.496 0.186435L201.513 0ZM195.818 30.0142V31.0142H196.75V30.0142V29.0142H195.818V30.0142ZM196.75 30.0142L197.733 30.2007L203.429 0.186435L202.446 0L201.464 -0.186435L195.768 29.8278L196.75 30.0142ZM202.446 0V-1H201.513V0V1H202.446V0Z" fill="#FEC311" mask="url(#path-91-inside-46_54642_5932)"/>
<mask id="path-93-inside-47_54642_5932" fill="white">
<path d="M205.827 0L200.132 30.0142H201.064L206.76 0H205.827Z"/>
</mask>
<path d="M205.827 0L200.132 30.0142H201.064L206.76 0H205.827Z" fill="#FEC311"/>
<path d="M205.827 0V-1H204.999L204.845 -0.186435L205.827 0ZM200.132 30.0142L199.149 29.8278L198.924 31.0142H200.132V30.0142ZM201.064 30.0142V31.0142H201.892L202.047 30.2007L201.064 30.0142ZM206.76 0L207.742 0.186435L207.968 -1H206.76V0ZM205.827 0L204.845 -0.186435L199.149 29.8278L200.132 30.0142L201.114 30.2007L206.81 0.186435L205.827 0ZM200.132 30.0142V31.0142H201.064V30.0142V29.0142H200.132V30.0142ZM201.064 30.0142L202.047 30.2007L207.742 0.186435L206.76 0L205.777 -0.186435L200.082 29.8278L201.064 30.0142ZM206.76 0V-1H205.827V0V1H206.76V0Z" fill="#FEC311" mask="url(#path-93-inside-47_54642_5932)"/>
<mask id="path-95-inside-48_54642_5932" fill="white">
<path d="M210.141 0L204.446 30.0142H205.378L211.074 0H210.141Z"/>
</mask>
<path d="M210.141 0L204.446 30.0142H205.378L211.074 0H210.141Z" fill="#FEC311"/>
<path d="M210.141 0V-1H209.313L209.159 -0.186435L210.141 0ZM204.446 30.0142L203.463 29.8278L203.238 31.0142H204.446V30.0142ZM205.378 30.0142V31.0142H206.206L206.361 30.2007L205.378 30.0142ZM211.074 0L212.056 0.186435L212.281 -1H211.074V0ZM210.141 0L209.159 -0.186435L203.463 29.8278L204.446 30.0142L205.428 30.2007L211.124 0.186435L210.141 0ZM204.446 30.0142V31.0142H205.378V30.0142V29.0142H204.446V30.0142ZM205.378 30.0142L206.361 30.2007L212.056 0.186435L211.074 0L210.091 -0.186435L204.396 29.8278L205.378 30.0142ZM211.074 0V-1H210.141V0V1H211.074V0Z" fill="#FEC311" mask="url(#path-95-inside-48_54642_5932)"/>
<mask id="path-97-inside-49_54642_5932" fill="white">
<path d="M214.455 0L208.759 30.0142H209.692L215.388 0H214.455Z"/>
</mask>
<path d="M214.455 0L208.759 30.0142H209.692L215.388 0H214.455Z" fill="#FEC311"/>
<path d="M214.455 0V-1H213.627L213.472 -0.186435L214.455 0ZM208.759 30.0142L207.777 29.8278L207.552 31.0142H208.759V30.0142ZM209.692 30.0142V31.0142H210.52L210.674 30.2007L209.692 30.0142ZM215.388 0L216.37 0.186435L216.595 -1H215.388V0ZM214.455 0L213.472 -0.186435L207.777 29.8278L208.759 30.0142L209.742 30.2007L215.437 0.186435L214.455 0ZM208.759 30.0142V31.0142H209.692V30.0142V29.0142H208.759V30.0142ZM209.692 30.0142L210.674 30.2007L216.37 0.186435L215.388 0L214.405 -0.186435L208.71 29.8278L209.692 30.0142ZM215.388 0V-1H214.455V0V1H215.388V0Z" fill="#FEC311" mask="url(#path-97-inside-49_54642_5932)"/>
<mask id="path-99-inside-50_54642_5932" fill="white">
<path d="M218.769 0L213.073 30.0142H214.006L219.701 0H218.769Z"/>
</mask>
<path d="M218.769 0L213.073 30.0142H214.006L219.701 0H218.769Z" fill="#FEC311"/>
<path d="M218.769 0V-1H217.941L217.786 -0.186435L218.769 0ZM213.073 30.0142L212.091 29.8278L211.866 31.0142H213.073V30.0142ZM214.006 30.0142V31.0142H214.834L214.988 30.2007L214.006 30.0142ZM219.701 0L220.684 0.186435L220.909 -1H219.701V0ZM218.769 0L217.786 -0.186435L212.091 29.8278L213.073 30.0142L214.056 30.2007L219.751 0.186435L218.769 0ZM213.073 30.0142V31.0142H214.006V30.0142V29.0142H213.073V30.0142ZM214.006 30.0142L214.988 30.2007L220.684 0.186435L219.701 0L218.719 -0.186435L213.023 29.8278L214.006 30.0142ZM219.701 0V-1H218.769V0V1H219.701V0Z" fill="#FEC311" mask="url(#path-99-inside-50_54642_5932)"/>
<mask id="path-101-inside-51_54642_5932" fill="white">
<path d="M223.083 0L217.387 30.0142H218.32L224.015 0H223.083Z"/>
</mask>
<path d="M223.083 0L217.387 30.0142H218.32L224.015 0H223.083Z" fill="#FEC311"/>
<path d="M223.083 0V-1H222.255L222.1 -0.186435L223.083 0ZM217.387 30.0142L216.405 29.8278L216.179 31.0142H217.387V30.0142ZM218.32 30.0142V31.0142H219.148L219.302 30.2007L218.32 30.0142ZM224.015 0L224.998 0.186435L225.223 -1H224.015V0ZM223.083 0L222.1 -0.186435L216.405 29.8278L217.387 30.0142L218.37 30.2007L224.065 0.186435L223.083 0ZM217.387 30.0142V31.0142H218.32V30.0142V29.0142H217.387V30.0142ZM218.32 30.0142L219.302 30.2007L224.998 0.186435L224.015 0L223.033 -0.186435L217.337 29.8278L218.32 30.0142ZM224.015 0V-1H223.083V0V1H224.015V0Z" fill="#FEC311" mask="url(#path-101-inside-51_54642_5932)"/>
<mask id="path-103-inside-52_54642_5932" fill="white">
<path d="M227.396 0L221.701 30.0142H222.634L228.329 0H227.396Z"/>
</mask>
<path d="M227.396 0L221.701 30.0142H222.634L228.329 0H227.396Z" fill="#FEC311"/>
<path d="M227.396 0V-1H226.568L226.414 -0.186435L227.396 0ZM221.701 30.0142L220.718 29.8278L220.493 31.0142H221.701V30.0142ZM222.634 30.0142V31.0142H223.462L223.616 30.2007L222.634 30.0142ZM228.329 0L229.312 0.186435L229.537 -1H228.329V0ZM227.396 0L226.414 -0.186435L220.718 29.8278L221.701 30.0142L222.683 30.2007L228.379 0.186435L227.396 0ZM221.701 30.0142V31.0142H222.634V30.0142V29.0142H221.701V30.0142ZM222.634 30.0142L223.616 30.2007L229.312 0.186435L228.329 0L227.347 -0.186435L221.651 29.8278L222.634 30.0142ZM228.329 0V-1H227.396V0V1H228.329V0Z" fill="#FEC311" mask="url(#path-103-inside-52_54642_5932)"/>
<mask id="path-105-inside-53_54642_5932" fill="white">
<path d="M231.71 0L226.015 30.0142H226.947L232.643 0H231.71Z"/>
</mask>
<path d="M231.71 0L226.015 30.0142H226.947L232.643 0H231.71Z" fill="#FEC311"/>
<path d="M231.71 0V-1H230.882L230.728 -0.186435L231.71 0ZM226.015 30.0142L225.032 29.8278L224.807 31.0142H226.015V30.0142ZM226.947 30.0142V31.0142H227.776L227.93 30.2007L226.947 30.0142ZM232.643 0L233.625 0.186435L233.851 -1H232.643V0ZM231.71 0L230.728 -0.186435L225.032 29.8278L226.015 30.0142L226.997 30.2007L232.693 0.186435L231.71 0ZM226.015 30.0142V31.0142H226.947V30.0142V29.0142H226.015V30.0142ZM226.947 30.0142L227.93 30.2007L233.625 0.186435L232.643 0L231.661 -0.186435L225.965 29.8278L226.947 30.0142ZM232.643 0V-1H231.71V0V1H232.643V0Z" fill="#FEC311" mask="url(#path-105-inside-53_54642_5932)"/>
<mask id="path-107-inside-54_54642_5932" fill="white">
<path d="M236.024 0L230.329 30.0142H231.261L236.957 0H236.024Z"/>
</mask>
<path d="M236.024 0L230.329 30.0142H231.261L236.957 0H236.024Z" fill="#FEC311"/>
<path d="M236.024 0V-1H235.196L235.042 -0.186435L236.024 0ZM230.329 30.0142L229.346 29.8278L229.121 31.0142H230.329V30.0142ZM231.261 30.0142V31.0142H232.089L232.244 30.2007L231.261 30.0142ZM236.957 0L237.939 0.186435L238.164 -1H236.957V0ZM236.024 0L235.042 -0.186435L229.346 29.8278L230.329 30.0142L231.311 30.2007L237.007 0.186435L236.024 0ZM230.329 30.0142V31.0142H231.261V30.0142V29.0142H230.329V30.0142ZM231.261 30.0142L232.244 30.2007L237.939 0.186435L236.957 0L235.974 -0.186435L230.279 29.8278L231.261 30.0142ZM236.957 0V-1H236.024V0V1H236.957V0Z" fill="#FEC311" mask="url(#path-107-inside-54_54642_5932)"/>
<mask id="path-109-inside-55_54642_5932" fill="white">
<path d="M240.338 0L234.642 30.0142H235.575L241.271 0H240.338Z"/>
</mask>
<path d="M240.338 0L234.642 30.0142H235.575L241.271 0H240.338Z" fill="#FEC311"/>
<path d="M240.338 0V-1H239.51L239.356 -0.186435L240.338 0ZM234.642 30.0142L233.66 29.8278L233.435 31.0142H234.642V30.0142ZM235.575 30.0142V31.0142H236.403L236.558 30.2007L235.575 30.0142ZM241.271 0L242.253 0.186435L242.478 -1H241.271V0ZM240.338 0L239.356 -0.186435L233.66 29.8278L234.642 30.0142L235.625 30.2007L241.32 0.186435L240.338 0ZM234.642 30.0142V31.0142H235.575V30.0142V29.0142H234.642V30.0142ZM235.575 30.0142L236.558 30.2007L242.253 0.186435L241.271 0L240.288 -0.186435L234.593 29.8278L235.575 30.0142ZM241.271 0V-1H240.338V0V1H241.271V0Z" fill="#FEC311" mask="url(#path-109-inside-55_54642_5932)"/>
<mask id="path-111-inside-56_54642_5932" fill="white">
<path d="M244.652 0L238.956 30.0142H239.889L245.585 0H244.652Z"/>
</mask>
<path d="M244.652 0L238.956 30.0142H239.889L245.585 0H244.652Z" fill="#FEC311"/>
<path d="M244.652 0V-1H243.824L243.669 -0.186435L244.652 0ZM238.956 30.0142L237.974 29.8278L237.749 31.0142H238.956V30.0142ZM239.889 30.0142V31.0142H240.717L240.871 30.2007L239.889 30.0142ZM245.585 0L246.567 0.186435L246.792 -1H245.585V0ZM244.652 0L243.669 -0.186435L237.974 29.8278L238.956 30.0142L239.939 30.2007L245.634 0.186435L244.652 0ZM238.956 30.0142V31.0142H239.889V30.0142V29.0142H238.956V30.0142ZM239.889 30.0142L240.871 30.2007L246.567 0.186435L245.585 0L244.602 -0.186435L238.906 29.8278L239.889 30.0142ZM245.585 0V-1H244.652V0V1H245.585V0Z" fill="#FEC311" mask="url(#path-111-inside-56_54642_5932)"/>
<mask id="path-113-inside-57_54642_5932" fill="white">
<path d="M248.966 0L243.27 30.0142H244.203L249.898 0H248.966Z"/>
</mask>
<path d="M248.966 0L243.27 30.0142H244.203L249.898 0H248.966Z" fill="#FEC311"/>
<path d="M248.966 0V-1H248.138L247.983 -0.186435L248.966 0ZM243.27 30.0142L242.288 29.8278L242.063 31.0142H243.27V30.0142ZM244.203 30.0142V31.0142H245.031L245.185 30.2007L244.203 30.0142ZM249.898 0L250.881 0.186435L251.106 -1H249.898V0ZM248.966 0L247.983 -0.186435L242.288 29.8278L243.27 30.0142L244.253 30.2007L249.948 0.186435L248.966 0ZM243.27 30.0142V31.0142H244.203V30.0142V29.0142H243.27V30.0142ZM244.203 30.0142L245.185 30.2007L250.881 0.186435L249.898 0L248.916 -0.186435L243.22 29.8278L244.203 30.0142ZM249.898 0V-1H248.966V0V1H249.898V0Z" fill="#FEC311" mask="url(#path-113-inside-57_54642_5932)"/>
<mask id="path-115-inside-58_54642_5932" fill="white">
<path d="M253.28 0L247.584 30.0142H248.517L254.212 0H253.28Z"/>
</mask>
<path d="M253.28 0L247.584 30.0142H248.517L254.212 0H253.28Z" fill="#FEC311"/>
<path d="M253.28 0V-1H252.452L252.297 -0.186435L253.28 0ZM247.584 30.0142L246.602 29.8278L246.376 31.0142H247.584V30.0142ZM248.517 30.0142V31.0142H249.345L249.499 30.2007L248.517 30.0142ZM254.212 0L255.195 0.186435L255.42 -1H254.212V0ZM253.28 0L252.297 -0.186435L246.602 29.8278L247.584 30.0142L248.566 30.2007L254.262 0.186435L253.28 0ZM247.584 30.0142V31.0142H248.517V30.0142V29.0142H247.584V30.0142ZM248.517 30.0142L249.499 30.2007L255.195 0.186435L254.212 0L253.23 -0.186435L247.534 29.8278L248.517 30.0142ZM254.212 0V-1H253.28V0V1H254.212V0Z" fill="#FEC311" mask="url(#path-115-inside-58_54642_5932)"/>
<mask id="path-117-inside-59_54642_5932" fill="white">
<path d="M257.593 0L251.898 30.0142H252.831L258.526 0H257.593Z"/>
</mask>
<path d="M257.593 0L251.898 30.0142H252.831L258.526 0H257.593Z" fill="#FEC311"/>
<path d="M257.593 0V-1H256.765L256.611 -0.186435L257.593 0ZM251.898 30.0142L250.915 29.8278L250.69 31.0142H251.898V30.0142ZM252.831 30.0142V31.0142H253.659L253.813 30.2007L252.831 30.0142ZM258.526 0L259.509 0.186435L259.734 -1H258.526V0ZM257.593 0L256.611 -0.186435L250.915 29.8278L251.898 30.0142L252.88 30.2007L258.576 0.186435L257.593 0ZM251.898 30.0142V31.0142H252.831V30.0142V29.0142H251.898V30.0142ZM252.831 30.0142L253.813 30.2007L259.509 0.186435L258.526 0L257.544 -0.186435L251.848 29.8278L252.831 30.0142ZM258.526 0V-1H257.593V0V1H258.526V0Z" fill="#FEC311" mask="url(#path-117-inside-59_54642_5932)"/>
<mask id="path-119-inside-60_54642_5932" fill="white">
<path d="M261.907 0L256.212 30.0142H257.144L262.84 0H261.907Z"/>
</mask>
<path d="M261.907 0L256.212 30.0142H257.144L262.84 0H261.907Z" fill="#FEC311"/>
<path d="M261.907 0V-1H261.079L260.925 -0.186435L261.907 0ZM256.212 30.0142L255.229 29.8278L255.004 31.0142H256.212V30.0142ZM257.144 30.0142V31.0142H257.972L258.127 30.2007L257.144 30.0142ZM262.84 0L263.822 0.186435L264.048 -1H262.84V0ZM261.907 0L260.925 -0.186435L255.229 29.8278L256.212 30.0142L257.194 30.2007L262.89 0.186435L261.907 0ZM256.212 30.0142V31.0142H257.144V30.0142V29.0142H256.212V30.0142ZM257.144 30.0142L258.127 30.2007L263.822 0.186435L262.84 0L261.857 -0.186435L256.162 29.8278L257.144 30.0142ZM262.84 0V-1H261.907V0V1H262.84V0Z" fill="#FEC311" mask="url(#path-119-inside-60_54642_5932)"/>
<mask id="path-121-inside-61_54642_5932" fill="white">
<path d="M266.221 0L260.526 30.0142H261.458L267.154 0H266.221Z"/>
</mask>
<path d="M266.221 0L260.526 30.0142H261.458L267.154 0H266.221Z" fill="#FEC311"/>
<path d="M266.221 0V-1H265.393L265.239 -0.186435L266.221 0ZM260.526 30.0142L259.543 29.8278L259.318 31.0142H260.526V30.0142ZM261.458 30.0142V31.0142H262.286L262.441 30.2007L261.458 30.0142ZM267.154 0L268.136 0.186435L268.361 -1H267.154V0ZM266.221 0L265.239 -0.186435L259.543 29.8278L260.526 30.0142L261.508 30.2007L267.204 0.186435L266.221 0ZM260.526 30.0142V31.0142H261.458V30.0142V29.0142H260.526V30.0142ZM261.458 30.0142L262.441 30.2007L268.136 0.186435L267.154 0L266.171 -0.186435L260.476 29.8278L261.458 30.0142ZM267.154 0V-1H266.221V0V1H267.154V0Z" fill="#FEC311" mask="url(#path-121-inside-61_54642_5932)"/>
<mask id="path-123-inside-62_54642_5932" fill="white">
<path d="M270.535 0L264.839 30.0142H265.772L271.468 0H270.535Z"/>
</mask>
<path d="M270.535 0L264.839 30.0142H265.772L271.468 0H270.535Z" fill="#FEC311"/>
<path d="M270.535 0V-1H269.707L269.553 -0.186435L270.535 0ZM264.839 30.0142L263.857 29.8278L263.632 31.0142H264.839V30.0142ZM265.772 30.0142V31.0142H266.6L266.755 30.2007L265.772 30.0142ZM271.468 0L272.45 0.186435L272.675 -1H271.468V0ZM270.535 0L269.553 -0.186435L263.857 29.8278L264.839 30.0142L265.822 30.2007L271.517 0.186435L270.535 0ZM264.839 30.0142V31.0142H265.772V30.0142V29.0142H264.839V30.0142ZM265.772 30.0142L266.755 30.2007L272.45 0.186435L271.468 0L270.485 -0.186435L264.79 29.8278L265.772 30.0142ZM271.468 0V-1H270.535V0V1H271.468V0Z" fill="#FEC311" mask="url(#path-123-inside-62_54642_5932)"/>
<mask id="path-125-inside-63_54642_5932" fill="white">
<path d="M274.849 0L269.153 30.0142H270.086L275.781 0H274.849Z"/>
</mask>
<path d="M274.849 0L269.153 30.0142H270.086L275.781 0H274.849Z" fill="#FEC311"/>
<path d="M274.849 0V-1H274.021L273.866 -0.186435L274.849 0ZM269.153 30.0142L268.171 29.8278L267.946 31.0142H269.153V30.0142ZM270.086 30.0142V31.0142H270.914L271.068 30.2007L270.086 30.0142ZM275.781 0L276.764 0.186435L276.989 -1H275.781V0ZM274.849 0L273.866 -0.186435L268.171 29.8278L269.153 30.0142L270.136 30.2007L275.831 0.186435L274.849 0ZM269.153 30.0142V31.0142H270.086V30.0142V29.0142H269.153V30.0142ZM270.086 30.0142L271.068 30.2007L276.764 0.186435L275.781 0L274.799 -0.186435L269.103 29.8278L270.086 30.0142ZM275.781 0V-1H274.849V0V1H275.781V0Z" fill="#FEC311" mask="url(#path-125-inside-63_54642_5932)"/>
<mask id="path-127-inside-64_54642_5932" fill="white">
<path d="M279.163 0L273.467 30.0142H274.4L280.095 0H279.163Z"/>
</mask>
<path d="M279.163 0L273.467 30.0142H274.4L280.095 0H279.163Z" fill="#FEC311"/>
<path d="M279.163 0V-1H278.335L278.18 -0.186435L279.163 0ZM273.467 30.0142L272.485 29.8278L272.259 31.0142H273.467V30.0142ZM274.4 30.0142V31.0142H275.228L275.382 30.2007L274.4 30.0142ZM280.095 0L281.078 0.186435L281.303 -1H280.095V0ZM279.163 0L278.18 -0.186435L272.485 29.8278L273.467 30.0142L274.45 30.2007L280.145 0.186435L279.163 0ZM273.467 30.0142V31.0142H274.4V30.0142V29.0142H273.467V30.0142ZM274.4 30.0142L275.382 30.2007L281.078 0.186435L280.095 0L279.113 -0.186435L273.417 29.8278L274.4 30.0142ZM280.095 0V-1H279.163V0V1H280.095V0Z" fill="#FEC311" mask="url(#path-127-inside-64_54642_5932)"/>
<mask id="path-129-inside-65_54642_5932" fill="white">
<path d="M283.477 0L277.781 30.0142H278.714L284.409 0H283.477Z"/>
</mask>
<path d="M283.477 0L277.781 30.0142H278.714L284.409 0H283.477Z" fill="#FEC311"/>
<path d="M283.477 0V-1H282.648L282.494 -0.186435L283.477 0ZM277.781 30.0142L276.798 29.8278L276.573 31.0142H277.781V30.0142ZM278.714 30.0142V31.0142H279.542L279.696 30.2007L278.714 30.0142ZM284.409 0L285.392 0.186435L285.617 -1H284.409V0ZM283.477 0L282.494 -0.186435L276.798 29.8278L277.781 30.0142L278.763 30.2007L284.459 0.186435L283.477 0ZM277.781 30.0142V31.0142H278.714V30.0142V29.0142H277.781V30.0142ZM278.714 30.0142L279.696 30.2007L285.392 0.186435L284.409 0L283.427 -0.186435L277.731 29.8278L278.714 30.0142ZM284.409 0V-1H283.477V0V1H284.409V0Z" fill="#FEC311" mask="url(#path-129-inside-65_54642_5932)"/>
<mask id="path-131-inside-66_54642_5932" fill="white">
<path d="M287.79 0L282.095 30.0142H283.027L288.723 0H287.79Z"/>
</mask>
<path d="M287.79 0L282.095 30.0142H283.027L288.723 0H287.79Z" fill="#FEC311"/>
<path d="M287.79 0V-1H286.962L286.808 -0.186435L287.79 0ZM282.095 30.0142L281.112 29.8278L280.887 31.0142H282.095V30.0142ZM283.027 30.0142V31.0142H283.856L284.01 30.2007L283.027 30.0142ZM288.723 0L289.705 0.186435L289.931 -1H288.723V0ZM287.79 0L286.808 -0.186435L281.112 29.8278L282.095 30.0142L283.077 30.2007L288.773 0.186435L287.79 0ZM282.095 30.0142V31.0142H283.027V30.0142V29.0142H282.095V30.0142ZM283.027 30.0142L284.01 30.2007L289.705 0.186435L288.723 0L287.741 -0.186435L282.045 29.8278L283.027 30.0142ZM288.723 0V-1H287.79V0V1H288.723V0Z" fill="#FEC311" mask="url(#path-131-inside-66_54642_5932)"/>
<mask id="path-133-inside-67_54642_5932" fill="white">
<path d="M292.104 0L286.409 30.0142H287.341L293.037 0H292.104Z"/>
</mask>
<path d="M292.104 0L286.409 30.0142H287.341L293.037 0H292.104Z" fill="#FEC311"/>
<path d="M292.104 0V-1H291.276L291.122 -0.186435L292.104 0ZM286.409 30.0142L285.426 29.8278L285.201 31.0142H286.409V30.0142ZM287.341 30.0142V31.0142H288.169L288.324 30.2007L287.341 30.0142ZM293.037 0L294.019 0.186435L294.244 -1H293.037V0ZM292.104 0L291.122 -0.186435L285.426 29.8278L286.409 30.0142L287.391 30.2007L293.087 0.186435L292.104 0ZM286.409 30.0142V31.0142H287.341V30.0142V29.0142H286.409V30.0142ZM287.341 30.0142L288.324 30.2007L294.019 0.186435L293.037 0L292.054 -0.186435L286.359 29.8278L287.341 30.0142ZM293.037 0V-1H292.104V0V1H293.037V0Z" fill="#FEC311" mask="url(#path-133-inside-67_54642_5932)"/>
<mask id="path-135-inside-68_54642_5932" fill="white">
<path d="M296.418 0L290.722 30.0142H291.655L297.351 0H296.418Z"/>
</mask>
<path d="M296.418 0L290.722 30.0142H291.655L297.351 0H296.418Z" fill="#FEC311"/>
<path d="M296.418 0V-1H295.59L295.436 -0.186435L296.418 0ZM290.722 30.0142L289.74 29.8278L289.515 31.0142H290.722V30.0142ZM291.655 30.0142V31.0142H292.483L292.638 30.2007L291.655 30.0142ZM297.351 0L298.333 0.186435L298.558 -1H297.351V0ZM296.418 0L295.436 -0.186435L289.74 29.8278L290.722 30.0142L291.705 30.2007L297.401 0.186435L296.418 0ZM290.722 30.0142V31.0142H291.655V30.0142V29.0142H290.722V30.0142ZM291.655 30.0142L292.638 30.2007L298.333 0.186435L297.351 0L296.368 -0.186435L290.673 29.8278L291.655 30.0142ZM297.351 0V-1H296.418V0V1H297.351V0Z" fill="#FEC311" mask="url(#path-135-inside-68_54642_5932)"/>
<mask id="path-137-inside-69_54642_5932" fill="white">
<path d="M300.732 0L295.036 30.0142H295.969L301.665 0H300.732Z"/>
</mask>
<path d="M300.732 0L295.036 30.0142H295.969L301.665 0H300.732Z" fill="#FEC311"/>
<path d="M300.732 0V-1H299.904L299.749 -0.186435L300.732 0ZM295.036 30.0142L294.054 29.8278L293.829 31.0142H295.036V30.0142ZM295.969 30.0142V31.0142H296.797L296.951 30.2007L295.969 30.0142ZM301.665 0L302.647 0.186435L302.872 -1H301.665V0ZM300.732 0L299.749 -0.186435L294.054 29.8278L295.036 30.0142L296.019 30.2007L301.714 0.186435L300.732 0ZM295.036 30.0142V31.0142H295.969V30.0142V29.0142H295.036V30.0142ZM295.969 30.0142L296.951 30.2007L302.647 0.186435L301.665 0L300.682 -0.186435L294.987 29.8278L295.969 30.0142ZM301.665 0V-1H300.732V0V1H301.665V0Z" fill="#FEC311" mask="url(#path-137-inside-69_54642_5932)"/>
<mask id="path-139-inside-70_54642_5932" fill="white">
<path d="M305.046 0L299.35 30.0142H300.283L305.978 0H305.046Z"/>
</mask>
<path d="M305.046 0L299.35 30.0142H300.283L305.978 0H305.046Z" fill="#FEC311"/>
<path d="M305.046 0V-1H304.218L304.063 -0.186435L305.046 0ZM299.35 30.0142L298.368 29.8278L298.143 31.0142H299.35V30.0142ZM300.283 30.0142V31.0142H301.111L301.265 30.2007L300.283 30.0142ZM305.978 0L306.961 0.186435L307.186 -1H305.978V0ZM305.046 0L304.063 -0.186435L298.368 29.8278L299.35 30.0142L300.333 30.2007L306.028 0.186435L305.046 0ZM299.35 30.0142V31.0142H300.283V30.0142V29.0142H299.35V30.0142ZM300.283 30.0142L301.265 30.2007L306.961 0.186435L305.978 0L304.996 -0.186435L299.3 29.8278L300.283 30.0142ZM305.978 0V-1H305.046V0V1H305.978V0Z" fill="#FEC311" mask="url(#path-139-inside-70_54642_5932)"/>
<mask id="path-141-inside-71_54642_5932" fill="white">
<path d="M309.36 0L303.664 30.0142H304.597L310.292 0H309.36Z"/>
</mask>
<path d="M309.36 0L303.664 30.0142H304.597L310.292 0H309.36Z" fill="#FEC311"/>
<path d="M309.36 0V-1H308.532L308.377 -0.186435L309.36 0ZM303.664 30.0142L302.682 29.8278L302.456 31.0142H303.664V30.0142ZM304.597 30.0142V31.0142H305.425L305.579 30.2007L304.597 30.0142ZM310.292 0L311.275 0.186435L311.5 -1H310.292V0ZM309.36 0L308.377 -0.186435L302.682 29.8278L303.664 30.0142L304.646 30.2007L310.342 0.186435L309.36 0ZM303.664 30.0142V31.0142H304.597V30.0142V29.0142H303.664V30.0142ZM304.597 30.0142L305.579 30.2007L311.275 0.186435L310.292 0L309.31 -0.186435L303.614 29.8278L304.597 30.0142ZM310.292 0V-1H309.36V0V1H310.292V0Z" fill="#FEC311" mask="url(#path-141-inside-71_54642_5932)"/>
<mask id="path-143-inside-72_54642_5932" fill="white">
<path d="M313.673 0L307.978 30.0142H308.911L314.606 0H313.673Z"/>
</mask>
<path d="M313.673 0L307.978 30.0142H308.911L314.606 0H313.673Z" fill="#FEC311"/>
<path d="M313.673 0V-1H312.845L312.691 -0.186435L313.673 0ZM307.978 30.0142L306.995 29.8278L306.77 31.0142H307.978V30.0142ZM308.911 30.0142V31.0142H309.739L309.893 30.2007L308.911 30.0142ZM314.606 0L315.589 0.186435L315.814 -1H314.606V0ZM313.673 0L312.691 -0.186435L306.995 29.8278L307.978 30.0142L308.96 30.2007L314.656 0.186435L313.673 0ZM307.978 30.0142V31.0142H308.911V30.0142V29.0142H307.978V30.0142ZM308.911 30.0142L309.893 30.2007L315.589 0.186435L314.606 0L313.624 -0.186435L307.928 29.8278L308.911 30.0142ZM314.606 0V-1H313.673V0V1H314.606V0Z" fill="#FEC311" mask="url(#path-143-inside-72_54642_5932)"/>
<mask id="path-145-inside-73_54642_5932" fill="white">
<path d="M317.987 0L312.292 30.0142H313.224L318.92 0H317.987Z"/>
</mask>
<path d="M317.987 0L312.292 30.0142H313.224L318.92 0H317.987Z" fill="#FEC311"/>
<path d="M317.987 0V-1H317.159L317.005 -0.186435L317.987 0ZM312.292 30.0142L311.309 29.8278L311.084 31.0142H312.292V30.0142ZM313.224 30.0142V31.0142H314.052L314.207 30.2007L313.224 30.0142ZM318.92 0L319.902 0.186435L320.128 -1H318.92V0ZM317.987 0L317.005 -0.186435L311.309 29.8278L312.292 30.0142L313.274 30.2007L318.97 0.186435L317.987 0ZM312.292 30.0142V31.0142H313.224V30.0142V29.0142H312.292V30.0142ZM313.224 30.0142L314.207 30.2007L319.902 0.186435L318.92 0L317.938 -0.186435L312.242 29.8278L313.224 30.0142ZM318.92 0V-1H317.987V0V1H318.92V0Z" fill="#FEC311" mask="url(#path-145-inside-73_54642_5932)"/>
<mask id="path-147-inside-74_54642_5932" fill="white">
<path d="M322.301 0L316.606 30.0142H317.538L323.234 0H322.301Z"/>
</mask>
<path d="M322.301 0L316.606 30.0142H317.538L323.234 0H322.301Z" fill="#FEC311"/>
<path d="M322.301 0V-1H321.473L321.319 -0.186435L322.301 0ZM316.606 30.0142L315.623 29.8278L315.398 31.0142H316.606V30.0142ZM317.538 30.0142V31.0142H318.366L318.521 30.2007L317.538 30.0142ZM323.234 0L324.216 0.186435L324.441 -1H323.234V0ZM322.301 0L321.319 -0.186435L315.623 29.8278L316.606 30.0142L317.588 30.2007L323.284 0.186435L322.301 0ZM316.606 30.0142V31.0142H317.538V30.0142V29.0142H316.606V30.0142ZM317.538 30.0142L318.521 30.2007L324.216 0.186435L323.234 0L322.251 -0.186435L316.556 29.8278L317.538 30.0142ZM323.234 0V-1H322.301V0V1H323.234V0Z" fill="#FEC311" mask="url(#path-147-inside-74_54642_5932)"/>
<mask id="path-149-inside-75_54642_5932" fill="white">
<path d="M326.615 0L320.919 30.0142H321.852L327.548 0H326.615Z"/>
</mask>
<path d="M326.615 0L320.919 30.0142H321.852L327.548 0H326.615Z" fill="#FEC311"/>
<path d="M326.615 0V-1H325.787L325.633 -0.186435L326.615 0ZM320.919 30.0142L319.937 29.8278L319.712 31.0142H320.919V30.0142ZM321.852 30.0142V31.0142H322.68L322.835 30.2007L321.852 30.0142ZM327.548 0L328.53 0.186435L328.755 -1H327.548V0ZM326.615 0L325.633 -0.186435L319.937 29.8278L320.919 30.0142L321.902 30.2007L327.597 0.186435L326.615 0ZM320.919 30.0142V31.0142H321.852V30.0142V29.0142H320.919V30.0142ZM321.852 30.0142L322.835 30.2007L328.53 0.186435L327.548 0L326.565 -0.186435L320.87 29.8278L321.852 30.0142ZM327.548 0V-1H326.615V0V1H327.548V0Z" fill="#FEC311" mask="url(#path-149-inside-75_54642_5932)"/>
<mask id="path-151-inside-76_54642_5932" fill="white">
<path d="M330.929 0L325.233 30.0142H326.166L331.862 0H330.929Z"/>
</mask>
<path d="M330.929 0L325.233 30.0142H326.166L331.862 0H330.929Z" fill="#FEC311"/>
<path d="M330.929 0V-1H330.101L329.946 -0.186435L330.929 0ZM325.233 30.0142L324.251 29.8278L324.026 31.0142H325.233V30.0142ZM326.166 30.0142V31.0142H326.994L327.148 30.2007L326.166 30.0142ZM331.862 0L332.844 0.186435L333.069 -1H331.862V0ZM330.929 0L329.946 -0.186435L324.251 29.8278L325.233 30.0142L326.216 30.2007L331.911 0.186435L330.929 0ZM325.233 30.0142V31.0142H326.166V30.0142V29.0142H325.233V30.0142ZM326.166 30.0142L327.148 30.2007L332.844 0.186435L331.862 0L330.879 -0.186435L325.183 29.8278L326.166 30.0142ZM331.862 0V-1H330.929V0V1H331.862V0Z" fill="#FEC311" mask="url(#path-151-inside-76_54642_5932)"/>
<mask id="path-153-inside-77_54642_5932" fill="white">
<path d="M335.243 0L329.547 30.0142H330.48L336.175 0H335.243Z"/>
</mask>
<path d="M335.243 0L329.547 30.0142H330.48L336.175 0H335.243Z" fill="#FEC311"/>
<path d="M335.243 0V-1H334.415L334.26 -0.186435L335.243 0ZM329.547 30.0142L328.565 29.8278L328.34 31.0142H329.547V30.0142ZM330.48 30.0142V31.0142H331.308L331.462 30.2007L330.48 30.0142ZM336.175 0L337.158 0.186435L337.383 -1H336.175V0ZM335.243 0L334.26 -0.186435L328.565 29.8278L329.547 30.0142L330.53 30.2007L336.225 0.186435L335.243 0ZM329.547 30.0142V31.0142H330.48V30.0142V29.0142H329.547V30.0142ZM330.48 30.0142L331.462 30.2007L337.158 0.186435L336.175 0L335.193 -0.186435L329.497 29.8278L330.48 30.0142ZM336.175 0V-1H335.243V0V1H336.175V0Z" fill="#FEC311" mask="url(#path-153-inside-77_54642_5932)"/>
<mask id="path-155-inside-78_54642_5932" fill="white">
<path d="M339.557 0L333.861 30.0142H334.794L340.489 0H339.557Z"/>
</mask>
<path d="M339.557 0L333.861 30.0142H334.794L340.489 0H339.557Z" fill="#FEC311"/>
<path d="M339.557 0V-1H338.728L338.574 -0.186435L339.557 0ZM333.861 30.0142L332.878 29.8278L332.653 31.0142H333.861V30.0142ZM334.794 30.0142V31.0142H335.622L335.776 30.2007L334.794 30.0142ZM340.489 0L341.472 0.186435L341.697 -1H340.489V0ZM339.557 0L338.574 -0.186435L332.878 29.8278L333.861 30.0142L334.843 30.2007L340.539 0.186435L339.557 0ZM333.861 30.0142V31.0142H334.794V30.0142V29.0142H333.861V30.0142ZM334.794 30.0142L335.776 30.2007L341.472 0.186435L340.489 0L339.507 -0.186435L333.811 29.8278L334.794 30.0142ZM340.489 0V-1H339.557V0V1H340.489V0Z" fill="#FEC311" mask="url(#path-155-inside-78_54642_5932)"/>
<mask id="path-157-inside-79_54642_5932" fill="white">
<path d="M343.87 0L338.175 30.0142H339.107L344.803 0H343.87Z"/>
</mask>
<path d="M343.87 0L338.175 30.0142H339.107L344.803 0H343.87Z" fill="#FEC311"/>
<path d="M343.87 0V-1H343.042L342.888 -0.186435L343.87 0ZM338.175 30.0142L337.192 29.8278L336.967 31.0142H338.175V30.0142ZM339.107 30.0142V31.0142H339.936L340.09 30.2007L339.107 30.0142ZM344.803 0L345.786 0.186435L346.011 -1H344.803V0ZM343.87 0L342.888 -0.186435L337.192 29.8278L338.175 30.0142L339.157 30.2007L344.853 0.186435L343.87 0ZM338.175 30.0142V31.0142H339.107V30.0142V29.0142H338.175V30.0142ZM339.107 30.0142L340.09 30.2007L345.786 0.186435L344.803 0L343.821 -0.186435L338.125 29.8278L339.107 30.0142ZM344.803 0V-1H343.87V0V1H344.803V0Z" fill="#FEC311" mask="url(#path-157-inside-79_54642_5932)"/>
<mask id="path-159-inside-80_54642_5932" fill="white">
<path d="M348.184 0L342.489 30.0142H343.421L349.117 0H348.184Z"/>
</mask>
<path d="M348.184 0L342.489 30.0142H343.421L349.117 0H348.184Z" fill="#FEC311"/>
<path d="M348.184 0V-1H347.356L347.202 -0.186435L348.184 0ZM342.489 30.0142L341.506 29.8278L341.281 31.0142H342.489V30.0142ZM343.421 30.0142V31.0142H344.249L344.404 30.2007L343.421 30.0142ZM349.117 0L350.099 0.186435L350.325 -1H349.117V0ZM348.184 0L347.202 -0.186435L341.506 29.8278L342.489 30.0142L343.471 30.2007L349.167 0.186435L348.184 0ZM342.489 30.0142V31.0142H343.421V30.0142V29.0142H342.489V30.0142ZM343.421 30.0142L344.404 30.2007L350.099 0.186435L349.117 0L348.134 -0.186435L342.439 29.8278L343.421 30.0142ZM349.117 0V-1H348.184V0V1H349.117V0Z" fill="#FEC311" mask="url(#path-159-inside-80_54642_5932)"/>
<mask id="path-161-inside-81_54642_5932" fill="white">
<path d="M352.498 0L346.803 30.0142H347.735L353.431 0H352.498Z"/>
</mask>
<path d="M352.498 0L346.803 30.0142H347.735L353.431 0H352.498Z" fill="#FEC311"/>
<path d="M352.498 0V-1H351.67L351.516 -0.186435L352.498 0ZM346.803 30.0142L345.82 29.8278L345.595 31.0142H346.803V30.0142ZM347.735 30.0142V31.0142H348.563L348.718 30.2007L347.735 30.0142ZM353.431 0L354.413 0.186435L354.638 -1H353.431V0ZM352.498 0L351.516 -0.186435L345.82 29.8278L346.803 30.0142L347.785 30.2007L353.481 0.186435L352.498 0ZM346.803 30.0142V31.0142H347.735V30.0142V29.0142H346.803V30.0142ZM347.735 30.0142L348.718 30.2007L354.413 0.186435L353.431 0L352.448 -0.186435L346.753 29.8278L347.735 30.0142ZM353.431 0V-1H352.498V0V1H353.431V0Z" fill="#FEC311" mask="url(#path-161-inside-81_54642_5932)"/>
<mask id="path-163-inside-82_54642_5932" fill="white">
<path d="M356.812 0L351.116 30.0142H352.049L357.745 0H356.812Z"/>
</mask>
<path d="M356.812 0L351.116 30.0142H352.049L357.745 0H356.812Z" fill="#FEC311"/>
<path d="M356.812 0V-1H355.984L355.829 -0.186435L356.812 0ZM351.116 30.0142L350.134 29.8278L349.909 31.0142H351.116V30.0142ZM352.049 30.0142V31.0142H352.877L353.031 30.2007L352.049 30.0142ZM357.745 0L358.727 0.186435L358.952 -1H357.745V0ZM356.812 0L355.829 -0.186435L350.134 29.8278L351.116 30.0142L352.099 30.2007L357.794 0.186435L356.812 0ZM351.116 30.0142V31.0142H352.049V30.0142V29.0142H351.116V30.0142ZM352.049 30.0142L353.031 30.2007L358.727 0.186435L357.745 0L356.762 -0.186435L351.067 29.8278L352.049 30.0142ZM357.745 0V-1H356.812V0V1H357.745V0Z" fill="#FEC311" mask="url(#path-163-inside-82_54642_5932)"/>
<mask id="path-165-inside-83_54642_5932" fill="white">
<path d="M361.126 0L355.43 30.0142H356.363L362.058 0H361.126Z"/>
</mask>
<path d="M361.126 0L355.43 30.0142H356.363L362.058 0H361.126Z" fill="#FEC311"/>
<path d="M361.126 0V-1H360.298L360.143 -0.186435L361.126 0ZM355.43 30.0142L354.448 29.8278L354.223 31.0142H355.43V30.0142ZM356.363 30.0142V31.0142H357.191L357.345 30.2007L356.363 30.0142ZM362.058 0L363.041 0.186435L363.266 -1H362.058V0ZM361.126 0L360.143 -0.186435L354.448 29.8278L355.43 30.0142L356.413 30.2007L362.108 0.186435L361.126 0ZM355.43 30.0142V31.0142H356.363V30.0142V29.0142H355.43V30.0142ZM356.363 30.0142L357.345 30.2007L363.041 0.186435L362.058 0L361.076 -0.186435L355.38 29.8278L356.363 30.0142ZM362.058 0V-1H361.126V0V1H362.058V0Z" fill="#FEC311" mask="url(#path-165-inside-83_54642_5932)"/>
<mask id="path-167-inside-84_54642_5932" fill="white">
<path d="M365.44 0L359.744 30.0142H360.677L366.372 0H365.44Z"/>
</mask>
<path d="M365.44 0L359.744 30.0142H360.677L366.372 0H365.44Z" fill="#FEC311"/>
<path d="M365.44 0V-1H364.612L364.457 -0.186435L365.44 0ZM359.744 30.0142L358.762 29.8278L358.536 31.0142H359.744V30.0142ZM360.677 30.0142V31.0142H361.505L361.659 30.2007L360.677 30.0142ZM366.372 0L367.355 0.186435L367.58 -1H366.372V0ZM365.44 0L364.457 -0.186435L358.762 29.8278L359.744 30.0142L360.727 30.2007L366.422 0.186435L365.44 0ZM359.744 30.0142V31.0142H360.677V30.0142V29.0142H359.744V30.0142ZM360.677 30.0142L361.659 30.2007L367.355 0.186435L366.372 0L365.39 -0.186435L359.694 29.8278L360.677 30.0142ZM366.372 0V-1H365.44V0V1H366.372V0Z" fill="#FEC311" mask="url(#path-167-inside-84_54642_5932)"/>
<mask id="path-169-inside-85_54642_5932" fill="white">
<path d="M369.753 0L364.058 30.0142H364.991L370.686 0H369.753Z"/>
</mask>
<path d="M369.753 0L364.058 30.0142H364.991L370.686 0H369.753Z" fill="#FEC311"/>
<path d="M369.753 0V-1H368.925L368.771 -0.186435L369.753 0ZM364.058 30.0142L363.075 29.8278L362.85 31.0142H364.058V30.0142ZM364.991 30.0142V31.0142H365.819L365.973 30.2007L364.991 30.0142ZM370.686 0L371.669 0.186435L371.894 -1H370.686V0ZM369.753 0L368.771 -0.186435L363.075 29.8278L364.058 30.0142L365.04 30.2007L370.736 0.186435L369.753 0ZM364.058 30.0142V31.0142H364.991V30.0142V29.0142H364.058V30.0142ZM364.991 30.0142L365.973 30.2007L371.669 0.186435L370.686 0L369.704 -0.186435L364.008 29.8278L364.991 30.0142ZM370.686 0V-1H369.753V0V1H370.686V0Z" fill="#FEC311" mask="url(#path-169-inside-85_54642_5932)"/>
<mask id="path-171-inside-86_54642_5932" fill="white">
<path d="M374.067 0L368.372 30.0142H369.304L375 0H374.067Z"/>
</mask>
<path d="M374.067 0L368.372 30.0142H369.304L375 0H374.067Z" fill="#FEC311"/>
<path d="M374.067 0V-1H373.239L373.085 -0.186435L374.067 0ZM368.372 30.0142L367.389 29.8278L367.164 31.0142H368.372V30.0142ZM369.304 30.0142V31.0142H370.133L370.287 30.2007L369.304 30.0142ZM375 0L375.982 0.186435L376.208 -1H375V0ZM374.067 0L373.085 -0.186435L367.389 29.8278L368.372 30.0142L369.354 30.2007L375.05 0.186435L374.067 0ZM368.372 30.0142V31.0142H369.304V30.0142V29.0142H368.372V30.0142ZM369.304 30.0142L370.287 30.2007L375.982 0.186435L375 0L374.018 -0.186435L368.322 29.8278L369.304 30.0142ZM375 0V-1H374.067V0V1H375V0Z" fill="#FEC311" mask="url(#path-171-inside-86_54642_5932)"/>
</svg>
