<svg width="80" height="115" viewBox="0 0 80 115" fill="none" xmlns="http://www.w3.org/2000/svg">
<path d="M79.4499 96.8111V114.209H2.24785V99.3629L38.7561 60.3136C42.425 56.2412 45.3188 52.6584 47.4374 49.5654C49.5561 46.4209 51.0805 43.6114 52.0106 41.137C52.9925 38.611 53.4834 36.214 53.4834 33.9458C53.4834 30.5434 52.915 27.6309 51.7781 25.208C50.6413 22.7336 48.9618 20.8262 46.7398 19.4859C44.5695 18.1456 41.8824 17.4755 38.6786 17.4755C35.268 17.4755 32.3226 18.3003 29.8422 19.9499C27.4135 21.5995 25.5532 23.8935 24.2613 26.8318C23.0211 29.7702 22.401 33.0952 22.401 36.8068H0C0 30.1053 1.60192 23.9708 4.80575 18.4034C8.00959 12.7844 12.5311 8.32534 18.3704 5.02614C24.2096 1.67538 31.134 0 39.1436 0C47.0499 0 53.7159 1.28875 59.1418 3.86626C64.6193 6.39222 68.7533 10.0523 71.5437 14.8464C74.3858 19.589 75.8069 25.2596 75.8069 31.858C75.8069 35.5696 75.2126 39.2039 74.0241 42.7608C72.8356 46.2662 71.1303 49.7716 68.9083 53.2771C66.738 56.7309 64.1025 60.2363 61.0021 63.7933C57.9016 67.3502 54.4652 71.0361 50.6929 74.8508L31.0824 96.8111H79.4499Z" fill="#FEC311"/>
</svg>
