<svg width="79" height="117" viewBox="0 0 79 117" fill="none" xmlns="http://www.w3.org/2000/svg">
<path d="M25.7845 48.3825H37.7448C41.5763 48.3825 44.7346 47.7363 47.2199 46.4441C49.7051 45.1001 51.5432 43.2392 52.734 40.8615C53.9767 38.432 54.598 35.6149 54.598 32.4101C54.598 29.5154 54.0284 26.9567 52.8894 24.734C51.8021 22.4596 50.1193 20.7021 47.8412 19.4615C45.563 18.1693 42.6895 17.5231 39.2205 17.5231C36.4763 17.5231 33.9393 18.0659 31.6094 19.1514C29.2794 20.2369 27.4155 21.7618 26.0175 23.726C24.6196 25.6903 23.9206 28.068 23.9206 30.8593H1.47562C1.47562 24.6565 3.13246 19.2548 6.44614 14.6543C9.81159 10.0538 14.3161 6.46133 19.9597 3.8768C25.6033 1.29227 31.8165 0 38.5991 0C46.262 0 52.967 1.24058 58.7142 3.72173C64.4613 6.15119 68.94 9.74369 72.1501 14.4992C75.3602 19.2548 76.9653 25.1475 76.9653 32.1774C76.9653 35.7441 76.1369 39.2074 74.48 42.5673C72.8232 45.8755 70.4415 48.8735 67.3349 51.5614C64.2801 54.1977 60.5522 56.317 56.1513 57.9194C51.7503 59.4701 46.8057 60.2455 41.3174 60.2455H25.7845V48.3825ZM25.7845 65.3629V53.81H41.3174C47.4788 53.81 52.8894 54.5078 57.5492 55.9035C62.2091 57.2991 66.1182 59.315 69.2765 61.9513C72.4349 64.5358 74.8166 67.6114 76.4216 71.1781C78.0267 74.693 78.8292 78.5957 78.8292 82.886C78.8292 88.1584 77.8196 92.8623 75.8003 96.9976C73.7811 101.081 70.9334 104.544 67.2573 107.387C63.6329 110.23 59.3873 112.401 54.5203 113.9C49.6534 115.348 44.3463 116.071 38.5991 116.071C33.8357 116.071 29.15 115.425 24.5419 114.133C19.9856 112.789 15.8435 110.799 12.1156 108.163C8.43952 105.475 5.48828 102.115 3.2619 98.0831C1.0873 93.9995 0 89.1664 0 83.5838H22.445C22.445 86.4785 23.1698 89.063 24.6196 91.3374C26.0693 93.6118 28.0627 95.3951 30.5997 96.6874C33.1885 97.9797 36.0621 98.6258 39.2205 98.6258C42.793 98.6258 45.8478 97.9797 48.3848 96.6874C50.9737 95.3434 52.9411 93.4826 54.2873 91.1048C55.6853 88.6753 56.3843 85.8582 56.3843 82.6534C56.3843 78.5181 55.6335 75.2099 54.132 72.7288C52.6305 70.1959 50.4818 68.3351 47.6859 67.1462C44.8899 65.9573 41.5763 65.3629 37.7448 65.3629H25.7845Z" fill="#FEC311"/>
</svg>
