<svg width="150" height="15" viewBox="0 0 150 15" fill="none" xmlns="http://www.w3.org/2000/svg">
<path d="M5.30469 1.16406L1.53906 11.5312H0L4.33594 0.15625H5.32812L5.30469 1.16406ZM8.46094 11.5312L4.6875 1.16406L4.66406 0.15625H5.65625L10.0078 11.5312H8.46094ZM8.26562 7.32031V8.55469H1.875V7.32031H8.26562ZM14.6953 10.5C15.0391 10.5 15.3568 10.4297 15.6484 10.2891C15.9401 10.1484 16.1797 9.95573 16.3672 9.71094C16.5547 9.46094 16.6615 9.17708 16.6875 8.85938H18.0625C18.0365 9.35938 17.8672 9.82552 17.5547 10.2578C17.2474 10.6849 16.8438 11.0312 16.3438 11.2969C15.8438 11.5573 15.2943 11.6875 14.6953 11.6875C14.0599 11.6875 13.5052 11.5755 13.0312 11.3516C12.5625 11.1276 12.1719 10.8203 11.8594 10.4297C11.5521 10.0391 11.3203 9.59115 11.1641 9.08594C11.013 8.57552 10.9375 8.03646 10.9375 7.46875V7.14062C10.9375 6.57292 11.013 6.03646 11.1641 5.53125C11.3203 5.02083 11.5521 4.57031 11.8594 4.17969C12.1719 3.78906 12.5625 3.48177 13.0312 3.25781C13.5052 3.03385 14.0599 2.92188 14.6953 2.92188C15.3568 2.92188 15.9349 3.05729 16.4297 3.32812C16.9245 3.59375 17.3125 3.95833 17.5938 4.42188C17.8802 4.88021 18.0365 5.40104 18.0625 5.98438H16.6875C16.6615 5.63542 16.5625 5.32031 16.3906 5.03906C16.224 4.75781 15.9948 4.53385 15.7031 4.36719C15.4167 4.19531 15.0807 4.10938 14.6953 4.10938C14.2526 4.10938 13.8802 4.19792 13.5781 4.375C13.2812 4.54688 13.0443 4.78125 12.8672 5.07812C12.6953 5.36979 12.5703 5.69531 12.4922 6.05469C12.4193 6.40885 12.3828 6.77083 12.3828 7.14062V7.46875C12.3828 7.83854 12.4193 8.20312 12.4922 8.5625C12.5651 8.92188 12.6875 9.2474 12.8594 9.53906C13.0365 9.83073 13.2734 10.0651 13.5703 10.2422C13.8724 10.4141 14.2474 10.5 14.6953 10.5ZM23.1953 11.6875C22.6068 11.6875 22.0729 11.5885 21.5938 11.3906C21.1198 11.1875 20.7109 10.9036 20.3672 10.5391C20.0286 10.1745 19.7682 9.74219 19.5859 9.24219C19.4036 8.74219 19.3125 8.19531 19.3125 7.60156V7.27344C19.3125 6.58594 19.4141 5.97396 19.6172 5.4375C19.8203 4.89583 20.0964 4.4375 20.4453 4.0625C20.7943 3.6875 21.1901 3.40365 21.6328 3.21094C22.0755 3.01823 22.5339 2.92188 23.0078 2.92188C23.612 2.92188 24.1328 3.02604 24.5703 3.23438C25.013 3.44271 25.375 3.73438 25.6562 4.10938C25.9375 4.47917 26.1458 4.91667 26.2812 5.42188C26.4167 5.92188 26.4844 6.46875 26.4844 7.0625V7.71094H20.1719V6.53125H25.0391V6.42188C25.0182 6.04688 24.9401 5.68229 24.8047 5.32812C24.6745 4.97396 24.4661 4.68229 24.1797 4.45312C23.8932 4.22396 23.5026 4.10938 23.0078 4.10938C22.6797 4.10938 22.3776 4.17969 22.1016 4.32031C21.8255 4.45573 21.5885 4.65885 21.3906 4.92969C21.1927 5.20052 21.0391 5.53125 20.9297 5.92188C20.8203 6.3125 20.7656 6.76302 20.7656 7.27344V7.60156C20.7656 8.0026 20.8203 8.38021 20.9297 8.73438C21.0443 9.08333 21.2083 9.39062 21.4219 9.65625C21.6406 9.92188 21.9036 10.1302 22.2109 10.2812C22.5234 10.4323 22.8776 10.5078 23.2734 10.5078C23.7839 10.5078 24.2161 10.4036 24.5703 10.1953C24.9245 9.98698 25.2344 9.70833 25.5 9.35938L26.375 10.0547C26.1927 10.3307 25.9609 10.5938 25.6797 10.8438C25.3984 11.0938 25.0521 11.2969 24.6406 11.4531C24.2344 11.6094 23.7526 11.6875 23.1953 11.6875ZM33.0938 9.28906C33.0938 9.08073 33.0469 8.88802 32.9531 8.71094C32.8646 8.52865 32.6797 8.36458 32.3984 8.21875C32.1224 8.06771 31.7057 7.9375 31.1484 7.82812C30.6797 7.72917 30.2552 7.61198 29.875 7.47656C29.5 7.34115 29.1797 7.17708 28.9141 6.98438C28.6536 6.79167 28.4531 6.5651 28.3125 6.30469C28.1719 6.04427 28.1016 5.73958 28.1016 5.39062C28.1016 5.05729 28.1745 4.74219 28.3203 4.44531C28.4714 4.14844 28.6823 3.88542 28.9531 3.65625C29.2292 3.42708 29.5599 3.2474 29.9453 3.11719C30.3307 2.98698 30.7604 2.92188 31.2344 2.92188C31.9115 2.92188 32.4896 3.04167 32.9688 3.28125C33.4479 3.52083 33.8151 3.84115 34.0703 4.24219C34.3255 4.63802 34.4531 5.07812 34.4531 5.5625H33.0078C33.0078 5.32812 32.9375 5.10156 32.7969 4.88281C32.6615 4.65885 32.4609 4.47396 32.1953 4.32812C31.9349 4.18229 31.6146 4.10938 31.2344 4.10938C30.8333 4.10938 30.5078 4.17188 30.2578 4.29688C30.013 4.41667 29.8333 4.57031 29.7188 4.75781C29.6094 4.94531 29.5547 5.14323 29.5547 5.35156C29.5547 5.50781 29.5807 5.64844 29.6328 5.77344C29.6901 5.89323 29.7891 6.00521 29.9297 6.10938C30.0703 6.20833 30.2682 6.30208 30.5234 6.39062C30.7786 6.47917 31.1042 6.56771 31.5 6.65625C32.1927 6.8125 32.763 7 33.2109 7.21875C33.6589 7.4375 33.9922 7.70573 34.2109 8.02344C34.4297 8.34115 34.5391 8.72656 34.5391 9.17969C34.5391 9.54948 34.4609 9.88802 34.3047 10.1953C34.1536 10.5026 33.9323 10.7682 33.6406 10.9922C33.3542 11.2109 33.0104 11.3828 32.6094 11.5078C32.2135 11.6276 31.7682 11.6875 31.2734 11.6875C30.5286 11.6875 29.8984 11.5547 29.3828 11.2891C28.8672 11.0234 28.4766 10.6797 28.2109 10.2578C27.9453 9.83594 27.8125 9.39062 27.8125 8.92188H29.2656C29.2865 9.31771 29.401 9.63281 29.6094 9.86719C29.8177 10.0964 30.0729 10.2604 30.375 10.3594C30.6771 10.4531 30.9766 10.5 31.2734 10.5C31.6693 10.5 32 10.4479 32.2656 10.3438C32.5365 10.2396 32.7422 10.0964 32.8828 9.91406C33.0234 9.73177 33.0938 9.52344 33.0938 9.28906ZM41.3594 9.28906C41.3594 9.08073 41.3125 8.88802 41.2188 8.71094C41.1302 8.52865 40.9453 8.36458 40.6641 8.21875C40.388 8.06771 39.9714 7.9375 39.4141 7.82812C38.9453 7.72917 38.5208 7.61198 38.1406 7.47656C37.7656 7.34115 37.4453 7.17708 37.1797 6.98438C36.9193 6.79167 36.7188 6.5651 36.5781 6.30469C36.4375 6.04427 36.3672 5.73958 36.3672 5.39062C36.3672 5.05729 36.4401 4.74219 36.5859 4.44531C36.737 4.14844 36.9479 3.88542 37.2188 3.65625C37.4948 3.42708 37.8255 3.2474 38.2109 3.11719C38.5964 2.98698 39.026 2.92188 39.5 2.92188C40.1771 2.92188 40.7552 3.04167 41.2344 3.28125C41.7135 3.52083 42.0807 3.84115 42.3359 4.24219C42.5911 4.63802 42.7188 5.07812 42.7188 5.5625H41.2734C41.2734 5.32812 41.2031 5.10156 41.0625 4.88281C40.9271 4.65885 40.7266 4.47396 40.4609 4.32812C40.2005 4.18229 39.8802 4.10938 39.5 4.10938C39.099 4.10938 38.7734 4.17188 38.5234 4.29688C38.2786 4.41667 38.099 4.57031 37.9844 4.75781C37.875 4.94531 37.8203 5.14323 37.8203 5.35156C37.8203 5.50781 37.8464 5.64844 37.8984 5.77344C37.9557 5.89323 38.0547 6.00521 38.1953 6.10938C38.3359 6.20833 38.5339 6.30208 38.7891 6.39062C39.0443 6.47917 39.3698 6.56771 39.7656 6.65625C40.4583 6.8125 41.0286 7 41.4766 7.21875C41.9245 7.4375 42.2578 7.70573 42.4766 8.02344C42.6953 8.34115 42.8047 8.72656 42.8047 9.17969C42.8047 9.54948 42.7266 9.88802 42.5703 10.1953C42.4193 10.5026 42.1979 10.7682 41.9062 10.9922C41.6198 11.2109 41.276 11.3828 40.875 11.5078C40.4792 11.6276 40.0339 11.6875 39.5391 11.6875C38.7943 11.6875 38.1641 11.5547 37.6484 11.2891C37.1328 11.0234 36.7422 10.6797 36.4766 10.2578C36.2109 9.83594 36.0781 9.39062 36.0781 8.92188H37.5312C37.5521 9.31771 37.6667 9.63281 37.875 9.86719C38.0833 10.0964 38.3385 10.2604 38.6406 10.3594C38.9427 10.4531 39.2422 10.5 39.5391 10.5C39.9349 10.5 40.2656 10.4479 40.5312 10.3438C40.8021 10.2396 41.0078 10.0964 41.1484 9.91406C41.2891 9.73177 41.3594 9.52344 41.3594 9.28906ZM48.2109 11.6875C47.6224 11.6875 47.0885 11.5885 46.6094 11.3906C46.1354 11.1875 45.7266 10.9036 45.3828 10.5391C45.0443 10.1745 44.7839 9.74219 44.6016 9.24219C44.4193 8.74219 44.3281 8.19531 44.3281 7.60156V7.27344C44.3281 6.58594 44.4297 5.97396 44.6328 5.4375C44.8359 4.89583 45.112 4.4375 45.4609 4.0625C45.8099 3.6875 46.2057 3.40365 46.6484 3.21094C47.0911 3.01823 47.5495 2.92188 48.0234 2.92188C48.6276 2.92188 49.1484 3.02604 49.5859 3.23438C50.0286 3.44271 50.3906 3.73438 50.6719 4.10938C50.9531 4.47917 51.1615 4.91667 51.2969 5.42188C51.4323 5.92188 51.5 6.46875 51.5 7.0625V7.71094H45.1875V6.53125H50.0547V6.42188C50.0339 6.04688 49.9557 5.68229 49.8203 5.32812C49.6901 4.97396 49.4818 4.68229 49.1953 4.45312C48.9089 4.22396 48.5182 4.10938 48.0234 4.10938C47.6953 4.10938 47.3932 4.17969 47.1172 4.32031C46.8411 4.45573 46.6042 4.65885 46.4062 4.92969C46.2083 5.20052 46.0547 5.53125 45.9453 5.92188C45.8359 6.3125 45.7812 6.76302 45.7812 7.27344V7.60156C45.7812 8.0026 45.8359 8.38021 45.9453 8.73438C46.0599 9.08333 46.224 9.39062 46.4375 9.65625C46.6562 9.92188 46.9193 10.1302 47.2266 10.2812C47.5391 10.4323 47.8932 10.5078 48.2891 10.5078C48.7995 10.5078 49.2318 10.4036 49.5859 10.1953C49.9401 9.98698 50.25 9.70833 50.5156 9.35938L51.3906 10.0547C51.2083 10.3307 50.9766 10.5938 50.6953 10.8438C50.4141 11.0938 50.0677 11.2969 49.6562 11.4531C49.25 11.6094 48.7682 11.6875 48.2109 11.6875ZM56.7734 7.39844V7.21875C56.7734 6.60938 56.862 6.04427 57.0391 5.52344C57.2161 4.9974 57.4714 4.54167 57.8047 4.15625C58.138 3.76562 58.5417 3.46354 59.0156 3.25C59.4896 3.03125 60.0208 2.92188 60.6094 2.92188C61.2031 2.92188 61.737 3.03125 62.2109 3.25C62.6901 3.46354 63.0964 3.76562 63.4297 4.15625C63.7682 4.54167 64.026 4.9974 64.2031 5.52344C64.3802 6.04427 64.4688 6.60938 64.4688 7.21875V7.39844C64.4688 8.00781 64.3802 8.57292 64.2031 9.09375C64.026 9.61458 63.7682 10.0703 63.4297 10.4609C63.0964 10.8464 62.6927 11.1484 62.2188 11.3672C61.75 11.5807 61.2188 11.6875 60.625 11.6875C60.0312 11.6875 59.4974 11.5807 59.0234 11.3672C58.5495 11.1484 58.1432 10.8464 57.8047 10.4609C57.4714 10.0703 57.2161 9.61458 57.0391 9.09375C56.862 8.57292 56.7734 8.00781 56.7734 7.39844ZM58.2188 7.21875V7.39844C58.2188 7.82031 58.2682 8.21875 58.3672 8.59375C58.4661 8.96354 58.6146 9.29167 58.8125 9.57812C59.0156 9.86458 59.2682 10.0911 59.5703 10.2578C59.8724 10.4193 60.224 10.5 60.625 10.5C61.0208 10.5 61.3672 10.4193 61.6641 10.2578C61.9661 10.0911 62.2161 9.86458 62.4141 9.57812C62.612 9.29167 62.7604 8.96354 62.8594 8.59375C62.9635 8.21875 63.0156 7.82031 63.0156 7.39844V7.21875C63.0156 6.80208 62.9635 6.40885 62.8594 6.03906C62.7604 5.66406 62.6094 5.33333 62.4062 5.04688C62.2083 4.75521 61.9583 4.52604 61.6562 4.35938C61.3594 4.19271 61.0104 4.10938 60.6094 4.10938C60.2135 4.10938 59.8646 4.19271 59.5625 4.35938C59.2656 4.52604 59.0156 4.75521 58.8125 5.04688C58.6146 5.33333 58.4661 5.66406 58.3672 6.03906C58.2682 6.40885 58.2188 6.80208 58.2188 7.21875ZM76.5312 8.65625C76.5312 8.39062 76.4896 8.15625 76.4062 7.95312C76.3281 7.74479 76.1875 7.55729 75.9844 7.39062C75.7865 7.22396 75.5104 7.0651 75.1562 6.91406C74.8073 6.76302 74.3646 6.60938 73.8281 6.45312C73.2656 6.28646 72.7578 6.10156 72.3047 5.89844C71.8516 5.6901 71.4635 5.45312 71.1406 5.1875C70.8177 4.92188 70.5703 4.61719 70.3984 4.27344C70.2266 3.92969 70.1406 3.53646 70.1406 3.09375C70.1406 2.65104 70.2318 2.24219 70.4141 1.86719C70.5964 1.49219 70.8568 1.16667 71.1953 0.890625C71.5391 0.609375 71.9479 0.390625 72.4219 0.234375C72.8958 0.078125 73.4245 0 74.0078 0C74.862 0 75.5859 0.164062 76.1797 0.492188C76.7786 0.815104 77.2344 1.23958 77.5469 1.76562C77.8594 2.28646 78.0156 2.84375 78.0156 3.4375H76.5156C76.5156 3.01042 76.4245 2.63281 76.2422 2.30469C76.0599 1.97135 75.7839 1.71094 75.4141 1.52344C75.0443 1.33073 74.5755 1.23438 74.0078 1.23438C73.4714 1.23438 73.0286 1.3151 72.6797 1.47656C72.3307 1.63802 72.0703 1.85677 71.8984 2.13281C71.7318 2.40885 71.6484 2.72396 71.6484 3.07812C71.6484 3.31771 71.6979 3.53646 71.7969 3.73438C71.901 3.92708 72.0599 4.10677 72.2734 4.27344C72.4922 4.4401 72.7682 4.59375 73.1016 4.73438C73.4401 4.875 73.8438 5.01042 74.3125 5.14062C74.9583 5.32292 75.5156 5.52604 75.9844 5.75C76.4531 5.97396 76.8385 6.22656 77.1406 6.50781C77.4479 6.78385 77.6745 7.09896 77.8203 7.45312C77.9714 7.80208 78.0469 8.19792 78.0469 8.64062C78.0469 9.10417 77.9531 9.52344 77.7656 9.89844C77.5781 10.2734 77.3099 10.5938 76.9609 10.8594C76.612 11.125 76.1927 11.3307 75.7031 11.4766C75.2188 11.6172 74.6771 11.6875 74.0781 11.6875C73.5521 11.6875 73.0339 11.6146 72.5234 11.4688C72.0182 11.3229 71.5573 11.1042 71.1406 10.8125C70.7292 10.5208 70.3984 10.1615 70.1484 9.73438C69.9036 9.30208 69.7812 8.80208 69.7812 8.23438H71.2812C71.2812 8.625 71.3568 8.96094 71.5078 9.24219C71.6589 9.51823 71.8646 9.7474 72.125 9.92969C72.3906 10.112 72.6901 10.2474 73.0234 10.3359C73.362 10.4193 73.7135 10.4609 74.0781 10.4609C74.6042 10.4609 75.0495 10.388 75.4141 10.2422C75.7786 10.0964 76.0547 9.88802 76.2422 9.61719C76.4349 9.34635 76.5312 9.02604 76.5312 8.65625ZM81.3203 3.07812V11.5312H79.8672V3.07812H81.3203ZM79.7578 0.835938C79.7578 0.601562 79.8281 0.403646 79.9688 0.242188C80.1146 0.0807292 80.3281 0 80.6094 0C80.8854 0 81.0964 0.0807292 81.2422 0.242188C81.3932 0.403646 81.4688 0.601562 81.4688 0.835938C81.4688 1.0599 81.3932 1.2526 81.2422 1.41406C81.0964 1.57031 80.8854 1.64844 80.6094 1.64844C80.3281 1.64844 80.1146 1.57031 79.9688 1.41406C79.8281 1.2526 79.7578 1.0599 79.7578 0.835938ZM87.1797 3.07812V4.1875H82.6094V3.07812H87.1797ZM84.1562 1.02344H85.6016V9.4375C85.6016 9.72396 85.6458 9.9401 85.7344 10.0859C85.8229 10.2318 85.9375 10.3281 86.0781 10.375C86.2188 10.4219 86.3698 10.4453 86.5312 10.4453C86.651 10.4453 86.776 10.4349 86.9062 10.4141C87.0417 10.388 87.1432 10.3672 87.2109 10.3516L87.2188 11.5312C87.1042 11.5677 86.9531 11.6016 86.7656 11.6328C86.5833 11.6693 86.362 11.6875 86.1016 11.6875C85.7474 11.6875 85.4219 11.6172 85.125 11.4766C84.8281 11.3359 84.5911 11.1016 84.4141 10.7734C84.2422 10.4401 84.1562 9.99219 84.1562 9.42969V1.02344ZM92.3828 11.6875C91.7943 11.6875 91.2604 11.5885 90.7812 11.3906C90.3073 11.1875 89.8984 10.9036 89.5547 10.5391C89.2161 10.1745 88.9557 9.74219 88.7734 9.24219C88.5911 8.74219 88.5 8.19531 88.5 7.60156V7.27344C88.5 6.58594 88.6016 5.97396 88.8047 5.4375C89.0078 4.89583 89.2839 4.4375 89.6328 4.0625C89.9818 3.6875 90.3776 3.40365 90.8203 3.21094C91.263 3.01823 91.7214 2.92188 92.1953 2.92188C92.7995 2.92188 93.3203 3.02604 93.7578 3.23438C94.2005 3.44271 94.5625 3.73438 94.8438 4.10938C95.125 4.47917 95.3333 4.91667 95.4688 5.42188C95.6042 5.92188 95.6719 6.46875 95.6719 7.0625V7.71094H89.3594V6.53125H94.2266V6.42188C94.2057 6.04688 94.1276 5.68229 93.9922 5.32812C93.862 4.97396 93.6536 4.68229 93.3672 4.45312C93.0807 4.22396 92.6901 4.10938 92.1953 4.10938C91.8672 4.10938 91.5651 4.17969 91.2891 4.32031C91.013 4.45573 90.776 4.65885 90.5781 4.92969C90.3802 5.20052 90.2266 5.53125 90.1172 5.92188C90.0078 6.3125 89.9531 6.76302 89.9531 7.27344V7.60156C89.9531 8.0026 90.0078 8.38021 90.1172 8.73438C90.2318 9.08333 90.3958 9.39062 90.6094 9.65625C90.8281 9.92188 91.0911 10.1302 91.3984 10.2812C91.7109 10.4323 92.0651 10.5078 92.4609 10.5078C92.9714 10.5078 93.4036 10.4036 93.7578 10.1953C94.112 9.98698 94.4219 9.70833 94.6875 9.35938L95.5625 10.0547C95.3802 10.3307 95.1484 10.5938 94.8672 10.8438C94.5859 11.0938 94.2396 11.2969 93.8281 11.4531C93.4219 11.6094 92.9401 11.6875 92.3828 11.6875ZM100.945 7.39844V7.21875C100.945 6.60938 101.034 6.04427 101.211 5.52344C101.388 4.9974 101.643 4.54167 101.977 4.15625C102.31 3.76562 102.714 3.46354 103.188 3.25C103.661 3.03125 104.193 2.92188 104.781 2.92188C105.375 2.92188 105.909 3.03125 106.383 3.25C106.862 3.46354 107.268 3.76562 107.602 4.15625C107.94 4.54167 108.198 4.9974 108.375 5.52344C108.552 6.04427 108.641 6.60938 108.641 7.21875V7.39844C108.641 8.00781 108.552 8.57292 108.375 9.09375C108.198 9.61458 107.94 10.0703 107.602 10.4609C107.268 10.8464 106.865 11.1484 106.391 11.3672C105.922 11.5807 105.391 11.6875 104.797 11.6875C104.203 11.6875 103.669 11.5807 103.195 11.3672C102.721 11.1484 102.315 10.8464 101.977 10.4609C101.643 10.0703 101.388 9.61458 101.211 9.09375C101.034 8.57292 100.945 8.00781 100.945 7.39844ZM102.391 7.21875V7.39844C102.391 7.82031 102.44 8.21875 102.539 8.59375C102.638 8.96354 102.786 9.29167 102.984 9.57812C103.188 9.86458 103.44 10.0911 103.742 10.2578C104.044 10.4193 104.396 10.5 104.797 10.5C105.193 10.5 105.539 10.4193 105.836 10.2578C106.138 10.0911 106.388 9.86458 106.586 9.57812C106.784 9.29167 106.932 8.96354 107.031 8.59375C107.135 8.21875 107.188 7.82031 107.188 7.39844V7.21875C107.188 6.80208 107.135 6.40885 107.031 6.03906C106.932 5.66406 106.781 5.33333 106.578 5.04688C106.38 4.75521 106.13 4.52604 105.828 4.35938C105.531 4.19271 105.182 4.10938 104.781 4.10938C104.385 4.10938 104.036 4.19271 103.734 4.35938C103.438 4.52604 103.188 4.75521 102.984 5.04688C102.786 5.33333 102.638 5.66406 102.539 6.03906C102.44 6.40885 102.391 6.80208 102.391 7.21875ZM115.625 9.57812V3.07812H117.078V11.5312H115.695L115.625 9.57812ZM115.898 7.79688L116.5 7.78125C116.5 8.34375 116.44 8.86458 116.32 9.34375C116.206 9.81771 116.018 10.2292 115.758 10.5781C115.497 10.9271 115.156 11.2005 114.734 11.3984C114.312 11.5911 113.799 11.6875 113.195 11.6875C112.784 11.6875 112.406 11.6276 112.062 11.5078C111.724 11.388 111.432 11.2031 111.188 10.9531C110.943 10.7031 110.753 10.3776 110.617 9.97656C110.487 9.57552 110.422 9.09375 110.422 8.53125V3.07812H111.867V8.54688C111.867 8.92708 111.909 9.24219 111.992 9.49219C112.081 9.73698 112.198 9.93229 112.344 10.0781C112.495 10.2188 112.661 10.3177 112.844 10.375C113.031 10.4323 113.224 10.4609 113.422 10.4609C114.036 10.4609 114.523 10.3438 114.883 10.1094C115.242 9.86979 115.5 9.54948 115.656 9.14844C115.818 8.74219 115.898 8.29167 115.898 7.79688ZM127.68 1.16406L123.914 11.5312H122.375L126.711 0.15625H127.703L127.68 1.16406ZM130.836 11.5312L127.062 1.16406L127.039 0.15625H128.031L132.383 11.5312H130.836ZM130.641 7.32031V8.55469H124.25V7.32031H130.641ZM135.133 4.70312V14.7812H133.68V3.07812H135.008L135.133 4.70312ZM140.828 7.23438V7.39844C140.828 8.01302 140.755 8.58333 140.609 9.10938C140.464 9.63021 140.25 10.0833 139.969 10.4688C139.693 10.8542 139.352 11.1536 138.945 11.3672C138.539 11.5807 138.073 11.6875 137.547 11.6875C137.01 11.6875 136.536 11.599 136.125 11.4219C135.714 11.2448 135.365 10.987 135.078 10.6484C134.792 10.3099 134.562 9.90365 134.391 9.42969C134.224 8.95573 134.109 8.42188 134.047 7.82812V6.95312C134.109 6.32812 134.227 5.76823 134.398 5.27344C134.57 4.77865 134.797 4.35677 135.078 4.00781C135.365 3.65365 135.711 3.38542 136.117 3.20312C136.523 3.01562 136.992 2.92188 137.523 2.92188C138.055 2.92188 138.526 3.02604 138.938 3.23438C139.349 3.4375 139.695 3.72917 139.977 4.10938C140.258 4.48958 140.469 4.94531 140.609 5.47656C140.755 6.0026 140.828 6.58854 140.828 7.23438ZM139.375 7.39844V7.23438C139.375 6.8125 139.331 6.41667 139.242 6.04688C139.154 5.67188 139.016 5.34375 138.828 5.0625C138.646 4.77604 138.411 4.55208 138.125 4.39062C137.839 4.22396 137.497 4.14062 137.102 4.14062C136.737 4.14062 136.419 4.20312 136.148 4.32812C135.883 4.45312 135.656 4.6224 135.469 4.83594C135.281 5.04427 135.128 5.28385 135.008 5.55469C134.893 5.82031 134.807 6.09635 134.75 6.38281V8.40625C134.854 8.77083 135 9.11458 135.188 9.4375C135.375 9.75521 135.625 10.013 135.938 10.2109C136.25 10.4036 136.643 10.5 137.117 10.5C137.508 10.5 137.844 10.4193 138.125 10.2578C138.411 10.0911 138.646 9.86458 138.828 9.57812C139.016 9.29167 139.154 8.96354 139.242 8.59375C139.331 8.21875 139.375 7.82031 139.375 7.39844ZM144.117 4.70312V14.7812H142.664V3.07812H143.992L144.117 4.70312ZM149.812 7.23438V7.39844C149.812 8.01302 149.74 8.58333 149.594 9.10938C149.448 9.63021 149.234 10.0833 148.953 10.4688C148.677 10.8542 148.336 11.1536 147.93 11.3672C147.523 11.5807 147.057 11.6875 146.531 11.6875C145.995 11.6875 145.521 11.599 145.109 11.4219C144.698 11.2448 144.349 10.987 144.062 10.6484C143.776 10.3099 143.547 9.90365 143.375 9.42969C143.208 8.95573 143.094 8.42188 143.031 7.82812V6.95312C143.094 6.32812 143.211 5.76823 143.383 5.27344C143.555 4.77865 143.781 4.35677 144.062 4.00781C144.349 3.65365 144.695 3.38542 145.102 3.20312C145.508 3.01562 145.977 2.92188 146.508 2.92188C147.039 2.92188 147.51 3.02604 147.922 3.23438C148.333 3.4375 148.68 3.72917 148.961 4.10938C149.242 4.48958 149.453 4.94531 149.594 5.47656C149.74 6.0026 149.812 6.58854 149.812 7.23438ZM148.359 7.39844V7.23438C148.359 6.8125 148.315 6.41667 148.227 6.04688C148.138 5.67188 148 5.34375 147.812 5.0625C147.63 4.77604 147.396 4.55208 147.109 4.39062C146.823 4.22396 146.482 4.14062 146.086 4.14062C145.721 4.14062 145.404 4.20312 145.133 4.32812C144.867 4.45312 144.641 4.6224 144.453 4.83594C144.266 5.04427 144.112 5.28385 143.992 5.55469C143.878 5.82031 143.792 6.09635 143.734 6.38281V8.40625C143.839 8.77083 143.984 9.11458 144.172 9.4375C144.359 9.75521 144.609 10.013 144.922 10.2109C145.234 10.4036 145.628 10.5 146.102 10.5C146.492 10.5 146.828 10.4193 147.109 10.2578C147.396 10.0911 147.63 9.86458 147.812 9.57812C148 9.29167 148.138 8.96354 148.227 8.59375C148.315 8.21875 148.359 7.82031 148.359 7.39844Z" fill="white"/>
</svg>
