<svg width="202" height="14" viewBox="0 0 202 14" fill="none" xmlns="http://www.w3.org/2000/svg">
<g clip-path="url(#clip0_605_14)">
<path d="M7.13395 12.4249L6.07295 13.4849L0.29395 7.70789C0.200796 7.61532 0.126867 7.50525 0.0764193 7.384C0.0259713 7.26275 0 7.13272 0 7.00139C0 6.87007 0.0259713 6.74004 0.0764193 6.61879C0.126867 6.49754 0.200796 6.38746 0.29395 6.29489L6.07295 0.514893L7.13295 1.57489L1.70895 6.99989L7.13395 12.4249Z" fill="#0391DF"/>
<path d="M20.0617 9.91602V6.65234C20.0617 6.40234 20.0109 6.18555 19.9093 6.00195C19.8117 5.81445 19.6632 5.66992 19.464 5.56836C19.2648 5.4668 19.0187 5.41602 18.7257 5.41602C18.4523 5.41602 18.2121 5.46289 18.005 5.55664C17.8019 5.65039 17.6418 5.77344 17.5246 5.92578C17.4113 6.07812 17.3547 6.24219 17.3547 6.41797H16.2707C16.2707 6.19141 16.3293 5.9668 16.4464 5.74414C16.5636 5.52148 16.7316 5.32031 16.9504 5.14062C17.173 4.95703 17.4386 4.8125 17.7472 4.70703C18.0597 4.59766 18.4074 4.54297 18.7902 4.54297C19.2511 4.54297 19.6574 4.62109 20.0089 4.77734C20.3644 4.93359 20.6418 5.16992 20.841 5.48633C21.0441 5.79883 21.1457 6.19141 21.1457 6.66406V9.61719C21.1457 9.82812 21.1632 10.0527 21.1984 10.291C21.2375 10.5293 21.2941 10.7344 21.3683 10.9062V11H20.2375C20.1828 10.875 20.1398 10.709 20.1086 10.502C20.0773 10.291 20.0617 10.0957 20.0617 9.91602ZM20.2492 7.15625L20.2609 7.91797H19.1652C18.8566 7.91797 18.5812 7.94336 18.339 7.99414C18.0968 8.04102 17.8937 8.11328 17.7297 8.21094C17.5656 8.30859 17.4406 8.43164 17.3547 8.58008C17.2687 8.72461 17.2257 8.89453 17.2257 9.08984C17.2257 9.28906 17.2707 9.4707 17.3605 9.63477C17.4504 9.79883 17.5851 9.92969 17.7648 10.0273C17.9484 10.1211 18.173 10.168 18.4386 10.168C18.7707 10.168 19.0636 10.0977 19.3175 9.95703C19.5714 9.81641 19.7726 9.64453 19.9211 9.44141C20.0734 9.23828 20.1554 9.04102 20.1672 8.84961L20.63 9.37109C20.6027 9.53516 20.5285 9.7168 20.4074 9.91602C20.2863 10.1152 20.1242 10.3066 19.9211 10.4902C19.7218 10.6699 19.4836 10.8203 19.2062 10.9414C18.9328 11.0586 18.6242 11.1172 18.2804 11.1172C17.8507 11.1172 17.4738 11.0332 17.1496 10.8652C16.8293 10.6973 16.5793 10.4727 16.3996 10.1914C16.2238 9.90625 16.1359 9.58789 16.1359 9.23633C16.1359 8.89648 16.2023 8.59766 16.3351 8.33984C16.4679 8.07812 16.6593 7.86133 16.9093 7.68945C17.1593 7.51367 17.4601 7.38086 17.8117 7.29102C18.1632 7.20117 18.5558 7.15625 18.9894 7.15625H20.2492ZM23.9347 5.65625V11H22.8507V4.66016H23.9054L23.9347 5.65625ZM25.9152 4.625L25.9093 5.63281C25.8195 5.61328 25.7336 5.60156 25.6515 5.59766C25.5734 5.58984 25.4836 5.58594 25.382 5.58594C25.132 5.58594 24.9113 5.625 24.7199 5.70312C24.5285 5.78125 24.3664 5.89062 24.2336 6.03125C24.1007 6.17188 23.9953 6.33984 23.9172 6.53516C23.8429 6.72656 23.7941 6.9375 23.7707 7.16797L23.466 7.34375C23.466 6.96094 23.5031 6.60156 23.5773 6.26562C23.6554 5.92969 23.7746 5.63281 23.9347 5.375C24.0949 5.11328 24.298 4.91016 24.5441 4.76562C24.7941 4.61719 25.091 4.54297 25.4347 4.54297C25.5129 4.54297 25.6027 4.55273 25.7043 4.57227C25.8058 4.58789 25.8761 4.60547 25.9152 4.625ZM28.0011 5.65625V11H26.9172V4.66016H27.9718L28.0011 5.65625ZM29.9816 4.625L29.9757 5.63281C29.8859 5.61328 29.8 5.60156 29.7179 5.59766C29.6398 5.58984 29.55 5.58594 29.4484 5.58594C29.1984 5.58594 28.9777 5.625 28.7863 5.70312C28.5949 5.78125 28.4328 5.89062 28.3 6.03125C28.1672 6.17188 28.0617 6.33984 27.9836 6.53516C27.9093 6.72656 27.8605 6.9375 27.8371 7.16797L27.5324 7.34375C27.5324 6.96094 27.5695 6.60156 27.6437 6.26562C27.7218 5.92969 27.841 5.63281 28.0011 5.375C28.1613 5.11328 28.3644 4.91016 28.6105 4.76562C28.8605 4.61719 29.1574 4.54297 29.5011 4.54297C29.5793 4.54297 29.6691 4.55273 29.7707 4.57227C29.8722 4.58789 29.9425 4.60547 29.9816 4.625ZM34.4875 9.91602V6.65234C34.4875 6.40234 34.4367 6.18555 34.3351 6.00195C34.2375 5.81445 34.089 5.66992 33.8898 5.56836C33.6906 5.4668 33.4445 5.41602 33.1515 5.41602C32.8781 5.41602 32.6379 5.46289 32.4308 5.55664C32.2277 5.65039 32.0675 5.77344 31.9504 5.92578C31.8371 6.07812 31.7804 6.24219 31.7804 6.41797H30.6964C30.6964 6.19141 30.755 5.9668 30.8722 5.74414C30.9894 5.52148 31.1574 5.32031 31.3761 5.14062C31.5988 4.95703 31.8644 4.8125 32.173 4.70703C32.4855 4.59766 32.8332 4.54297 33.216 4.54297C33.6769 4.54297 34.0832 4.62109 34.4347 4.77734C34.7902 4.93359 35.0675 5.16992 35.2668 5.48633C35.4699 5.79883 35.5714 6.19141 35.5714 6.66406V9.61719C35.5714 9.82812 35.589 10.0527 35.6242 10.291C35.6632 10.5293 35.7199 10.7344 35.7941 10.9062V11H34.6632C34.6086 10.875 34.5656 10.709 34.5343 10.502C34.5031 10.291 34.4875 10.0957 34.4875 9.91602ZM34.675 7.15625L34.6867 7.91797H33.591C33.2824 7.91797 33.007 7.94336 32.7648 7.99414C32.5226 8.04102 32.3195 8.11328 32.1554 8.21094C31.9914 8.30859 31.8664 8.43164 31.7804 8.58008C31.6945 8.72461 31.6515 8.89453 31.6515 9.08984C31.6515 9.28906 31.6964 9.4707 31.7863 9.63477C31.8761 9.79883 32.0109 9.92969 32.1906 10.0273C32.3742 10.1211 32.5988 10.168 32.8644 10.168C33.1964 10.168 33.4894 10.0977 33.7433 9.95703C33.9972 9.81641 34.1984 9.64453 34.3468 9.44141C34.4992 9.23828 34.5812 9.04102 34.5929 8.84961L35.0558 9.37109C35.0285 9.53516 34.9543 9.7168 34.8332 9.91602C34.7121 10.1152 34.55 10.3066 34.3468 10.4902C34.1476 10.6699 33.9093 10.8203 33.632 10.9414C33.3586 11.0586 33.05 11.1172 32.7062 11.1172C32.2765 11.1172 31.8996 11.0332 31.5754 10.8652C31.255 10.6973 31.005 10.4727 30.8254 10.1914C30.6496 9.90625 30.5617 9.58789 30.5617 9.23633C30.5617 8.89648 30.6281 8.59766 30.7609 8.33984C30.8937 8.07812 31.0851 7.86133 31.3351 7.68945C31.5851 7.51367 31.8859 7.38086 32.2375 7.29102C32.589 7.20117 32.9816 7.15625 33.4152 7.15625H34.675ZM40.9679 9.31836C40.9679 9.16211 40.9328 9.01758 40.8625 8.88477C40.7961 8.74805 40.6574 8.625 40.4464 8.51562C40.2394 8.40234 39.9269 8.30469 39.5089 8.22266C39.1574 8.14844 38.839 8.06055 38.5539 7.95898C38.2726 7.85742 38.0324 7.73438 37.8332 7.58984C37.6379 7.44531 37.4875 7.27539 37.382 7.08008C37.2765 6.88477 37.2238 6.65625 37.2238 6.39453C37.2238 6.14453 37.2785 5.9082 37.3879 5.68555C37.5011 5.46289 37.6593 5.26562 37.8625 5.09375C38.0695 4.92188 38.3175 4.78711 38.6066 4.68945C38.8957 4.5918 39.2179 4.54297 39.5734 4.54297C40.0812 4.54297 40.5148 4.63281 40.8742 4.8125C41.2336 4.99219 41.5089 5.23242 41.7004 5.5332C41.8918 5.83008 41.9875 6.16016 41.9875 6.52344H40.9035C40.9035 6.34766 40.8507 6.17773 40.7453 6.01367C40.6437 5.8457 40.4933 5.70703 40.2941 5.59766C40.0988 5.48828 39.8586 5.43359 39.5734 5.43359C39.2726 5.43359 39.0285 5.48047 38.841 5.57422C38.6574 5.66406 38.5226 5.7793 38.4367 5.91992C38.3547 6.06055 38.3136 6.20898 38.3136 6.36523C38.3136 6.48242 38.3332 6.58789 38.3722 6.68164C38.4152 6.77148 38.4894 6.85547 38.5949 6.93359C38.7004 7.00781 38.8488 7.07812 39.0402 7.14453C39.2316 7.21094 39.4757 7.27734 39.7726 7.34375C40.2922 7.46094 40.7199 7.60156 41.0558 7.76562C41.3918 7.92969 41.6418 8.13086 41.8058 8.36914C41.9699 8.60742 42.0519 8.89648 42.0519 9.23633C42.0519 9.51367 41.9933 9.76758 41.8761 9.99805C41.7629 10.2285 41.5968 10.4277 41.3781 10.5957C41.1632 10.7598 40.9054 10.8887 40.6047 10.9824C40.3078 11.0723 39.9738 11.1172 39.6027 11.1172C39.0441 11.1172 38.5714 11.0176 38.1847 10.8184C37.798 10.6191 37.505 10.3613 37.3058 10.0449C37.1066 9.72852 37.007 9.39453 37.007 9.04297H38.0968C38.1125 9.33984 38.1984 9.57617 38.3547 9.75195C38.5109 9.92383 38.7023 10.0469 38.9289 10.1211C39.1554 10.1914 39.38 10.2266 39.6027 10.2266C39.8996 10.2266 40.1476 10.1875 40.3468 10.1094C40.55 10.0312 40.7043 9.92383 40.8097 9.78711C40.9152 9.65039 40.9679 9.49414 40.9679 9.31836ZM46.13 4.66016V5.49219H42.7023V4.66016H46.13ZM43.8625 3.11914H44.9464V9.42969C44.9464 9.64453 44.9797 9.80664 45.0461 9.91602C45.1125 10.0254 45.1984 10.0977 45.3039 10.1328C45.4093 10.168 45.5226 10.1855 45.6437 10.1855C45.7336 10.1855 45.8273 10.1777 45.925 10.1621C46.0265 10.1426 46.1027 10.127 46.1535 10.1152L46.1593 11C46.0734 11.0273 45.9601 11.0527 45.8195 11.0762C45.6828 11.1035 45.5168 11.1172 45.3214 11.1172C45.0558 11.1172 44.8117 11.0645 44.589 10.959C44.3664 10.8535 44.1886 10.6777 44.0558 10.4316C43.9269 10.1816 43.8625 9.8457 43.8625 9.42383V3.11914ZM50.0324 11.1172C49.591 11.1172 49.1906 11.043 48.8312 10.8945C48.4757 10.7422 48.1691 10.5293 47.9113 10.2559C47.6574 9.98242 47.4621 9.6582 47.3254 9.2832C47.1886 8.9082 47.1203 8.49805 47.1203 8.05273V7.80664C47.1203 7.29102 47.1964 6.83203 47.3488 6.42969C47.5011 6.02344 47.7082 5.67969 47.9699 5.39844C48.2316 5.11719 48.5285 4.9043 48.8605 4.75977C49.1925 4.61523 49.5363 4.54297 49.8918 4.54297C50.3449 4.54297 50.7355 4.62109 51.0636 4.77734C51.3957 4.93359 51.6672 5.15234 51.8781 5.43359C52.089 5.71094 52.2453 6.03906 52.3468 6.41797C52.4484 6.79297 52.4992 7.20312 52.4992 7.64844V8.13477H47.7648V7.25H51.4152V7.16797C51.3996 6.88672 51.341 6.61328 51.2394 6.34766C51.1418 6.08203 50.9855 5.86328 50.7707 5.69141C50.5558 5.51953 50.2629 5.43359 49.8918 5.43359C49.6457 5.43359 49.4191 5.48633 49.2121 5.5918C49.005 5.69336 48.8273 5.8457 48.6789 6.04883C48.5304 6.25195 48.4152 6.5 48.3332 6.79297C48.2511 7.08594 48.2101 7.42383 48.2101 7.80664V8.05273C48.2101 8.35352 48.2511 8.63672 48.3332 8.90234C48.4191 9.16406 48.5422 9.39453 48.7023 9.59375C48.8664 9.79297 49.0636 9.94922 49.2941 10.0625C49.5285 10.1758 49.7941 10.2324 50.091 10.2324C50.4738 10.2324 50.798 10.1543 51.0636 9.99805C51.3293 9.8418 51.5617 9.63281 51.7609 9.37109L52.4172 9.89258C52.2804 10.0996 52.1066 10.2969 51.8957 10.4844C51.6847 10.6719 51.425 10.8242 51.1164 10.9414C50.8117 11.0586 50.4504 11.1172 50.0324 11.1172ZM57.8254 5.87891V13.4375H56.7355V4.66016H57.7316L57.8254 5.87891ZM62.0968 7.77734V7.90039C62.0968 8.36133 62.0422 8.78906 61.9328 9.18359C61.8234 9.57422 61.6632 9.91406 61.4523 10.2031C61.2453 10.4922 60.9894 10.7168 60.6847 10.877C60.38 11.0371 60.0304 11.1172 59.6359 11.1172C59.2336 11.1172 58.8781 11.0508 58.5695 10.918C58.2609 10.7852 57.9992 10.5918 57.7843 10.3379C57.5695 10.084 57.3976 9.7793 57.2687 9.42383C57.1437 9.06836 57.0578 8.66797 57.0109 8.22266V7.56641C57.0578 7.09766 57.1457 6.67773 57.2746 6.30664C57.4035 5.93555 57.5734 5.61914 57.7843 5.35742C57.9992 5.0918 58.2589 4.89062 58.5636 4.75391C58.8683 4.61328 59.2199 4.54297 59.6183 4.54297C60.0168 4.54297 60.3703 4.62109 60.6789 4.77734C60.9875 4.92969 61.2472 5.14844 61.4582 5.43359C61.6691 5.71875 61.8273 6.06055 61.9328 6.45898C62.0422 6.85352 62.0968 7.29297 62.0968 7.77734ZM61.007 7.90039V7.77734C61.007 7.46094 60.9738 7.16406 60.9074 6.88672C60.841 6.60547 60.7375 6.35938 60.5968 6.14844C60.4601 5.93359 60.2843 5.76562 60.0695 5.64453C59.8547 5.51953 59.5988 5.45703 59.3019 5.45703C59.0285 5.45703 58.7902 5.50391 58.5871 5.59766C58.3879 5.69141 58.2179 5.81836 58.0773 5.97852C57.9367 6.13477 57.8214 6.31445 57.7316 6.51758C57.6457 6.7168 57.5812 6.92383 57.5382 7.13867V8.65625C57.6164 8.92969 57.7257 9.1875 57.8664 9.42969C58.007 9.66797 58.1945 9.86133 58.4289 10.0098C58.6632 10.1543 58.9582 10.2266 59.3136 10.2266C59.6066 10.2266 59.8586 10.166 60.0695 10.0449C60.2843 9.91992 60.4601 9.75 60.5968 9.53516C60.7375 9.32031 60.841 9.07422 60.9074 8.79688C60.9738 8.51562 61.007 8.2168 61.007 7.90039ZM67.2179 9.91602V6.65234C67.2179 6.40234 67.1672 6.18555 67.0656 6.00195C66.9679 5.81445 66.8195 5.66992 66.6203 5.56836C66.4211 5.4668 66.175 5.41602 65.882 5.41602C65.6086 5.41602 65.3683 5.46289 65.1613 5.55664C64.9582 5.65039 64.798 5.77344 64.6808 5.92578C64.5675 6.07812 64.5109 6.24219 64.5109 6.41797H63.4269C63.4269 6.19141 63.4855 5.9668 63.6027 5.74414C63.7199 5.52148 63.8879 5.32031 64.1066 5.14062C64.3293 4.95703 64.5949 4.8125 64.9035 4.70703C65.216 4.59766 65.5636 4.54297 65.9464 4.54297C66.4074 4.54297 66.8136 4.62109 67.1652 4.77734C67.5207 4.93359 67.798 5.16992 67.9972 5.48633C68.2004 5.79883 68.3019 6.19141 68.3019 6.66406V9.61719C68.3019 9.82812 68.3195 10.0527 68.3547 10.291C68.3937 10.5293 68.4504 10.7344 68.5246 10.9062V11H67.3937C67.339 10.875 67.2961 10.709 67.2648 10.502C67.2336 10.291 67.2179 10.0957 67.2179 9.91602ZM67.4054 7.15625L67.4172 7.91797H66.3214C66.0129 7.91797 65.7375 7.94336 65.4953 7.99414C65.2531 8.04102 65.05 8.11328 64.8859 8.21094C64.7218 8.30859 64.5968 8.43164 64.5109 8.58008C64.425 8.72461 64.382 8.89453 64.382 9.08984C64.382 9.28906 64.4269 9.4707 64.5168 9.63477C64.6066 9.79883 64.7414 9.92969 64.9211 10.0273C65.1047 10.1211 65.3293 10.168 65.5949 10.168C65.9269 10.168 66.2199 10.0977 66.4738 9.95703C66.7277 9.81641 66.9289 9.64453 67.0773 9.44141C67.2297 9.23828 67.3117 9.04102 67.3234 8.84961L67.7863 9.37109C67.7589 9.53516 67.6847 9.7168 67.5636 9.91602C67.4425 10.1152 67.2804 10.3066 67.0773 10.4902C66.8781 10.6699 66.6398 10.8203 66.3625 10.9414C66.089 11.0586 65.7804 11.1172 65.4367 11.1172C65.007 11.1172 64.63 11.0332 64.3058 10.8652C63.9855 10.6973 63.7355 10.4727 63.5558 10.1914C63.38 9.90625 63.2922 9.58789 63.2922 9.23633C63.2922 8.89648 63.3586 8.59766 63.4914 8.33984C63.6242 8.07812 63.8156 7.86133 64.0656 7.68945C64.3156 7.51367 64.6164 7.38086 64.9679 7.29102C65.3195 7.20117 65.7121 7.15625 66.1457 7.15625H67.4054ZM71.091 5.65625V11H70.007V4.66016H71.0617L71.091 5.65625ZM73.0714 4.625L73.0656 5.63281C72.9757 5.61328 72.8898 5.60156 72.8078 5.59766C72.7297 5.58984 72.6398 5.58594 72.5382 5.58594C72.2882 5.58594 72.0675 5.625 71.8761 5.70312C71.6847 5.78125 71.5226 5.89062 71.3898 6.03125C71.257 6.17188 71.1515 6.33984 71.0734 6.53516C70.9992 6.72656 70.9504 6.9375 70.9269 7.16797L70.6222 7.34375C70.6222 6.96094 70.6593 6.60156 70.7336 6.26562C70.8117 5.92969 70.9308 5.63281 71.091 5.375C71.2511 5.11328 71.4543 4.91016 71.7004 4.76562C71.9504 4.61719 72.2472 4.54297 72.591 4.54297C72.6691 4.54297 72.7589 4.55273 72.8605 4.57227C72.9621 4.58789 73.0324 4.60547 73.0714 4.625ZM77.5773 9.91602V6.65234C77.5773 6.40234 77.5265 6.18555 77.425 6.00195C77.3273 5.81445 77.1789 5.66992 76.9797 5.56836C76.7804 5.4668 76.5343 5.41602 76.2414 5.41602C75.9679 5.41602 75.7277 5.46289 75.5207 5.55664C75.3175 5.65039 75.1574 5.77344 75.0402 5.92578C74.9269 6.07812 74.8703 6.24219 74.8703 6.41797H73.7863C73.7863 6.19141 73.8449 5.9668 73.9621 5.74414C74.0793 5.52148 74.2472 5.32031 74.466 5.14062C74.6886 4.95703 74.9543 4.8125 75.2629 4.70703C75.5754 4.59766 75.923 4.54297 76.3058 4.54297C76.7668 4.54297 77.173 4.62109 77.5246 4.77734C77.88 4.93359 78.1574 5.16992 78.3566 5.48633C78.5597 5.79883 78.6613 6.19141 78.6613 6.66406V9.61719C78.6613 9.82812 78.6789 10.0527 78.714 10.291C78.7531 10.5293 78.8097 10.7344 78.8839 10.9062V11H77.7531C77.6984 10.875 77.6554 10.709 77.6242 10.502C77.5929 10.291 77.5773 10.0957 77.5773 9.91602ZM77.7648 7.15625L77.7765 7.91797H76.6808C76.3722 7.91797 76.0968 7.94336 75.8547 7.99414C75.6125 8.04102 75.4093 8.11328 75.2453 8.21094C75.0812 8.30859 74.9562 8.43164 74.8703 8.58008C74.7843 8.72461 74.7414 8.89453 74.7414 9.08984C74.7414 9.28906 74.7863 9.4707 74.8761 9.63477C74.966 9.79883 75.1007 9.92969 75.2804 10.0273C75.464 10.1211 75.6886 10.168 75.9543 10.168C76.2863 10.168 76.5793 10.0977 76.8332 9.95703C77.0871 9.81641 77.2882 9.64453 77.4367 9.44141C77.589 9.23828 77.6711 9.04102 77.6828 8.84961L78.1457 9.37109C78.1183 9.53516 78.0441 9.7168 77.923 9.91602C77.8019 10.1152 77.6398 10.3066 77.4367 10.4902C77.2375 10.6699 76.9992 10.8203 76.7218 10.9414C76.4484 11.0586 76.1398 11.1172 75.7961 11.1172C75.3664 11.1172 74.9894 11.0332 74.6652 10.8652C74.3449 10.6973 74.0949 10.4727 73.9152 10.1914C73.7394 9.90625 73.6515 9.58789 73.6515 9.23633C73.6515 8.89648 73.7179 8.59766 73.8507 8.33984C73.9836 8.07812 74.175 7.86133 74.425 7.68945C74.675 7.51367 74.9757 7.38086 75.3273 7.29102C75.6789 7.20117 76.0714 7.15625 76.505 7.15625H77.7648ZM83.0558 7.90039V7.76562C83.0558 7.30859 83.1222 6.88477 83.255 6.49414C83.3879 6.09961 83.5793 5.75781 83.8293 5.46875C84.0793 5.17578 84.382 4.94922 84.7375 4.78906C85.0929 4.625 85.4914 4.54297 85.9328 4.54297C86.3781 4.54297 86.7785 4.625 87.1339 4.78906C87.4933 4.94922 87.798 5.17578 88.048 5.46875C88.3019 5.75781 88.4953 6.09961 88.6281 6.49414C88.7609 6.88477 88.8273 7.30859 88.8273 7.76562V7.90039C88.8273 8.35742 88.7609 8.78125 88.6281 9.17188C88.4953 9.5625 88.3019 9.9043 88.048 10.1973C87.798 10.4863 87.4953 10.7129 87.1398 10.877C86.7882 11.0371 86.3898 11.1172 85.9445 11.1172C85.4992 11.1172 85.0988 11.0371 84.7433 10.877C84.3879 10.7129 84.0832 10.4863 83.8293 10.1973C83.5793 9.9043 83.3879 9.5625 83.255 9.17188C83.1222 8.78125 83.0558 8.35742 83.0558 7.90039ZM84.1398 7.76562V7.90039C84.1398 8.2168 84.1769 8.51562 84.2511 8.79688C84.3254 9.07422 84.4367 9.32031 84.5851 9.53516C84.7375 9.75 84.9269 9.91992 85.1535 10.0449C85.38 10.166 85.6437 10.2266 85.9445 10.2266C86.2414 10.2266 86.5011 10.166 86.7238 10.0449C86.9504 9.91992 87.1379 9.75 87.2863 9.53516C87.4347 9.32031 87.5461 9.07422 87.6203 8.79688C87.6984 8.51562 87.7375 8.2168 87.7375 7.90039V7.76562C87.7375 7.45312 87.6984 7.1582 87.6203 6.88086C87.5461 6.59961 87.4328 6.35156 87.2804 6.13672C87.132 5.91797 86.9445 5.74609 86.7179 5.62109C86.4953 5.49609 86.2336 5.43359 85.9328 5.43359C85.6359 5.43359 85.3742 5.49609 85.1476 5.62109C84.925 5.74609 84.7375 5.91797 84.5851 6.13672C84.4367 6.35156 84.3254 6.59961 84.2511 6.88086C84.1769 7.1582 84.1398 7.45312 84.1398 7.76562ZM94.341 2V11H93.2511V2H94.341ZM99.8195 9.91602V6.65234C99.8195 6.40234 99.7687 6.18555 99.6672 6.00195C99.5695 5.81445 99.4211 5.66992 99.2218 5.56836C99.0226 5.4668 98.7765 5.41602 98.4836 5.41602C98.2101 5.41602 97.9699 5.46289 97.7629 5.55664C97.5597 5.65039 97.3996 5.77344 97.2824 5.92578C97.1691 6.07812 97.1125 6.24219 97.1125 6.41797H96.0285C96.0285 6.19141 96.0871 5.9668 96.2043 5.74414C96.3214 5.52148 96.4894 5.32031 96.7082 5.14062C96.9308 4.95703 97.1964 4.8125 97.505 4.70703C97.8175 4.59766 98.1652 4.54297 98.548 4.54297C99.0089 4.54297 99.4152 4.62109 99.7668 4.77734C100.122 4.93359 100.4 5.16992 100.599 5.48633C100.802 5.79883 100.903 6.19141 100.903 6.66406V9.61719C100.903 9.82812 100.921 10.0527 100.956 10.291C100.995 10.5293 101.052 10.7344 101.126 10.9062V11H99.9953C99.9406 10.875 99.8976 10.709 99.8664 10.502C99.8351 10.291 99.8195 10.0957 99.8195 9.91602ZM100.007 7.15625L100.019 7.91797H98.923C98.6144 7.91797 98.339 7.94336 98.0968 7.99414C97.8547 8.04102 97.6515 8.11328 97.4875 8.21094C97.3234 8.30859 97.1984 8.43164 97.1125 8.58008C97.0265 8.72461 96.9836 8.89453 96.9836 9.08984C96.9836 9.28906 97.0285 9.4707 97.1183 9.63477C97.2082 9.79883 97.3429 9.92969 97.5226 10.0273C97.7062 10.1211 97.9308 10.168 98.1964 10.168C98.5285 10.168 98.8214 10.0977 99.0754 9.95703C99.3293 9.81641 99.5304 9.64453 99.6789 9.44141C99.8312 9.23828 99.9132 9.04102 99.925 8.84961L100.388 9.37109C100.361 9.53516 100.286 9.7168 100.165 9.91602C100.044 10.1152 99.882 10.3066 99.6789 10.4902C99.4797 10.6699 99.2414 10.8203 98.964 10.9414C98.6906 11.0586 98.382 11.1172 98.0382 11.1172C97.6086 11.1172 97.2316 11.0332 96.9074 10.8652C96.5871 10.6973 96.3371 10.4727 96.1574 10.1914C95.9816 9.90625 95.8937 9.58789 95.8937 9.23633C95.8937 8.89648 95.9601 8.59766 96.0929 8.33984C96.2257 8.07812 96.4172 7.86133 96.6672 7.68945C96.9172 7.51367 97.2179 7.38086 97.5695 7.29102C97.9211 7.20117 98.3136 7.15625 98.7472 7.15625H100.007ZM106.605 9.76953V2H107.694V11H106.698L106.605 9.76953ZM102.339 7.90039V7.77734C102.339 7.29297 102.398 6.85352 102.515 6.45898C102.636 6.06055 102.806 5.71875 103.025 5.43359C103.247 5.14844 103.511 4.92969 103.816 4.77734C104.124 4.62109 104.468 4.54297 104.847 4.54297C105.245 4.54297 105.593 4.61328 105.89 4.75391C106.191 4.89062 106.444 5.0918 106.652 5.35742C106.862 5.61914 107.028 5.93555 107.15 6.30664C107.271 6.67773 107.355 7.09766 107.402 7.56641V8.10547C107.359 8.57031 107.275 8.98828 107.15 9.35938C107.028 9.73047 106.862 10.0469 106.652 10.3086C106.444 10.5703 106.191 10.7715 105.89 10.9121C105.589 11.0488 105.237 11.1172 104.835 11.1172C104.464 11.1172 104.124 11.0371 103.816 10.877C103.511 10.7168 103.247 10.4922 103.025 10.2031C102.806 9.91406 102.636 9.57422 102.515 9.18359C102.398 8.78906 102.339 8.36133 102.339 7.90039ZM103.429 7.77734V7.90039C103.429 8.2168 103.46 8.51367 103.523 8.79102C103.589 9.06836 103.691 9.3125 103.827 9.52344C103.964 9.73438 104.138 9.90039 104.349 10.0215C104.56 10.1387 104.812 10.1973 105.105 10.1973C105.464 10.1973 105.759 10.1211 105.989 9.96875C106.224 9.81641 106.411 9.61523 106.552 9.36523C106.693 9.11523 106.802 8.84375 106.88 8.55078V7.13867C106.833 6.92383 106.765 6.7168 106.675 6.51758C106.589 6.31445 106.476 6.13477 106.335 5.97852C106.198 5.81836 106.028 5.69141 105.825 5.59766C105.626 5.50391 105.39 5.45703 105.116 5.45703C104.819 5.45703 104.564 5.51953 104.349 5.64453C104.138 5.76562 103.964 5.93359 103.827 6.14844C103.691 6.35938 103.589 6.60547 103.523 6.88672C103.46 7.16406 103.429 7.46094 103.429 7.77734ZM109.095 7.90039V7.76562C109.095 7.30859 109.161 6.88477 109.294 6.49414C109.427 6.09961 109.618 5.75781 109.868 5.46875C110.118 5.17578 110.421 4.94922 110.777 4.78906C111.132 4.625 111.53 4.54297 111.972 4.54297C112.417 4.54297 112.818 4.625 113.173 4.78906C113.532 4.94922 113.837 5.17578 114.087 5.46875C114.341 5.75781 114.534 6.09961 114.667 6.49414C114.8 6.88477 114.866 7.30859 114.866 7.76562V7.90039C114.866 8.35742 114.8 8.78125 114.667 9.17188C114.534 9.5625 114.341 9.9043 114.087 10.1973C113.837 10.4863 113.534 10.7129 113.179 10.877C112.827 11.0371 112.429 11.1172 111.984 11.1172C111.538 11.1172 111.138 11.0371 110.782 10.877C110.427 10.7129 110.122 10.4863 109.868 10.1973C109.618 9.9043 109.427 9.5625 109.294 9.17188C109.161 8.78125 109.095 8.35742 109.095 7.90039ZM110.179 7.76562V7.90039C110.179 8.2168 110.216 8.51562 110.29 8.79688C110.364 9.07422 110.476 9.32031 110.624 9.53516C110.777 9.75 110.966 9.91992 111.193 10.0449C111.419 10.166 111.683 10.2266 111.984 10.2266C112.28 10.2266 112.54 10.166 112.763 10.0449C112.989 9.91992 113.177 9.75 113.325 9.53516C113.474 9.32031 113.585 9.07422 113.659 8.79688C113.737 8.51562 113.777 8.2168 113.777 7.90039V7.76562C113.777 7.45312 113.737 7.1582 113.659 6.88086C113.585 6.59961 113.472 6.35156 113.319 6.13672C113.171 5.91797 112.984 5.74609 112.757 5.62109C112.534 5.49609 112.273 5.43359 111.972 5.43359C111.675 5.43359 111.413 5.49609 111.187 5.62109C110.964 5.74609 110.777 5.91797 110.624 6.13672C110.476 6.35156 110.364 6.59961 110.29 6.88086C110.216 7.1582 110.179 7.45312 110.179 7.76562ZM121.833 11.1172C121.392 11.1172 120.991 11.043 120.632 10.8945C120.277 10.7422 119.97 10.5293 119.712 10.2559C119.458 9.98242 119.263 9.6582 119.126 9.2832C118.989 8.9082 118.921 8.49805 118.921 8.05273V7.80664C118.921 7.29102 118.997 6.83203 119.15 6.42969C119.302 6.02344 119.509 5.67969 119.771 5.39844C120.032 5.11719 120.329 4.9043 120.661 4.75977C120.993 4.61523 121.337 4.54297 121.693 4.54297C122.146 4.54297 122.536 4.62109 122.864 4.77734C123.196 4.93359 123.468 5.15234 123.679 5.43359C123.89 5.71094 124.046 6.03906 124.148 6.41797C124.249 6.79297 124.3 7.20312 124.3 7.64844V8.13477H119.566V7.25H123.216V7.16797C123.2 6.88672 123.142 6.61328 123.04 6.34766C122.943 6.08203 122.786 5.86328 122.571 5.69141C122.357 5.51953 122.064 5.43359 121.693 5.43359C121.446 5.43359 121.22 5.48633 121.013 5.5918C120.806 5.69336 120.628 5.8457 120.48 6.04883C120.331 6.25195 120.216 6.5 120.134 6.79297C120.052 7.08594 120.011 7.42383 120.011 7.80664V8.05273C120.011 8.35352 120.052 8.63672 120.134 8.90234C120.22 9.16406 120.343 9.39453 120.503 9.59375C120.667 9.79297 120.864 9.94922 121.095 10.0625C121.329 10.1758 121.595 10.2324 121.892 10.2324C122.275 10.2324 122.599 10.1543 122.864 9.99805C123.13 9.8418 123.362 9.63281 123.562 9.37109L124.218 9.89258C124.081 10.0996 123.907 10.2969 123.696 10.4844C123.486 10.6719 123.226 10.8242 122.917 10.9414C122.612 11.0586 122.251 11.1172 121.833 11.1172ZM132.234 9.31836C132.234 9.16211 132.198 9.01758 132.128 8.88477C132.062 8.74805 131.923 8.625 131.712 8.51562C131.505 8.40234 131.193 8.30469 130.775 8.22266C130.423 8.14844 130.105 8.06055 129.819 7.95898C129.538 7.85742 129.298 7.73438 129.099 7.58984C128.903 7.44531 128.753 7.27539 128.648 7.08008C128.542 6.88477 128.489 6.65625 128.489 6.39453C128.489 6.14453 128.544 5.9082 128.653 5.68555C128.767 5.46289 128.925 5.26562 129.128 5.09375C129.335 4.92188 129.583 4.78711 129.872 4.68945C130.161 4.5918 130.484 4.54297 130.839 4.54297C131.347 4.54297 131.78 4.63281 132.14 4.8125C132.499 4.99219 132.775 5.23242 132.966 5.5332C133.157 5.83008 133.253 6.16016 133.253 6.52344H132.169C132.169 6.34766 132.116 6.17773 132.011 6.01367C131.909 5.8457 131.759 5.70703 131.56 5.59766C131.364 5.48828 131.124 5.43359 130.839 5.43359C130.538 5.43359 130.294 5.48047 130.107 5.57422C129.923 5.66406 129.788 5.7793 129.702 5.91992C129.62 6.06055 129.579 6.20898 129.579 6.36523C129.579 6.48242 129.599 6.58789 129.638 6.68164C129.681 6.77148 129.755 6.85547 129.861 6.93359C129.966 7.00781 130.114 7.07812 130.306 7.14453C130.497 7.21094 130.741 7.27734 131.038 7.34375C131.558 7.46094 131.986 7.60156 132.321 7.76562C132.657 7.92969 132.907 8.13086 133.071 8.36914C133.236 8.60742 133.318 8.89648 133.318 9.23633C133.318 9.51367 133.259 9.76758 133.142 9.99805C133.028 10.2285 132.862 10.4277 132.644 10.5957C132.429 10.7598 132.171 10.8887 131.87 10.9824C131.573 11.0723 131.239 11.1172 130.868 11.1172C130.31 11.1172 129.837 11.0176 129.45 10.8184C129.064 10.6191 128.771 10.3613 128.571 10.0449C128.372 9.72852 128.273 9.39453 128.273 9.04297H129.362C129.378 9.33984 129.464 9.57617 129.62 9.75195C129.777 9.92383 129.968 10.0469 130.194 10.1211C130.421 10.1914 130.646 10.2266 130.868 10.2266C131.165 10.2266 131.413 10.1875 131.612 10.1094C131.816 10.0312 131.97 9.92383 132.075 9.78711C132.181 9.65039 132.234 9.49414 132.234 9.31836ZM138.48 9.91602V6.65234C138.48 6.40234 138.429 6.18555 138.327 6.00195C138.23 5.81445 138.081 5.66992 137.882 5.56836C137.683 5.4668 137.437 5.41602 137.144 5.41602C136.87 5.41602 136.63 5.46289 136.423 5.55664C136.22 5.65039 136.06 5.77344 135.943 5.92578C135.829 6.07812 135.773 6.24219 135.773 6.41797H134.689C134.689 6.19141 134.747 5.9668 134.864 5.74414C134.982 5.52148 135.15 5.32031 135.368 5.14062C135.591 4.95703 135.857 4.8125 136.165 4.70703C136.478 4.59766 136.825 4.54297 137.208 4.54297C137.669 4.54297 138.075 4.62109 138.427 4.77734C138.782 4.93359 139.06 5.16992 139.259 5.48633C139.462 5.79883 139.564 6.19141 139.564 6.66406V9.61719C139.564 9.82812 139.581 10.0527 139.616 10.291C139.655 10.5293 139.712 10.7344 139.786 10.9062V11H138.655C138.601 10.875 138.558 10.709 138.527 10.502C138.495 10.291 138.48 10.0957 138.48 9.91602ZM138.667 7.15625L138.679 7.91797H137.583C137.275 7.91797 136.999 7.94336 136.757 7.99414C136.515 8.04102 136.312 8.11328 136.148 8.21094C135.984 8.30859 135.859 8.43164 135.773 8.58008C135.687 8.72461 135.644 8.89453 135.644 9.08984C135.644 9.28906 135.689 9.4707 135.778 9.63477C135.868 9.79883 136.003 9.92969 136.183 10.0273C136.366 10.1211 136.591 10.168 136.857 10.168C137.189 10.168 137.482 10.0977 137.736 9.95703C137.989 9.81641 138.191 9.64453 138.339 9.44141C138.491 9.23828 138.573 9.04102 138.585 8.84961L139.048 9.37109C139.021 9.53516 138.946 9.7168 138.825 9.91602C138.704 10.1152 138.542 10.3066 138.339 10.4902C138.14 10.6699 137.902 10.8203 137.624 10.9414C137.351 11.0586 137.042 11.1172 136.698 11.1172C136.269 11.1172 135.892 11.0332 135.568 10.8652C135.247 10.6973 134.997 10.4727 134.818 10.1914C134.642 9.90625 134.554 9.58789 134.554 9.23633C134.554 8.89648 134.62 8.59766 134.753 8.33984C134.886 8.07812 135.077 7.86133 135.327 7.68945C135.577 7.51367 135.878 7.38086 136.23 7.29102C136.581 7.20117 136.974 7.15625 137.407 7.15625H138.667ZM142.446 4.66016V11H141.357V4.66016H142.446ZM141.275 2.97852C141.275 2.80273 141.327 2.6543 141.433 2.5332C141.542 2.41211 141.702 2.35156 141.913 2.35156C142.12 2.35156 142.278 2.41211 142.388 2.5332C142.501 2.6543 142.558 2.80273 142.558 2.97852C142.558 3.14648 142.501 3.29102 142.388 3.41211C142.278 3.5293 142.12 3.58789 141.913 3.58789C141.702 3.58789 141.542 3.5293 141.433 3.41211C141.327 3.29102 141.275 3.14648 141.275 2.97852ZM144.181 2H145.271V9.76953L145.177 11H144.181V2ZM149.554 7.77734V7.90039C149.554 8.36133 149.499 8.78906 149.39 9.18359C149.28 9.57422 149.12 9.91406 148.909 10.2031C148.698 10.4922 148.441 10.7168 148.136 10.877C147.831 11.0371 147.482 11.1172 147.087 11.1172C146.685 11.1172 146.331 11.0488 146.027 10.9121C145.726 10.7715 145.472 10.5703 145.265 10.3086C145.058 10.0469 144.892 9.73047 144.767 9.35938C144.646 8.98828 144.562 8.57031 144.515 8.10547V7.56641C144.562 7.09766 144.646 6.67773 144.767 6.30664C144.892 5.93555 145.058 5.61914 145.265 5.35742C145.472 5.0918 145.726 4.89062 146.027 4.75391C146.327 4.61328 146.677 4.54297 147.075 4.54297C147.474 4.54297 147.827 4.62109 148.136 4.77734C148.444 4.92969 148.702 5.14844 148.909 5.43359C149.12 5.71875 149.28 6.06055 149.39 6.45898C149.499 6.85352 149.554 7.29297 149.554 7.77734ZM148.464 7.90039V7.77734C148.464 7.46094 148.435 7.16406 148.376 6.88672C148.318 6.60547 148.224 6.35938 148.095 6.14844C147.966 5.93359 147.796 5.76562 147.585 5.64453C147.374 5.51953 147.114 5.45703 146.806 5.45703C146.532 5.45703 146.294 5.50391 146.091 5.59766C145.892 5.69141 145.722 5.81836 145.581 5.97852C145.441 6.13477 145.325 6.31445 145.236 6.51758C145.15 6.7168 145.085 6.92383 145.042 7.13867V8.55078C145.105 8.82422 145.206 9.08789 145.347 9.3418C145.491 9.5918 145.683 9.79688 145.921 9.95703C146.163 10.1172 146.462 10.1973 146.818 10.1973C147.111 10.1973 147.361 10.1387 147.568 10.0215C147.778 9.90039 147.948 9.73438 148.077 9.52344C148.21 9.3125 148.308 9.06836 148.37 8.79102C148.433 8.51367 148.464 8.2168 148.464 7.90039ZM154.663 9.91602V6.65234C154.663 6.40234 154.612 6.18555 154.511 6.00195C154.413 5.81445 154.265 5.66992 154.066 5.56836C153.866 5.4668 153.62 5.41602 153.327 5.41602C153.054 5.41602 152.814 5.46289 152.607 5.55664C152.403 5.65039 152.243 5.77344 152.126 5.92578C152.013 6.07812 151.956 6.24219 151.956 6.41797H150.872C150.872 6.19141 150.931 5.9668 151.048 5.74414C151.165 5.52148 151.333 5.32031 151.552 5.14062C151.775 4.95703 152.04 4.8125 152.349 4.70703C152.661 4.59766 153.009 4.54297 153.392 4.54297C153.853 4.54297 154.259 4.62109 154.611 4.77734C154.966 4.93359 155.243 5.16992 155.443 5.48633C155.646 5.79883 155.747 6.19141 155.747 6.66406V9.61719C155.747 9.82812 155.765 10.0527 155.8 10.291C155.839 10.5293 155.896 10.7344 155.97 10.9062V11H154.839C154.784 10.875 154.741 10.709 154.71 10.502C154.679 10.291 154.663 10.0957 154.663 9.91602ZM154.851 7.15625L154.862 7.91797H153.767C153.458 7.91797 153.183 7.94336 152.941 7.99414C152.698 8.04102 152.495 8.11328 152.331 8.21094C152.167 8.30859 152.042 8.43164 151.956 8.58008C151.87 8.72461 151.827 8.89453 151.827 9.08984C151.827 9.28906 151.872 9.4707 151.962 9.63477C152.052 9.79883 152.187 9.92969 152.366 10.0273C152.55 10.1211 152.775 10.168 153.04 10.168C153.372 10.168 153.665 10.0977 153.919 9.95703C154.173 9.81641 154.374 9.64453 154.523 9.44141C154.675 9.23828 154.757 9.04102 154.769 8.84961L155.232 9.37109C155.204 9.53516 155.13 9.7168 155.009 9.91602C154.888 10.1152 154.726 10.3066 154.523 10.4902C154.323 10.6699 154.085 10.8203 153.808 10.9414C153.534 11.0586 153.226 11.1172 152.882 11.1172C152.452 11.1172 152.075 11.0332 151.751 10.8652C151.431 10.6973 151.181 10.4727 151.001 10.1914C150.825 9.90625 150.737 9.58789 150.737 9.23633C150.737 8.89648 150.804 8.59766 150.937 8.33984C151.069 8.07812 151.261 7.86133 151.511 7.68945C151.761 7.51367 152.062 7.38086 152.413 7.29102C152.765 7.20117 153.157 7.15625 153.591 7.15625H154.851ZM161.507 5.91992V11H160.417V4.66016H161.448L161.507 5.91992ZM161.284 7.58984L160.78 7.57227C160.784 7.13867 160.841 6.73828 160.95 6.37109C161.06 6 161.222 5.67773 161.437 5.4043C161.652 5.13086 161.919 4.91992 162.239 4.77148C162.56 4.61914 162.931 4.54297 163.353 4.54297C163.65 4.54297 163.923 4.58594 164.173 4.67188C164.423 4.75391 164.64 4.88477 164.823 5.06445C165.007 5.24414 165.15 5.47461 165.251 5.75586C165.353 6.03711 165.403 6.37695 165.403 6.77539V11H164.319V6.82812C164.319 6.49609 164.263 6.23047 164.15 6.03125C164.04 5.83203 163.884 5.6875 163.681 5.59766C163.478 5.50391 163.239 5.45703 162.966 5.45703C162.646 5.45703 162.378 5.51367 162.163 5.62695C161.948 5.74023 161.777 5.89648 161.648 6.0957C161.519 6.29492 161.425 6.52344 161.366 6.78125C161.312 7.03516 161.284 7.30469 161.284 7.58984ZM165.392 6.99219L164.665 7.21484C164.669 6.86719 164.726 6.5332 164.835 6.21289C164.948 5.89258 165.111 5.60742 165.321 5.35742C165.536 5.10742 165.8 4.91016 166.112 4.76562C166.425 4.61719 166.782 4.54297 167.185 4.54297C167.525 4.54297 167.825 4.58789 168.087 4.67773C168.353 4.76758 168.575 4.90625 168.755 5.09375C168.939 5.27734 169.077 5.51367 169.171 5.80273C169.265 6.0918 169.312 6.43555 169.312 6.83398V11H168.222V6.82227C168.222 6.4668 168.165 6.19141 168.052 5.99609C167.943 5.79688 167.786 5.6582 167.583 5.58008C167.384 5.49805 167.146 5.45703 166.868 5.45703C166.63 5.45703 166.419 5.49805 166.236 5.58008C166.052 5.66211 165.898 5.77539 165.773 5.91992C165.648 6.06055 165.552 6.22266 165.486 6.40625C165.423 6.58984 165.392 6.78516 165.392 6.99219ZM174.691 9.91602V6.65234C174.691 6.40234 174.64 6.18555 174.538 6.00195C174.441 5.81445 174.292 5.66992 174.093 5.56836C173.894 5.4668 173.648 5.41602 173.355 5.41602C173.081 5.41602 172.841 5.46289 172.634 5.55664C172.431 5.65039 172.271 5.77344 172.153 5.92578C172.04 6.07812 171.984 6.24219 171.984 6.41797H170.9C170.9 6.19141 170.958 5.9668 171.075 5.74414C171.193 5.52148 171.361 5.32031 171.579 5.14062C171.802 4.95703 172.068 4.8125 172.376 4.70703C172.689 4.59766 173.036 4.54297 173.419 4.54297C173.88 4.54297 174.286 4.62109 174.638 4.77734C174.993 4.93359 175.271 5.16992 175.47 5.48633C175.673 5.79883 175.775 6.19141 175.775 6.66406V9.61719C175.775 9.82812 175.792 10.0527 175.827 10.291C175.866 10.5293 175.923 10.7344 175.997 10.9062V11H174.866C174.812 10.875 174.769 10.709 174.737 10.502C174.706 10.291 174.691 10.0957 174.691 9.91602ZM174.878 7.15625L174.89 7.91797H173.794C173.486 7.91797 173.21 7.94336 172.968 7.99414C172.726 8.04102 172.523 8.11328 172.359 8.21094C172.194 8.30859 172.069 8.43164 171.984 8.58008C171.898 8.72461 171.855 8.89453 171.855 9.08984C171.855 9.28906 171.9 9.4707 171.989 9.63477C172.079 9.79883 172.214 9.92969 172.394 10.0273C172.577 10.1211 172.802 10.168 173.068 10.168C173.4 10.168 173.693 10.0977 173.946 9.95703C174.2 9.81641 174.402 9.64453 174.55 9.44141C174.702 9.23828 174.784 9.04102 174.796 8.84961L175.259 9.37109C175.232 9.53516 175.157 9.7168 175.036 9.91602C174.915 10.1152 174.753 10.3066 174.55 10.4902C174.351 10.6699 174.112 10.8203 173.835 10.9414C173.562 11.0586 173.253 11.1172 172.909 11.1172C172.48 11.1172 172.103 11.0332 171.778 10.8652C171.458 10.6973 171.208 10.4727 171.028 10.1914C170.853 9.90625 170.765 9.58789 170.765 9.23633C170.765 8.89648 170.831 8.59766 170.964 8.33984C171.097 8.07812 171.288 7.86133 171.538 7.68945C171.788 7.51367 172.089 7.38086 172.441 7.29102C172.792 7.20117 173.185 7.15625 173.618 7.15625H174.878ZM178.657 4.66016V11H177.568V4.66016H178.657ZM177.486 2.97852C177.486 2.80273 177.538 2.6543 177.644 2.5332C177.753 2.41211 177.913 2.35156 178.124 2.35156C178.331 2.35156 178.489 2.41211 178.599 2.5332C178.712 2.6543 178.769 2.80273 178.769 2.97852C178.769 3.14648 178.712 3.29102 178.599 3.41211C178.489 3.5293 178.331 3.58789 178.124 3.58789C177.913 3.58789 177.753 3.5293 177.644 3.41211C177.538 3.29102 177.486 3.14648 177.486 2.97852ZM184.089 9.31836C184.089 9.16211 184.054 9.01758 183.984 8.88477C183.917 8.74805 183.778 8.625 183.568 8.51562C183.361 8.40234 183.048 8.30469 182.63 8.22266C182.278 8.14844 181.96 8.06055 181.675 7.95898C181.394 7.85742 181.153 7.73438 180.954 7.58984C180.759 7.44531 180.609 7.27539 180.503 7.08008C180.398 6.88477 180.345 6.65625 180.345 6.39453C180.345 6.14453 180.4 5.9082 180.509 5.68555C180.622 5.46289 180.78 5.26562 180.984 5.09375C181.191 4.92188 181.439 4.78711 181.728 4.68945C182.017 4.5918 182.339 4.54297 182.694 4.54297C183.202 4.54297 183.636 4.63281 183.995 4.8125C184.355 4.99219 184.63 5.23242 184.821 5.5332C185.013 5.83008 185.109 6.16016 185.109 6.52344H184.025C184.025 6.34766 183.972 6.17773 183.866 6.01367C183.765 5.8457 183.614 5.70703 183.415 5.59766C183.22 5.48828 182.98 5.43359 182.694 5.43359C182.394 5.43359 182.15 5.48047 181.962 5.57422C181.778 5.66406 181.644 5.7793 181.558 5.91992C181.476 6.06055 181.435 6.20898 181.435 6.36523C181.435 6.48242 181.454 6.58789 181.493 6.68164C181.536 6.77148 181.611 6.85547 181.716 6.93359C181.821 7.00781 181.97 7.07812 182.161 7.14453C182.353 7.21094 182.597 7.27734 182.894 7.34375C183.413 7.46094 183.841 7.60156 184.177 7.76562C184.513 7.92969 184.763 8.13086 184.927 8.36914C185.091 8.60742 185.173 8.89648 185.173 9.23633C185.173 9.51367 185.114 9.76758 184.997 9.99805C184.884 10.2285 184.718 10.4277 184.499 10.5957C184.284 10.7598 184.027 10.8887 183.726 10.9824C183.429 11.0723 183.095 11.1172 182.724 11.1172C182.165 11.1172 181.693 11.0176 181.306 10.8184C180.919 10.6191 180.626 10.3613 180.427 10.0449C180.228 9.72852 180.128 9.39453 180.128 9.04297H181.218C181.234 9.33984 181.319 9.57617 181.476 9.75195C181.632 9.92383 181.823 10.0469 182.05 10.1211C182.277 10.1914 182.501 10.2266 182.724 10.2266C183.021 10.2266 183.269 10.1875 183.468 10.1094C183.671 10.0312 183.825 9.92383 183.931 9.78711C184.036 9.65039 184.089 9.49414 184.089 9.31836Z" fill="#0391DF"/>
<path d="M194.134 1.57511L195.195 0.515108L200.974 6.29211C201.067 6.38468 201.141 6.49475 201.191 6.616C201.242 6.73725 201.268 6.86728 201.268 6.99861C201.268 7.12993 201.242 7.25996 201.191 7.38121C201.141 7.50246 201.067 7.61254 200.974 7.70511L195.195 13.4851L194.135 12.4251L199.559 7.00011L194.134 1.57511Z" fill="#0391DF"/>
</g>
<defs>
<clipPath id="clip0_605_14">
<rect width="201.268" height="14" fill="white"/>
</clipPath>
</defs>
</svg>
