<svg width="222" height="55" viewBox="0 0 222 55" fill="none" xmlns="http://www.w3.org/2000/svg">
<path d="M9.78954 10.8889L12.91 10.8453C12.7718 12.0164 12.3754 13.0202 11.7208 13.8567C11.0734 14.6859 10.2587 15.3187 9.27674 15.7552C8.29476 16.1843 7.22914 16.388 6.07987 16.3662C5.01789 16.3443 4.12321 16.1189 3.39582 15.6897C2.66843 15.2533 2.09744 14.6714 1.68283 13.944C1.26822 13.2166 0.995446 12.4055 0.864516 11.5109C0.733587 10.6162 0.726313 9.69967 0.842695 8.76134L0.995446 7.65936C1.14092 6.67011 1.40642 5.7136 1.79193 4.78982C2.18472 3.86604 2.69753 3.04409 3.33035 2.32398C3.96318 1.60387 4.71239 1.03651 5.57798 0.621896C6.44357 0.207286 7.42554 0.0108916 8.52389 0.0327132C9.67316 0.0545347 10.6442 0.301846 11.4371 0.774647C12.2372 1.24017 12.8518 1.89118 13.281 2.72768C13.7174 3.5569 13.9611 4.52796 14.012 5.64086L10.837 5.62995C10.8443 5.04077 10.7715 4.52432 10.6188 4.08062C10.4733 3.62964 10.2187 3.28049 9.85501 3.03318C9.49131 2.7786 8.98942 2.64039 8.34932 2.61857C7.65103 2.59675 7.05821 2.73495 6.57086 3.03318C6.08351 3.33141 5.67981 3.73147 5.35976 4.23337C5.04699 4.73526 4.79967 5.28444 4.61783 5.8809C4.44326 6.47735 4.31233 7.0629 4.22504 7.63753L4.07229 8.77226C4.0141 9.24506 3.97409 9.76877 3.95227 10.3434C3.93045 10.9108 3.97773 11.4527 4.09411 11.9691C4.21049 12.4856 4.43598 12.9147 4.77058 13.2566C5.10518 13.5912 5.60344 13.7694 6.26536 13.7912C6.92 13.813 7.48373 13.7112 7.95653 13.4857C8.4366 13.2602 8.82576 12.9256 9.12398 12.4819C9.42949 12.0382 9.65134 11.5072 9.78954 10.8889ZM23.5262 0.26184L20.7767 16.1479H17.5798L20.3403 0.26184H23.5262ZM28.2615 0.26184L27.8142 2.82588H15.234L15.6814 0.26184H28.2615ZM33.6733 12.7001L39.2269 0.26184H42.8711L35.0153 16.1479H32.604L33.6733 12.7001ZM32.2658 0.26184L33.9351 12.9838L33.9679 16.1479H31.6657L28.818 0.26184H32.2658ZM52.6885 14.7026V10.3511C52.6885 10.0177 52.6208 9.72868 52.4854 9.48389C52.3552 9.23389 52.1572 9.04118 51.8916 8.90576C51.626 8.77035 51.2979 8.70264 50.9072 8.70264C50.5427 8.70264 50.2223 8.76514 49.9463 8.89014C49.6755 9.01514 49.4619 9.1792 49.3057 9.38232C49.1546 9.58545 49.0791 9.8042 49.0791 10.0386H47.6338C47.6338 9.73649 47.7119 9.43701 47.8682 9.14014C48.0244 8.84326 48.2484 8.57503 48.54 8.33545C48.8369 8.09066 49.1911 7.89795 49.6025 7.75732C50.0192 7.61149 50.4828 7.53857 50.9932 7.53857C51.6078 7.53857 52.1494 7.64274 52.6182 7.85107C53.0921 8.05941 53.4619 8.37451 53.7275 8.79639C53.9984 9.21305 54.1338 9.73649 54.1338 10.3667V14.3042C54.1338 14.5854 54.1572 14.8849 54.2041 15.2026C54.2562 15.5203 54.3317 15.7938 54.4307 16.0229V16.1479H52.9229C52.8499 15.9813 52.7927 15.7599 52.751 15.4839C52.7093 15.2026 52.6885 14.9422 52.6885 14.7026ZM52.9385 11.0229L52.9541 12.0386H51.4932C51.0817 12.0386 50.7145 12.0724 50.3916 12.1401C50.0687 12.2026 49.7979 12.299 49.5791 12.4292C49.3604 12.5594 49.1937 12.7235 49.0791 12.9214C48.9645 13.1141 48.9072 13.3407 48.9072 13.6011C48.9072 13.8667 48.9671 14.1089 49.0869 14.3276C49.2067 14.5464 49.3864 14.7209 49.626 14.8511C49.8708 14.9761 50.1703 15.0386 50.5244 15.0386C50.9671 15.0386 51.3578 14.9448 51.6963 14.7573C52.0348 14.5698 52.3031 14.3407 52.501 14.0698C52.7041 13.799 52.8135 13.536 52.8291 13.2808L53.4463 13.9761C53.4098 14.1948 53.3109 14.437 53.1494 14.7026C52.988 14.9683 52.7718 15.2235 52.501 15.4683C52.2354 15.7078 51.9177 15.9084 51.5479 16.0698C51.1833 16.2261 50.7718 16.3042 50.3135 16.3042C49.7406 16.3042 49.238 16.1922 48.8057 15.9683C48.3786 15.7443 48.0453 15.4448 47.8057 15.0698C47.5713 14.6896 47.4541 14.2651 47.4541 13.7964C47.4541 13.3433 47.5427 12.9448 47.7197 12.6011C47.8968 12.2521 48.152 11.9631 48.4854 11.7339C48.8187 11.4995 49.2197 11.3224 49.6885 11.2026C50.1572 11.0828 50.6807 11.0229 51.2588 11.0229H52.9385ZM61.8838 7.69482H63.1963V15.9683C63.1963 16.7131 63.0453 17.3485 62.7432 17.8745C62.4411 18.4006 62.0192 18.799 61.4775 19.0698C60.9411 19.3459 60.3213 19.4839 59.6182 19.4839C59.3265 19.4839 58.9828 19.437 58.5869 19.3433C58.1963 19.2547 57.8109 19.1011 57.4307 18.8823C57.0557 18.6688 56.7406 18.3797 56.4854 18.0151L57.2432 17.1558C57.5973 17.5828 57.9671 17.8797 58.3525 18.0464C58.7432 18.2131 59.1286 18.2964 59.5088 18.2964C59.9671 18.2964 60.363 18.2104 60.6963 18.0386C61.0296 17.8667 61.2874 17.6115 61.4697 17.2729C61.6572 16.9396 61.751 16.5282 61.751 16.0386V9.5542L61.8838 7.69482ZM56.0635 12.0151V11.8511C56.0635 11.2052 56.139 10.6193 56.29 10.0933C56.4463 9.56201 56.6677 9.10628 56.9541 8.72607C57.2458 8.34587 57.5973 8.0542 58.0088 7.85107C58.4203 7.64274 58.8838 7.53857 59.3994 7.53857C59.9307 7.53857 60.3942 7.63232 60.79 7.81982C61.1911 8.00212 61.5296 8.27035 61.8057 8.62451C62.0869 8.97347 62.3083 9.39535 62.4697 9.89014C62.6312 10.3849 62.7432 10.9448 62.8057 11.5698V12.2886C62.7484 12.9084 62.6364 13.4657 62.4697 13.9604C62.3083 14.4552 62.0869 14.8771 61.8057 15.2261C61.5296 15.575 61.1911 15.8433 60.79 16.0308C60.389 16.2131 59.9203 16.3042 59.3838 16.3042C58.8786 16.3042 58.4203 16.1974 58.0088 15.9839C57.6025 15.7703 57.2536 15.4709 56.9619 15.0854C56.6703 14.7 56.4463 14.2469 56.29 13.7261C56.139 13.2 56.0635 12.6297 56.0635 12.0151ZM57.5088 11.8511V12.0151C57.5088 12.437 57.5505 12.8328 57.6338 13.2026C57.7223 13.5724 57.8552 13.8979 58.0322 14.1792C58.2145 14.4604 58.4463 14.6818 58.7275 14.8433C59.0088 14.9995 59.3447 15.0776 59.7354 15.0776C60.2145 15.0776 60.6104 14.9761 60.9229 14.7729C61.2354 14.5698 61.4828 14.3016 61.665 13.9683C61.8525 13.6349 61.9984 13.2729 62.1025 12.8823V10.9995C62.0453 10.7131 61.9567 10.437 61.8369 10.1714C61.7223 9.90055 61.5713 9.66097 61.3838 9.45264C61.2015 9.2391 60.9749 9.06982 60.7041 8.94482C60.4333 8.81982 60.1156 8.75732 59.751 8.75732C59.3552 8.75732 59.014 8.84066 58.7275 9.00732C58.4463 9.16878 58.2145 9.39274 58.0322 9.6792C57.8552 9.96045 57.7223 10.2886 57.6338 10.6636C57.5505 11.0334 57.5088 11.4292 57.5088 11.8511ZM65.0088 12.0151V11.8354C65.0088 11.2261 65.0973 10.661 65.2744 10.1401C65.4515 9.6141 65.7067 9.15837 66.04 8.77295C66.3734 8.38232 66.777 8.08024 67.251 7.8667C67.7249 7.64795 68.2562 7.53857 68.8447 7.53857C69.4385 7.53857 69.9723 7.64795 70.4463 7.8667C70.9255 8.08024 71.3317 8.38232 71.665 8.77295C72.0036 9.15837 72.2614 9.6141 72.4385 10.1401C72.6156 10.661 72.7041 11.2261 72.7041 11.8354V12.0151C72.7041 12.6245 72.6156 13.1896 72.4385 13.7104C72.2614 14.2313 72.0036 14.687 71.665 15.0776C71.3317 15.4631 70.9281 15.7651 70.4541 15.9839C69.9854 16.1974 69.4541 16.3042 68.8604 16.3042C68.2666 16.3042 67.7328 16.1974 67.2588 15.9839C66.7848 15.7651 66.3786 15.4631 66.04 15.0776C65.7067 14.687 65.4515 14.2313 65.2744 13.7104C65.0973 13.1896 65.0088 12.6245 65.0088 12.0151ZM66.4541 11.8354V12.0151C66.4541 12.437 66.5036 12.8354 66.6025 13.2104C66.7015 13.5802 66.8499 13.9084 67.0479 14.1948C67.251 14.4813 67.5036 14.7078 67.8057 14.8745C68.1078 15.036 68.4593 15.1167 68.8604 15.1167C69.2562 15.1167 69.6025 15.036 69.8994 14.8745C70.2015 14.7078 70.4515 14.4813 70.6494 14.1948C70.8473 13.9084 70.9958 13.5802 71.0947 13.2104C71.1989 12.8354 71.251 12.437 71.251 12.0151V11.8354C71.251 11.4188 71.1989 11.0256 71.0947 10.6558C70.9958 10.2808 70.8447 9.95003 70.6416 9.66357C70.4437 9.37191 70.1937 9.14274 69.8916 8.97607C69.5947 8.80941 69.2458 8.72607 68.8447 8.72607C68.4489 8.72607 68.0999 8.80941 67.7979 8.97607C67.501 9.14274 67.251 9.37191 67.0479 9.66357C66.8499 9.95003 66.7015 10.2808 66.6025 10.6558C66.5036 11.0256 66.4541 11.4188 66.4541 11.8354ZM75.9619 9.02295V16.1479H74.5166V7.69482H75.9229L75.9619 9.02295ZM78.6025 7.64795L78.5947 8.9917C78.4749 8.96566 78.3604 8.95003 78.251 8.94482C78.1468 8.93441 78.027 8.9292 77.8916 8.9292C77.5583 8.9292 77.264 8.98128 77.0088 9.08545C76.7536 9.18962 76.5374 9.33545 76.3604 9.52295C76.1833 9.71045 76.0427 9.93441 75.9385 10.1948C75.8395 10.45 75.7744 10.7313 75.7432 11.0386L75.3369 11.2729C75.3369 10.7625 75.3864 10.2834 75.4854 9.83545C75.5895 9.38753 75.7484 8.9917 75.9619 8.64795C76.1755 8.29899 76.4463 8.02816 76.7744 7.83545C77.1078 7.63753 77.5036 7.53857 77.9619 7.53857C78.0661 7.53857 78.1859 7.5516 78.3213 7.57764C78.4567 7.59847 78.5505 7.62191 78.6025 7.64795ZM84.6104 14.7026V10.3511C84.6104 10.0177 84.5427 9.72868 84.4072 9.48389C84.277 9.23389 84.0791 9.04118 83.8135 8.90576C83.5479 8.77035 83.2197 8.70264 82.8291 8.70264C82.4645 8.70264 82.1442 8.76514 81.8682 8.89014C81.5973 9.01514 81.3838 9.1792 81.2275 9.38232C81.0765 9.58545 81.001 9.8042 81.001 10.0386H79.5557C79.5557 9.73649 79.6338 9.43701 79.79 9.14014C79.9463 8.84326 80.1703 8.57503 80.4619 8.33545C80.7588 8.09066 81.113 7.89795 81.5244 7.75732C81.9411 7.61149 82.4046 7.53857 82.915 7.53857C83.5296 7.53857 84.0713 7.64274 84.54 7.85107C85.014 8.05941 85.3838 8.37451 85.6494 8.79639C85.9203 9.21305 86.0557 9.73649 86.0557 10.3667V14.3042C86.0557 14.5854 86.0791 14.8849 86.126 15.2026C86.1781 15.5203 86.2536 15.7938 86.3525 16.0229V16.1479H84.8447C84.7718 15.9813 84.7145 15.7599 84.6729 15.4839C84.6312 15.2026 84.6104 14.9422 84.6104 14.7026ZM84.8604 11.0229L84.876 12.0386H83.415C83.0036 12.0386 82.6364 12.0724 82.3135 12.1401C81.9906 12.2026 81.7197 12.299 81.501 12.4292C81.2822 12.5594 81.1156 12.7235 81.001 12.9214C80.8864 13.1141 80.8291 13.3407 80.8291 13.6011C80.8291 13.8667 80.889 14.1089 81.0088 14.3276C81.1286 14.5464 81.3083 14.7209 81.5479 14.8511C81.7927 14.9761 82.0921 15.0386 82.4463 15.0386C82.889 15.0386 83.2796 14.9448 83.6182 14.7573C83.9567 14.5698 84.2249 14.3407 84.4229 14.0698C84.626 13.799 84.7354 13.536 84.751 13.2808L85.3682 13.9761C85.3317 14.1948 85.2328 14.437 85.0713 14.7026C84.9098 14.9683 84.6937 15.2235 84.4229 15.4683C84.1572 15.7078 83.8395 15.9084 83.4697 16.0698C83.1052 16.2261 82.6937 16.3042 82.2354 16.3042C81.6624 16.3042 81.1598 16.1922 80.7275 15.9683C80.3005 15.7443 79.9671 15.4448 79.7275 15.0698C79.4932 14.6896 79.376 14.2651 79.376 13.7964C79.376 13.3433 79.4645 12.9448 79.6416 12.6011C79.8187 12.2521 80.0739 11.9631 80.4072 11.7339C80.7406 11.4995 81.1416 11.3224 81.6104 11.2026C82.0791 11.0828 82.6025 11.0229 83.1807 11.0229H84.8604ZM95.8057 16.3042C95.2171 16.3042 94.6833 16.2052 94.2041 16.0073C93.7302 15.8042 93.3213 15.5203 92.9775 15.1558C92.639 14.7912 92.3786 14.3589 92.1963 13.8589C92.014 13.3589 91.9229 12.812 91.9229 12.2183V11.8901C91.9229 11.2026 92.0244 10.5907 92.2275 10.0542C92.4307 9.51253 92.7067 9.0542 93.0557 8.6792C93.4046 8.3042 93.8005 8.02035 94.2432 7.82764C94.6859 7.63493 95.1442 7.53857 95.6182 7.53857C96.2223 7.53857 96.7432 7.64274 97.1807 7.85107C97.6234 8.05941 97.9854 8.35107 98.2666 8.72607C98.5479 9.09587 98.7562 9.53337 98.8916 10.0386C99.027 10.5386 99.0947 11.0854 99.0947 11.6792V12.3276H92.7822V11.1479H97.6494V11.0386C97.6286 10.6636 97.5505 10.299 97.415 9.94482C97.2848 9.59066 97.0765 9.29899 96.79 9.06982C96.5036 8.84066 96.113 8.72607 95.6182 8.72607C95.29 8.72607 94.988 8.79639 94.7119 8.93701C94.4359 9.07243 94.1989 9.27555 94.001 9.54639C93.8031 9.81722 93.6494 10.1479 93.54 10.5386C93.4307 10.9292 93.376 11.3797 93.376 11.8901V12.2183C93.376 12.6193 93.4307 12.9969 93.54 13.3511C93.6546 13.7 93.8187 14.0073 94.0322 14.2729C94.251 14.5386 94.514 14.7469 94.8213 14.8979C95.1338 15.049 95.488 15.1245 95.8838 15.1245C96.3942 15.1245 96.8265 15.0203 97.1807 14.812C97.5348 14.6037 97.8447 14.325 98.1104 13.9761L98.9854 14.6714C98.8031 14.9474 98.5713 15.2104 98.29 15.4604C98.0088 15.7104 97.6624 15.9136 97.251 16.0698C96.8447 16.2261 96.363 16.3042 95.8057 16.3042ZM94.8135 6.44482L96.3291 4.14795H98.0713L95.9775 6.44482H94.8135ZM109.673 13.9058C109.673 13.6974 109.626 13.5047 109.532 13.3276C109.444 13.1453 109.259 12.9813 108.978 12.8354C108.702 12.6844 108.285 12.5542 107.728 12.4448C107.259 12.3459 106.834 12.2287 106.454 12.0933C106.079 11.9578 105.759 11.7938 105.493 11.6011C105.233 11.4084 105.032 11.1818 104.892 10.9214C104.751 10.661 104.681 10.3563 104.681 10.0073C104.681 9.67399 104.754 9.35889 104.899 9.06201C105.05 8.76514 105.261 8.50212 105.532 8.27295C105.808 8.04378 106.139 7.8641 106.524 7.73389C106.91 7.60368 107.34 7.53857 107.813 7.53857C108.491 7.53857 109.069 7.65837 109.548 7.89795C110.027 8.13753 110.394 8.45785 110.649 8.85889C110.905 9.25472 111.032 9.69482 111.032 10.1792H109.587C109.587 9.94482 109.517 9.71826 109.376 9.49951C109.241 9.27555 109.04 9.09066 108.774 8.94482C108.514 8.79899 108.194 8.72607 107.813 8.72607C107.412 8.72607 107.087 8.78857 106.837 8.91357C106.592 9.03337 106.412 9.18701 106.298 9.37451C106.188 9.56201 106.134 9.75993 106.134 9.96826C106.134 10.1245 106.16 10.2651 106.212 10.3901C106.269 10.5099 106.368 10.6219 106.509 10.7261C106.649 10.825 106.847 10.9188 107.103 11.0073C107.358 11.0959 107.683 11.1844 108.079 11.2729C108.772 11.4292 109.342 11.6167 109.79 11.8354C110.238 12.0542 110.571 12.3224 110.79 12.6401C111.009 12.9578 111.118 13.3433 111.118 13.7964C111.118 14.1662 111.04 14.5047 110.884 14.812C110.733 15.1193 110.511 15.3849 110.22 15.6089C109.933 15.8276 109.59 15.9995 109.188 16.1245C108.793 16.2443 108.347 16.3042 107.853 16.3042C107.108 16.3042 106.478 16.1714 105.962 15.9058C105.446 15.6401 105.056 15.2964 104.79 14.8745C104.524 14.4526 104.392 14.0073 104.392 13.5386H105.845C105.866 13.9344 105.98 14.2495 106.188 14.4839C106.397 14.7131 106.652 14.8771 106.954 14.9761C107.256 15.0698 107.556 15.1167 107.853 15.1167C108.248 15.1167 108.579 15.0646 108.845 14.9604C109.116 14.8563 109.321 14.7131 109.462 14.5308C109.603 14.3485 109.673 14.1401 109.673 13.9058ZM112.634 12.0151V11.8354C112.634 11.2261 112.722 10.661 112.899 10.1401C113.077 9.6141 113.332 9.15837 113.665 8.77295C113.998 8.38232 114.402 8.08024 114.876 7.8667C115.35 7.64795 115.881 7.53857 116.47 7.53857C117.063 7.53857 117.597 7.64795 118.071 7.8667C118.55 8.08024 118.957 8.38232 119.29 8.77295C119.629 9.15837 119.886 9.6141 120.063 10.1401C120.241 10.661 120.329 11.2261 120.329 11.8354V12.0151C120.329 12.6245 120.241 13.1896 120.063 13.7104C119.886 14.2313 119.629 14.687 119.29 15.0776C118.957 15.4631 118.553 15.7651 118.079 15.9839C117.61 16.1974 117.079 16.3042 116.485 16.3042C115.892 16.3042 115.358 16.1974 114.884 15.9839C114.41 15.7651 114.004 15.4631 113.665 15.0776C113.332 14.687 113.077 14.2313 112.899 13.7104C112.722 13.1896 112.634 12.6245 112.634 12.0151ZM114.079 11.8354V12.0151C114.079 12.437 114.129 12.8354 114.228 13.2104C114.327 13.5802 114.475 13.9084 114.673 14.1948C114.876 14.4813 115.129 14.7078 115.431 14.8745C115.733 15.036 116.084 15.1167 116.485 15.1167C116.881 15.1167 117.228 15.036 117.524 14.8745C117.827 14.7078 118.077 14.4813 118.274 14.1948C118.472 13.9084 118.621 13.5802 118.72 13.2104C118.824 12.8354 118.876 12.437 118.876 12.0151V11.8354C118.876 11.4188 118.824 11.0256 118.72 10.6558C118.621 10.2808 118.47 9.95003 118.267 9.66357C118.069 9.37191 117.819 9.14274 117.517 8.97607C117.22 8.80941 116.871 8.72607 116.47 8.72607C116.074 8.72607 115.725 8.80941 115.423 8.97607C115.126 9.14274 114.876 9.37191 114.673 9.66357C114.475 9.95003 114.327 10.2808 114.228 10.6558C114.129 11.0256 114.079 11.4188 114.079 11.8354ZM115.61 6.44482L117.126 4.14795H118.868L116.774 6.44482H115.61ZM131.095 14.7026V10.3511C131.095 10.0177 131.027 9.72868 130.892 9.48389C130.761 9.23389 130.563 9.04118 130.298 8.90576C130.032 8.77035 129.704 8.70264 129.313 8.70264C128.949 8.70264 128.629 8.76514 128.353 8.89014C128.082 9.01514 127.868 9.1792 127.712 9.38232C127.561 9.58545 127.485 9.8042 127.485 10.0386H126.04C126.04 9.73649 126.118 9.43701 126.274 9.14014C126.431 8.84326 126.655 8.57503 126.946 8.33545C127.243 8.09066 127.597 7.89795 128.009 7.75732C128.425 7.61149 128.889 7.53857 129.399 7.53857C130.014 7.53857 130.556 7.64274 131.024 7.85107C131.498 8.05941 131.868 8.37451 132.134 8.79639C132.405 9.21305 132.54 9.73649 132.54 10.3667V14.3042C132.54 14.5854 132.563 14.8849 132.61 15.2026C132.662 15.5203 132.738 15.7938 132.837 16.0229V16.1479H131.329C131.256 15.9813 131.199 15.7599 131.157 15.4839C131.116 15.2026 131.095 14.9422 131.095 14.7026ZM131.345 11.0229L131.36 12.0386H129.899C129.488 12.0386 129.121 12.0724 128.798 12.1401C128.475 12.2026 128.204 12.299 127.985 12.4292C127.767 12.5594 127.6 12.7235 127.485 12.9214C127.371 13.1141 127.313 13.3407 127.313 13.6011C127.313 13.8667 127.373 14.1089 127.493 14.3276C127.613 14.5464 127.793 14.7209 128.032 14.8511C128.277 14.9761 128.577 15.0386 128.931 15.0386C129.373 15.0386 129.764 14.9448 130.103 14.7573C130.441 14.5698 130.709 14.3407 130.907 14.0698C131.11 13.799 131.22 13.536 131.235 13.2808L131.853 13.9761C131.816 14.1948 131.717 14.437 131.556 14.7026C131.394 14.9683 131.178 15.2235 130.907 15.4683C130.642 15.7078 130.324 15.9084 129.954 16.0698C129.59 16.2261 129.178 16.3042 128.72 16.3042C128.147 16.3042 127.644 16.1922 127.212 15.9683C126.785 15.7443 126.452 15.4448 126.212 15.0698C125.978 14.6896 125.86 14.2651 125.86 13.7964C125.86 13.3433 125.949 12.9448 126.126 12.6011C126.303 12.2521 126.558 11.9631 126.892 11.7339C127.225 11.4995 127.626 11.3224 128.095 11.2026C128.563 11.0828 129.087 11.0229 129.665 11.0229H131.345ZM140.29 7.69482H141.603V15.9683C141.603 16.7131 141.451 17.3485 141.149 17.8745C140.847 18.4006 140.425 18.799 139.884 19.0698C139.347 19.3459 138.728 19.4839 138.024 19.4839C137.733 19.4839 137.389 19.437 136.993 19.3433C136.603 19.2547 136.217 19.1011 135.837 18.8823C135.462 18.6688 135.147 18.3797 134.892 18.0151L135.649 17.1558C136.004 17.5828 136.373 17.8797 136.759 18.0464C137.149 18.2131 137.535 18.2964 137.915 18.2964C138.373 18.2964 138.769 18.2104 139.103 18.0386C139.436 17.8667 139.694 17.6115 139.876 17.2729C140.063 16.9396 140.157 16.5282 140.157 16.0386V9.5542L140.29 7.69482ZM134.47 12.0151V11.8511C134.47 11.2052 134.545 10.6193 134.696 10.0933C134.853 9.56201 135.074 9.10628 135.36 8.72607C135.652 8.34587 136.004 8.0542 136.415 7.85107C136.826 7.64274 137.29 7.53857 137.806 7.53857C138.337 7.53857 138.8 7.63232 139.196 7.81982C139.597 8.00212 139.936 8.27035 140.212 8.62451C140.493 8.97347 140.715 9.39535 140.876 9.89014C141.037 10.3849 141.149 10.9448 141.212 11.5698V12.2886C141.155 12.9084 141.043 13.4657 140.876 13.9604C140.715 14.4552 140.493 14.8771 140.212 15.2261C139.936 15.575 139.597 15.8433 139.196 16.0308C138.795 16.2131 138.326 16.3042 137.79 16.3042C137.285 16.3042 136.826 16.1974 136.415 15.9839C136.009 15.7703 135.66 15.4709 135.368 15.0854C135.076 14.7 134.853 14.2469 134.696 13.7261C134.545 13.2 134.47 12.6297 134.47 12.0151ZM135.915 11.8511V12.0151C135.915 12.437 135.957 12.8328 136.04 13.2026C136.129 13.5724 136.261 13.8979 136.438 14.1792C136.621 14.4604 136.853 14.6818 137.134 14.8433C137.415 14.9995 137.751 15.0776 138.142 15.0776C138.621 15.0776 139.017 14.9761 139.329 14.7729C139.642 14.5698 139.889 14.3016 140.071 13.9683C140.259 13.6349 140.405 13.2729 140.509 12.8823V10.9995C140.451 10.7131 140.363 10.437 140.243 10.1714C140.129 9.90055 139.978 9.66097 139.79 9.45264C139.608 9.2391 139.381 9.06982 139.11 8.94482C138.84 8.81982 138.522 8.75732 138.157 8.75732C137.761 8.75732 137.42 8.84066 137.134 9.00732C136.853 9.16878 136.621 9.39274 136.438 9.6792C136.261 9.96045 136.129 10.2886 136.04 10.6636C135.957 11.0334 135.915 11.4292 135.915 11.8511ZM148.97 14.1948V7.69482H150.423V16.1479H149.04L148.97 14.1948ZM149.243 12.4136L149.845 12.3979C149.845 12.9604 149.785 13.4813 149.665 13.9604C149.55 14.4344 149.363 14.8459 149.103 15.1948C148.842 15.5438 148.501 15.8172 148.079 16.0151C147.657 16.2078 147.144 16.3042 146.54 16.3042C146.129 16.3042 145.751 16.2443 145.407 16.1245C145.069 16.0047 144.777 15.8198 144.532 15.5698C144.287 15.3198 144.097 14.9943 143.962 14.5933C143.832 14.1922 143.767 13.7104 143.767 13.1479V7.69482H145.212V13.1636C145.212 13.5438 145.254 13.8589 145.337 14.1089C145.425 14.3537 145.543 14.549 145.688 14.6948C145.84 14.8354 146.006 14.9344 146.188 14.9917C146.376 15.049 146.569 15.0776 146.767 15.0776C147.381 15.0776 147.868 14.9604 148.228 14.7261C148.587 14.4865 148.845 14.1662 149.001 13.7651C149.162 13.3589 149.243 12.9084 149.243 12.4136ZM157.61 14.7026V10.3511C157.61 10.0177 157.543 9.72868 157.407 9.48389C157.277 9.23389 157.079 9.04118 156.813 8.90576C156.548 8.77035 156.22 8.70264 155.829 8.70264C155.465 8.70264 155.144 8.76514 154.868 8.89014C154.597 9.01514 154.384 9.1792 154.228 9.38232C154.076 9.58545 154.001 9.8042 154.001 10.0386H152.556C152.556 9.73649 152.634 9.43701 152.79 9.14014C152.946 8.84326 153.17 8.57503 153.462 8.33545C153.759 8.09066 154.113 7.89795 154.524 7.75732C154.941 7.61149 155.405 7.53857 155.915 7.53857C156.53 7.53857 157.071 7.64274 157.54 7.85107C158.014 8.05941 158.384 8.37451 158.649 8.79639C158.92 9.21305 159.056 9.73649 159.056 10.3667V14.3042C159.056 14.5854 159.079 14.8849 159.126 15.2026C159.178 15.5203 159.254 15.7938 159.353 16.0229V16.1479H157.845C157.772 15.9813 157.715 15.7599 157.673 15.4839C157.631 15.2026 157.61 14.9422 157.61 14.7026ZM157.86 11.0229L157.876 12.0386H156.415C156.004 12.0386 155.636 12.0724 155.313 12.1401C154.991 12.2026 154.72 12.299 154.501 12.4292C154.282 12.5594 154.116 12.7235 154.001 12.9214C153.886 13.1141 153.829 13.3407 153.829 13.6011C153.829 13.8667 153.889 14.1089 154.009 14.3276C154.129 14.5464 154.308 14.7209 154.548 14.8511C154.793 14.9761 155.092 15.0386 155.446 15.0386C155.889 15.0386 156.28 14.9448 156.618 14.7573C156.957 14.5698 157.225 14.3407 157.423 14.0698C157.626 13.799 157.735 13.536 157.751 13.2808L158.368 13.9761C158.332 14.1948 158.233 14.437 158.071 14.7026C157.91 14.9683 157.694 15.2235 157.423 15.4683C157.157 15.7078 156.84 15.9084 156.47 16.0698C156.105 16.2261 155.694 16.3042 155.235 16.3042C154.662 16.3042 154.16 16.1922 153.728 15.9683C153.3 15.7443 152.967 15.4448 152.728 15.0698C152.493 14.6896 152.376 14.2651 152.376 13.7964C152.376 13.3433 152.465 12.9448 152.642 12.6011C152.819 12.2521 153.074 11.9631 153.407 11.7339C153.741 11.4995 154.142 11.3224 154.61 11.2026C155.079 11.0828 155.603 11.0229 156.181 11.0229H157.86ZM162.774 9.02295V16.1479H161.329V7.69482H162.735L162.774 9.02295ZM165.415 7.64795L165.407 8.9917C165.287 8.96566 165.173 8.95003 165.063 8.94482C164.959 8.93441 164.84 8.9292 164.704 8.9292C164.371 8.9292 164.076 8.98128 163.821 9.08545C163.566 9.18962 163.35 9.33545 163.173 9.52295C162.996 9.71045 162.855 9.93441 162.751 10.1948C162.652 10.45 162.587 10.7313 162.556 11.0386L162.149 11.2729C162.149 10.7625 162.199 10.2834 162.298 9.83545C162.402 9.38753 162.561 8.9917 162.774 8.64795C162.988 8.29899 163.259 8.02816 163.587 7.83545C163.92 7.63753 164.316 7.53857 164.774 7.53857C164.879 7.53857 164.998 7.5516 165.134 7.57764C165.269 7.59847 165.363 7.62191 165.415 7.64795ZM171.923 14.5073V4.14795H173.376V16.1479H172.048L171.923 14.5073ZM166.235 12.0151V11.8511C166.235 11.2052 166.313 10.6193 166.47 10.0933C166.631 9.56201 166.858 9.10628 167.149 8.72607C167.446 8.34587 167.798 8.0542 168.204 7.85107C168.616 7.64274 169.074 7.53857 169.579 7.53857C170.11 7.53857 170.574 7.63232 170.97 7.81982C171.371 8.00212 171.709 8.27035 171.985 8.62451C172.267 8.97347 172.488 9.39535 172.649 9.89014C172.811 10.3849 172.923 10.9448 172.985 11.5698V12.2886C172.928 12.9084 172.816 13.4657 172.649 13.9604C172.488 14.4552 172.267 14.8771 171.985 15.2261C171.709 15.575 171.371 15.8433 170.97 16.0308C170.569 16.2131 170.1 16.3042 169.563 16.3042C169.069 16.3042 168.616 16.1974 168.204 15.9839C167.798 15.7703 167.446 15.4709 167.149 15.0854C166.858 14.7 166.631 14.2469 166.47 13.7261C166.313 13.2 166.235 12.6297 166.235 12.0151ZM167.688 11.8511V12.0151C167.688 12.437 167.73 12.8328 167.813 13.2026C167.902 13.5724 168.037 13.8979 168.22 14.1792C168.402 14.4604 168.634 14.6818 168.915 14.8433C169.196 14.9995 169.532 15.0776 169.923 15.0776C170.402 15.0776 170.795 14.9761 171.103 14.7729C171.415 14.5698 171.665 14.3016 171.853 13.9683C172.04 13.6349 172.186 13.2729 172.29 12.8823V10.9995C172.228 10.7131 172.136 10.437 172.017 10.1714C171.902 9.90055 171.751 9.66097 171.563 9.45264C171.381 9.2391 171.155 9.06982 170.884 8.94482C170.618 8.81982 170.303 8.75732 169.938 8.75732C169.543 8.75732 169.201 8.84066 168.915 9.00732C168.634 9.16878 168.402 9.39274 168.22 9.6792C168.037 9.96045 167.902 10.2886 167.813 10.6636C167.73 11.0334 167.688 11.4292 167.688 11.8511ZM180.61 14.7026V10.3511C180.61 10.0177 180.543 9.72868 180.407 9.48389C180.277 9.23389 180.079 9.04118 179.813 8.90576C179.548 8.77035 179.22 8.70264 178.829 8.70264C178.465 8.70264 178.144 8.76514 177.868 8.89014C177.597 9.01514 177.384 9.1792 177.228 9.38232C177.076 9.58545 177.001 9.8042 177.001 10.0386H175.556C175.556 9.73649 175.634 9.43701 175.79 9.14014C175.946 8.84326 176.17 8.57503 176.462 8.33545C176.759 8.09066 177.113 7.89795 177.524 7.75732C177.941 7.61149 178.405 7.53857 178.915 7.53857C179.53 7.53857 180.071 7.64274 180.54 7.85107C181.014 8.05941 181.384 8.37451 181.649 8.79639C181.92 9.21305 182.056 9.73649 182.056 10.3667V14.3042C182.056 14.5854 182.079 14.8849 182.126 15.2026C182.178 15.5203 182.254 15.7938 182.353 16.0229V16.1479H180.845C180.772 15.9813 180.715 15.7599 180.673 15.4839C180.631 15.2026 180.61 14.9422 180.61 14.7026ZM180.86 11.0229L180.876 12.0386H179.415C179.004 12.0386 178.636 12.0724 178.313 12.1401C177.991 12.2026 177.72 12.299 177.501 12.4292C177.282 12.5594 177.116 12.7235 177.001 12.9214C176.886 13.1141 176.829 13.3407 176.829 13.6011C176.829 13.8667 176.889 14.1089 177.009 14.3276C177.129 14.5464 177.308 14.7209 177.548 14.8511C177.793 14.9761 178.092 15.0386 178.446 15.0386C178.889 15.0386 179.28 14.9448 179.618 14.7573C179.957 14.5698 180.225 14.3407 180.423 14.0698C180.626 13.799 180.735 13.536 180.751 13.2808L181.368 13.9761C181.332 14.1948 181.233 14.437 181.071 14.7026C180.91 14.9683 180.694 15.2235 180.423 15.4683C180.157 15.7078 179.84 15.9084 179.47 16.0698C179.105 16.2261 178.694 16.3042 178.235 16.3042C177.662 16.3042 177.16 16.1922 176.728 15.9683C176.3 15.7443 175.967 15.4448 175.728 15.0698C175.493 14.6896 175.376 14.2651 175.376 13.7964C175.376 13.3433 175.465 12.9448 175.642 12.6011C175.819 12.2521 176.074 11.9631 176.407 11.7339C176.741 11.4995 177.142 11.3224 177.61 11.2026C178.079 11.0828 178.603 11.0229 179.181 11.0229H180.86ZM185.774 9.02295V16.1479H184.329V7.69482H185.735L185.774 9.02295ZM188.415 7.64795L188.407 8.9917C188.287 8.96566 188.173 8.95003 188.063 8.94482C187.959 8.93441 187.84 8.9292 187.704 8.9292C187.371 8.9292 187.076 8.98128 186.821 9.08545C186.566 9.18962 186.35 9.33545 186.173 9.52295C185.996 9.71045 185.855 9.93441 185.751 10.1948C185.652 10.45 185.587 10.7313 185.556 11.0386L185.149 11.2729C185.149 10.7625 185.199 10.2834 185.298 9.83545C185.402 9.38753 185.561 8.9917 185.774 8.64795C185.988 8.29899 186.259 8.02816 186.587 7.83545C186.92 7.63753 187.316 7.53857 187.774 7.53857C187.879 7.53857 187.998 7.5516 188.134 7.57764C188.269 7.59847 188.363 7.62191 188.415 7.64795ZM188.806 15.3823C188.806 15.1375 188.881 14.9318 189.032 14.7651C189.188 14.5933 189.412 14.5073 189.704 14.5073C189.996 14.5073 190.217 14.5933 190.368 14.7651C190.524 14.9318 190.603 15.1375 190.603 15.3823C190.603 15.6219 190.524 15.825 190.368 15.9917C190.217 16.1584 189.996 16.2417 189.704 16.2417C189.412 16.2417 189.188 16.1584 189.032 15.9917C188.881 15.825 188.806 15.6219 188.806 15.3823ZM5.30469 24.7808L1.53906 35.1479H0L4.33594 23.7729H5.32812L5.30469 24.7808ZM8.46094 35.1479L4.6875 24.7808L4.66406 23.7729H5.65625L10.0078 35.1479H8.46094ZM8.26562 30.937V32.1714H1.875V30.937H8.26562ZM16.2344 32.9058C16.2344 32.6974 16.1875 32.5047 16.0938 32.3276C16.0052 32.1453 15.8203 31.9813 15.5391 31.8354C15.263 31.6844 14.8464 31.5542 14.2891 31.4448C13.8203 31.3459 13.3958 31.2287 13.0156 31.0933C12.6406 30.9578 12.3203 30.7938 12.0547 30.6011C11.7943 30.4084 11.5938 30.1818 11.4531 29.9214C11.3125 29.661 11.2422 29.3563 11.2422 29.0073C11.2422 28.674 11.3151 28.3589 11.4609 28.062C11.612 27.7651 11.8229 27.5021 12.0938 27.2729C12.3698 27.0438 12.7005 26.8641 13.0859 26.7339C13.4714 26.6037 13.901 26.5386 14.375 26.5386C15.0521 26.5386 15.6302 26.6584 16.1094 26.8979C16.5885 27.1375 16.9557 27.4578 17.2109 27.8589C17.4661 28.2547 17.5938 28.6948 17.5938 29.1792H16.1484C16.1484 28.9448 16.0781 28.7183 15.9375 28.4995C15.8021 28.2756 15.6016 28.0907 15.3359 27.9448C15.0755 27.799 14.7552 27.7261 14.375 27.7261C13.974 27.7261 13.6484 27.7886 13.3984 27.9136C13.1536 28.0334 12.974 28.187 12.8594 28.3745C12.75 28.562 12.6953 28.7599 12.6953 28.9683C12.6953 29.1245 12.7214 29.2651 12.7734 29.3901C12.8307 29.5099 12.9297 29.6219 13.0703 29.7261C13.2109 29.825 13.4089 29.9188 13.6641 30.0073C13.9193 30.0959 14.2448 30.1844 14.6406 30.2729C15.3333 30.4292 15.9036 30.6167 16.3516 30.8354C16.7995 31.0542 17.1328 31.3224 17.3516 31.6401C17.5703 31.9578 17.6797 32.3433 17.6797 32.7964C17.6797 33.1662 17.6016 33.5047 17.4453 33.812C17.2943 34.1193 17.0729 34.3849 16.7812 34.6089C16.4948 34.8276 16.151 34.9995 15.75 35.1245C15.3542 35.2443 14.9089 35.3042 14.4141 35.3042C13.6693 35.3042 13.0391 35.1714 12.5234 34.9058C12.0078 34.6401 11.6172 34.2964 11.3516 33.8745C11.0859 33.4526 10.9531 33.0073 10.9531 32.5386H12.4062C12.4271 32.9344 12.5417 33.2495 12.75 33.4839C12.9583 33.7131 13.2135 33.8771 13.5156 33.9761C13.8177 34.0698 14.1172 34.1167 14.4141 34.1167C14.8099 34.1167 15.1406 34.0646 15.4062 33.9604C15.6771 33.8563 15.8828 33.7131 16.0234 33.5308C16.1641 33.3485 16.2344 33.1401 16.2344 32.9058ZM24.5 32.9058C24.5 32.6974 24.4531 32.5047 24.3594 32.3276C24.2708 32.1453 24.0859 31.9813 23.8047 31.8354C23.5286 31.6844 23.112 31.5542 22.5547 31.4448C22.0859 31.3459 21.6615 31.2287 21.2812 31.0933C20.9062 30.9578 20.5859 30.7938 20.3203 30.6011C20.0599 30.4084 19.8594 30.1818 19.7188 29.9214C19.5781 29.661 19.5078 29.3563 19.5078 29.0073C19.5078 28.674 19.5807 28.3589 19.7266 28.062C19.8776 27.7651 20.0885 27.5021 20.3594 27.2729C20.6354 27.0438 20.9661 26.8641 21.3516 26.7339C21.737 26.6037 22.1667 26.5386 22.6406 26.5386C23.3177 26.5386 23.8958 26.6584 24.375 26.8979C24.8542 27.1375 25.2214 27.4578 25.4766 27.8589C25.7318 28.2547 25.8594 28.6948 25.8594 29.1792H24.4141C24.4141 28.9448 24.3438 28.7183 24.2031 28.4995C24.0677 28.2756 23.8672 28.0907 23.6016 27.9448C23.3411 27.799 23.0208 27.7261 22.6406 27.7261C22.2396 27.7261 21.9141 27.7886 21.6641 27.9136C21.4193 28.0334 21.2396 28.187 21.125 28.3745C21.0156 28.562 20.9609 28.7599 20.9609 28.9683C20.9609 29.1245 20.987 29.2651 21.0391 29.3901C21.0964 29.5099 21.1953 29.6219 21.3359 29.7261C21.4766 29.825 21.6745 29.9188 21.9297 30.0073C22.1849 30.0959 22.5104 30.1844 22.9062 30.2729C23.599 30.4292 24.1693 30.6167 24.6172 30.8354C25.0651 31.0542 25.3984 31.3224 25.6172 31.6401C25.8359 31.9578 25.9453 32.3433 25.9453 32.7964C25.9453 33.1662 25.8672 33.5047 25.7109 33.812C25.5599 34.1193 25.3385 34.3849 25.0469 34.6089C24.7604 34.8276 24.4167 34.9995 24.0156 35.1245C23.6198 35.2443 23.1745 35.3042 22.6797 35.3042C21.9349 35.3042 21.3047 35.1714 20.7891 34.9058C20.2734 34.6401 19.8828 34.2964 19.6172 33.8745C19.3516 33.4526 19.2188 33.0073 19.2188 32.5386H20.6719C20.6927 32.9344 20.8073 33.2495 21.0156 33.4839C21.224 33.7131 21.4792 33.8771 21.7812 33.9761C22.0833 34.0698 22.3828 34.1167 22.6797 34.1167C23.0755 34.1167 23.4062 34.0646 23.6719 33.9604C23.9427 33.8563 24.1484 33.7131 24.2891 33.5308C24.4297 33.3485 24.5 33.1401 24.5 32.9058ZM29.4141 26.6948V35.1479H27.9609V26.6948H29.4141ZM27.8516 24.4526C27.8516 24.2183 27.9219 24.0203 28.0625 23.8589C28.2083 23.6974 28.4219 23.6167 28.7031 23.6167C28.9792 23.6167 29.1901 23.6974 29.3359 23.8589C29.487 24.0203 29.5625 24.2183 29.5625 24.4526C29.5625 24.6766 29.487 24.8693 29.3359 25.0308C29.1901 25.187 28.9792 25.2651 28.7031 25.2651C28.4219 25.2651 28.2083 25.187 28.0625 25.0308C27.9219 24.8693 27.8516 24.6766 27.8516 24.4526ZM33.1719 28.3745V35.1479H31.7188V26.6948H33.0938L33.1719 28.3745ZM32.875 30.6011L32.2031 30.5776C32.2083 29.9995 32.2839 29.4657 32.4297 28.9761C32.5755 28.4813 32.7917 28.0516 33.0781 27.687C33.3646 27.3224 33.7214 27.0412 34.1484 26.8433C34.5755 26.6401 35.0703 26.5386 35.6328 26.5386C36.0286 26.5386 36.3932 26.5959 36.7266 26.7104C37.0599 26.8198 37.349 26.9943 37.5938 27.2339C37.8385 27.4735 38.0286 27.7808 38.1641 28.1558C38.2995 28.5308 38.3672 28.9839 38.3672 29.5151V35.1479H36.9219V29.5854C36.9219 29.1427 36.8464 28.7886 36.6953 28.5229C36.5495 28.2573 36.3411 28.0646 36.0703 27.9448C35.7995 27.8198 35.4818 27.7573 35.1172 27.7573C34.6901 27.7573 34.3333 27.8328 34.0469 27.9839C33.7604 28.1349 33.5312 28.3433 33.3594 28.6089C33.1875 28.8745 33.0625 29.1792 32.9844 29.5229C32.9115 29.8615 32.875 30.2209 32.875 30.6011ZM38.3516 29.8042L37.3828 30.1011C37.388 29.6375 37.4635 29.1922 37.6094 28.7651C37.7604 28.3381 37.9766 27.9578 38.2578 27.6245C38.5443 27.2912 38.8958 27.0282 39.3125 26.8354C39.7292 26.6375 40.2057 26.5386 40.7422 26.5386C41.1953 26.5386 41.5964 26.5985 41.9453 26.7183C42.2995 26.8381 42.5964 27.0229 42.8359 27.2729C43.0807 27.5177 43.2656 27.8328 43.3906 28.2183C43.5156 28.6037 43.5781 29.062 43.5781 29.5933V35.1479H42.125V29.5776C42.125 29.1037 42.0495 28.7365 41.8984 28.4761C41.7526 28.2104 41.5443 28.0256 41.2734 27.9214C41.0078 27.812 40.6901 27.7573 40.3203 27.7573C40.0026 27.7573 39.7214 27.812 39.4766 27.9214C39.2318 28.0308 39.026 28.1818 38.8594 28.3745C38.6927 28.562 38.5651 28.7782 38.4766 29.0229C38.3932 29.2677 38.3516 29.5282 38.3516 29.8042ZM55.0547 38.3979V28.3198L55.1797 26.6948H56.5078V38.3979H55.0547ZM49.375 31.0151V30.8511C49.375 30.2052 49.4505 29.6193 49.6016 29.0933C49.7526 28.562 49.974 28.1063 50.2656 27.7261C50.5573 27.3459 50.9089 27.0542 51.3203 26.8511C51.737 26.6427 52.2109 26.5386 52.7422 26.5386C53.2734 26.5386 53.7396 26.6323 54.1406 26.8198C54.5469 27.0021 54.8906 27.2703 55.1719 27.6245C55.4583 27.9735 55.6849 28.3953 55.8516 28.8901C56.0182 29.3849 56.1328 29.9448 56.1953 30.5698V31.2886C56.138 31.9084 56.026 32.4657 55.8594 32.9604C55.6927 33.4552 55.4661 33.8771 55.1797 34.2261C54.8984 34.575 54.5521 34.8433 54.1406 35.0308C53.7344 35.2131 53.263 35.3042 52.7266 35.3042C52.2057 35.3042 51.737 35.1974 51.3203 34.9839C50.9089 34.7703 50.5573 34.4709 50.2656 34.0854C49.9792 33.7 49.7578 33.2469 49.6016 32.7261C49.4505 32.2 49.375 31.6297 49.375 31.0151ZM50.8281 30.8511V31.0151C50.8281 31.437 50.8724 31.8354 50.9609 32.2104C51.0495 32.5802 51.1849 32.9084 51.3672 33.1948C51.5547 33.4813 51.7891 33.7078 52.0703 33.8745C52.3568 34.036 52.6953 34.1167 53.0859 34.1167C53.5651 34.1167 53.9635 34.0125 54.2812 33.8042C54.6042 33.5959 54.862 33.3224 55.0547 32.9839C55.2474 32.6401 55.3958 32.2729 55.5 31.8823V29.9995C55.4427 29.7131 55.3516 29.4344 55.2266 29.1636C55.1068 28.8927 54.9505 28.6506 54.7578 28.437C54.5651 28.2183 54.3307 28.0464 54.0547 27.9214C53.7839 27.7912 53.4661 27.7261 53.1016 27.7261C52.7057 27.7261 52.3646 27.8094 52.0781 27.9761C51.7917 28.1427 51.5547 28.3719 51.3672 28.6636C51.1849 28.95 51.0495 29.2808 50.9609 29.6558C50.8724 30.0308 50.8281 30.4292 50.8281 30.8511ZM64 33.1948V26.6948H65.4531V35.1479H64.0703L64 33.1948ZM64.2734 31.4136L64.875 31.3979C64.875 31.9604 64.8151 32.4813 64.6953 32.9604C64.5807 33.4344 64.3932 33.8459 64.1328 34.1948C63.8724 34.5438 63.5312 34.8172 63.1094 35.0151C62.6875 35.2078 62.1745 35.3042 61.5703 35.3042C61.1589 35.3042 60.7812 35.2443 60.4375 35.1245C60.099 35.0047 59.8073 34.8198 59.5625 34.5698C59.3177 34.3198 59.1276 33.9943 58.9922 33.5933C58.862 33.1922 58.7969 32.7104 58.7969 32.1479V26.6948H60.2422V32.1636C60.2422 32.5438 60.2839 32.8589 60.3672 33.1089C60.4557 33.3537 60.5729 33.549 60.7188 33.6948C60.8698 33.8354 61.0365 33.9344 61.2188 33.9917C61.4062 34.049 61.599 34.0776 61.7969 34.0776C62.4115 34.0776 62.8984 33.9604 63.2578 33.7261C63.6172 33.4865 63.875 33.1662 64.0312 32.7651C64.1927 32.3589 64.2734 31.9084 64.2734 31.4136ZM71.1641 35.3042C70.5755 35.3042 70.0417 35.2052 69.5625 35.0073C69.0885 34.8042 68.6797 34.5203 68.3359 34.1558C67.9974 33.7912 67.737 33.3589 67.5547 32.8589C67.3724 32.3589 67.2812 31.812 67.2812 31.2183V30.8901C67.2812 30.2026 67.3828 29.5907 67.5859 29.0542C67.7891 28.5125 68.0651 28.0542 68.4141 27.6792C68.763 27.3042 69.1589 27.0203 69.6016 26.8276C70.0443 26.6349 70.5026 26.5386 70.9766 26.5386C71.5807 26.5386 72.1016 26.6427 72.5391 26.8511C72.9818 27.0594 73.3438 27.3511 73.625 27.7261C73.9062 28.0959 74.1146 28.5334 74.25 29.0386C74.3854 29.5386 74.4531 30.0854 74.4531 30.6792V31.3276H68.1406V30.1479H73.0078V30.0386C72.987 29.6636 72.9089 29.299 72.7734 28.9448C72.6432 28.5907 72.4349 28.299 72.1484 28.0698C71.862 27.8407 71.4714 27.7261 70.9766 27.7261C70.6484 27.7261 70.3464 27.7964 70.0703 27.937C69.7943 28.0724 69.5573 28.2756 69.3594 28.5464C69.1615 28.8172 69.0078 29.1479 68.8984 29.5386C68.7891 29.9292 68.7344 30.3797 68.7344 30.8901V31.2183C68.7344 31.6193 68.7891 31.9969 68.8984 32.3511C69.013 32.7 69.1771 33.0073 69.3906 33.2729C69.6094 33.5386 69.8724 33.7469 70.1797 33.8979C70.4922 34.049 70.8464 34.1245 71.2422 34.1245C71.7526 34.1245 72.1849 34.0203 72.5391 33.812C72.8932 33.6037 73.2031 33.325 73.4688 32.9761L74.3438 33.6714C74.1615 33.9474 73.9297 34.2104 73.6484 34.4604C73.3672 34.7104 73.0208 34.9136 72.6094 35.0698C72.2031 35.2261 71.7214 35.3042 71.1641 35.3042ZM79.7266 31.0151V30.8354C79.7266 30.2261 79.8151 29.661 79.9922 29.1401C80.1693 28.6141 80.4245 28.1584 80.7578 27.7729C81.0911 27.3823 81.4948 27.0802 81.9688 26.8667C82.4427 26.6479 82.974 26.5386 83.5625 26.5386C84.1562 26.5386 84.6901 26.6479 85.1641 26.8667C85.6432 27.0802 86.0495 27.3823 86.3828 27.7729C86.7214 28.1584 86.9792 28.6141 87.1562 29.1401C87.3333 29.661 87.4219 30.2261 87.4219 30.8354V31.0151C87.4219 31.6245 87.3333 32.1896 87.1562 32.7104C86.9792 33.2313 86.7214 33.687 86.3828 34.0776C86.0495 34.4631 85.6458 34.7651 85.1719 34.9839C84.7031 35.1974 84.1719 35.3042 83.5781 35.3042C82.9844 35.3042 82.4505 35.1974 81.9766 34.9839C81.5026 34.7651 81.0964 34.4631 80.7578 34.0776C80.4245 33.687 80.1693 33.2313 79.9922 32.7104C79.8151 32.1896 79.7266 31.6245 79.7266 31.0151ZM81.1719 30.8354V31.0151C81.1719 31.437 81.2214 31.8354 81.3203 32.2104C81.4193 32.5802 81.5677 32.9084 81.7656 33.1948C81.9688 33.4813 82.2214 33.7078 82.5234 33.8745C82.8255 34.036 83.1771 34.1167 83.5781 34.1167C83.974 34.1167 84.3203 34.036 84.6172 33.8745C84.9193 33.7078 85.1693 33.4813 85.3672 33.1948C85.5651 32.9084 85.7135 32.5802 85.8125 32.2104C85.9167 31.8354 85.9688 31.437 85.9688 31.0151V30.8354C85.9688 30.4188 85.9167 30.0256 85.8125 29.6558C85.7135 29.2808 85.5625 28.95 85.3594 28.6636C85.1615 28.3719 84.9115 28.1427 84.6094 27.9761C84.3125 27.8094 83.9635 27.7261 83.5625 27.7261C83.1667 27.7261 82.8177 27.8094 82.5156 27.9761C82.2188 28.1427 81.9688 28.3719 81.7656 28.6636C81.5677 28.95 81.4193 29.2808 81.3203 29.6558C81.2214 30.0256 81.1719 30.4188 81.1719 30.8354ZM93.8984 23.7729H95.3594L99.0859 33.0464L102.805 23.7729H104.273L99.6484 35.1479H98.5078L93.8984 23.7729ZM93.4219 23.7729H94.7109L94.9219 30.7104V35.1479H93.4219V23.7729ZM103.453 23.7729H104.742V35.1479H103.242V30.7104L103.453 23.7729ZM112.156 33.7026V29.3511C112.156 29.0177 112.089 28.7287 111.953 28.4839C111.823 28.2339 111.625 28.0412 111.359 27.9058C111.094 27.7703 110.766 27.7026 110.375 27.7026C110.01 27.7026 109.69 27.7651 109.414 27.8901C109.143 28.0151 108.93 28.1792 108.773 28.3823C108.622 28.5854 108.547 28.8042 108.547 29.0386H107.102C107.102 28.7365 107.18 28.437 107.336 28.1401C107.492 27.8433 107.716 27.575 108.008 27.3354C108.305 27.0907 108.659 26.8979 109.07 26.7573C109.487 26.6115 109.951 26.5386 110.461 26.5386C111.076 26.5386 111.617 26.6427 112.086 26.8511C112.56 27.0594 112.93 27.3745 113.195 27.7964C113.466 28.2131 113.602 28.7365 113.602 29.3667V33.3042C113.602 33.5854 113.625 33.8849 113.672 34.2026C113.724 34.5203 113.799 34.7938 113.898 35.0229V35.1479H112.391C112.318 34.9813 112.26 34.7599 112.219 34.4839C112.177 34.2026 112.156 33.9422 112.156 33.7026ZM112.406 30.0229L112.422 31.0386H110.961C110.549 31.0386 110.182 31.0724 109.859 31.1401C109.536 31.2026 109.266 31.299 109.047 31.4292C108.828 31.5594 108.661 31.7235 108.547 31.9214C108.432 32.1141 108.375 32.3407 108.375 32.6011C108.375 32.8667 108.435 33.1089 108.555 33.3276C108.674 33.5464 108.854 33.7209 109.094 33.8511C109.339 33.9761 109.638 34.0386 109.992 34.0386C110.435 34.0386 110.826 33.9448 111.164 33.7573C111.503 33.5698 111.771 33.3407 111.969 33.0698C112.172 32.799 112.281 32.536 112.297 32.2808L112.914 32.9761C112.878 33.1948 112.779 33.437 112.617 33.7026C112.456 33.9683 112.24 34.2235 111.969 34.4683C111.703 34.7078 111.385 34.9084 111.016 35.0698C110.651 35.2261 110.24 35.3042 109.781 35.3042C109.208 35.3042 108.706 35.1922 108.273 34.9683C107.846 34.7443 107.513 34.4448 107.273 34.0698C107.039 33.6896 106.922 33.2651 106.922 32.7964C106.922 32.3433 107.01 31.9448 107.188 31.6011C107.365 31.2521 107.62 30.9631 107.953 30.7339C108.286 30.4995 108.688 30.3224 109.156 30.2026C109.625 30.0828 110.148 30.0229 110.727 30.0229H112.406ZM120.797 32.9058C120.797 32.6974 120.75 32.5047 120.656 32.3276C120.568 32.1453 120.383 31.9813 120.102 31.8354C119.826 31.6844 119.409 31.5542 118.852 31.4448C118.383 31.3459 117.958 31.2287 117.578 31.0933C117.203 30.9578 116.883 30.7938 116.617 30.6011C116.357 30.4084 116.156 30.1818 116.016 29.9214C115.875 29.661 115.805 29.3563 115.805 29.0073C115.805 28.674 115.878 28.3589 116.023 28.062C116.174 27.7651 116.385 27.5021 116.656 27.2729C116.932 27.0438 117.263 26.8641 117.648 26.7339C118.034 26.6037 118.464 26.5386 118.938 26.5386C119.615 26.5386 120.193 26.6584 120.672 26.8979C121.151 27.1375 121.518 27.4578 121.773 27.8589C122.029 28.2547 122.156 28.6948 122.156 29.1792H120.711C120.711 28.9448 120.641 28.7183 120.5 28.4995C120.365 28.2756 120.164 28.0907 119.898 27.9448C119.638 27.799 119.318 27.7261 118.938 27.7261C118.536 27.7261 118.211 27.7886 117.961 27.9136C117.716 28.0334 117.536 28.187 117.422 28.3745C117.312 28.562 117.258 28.7599 117.258 28.9683C117.258 29.1245 117.284 29.2651 117.336 29.3901C117.393 29.5099 117.492 29.6219 117.633 29.7261C117.773 29.825 117.971 29.9188 118.227 30.0073C118.482 30.0959 118.807 30.1844 119.203 30.2729C119.896 30.4292 120.466 30.6167 120.914 30.8354C121.362 31.0542 121.695 31.3224 121.914 31.6401C122.133 31.9578 122.242 32.3433 122.242 32.7964C122.242 33.1662 122.164 33.5047 122.008 33.812C121.857 34.1193 121.635 34.3849 121.344 34.6089C121.057 34.8276 120.714 34.9995 120.312 35.1245C119.917 35.2443 119.471 35.3042 118.977 35.3042C118.232 35.3042 117.602 35.1714 117.086 34.9058C116.57 34.6401 116.18 34.2964 115.914 33.8745C115.648 33.4526 115.516 33.0073 115.516 32.5386H116.969C116.99 32.9344 117.104 33.2495 117.312 33.4839C117.521 33.7131 117.776 33.8771 118.078 33.9761C118.38 34.0698 118.68 34.1167 118.977 34.1167C119.372 34.1167 119.703 34.0646 119.969 33.9604C120.24 33.8563 120.445 33.7131 120.586 33.5308C120.727 33.3485 120.797 33.1401 120.797 32.9058ZM127.68 26.6948V27.8042H123.109V26.6948H127.68ZM124.656 24.6401H126.102V33.0542C126.102 33.3407 126.146 33.5568 126.234 33.7026C126.323 33.8485 126.438 33.9448 126.578 33.9917C126.719 34.0386 126.87 34.062 127.031 34.062C127.151 34.062 127.276 34.0516 127.406 34.0308C127.542 34.0047 127.643 33.9839 127.711 33.9683L127.719 35.1479C127.604 35.1844 127.453 35.2183 127.266 35.2495C127.083 35.286 126.862 35.3042 126.602 35.3042C126.247 35.3042 125.922 35.2339 125.625 35.0933C125.328 34.9526 125.091 34.7183 124.914 34.3901C124.742 34.0568 124.656 33.6089 124.656 33.0464V24.6401ZM132.883 35.3042C132.294 35.3042 131.76 35.2052 131.281 35.0073C130.807 34.8042 130.398 34.5203 130.055 34.1558C129.716 33.7912 129.456 33.3589 129.273 32.8589C129.091 32.3589 129 31.812 129 31.2183V30.8901C129 30.2026 129.102 29.5907 129.305 29.0542C129.508 28.5125 129.784 28.0542 130.133 27.6792C130.482 27.3042 130.878 27.0203 131.32 26.8276C131.763 26.6349 132.221 26.5386 132.695 26.5386C133.299 26.5386 133.82 26.6427 134.258 26.8511C134.701 27.0594 135.062 27.3511 135.344 27.7261C135.625 28.0959 135.833 28.5334 135.969 29.0386C136.104 29.5386 136.172 30.0854 136.172 30.6792V31.3276H129.859V30.1479H134.727V30.0386C134.706 29.6636 134.628 29.299 134.492 28.9448C134.362 28.5907 134.154 28.299 133.867 28.0698C133.581 27.8407 133.19 27.7261 132.695 27.7261C132.367 27.7261 132.065 27.7964 131.789 27.937C131.513 28.0724 131.276 28.2756 131.078 28.5464C130.88 28.8172 130.727 29.1479 130.617 29.5386C130.508 29.9292 130.453 30.3797 130.453 30.8901V31.2183C130.453 31.6193 130.508 31.9969 130.617 32.3511C130.732 32.7 130.896 33.0073 131.109 33.2729C131.328 33.5386 131.591 33.7469 131.898 33.8979C132.211 34.049 132.565 34.1245 132.961 34.1245C133.471 34.1245 133.904 34.0203 134.258 33.812C134.612 33.6037 134.922 33.325 135.188 32.9761L136.062 33.6714C135.88 33.9474 135.648 34.2104 135.367 34.4604C135.086 34.7104 134.74 34.9136 134.328 35.0698C133.922 35.2261 133.44 35.3042 132.883 35.3042ZM139.305 28.0229V35.1479H137.859V26.6948H139.266L139.305 28.0229ZM141.945 26.6479L141.938 27.9917C141.818 27.9657 141.703 27.95 141.594 27.9448C141.49 27.9344 141.37 27.9292 141.234 27.9292C140.901 27.9292 140.607 27.9813 140.352 28.0854C140.096 28.1896 139.88 28.3354 139.703 28.5229C139.526 28.7104 139.385 28.9344 139.281 29.1948C139.182 29.45 139.117 29.7313 139.086 30.0386L138.68 30.2729C138.68 29.7625 138.729 29.2834 138.828 28.8354C138.932 28.3875 139.091 27.9917 139.305 27.6479C139.518 27.299 139.789 27.0282 140.117 26.8354C140.451 26.6375 140.846 26.5386 141.305 26.5386C141.409 26.5386 141.529 26.5516 141.664 26.5776C141.799 26.5985 141.893 26.6219 141.945 26.6479ZM149.82 33.8433L152.133 26.6948H153.609L150.57 35.1479H149.602L149.82 33.8433ZM147.891 26.6948L150.273 33.8823L150.438 35.1479H149.469L146.406 26.6948H147.891ZM159.859 33.7026V29.3511C159.859 29.0177 159.792 28.7287 159.656 28.4839C159.526 28.2339 159.328 28.0412 159.062 27.9058C158.797 27.7703 158.469 27.7026 158.078 27.7026C157.714 27.7026 157.393 27.7651 157.117 27.8901C156.846 28.0151 156.633 28.1792 156.477 28.3823C156.326 28.5854 156.25 28.8042 156.25 29.0386H154.805C154.805 28.7365 154.883 28.437 155.039 28.1401C155.195 27.8433 155.419 27.575 155.711 27.3354C156.008 27.0907 156.362 26.8979 156.773 26.7573C157.19 26.6115 157.654 26.5386 158.164 26.5386C158.779 26.5386 159.32 26.6427 159.789 26.8511C160.263 27.0594 160.633 27.3745 160.898 27.7964C161.169 28.2131 161.305 28.7365 161.305 29.3667V33.3042C161.305 33.5854 161.328 33.8849 161.375 34.2026C161.427 34.5203 161.503 34.7938 161.602 35.0229V35.1479H160.094C160.021 34.9813 159.964 34.7599 159.922 34.4839C159.88 34.2026 159.859 33.9422 159.859 33.7026ZM160.109 30.0229L160.125 31.0386H158.664C158.253 31.0386 157.885 31.0724 157.562 31.1401C157.24 31.2026 156.969 31.299 156.75 31.4292C156.531 31.5594 156.365 31.7235 156.25 31.9214C156.135 32.1141 156.078 32.3407 156.078 32.6011C156.078 32.8667 156.138 33.1089 156.258 33.3276C156.378 33.5464 156.557 33.7209 156.797 33.8511C157.042 33.9761 157.341 34.0386 157.695 34.0386C158.138 34.0386 158.529 33.9448 158.867 33.7573C159.206 33.5698 159.474 33.3407 159.672 33.0698C159.875 32.799 159.984 32.536 160 32.2808L160.617 32.9761C160.581 33.1948 160.482 33.437 160.32 33.7026C160.159 33.9683 159.943 34.2235 159.672 34.4683C159.406 34.7078 159.089 34.9084 158.719 35.0698C158.354 35.2261 157.943 35.3042 157.484 35.3042C156.911 35.3042 156.409 35.1922 155.977 34.9683C155.549 34.7443 155.216 34.4448 154.977 34.0698C154.742 33.6896 154.625 33.2651 154.625 32.7964C154.625 32.3433 154.714 31.9448 154.891 31.6011C155.068 31.2521 155.323 30.9631 155.656 30.7339C155.99 30.4995 156.391 30.3224 156.859 30.2026C157.328 30.0828 157.852 30.0229 158.43 30.0229H160.109ZM165.148 23.1479V35.1479H163.695V23.1479H165.148ZM169.039 26.6948V35.1479H167.586V26.6948H169.039ZM167.477 24.4526C167.477 24.2183 167.547 24.0203 167.688 23.8589C167.833 23.6974 168.047 23.6167 168.328 23.6167C168.604 23.6167 168.815 23.6974 168.961 23.8589C169.112 24.0203 169.188 24.2183 169.188 24.4526C169.188 24.6766 169.112 24.8693 168.961 25.0308C168.815 25.187 168.604 25.2651 168.328 25.2651C168.047 25.2651 167.833 25.187 167.688 25.0308C167.547 24.8693 167.477 24.6766 167.477 24.4526ZM176.688 33.5073V23.1479H178.141V35.1479H176.812L176.688 33.5073ZM171 31.0151V30.8511C171 30.2052 171.078 29.6193 171.234 29.0933C171.396 28.562 171.622 28.1063 171.914 27.7261C172.211 27.3459 172.562 27.0542 172.969 26.8511C173.38 26.6427 173.839 26.5386 174.344 26.5386C174.875 26.5386 175.339 26.6323 175.734 26.8198C176.135 27.0021 176.474 27.2703 176.75 27.6245C177.031 27.9735 177.253 28.3953 177.414 28.8901C177.576 29.3849 177.688 29.9448 177.75 30.5698V31.2886C177.693 31.9084 177.581 32.4657 177.414 32.9604C177.253 33.4552 177.031 33.8771 176.75 34.2261C176.474 34.575 176.135 34.8433 175.734 35.0308C175.333 35.2131 174.865 35.3042 174.328 35.3042C173.833 35.3042 173.38 35.1974 172.969 34.9839C172.562 34.7703 172.211 34.4709 171.914 34.0854C171.622 33.7 171.396 33.2469 171.234 32.7261C171.078 32.2 171 31.6297 171 31.0151ZM172.453 30.8511V31.0151C172.453 31.437 172.495 31.8328 172.578 32.2026C172.667 32.5724 172.802 32.8979 172.984 33.1792C173.167 33.4604 173.398 33.6818 173.68 33.8433C173.961 33.9995 174.297 34.0776 174.688 34.0776C175.167 34.0776 175.56 33.9761 175.867 33.7729C176.18 33.5698 176.43 33.3016 176.617 32.9683C176.805 32.6349 176.951 32.2729 177.055 31.8823V29.9995C176.992 29.7131 176.901 29.437 176.781 29.1714C176.667 28.9006 176.516 28.661 176.328 28.4526C176.146 28.2391 175.919 28.0698 175.648 27.9448C175.383 27.8198 175.068 27.7573 174.703 27.7573C174.307 27.7573 173.966 27.8407 173.68 28.0073C173.398 28.1688 173.167 28.3927 172.984 28.6792C172.802 28.9604 172.667 29.2886 172.578 29.6636C172.495 30.0334 172.453 30.4292 172.453 30.8511ZM185.375 33.7026V29.3511C185.375 29.0177 185.307 28.7287 185.172 28.4839C185.042 28.2339 184.844 28.0412 184.578 27.9058C184.312 27.7703 183.984 27.7026 183.594 27.7026C183.229 27.7026 182.909 27.7651 182.633 27.8901C182.362 28.0151 182.148 28.1792 181.992 28.3823C181.841 28.5854 181.766 28.8042 181.766 29.0386H180.32C180.32 28.7365 180.398 28.437 180.555 28.1401C180.711 27.8433 180.935 27.575 181.227 27.3354C181.523 27.0907 181.878 26.8979 182.289 26.7573C182.706 26.6115 183.169 26.5386 183.68 26.5386C184.294 26.5386 184.836 26.6427 185.305 26.8511C185.779 27.0594 186.148 27.3745 186.414 27.7964C186.685 28.2131 186.82 28.7365 186.82 29.3667V33.3042C186.82 33.5854 186.844 33.8849 186.891 34.2026C186.943 34.5203 187.018 34.7938 187.117 35.0229V35.1479H185.609C185.536 34.9813 185.479 34.7599 185.438 34.4839C185.396 34.2026 185.375 33.9422 185.375 33.7026ZM185.625 30.0229L185.641 31.0386H184.18C183.768 31.0386 183.401 31.0724 183.078 31.1401C182.755 31.2026 182.484 31.299 182.266 31.4292C182.047 31.5594 181.88 31.7235 181.766 31.9214C181.651 32.1141 181.594 32.3407 181.594 32.6011C181.594 32.8667 181.654 33.1089 181.773 33.3276C181.893 33.5464 182.073 33.7209 182.312 33.8511C182.557 33.9761 182.857 34.0386 183.211 34.0386C183.654 34.0386 184.044 33.9448 184.383 33.7573C184.721 33.5698 184.99 33.3407 185.188 33.0698C185.391 32.799 185.5 32.536 185.516 32.2808L186.133 32.9761C186.096 33.1948 185.997 33.437 185.836 33.7026C185.674 33.9683 185.458 34.2235 185.188 34.4683C184.922 34.7078 184.604 34.9084 184.234 35.0698C183.87 35.2261 183.458 35.3042 183 35.3042C182.427 35.3042 181.924 35.1922 181.492 34.9683C181.065 34.7443 180.732 34.4448 180.492 34.0698C180.258 33.6896 180.141 33.2651 180.141 32.7964C180.141 32.3433 180.229 31.9448 180.406 31.6011C180.583 31.2521 180.839 30.9631 181.172 30.7339C181.505 30.4995 181.906 30.3224 182.375 30.2026C182.844 30.0828 183.367 30.0229 183.945 30.0229H185.625ZM190.539 28.0229V35.1479H189.094V26.6948H190.5L190.539 28.0229ZM193.18 26.6479L193.172 27.9917C193.052 27.9657 192.938 27.95 192.828 27.9448C192.724 27.9344 192.604 27.9292 192.469 27.9292C192.135 27.9292 191.841 27.9813 191.586 28.0854C191.331 28.1896 191.115 28.3354 190.938 28.5229C190.76 28.7104 190.62 28.9344 190.516 29.1948C190.417 29.45 190.352 29.7313 190.32 30.0386L189.914 30.2729C189.914 29.7625 189.964 29.2834 190.062 28.8354C190.167 28.3875 190.326 27.9917 190.539 27.6479C190.753 27.299 191.023 27.0282 191.352 26.8354C191.685 26.6375 192.081 26.5386 192.539 26.5386C192.643 26.5386 192.763 26.5516 192.898 26.5776C193.034 26.5985 193.128 26.6219 193.18 26.6479ZM203.406 32.9058C203.406 32.6974 203.359 32.5047 203.266 32.3276C203.177 32.1453 202.992 31.9813 202.711 31.8354C202.435 31.6844 202.018 31.5542 201.461 31.4448C200.992 31.3459 200.568 31.2287 200.188 31.0933C199.812 30.9578 199.492 30.7938 199.227 30.6011C198.966 30.4084 198.766 30.1818 198.625 29.9214C198.484 29.661 198.414 29.3563 198.414 29.0073C198.414 28.674 198.487 28.3589 198.633 28.062C198.784 27.7651 198.995 27.5021 199.266 27.2729C199.542 27.0438 199.872 26.8641 200.258 26.7339C200.643 26.6037 201.073 26.5386 201.547 26.5386C202.224 26.5386 202.802 26.6584 203.281 26.8979C203.76 27.1375 204.128 27.4578 204.383 27.8589C204.638 28.2547 204.766 28.6948 204.766 29.1792H203.32C203.32 28.9448 203.25 28.7183 203.109 28.4995C202.974 28.2756 202.773 28.0907 202.508 27.9448C202.247 27.799 201.927 27.7261 201.547 27.7261C201.146 27.7261 200.82 27.7886 200.57 27.9136C200.326 28.0334 200.146 28.187 200.031 28.3745C199.922 28.562 199.867 28.7599 199.867 28.9683C199.867 29.1245 199.893 29.2651 199.945 29.3901C200.003 29.5099 200.102 29.6219 200.242 29.7261C200.383 29.825 200.581 29.9188 200.836 30.0073C201.091 30.0959 201.417 30.1844 201.812 30.2729C202.505 30.4292 203.076 30.6167 203.523 30.8354C203.971 31.0542 204.305 31.3224 204.523 31.6401C204.742 31.9578 204.852 32.3433 204.852 32.7964C204.852 33.1662 204.773 33.5047 204.617 33.812C204.466 34.1193 204.245 34.3849 203.953 34.6089C203.667 34.8276 203.323 34.9995 202.922 35.1245C202.526 35.2443 202.081 35.3042 201.586 35.3042C200.841 35.3042 200.211 35.1714 199.695 34.9058C199.18 34.6401 198.789 34.2964 198.523 33.8745C198.258 33.4526 198.125 33.0073 198.125 32.5386H199.578C199.599 32.9344 199.714 33.2495 199.922 33.4839C200.13 33.7131 200.385 33.8771 200.688 33.9761C200.99 34.0698 201.289 34.1167 201.586 34.1167C201.982 34.1167 202.312 34.0646 202.578 33.9604C202.849 33.8563 203.055 33.7131 203.195 33.5308C203.336 33.3485 203.406 33.1401 203.406 32.9058ZM210.258 35.3042C209.669 35.3042 209.135 35.2052 208.656 35.0073C208.182 34.8042 207.773 34.5203 207.43 34.1558C207.091 33.7912 206.831 33.3589 206.648 32.8589C206.466 32.3589 206.375 31.812 206.375 31.2183V30.8901C206.375 30.2026 206.477 29.5907 206.68 29.0542C206.883 28.5125 207.159 28.0542 207.508 27.6792C207.857 27.3042 208.253 27.0203 208.695 26.8276C209.138 26.6349 209.596 26.5386 210.07 26.5386C210.674 26.5386 211.195 26.6427 211.633 26.8511C212.076 27.0594 212.438 27.3511 212.719 27.7261C213 28.0959 213.208 28.5334 213.344 29.0386C213.479 29.5386 213.547 30.0854 213.547 30.6792V31.3276H207.234V30.1479H212.102V30.0386C212.081 29.6636 212.003 29.299 211.867 28.9448C211.737 28.5907 211.529 28.299 211.242 28.0698C210.956 27.8407 210.565 27.7261 210.07 27.7261C209.742 27.7261 209.44 27.7964 209.164 27.937C208.888 28.0724 208.651 28.2756 208.453 28.5464C208.255 28.8172 208.102 29.1479 207.992 29.5386C207.883 29.9292 207.828 30.3797 207.828 30.8901V31.2183C207.828 31.6193 207.883 31.9969 207.992 32.3511C208.107 32.7 208.271 33.0073 208.484 33.2729C208.703 33.5386 208.966 33.7469 209.273 33.8979C209.586 34.049 209.94 34.1245 210.336 34.1245C210.846 34.1245 211.279 34.0203 211.633 33.812C211.987 33.6037 212.297 33.325 212.562 32.9761L213.438 33.6714C213.255 33.9474 213.023 34.2104 212.742 34.4604C212.461 34.7104 212.115 34.9136 211.703 35.0698C211.297 35.2261 210.815 35.3042 210.258 35.3042ZM220.406 33.1948V26.6948H221.859V35.1479H220.477L220.406 33.1948ZM220.68 31.4136L221.281 31.3979C221.281 31.9604 221.221 32.4813 221.102 32.9604C220.987 33.4344 220.799 33.8459 220.539 34.1948C220.279 34.5438 219.938 34.8172 219.516 35.0151C219.094 35.2078 218.581 35.3042 217.977 35.3042C217.565 35.3042 217.188 35.2443 216.844 35.1245C216.505 35.0047 216.214 34.8198 215.969 34.5698C215.724 34.3198 215.534 33.9943 215.398 33.5933C215.268 33.1922 215.203 32.7104 215.203 32.1479V26.6948H216.648V32.1636C216.648 32.5438 216.69 32.8589 216.773 33.1089C216.862 33.3537 216.979 33.549 217.125 33.6948C217.276 33.8354 217.443 33.9344 217.625 33.9917C217.812 34.049 218.005 34.0776 218.203 34.0776C218.818 34.0776 219.305 33.9604 219.664 33.7261C220.023 33.4865 220.281 33.1662 220.438 32.7651C220.599 32.3589 220.68 31.9084 220.68 31.4136ZM4.25781 53.1167C4.60156 53.1167 4.91927 53.0464 5.21094 52.9058C5.5026 52.7651 5.74219 52.5724 5.92969 52.3276C6.11719 52.0776 6.22396 51.7938 6.25 51.4761H7.625C7.59896 51.9761 7.42969 52.4422 7.11719 52.8745C6.8099 53.3016 6.40625 53.6479 5.90625 53.9136C5.40625 54.174 4.85677 54.3042 4.25781 54.3042C3.6224 54.3042 3.06771 54.1922 2.59375 53.9683C2.125 53.7443 1.73438 53.437 1.42188 53.0464C1.11458 52.6558 0.882812 52.2078 0.726562 51.7026C0.575521 51.1922 0.5 50.6532 0.5 50.0854V49.7573C0.5 49.1896 0.575521 48.6532 0.726562 48.1479C0.882812 47.6375 1.11458 47.187 1.42188 46.7964C1.73438 46.4058 2.125 46.0985 2.59375 45.8745C3.06771 45.6506 3.6224 45.5386 4.25781 45.5386C4.91927 45.5386 5.4974 45.674 5.99219 45.9448C6.48698 46.2104 6.875 46.575 7.15625 47.0386C7.44271 47.4969 7.59896 48.0177 7.625 48.6011H6.25C6.22396 48.2521 6.125 47.937 5.95312 47.6558C5.78646 47.3745 5.55729 47.1506 5.26562 46.9839C4.97917 46.812 4.64323 46.7261 4.25781 46.7261C3.8151 46.7261 3.44271 46.8146 3.14062 46.9917C2.84375 47.1636 2.60677 47.3979 2.42969 47.6948C2.25781 47.9865 2.13281 48.312 2.05469 48.6714C1.98177 49.0256 1.94531 49.3875 1.94531 49.7573V50.0854C1.94531 50.4552 1.98177 50.8198 2.05469 51.1792C2.1276 51.5386 2.25 51.8641 2.42188 52.1558C2.59896 52.4474 2.83594 52.6818 3.13281 52.8589C3.4349 53.0308 3.8099 53.1167 4.25781 53.1167ZM14.2344 52.7026V48.3511C14.2344 48.0177 14.1667 47.7287 14.0312 47.4839C13.901 47.2339 13.7031 47.0412 13.4375 46.9058C13.1719 46.7703 12.8438 46.7026 12.4531 46.7026C12.0885 46.7026 11.7682 46.7651 11.4922 46.8901C11.2214 47.0151 11.0078 47.1792 10.8516 47.3823C10.7005 47.5854 10.625 47.8042 10.625 48.0386H9.17969C9.17969 47.7365 9.25781 47.437 9.41406 47.1401C9.57031 46.8433 9.79427 46.575 10.0859 46.3354C10.3828 46.0907 10.737 45.8979 11.1484 45.7573C11.5651 45.6115 12.0286 45.5386 12.5391 45.5386C13.1536 45.5386 13.6953 45.6427 14.1641 45.8511C14.638 46.0594 15.0078 46.3745 15.2734 46.7964C15.5443 47.2131 15.6797 47.7365 15.6797 48.3667V52.3042C15.6797 52.5854 15.7031 52.8849 15.75 53.2026C15.8021 53.5203 15.8776 53.7938 15.9766 54.0229V54.1479H14.4688C14.3958 53.9813 14.3385 53.7599 14.2969 53.4839C14.2552 53.2026 14.2344 52.9422 14.2344 52.7026ZM14.4844 49.0229L14.5 50.0386H13.0391C12.6276 50.0386 12.2604 50.0724 11.9375 50.1401C11.6146 50.2026 11.3438 50.299 11.125 50.4292C10.9062 50.5594 10.7396 50.7235 10.625 50.9214C10.5104 51.1141 10.4531 51.3407 10.4531 51.6011C10.4531 51.8667 10.513 52.1089 10.6328 52.3276C10.7526 52.5464 10.9323 52.7209 11.1719 52.8511C11.4167 52.9761 11.7161 53.0386 12.0703 53.0386C12.513 53.0386 12.9036 52.9448 13.2422 52.7573C13.5807 52.5698 13.849 52.3407 14.0469 52.0698C14.25 51.799 14.3594 51.536 14.375 51.2808L14.9922 51.9761C14.9557 52.1948 14.8568 52.437 14.6953 52.7026C14.5339 52.9683 14.3177 53.2235 14.0469 53.4683C13.7812 53.7078 13.4635 53.9084 13.0938 54.0698C12.7292 54.2261 12.3177 54.3042 11.8594 54.3042C11.2865 54.3042 10.7839 54.1922 10.3516 53.9683C9.92448 53.7443 9.59115 53.4448 9.35156 53.0698C9.11719 52.6896 9 52.2651 9 51.7964C9 51.3433 9.08854 50.9448 9.26562 50.6011C9.44271 50.2521 9.69792 49.9631 10.0312 49.7339C10.3646 49.4995 10.7656 49.3224 11.2344 49.2026C11.7031 49.0828 12.2266 49.0229 12.8047 49.0229H14.4844ZM23.2812 52.5073V42.1479H24.7344V54.1479H23.4062L23.2812 52.5073ZM17.5938 50.0151V49.8511C17.5938 49.2052 17.6719 48.6193 17.8281 48.0933C17.9896 47.562 18.2161 47.1063 18.5078 46.7261C18.8047 46.3459 19.1562 46.0542 19.5625 45.8511C19.974 45.6427 20.4323 45.5386 20.9375 45.5386C21.4688 45.5386 21.9323 45.6323 22.3281 45.8198C22.7292 46.0021 23.0677 46.2703 23.3438 46.6245C23.625 46.9735 23.8464 47.3953 24.0078 47.8901C24.1693 48.3849 24.2812 48.9448 24.3438 49.5698V50.2886C24.2865 50.9084 24.1745 51.4657 24.0078 51.9604C23.8464 52.4552 23.625 52.8771 23.3438 53.2261C23.0677 53.575 22.7292 53.8433 22.3281 54.0308C21.9271 54.2131 21.4583 54.3042 20.9219 54.3042C20.4271 54.3042 19.974 54.1974 19.5625 53.9839C19.1562 53.7703 18.8047 53.4709 18.5078 53.0854C18.2161 52.7 17.9896 52.2469 17.8281 51.7261C17.6719 51.2 17.5938 50.6297 17.5938 50.0151ZM19.0469 49.8511V50.0151C19.0469 50.437 19.0885 50.8328 19.1719 51.2026C19.2604 51.5724 19.3958 51.8979 19.5781 52.1792C19.7604 52.4604 19.9922 52.6818 20.2734 52.8433C20.5547 52.9995 20.8906 53.0776 21.2812 53.0776C21.7604 53.0776 22.1536 52.9761 22.4609 52.7729C22.7734 52.5698 23.0234 52.3016 23.2109 51.9683C23.3984 51.6349 23.5443 51.2729 23.6484 50.8823V48.9995C23.5859 48.7131 23.4948 48.437 23.375 48.1714C23.2604 47.9006 23.1094 47.661 22.9219 47.4526C22.7396 47.2391 22.513 47.0698 22.2422 46.9448C21.9766 46.8198 21.6615 46.7573 21.2969 46.7573C20.901 46.7573 20.5599 46.8407 20.2734 47.0073C19.9922 47.1688 19.7604 47.3927 19.5781 47.6792C19.3958 47.9604 19.2604 48.2886 19.1719 48.6636C19.0885 49.0334 19.0469 49.4292 19.0469 49.8511ZM31.9688 52.7026V48.3511C31.9688 48.0177 31.901 47.7287 31.7656 47.4839C31.6354 47.2339 31.4375 47.0412 31.1719 46.9058C30.9062 46.7703 30.5781 46.7026 30.1875 46.7026C29.8229 46.7026 29.5026 46.7651 29.2266 46.8901C28.9557 47.0151 28.7422 47.1792 28.5859 47.3823C28.4349 47.5854 28.3594 47.8042 28.3594 48.0386H26.9141C26.9141 47.7365 26.9922 47.437 27.1484 47.1401C27.3047 46.8433 27.5286 46.575 27.8203 46.3354C28.1172 46.0907 28.4714 45.8979 28.8828 45.7573C29.2995 45.6115 29.763 45.5386 30.2734 45.5386C30.888 45.5386 31.4297 45.6427 31.8984 45.8511C32.3724 46.0594 32.7422 46.3745 33.0078 46.7964C33.2786 47.2131 33.4141 47.7365 33.4141 48.3667V52.3042C33.4141 52.5854 33.4375 52.8849 33.4844 53.2026C33.5365 53.5203 33.612 53.7938 33.7109 54.0229V54.1479H32.2031C32.1302 53.9813 32.0729 53.7599 32.0312 53.4839C31.9896 53.2026 31.9688 52.9422 31.9688 52.7026ZM32.2188 49.0229L32.2344 50.0386H30.7734C30.362 50.0386 29.9948 50.0724 29.6719 50.1401C29.349 50.2026 29.0781 50.299 28.8594 50.4292C28.6406 50.5594 28.474 50.7235 28.3594 50.9214C28.2448 51.1141 28.1875 51.3407 28.1875 51.6011C28.1875 51.8667 28.2474 52.1089 28.3672 52.3276C28.487 52.5464 28.6667 52.7209 28.9062 52.8511C29.151 52.9761 29.4505 53.0386 29.8047 53.0386C30.2474 53.0386 30.638 52.9448 30.9766 52.7573C31.3151 52.5698 31.5833 52.3407 31.7812 52.0698C31.9844 51.799 32.0938 51.536 32.1094 51.2808L32.7266 51.9761C32.6901 52.1948 32.5911 52.437 32.4297 52.7026C32.2682 52.9683 32.0521 53.2235 31.7812 53.4683C31.5156 53.7078 31.1979 53.9084 30.8281 54.0698C30.4635 54.2261 30.0521 54.3042 29.5938 54.3042C29.0208 54.3042 28.5182 54.1922 28.0859 53.9683C27.6589 53.7443 27.3255 53.4448 27.0859 53.0698C26.8516 52.6896 26.7344 52.2651 26.7344 51.7964C26.7344 51.3433 26.8229 50.9448 27 50.6011C27.1771 50.2521 27.4323 49.9631 27.7656 49.7339C28.099 49.4995 28.5 49.3224 28.9688 49.2026C29.4375 49.0828 29.9609 49.0229 30.5391 49.0229H32.2188ZM40.6094 51.9058C40.6094 51.6974 40.5625 51.5047 40.4688 51.3276C40.3802 51.1453 40.1953 50.9813 39.9141 50.8354C39.638 50.6844 39.2214 50.5542 38.6641 50.4448C38.1953 50.3459 37.7708 50.2287 37.3906 50.0933C37.0156 49.9578 36.6953 49.7938 36.4297 49.6011C36.1693 49.4084 35.9688 49.1818 35.8281 48.9214C35.6875 48.661 35.6172 48.3563 35.6172 48.0073C35.6172 47.674 35.6901 47.3589 35.8359 47.062C35.987 46.7651 36.1979 46.5021 36.4688 46.2729C36.7448 46.0438 37.0755 45.8641 37.4609 45.7339C37.8464 45.6037 38.276 45.5386 38.75 45.5386C39.4271 45.5386 40.0052 45.6584 40.4844 45.8979C40.9635 46.1375 41.3307 46.4578 41.5859 46.8589C41.8411 47.2547 41.9688 47.6948 41.9688 48.1792H40.5234C40.5234 47.9448 40.4531 47.7183 40.3125 47.4995C40.1771 47.2756 39.9766 47.0907 39.7109 46.9448C39.4505 46.799 39.1302 46.7261 38.75 46.7261C38.349 46.7261 38.0234 46.7886 37.7734 46.9136C37.5286 47.0334 37.349 47.187 37.2344 47.3745C37.125 47.562 37.0703 47.7599 37.0703 47.9683C37.0703 48.1245 37.0964 48.2651 37.1484 48.3901C37.2057 48.5099 37.3047 48.6219 37.4453 48.7261C37.5859 48.825 37.7839 48.9188 38.0391 49.0073C38.2943 49.0959 38.6198 49.1844 39.0156 49.2729C39.7083 49.4292 40.2786 49.6167 40.7266 49.8354C41.1745 50.0542 41.5078 50.3224 41.7266 50.6401C41.9453 50.9578 42.0547 51.3433 42.0547 51.7964C42.0547 52.1662 41.9766 52.5047 41.8203 52.812C41.6693 53.1193 41.4479 53.3849 41.1562 53.6089C40.8698 53.8276 40.526 53.9995 40.125 54.1245C39.7292 54.2443 39.2839 54.3042 38.7891 54.3042C38.0443 54.3042 37.4141 54.1714 36.8984 53.9058C36.3828 53.6401 35.9922 53.2964 35.7266 52.8745C35.4609 52.4526 35.3281 52.0073 35.3281 51.5386H36.7812C36.8021 51.9344 36.9167 52.2495 37.125 52.4839C37.3333 52.7131 37.5885 52.8771 37.8906 52.9761C38.1927 53.0698 38.4922 53.1167 38.7891 53.1167C39.1849 53.1167 39.5156 53.0646 39.7812 52.9604C40.0521 52.8563 40.2578 52.7131 40.3984 52.5308C40.5391 52.3485 40.6094 52.1401 40.6094 51.9058ZM47.4922 45.6948V46.8042H42.9219V45.6948H47.4922ZM44.4688 43.6401H45.9141V52.0542C45.9141 52.3407 45.9583 52.5568 46.0469 52.7026C46.1354 52.8485 46.25 52.9448 46.3906 52.9917C46.5312 53.0386 46.6823 53.062 46.8438 53.062C46.9635 53.062 47.0885 53.0516 47.2188 53.0308C47.3542 53.0047 47.4557 52.9839 47.5234 52.9683L47.5312 54.1479C47.4167 54.1844 47.2656 54.2183 47.0781 54.2495C46.8958 54.286 46.6745 54.3042 46.4141 54.3042C46.0599 54.3042 45.7344 54.2339 45.4375 54.0933C45.1406 53.9526 44.9036 53.7183 44.7266 53.3901C44.5547 53.0568 44.4688 52.6089 44.4688 52.0464V43.6401ZM50.6328 47.0229V54.1479H49.1875V45.6948H50.5938L50.6328 47.0229ZM53.2734 45.6479L53.2656 46.9917C53.1458 46.9657 53.0312 46.95 52.9219 46.9448C52.8177 46.9344 52.6979 46.9292 52.5625 46.9292C52.2292 46.9292 51.9349 46.9813 51.6797 47.0854C51.4245 47.1896 51.2083 47.3354 51.0312 47.5229C50.8542 47.7104 50.7135 47.9344 50.6094 48.1948C50.5104 48.45 50.4453 48.7313 50.4141 49.0386L50.0078 49.2729C50.0078 48.7625 50.0573 48.2834 50.1562 47.8354C50.2604 47.3875 50.4193 46.9917 50.6328 46.6479C50.8464 46.299 51.1172 46.0282 51.4453 45.8354C51.7786 45.6375 52.1745 45.5386 52.6328 45.5386C52.737 45.5386 52.8568 45.5516 52.9922 45.5776C53.1276 45.5985 53.2214 45.6219 53.2734 45.6479ZM54.0703 50.0151V49.8354C54.0703 49.2261 54.1589 48.661 54.3359 48.1401C54.513 47.6141 54.7682 47.1584 55.1016 46.7729C55.4349 46.3823 55.8385 46.0802 56.3125 45.8667C56.7865 45.6479 57.3177 45.5386 57.9062 45.5386C58.5 45.5386 59.0339 45.6479 59.5078 45.8667C59.987 46.0802 60.3932 46.3823 60.7266 46.7729C61.0651 47.1584 61.3229 47.6141 61.5 48.1401C61.6771 48.661 61.7656 49.2261 61.7656 49.8354V50.0151C61.7656 50.6245 61.6771 51.1896 61.5 51.7104C61.3229 52.2313 61.0651 52.687 60.7266 53.0776C60.3932 53.4631 59.9896 53.7651 59.5156 53.9839C59.0469 54.1974 58.5156 54.3042 57.9219 54.3042C57.3281 54.3042 56.7943 54.1974 56.3203 53.9839C55.8464 53.7651 55.4401 53.4631 55.1016 53.0776C54.7682 52.687 54.513 52.2313 54.3359 51.7104C54.1589 51.1896 54.0703 50.6245 54.0703 50.0151ZM55.5156 49.8354V50.0151C55.5156 50.437 55.5651 50.8354 55.6641 51.2104C55.763 51.5802 55.9115 51.9084 56.1094 52.1948C56.3125 52.4813 56.5651 52.7078 56.8672 52.8745C57.1693 53.036 57.5208 53.1167 57.9219 53.1167C58.3177 53.1167 58.6641 53.036 58.9609 52.8745C59.263 52.7078 59.513 52.4813 59.7109 52.1948C59.9089 51.9084 60.0573 51.5802 60.1562 51.2104C60.2604 50.8354 60.3125 50.437 60.3125 50.0151V49.8354C60.3125 49.4188 60.2604 49.0256 60.1562 48.6558C60.0573 48.2808 59.9062 47.95 59.7031 47.6636C59.5052 47.3719 59.2552 47.1427 58.9531 46.9761C58.6562 46.8094 58.3073 46.7261 57.9062 46.7261C57.5104 46.7261 57.1615 46.8094 56.8594 46.9761C56.5625 47.1427 56.3125 47.3719 56.1094 47.6636C55.9115 47.95 55.763 48.2808 55.6641 48.6558C55.5651 49.0256 55.5156 49.4188 55.5156 49.8354ZM70.1172 52.8433L72.4297 45.6948H73.9062L70.8672 54.1479H69.8984L70.1172 52.8433ZM68.1875 45.6948L70.5703 52.8823L70.7344 54.1479H69.7656L66.7031 45.6948H68.1875ZM74.7891 50.0151V49.8354C74.7891 49.2261 74.8776 48.661 75.0547 48.1401C75.2318 47.6141 75.487 47.1584 75.8203 46.7729C76.1536 46.3823 76.5573 46.0802 77.0312 45.8667C77.5052 45.6479 78.0365 45.5386 78.625 45.5386C79.2188 45.5386 79.7526 45.6479 80.2266 45.8667C80.7057 46.0802 81.112 46.3823 81.4453 46.7729C81.7839 47.1584 82.0417 47.6141 82.2188 48.1401C82.3958 48.661 82.4844 49.2261 82.4844 49.8354V50.0151C82.4844 50.6245 82.3958 51.1896 82.2188 51.7104C82.0417 52.2313 81.7839 52.687 81.4453 53.0776C81.112 53.4631 80.7083 53.7651 80.2344 53.9839C79.7656 54.1974 79.2344 54.3042 78.6406 54.3042C78.0469 54.3042 77.513 54.1974 77.0391 53.9839C76.5651 53.7651 76.1589 53.4631 75.8203 53.0776C75.487 52.687 75.2318 52.2313 75.0547 51.7104C74.8776 51.1896 74.7891 50.6245 74.7891 50.0151ZM76.2344 49.8354V50.0151C76.2344 50.437 76.2839 50.8354 76.3828 51.2104C76.4818 51.5802 76.6302 51.9084 76.8281 52.1948C77.0312 52.4813 77.2839 52.7078 77.5859 52.8745C77.888 53.036 78.2396 53.1167 78.6406 53.1167C79.0365 53.1167 79.3828 53.036 79.6797 52.8745C79.9818 52.7078 80.2318 52.4813 80.4297 52.1948C80.6276 51.9084 80.776 51.5802 80.875 51.2104C80.9792 50.8354 81.0312 50.437 81.0312 50.0151V49.8354C81.0312 49.4188 80.9792 49.0256 80.875 48.6558C80.776 48.2808 80.625 47.95 80.4219 47.6636C80.224 47.3719 79.974 47.1427 79.6719 46.9761C79.375 46.8094 79.026 46.7261 78.625 46.7261C78.2292 46.7261 77.8802 46.8094 77.5781 46.9761C77.2812 47.1427 77.0312 47.3719 76.8281 47.6636C76.6302 47.95 76.4818 48.2808 76.3828 48.6558C76.2839 49.0256 76.2344 49.4188 76.2344 49.8354ZM87.6797 53.1167C88.0234 53.1167 88.3411 53.0464 88.6328 52.9058C88.9245 52.7651 89.1641 52.5724 89.3516 52.3276C89.5391 52.0776 89.6458 51.7938 89.6719 51.4761H91.0469C91.0208 51.9761 90.8516 52.4422 90.5391 52.8745C90.2318 53.3016 89.8281 53.6479 89.3281 53.9136C88.8281 54.174 88.2786 54.3042 87.6797 54.3042C87.0443 54.3042 86.4896 54.1922 86.0156 53.9683C85.5469 53.7443 85.1562 53.437 84.8438 53.0464C84.5365 52.6558 84.3047 52.2078 84.1484 51.7026C83.9974 51.1922 83.9219 50.6532 83.9219 50.0854V49.7573C83.9219 49.1896 83.9974 48.6532 84.1484 48.1479C84.3047 47.6375 84.5365 47.187 84.8438 46.7964C85.1562 46.4058 85.5469 46.0985 86.0156 45.8745C86.4896 45.6506 87.0443 45.5386 87.6797 45.5386C88.3411 45.5386 88.9193 45.674 89.4141 45.9448C89.9089 46.2104 90.2969 46.575 90.5781 47.0386C90.8646 47.4969 91.0208 48.0177 91.0469 48.6011H89.6719C89.6458 48.2521 89.5469 47.937 89.375 47.6558C89.2083 47.3745 88.9792 47.1506 88.6875 46.9839C88.401 46.812 88.0651 46.7261 87.6797 46.7261C87.237 46.7261 86.8646 46.8146 86.5625 46.9917C86.2656 47.1636 86.0286 47.3979 85.8516 47.6948C85.6797 47.9865 85.5547 48.312 85.4766 48.6714C85.4036 49.0256 85.3672 49.3875 85.3672 49.7573V50.0854C85.3672 50.4552 85.4036 50.8198 85.4766 51.1792C85.5495 51.5386 85.6719 51.8641 85.8438 52.1558C86.0208 52.4474 86.2578 52.6818 86.5547 52.8589C86.8568 53.0308 87.2318 53.1167 87.6797 53.1167ZM96.1797 54.3042C95.5911 54.3042 95.0573 54.2052 94.5781 54.0073C94.1042 53.8042 93.6953 53.5203 93.3516 53.1558C93.013 52.7912 92.7526 52.3589 92.5703 51.8589C92.388 51.3589 92.2969 50.812 92.2969 50.2183V49.8901C92.2969 49.2026 92.3984 48.5907 92.6016 48.0542C92.8047 47.5125 93.0807 47.0542 93.4297 46.6792C93.7786 46.3042 94.1745 46.0203 94.6172 45.8276C95.0599 45.6349 95.5182 45.5386 95.9922 45.5386C96.5964 45.5386 97.1172 45.6427 97.5547 45.8511C97.9974 46.0594 98.3594 46.3511 98.6406 46.7261C98.9219 47.0959 99.1302 47.5334 99.2656 48.0386C99.401 48.5386 99.4688 49.0854 99.4688 49.6792V50.3276H93.1562V49.1479H98.0234V49.0386C98.0026 48.6636 97.9245 48.299 97.7891 47.9448C97.6589 47.5907 97.4505 47.299 97.1641 47.0698C96.8776 46.8407 96.487 46.7261 95.9922 46.7261C95.6641 46.7261 95.362 46.7964 95.0859 46.937C94.8099 47.0724 94.5729 47.2756 94.375 47.5464C94.1771 47.8172 94.0234 48.1479 93.9141 48.5386C93.8047 48.9292 93.75 49.3797 93.75 49.8901V50.2183C93.75 50.6193 93.8047 50.9969 93.9141 51.3511C94.0286 51.7 94.1927 52.0073 94.4062 52.2729C94.625 52.5386 94.888 52.7469 95.1953 52.8979C95.5078 53.049 95.862 53.1245 96.2578 53.1245C96.7682 53.1245 97.2005 53.0203 97.5547 52.812C97.9089 52.6037 98.2188 52.325 98.4844 51.9761L99.3594 52.6714C99.1771 52.9474 98.9453 53.2104 98.6641 53.4604C98.3828 53.7104 98.0365 53.9136 97.625 54.0698C97.2188 54.2261 96.737 54.3042 96.1797 54.3042ZM96.4219 42.1479L98.3594 44.2808V44.3589H97.1562L95.9844 43.0386L94.8203 44.3589H93.6328V44.2729L95.5469 42.1479H96.4219ZM110.047 51.9058C110.047 51.6974 110 51.5047 109.906 51.3276C109.818 51.1453 109.633 50.9813 109.352 50.8354C109.076 50.6844 108.659 50.5542 108.102 50.4448C107.633 50.3459 107.208 50.2287 106.828 50.0933C106.453 49.9578 106.133 49.7938 105.867 49.6011C105.607 49.4084 105.406 49.1818 105.266 48.9214C105.125 48.661 105.055 48.3563 105.055 48.0073C105.055 47.674 105.128 47.3589 105.273 47.062C105.424 46.7651 105.635 46.5021 105.906 46.2729C106.182 46.0438 106.513 45.8641 106.898 45.7339C107.284 45.6037 107.714 45.5386 108.188 45.5386C108.865 45.5386 109.443 45.6584 109.922 45.8979C110.401 46.1375 110.768 46.4578 111.023 46.8589C111.279 47.2547 111.406 47.6948 111.406 48.1792H109.961C109.961 47.9448 109.891 47.7183 109.75 47.4995C109.615 47.2756 109.414 47.0907 109.148 46.9448C108.888 46.799 108.568 46.7261 108.188 46.7261C107.786 46.7261 107.461 46.7886 107.211 46.9136C106.966 47.0334 106.786 47.187 106.672 47.3745C106.562 47.562 106.508 47.7599 106.508 47.9683C106.508 48.1245 106.534 48.2651 106.586 48.3901C106.643 48.5099 106.742 48.6219 106.883 48.7261C107.023 48.825 107.221 48.9188 107.477 49.0073C107.732 49.0959 108.057 49.1844 108.453 49.2729C109.146 49.4292 109.716 49.6167 110.164 49.8354C110.612 50.0542 110.945 50.3224 111.164 50.6401C111.383 50.9578 111.492 51.3433 111.492 51.7964C111.492 52.1662 111.414 52.5047 111.258 52.812C111.107 53.1193 110.885 53.3849 110.594 53.6089C110.307 53.8276 109.964 53.9995 109.562 54.1245C109.167 54.2443 108.721 54.3042 108.227 54.3042C107.482 54.3042 106.852 54.1714 106.336 53.9058C105.82 53.6401 105.43 53.2964 105.164 52.8745C104.898 52.4526 104.766 52.0073 104.766 51.5386H106.219C106.24 51.9344 106.354 52.2495 106.562 52.4839C106.771 52.7131 107.026 52.8771 107.328 52.9761C107.63 53.0698 107.93 53.1167 108.227 53.1167C108.622 53.1167 108.953 53.0646 109.219 52.9604C109.49 52.8563 109.695 52.7131 109.836 52.5308C109.977 52.3485 110.047 52.1401 110.047 51.9058ZM116.898 54.3042C116.31 54.3042 115.776 54.2052 115.297 54.0073C114.823 53.8042 114.414 53.5203 114.07 53.1558C113.732 52.7912 113.471 52.3589 113.289 51.8589C113.107 51.3589 113.016 50.812 113.016 50.2183V49.8901C113.016 49.2026 113.117 48.5907 113.32 48.0542C113.523 47.5125 113.799 47.0542 114.148 46.6792C114.497 46.3042 114.893 46.0203 115.336 45.8276C115.779 45.6349 116.237 45.5386 116.711 45.5386C117.315 45.5386 117.836 45.6427 118.273 45.8511C118.716 46.0594 119.078 46.3511 119.359 46.7261C119.641 47.0959 119.849 47.5334 119.984 48.0386C120.12 48.5386 120.188 49.0854 120.188 49.6792V50.3276H113.875V49.1479H118.742V49.0386C118.721 48.6636 118.643 48.299 118.508 47.9448C118.378 47.5907 118.169 47.299 117.883 47.0698C117.596 46.8407 117.206 46.7261 116.711 46.7261C116.383 46.7261 116.081 46.7964 115.805 46.937C115.529 47.0724 115.292 47.2756 115.094 47.5464C114.896 47.8172 114.742 48.1479 114.633 48.5386C114.523 48.9292 114.469 49.3797 114.469 49.8901V50.2183C114.469 50.6193 114.523 50.9969 114.633 51.3511C114.747 51.7 114.911 52.0073 115.125 52.2729C115.344 52.5386 115.607 52.7469 115.914 52.8979C116.227 53.049 116.581 53.1245 116.977 53.1245C117.487 53.1245 117.919 53.0203 118.273 52.812C118.628 52.6037 118.938 52.325 119.203 51.9761L120.078 52.6714C119.896 52.9474 119.664 53.2104 119.383 53.4604C119.102 53.7104 118.755 53.9136 118.344 54.0698C117.938 54.2261 117.456 54.3042 116.898 54.3042ZM123.32 47.0229V54.1479H121.875V45.6948H123.281L123.32 47.0229ZM125.961 45.6479L125.953 46.9917C125.833 46.9657 125.719 46.95 125.609 46.9448C125.505 46.9344 125.385 46.9292 125.25 46.9292C124.917 46.9292 124.622 46.9813 124.367 47.0854C124.112 47.1896 123.896 47.3354 123.719 47.5229C123.542 47.7104 123.401 47.9344 123.297 48.1948C123.198 48.45 123.133 48.7313 123.102 49.0386L122.695 49.2729C122.695 48.7625 122.745 48.2834 122.844 47.8354C122.948 47.3875 123.107 46.9917 123.32 46.6479C123.534 46.299 123.805 46.0282 124.133 45.8354C124.466 45.6375 124.862 45.5386 125.32 45.5386C125.424 45.5386 125.544 45.5516 125.68 45.5776C125.815 45.5985 125.909 45.6219 125.961 45.6479ZM131.969 52.7026V48.3511C131.969 48.0177 131.901 47.7287 131.766 47.4839C131.635 47.2339 131.438 47.0412 131.172 46.9058C130.906 46.7703 130.578 46.7026 130.188 46.7026C129.823 46.7026 129.503 46.7651 129.227 46.8901C128.956 47.0151 128.742 47.1792 128.586 47.3823C128.435 47.5854 128.359 47.8042 128.359 48.0386H126.914C126.914 47.7365 126.992 47.437 127.148 47.1401C127.305 46.8433 127.529 46.575 127.82 46.3354C128.117 46.0907 128.471 45.8979 128.883 45.7573C129.299 45.6115 129.763 45.5386 130.273 45.5386C130.888 45.5386 131.43 45.6427 131.898 45.8511C132.372 46.0594 132.742 46.3745 133.008 46.7964C133.279 47.2131 133.414 47.7365 133.414 48.3667V52.3042C133.414 52.5854 133.438 52.8849 133.484 53.2026C133.536 53.5203 133.612 53.7938 133.711 54.0229V54.1479H132.203C132.13 53.9813 132.073 53.7599 132.031 53.4839C131.99 53.2026 131.969 52.9422 131.969 52.7026ZM132.219 49.0229L132.234 50.0386H130.773C130.362 50.0386 129.995 50.0724 129.672 50.1401C129.349 50.2026 129.078 50.299 128.859 50.4292C128.641 50.5594 128.474 50.7235 128.359 50.9214C128.245 51.1141 128.188 51.3407 128.188 51.6011C128.188 51.8667 128.247 52.1089 128.367 52.3276C128.487 52.5464 128.667 52.7209 128.906 52.8511C129.151 52.9761 129.451 53.0386 129.805 53.0386C130.247 53.0386 130.638 52.9448 130.977 52.7573C131.315 52.5698 131.583 52.3407 131.781 52.0698C131.984 51.799 132.094 51.536 132.109 51.2808L132.727 51.9761C132.69 52.1948 132.591 52.437 132.43 52.7026C132.268 52.9683 132.052 53.2235 131.781 53.4683C131.516 53.7078 131.198 53.9084 130.828 54.0698C130.464 54.2261 130.052 54.3042 129.594 54.3042C129.021 54.3042 128.518 54.1922 128.086 53.9683C127.659 53.7443 127.326 53.4448 127.086 53.0698C126.852 52.6896 126.734 52.2651 126.734 51.7964C126.734 51.3433 126.823 50.9448 127 50.6011C127.177 50.2521 127.432 49.9631 127.766 49.7339C128.099 49.4995 128.5 49.3224 128.969 49.2026C129.438 49.0828 129.961 49.0229 130.539 49.0229H132.219ZM129.633 44.4448L131.148 42.1479H132.891L130.797 44.4448H129.633ZM141.227 45.6948V54.1479H139.773V45.6948H141.227ZM139.664 43.4526C139.664 43.2183 139.734 43.0203 139.875 42.8589C140.021 42.6974 140.234 42.6167 140.516 42.6167C140.792 42.6167 141.003 42.6974 141.148 42.8589C141.299 43.0203 141.375 43.2183 141.375 43.4526C141.375 43.6766 141.299 43.8693 141.148 44.0308C141.003 44.187 140.792 44.2651 140.516 44.2651C140.234 44.2651 140.021 44.187 139.875 44.0308C139.734 43.8693 139.664 43.6766 139.664 43.4526ZM144.992 47.4995V54.1479H143.547V45.6948H144.914L144.992 47.4995ZM144.648 49.6011L144.047 49.5776C144.052 48.9995 144.138 48.4657 144.305 47.9761C144.471 47.4813 144.706 47.0516 145.008 46.687C145.31 46.3224 145.669 46.0412 146.086 45.8433C146.508 45.6401 146.974 45.5386 147.484 45.5386C147.901 45.5386 148.276 45.5959 148.609 45.7104C148.943 45.8198 149.227 45.9969 149.461 46.2417C149.701 46.4865 149.883 46.8042 150.008 47.1948C150.133 47.5802 150.195 48.0516 150.195 48.6089V54.1479H148.742V48.5933C148.742 48.1506 148.677 47.7964 148.547 47.5308C148.417 47.2599 148.227 47.0646 147.977 46.9448C147.727 46.8198 147.419 46.7573 147.055 46.7573C146.695 46.7573 146.367 46.8328 146.07 46.9839C145.779 47.1349 145.526 47.3433 145.312 47.6089C145.104 47.8745 144.94 48.1792 144.82 48.5229C144.706 48.8615 144.648 49.2209 144.648 49.6011ZM154.547 54.1479H153.102V44.8042C153.102 44.1948 153.211 43.6818 153.43 43.2651C153.654 42.8433 153.974 42.5256 154.391 42.312C154.807 42.0933 155.302 41.9839 155.875 41.9839C156.042 41.9839 156.208 41.9943 156.375 42.0151C156.547 42.036 156.714 42.0672 156.875 42.1089L156.797 43.2886C156.688 43.2625 156.562 43.2443 156.422 43.2339C156.286 43.2235 156.151 43.2183 156.016 43.2183C155.708 43.2183 155.443 43.2808 155.219 43.4058C155 43.5256 154.833 43.7026 154.719 43.937C154.604 44.1714 154.547 44.4604 154.547 44.8042V54.1479ZM156.344 45.6948V46.8042H151.766V45.6948H156.344ZM157.57 50.0151V49.8354C157.57 49.2261 157.659 48.661 157.836 48.1401C158.013 47.6141 158.268 47.1584 158.602 46.7729C158.935 46.3823 159.339 46.0802 159.812 45.8667C160.286 45.6479 160.818 45.5386 161.406 45.5386C162 45.5386 162.534 45.6479 163.008 45.8667C163.487 46.0802 163.893 46.3823 164.227 46.7729C164.565 47.1584 164.823 47.6141 165 48.1401C165.177 48.661 165.266 49.2261 165.266 49.8354V50.0151C165.266 50.6245 165.177 51.1896 165 51.7104C164.823 52.2313 164.565 52.687 164.227 53.0776C163.893 53.4631 163.49 53.7651 163.016 53.9839C162.547 54.1974 162.016 54.3042 161.422 54.3042C160.828 54.3042 160.294 54.1974 159.82 53.9839C159.346 53.7651 158.94 53.4631 158.602 53.0776C158.268 52.687 158.013 52.2313 157.836 51.7104C157.659 51.1896 157.57 50.6245 157.57 50.0151ZM159.016 49.8354V50.0151C159.016 50.437 159.065 50.8354 159.164 51.2104C159.263 51.5802 159.411 51.9084 159.609 52.1948C159.812 52.4813 160.065 52.7078 160.367 52.8745C160.669 53.036 161.021 53.1167 161.422 53.1167C161.818 53.1167 162.164 53.036 162.461 52.8745C162.763 52.7078 163.013 52.4813 163.211 52.1948C163.409 51.9084 163.557 51.5802 163.656 51.2104C163.76 50.8354 163.812 50.437 163.812 50.0151V49.8354C163.812 49.4188 163.76 49.0256 163.656 48.6558C163.557 48.2808 163.406 47.95 163.203 47.6636C163.005 47.3719 162.755 47.1427 162.453 46.9761C162.156 46.8094 161.807 46.7261 161.406 46.7261C161.01 46.7261 160.661 46.8094 160.359 46.9761C160.062 47.1427 159.812 47.3719 159.609 47.6636C159.411 47.95 159.263 48.2808 159.164 48.6558C159.065 49.0256 159.016 49.4188 159.016 49.8354ZM168.523 47.0229V54.1479H167.078V45.6948H168.484L168.523 47.0229ZM171.164 45.6479L171.156 46.9917C171.036 46.9657 170.922 46.95 170.812 46.9448C170.708 46.9344 170.589 46.9292 170.453 46.9292C170.12 46.9292 169.826 46.9813 169.57 47.0854C169.315 47.1896 169.099 47.3354 168.922 47.5229C168.745 47.7104 168.604 47.9344 168.5 48.1948C168.401 48.45 168.336 48.7313 168.305 49.0386L167.898 49.2729C167.898 48.7625 167.948 48.2834 168.047 47.8354C168.151 47.3875 168.31 46.9917 168.523 46.6479C168.737 46.299 169.008 46.0282 169.336 45.8354C169.669 45.6375 170.065 45.5386 170.523 45.5386C170.628 45.5386 170.747 45.5516 170.883 45.5776C171.018 45.5985 171.112 45.6219 171.164 45.6479ZM173.938 47.3745V54.1479H172.484V45.6948H173.859L173.938 47.3745ZM173.641 49.6011L172.969 49.5776C172.974 48.9995 173.049 48.4657 173.195 47.9761C173.341 47.4813 173.557 47.0516 173.844 46.687C174.13 46.3224 174.487 46.0412 174.914 45.8433C175.341 45.6401 175.836 45.5386 176.398 45.5386C176.794 45.5386 177.159 45.5959 177.492 45.7104C177.826 45.8198 178.115 45.9943 178.359 46.2339C178.604 46.4735 178.794 46.7808 178.93 47.1558C179.065 47.5308 179.133 47.9839 179.133 48.5151V54.1479H177.688V48.5854C177.688 48.1427 177.612 47.7886 177.461 47.5229C177.315 47.2573 177.107 47.0646 176.836 46.9448C176.565 46.8198 176.247 46.7573 175.883 46.7573C175.456 46.7573 175.099 46.8328 174.812 46.9839C174.526 47.1349 174.297 47.3433 174.125 47.6089C173.953 47.8745 173.828 48.1792 173.75 48.5229C173.677 48.8615 173.641 49.2209 173.641 49.6011ZM179.117 48.8042L178.148 49.1011C178.154 48.6375 178.229 48.1922 178.375 47.7651C178.526 47.3381 178.742 46.9578 179.023 46.6245C179.31 46.2912 179.661 46.0282 180.078 45.8354C180.495 45.6375 180.971 45.5386 181.508 45.5386C181.961 45.5386 182.362 45.5985 182.711 45.7183C183.065 45.8381 183.362 46.0229 183.602 46.2729C183.846 46.5177 184.031 46.8328 184.156 47.2183C184.281 47.6037 184.344 48.062 184.344 48.5933V54.1479H182.891V48.5776C182.891 48.1037 182.815 47.7365 182.664 47.4761C182.518 47.2104 182.31 47.0256 182.039 46.9214C181.773 46.812 181.456 46.7573 181.086 46.7573C180.768 46.7573 180.487 46.812 180.242 46.9214C179.997 47.0308 179.792 47.1818 179.625 47.3745C179.458 47.562 179.331 47.7782 179.242 48.0229C179.159 48.2677 179.117 48.5282 179.117 48.8042ZM191.516 52.7026V48.3511C191.516 48.0177 191.448 47.7287 191.312 47.4839C191.182 47.2339 190.984 47.0412 190.719 46.9058C190.453 46.7703 190.125 46.7026 189.734 46.7026C189.37 46.7026 189.049 46.7651 188.773 46.8901C188.503 47.0151 188.289 47.1792 188.133 47.3823C187.982 47.5854 187.906 47.8042 187.906 48.0386H186.461C186.461 47.7365 186.539 47.437 186.695 47.1401C186.852 46.8433 187.076 46.575 187.367 46.3354C187.664 46.0907 188.018 45.8979 188.43 45.7573C188.846 45.6115 189.31 45.5386 189.82 45.5386C190.435 45.5386 190.977 45.6427 191.445 45.8511C191.919 46.0594 192.289 46.3745 192.555 46.7964C192.826 47.2131 192.961 47.7365 192.961 48.3667V52.3042C192.961 52.5854 192.984 52.8849 193.031 53.2026C193.083 53.5203 193.159 53.7938 193.258 54.0229V54.1479H191.75C191.677 53.9813 191.62 53.7599 191.578 53.4839C191.536 53.2026 191.516 52.9422 191.516 52.7026ZM191.766 49.0229L191.781 50.0386H190.32C189.909 50.0386 189.542 50.0724 189.219 50.1401C188.896 50.2026 188.625 50.299 188.406 50.4292C188.188 50.5594 188.021 50.7235 187.906 50.9214C187.792 51.1141 187.734 51.3407 187.734 51.6011C187.734 51.8667 187.794 52.1089 187.914 52.3276C188.034 52.5464 188.214 52.7209 188.453 52.8511C188.698 52.9761 188.997 53.0386 189.352 53.0386C189.794 53.0386 190.185 52.9448 190.523 52.7573C190.862 52.5698 191.13 52.3407 191.328 52.0698C191.531 51.799 191.641 51.536 191.656 51.2808L192.273 51.9761C192.237 52.1948 192.138 52.437 191.977 52.7026C191.815 52.9683 191.599 53.2235 191.328 53.4683C191.062 53.7078 190.745 53.9084 190.375 54.0698C190.01 54.2261 189.599 54.3042 189.141 54.3042C188.568 54.3042 188.065 54.1922 187.633 53.9683C187.206 53.7443 186.872 53.4448 186.633 53.0698C186.398 52.6896 186.281 52.2651 186.281 51.7964C186.281 51.3433 186.37 50.9448 186.547 50.6011C186.724 50.2521 186.979 49.9631 187.312 49.7339C187.646 49.4995 188.047 49.3224 188.516 49.2026C188.984 49.0828 189.508 49.0229 190.086 49.0229H191.766ZM200.562 52.5073V42.1479H202.016V54.1479H200.688L200.562 52.5073ZM194.875 50.0151V49.8511C194.875 49.2052 194.953 48.6193 195.109 48.0933C195.271 47.562 195.497 47.1063 195.789 46.7261C196.086 46.3459 196.438 46.0542 196.844 45.8511C197.255 45.6427 197.714 45.5386 198.219 45.5386C198.75 45.5386 199.214 45.6323 199.609 45.8198C200.01 46.0021 200.349 46.2703 200.625 46.6245C200.906 46.9735 201.128 47.3953 201.289 47.8901C201.451 48.3849 201.562 48.9448 201.625 49.5698V50.2886C201.568 50.9084 201.456 51.4657 201.289 51.9604C201.128 52.4552 200.906 52.8771 200.625 53.2261C200.349 53.575 200.01 53.8433 199.609 54.0308C199.208 54.2131 198.74 54.3042 198.203 54.3042C197.708 54.3042 197.255 54.1974 196.844 53.9839C196.438 53.7703 196.086 53.4709 195.789 53.0854C195.497 52.7 195.271 52.2469 195.109 51.7261C194.953 51.2 194.875 50.6297 194.875 50.0151ZM196.328 49.8511V50.0151C196.328 50.437 196.37 50.8328 196.453 51.2026C196.542 51.5724 196.677 51.8979 196.859 52.1792C197.042 52.4604 197.273 52.6818 197.555 52.8433C197.836 52.9995 198.172 53.0776 198.562 53.0776C199.042 53.0776 199.435 52.9761 199.742 52.7729C200.055 52.5698 200.305 52.3016 200.492 51.9683C200.68 51.6349 200.826 51.2729 200.93 50.8823V48.9995C200.867 48.7131 200.776 48.437 200.656 48.1714C200.542 47.9006 200.391 47.661 200.203 47.4526C200.021 47.2391 199.794 47.0698 199.523 46.9448C199.258 46.8198 198.943 46.7573 198.578 46.7573C198.182 46.7573 197.841 46.8407 197.555 47.0073C197.273 47.1688 197.042 47.3927 196.859 47.6792C196.677 47.9604 196.542 48.2886 196.453 48.6636C196.37 49.0334 196.328 49.4292 196.328 49.8511ZM203.883 50.0151V49.8354C203.883 49.2261 203.971 48.661 204.148 48.1401C204.326 47.6141 204.581 47.1584 204.914 46.7729C205.247 46.3823 205.651 46.0802 206.125 45.8667C206.599 45.6479 207.13 45.5386 207.719 45.5386C208.312 45.5386 208.846 45.6479 209.32 45.8667C209.799 46.0802 210.206 46.3823 210.539 46.7729C210.878 47.1584 211.135 47.6141 211.312 48.1401C211.49 48.661 211.578 49.2261 211.578 49.8354V50.0151C211.578 50.6245 211.49 51.1896 211.312 51.7104C211.135 52.2313 210.878 52.687 210.539 53.0776C210.206 53.4631 209.802 53.7651 209.328 53.9839C208.859 54.1974 208.328 54.3042 207.734 54.3042C207.141 54.3042 206.607 54.1974 206.133 53.9839C205.659 53.7651 205.253 53.4631 204.914 53.0776C204.581 52.687 204.326 52.2313 204.148 51.7104C203.971 51.1896 203.883 50.6245 203.883 50.0151ZM205.328 49.8354V50.0151C205.328 50.437 205.378 50.8354 205.477 51.2104C205.576 51.5802 205.724 51.9084 205.922 52.1948C206.125 52.4813 206.378 52.7078 206.68 52.8745C206.982 53.036 207.333 53.1167 207.734 53.1167C208.13 53.1167 208.477 53.036 208.773 52.8745C209.076 52.7078 209.326 52.4813 209.523 52.1948C209.721 51.9084 209.87 51.5802 209.969 51.2104C210.073 50.8354 210.125 50.437 210.125 50.0151V49.8354C210.125 49.4188 210.073 49.0256 209.969 48.6558C209.87 48.2808 209.719 47.95 209.516 47.6636C209.318 47.3719 209.068 47.1427 208.766 46.9761C208.469 46.8094 208.12 46.7261 207.719 46.7261C207.323 46.7261 206.974 46.8094 206.672 46.9761C206.375 47.1427 206.125 47.3719 205.922 47.6636C205.724 47.95 205.576 48.2808 205.477 48.6558C205.378 49.0256 205.328 49.4188 205.328 49.8354ZM213.414 53.3823C213.414 53.1375 213.49 52.9318 213.641 52.7651C213.797 52.5933 214.021 52.5073 214.312 52.5073C214.604 52.5073 214.826 52.5933 214.977 52.7651C215.133 52.9318 215.211 53.1375 215.211 53.3823C215.211 53.6219 215.133 53.825 214.977 53.9917C214.826 54.1584 214.604 54.2417 214.312 54.2417C214.021 54.2417 213.797 54.1584 213.641 53.9917C213.49 53.825 213.414 53.6219 213.414 53.3823Z" fill="white"/>
</svg>
