<svg width="262" height="58" viewBox="0 0 262 58" fill="none" xmlns="http://www.w3.org/2000/svg">
<path d="M4.26612 0.240111H6.86289L8.7941 11.871L14.7623 0.240111H17.5773L9.26326 16.1262H7.0811L4.26612 0.240111ZM2.74952 0.240111H5.4554L3.96062 11.751L3.18595 16.1262H6.02566e-07L2.74952 0.240111ZM16.268 0.240111H18.9848L16.2353 16.1262H13.0275L13.8458 11.4782L16.268 0.240111ZM27.7243 3.12056L21.3306 16.1262H17.8173L26.3059 0.240111H28.5535L27.7243 3.12056ZM28.99 16.1262L27.0478 2.78233L27.1679 0.240111H29.2736L32.2741 16.1262H28.99ZM29.7974 10.2126L29.35 12.7766H21.1778L21.6252 10.2126H29.7974ZM42.5193 11.8928C42.5848 11.5073 42.5521 11.1836 42.4211 10.9218C42.2975 10.6526 42.1084 10.4272 41.8538 10.2453C41.6065 10.0562 41.3264 9.89616 41.0137 9.76523C40.7082 9.6343 40.4027 9.51428 40.0971 9.40517C39.5371 9.18696 38.9842 8.93965 38.4387 8.66324C37.9004 8.38683 37.4095 8.05951 36.9658 7.68127C36.522 7.29576 36.1765 6.84841 35.9292 6.33924C35.6819 5.8228 35.5801 5.21907 35.6237 4.52805C35.6746 3.74247 35.8965 3.06237 36.2893 2.48773C36.6821 1.9131 37.1803 1.44393 37.7841 1.08024C38.3951 0.709275 39.057 0.436505 39.7698 0.261933C40.4899 0.0873602 41.1955 0.00734771 41.8865 0.0218954C42.8758 0.0364431 43.7559 0.243748 44.5269 0.64381C45.298 1.0366 45.9017 1.59669 46.3381 2.32407C46.7818 3.04418 46.9891 3.90977 46.96 4.92084H43.7959C43.825 4.44077 43.7632 4.02616 43.6104 3.67701C43.4649 3.32059 43.2285 3.04782 42.9012 2.8587C42.5812 2.66231 42.1702 2.55684 41.6683 2.54229C41.2391 2.53501 40.8173 2.60412 40.4027 2.74959C39.9953 2.8878 39.6425 3.10601 39.3443 3.40424C39.0534 3.69519 38.8715 4.07344 38.7988 4.53896C38.7406 4.88083 38.7879 5.17542 38.9406 5.42274C39.1006 5.67005 39.3152 5.88099 39.5843 6.05556C39.8607 6.23013 40.1517 6.37925 40.4572 6.5029C40.77 6.61929 41.05 6.72476 41.2973 6.81932C41.8865 7.03026 42.4539 7.28121 42.9994 7.57216C43.5522 7.86312 44.0396 8.20862 44.4615 8.60869C44.8833 9.00148 45.207 9.467 45.4325 10.0053C45.658 10.5363 45.7489 11.1545 45.7053 11.8601C45.6398 12.6675 45.4216 13.3585 45.0506 13.9332C44.6797 14.5005 44.1996 14.966 43.6104 15.3297C43.0212 15.6862 42.3775 15.948 41.6792 16.1153C40.9809 16.2826 40.2717 16.3626 39.5516 16.3553C38.766 16.3408 38.0277 16.2171 37.3367 15.9844C36.6457 15.7516 36.042 15.417 35.5255 14.9806C35.0091 14.5369 34.609 13.995 34.3253 13.3549C34.0489 12.7075 33.9216 11.9692 33.9435 11.14L37.1403 11.1509C37.1112 11.5946 37.144 11.9838 37.2385 12.3184C37.3404 12.6457 37.5004 12.9221 37.7186 13.1476C37.9441 13.3731 38.2205 13.544 38.5478 13.6604C38.8824 13.7695 39.2716 13.8277 39.7153 13.835C40.1444 13.835 40.559 13.7695 40.9591 13.6386C41.3592 13.5076 41.701 13.3003 41.9847 13.0166C42.2684 12.7257 42.4466 12.3511 42.5193 11.8928ZM56.7797 0.240111L54.0302 16.1262H50.8334L53.5938 0.240111H56.7797ZM61.515 0.240111L61.0677 2.80415H48.4875L48.9349 0.240111H61.515ZM71.3675 13.5731L70.9201 16.1262H62.7043L63.1407 13.5731H71.3675ZM66.5122 0.240111L63.7517 16.1262H60.5549L63.3044 0.240111H66.5122ZM71.4875 6.71021L71.0511 9.19787H63.9045L64.3409 6.71021H71.4875ZM73.6587 0.240111L73.2114 2.80415H65.0065L65.4647 0.240111H73.6587ZM75.5027 0.240111L81.0999 0.251022C82.0673 0.26557 82.9438 0.443779 83.7294 0.785651C84.5222 1.12752 85.1369 1.64033 85.5733 2.32407C86.017 3.00781 86.2025 3.87704 86.1298 4.93175C86.057 5.79734 85.8461 6.52836 85.4969 7.12482C85.1551 7.72128 84.6932 8.22681 84.1113 8.64142C83.5366 9.05603 82.8747 9.41245 82.1255 9.71068L81.0126 10.2453H75.8409L76.2773 7.69218L79.8342 7.714C80.3652 7.70673 80.8489 7.60489 81.2854 7.4085C81.7218 7.21211 82.0819 6.92843 82.3655 6.55746C82.6565 6.17922 82.8384 5.72096 82.9111 5.1827C82.9766 4.7099 82.9438 4.29892 82.8129 3.94978C82.6892 3.60063 82.4747 3.32786 82.1692 3.13147C81.8637 2.93508 81.4745 2.82961 81.0017 2.81506L78.2631 2.80415L75.95 16.1262H72.7531L75.5027 0.240111ZM81.449 16.1262L79.1578 9.04512L82.3765 9.0233L84.8532 15.9516V16.1262H81.449ZM97.3983 14.6809V10.3293C97.3983 9.99601 97.3306 9.70695 97.1952 9.46216C97.065 9.21216 96.8671 9.01945 96.6015 8.88403C96.3358 8.74862 96.0077 8.68091 95.6171 8.68091C95.2525 8.68091 94.9322 8.74341 94.6561 8.86841C94.3853 8.99341 94.1718 9.15747 94.0155 9.3606C93.8645 9.56372 93.789 9.78247 93.789 10.0168H92.3436C92.3436 9.71476 92.4218 9.41528 92.578 9.11841C92.7343 8.82153 92.9582 8.5533 93.2499 8.31372C93.5468 8.06893 93.9009 7.87622 94.3124 7.7356C94.7291 7.58976 95.1926 7.51685 95.703 7.51685C96.3176 7.51685 96.8593 7.62101 97.328 7.82935C97.802 8.03768 98.1718 8.35278 98.4374 8.77466C98.7082 9.19132 98.8436 9.71476 98.8436 10.345V14.2825C98.8436 14.5637 98.8671 14.8632 98.914 15.1809C98.966 15.4986 99.0416 15.7721 99.1405 16.0012V16.1262H97.6327C97.5598 15.9596 97.5025 15.7382 97.4608 15.4622C97.4192 15.1809 97.3983 14.9205 97.3983 14.6809ZM97.6483 11.0012L97.664 12.0168H96.203C95.7916 12.0168 95.4244 12.0507 95.1015 12.1184C94.7785 12.1809 94.5077 12.2773 94.289 12.4075C94.0702 12.5377 93.9035 12.7017 93.789 12.8997C93.6744 13.0924 93.6171 13.3189 93.6171 13.5793C93.6171 13.845 93.677 14.0872 93.7968 14.3059C93.9166 14.5247 94.0962 14.6991 94.3358 14.8293C94.5806 14.9543 94.8801 15.0168 95.2343 15.0168C95.677 15.0168 96.0676 14.9231 96.4061 14.7356C96.7447 14.5481 97.0129 14.3189 97.2108 14.0481C97.414 13.7773 97.5233 13.5142 97.539 13.259L98.1561 13.9543C98.1197 14.1731 98.0207 14.4153 97.8593 14.6809C97.6978 14.9465 97.4817 15.2017 97.2108 15.4465C96.9452 15.6861 96.6275 15.8866 96.2577 16.0481C95.8931 16.2043 95.4817 16.2825 95.0233 16.2825C94.4504 16.2825 93.9478 16.1705 93.5155 15.9465C93.0884 15.7226 92.7551 15.4231 92.5155 15.0481C92.2811 14.6679 92.164 14.2434 92.164 13.7747C92.164 13.3215 92.2525 12.9231 92.4296 12.5793C92.6067 12.2304 92.8619 11.9413 93.1952 11.7122C93.5285 11.4778 93.9296 11.3007 94.3983 11.1809C94.8671 11.0611 95.3905 11.0012 95.9686 11.0012H97.6483ZM106.594 7.6731H107.906V15.9465C107.906 16.6913 107.755 17.3267 107.453 17.8528C107.151 18.3788 106.729 18.7773 106.187 19.0481C105.651 19.3241 105.031 19.4622 104.328 19.4622C104.036 19.4622 103.693 19.4153 103.297 19.3215C102.906 19.233 102.521 19.0793 102.141 18.8606C101.766 18.6471 101.45 18.358 101.195 17.9934L101.953 17.134C102.307 17.5611 102.677 17.858 103.062 18.0247C103.453 18.1913 103.838 18.2747 104.219 18.2747C104.677 18.2747 105.073 18.1887 105.406 18.0168C105.739 17.845 105.997 17.5898 106.18 17.2512C106.367 16.9179 106.461 16.5064 106.461 16.0168V9.53247L106.594 7.6731ZM100.773 11.9934V11.8293C100.773 11.1835 100.849 10.5976 101 10.0715C101.156 9.54028 101.377 9.08455 101.664 8.70435C101.956 8.32414 102.307 8.03247 102.719 7.82935C103.13 7.62101 103.594 7.51685 104.109 7.51685C104.641 7.51685 105.104 7.6106 105.5 7.7981C105.901 7.98039 106.239 8.24862 106.516 8.60278C106.797 8.95174 107.018 9.37362 107.18 9.86841C107.341 10.3632 107.453 10.9231 107.516 11.5481V12.2668C107.458 12.8866 107.346 13.4439 107.18 13.9387C107.018 14.4335 106.797 14.8554 106.516 15.2043C106.239 15.5533 105.901 15.8215 105.5 16.009C105.099 16.1913 104.63 16.2825 104.094 16.2825C103.588 16.2825 103.13 16.1757 102.719 15.9622C102.312 15.7486 101.963 15.4491 101.672 15.0637C101.38 14.6783 101.156 14.2252 101 13.7043C100.849 13.1783 100.773 12.608 100.773 11.9934ZM102.219 11.8293V11.9934C102.219 12.4153 102.26 12.8111 102.344 13.1809C102.432 13.5507 102.565 13.8762 102.742 14.1575C102.924 14.4387 103.156 14.6601 103.437 14.8215C103.719 14.9778 104.055 15.0559 104.445 15.0559C104.924 15.0559 105.32 14.9543 105.633 14.7512C105.945 14.5481 106.193 14.2799 106.375 13.9465C106.562 13.6132 106.708 13.2512 106.812 12.8606V10.9778C106.755 10.6913 106.667 10.4153 106.547 10.1497C106.432 9.87882 106.281 9.63924 106.094 9.43091C105.911 9.21737 105.685 9.0481 105.414 8.9231C105.143 8.7981 104.825 8.7356 104.461 8.7356C104.065 8.7356 103.724 8.81893 103.437 8.9856C103.156 9.14705 102.924 9.37101 102.742 9.65747C102.565 9.93872 102.432 10.2668 102.344 10.6418C102.26 11.0116 102.219 11.4075 102.219 11.8293ZM109.719 11.9934V11.8137C109.719 11.2043 109.807 10.6392 109.984 10.1184C110.161 9.59237 110.417 9.13664 110.75 8.75122C111.083 8.3606 111.487 8.05851 111.961 7.84497C112.435 7.62622 112.966 7.51685 113.555 7.51685C114.148 7.51685 114.682 7.62622 115.156 7.84497C115.635 8.05851 116.042 8.3606 116.375 8.75122C116.713 9.13664 116.971 9.59237 117.148 10.1184C117.325 10.6392 117.414 11.2043 117.414 11.8137V11.9934C117.414 12.6028 117.325 13.1679 117.148 13.6887C116.971 14.2096 116.713 14.6653 116.375 15.0559C116.042 15.4413 115.638 15.7434 115.164 15.9622C114.695 16.1757 114.164 16.2825 113.57 16.2825C112.976 16.2825 112.443 16.1757 111.969 15.9622C111.495 15.7434 111.088 15.4413 110.75 15.0559C110.417 14.6653 110.161 14.2096 109.984 13.6887C109.807 13.1679 109.719 12.6028 109.719 11.9934ZM111.164 11.8137V11.9934C111.164 12.4153 111.213 12.8137 111.312 13.1887C111.411 13.5585 111.56 13.8866 111.758 14.1731C111.961 14.4596 112.213 14.6861 112.516 14.8528C112.818 15.0142 113.169 15.095 113.57 15.095C113.966 15.095 114.312 15.0142 114.609 14.8528C114.911 14.6861 115.161 14.4596 115.359 14.1731C115.557 13.8866 115.706 13.5585 115.805 13.1887C115.909 12.8137 115.961 12.4153 115.961 11.9934V11.8137C115.961 11.3971 115.909 11.0038 115.805 10.634C115.706 10.259 115.555 9.9283 115.351 9.64185C115.154 9.35018 114.904 9.12101 114.601 8.95435C114.305 8.78768 113.956 8.70435 113.555 8.70435C113.159 8.70435 112.81 8.78768 112.508 8.95435C112.211 9.12101 111.961 9.35018 111.758 9.64185C111.56 9.9283 111.411 10.259 111.312 10.634C111.213 11.0038 111.164 11.3971 111.164 11.8137ZM120.672 9.00122V16.1262H119.226V7.6731H120.633L120.672 9.00122ZM123.312 7.62622L123.305 8.96997C123.185 8.94393 123.07 8.9283 122.961 8.9231C122.857 8.91268 122.737 8.90747 122.601 8.90747C122.268 8.90747 121.974 8.95955 121.719 9.06372C121.463 9.16789 121.247 9.31372 121.07 9.50122C120.893 9.68872 120.752 9.91268 120.648 10.1731C120.549 10.4283 120.484 10.7096 120.453 11.0168L120.047 11.2512C120.047 10.7408 120.096 10.2616 120.195 9.81372C120.299 9.3658 120.458 8.96997 120.672 8.62622C120.885 8.27726 121.156 8.00643 121.484 7.81372C121.818 7.6158 122.213 7.51685 122.672 7.51685C122.776 7.51685 122.896 7.52987 123.031 7.55591C123.167 7.57674 123.26 7.60018 123.312 7.62622ZM129.32 14.6809V10.3293C129.32 9.99601 129.252 9.70695 129.117 9.46216C128.987 9.21216 128.789 9.01945 128.523 8.88403C128.258 8.74862 127.93 8.68091 127.539 8.68091C127.174 8.68091 126.854 8.74341 126.578 8.86841C126.307 8.99341 126.094 9.15747 125.937 9.3606C125.786 9.56372 125.711 9.78247 125.711 10.0168H124.266C124.266 9.71476 124.344 9.41528 124.5 9.11841C124.656 8.82153 124.88 8.5533 125.172 8.31372C125.469 8.06893 125.823 7.87622 126.234 7.7356C126.651 7.58976 127.114 7.51685 127.625 7.51685C128.239 7.51685 128.781 7.62101 129.25 7.82935C129.724 8.03768 130.094 8.35278 130.359 8.77466C130.63 9.19132 130.766 9.71476 130.766 10.345V14.2825C130.766 14.5637 130.789 14.8632 130.836 15.1809C130.888 15.4986 130.963 15.7721 131.062 16.0012V16.1262H129.555C129.482 15.9596 129.424 15.7382 129.383 15.4622C129.341 15.1809 129.32 14.9205 129.32 14.6809ZM129.57 11.0012L129.586 12.0168H128.125C127.713 12.0168 127.346 12.0507 127.023 12.1184C126.7 12.1809 126.43 12.2773 126.211 12.4075C125.992 12.5377 125.825 12.7017 125.711 12.8997C125.596 13.0924 125.539 13.3189 125.539 13.5793C125.539 13.845 125.599 14.0872 125.719 14.3059C125.838 14.5247 126.018 14.6991 126.258 14.8293C126.502 14.9543 126.802 15.0168 127.156 15.0168C127.599 15.0168 127.989 14.9231 128.328 14.7356C128.667 14.5481 128.935 14.3189 129.133 14.0481C129.336 13.7773 129.445 13.5142 129.461 13.259L130.078 13.9543C130.042 14.1731 129.943 14.4153 129.781 14.6809C129.62 14.9465 129.404 15.2017 129.133 15.4465C128.867 15.6861 128.549 15.8866 128.18 16.0481C127.815 16.2043 127.404 16.2825 126.945 16.2825C126.372 16.2825 125.87 16.1705 125.437 15.9465C125.01 15.7226 124.677 15.4231 124.437 15.0481C124.203 14.6679 124.086 14.2434 124.086 13.7747C124.086 13.3215 124.174 12.9231 124.351 12.5793C124.529 12.2304 124.784 11.9413 125.117 11.7122C125.45 11.4778 125.851 11.3007 126.32 11.1809C126.789 11.0611 127.312 11.0012 127.891 11.0012H129.57ZM139.578 14.8215L141.891 7.6731H143.367L140.328 16.1262H139.359L139.578 14.8215ZM137.648 7.6731L140.031 14.8606L140.195 16.1262H139.226L136.164 7.6731H137.648ZM144.25 11.9934V11.8137C144.25 11.2043 144.338 10.6392 144.516 10.1184C144.693 9.59237 144.948 9.13664 145.281 8.75122C145.614 8.3606 146.018 8.05851 146.492 7.84497C146.966 7.62622 147.497 7.51685 148.086 7.51685C148.68 7.51685 149.213 7.62622 149.687 7.84497C150.167 8.05851 150.573 8.3606 150.906 8.75122C151.245 9.13664 151.502 9.59237 151.68 10.1184C151.857 10.6392 151.945 11.2043 151.945 11.8137V11.9934C151.945 12.6028 151.857 13.1679 151.68 13.6887C151.502 14.2096 151.245 14.6653 150.906 15.0559C150.573 15.4413 150.169 15.7434 149.695 15.9622C149.226 16.1757 148.695 16.2825 148.101 16.2825C147.508 16.2825 146.974 16.1757 146.5 15.9622C146.026 15.7434 145.62 15.4413 145.281 15.0559C144.948 14.6653 144.693 14.2096 144.516 13.6887C144.338 13.1679 144.25 12.6028 144.25 11.9934ZM145.695 11.8137V11.9934C145.695 12.4153 145.745 12.8137 145.844 13.1887C145.943 13.5585 146.091 13.8866 146.289 14.1731C146.492 14.4596 146.745 14.6861 147.047 14.8528C147.349 15.0142 147.7 15.095 148.101 15.095C148.497 15.095 148.844 15.0142 149.141 14.8528C149.443 14.6861 149.693 14.4596 149.891 14.1731C150.088 13.8866 150.237 13.5585 150.336 13.1887C150.44 12.8137 150.492 12.4153 150.492 11.9934V11.8137C150.492 11.3971 150.44 11.0038 150.336 10.634C150.237 10.259 150.086 9.9283 149.883 9.64185C149.685 9.35018 149.435 9.12101 149.133 8.95435C148.836 8.78768 148.487 8.70435 148.086 8.70435C147.69 8.70435 147.341 8.78768 147.039 8.95435C146.742 9.12101 146.492 9.35018 146.289 9.64185C146.091 9.9283 145.943 10.259 145.844 10.634C145.745 11.0038 145.695 11.3971 145.695 11.8137ZM157.141 15.095C157.484 15.095 157.802 15.0247 158.094 14.884C158.385 14.7434 158.625 14.5507 158.812 14.3059C159 14.0559 159.107 13.7721 159.133 13.4543H160.508C160.482 13.9543 160.312 14.4205 160 14.8528C159.693 15.2799 159.289 15.6262 158.789 15.8918C158.289 16.1523 157.739 16.2825 157.141 16.2825C156.505 16.2825 155.95 16.1705 155.476 15.9465C155.008 15.7226 154.617 15.4153 154.305 15.0247C153.997 14.634 153.766 14.1861 153.609 13.6809C153.458 13.1705 153.383 12.6314 153.383 12.0637V11.7356C153.383 11.1679 153.458 10.6314 153.609 10.1262C153.766 9.6158 153.997 9.16528 154.305 8.77466C154.617 8.38403 155.008 8.07674 155.476 7.85278C155.95 7.62882 156.505 7.51685 157.141 7.51685C157.802 7.51685 158.38 7.65226 158.875 7.9231C159.37 8.18872 159.758 8.5533 160.039 9.01685C160.325 9.47518 160.482 9.99601 160.508 10.5793H159.133C159.107 10.2304 159.008 9.91528 158.836 9.63403C158.669 9.35278 158.44 9.12882 158.148 8.96216C157.862 8.79028 157.526 8.70435 157.141 8.70435C156.698 8.70435 156.325 8.79289 156.023 8.96997C155.726 9.14185 155.489 9.37622 155.312 9.6731C155.141 9.96476 155.016 10.2903 154.937 10.6497C154.864 11.0038 154.828 11.3658 154.828 11.7356V12.0637C154.828 12.4335 154.864 12.7981 154.937 13.1575C155.01 13.5168 155.133 13.8424 155.305 14.134C155.482 14.4257 155.719 14.6601 156.016 14.8372C156.318 15.009 156.693 15.095 157.141 15.095ZM165.641 16.2825C165.052 16.2825 164.518 16.1835 164.039 15.9856C163.565 15.7825 163.156 15.4986 162.812 15.134C162.474 14.7694 162.213 14.3372 162.031 13.8372C161.849 13.3372 161.758 12.7903 161.758 12.1965V11.8684C161.758 11.1809 161.859 10.5689 162.062 10.0325C162.266 9.4908 162.542 9.03247 162.891 8.65747C163.239 8.28247 163.635 7.99862 164.078 7.80591C164.521 7.6132 164.979 7.51685 165.453 7.51685C166.057 7.51685 166.578 7.62101 167.016 7.82935C167.458 8.03768 167.82 8.32935 168.101 8.70435C168.383 9.07414 168.591 9.51164 168.726 10.0168C168.862 10.5168 168.93 11.0637 168.93 11.6575V12.3059H162.617V11.1262H167.484V11.0168C167.463 10.6418 167.385 10.2773 167.25 9.9231C167.12 9.56893 166.911 9.27726 166.625 9.0481C166.338 8.81893 165.948 8.70435 165.453 8.70435C165.125 8.70435 164.823 8.77466 164.547 8.91528C164.271 9.0507 164.034 9.25382 163.836 9.52466C163.638 9.79549 163.484 10.1262 163.375 10.5168C163.266 10.9075 163.211 11.358 163.211 11.8684V12.1965C163.211 12.5976 163.266 12.9752 163.375 13.3293C163.489 13.6783 163.654 13.9856 163.867 14.2512C164.086 14.5168 164.349 14.7252 164.656 14.8762C164.969 15.0273 165.323 15.1028 165.719 15.1028C166.229 15.1028 166.661 14.9986 167.016 14.7903C167.37 14.5819 167.68 14.3033 167.945 13.9543L168.82 14.6497C168.638 14.9257 168.406 15.1887 168.125 15.4387C167.844 15.6887 167.497 15.8918 167.086 16.0481C166.68 16.2043 166.198 16.2825 165.641 16.2825ZM165.883 4.12622L167.82 6.25903V6.33716H166.617L165.445 5.01685L164.281 6.33716H163.094V6.25122L165.008 4.12622H165.883ZM176.031 9.2981V19.3762H174.578V7.6731H175.906L176.031 9.2981ZM181.726 11.8293V11.9934C181.726 12.608 181.654 13.1783 181.508 13.7043C181.362 14.2252 181.148 14.6783 180.867 15.0637C180.591 15.4491 180.25 15.7486 179.844 15.9622C179.437 16.1757 178.971 16.2825 178.445 16.2825C177.909 16.2825 177.435 16.1939 177.023 16.0168C176.612 15.8398 176.263 15.5819 175.976 15.2434C175.69 14.9049 175.461 14.4986 175.289 14.0247C175.122 13.5507 175.008 13.0168 174.945 12.4231V11.5481C175.008 10.9231 175.125 10.3632 175.297 9.86841C175.469 9.37362 175.695 8.95174 175.976 8.60278C176.263 8.24862 176.609 7.98039 177.016 7.7981C177.422 7.6106 177.891 7.51685 178.422 7.51685C178.953 7.51685 179.424 7.62101 179.836 7.82935C180.247 8.03247 180.594 8.32414 180.875 8.70435C181.156 9.08455 181.367 9.54028 181.508 10.0715C181.654 10.5976 181.726 11.1835 181.726 11.8293ZM180.273 11.9934V11.8293C180.273 11.4075 180.229 11.0116 180.141 10.6418C180.052 10.2668 179.914 9.93872 179.726 9.65747C179.544 9.37101 179.31 9.14705 179.023 8.9856C178.737 8.81893 178.396 8.7356 178 8.7356C177.635 8.7356 177.318 8.7981 177.047 8.9231C176.781 9.0481 176.555 9.21737 176.367 9.43091C176.18 9.63924 176.026 9.87882 175.906 10.1497C175.792 10.4153 175.706 10.6913 175.648 10.9778V13.0012C175.752 13.3658 175.898 13.7096 176.086 14.0325C176.273 14.3502 176.523 14.608 176.836 14.8059C177.148 14.9986 177.542 15.095 178.016 15.095C178.406 15.095 178.742 15.0142 179.023 14.8528C179.31 14.6861 179.544 14.4596 179.726 14.1731C179.914 13.8866 180.052 13.5585 180.141 13.1887C180.229 12.8137 180.273 12.4153 180.273 11.9934ZM185.016 9.00122V16.1262H183.57V7.6731H184.976L185.016 9.00122ZM187.656 7.62622L187.648 8.96997C187.529 8.94393 187.414 8.9283 187.305 8.9231C187.2 8.91268 187.081 8.90747 186.945 8.90747C186.612 8.90747 186.318 8.95955 186.062 9.06372C185.807 9.16789 185.591 9.31372 185.414 9.50122C185.237 9.68872 185.096 9.91268 184.992 10.1731C184.893 10.4283 184.828 10.7096 184.797 11.0168L184.391 11.2512C184.391 10.7408 184.44 10.2616 184.539 9.81372C184.643 9.3658 184.802 8.96997 185.016 8.62622C185.229 8.27726 185.5 8.00643 185.828 7.81372C186.161 7.6158 186.557 7.51685 187.016 7.51685C187.12 7.51685 187.239 7.52987 187.375 7.55591C187.51 7.57674 187.604 7.60018 187.656 7.62622ZM192.344 16.2825C191.755 16.2825 191.221 16.1835 190.742 15.9856C190.268 15.7825 189.859 15.4986 189.516 15.134C189.177 14.7694 188.917 14.3372 188.734 13.8372C188.552 13.3372 188.461 12.7903 188.461 12.1965V11.8684C188.461 11.1809 188.562 10.5689 188.766 10.0325C188.969 9.4908 189.245 9.03247 189.594 8.65747C189.943 8.28247 190.338 7.99862 190.781 7.80591C191.224 7.6132 191.682 7.51685 192.156 7.51685C192.76 7.51685 193.281 7.62101 193.719 7.82935C194.161 8.03768 194.523 8.32935 194.805 8.70435C195.086 9.07414 195.294 9.51164 195.43 10.0168C195.565 10.5168 195.633 11.0637 195.633 11.6575V12.3059H189.32V11.1262H194.187V11.0168C194.167 10.6418 194.088 10.2773 193.953 9.9231C193.823 9.56893 193.614 9.27726 193.328 9.0481C193.042 8.81893 192.651 8.70435 192.156 8.70435C191.828 8.70435 191.526 8.77466 191.25 8.91528C190.974 9.0507 190.737 9.25382 190.539 9.52466C190.341 9.79549 190.187 10.1262 190.078 10.5168C189.969 10.9075 189.914 11.358 189.914 11.8684V12.1965C189.914 12.5976 189.969 12.9752 190.078 13.3293C190.193 13.6783 190.357 13.9856 190.57 14.2512C190.789 14.5168 191.052 14.7252 191.359 14.8762C191.672 15.0273 192.026 15.1028 192.422 15.1028C192.932 15.1028 193.364 14.9986 193.719 14.7903C194.073 14.5819 194.383 14.3033 194.648 13.9543L195.523 14.6497C195.341 14.9257 195.109 15.1887 194.828 15.4387C194.547 15.6887 194.2 15.8918 193.789 16.0481C193.383 16.2043 192.901 16.2825 192.344 16.2825ZM200.703 15.095C201.047 15.095 201.364 15.0247 201.656 14.884C201.948 14.7434 202.187 14.5507 202.375 14.3059C202.562 14.0559 202.669 13.7721 202.695 13.4543H204.07C204.044 13.9543 203.875 14.4205 203.562 14.8528C203.255 15.2799 202.851 15.6262 202.351 15.8918C201.851 16.1523 201.302 16.2825 200.703 16.2825C200.068 16.2825 199.513 16.1705 199.039 15.9465C198.57 15.7226 198.18 15.4153 197.867 15.0247C197.56 14.634 197.328 14.1861 197.172 13.6809C197.021 13.1705 196.945 12.6314 196.945 12.0637V11.7356C196.945 11.1679 197.021 10.6314 197.172 10.1262C197.328 9.6158 197.56 9.16528 197.867 8.77466C198.18 8.38403 198.57 8.07674 199.039 7.85278C199.513 7.62882 200.068 7.51685 200.703 7.51685C201.364 7.51685 201.943 7.65226 202.437 7.9231C202.932 8.18872 203.32 8.5533 203.601 9.01685C203.888 9.47518 204.044 9.99601 204.07 10.5793H202.695C202.669 10.2304 202.57 9.91528 202.398 9.63403C202.232 9.35278 202.002 9.12882 201.711 8.96216C201.424 8.79028 201.088 8.70435 200.703 8.70435C200.26 8.70435 199.888 8.79289 199.586 8.96997C199.289 9.14185 199.052 9.37622 198.875 9.6731C198.703 9.96476 198.578 10.2903 198.5 10.6497C198.427 11.0038 198.391 11.3658 198.391 11.7356V12.0637C198.391 12.4335 198.427 12.7981 198.5 13.1575C198.573 13.5168 198.695 13.8424 198.867 14.134C199.044 14.4257 199.281 14.6601 199.578 14.8372C199.88 15.009 200.255 15.095 200.703 15.095ZM207.266 7.6731V16.1262H205.812V7.6731H207.266ZM205.703 5.43091C205.703 5.19653 205.773 4.99862 205.914 4.83716C206.06 4.6757 206.273 4.59497 206.555 4.59497C206.831 4.59497 207.042 4.6757 207.187 4.83716C207.338 4.99862 207.414 5.19653 207.414 5.43091C207.414 5.65487 207.338 5.84757 207.187 6.00903C207.042 6.16528 206.831 6.24341 206.555 6.24341C206.273 6.24341 206.06 6.16528 205.914 6.00903C205.773 5.84757 205.703 5.65487 205.703 5.43091ZM214.508 13.884C214.508 13.6757 214.461 13.483 214.367 13.3059C214.279 13.1236 214.094 12.9596 213.812 12.8137C213.536 12.6627 213.12 12.5325 212.562 12.4231C212.094 12.3241 211.669 12.2069 211.289 12.0715C210.914 11.9361 210.594 11.7721 210.328 11.5793C210.068 11.3866 209.867 11.1601 209.726 10.8997C209.586 10.6392 209.516 10.3346 209.516 9.9856C209.516 9.65226 209.588 9.33716 209.734 9.04028C209.885 8.74341 210.096 8.48039 210.367 8.25122C210.643 8.02205 210.974 7.84237 211.359 7.71216C211.745 7.58195 212.174 7.51685 212.648 7.51685C213.325 7.51685 213.904 7.63664 214.383 7.87622C214.862 8.1158 215.229 8.43612 215.484 8.83716C215.739 9.23299 215.867 9.6731 215.867 10.1575H214.422C214.422 9.9231 214.351 9.69653 214.211 9.47778C214.075 9.25382 213.875 9.06893 213.609 8.9231C213.349 8.77726 213.029 8.70435 212.648 8.70435C212.247 8.70435 211.922 8.76685 211.672 8.89185C211.427 9.01164 211.247 9.16528 211.133 9.35278C211.023 9.54028 210.969 9.7382 210.969 9.94653C210.969 10.1028 210.995 10.2434 211.047 10.3684C211.104 10.4882 211.203 10.6002 211.344 10.7043C211.484 10.8033 211.682 10.8971 211.937 10.9856C212.193 11.0741 212.518 11.1627 212.914 11.2512C213.607 11.4075 214.177 11.595 214.625 11.8137C215.073 12.0325 215.406 12.3007 215.625 12.6184C215.844 12.9361 215.953 13.3215 215.953 13.7747C215.953 14.1444 215.875 14.483 215.719 14.7903C215.568 15.0976 215.346 15.3632 215.055 15.5872C214.768 15.8059 214.424 15.9778 214.023 16.1028C213.627 16.2226 213.182 16.2825 212.687 16.2825C211.943 16.2825 211.312 16.1497 210.797 15.884C210.281 15.6184 209.891 15.2747 209.625 14.8528C209.359 14.4309 209.226 13.9856 209.226 13.5168H210.68C210.7 13.9127 210.815 14.2278 211.023 14.4622C211.232 14.6913 211.487 14.8554 211.789 14.9543C212.091 15.0481 212.391 15.095 212.687 15.095C213.083 15.095 213.414 15.0429 213.68 14.9387C213.95 14.8346 214.156 14.6913 214.297 14.509C214.437 14.3267 214.508 14.1184 214.508 13.884ZM222.836 14.6809V10.3293C222.836 9.99601 222.768 9.70695 222.633 9.46216C222.502 9.21216 222.305 9.01945 222.039 8.88403C221.773 8.74862 221.445 8.68091 221.055 8.68091C220.69 8.68091 220.37 8.74341 220.094 8.86841C219.823 8.99341 219.609 9.15747 219.453 9.3606C219.302 9.56372 219.226 9.78247 219.226 10.0168H217.781C217.781 9.71476 217.859 9.41528 218.016 9.11841C218.172 8.82153 218.396 8.5533 218.687 8.31372C218.984 8.06893 219.338 7.87622 219.75 7.7356C220.167 7.58976 220.63 7.51685 221.141 7.51685C221.755 7.51685 222.297 7.62101 222.766 7.82935C223.239 8.03768 223.609 8.35278 223.875 8.77466C224.146 9.19132 224.281 9.71476 224.281 10.345V14.2825C224.281 14.5637 224.305 14.8632 224.351 15.1809C224.404 15.4986 224.479 15.7721 224.578 16.0012V16.1262H223.07C222.997 15.9596 222.94 15.7382 222.898 15.4622C222.857 15.1809 222.836 14.9205 222.836 14.6809ZM223.086 11.0012L223.101 12.0168H221.641C221.229 12.0168 220.862 12.0507 220.539 12.1184C220.216 12.1809 219.945 12.2773 219.726 12.4075C219.508 12.5377 219.341 12.7017 219.226 12.8997C219.112 13.0924 219.055 13.3189 219.055 13.5793C219.055 13.845 219.114 14.0872 219.234 14.3059C219.354 14.5247 219.534 14.6991 219.773 14.8293C220.018 14.9543 220.318 15.0168 220.672 15.0168C221.114 15.0168 221.505 14.9231 221.844 14.7356C222.182 14.5481 222.45 14.3189 222.648 14.0481C222.851 13.7773 222.961 13.5142 222.976 13.259L223.594 13.9543C223.557 14.1731 223.458 14.4153 223.297 14.6809C223.135 14.9465 222.919 15.2017 222.648 15.4465C222.383 15.6861 222.065 15.8866 221.695 16.0481C221.331 16.2043 220.919 16.2825 220.461 16.2825C219.888 16.2825 219.385 16.1705 218.953 15.9465C218.526 15.7226 218.193 15.4231 217.953 15.0481C217.719 14.6679 217.601 14.2434 217.601 13.7747C217.601 13.3215 217.69 12.9231 217.867 12.5793C218.044 12.2304 218.299 11.9413 218.633 11.7122C218.966 11.4778 219.367 11.3007 219.836 11.1809C220.305 11.0611 220.828 11.0012 221.406 11.0012H223.086ZM235.508 14.6809V10.3293C235.508 9.99601 235.44 9.70695 235.305 9.46216C235.174 9.21216 234.976 9.01945 234.711 8.88403C234.445 8.74862 234.117 8.68091 233.726 8.68091C233.362 8.68091 233.042 8.74341 232.766 8.86841C232.495 8.99341 232.281 9.15747 232.125 9.3606C231.974 9.56372 231.898 9.78247 231.898 10.0168H230.453C230.453 9.71476 230.531 9.41528 230.687 9.11841C230.844 8.82153 231.068 8.5533 231.359 8.31372C231.656 8.06893 232.01 7.87622 232.422 7.7356C232.838 7.58976 233.302 7.51685 233.812 7.51685C234.427 7.51685 234.969 7.62101 235.437 7.82935C235.911 8.03768 236.281 8.35278 236.547 8.77466C236.818 9.19132 236.953 9.71476 236.953 10.345V14.2825C236.953 14.5637 236.976 14.8632 237.023 15.1809C237.075 15.4986 237.151 15.7721 237.25 16.0012V16.1262H235.742C235.669 15.9596 235.612 15.7382 235.57 15.4622C235.529 15.1809 235.508 14.9205 235.508 14.6809ZM235.758 11.0012L235.773 12.0168H234.312C233.901 12.0168 233.534 12.0507 233.211 12.1184C232.888 12.1809 232.617 12.2773 232.398 12.4075C232.18 12.5377 232.013 12.7017 231.898 12.8997C231.784 13.0924 231.726 13.3189 231.726 13.5793C231.726 13.845 231.786 14.0872 231.906 14.3059C232.026 14.5247 232.206 14.6991 232.445 14.8293C232.69 14.9543 232.989 15.0168 233.344 15.0168C233.786 15.0168 234.177 14.9231 234.516 14.7356C234.854 14.5481 235.122 14.3189 235.32 14.0481C235.523 13.7773 235.633 13.5142 235.648 13.259L236.266 13.9543C236.229 14.1731 236.13 14.4153 235.969 14.6809C235.807 14.9465 235.591 15.2017 235.32 15.4465C235.055 15.6861 234.737 15.8866 234.367 16.0481C234.002 16.2043 233.591 16.2825 233.133 16.2825C232.56 16.2825 232.057 16.1705 231.625 15.9465C231.198 15.7226 230.864 15.4231 230.625 15.0481C230.391 14.6679 230.273 14.2434 230.273 13.7747C230.273 13.3215 230.362 12.9231 230.539 12.5793C230.716 12.2304 230.971 11.9413 231.305 11.7122C231.638 11.4778 232.039 11.3007 232.508 11.1809C232.976 11.0611 233.5 11.0012 234.078 11.0012H235.758ZM239.219 4.12622H240.672V14.4856L240.547 16.1262H239.219V4.12622ZM246.383 11.8293V11.9934C246.383 12.608 246.31 13.1783 246.164 13.7043C246.018 14.2252 245.805 14.6783 245.523 15.0637C245.242 15.4491 244.898 15.7486 244.492 15.9622C244.086 16.1757 243.62 16.2825 243.094 16.2825C242.557 16.2825 242.086 16.1913 241.68 16.009C241.279 15.8215 240.94 15.5533 240.664 15.2043C240.388 14.8554 240.167 14.4335 240 13.9387C239.838 13.4439 239.726 12.8866 239.664 12.2668V11.5481C239.726 10.9231 239.838 10.3632 240 9.86841C240.167 9.37362 240.388 8.95174 240.664 8.60278C240.94 8.24862 241.279 7.98039 241.68 7.7981C242.081 7.6106 242.547 7.51685 243.078 7.51685C243.609 7.51685 244.081 7.62101 244.492 7.82935C244.904 8.03247 245.247 8.32414 245.523 8.70435C245.805 9.08455 246.018 9.54028 246.164 10.0715C246.31 10.5976 246.383 11.1835 246.383 11.8293ZM244.93 11.9934V11.8293C244.93 11.4075 244.891 11.0116 244.812 10.6418C244.734 10.2668 244.609 9.93872 244.437 9.65747C244.266 9.37101 244.039 9.14705 243.758 8.9856C243.476 8.81893 243.13 8.7356 242.719 8.7356C242.354 8.7356 242.036 8.7981 241.766 8.9231C241.5 9.0481 241.273 9.21737 241.086 9.43091C240.898 9.63924 240.745 9.87882 240.625 10.1497C240.51 10.4153 240.424 10.6913 240.367 10.9778V12.8606C240.45 13.2252 240.586 13.5767 240.773 13.9153C240.966 14.2486 241.221 14.5221 241.539 14.7356C241.862 14.9491 242.26 15.0559 242.734 15.0559C243.125 15.0559 243.458 14.9778 243.734 14.8215C244.016 14.6601 244.242 14.4387 244.414 14.1575C244.591 13.8762 244.721 13.5507 244.805 13.1809C244.888 12.8111 244.93 12.4153 244.93 11.9934ZM249.656 9.00122V16.1262H248.211V7.6731H249.617L249.656 9.00122ZM252.297 7.62622L252.289 8.96997C252.169 8.94393 252.055 8.9283 251.945 8.9231C251.841 8.91268 251.721 8.90747 251.586 8.90747C251.252 8.90747 250.958 8.95955 250.703 9.06372C250.448 9.16789 250.232 9.31372 250.055 9.50122C249.877 9.68872 249.737 9.91268 249.633 10.1731C249.534 10.4283 249.469 10.7096 249.437 11.0168L249.031 11.2512C249.031 10.7408 249.081 10.2616 249.18 9.81372C249.284 9.3658 249.443 8.96997 249.656 8.62622C249.87 8.27726 250.141 8.00643 250.469 7.81372C250.802 7.6158 251.198 7.51685 251.656 7.51685C251.76 7.51685 251.88 7.52987 252.016 7.55591C252.151 7.57674 252.245 7.60018 252.297 7.62622ZM255.203 7.6731V16.1262H253.75V7.6731H255.203ZM253.641 5.43091C253.641 5.19653 253.711 4.99862 253.851 4.83716C253.997 4.6757 254.211 4.59497 254.492 4.59497C254.768 4.59497 254.979 4.6757 255.125 4.83716C255.276 4.99862 255.351 5.19653 255.351 5.43091C255.351 5.65487 255.276 5.84757 255.125 6.00903C254.979 6.16528 254.768 6.24341 254.492 6.24341C254.211 6.24341 253.997 6.16528 253.851 6.00903C253.711 5.84757 253.641 5.65487 253.641 5.43091ZM258.969 9.00122V16.1262H257.523V7.6731H258.93L258.969 9.00122ZM261.609 7.62622L261.601 8.96997C261.482 8.94393 261.367 8.9283 261.258 8.9231C261.154 8.91268 261.034 8.90747 260.898 8.90747C260.565 8.90747 260.271 8.95955 260.016 9.06372C259.76 9.16789 259.544 9.31372 259.367 9.50122C259.19 9.68872 259.049 9.91268 258.945 10.1731C258.846 10.4283 258.781 10.7096 258.75 11.0168L258.344 11.2512C258.344 10.7408 258.393 10.2616 258.492 9.81372C258.596 9.3658 258.755 8.96997 258.969 8.62622C259.182 8.27726 259.453 8.00643 259.781 7.81372C260.114 7.6158 260.51 7.51685 260.969 7.51685C261.073 7.51685 261.193 7.52987 261.328 7.55591C261.463 7.57674 261.557 7.60018 261.609 7.62622ZM6.04431 33.1731V26.6731H7.49744V35.1262H6.11462L6.04431 33.1731ZM6.31775 31.3918L6.91931 31.3762C6.91931 31.9387 6.85942 32.4596 6.73962 32.9387C6.62504 33.4127 6.43754 33.8241 6.17712 34.1731C5.91671 34.5221 5.57556 34.7955 5.15369 34.9934C4.73181 35.1861 4.21879 35.2825 3.61462 35.2825C3.20317 35.2825 2.82556 35.2226 2.48181 35.1028C2.14327 34.983 1.8516 34.7981 1.60681 34.5481C1.36202 34.2981 1.17192 33.9726 1.0365 33.5715C0.906291 33.1705 0.841187 32.6887 0.841187 32.1262V26.6731H2.2865V32.1418C2.2865 32.5221 2.32817 32.8372 2.4115 33.0872C2.50004 33.3319 2.61723 33.5273 2.76306 33.6731C2.9141 33.8137 3.08077 33.9127 3.26306 33.97C3.45056 34.0273 3.64327 34.0559 3.84119 34.0559C4.45577 34.0559 4.94275 33.9387 5.30212 33.7043C5.6615 33.4648 5.91931 33.1444 6.07556 32.7434C6.23702 32.3372 6.31775 31.8866 6.31775 31.3918ZM11.1381 28.3528V35.1262H9.68494V26.6731H11.0599L11.1381 28.3528ZM10.8412 30.5793L10.1693 30.5559C10.1745 29.9778 10.25 29.4439 10.3959 28.9543C10.5417 28.4596 10.7579 28.0299 11.0443 27.6653C11.3308 27.3007 11.6875 27.0194 12.1146 26.8215C12.5417 26.6184 13.0365 26.5168 13.599 26.5168C13.9948 26.5168 14.3594 26.5741 14.6927 26.6887C15.0261 26.7981 15.3151 26.9726 15.5599 27.2122C15.8047 27.4517 15.9948 27.759 16.1302 28.134C16.2657 28.509 16.3334 28.9622 16.3334 29.4934V35.1262H14.8881V29.5637C14.8881 29.121 14.8125 28.7668 14.6615 28.5012C14.5157 28.2356 14.3073 28.0429 14.0365 27.9231C13.7657 27.7981 13.448 27.7356 13.0834 27.7356C12.6563 27.7356 12.2995 27.8111 12.0131 27.9622C11.7266 28.1132 11.4974 28.3215 11.3256 28.5872C11.1537 28.8528 11.0287 29.1575 10.9506 29.5012C10.8776 29.8398 10.8412 30.1991 10.8412 30.5793ZM16.3177 29.7825L15.349 30.0793C15.3542 29.6158 15.4297 29.1705 15.5756 28.7434C15.7266 28.3163 15.9427 27.9361 16.224 27.6028C16.5105 27.2694 16.862 27.0064 17.2787 26.8137C17.6954 26.6158 18.1719 26.5168 18.7084 26.5168C19.1615 26.5168 19.5625 26.5767 19.9115 26.6965C20.2657 26.8163 20.5625 27.0012 20.8021 27.2512C21.0469 27.496 21.2318 27.8111 21.3568 28.1965C21.4818 28.5819 21.5443 29.0403 21.5443 29.5715V35.1262H20.0912V29.5559C20.0912 29.0819 20.0157 28.7148 19.8646 28.4543C19.7188 28.1887 19.5105 28.0038 19.2396 27.8997C18.974 27.7903 18.6563 27.7356 18.2865 27.7356C17.9688 27.7356 17.6875 27.7903 17.4427 27.8997C17.198 28.009 16.9922 28.1601 16.8256 28.3528C16.6589 28.5403 16.5313 28.7564 16.4427 29.0012C16.3594 29.246 16.3177 29.5064 16.3177 29.7825ZM31.0834 34.095C31.4271 34.095 31.7448 34.0247 32.0365 33.884C32.3282 33.7434 32.5677 33.5507 32.7552 33.3059C32.9427 33.0559 33.0495 32.7721 33.0756 32.4543H34.4506C34.4245 32.9543 34.2552 33.4205 33.9427 33.8528C33.6355 34.2799 33.2318 34.6262 32.7318 34.8918C32.2318 35.1523 31.6823 35.2825 31.0834 35.2825C30.448 35.2825 29.8933 35.1705 29.4193 34.9465C28.9506 34.7226 28.5599 34.4153 28.2474 34.0247C27.9401 33.634 27.7084 33.1861 27.5521 32.6809C27.4011 32.1705 27.3256 31.6314 27.3256 31.0637V30.7356C27.3256 30.1679 27.4011 29.6314 27.5521 29.1262C27.7084 28.6158 27.9401 28.1653 28.2474 27.7747C28.5599 27.384 28.9506 27.0767 29.4193 26.8528C29.8933 26.6288 30.448 26.5168 31.0834 26.5168C31.7448 26.5168 32.323 26.6523 32.8177 26.9231C33.3125 27.1887 33.7006 27.5533 33.9818 28.0168C34.2683 28.4752 34.4245 28.996 34.4506 29.5793H33.0756C33.0495 29.2304 32.9506 28.9153 32.7787 28.634C32.612 28.3528 32.3829 28.1288 32.0912 27.9622C31.8047 27.7903 31.4688 27.7043 31.0834 27.7043C30.6407 27.7043 30.2683 27.7929 29.9662 27.97C29.6693 28.1418 29.4323 28.3762 29.2552 28.6731C29.0834 28.9648 28.9584 29.2903 28.8802 29.6497C28.8073 30.0038 28.7709 30.3658 28.7709 30.7356V31.0637C28.7709 31.4335 28.8073 31.7981 28.8802 32.1575C28.9532 32.5168 29.0756 32.8424 29.2474 33.134C29.4245 33.4257 29.6615 33.6601 29.9584 33.8372C30.2605 34.009 30.6355 34.095 31.0834 34.095ZM37.5209 23.1262V35.1262H36.0756V23.1262H37.5209ZM37.1771 30.5793L36.5756 30.5559C36.5808 29.9778 36.6667 29.4439 36.8334 28.9543C37 28.4596 37.2344 28.0299 37.5365 27.6653C37.8386 27.3007 38.198 27.0194 38.6146 26.8215C39.0365 26.6184 39.5026 26.5168 40.0131 26.5168C40.4297 26.5168 40.8047 26.5741 41.1381 26.6887C41.4714 26.7981 41.7552 26.9752 41.9896 27.22C42.2292 27.4648 42.4115 27.7825 42.5365 28.1731C42.6615 28.5585 42.724 29.0299 42.724 29.5872V35.1262H41.2709V29.5715C41.2709 29.1288 41.2058 28.7747 41.0756 28.509C40.9454 28.2382 40.7552 28.0429 40.5052 27.9231C40.2552 27.7981 39.948 27.7356 39.5834 27.7356C39.224 27.7356 38.8959 27.8111 38.599 27.9622C38.3073 28.1132 38.0547 28.3215 37.8412 28.5872C37.6329 28.8528 37.4688 29.1575 37.349 29.5012C37.2344 29.8398 37.1771 30.1991 37.1771 30.5793ZM49.8724 33.6809V29.3293C49.8724 28.996 49.8047 28.7069 49.6693 28.4622C49.5391 28.2122 49.3412 28.0194 49.0756 27.884C48.8099 27.7486 48.4818 27.6809 48.0912 27.6809C47.7266 27.6809 47.4063 27.7434 47.1302 27.8684C46.8594 27.9934 46.6459 28.1575 46.4896 28.3606C46.3386 28.5637 46.2631 28.7825 46.2631 29.0168H44.8177C44.8177 28.7148 44.8959 28.4153 45.0521 28.1184C45.2084 27.8215 45.4323 27.5533 45.724 27.3137C46.0209 27.0689 46.375 26.8762 46.7865 26.7356C47.2032 26.5898 47.6667 26.5168 48.1771 26.5168C48.7917 26.5168 49.3334 26.621 49.8021 26.8293C50.2761 27.0377 50.6459 27.3528 50.9115 27.7747C51.1823 28.1913 51.3177 28.7148 51.3177 29.345V33.2825C51.3177 33.5637 51.3412 33.8632 51.3881 34.1809C51.4401 34.4986 51.5157 34.7721 51.6146 35.0012V35.1262H50.1068C50.0339 34.9596 49.9766 34.7382 49.9349 34.4622C49.8933 34.1809 49.8724 33.9205 49.8724 33.6809ZM50.1224 30.0012L50.1381 31.0168H48.6771C48.2657 31.0168 47.8985 31.0507 47.5756 31.1184C47.2526 31.1809 46.9818 31.2773 46.7631 31.4075C46.5443 31.5377 46.3776 31.7017 46.2631 31.8997C46.1485 32.0924 46.0912 32.3189 46.0912 32.5793C46.0912 32.845 46.1511 33.0872 46.2709 33.3059C46.3907 33.5247 46.5704 33.6991 46.8099 33.8293C47.0547 33.9543 47.3542 34.0168 47.7084 34.0168C48.1511 34.0168 48.5417 33.9231 48.8802 33.7356C49.2188 33.5481 49.487 33.3189 49.6849 33.0481C49.8881 32.7773 49.9974 32.5142 50.0131 32.259L50.6302 32.9543C50.5938 33.1731 50.4948 33.4153 50.3334 33.6809C50.1719 33.9465 49.9558 34.2017 49.6849 34.4465C49.4193 34.6861 49.1016 34.8866 48.7318 35.0481C48.3672 35.2043 47.9558 35.2825 47.4974 35.2825C46.9245 35.2825 46.4219 35.1705 45.9896 34.9465C45.5625 34.7226 45.2292 34.4231 44.9896 34.0481C44.7552 33.6679 44.6381 33.2434 44.6381 32.7747C44.6381 32.3215 44.7266 31.9231 44.9037 31.5793C45.0808 31.2304 45.336 30.9413 45.6693 30.7122C46.0026 30.4778 46.4037 30.3007 46.8724 30.1809C47.3412 30.0611 47.8646 30.0012 48.4427 30.0012H50.1224ZM55.0287 28.3528V35.1262H53.5756V26.6731H54.9506L55.0287 28.3528ZM54.7318 30.5793L54.0599 30.5559C54.0651 29.9778 54.1407 29.4439 54.2865 28.9543C54.4323 28.4596 54.6485 28.0299 54.9349 27.6653C55.2214 27.3007 55.5782 27.0194 56.0052 26.8215C56.4323 26.6184 56.9271 26.5168 57.4896 26.5168C57.8855 26.5168 58.25 26.5741 58.5834 26.6887C58.9167 26.7981 59.2058 26.9726 59.4506 27.2122C59.6954 27.4517 59.8855 27.759 60.0209 28.134C60.1563 28.509 60.224 28.9622 60.224 29.4934V35.1262H58.7787V29.5637C58.7787 29.121 58.7032 28.7668 58.5521 28.5012C58.4063 28.2356 58.198 28.0429 57.9271 27.9231C57.6563 27.7981 57.3386 27.7356 56.974 27.7356C56.5469 27.7356 56.1901 27.8111 55.9037 27.9622C55.6172 28.1132 55.3881 28.3215 55.2162 28.5872C55.0443 28.8528 54.9193 29.1575 54.8412 29.5012C54.7683 29.8398 54.7318 30.1991 54.7318 30.5793ZM60.2084 29.7825L59.2396 30.0793C59.2448 29.6158 59.3204 29.1705 59.4662 28.7434C59.6172 28.3163 59.8334 27.9361 60.1146 27.6028C60.4011 27.2694 60.7526 27.0064 61.1693 26.8137C61.586 26.6158 62.0625 26.5168 62.599 26.5168C63.0521 26.5168 63.4532 26.5767 63.8021 26.6965C64.1563 26.8163 64.4532 27.0012 64.6927 27.2512C64.9375 27.496 65.1224 27.8111 65.2474 28.1965C65.3724 28.5819 65.4349 29.0403 65.4349 29.5715V35.1262H63.9818V29.5559C63.9818 29.0819 63.9063 28.7148 63.7552 28.4543C63.6094 28.1887 63.4011 28.0038 63.1302 27.8997C62.8646 27.7903 62.5469 27.7356 62.1771 27.7356C61.8594 27.7356 61.5782 27.7903 61.3334 27.8997C61.0886 28.009 60.8829 28.1601 60.7162 28.3528C60.5495 28.5403 60.4219 28.7564 60.3334 29.0012C60.25 29.246 60.2084 29.5064 60.2084 29.7825ZM72.6068 33.6809V29.3293C72.6068 28.996 72.5391 28.7069 72.4037 28.4622C72.2735 28.2122 72.0756 28.0194 71.8099 27.884C71.5443 27.7486 71.2162 27.6809 70.8256 27.6809C70.461 27.6809 70.1407 27.7434 69.8646 27.8684C69.5938 27.9934 69.3802 28.1575 69.224 28.3606C69.073 28.5637 68.9974 28.7825 68.9974 29.0168H67.5521C67.5521 28.7148 67.6302 28.4153 67.7865 28.1184C67.9427 27.8215 68.1667 27.5533 68.4584 27.3137C68.7552 27.0689 69.1094 26.8762 69.5209 26.7356C69.9375 26.5898 70.4011 26.5168 70.9115 26.5168C71.5261 26.5168 72.0677 26.621 72.5365 26.8293C73.0105 27.0377 73.3802 27.3528 73.6459 27.7747C73.9167 28.1913 74.0521 28.7148 74.0521 29.345V33.2825C74.0521 33.5637 74.0756 33.8632 74.1224 34.1809C74.1745 34.4986 74.25 34.7721 74.349 35.0012V35.1262H72.8412C72.7683 34.9596 72.711 34.7382 72.6693 34.4622C72.6276 34.1809 72.6068 33.9205 72.6068 33.6809ZM72.8568 30.0012L72.8724 31.0168H71.4115C71 31.0168 70.6329 31.0507 70.3099 31.1184C69.987 31.1809 69.7162 31.2773 69.4974 31.4075C69.2787 31.5377 69.112 31.7017 68.9974 31.8997C68.8829 32.0924 68.8256 32.3189 68.8256 32.5793C68.8256 32.845 68.8855 33.0872 69.0052 33.3059C69.125 33.5247 69.3047 33.6991 69.5443 33.8293C69.7891 33.9543 70.0886 34.0168 70.4427 34.0168C70.8855 34.0168 71.2761 33.9231 71.6146 33.7356C71.9532 33.5481 72.2214 33.3189 72.4193 33.0481C72.6224 32.7773 72.7318 32.5142 72.7474 32.259L73.3646 32.9543C73.3282 33.1731 73.2292 33.4153 73.0677 33.6809C72.9063 33.9465 72.6901 34.2017 72.4193 34.4465C72.1537 34.6861 71.836 34.8866 71.4662 35.0481C71.1016 35.2043 70.6901 35.2825 70.2318 35.2825C69.6589 35.2825 69.1563 35.1705 68.724 34.9465C68.2969 34.7226 67.9636 34.4231 67.724 34.0481C67.4896 33.6679 67.3724 33.2434 67.3724 32.7747C67.3724 32.3215 67.461 31.9231 67.6381 31.5793C67.8151 31.2304 68.0704 30.9413 68.4037 30.7122C68.737 30.4778 69.1381 30.3007 69.6068 30.1809C70.0756 30.0611 70.599 30.0012 71.1771 30.0012H72.8568ZM81.6537 33.4856V23.1262H83.1068V35.1262H81.7787L81.6537 33.4856ZM75.9662 30.9934V30.8293C75.9662 30.1835 76.0443 29.5976 76.2006 29.0715C76.362 28.5403 76.5886 28.0846 76.8802 27.7043C77.1771 27.3241 77.5287 27.0325 77.9349 26.8293C78.3464 26.621 78.8047 26.5168 79.3099 26.5168C79.8412 26.5168 80.3047 26.6106 80.7006 26.7981C81.1016 26.9804 81.4401 27.2486 81.7162 27.6028C81.9974 27.9517 82.2188 28.3736 82.3802 28.8684C82.5417 29.3632 82.6537 29.9231 82.7162 30.5481V31.2668C82.6589 31.8866 82.5469 32.4439 82.3802 32.9387C82.2188 33.4335 81.9974 33.8554 81.7162 34.2043C81.4401 34.5533 81.1016 34.8215 80.7006 35.009C80.2995 35.1913 79.8308 35.2825 79.2943 35.2825C78.7995 35.2825 78.3464 35.1757 77.9349 34.9622C77.5287 34.7486 77.1771 34.4491 76.8802 34.0637C76.5886 33.6783 76.362 33.2252 76.2006 32.7043C76.0443 32.1783 75.9662 31.608 75.9662 30.9934ZM77.4193 30.8293V30.9934C77.4193 31.4153 77.461 31.8111 77.5443 32.1809C77.6329 32.5507 77.7683 32.8762 77.9506 33.1575C78.1329 33.4387 78.3646 33.6601 78.6459 33.8215C78.9271 33.9778 79.2631 34.0559 79.6537 34.0559C80.1329 34.0559 80.5261 33.9543 80.8334 33.7512C81.1459 33.5481 81.3959 33.2799 81.5834 32.9465C81.7709 32.6132 81.9167 32.2512 82.0209 31.8606V29.9778C81.9584 29.6913 81.8672 29.4153 81.7474 29.1497C81.6329 28.8788 81.4818 28.6392 81.2943 28.4309C81.112 28.2174 80.8855 28.0481 80.6146 27.9231C80.349 27.7981 80.0339 27.7356 79.6693 27.7356C79.2735 27.7356 78.9323 27.8189 78.6459 27.9856C78.3646 28.1471 78.1329 28.371 77.9506 28.6575C77.7683 28.9387 77.6329 29.2668 77.5443 29.6418C77.461 30.0116 77.4193 30.4075 77.4193 30.8293ZM84.974 30.9934V30.8137C84.974 30.2043 85.0625 29.6392 85.2396 29.1184C85.4167 28.5924 85.6719 28.1366 86.0052 27.7512C86.3386 27.3606 86.7422 27.0585 87.2162 26.845C87.6901 26.6262 88.2214 26.5168 88.8099 26.5168C89.4037 26.5168 89.9375 26.6262 90.4115 26.845C90.8907 27.0585 91.2969 27.3606 91.6302 27.7512C91.9688 28.1366 92.2266 28.5924 92.4037 29.1184C92.5808 29.6392 92.6693 30.2043 92.6693 30.8137V30.9934C92.6693 31.6028 92.5808 32.1679 92.4037 32.6887C92.2266 33.2096 91.9688 33.6653 91.6302 34.0559C91.2969 34.4413 90.8933 34.7434 90.4193 34.9622C89.9506 35.1757 89.4193 35.2825 88.8256 35.2825C88.2318 35.2825 87.698 35.1757 87.224 34.9622C86.75 34.7434 86.3438 34.4413 86.0052 34.0559C85.6719 33.6653 85.4167 33.2096 85.2396 32.6887C85.0625 32.1679 84.974 31.6028 84.974 30.9934ZM86.4193 30.8137V30.9934C86.4193 31.4153 86.4688 31.8137 86.5677 32.1887C86.6667 32.5585 86.8151 32.8866 87.0131 33.1731C87.2162 33.4596 87.4688 33.6861 87.7709 33.8528C88.073 34.0142 88.4245 34.095 88.8256 34.095C89.2214 34.095 89.5677 34.0142 89.8646 33.8528C90.1667 33.6861 90.4167 33.4596 90.6146 33.1731C90.8125 32.8866 90.961 32.5585 91.0599 32.1887C91.1641 31.8137 91.2162 31.4153 91.2162 30.9934V30.8137C91.2162 30.3971 91.1641 30.0038 91.0599 29.634C90.961 29.259 90.8099 28.9283 90.6068 28.6418C90.4089 28.3502 90.1589 28.121 89.8568 27.9543C89.5599 27.7877 89.211 27.7043 88.8099 27.7043C88.4141 27.7043 88.0651 27.7877 87.7631 27.9543C87.4662 28.121 87.2162 28.3502 87.0131 28.6418C86.8151 28.9283 86.6667 29.259 86.5677 29.634C86.4688 30.0038 86.4193 30.3971 86.4193 30.8137ZM99.8959 28.4778V35.1262H98.4506V26.6731H99.8177L99.8959 28.4778ZM99.5521 30.5793L98.9506 30.5559C98.9558 29.9778 99.0417 29.4439 99.2084 28.9543C99.375 28.4596 99.6094 28.0299 99.9115 27.6653C100.214 27.3007 100.573 27.0194 100.99 26.8215C101.411 26.6184 101.878 26.5168 102.388 26.5168C102.805 26.5168 103.18 26.5741 103.513 26.6887C103.846 26.7981 104.13 26.9752 104.365 27.22C104.604 27.4648 104.786 27.7825 104.911 28.1731C105.036 28.5585 105.099 29.0299 105.099 29.5872V35.1262H103.646V29.5715C103.646 29.1288 103.581 28.7747 103.451 28.509C103.32 28.2382 103.13 28.0429 102.88 27.9231C102.63 27.7981 102.323 27.7356 101.958 27.7356C101.599 27.7356 101.271 27.8111 100.974 27.9622C100.682 28.1132 100.43 28.3215 100.216 28.5872C100.008 28.8528 99.8438 29.1575 99.724 29.5012C99.6094 29.8398 99.5521 30.1991 99.5521 30.5793ZM106.911 30.9934V30.8137C106.911 30.2043 107 29.6392 107.177 29.1184C107.354 28.5924 107.609 28.1366 107.943 27.7512C108.276 27.3606 108.68 27.0585 109.154 26.845C109.628 26.6262 110.159 26.5168 110.747 26.5168C111.341 26.5168 111.875 26.6262 112.349 26.845C112.828 27.0585 113.234 27.3606 113.568 27.7512C113.906 28.1366 114.164 28.5924 114.341 29.1184C114.518 29.6392 114.607 30.2043 114.607 30.8137V30.9934C114.607 31.6028 114.518 32.1679 114.341 32.6887C114.164 33.2096 113.906 33.6653 113.568 34.0559C113.234 34.4413 112.831 34.7434 112.357 34.9622C111.888 35.1757 111.357 35.2825 110.763 35.2825C110.169 35.2825 109.635 35.1757 109.161 34.9622C108.688 34.7434 108.281 34.4413 107.943 34.0559C107.609 33.6653 107.354 33.2096 107.177 32.6887C107 32.1679 106.911 31.6028 106.911 30.9934ZM108.357 30.8137V30.9934C108.357 31.4153 108.406 31.8137 108.505 32.1887C108.604 32.5585 108.753 32.8866 108.951 33.1731C109.154 33.4596 109.406 33.6861 109.708 33.8528C110.01 34.0142 110.362 34.095 110.763 34.095C111.159 34.095 111.505 34.0142 111.802 33.8528C112.104 33.6861 112.354 33.4596 112.552 33.1731C112.75 32.8866 112.898 32.5585 112.997 32.1887C113.102 31.8137 113.154 31.4153 113.154 30.9934V30.8137C113.154 30.3971 113.102 30.0038 112.997 29.634C112.898 29.259 112.747 28.9283 112.544 28.6418C112.346 28.3502 112.096 28.121 111.794 27.9543C111.497 27.7877 111.148 27.7043 110.747 27.7043C110.352 27.7043 110.003 27.7877 109.701 27.9543C109.404 28.121 109.154 28.3502 108.951 28.6418C108.753 28.9283 108.604 29.259 108.505 29.634C108.406 30.0038 108.357 30.3971 108.357 30.8137ZM127.474 31.509H128.974C128.896 32.2278 128.69 32.871 128.357 33.4387C128.023 34.0064 127.552 34.4569 126.943 34.7903C126.333 35.1184 125.573 35.2825 124.661 35.2825C123.995 35.2825 123.388 35.1575 122.841 34.9075C122.3 34.6575 121.833 34.3033 121.443 33.845C121.052 33.3814 120.75 32.8267 120.536 32.1809C120.328 31.5299 120.224 30.8059 120.224 30.009V28.8762C120.224 28.0793 120.328 27.358 120.536 26.7122C120.75 26.0611 121.055 25.5038 121.451 25.0403C121.852 24.5767 122.333 24.22 122.896 23.97C123.458 23.72 124.091 23.595 124.794 23.595C125.654 23.595 126.38 23.7564 126.974 24.0793C127.568 24.4023 128.029 24.8502 128.357 25.4231C128.69 25.9908 128.896 26.6497 128.974 27.3997H127.474C127.401 26.8684 127.266 26.4127 127.068 26.0325C126.87 25.6471 126.589 25.3502 126.224 25.1418C125.859 24.9335 125.383 24.8293 124.794 24.8293C124.289 24.8293 123.844 24.9257 123.458 25.1184C123.078 25.3111 122.758 25.5846 122.497 25.9387C122.242 26.2929 122.05 26.7174 121.919 27.2122C121.789 27.7069 121.724 28.2564 121.724 28.8606V30.009C121.724 30.5663 121.781 31.0898 121.896 31.5793C122.016 32.0689 122.195 32.4986 122.435 32.8684C122.675 33.2382 122.979 33.5299 123.349 33.7434C123.719 33.9517 124.156 34.0559 124.661 34.0559C125.302 34.0559 125.813 33.9543 126.193 33.7512C126.573 33.5481 126.859 33.2564 127.052 32.8762C127.25 32.496 127.391 32.0403 127.474 31.509ZM130.427 30.9934V30.8137C130.427 30.2043 130.516 29.6392 130.693 29.1184C130.87 28.5924 131.125 28.1366 131.458 27.7512C131.792 27.3606 132.195 27.0585 132.669 26.845C133.143 26.6262 133.675 26.5168 134.263 26.5168C134.857 26.5168 135.391 26.6262 135.865 26.845C136.344 27.0585 136.75 27.3606 137.083 27.7512C137.422 28.1366 137.68 28.5924 137.857 29.1184C138.034 29.6392 138.122 30.2043 138.122 30.8137V30.9934C138.122 31.6028 138.034 32.1679 137.857 32.6887C137.68 33.2096 137.422 33.6653 137.083 34.0559C136.75 34.4413 136.346 34.7434 135.872 34.9622C135.404 35.1757 134.872 35.2825 134.279 35.2825C133.685 35.2825 133.151 35.1757 132.677 34.9622C132.203 34.7434 131.797 34.4413 131.458 34.0559C131.125 33.6653 130.87 33.2096 130.693 32.6887C130.516 32.1679 130.427 31.6028 130.427 30.9934ZM131.872 30.8137V30.9934C131.872 31.4153 131.922 31.8137 132.021 32.1887C132.12 32.5585 132.268 32.8866 132.466 33.1731C132.669 33.4596 132.922 33.6861 133.224 33.8528C133.526 34.0142 133.878 34.095 134.279 34.095C134.675 34.095 135.021 34.0142 135.318 33.8528C135.62 33.6861 135.87 33.4596 136.068 33.1731C136.266 32.8866 136.414 32.5585 136.513 32.1887C136.617 31.8137 136.669 31.4153 136.669 30.9934V30.8137C136.669 30.3971 136.617 30.0038 136.513 29.634C136.414 29.259 136.263 28.9283 136.06 28.6418C135.862 28.3502 135.612 28.121 135.31 27.9543C135.013 27.7877 134.664 27.7043 134.263 27.7043C133.867 27.7043 133.518 27.7877 133.216 27.9543C132.919 28.121 132.669 28.3502 132.466 28.6418C132.268 28.9283 132.12 29.259 132.021 29.634C131.922 30.0038 131.872 30.3971 131.872 30.8137ZM141.38 28.4778V35.1262H139.935V26.6731H141.302L141.38 28.4778ZM141.036 30.5793L140.435 30.5559C140.44 29.9778 140.526 29.4439 140.693 28.9543C140.859 28.4596 141.094 28.0299 141.396 27.6653C141.698 27.3007 142.057 27.0194 142.474 26.8215C142.896 26.6184 143.362 26.5168 143.872 26.5168C144.289 26.5168 144.664 26.5741 144.997 26.6887C145.331 26.7981 145.615 26.9752 145.849 27.22C146.089 27.4648 146.271 27.7825 146.396 28.1731C146.521 28.5585 146.583 29.0299 146.583 29.5872V35.1262H145.13V29.5715C145.13 29.1288 145.065 28.7747 144.935 28.509C144.805 28.2382 144.615 28.0429 144.365 27.9231C144.115 27.7981 143.807 27.7356 143.443 27.7356C143.083 27.7356 142.755 27.8111 142.458 27.9622C142.167 28.1132 141.914 28.3215 141.701 28.5872C141.492 28.8528 141.328 29.1575 141.208 29.5012C141.094 29.8398 141.036 30.1991 141.036 30.5793ZM151.349 33.8215L153.661 26.6731H155.138L152.099 35.1262H151.13L151.349 33.8215ZM149.419 26.6731L151.802 33.8606L151.966 35.1262H150.997L147.935 26.6731H149.419ZM159.927 35.2825C159.339 35.2825 158.805 35.1835 158.326 34.9856C157.852 34.7825 157.443 34.4986 157.099 34.134C156.76 33.7694 156.5 33.3372 156.318 32.8372C156.135 32.3372 156.044 31.7903 156.044 31.1965V30.8684C156.044 30.1809 156.146 29.5689 156.349 29.0325C156.552 28.4908 156.828 28.0325 157.177 27.6575C157.526 27.2825 157.922 26.9986 158.365 26.8059C158.807 26.6132 159.266 26.5168 159.74 26.5168C160.344 26.5168 160.865 26.621 161.302 26.8293C161.745 27.0377 162.107 27.3293 162.388 27.7043C162.669 28.0741 162.878 28.5116 163.013 29.0168C163.148 29.5168 163.216 30.0637 163.216 30.6575V31.3059H156.904V30.1262H161.771V30.0168C161.75 29.6418 161.672 29.2773 161.536 28.9231C161.406 28.5689 161.198 28.2773 160.911 28.0481C160.625 27.8189 160.234 27.7043 159.74 27.7043C159.411 27.7043 159.109 27.7747 158.833 27.9153C158.557 28.0507 158.32 28.2538 158.122 28.5247C157.925 28.7955 157.771 29.1262 157.661 29.5168C157.552 29.9075 157.497 30.358 157.497 30.8684V31.1965C157.497 31.5976 157.552 31.9752 157.661 32.3293C157.776 32.6783 157.94 32.9856 158.154 33.2512C158.372 33.5168 158.635 33.7252 158.943 33.8762C159.255 34.0273 159.609 34.1028 160.005 34.1028C160.516 34.1028 160.948 33.9986 161.302 33.7903C161.656 33.5819 161.966 33.3033 162.232 32.9543L163.107 33.6497C162.925 33.9257 162.693 34.1887 162.411 34.4387C162.13 34.6887 161.784 34.8918 161.372 35.0481C160.966 35.2043 160.484 35.2825 159.927 35.2825ZM166.349 28.0012V35.1262H164.904V26.6731H166.31L166.349 28.0012ZM168.99 26.6262L168.982 27.97C168.862 27.9439 168.747 27.9283 168.638 27.9231C168.534 27.9127 168.414 27.9075 168.279 27.9075C167.945 27.9075 167.651 27.9596 167.396 28.0637C167.141 28.1679 166.925 28.3137 166.747 28.5012C166.57 28.6887 166.43 28.9127 166.326 29.1731C166.227 29.4283 166.161 29.7096 166.13 30.0168L165.724 30.2512C165.724 29.7408 165.773 29.2616 165.872 28.8137C165.977 28.3658 166.135 27.97 166.349 27.6262C166.563 27.2773 166.833 27.0064 167.161 26.8137C167.495 26.6158 167.891 26.5168 168.349 26.5168C168.453 26.5168 168.573 26.5299 168.708 26.5559C168.844 26.5767 168.938 26.6002 168.99 26.6262ZM175.247 32.884C175.247 32.6757 175.201 32.483 175.107 32.3059C175.018 32.1236 174.833 31.9596 174.552 31.8137C174.276 31.6627 173.859 31.5325 173.302 31.4231C172.833 31.3241 172.409 31.2069 172.029 31.0715C171.654 30.9361 171.333 30.7721 171.068 30.5793C170.807 30.3866 170.607 30.1601 170.466 29.8997C170.326 29.6392 170.255 29.3346 170.255 28.9856C170.255 28.6523 170.328 28.3372 170.474 28.0403C170.625 27.7434 170.836 27.4804 171.107 27.2512C171.383 27.0221 171.714 26.8424 172.099 26.7122C172.484 26.5819 172.914 26.5168 173.388 26.5168C174.065 26.5168 174.643 26.6366 175.122 26.8762C175.602 27.1158 175.969 27.4361 176.224 27.8372C176.479 28.233 176.607 28.6731 176.607 29.1575H175.161C175.161 28.9231 175.091 28.6965 174.951 28.4778C174.815 28.2538 174.615 28.0689 174.349 27.9231C174.089 27.7773 173.768 27.7043 173.388 27.7043C172.987 27.7043 172.661 27.7668 172.411 27.8918C172.167 28.0116 171.987 28.1653 171.872 28.3528C171.763 28.5403 171.708 28.7382 171.708 28.9465C171.708 29.1028 171.734 29.2434 171.786 29.3684C171.844 29.4882 171.943 29.6002 172.083 29.7043C172.224 29.8033 172.422 29.8971 172.677 29.9856C172.932 30.0741 173.258 30.1627 173.654 30.2512C174.346 30.4075 174.917 30.595 175.365 30.8137C175.813 31.0325 176.146 31.3007 176.365 31.6184C176.583 31.9361 176.693 32.3215 176.693 32.7747C176.693 33.1444 176.615 33.483 176.458 33.7903C176.307 34.0976 176.086 34.3632 175.794 34.5872C175.508 34.8059 175.164 34.9778 174.763 35.1028C174.367 35.2226 173.922 35.2825 173.427 35.2825C172.682 35.2825 172.052 35.1497 171.536 34.884C171.021 34.6184 170.63 34.2747 170.365 33.8528C170.099 33.4309 169.966 32.9856 169.966 32.5168H171.419C171.44 32.9127 171.555 33.2278 171.763 33.4622C171.971 33.6913 172.227 33.8554 172.529 33.9543C172.831 34.0481 173.13 34.095 173.427 34.095C173.823 34.095 174.154 34.0429 174.419 33.9387C174.69 33.8346 174.896 33.6913 175.036 33.509C175.177 33.3267 175.247 33.1184 175.247 32.884ZM182.099 35.2825C181.51 35.2825 180.977 35.1835 180.497 34.9856C180.023 34.7825 179.615 34.4986 179.271 34.134C178.932 33.7694 178.672 33.3372 178.49 32.8372C178.307 32.3372 178.216 31.7903 178.216 31.1965V30.8684C178.216 30.1809 178.318 29.5689 178.521 29.0325C178.724 28.4908 179 28.0325 179.349 27.6575C179.698 27.2825 180.094 26.9986 180.536 26.8059C180.979 26.6132 181.438 26.5168 181.911 26.5168C182.516 26.5168 183.036 26.621 183.474 26.8293C183.917 27.0377 184.279 27.3293 184.56 27.7043C184.841 28.0741 185.05 28.5116 185.185 29.0168C185.32 29.5168 185.388 30.0637 185.388 30.6575V31.3059H179.076V30.1262H183.943V30.0168C183.922 29.6418 183.844 29.2773 183.708 28.9231C183.578 28.5689 183.37 28.2773 183.083 28.0481C182.797 27.8189 182.406 27.7043 181.911 27.7043C181.583 27.7043 181.281 27.7747 181.005 27.9153C180.729 28.0507 180.492 28.2538 180.294 28.5247C180.096 28.7955 179.943 29.1262 179.833 29.5168C179.724 29.9075 179.669 30.358 179.669 30.8684V31.1965C179.669 31.5976 179.724 31.9752 179.833 32.3293C179.948 32.6783 180.112 32.9856 180.326 33.2512C180.544 33.5168 180.807 33.7252 181.115 33.8762C181.427 34.0273 181.781 34.1028 182.177 34.1028C182.688 34.1028 183.12 33.9986 183.474 33.7903C183.828 33.5819 184.138 33.3033 184.404 32.9543L185.279 33.6497C185.096 33.9257 184.865 34.1887 184.583 34.4387C184.302 34.6887 183.956 34.8918 183.544 35.0481C183.138 35.2043 182.656 35.2825 182.099 35.2825ZM195.318 29.8059H192.435L192.419 28.595H195.036C195.469 28.595 195.846 28.5221 196.169 28.3762C196.492 28.2304 196.742 28.0221 196.919 27.7512C197.102 27.4752 197.193 27.1471 197.193 26.7668C197.193 26.3502 197.112 26.0116 196.951 25.7512C196.794 25.4856 196.552 25.2929 196.224 25.1731C195.901 25.0481 195.49 24.9856 194.99 24.9856H192.771V35.1262H191.263V23.7512H194.99C195.573 23.7512 196.094 23.8111 196.552 23.9309C197.01 24.0455 197.398 24.2278 197.716 24.4778C198.039 24.7226 198.284 25.0351 198.451 25.4153C198.617 25.7955 198.701 26.2512 198.701 26.7825C198.701 27.2512 198.581 27.6757 198.341 28.0559C198.102 28.4309 197.768 28.7382 197.341 28.9778C196.919 29.2174 196.425 29.371 195.857 29.4387L195.318 29.8059ZM195.247 35.1262H191.841L192.693 33.8997H195.247C195.727 33.8997 196.133 33.8163 196.466 33.6497C196.805 33.483 197.063 33.2486 197.24 32.9465C197.417 32.6392 197.505 32.2773 197.505 31.8606C197.505 31.4387 197.43 31.0741 197.279 30.7668C197.128 30.4596 196.891 30.2226 196.568 30.0559C196.245 29.8892 195.828 29.8059 195.318 29.8059H193.169L193.185 28.595H196.122L196.443 29.0325C196.99 29.0793 197.453 29.2356 197.833 29.5012C198.214 29.7616 198.503 30.095 198.701 30.5012C198.904 30.9075 199.005 31.3554 199.005 31.845C199.005 32.5533 198.849 33.1523 198.536 33.6418C198.229 34.1262 197.794 34.496 197.232 34.7512C196.669 35.0012 196.008 35.1262 195.247 35.1262ZM205.997 33.6809V29.3293C205.997 28.996 205.93 28.7069 205.794 28.4622C205.664 28.2122 205.466 28.0194 205.201 27.884C204.935 27.7486 204.607 27.6809 204.216 27.6809C203.852 27.6809 203.531 27.7434 203.255 27.8684C202.984 27.9934 202.771 28.1575 202.615 28.3606C202.464 28.5637 202.388 28.7825 202.388 29.0168H200.943C200.943 28.7148 201.021 28.4153 201.177 28.1184C201.333 27.8215 201.557 27.5533 201.849 27.3137C202.146 27.0689 202.5 26.8762 202.911 26.7356C203.328 26.5898 203.792 26.5168 204.302 26.5168C204.917 26.5168 205.458 26.621 205.927 26.8293C206.401 27.0377 206.771 27.3528 207.036 27.7747C207.307 28.1913 207.443 28.7148 207.443 29.345V33.2825C207.443 33.5637 207.466 33.8632 207.513 34.1809C207.565 34.4986 207.641 34.7721 207.74 35.0012V35.1262H206.232C206.159 34.9596 206.102 34.7382 206.06 34.4622C206.018 34.1809 205.997 33.9205 205.997 33.6809ZM206.247 30.0012L206.263 31.0168H204.802C204.391 31.0168 204.023 31.0507 203.701 31.1184C203.378 31.1809 203.107 31.2773 202.888 31.4075C202.669 31.5377 202.503 31.7017 202.388 31.8997C202.273 32.0924 202.216 32.3189 202.216 32.5793C202.216 32.845 202.276 33.0872 202.396 33.3059C202.516 33.5247 202.695 33.6991 202.935 33.8293C203.18 33.9543 203.479 34.0168 203.833 34.0168C204.276 34.0168 204.667 33.9231 205.005 33.7356C205.344 33.5481 205.612 33.3189 205.81 33.0481C206.013 32.7773 206.122 32.5142 206.138 32.259L206.755 32.9543C206.719 33.1731 206.62 33.4153 206.458 33.6809C206.297 33.9465 206.081 34.2017 205.81 34.4465C205.544 34.6861 205.227 34.8866 204.857 35.0481C204.492 35.2043 204.081 35.2825 203.622 35.2825C203.05 35.2825 202.547 35.1705 202.115 34.9465C201.688 34.7226 201.354 34.4231 201.115 34.0481C200.88 33.6679 200.763 33.2434 200.763 32.7747C200.763 32.3215 200.852 31.9231 201.029 31.5793C201.206 31.2304 201.461 30.9413 201.794 30.7122C202.128 30.4778 202.529 30.3007 202.997 30.1809C203.466 30.0611 203.99 30.0012 204.568 30.0012H206.247ZM211.966 34.2512L214.318 26.6731H215.865L212.474 36.4309C212.396 36.6392 212.292 36.8632 212.161 37.1028C212.036 37.3476 211.875 37.5793 211.677 37.7981C211.479 38.0168 211.24 38.1939 210.958 38.3293C210.682 38.47 210.352 38.5403 209.966 38.5403C209.852 38.5403 209.706 38.5247 209.529 38.4934C209.352 38.4622 209.227 38.4361 209.154 38.4153L209.146 37.2434C209.188 37.2486 209.253 37.2538 209.341 37.259C209.435 37.2694 209.5 37.2747 209.536 37.2747C209.865 37.2747 210.143 37.2304 210.372 37.1418C210.602 37.0585 210.794 36.9153 210.951 36.7122C211.112 36.5142 211.25 36.2408 211.365 35.8918L211.966 34.2512ZM210.24 26.6731L212.435 33.2356L212.81 34.759L211.771 35.2903L208.661 26.6731H210.24ZM220.568 35.2825C219.979 35.2825 219.445 35.1835 218.966 34.9856C218.492 34.7825 218.083 34.4986 217.74 34.134C217.401 33.7694 217.141 33.3372 216.958 32.8372C216.776 32.3372 216.685 31.7903 216.685 31.1965V30.8684C216.685 30.1809 216.786 29.5689 216.99 29.0325C217.193 28.4908 217.469 28.0325 217.818 27.6575C218.167 27.2825 218.563 26.9986 219.005 26.8059C219.448 26.6132 219.906 26.5168 220.38 26.5168C220.984 26.5168 221.505 26.621 221.943 26.8293C222.385 27.0377 222.747 27.3293 223.029 27.7043C223.31 28.0741 223.518 28.5116 223.654 29.0168C223.789 29.5168 223.857 30.0637 223.857 30.6575V31.3059H217.544V30.1262H222.411V30.0168C222.391 29.6418 222.313 29.2773 222.177 28.9231C222.047 28.5689 221.839 28.2773 221.552 28.0481C221.266 27.8189 220.875 27.7043 220.38 27.7043C220.052 27.7043 219.75 27.7747 219.474 27.9153C219.198 28.0507 218.961 28.2538 218.763 28.5247C218.565 28.7955 218.411 29.1262 218.302 29.5168C218.193 29.9075 218.138 30.358 218.138 30.8684V31.1965C218.138 31.5976 218.193 31.9752 218.302 32.3293C218.417 32.6783 218.581 32.9856 218.794 33.2512C219.013 33.5168 219.276 33.7252 219.583 33.8762C219.896 34.0273 220.25 34.1028 220.646 34.1028C221.156 34.1028 221.589 33.9986 221.943 33.7903C222.297 33.5819 222.607 33.3033 222.872 32.9543L223.747 33.6497C223.565 33.9257 223.333 34.1887 223.052 34.4387C222.771 34.6887 222.425 34.8918 222.013 35.0481C221.607 35.2043 221.125 35.2825 220.568 35.2825ZM226.99 28.0012V35.1262H225.544V26.6731H226.951L226.99 28.0012ZM229.63 26.6262L229.622 27.97C229.503 27.9439 229.388 27.9283 229.279 27.9231C229.175 27.9127 229.055 27.9075 228.919 27.9075C228.586 27.9075 228.292 27.9596 228.036 28.0637C227.781 28.1679 227.565 28.3137 227.388 28.5012C227.211 28.6887 227.07 28.9127 226.966 29.1731C226.867 29.4283 226.802 29.7096 226.771 30.0168L226.365 30.2512C226.365 29.7408 226.414 29.2616 226.513 28.8137C226.617 28.3658 226.776 27.97 226.99 27.6262C227.203 27.2773 227.474 27.0064 227.802 26.8137C228.135 26.6158 228.531 26.5168 228.99 26.5168C229.094 26.5168 229.214 26.5299 229.349 26.5559C229.484 26.5767 229.578 26.6002 229.63 26.6262ZM238.443 35.2825C237.854 35.2825 237.32 35.1835 236.841 34.9856C236.367 34.7825 235.958 34.4986 235.615 34.134C235.276 33.7694 235.016 33.3372 234.833 32.8372C234.651 32.3372 234.56 31.7903 234.56 31.1965V30.8684C234.56 30.1809 234.661 29.5689 234.865 29.0325C235.068 28.4908 235.344 28.0325 235.693 27.6575C236.042 27.2825 236.438 26.9986 236.88 26.8059C237.323 26.6132 237.781 26.5168 238.255 26.5168C238.859 26.5168 239.38 26.621 239.818 26.8293C240.26 27.0377 240.622 27.3293 240.904 27.7043C241.185 28.0741 241.393 28.5116 241.529 29.0168C241.664 29.5168 241.732 30.0637 241.732 30.6575V31.3059H235.419V30.1262H240.286V30.0168C240.266 29.6418 240.188 29.2773 240.052 28.9231C239.922 28.5689 239.714 28.2773 239.427 28.0481C239.141 27.8189 238.75 27.7043 238.255 27.7043C237.927 27.7043 237.625 27.7747 237.349 27.9153C237.073 28.0507 236.836 28.2538 236.638 28.5247C236.44 28.7955 236.286 29.1262 236.177 29.5168C236.068 29.9075 236.013 30.358 236.013 30.8684V31.1965C236.013 31.5976 236.068 31.9752 236.177 32.3293C236.292 32.6783 236.456 32.9856 236.669 33.2512C236.888 33.5168 237.151 33.7252 237.458 33.8762C237.771 34.0273 238.125 34.1028 238.521 34.1028C239.031 34.1028 239.464 33.9986 239.818 33.7903C240.172 33.5819 240.482 33.3033 240.747 32.9543L241.622 33.6497C241.44 33.9257 241.208 34.1887 240.927 34.4387C240.646 34.6887 240.3 34.8918 239.888 35.0481C239.482 35.2043 239 35.2825 238.443 35.2825ZM2.44275 45.6731V54.1262H0.989624V45.6731H2.44275ZM0.880249 43.4309C0.880249 43.1965 0.950562 42.9986 1.09119 42.8372C1.23702 42.6757 1.45056 42.595 1.73181 42.595C2.00785 42.595 2.21879 42.6757 2.36462 42.8372C2.51567 42.9986 2.59119 43.1965 2.59119 43.4309C2.59119 43.6549 2.51567 43.8476 2.36462 44.009C2.21879 44.1653 2.00785 44.2434 1.73181 44.2434C1.45056 44.2434 1.23702 44.1653 1.09119 44.009C0.950562 43.8476 0.880249 43.6549 0.880249 43.4309ZM6.20837 47.4778V54.1262H4.76306V45.6731H6.13025L6.20837 47.4778ZM5.86462 49.5793L5.26306 49.5559C5.26827 48.9778 5.35421 48.4439 5.52087 47.9543C5.68754 47.4596 5.92192 47.0299 6.224 46.6653C6.52608 46.3007 6.88546 46.0194 7.30212 45.8215C7.724 45.6184 8.19014 45.5168 8.70056 45.5168C9.11723 45.5168 9.49223 45.5741 9.82556 45.6887C10.1589 45.7981 10.4427 45.9752 10.6771 46.22C10.9167 46.4648 11.099 46.7825 11.224 47.1731C11.349 47.5585 11.4115 48.0299 11.4115 48.5872V54.1262H9.95837V48.5715C9.95837 48.1288 9.89327 47.7747 9.76306 47.509C9.63285 47.2382 9.44275 47.0429 9.19275 46.9231C8.94275 46.7981 8.63546 46.7356 8.27087 46.7356C7.9115 46.7356 7.58337 46.8111 7.2865 46.9622C6.99483 47.1132 6.74223 47.3215 6.52869 47.5872C6.32035 47.8528 6.15629 48.1575 6.0365 48.5012C5.92192 48.8398 5.86462 49.1991 5.86462 49.5793ZM15.7631 54.1262H14.3177V44.7825C14.3177 44.1731 14.4271 43.6601 14.6459 43.2434C14.8698 42.8215 15.1901 42.5038 15.6068 42.2903C16.0235 42.0715 16.5183 41.9622 17.0912 41.9622C17.2579 41.9622 17.4245 41.9726 17.5912 41.9934C17.7631 42.0142 17.9297 42.0455 18.0912 42.0872L18.0131 43.2668C17.9037 43.2408 17.7787 43.2226 17.6381 43.2122C17.5026 43.2017 17.3672 43.1965 17.2318 43.1965C16.9245 43.1965 16.6589 43.259 16.4349 43.384C16.2162 43.5038 16.0495 43.6809 15.9349 43.9153C15.8204 44.1497 15.7631 44.4387 15.7631 44.7825V54.1262ZM17.5599 45.6731V46.7825H12.9818V45.6731H17.5599ZM18.7865 49.9934V49.8137C18.7865 49.2043 18.875 48.6392 19.0521 48.1184C19.2292 47.5924 19.4844 47.1366 19.8177 46.7512C20.1511 46.3606 20.5547 46.0585 21.0287 45.845C21.5026 45.6262 22.0339 45.5168 22.6224 45.5168C23.2162 45.5168 23.75 45.6262 24.224 45.845C24.7032 46.0585 25.1094 46.3606 25.4427 46.7512C25.7813 47.1366 26.0391 47.5924 26.2162 48.1184C26.3933 48.6392 26.4818 49.2043 26.4818 49.8137V49.9934C26.4818 50.6028 26.3933 51.1679 26.2162 51.6887C26.0391 52.2096 25.7813 52.6653 25.4427 53.0559C25.1094 53.4413 24.7058 53.7434 24.2318 53.9622C23.7631 54.1757 23.2318 54.2825 22.6381 54.2825C22.0443 54.2825 21.5105 54.1757 21.0365 53.9622C20.5625 53.7434 20.1563 53.4413 19.8177 53.0559C19.4844 52.6653 19.2292 52.2096 19.0521 51.6887C18.875 51.1679 18.7865 50.6028 18.7865 49.9934ZM20.2318 49.8137V49.9934C20.2318 50.4153 20.2813 50.8137 20.3802 51.1887C20.4792 51.5585 20.6276 51.8866 20.8256 52.1731C21.0287 52.4596 21.2813 52.6861 21.5834 52.8528C21.8855 53.0142 22.237 53.095 22.6381 53.095C23.0339 53.095 23.3802 53.0142 23.6771 52.8528C23.9792 52.6861 24.2292 52.4596 24.4271 52.1731C24.625 51.8866 24.7735 51.5585 24.8724 51.1887C24.9766 50.8137 25.0287 50.4153 25.0287 49.9934V49.8137C25.0287 49.3971 24.9766 49.0038 24.8724 48.634C24.7735 48.259 24.6224 47.9283 24.4193 47.6418C24.2214 47.3502 23.9714 47.121 23.6693 46.9543C23.3724 46.7877 23.0235 46.7043 22.6224 46.7043C22.2266 46.7043 21.8776 46.7877 21.5756 46.9543C21.2787 47.121 21.0287 47.3502 20.8256 47.6418C20.6276 47.9283 20.4792 48.259 20.3802 48.634C20.2813 49.0038 20.2318 49.3971 20.2318 49.8137ZM29.7396 47.0012V54.1262H28.2943V45.6731H29.7006L29.7396 47.0012ZM32.3802 45.6262L32.3724 46.97C32.2526 46.9439 32.1381 46.9283 32.0287 46.9231C31.9245 46.9127 31.8047 46.9075 31.6693 46.9075C31.336 46.9075 31.0417 46.9596 30.7865 47.0637C30.5313 47.1679 30.3151 47.3137 30.1381 47.5012C29.961 47.6887 29.8204 47.9127 29.7162 48.1731C29.6172 48.4283 29.5521 48.7096 29.5209 49.0168L29.1146 49.2512C29.1146 48.7408 29.1641 48.2616 29.2631 47.8137C29.3672 47.3658 29.5261 46.97 29.7396 46.6262C29.9532 46.2773 30.224 46.0064 30.5521 45.8137C30.8855 45.6158 31.2813 45.5168 31.7396 45.5168C31.8438 45.5168 31.9636 45.5299 32.099 45.5559C32.2344 45.5767 32.3282 45.6002 32.3802 45.6262ZM35.1537 47.3528V54.1262H33.7006V45.6731H35.0756L35.1537 47.3528ZM34.8568 49.5793L34.1849 49.5559C34.1901 48.9778 34.2657 48.4439 34.4115 47.9543C34.5573 47.4596 34.7735 47.0299 35.0599 46.6653C35.3464 46.3007 35.7032 46.0194 36.1302 45.8215C36.5573 45.6184 37.0521 45.5168 37.6146 45.5168C38.0105 45.5168 38.375 45.5741 38.7084 45.6887C39.0417 45.7981 39.3308 45.9726 39.5756 46.2122C39.8204 46.4517 40.0105 46.759 40.1459 47.134C40.2813 47.509 40.349 47.9622 40.349 48.4934V54.1262H38.9037V48.5637C38.9037 48.121 38.8282 47.7668 38.6771 47.5012C38.5313 47.2356 38.323 47.0429 38.0521 46.9231C37.7813 46.7981 37.4636 46.7356 37.099 46.7356C36.6719 46.7356 36.3151 46.8111 36.0287 46.9622C35.7422 47.1132 35.5131 47.3215 35.3412 47.5872C35.1693 47.8528 35.0443 48.1575 34.9662 48.5012C34.8933 48.8398 34.8568 49.1991 34.8568 49.5793ZM40.3334 48.7825L39.3646 49.0793C39.3698 48.6158 39.4454 48.1705 39.5912 47.7434C39.7422 47.3163 39.9584 46.9361 40.2396 46.6028C40.5261 46.2694 40.8776 46.0064 41.2943 45.8137C41.711 45.6158 42.1875 45.5168 42.724 45.5168C43.1771 45.5168 43.5782 45.5767 43.9271 45.6965C44.2813 45.8163 44.5782 46.0012 44.8177 46.2512C45.0625 46.496 45.2474 46.8111 45.3724 47.1965C45.4974 47.5819 45.5599 48.0403 45.5599 48.5715V54.1262H44.1068V48.5559C44.1068 48.0819 44.0313 47.7148 43.8802 47.4543C43.7344 47.1887 43.5261 47.0038 43.2552 46.8997C42.9896 46.7903 42.6719 46.7356 42.3021 46.7356C41.9844 46.7356 41.7032 46.7903 41.4584 46.8997C41.2136 47.009 41.0079 47.1601 40.8412 47.3528C40.6745 47.5403 40.5469 47.7564 40.4584 48.0012C40.375 48.246 40.3334 48.5064 40.3334 48.7825ZM52.7318 52.6809V48.3293C52.7318 47.996 52.6641 47.7069 52.5287 47.4622C52.3985 47.2122 52.2006 47.0194 51.9349 46.884C51.6693 46.7486 51.3412 46.6809 50.9506 46.6809C50.586 46.6809 50.2657 46.7434 49.9896 46.8684C49.7188 46.9934 49.5052 47.1575 49.349 47.3606C49.198 47.5637 49.1224 47.7825 49.1224 48.0168H47.6771C47.6771 47.7148 47.7552 47.4153 47.9115 47.1184C48.0677 46.8215 48.2917 46.5533 48.5834 46.3137C48.8802 46.0689 49.2344 45.8762 49.6459 45.7356C50.0625 45.5898 50.5261 45.5168 51.0365 45.5168C51.6511 45.5168 52.1927 45.621 52.6615 45.8293C53.1355 46.0377 53.5052 46.3528 53.7709 46.7747C54.0417 47.1913 54.1771 47.7148 54.1771 48.345V52.2825C54.1771 52.5637 54.2006 52.8632 54.2474 53.1809C54.2995 53.4986 54.375 53.7721 54.474 54.0012V54.1262H52.9662C52.8933 53.9596 52.836 53.7382 52.7943 53.4622C52.7526 53.1809 52.7318 52.9205 52.7318 52.6809ZM52.9818 49.0012L52.9974 50.0168H51.5365C51.125 50.0168 50.7579 50.0507 50.4349 50.1184C50.112 50.1809 49.8412 50.2773 49.6224 50.4075C49.4037 50.5377 49.237 50.7017 49.1224 50.8997C49.0079 51.0924 48.9506 51.3189 48.9506 51.5793C48.9506 51.845 49.0105 52.0872 49.1302 52.3059C49.25 52.5247 49.4297 52.6991 49.6693 52.8293C49.9141 52.9543 50.2136 53.0168 50.5677 53.0168C51.0105 53.0168 51.4011 52.9231 51.7396 52.7356C52.0782 52.5481 52.3464 52.3189 52.5443 52.0481C52.7474 51.7773 52.8568 51.5142 52.8724 51.259L53.4896 51.9543C53.4532 52.1731 53.3542 52.4153 53.1927 52.6809C53.0313 52.9465 52.8151 53.2017 52.5443 53.4465C52.2787 53.6861 51.961 53.8866 51.5912 54.0481C51.2266 54.2043 50.8151 54.2825 50.3568 54.2825C49.7839 54.2825 49.2813 54.1705 48.849 53.9465C48.4219 53.7226 48.0886 53.4231 47.849 53.0481C47.6146 52.6679 47.4974 52.2434 47.4974 51.7747C47.4974 51.3215 47.586 50.9231 47.7631 50.5793C47.9401 50.2304 48.1954 49.9413 48.5287 49.7122C48.862 49.4778 49.2631 49.3007 49.7318 49.1809C50.2006 49.0611 50.724 49.0012 51.3021 49.0012H52.9818ZM57.8959 47.0012V54.1262H56.4506V45.6731H57.8568L57.8959 47.0012ZM60.5365 45.6262L60.5287 46.97C60.4089 46.9439 60.2943 46.9283 60.1849 46.9231C60.0808 46.9127 59.961 46.9075 59.8256 46.9075C59.4922 46.9075 59.198 46.9596 58.9427 47.0637C58.6875 47.1679 58.4714 47.3137 58.2943 47.5012C58.1172 47.6887 57.9766 47.9127 57.8724 48.1731C57.7735 48.4283 57.7084 48.7096 57.6771 49.0168L57.2709 49.2512C57.2709 48.7408 57.3204 48.2616 57.4193 47.8137C57.5235 47.3658 57.6823 46.97 57.8959 46.6262C58.1094 46.2773 58.3802 46.0064 58.7084 45.8137C59.0417 45.6158 59.4375 45.5168 59.8959 45.5168C60 45.5168 60.1198 45.5299 60.2552 45.5559C60.3907 45.5767 60.4844 45.6002 60.5365 45.6262ZM71.1615 57.3762V47.2981L71.2865 45.6731H72.6146V57.3762H71.1615ZM65.4818 49.9934V49.8293C65.4818 49.1835 65.5573 48.5976 65.7084 48.0715C65.8594 47.5403 66.0808 47.0846 66.3724 46.7043C66.6641 46.3241 67.0157 46.0325 67.4271 45.8293C67.8438 45.621 68.3177 45.5168 68.849 45.5168C69.3802 45.5168 69.8464 45.6106 70.2474 45.7981C70.6537 45.9804 70.9974 46.2486 71.2787 46.6028C71.5651 46.9517 71.7917 47.3736 71.9584 47.8684C72.125 48.3632 72.2396 48.9231 72.3021 49.5481V50.2668C72.2448 50.8866 72.1329 51.4439 71.9662 51.9387C71.7995 52.4335 71.573 52.8554 71.2865 53.2043C71.0052 53.5533 70.6589 53.8215 70.2474 54.009C69.8412 54.1913 69.3698 54.2825 68.8334 54.2825C68.3125 54.2825 67.8438 54.1757 67.4271 53.9622C67.0157 53.7486 66.6641 53.4491 66.3724 53.0637C66.086 52.6783 65.8646 52.2252 65.7084 51.7043C65.5573 51.1783 65.4818 50.608 65.4818 49.9934ZM66.9349 49.8293V49.9934C66.9349 50.4153 66.9792 50.8137 67.0677 51.1887C67.1563 51.5585 67.2917 51.8866 67.474 52.1731C67.6615 52.4596 67.8959 52.6861 68.1771 52.8528C68.4636 53.0142 68.8021 53.095 69.1927 53.095C69.6719 53.095 70.0704 52.9908 70.3881 52.7825C70.711 52.5741 70.9688 52.3007 71.1615 51.9622C71.3542 51.6184 71.5026 51.2512 71.6068 50.8606V48.9778C71.5495 48.6913 71.4584 48.4127 71.3334 48.1418C71.2136 47.871 71.0573 47.6288 70.8646 47.4153C70.6719 47.1965 70.4375 47.0247 70.1615 46.8997C69.8907 46.7694 69.573 46.7043 69.2084 46.7043C68.8125 46.7043 68.4714 46.7877 68.1849 46.9543C67.8985 47.121 67.6615 47.3502 67.474 47.6418C67.2917 47.9283 67.1563 48.259 67.0677 48.634C66.9792 49.009 66.9349 49.4075 66.9349 49.8293ZM80.1068 52.1731V45.6731H81.5599V54.1262H80.1771L80.1068 52.1731ZM80.3802 50.3918L80.9818 50.3762C80.9818 50.9387 80.9219 51.4596 80.8021 51.9387C80.6875 52.4127 80.5 52.8241 80.2396 53.1731C79.9792 53.5221 79.6381 53.7955 79.2162 53.9934C78.7943 54.1861 78.2813 54.2825 77.6771 54.2825C77.2657 54.2825 76.8881 54.2226 76.5443 54.1028C76.2058 53.983 75.9141 53.7981 75.6693 53.5481C75.4245 53.2981 75.2344 52.9726 75.099 52.5715C74.9688 52.1705 74.9037 51.6887 74.9037 51.1262V45.6731H76.349V51.1418C76.349 51.5221 76.3907 51.8372 76.474 52.0872C76.5625 52.3319 76.6797 52.5273 76.8256 52.6731C76.9766 52.8137 77.1433 52.9127 77.3256 52.97C77.5131 53.0273 77.7058 53.0559 77.9037 53.0559C78.5183 53.0559 79.0052 52.9387 79.3646 52.7043C79.724 52.4648 79.9818 52.1444 80.1381 51.7434C80.2995 51.3372 80.3802 50.8866 80.3802 50.3918ZM87.2709 54.2825C86.6823 54.2825 86.1485 54.1835 85.6693 53.9856C85.1954 53.7825 84.7865 53.4986 84.4427 53.134C84.1042 52.7694 83.8438 52.3372 83.6615 51.8372C83.4792 51.3372 83.3881 50.7903 83.3881 50.1965V49.8684C83.3881 49.1809 83.4896 48.5689 83.6927 48.0325C83.8959 47.4908 84.1719 47.0325 84.5209 46.6575C84.8698 46.2825 85.2657 45.9986 85.7084 45.8059C86.1511 45.6132 86.6094 45.5168 87.0834 45.5168C87.6875 45.5168 88.2084 45.621 88.6459 45.8293C89.0886 46.0377 89.4506 46.3293 89.7318 46.7043C90.0131 47.0741 90.2214 47.5116 90.3568 48.0168C90.4922 48.5168 90.5599 49.0637 90.5599 49.6575V50.3059H84.2474V49.1262H89.1146V49.0168C89.0938 48.6418 89.0157 48.2773 88.8802 47.9231C88.75 47.5689 88.5417 47.2773 88.2552 47.0481C87.9688 46.8189 87.5782 46.7043 87.0834 46.7043C86.7552 46.7043 86.4532 46.7747 86.1771 46.9153C85.9011 47.0507 85.6641 47.2538 85.4662 47.5247C85.2683 47.7955 85.1146 48.1262 85.0052 48.5168C84.8959 48.9075 84.8412 49.358 84.8412 49.8684V50.1965C84.8412 50.5976 84.8959 50.9752 85.0052 51.3293C85.1198 51.6783 85.2839 51.9856 85.4974 52.2512C85.7162 52.5168 85.9792 52.7252 86.2865 52.8762C86.599 53.0273 86.9532 53.1028 87.349 53.1028C87.8594 53.1028 88.2917 52.9986 88.6459 52.7903C89 52.5819 89.3099 52.3033 89.5756 51.9543L90.4506 52.6497C90.2683 52.9257 90.0365 53.1887 89.7552 53.4387C89.474 53.6887 89.1276 53.8918 88.7162 54.0481C88.3099 54.2043 87.8282 54.2825 87.2709 54.2825ZM99.724 54.2825C99.1355 54.2825 98.6016 54.1835 98.1224 53.9856C97.6485 53.7825 97.2396 53.4986 96.8959 53.134C96.5573 52.7694 96.2969 52.3372 96.1146 51.8372C95.9323 51.3372 95.8412 50.7903 95.8412 50.1965V49.8684C95.8412 49.1809 95.9427 48.5689 96.1459 48.0325C96.349 47.4908 96.625 47.0325 96.974 46.6575C97.323 46.2825 97.7188 45.9986 98.1615 45.8059C98.6042 45.6132 99.0625 45.5168 99.5365 45.5168C100.141 45.5168 100.661 45.621 101.099 45.8293C101.542 46.0377 101.904 46.3293 102.185 46.7043C102.466 47.0741 102.675 47.5116 102.81 48.0168C102.945 48.5168 103.013 49.0637 103.013 49.6575V50.3059H96.7006V49.1262H101.568V49.0168C101.547 48.6418 101.469 48.2773 101.333 47.9231C101.203 47.5689 100.995 47.2773 100.708 47.0481C100.422 46.8189 100.031 46.7043 99.5365 46.7043C99.2084 46.7043 98.9063 46.7747 98.6302 46.9153C98.3542 47.0507 98.1172 47.2538 97.9193 47.5247C97.7214 47.7955 97.5677 48.1262 97.4584 48.5168C97.349 48.9075 97.2943 49.358 97.2943 49.8684V50.1965C97.2943 50.5976 97.349 50.9752 97.4584 51.3293C97.573 51.6783 97.737 51.9856 97.9506 52.2512C98.1693 52.5168 98.4323 52.7252 98.7396 52.8762C99.0521 53.0273 99.4063 53.1028 99.8021 53.1028C100.313 53.1028 100.745 52.9986 101.099 52.7903C101.453 52.5819 101.763 52.3033 102.029 51.9543L102.904 52.6497C102.721 52.9257 102.49 53.1887 102.208 53.4387C101.927 53.6887 101.581 53.8918 101.169 54.0481C100.763 54.2043 100.281 54.2825 99.724 54.2825ZM98.7318 44.4231L100.247 42.1262H101.99L99.8959 44.4231H98.7318ZM113.841 52.1731V45.6731H115.294V54.1262H113.911L113.841 52.1731ZM114.115 50.3918L114.716 50.3762C114.716 50.9387 114.656 51.4596 114.536 51.9387C114.422 52.4127 114.234 52.8241 113.974 53.1731C113.714 53.5221 113.372 53.7955 112.951 53.9934C112.529 54.1861 112.016 54.2825 111.411 54.2825C111 54.2825 110.622 54.2226 110.279 54.1028C109.94 53.983 109.648 53.7981 109.404 53.5481C109.159 53.2981 108.969 52.9726 108.833 52.5715C108.703 52.1705 108.638 51.6887 108.638 51.1262V45.6731H110.083V51.1418C110.083 51.5221 110.125 51.8372 110.208 52.0872C110.297 52.3319 110.414 52.5273 110.56 52.6731C110.711 52.8137 110.878 52.9127 111.06 52.97C111.247 53.0273 111.44 53.0559 111.638 53.0559C112.253 53.0559 112.74 52.9387 113.099 52.7043C113.458 52.4648 113.716 52.1444 113.872 51.7434C114.034 51.3372 114.115 50.8866 114.115 50.3918ZM118.935 47.3528V54.1262H117.482V45.6731H118.857L118.935 47.3528ZM118.638 49.5793L117.966 49.5559C117.971 48.9778 118.047 48.4439 118.193 47.9543C118.339 47.4596 118.555 47.0299 118.841 46.6653C119.128 46.3007 119.484 46.0194 119.911 45.8215C120.339 45.6184 120.833 45.5168 121.396 45.5168C121.792 45.5168 122.156 45.5741 122.49 45.6887C122.823 45.7981 123.112 45.9726 123.357 46.2122C123.602 46.4517 123.792 46.759 123.927 47.134C124.063 47.509 124.13 47.9622 124.13 48.4934V54.1262H122.685V48.5637C122.685 48.121 122.609 47.7668 122.458 47.5012C122.313 47.2356 122.104 47.0429 121.833 46.9231C121.563 46.7981 121.245 46.7356 120.88 46.7356C120.453 46.7356 120.096 46.8111 119.81 46.9622C119.523 47.1132 119.294 47.3215 119.122 47.5872C118.951 47.8528 118.826 48.1575 118.747 48.5012C118.675 48.8398 118.638 49.1991 118.638 49.5793ZM124.115 48.7825L123.146 49.0793C123.151 48.6158 123.227 48.1705 123.372 47.7434C123.523 47.3163 123.74 46.9361 124.021 46.6028C124.307 46.2694 124.659 46.0064 125.076 45.8137C125.492 45.6158 125.969 45.5168 126.505 45.5168C126.958 45.5168 127.359 45.5767 127.708 45.6965C128.063 45.8163 128.359 46.0012 128.599 46.2512C128.844 46.496 129.029 46.8111 129.154 47.1965C129.279 47.5819 129.341 48.0403 129.341 48.5715V54.1262H127.888V48.5559C127.888 48.0819 127.813 47.7148 127.661 47.4543C127.516 47.1887 127.307 47.0038 127.036 46.8997C126.771 46.7903 126.453 46.7356 126.083 46.7356C125.766 46.7356 125.484 46.7903 125.24 46.8997C124.995 47.009 124.789 47.1601 124.622 47.3528C124.456 47.5403 124.328 47.7564 124.24 48.0012C124.156 48.246 124.115 48.5064 124.115 48.7825ZM136.193 42.7512H137.654L141.38 52.0247L145.099 42.7512H146.568L141.943 54.1262H140.802L136.193 42.7512ZM135.716 42.7512H137.005L137.216 49.6887V54.1262H135.716V42.7512ZM145.747 42.7512H147.036V54.1262H145.536V49.6887L145.747 42.7512ZM154.451 52.6809V48.3293C154.451 47.996 154.383 47.7069 154.247 47.4622C154.117 47.2122 153.919 47.0194 153.654 46.884C153.388 46.7486 153.06 46.6809 152.669 46.6809C152.305 46.6809 151.984 46.7434 151.708 46.8684C151.438 46.9934 151.224 47.1575 151.068 47.3606C150.917 47.5637 150.841 47.7825 150.841 48.0168H149.396C149.396 47.7148 149.474 47.4153 149.63 47.1184C149.786 46.8215 150.01 46.5533 150.302 46.3137C150.599 46.0689 150.953 45.8762 151.365 45.7356C151.781 45.5898 152.245 45.5168 152.755 45.5168C153.37 45.5168 153.911 45.621 154.38 45.8293C154.854 46.0377 155.224 46.3528 155.49 46.7747C155.76 47.1913 155.896 47.7148 155.896 48.345V52.2825C155.896 52.5637 155.919 52.8632 155.966 53.1809C156.018 53.4986 156.094 53.7721 156.193 54.0012V54.1262H154.685C154.612 53.9596 154.555 53.7382 154.513 53.4622C154.471 53.1809 154.451 52.9205 154.451 52.6809ZM154.701 49.0012L154.716 50.0168H153.255C152.844 50.0168 152.477 50.0507 152.154 50.1184C151.831 50.1809 151.56 50.2773 151.341 50.4075C151.122 50.5377 150.956 50.7017 150.841 50.8997C150.727 51.0924 150.669 51.3189 150.669 51.5793C150.669 51.845 150.729 52.0872 150.849 52.3059C150.969 52.5247 151.148 52.6991 151.388 52.8293C151.633 52.9543 151.932 53.0168 152.286 53.0168C152.729 53.0168 153.12 52.9231 153.458 52.7356C153.797 52.5481 154.065 52.3189 154.263 52.0481C154.466 51.7773 154.576 51.5142 154.591 51.259L155.208 51.9543C155.172 52.1731 155.073 52.4153 154.911 52.6809C154.75 52.9465 154.534 53.2017 154.263 53.4465C153.997 53.6861 153.68 53.8866 153.31 54.0481C152.945 54.2043 152.534 54.2825 152.076 54.2825C151.503 54.2825 151 54.1705 150.568 53.9465C150.141 53.7226 149.807 53.4231 149.568 53.0481C149.333 52.6679 149.216 52.2434 149.216 51.7747C149.216 51.3215 149.305 50.9231 149.482 50.5793C149.659 50.2304 149.914 49.9413 150.247 49.7122C150.581 49.4778 150.982 49.3007 151.451 49.1809C151.919 49.0611 152.443 49.0012 153.021 49.0012H154.701ZM163.091 51.884C163.091 51.6757 163.044 51.483 162.951 51.3059C162.862 51.1236 162.677 50.9596 162.396 50.8137C162.12 50.6627 161.703 50.5325 161.146 50.4231C160.677 50.3241 160.253 50.2069 159.872 50.0715C159.497 49.9361 159.177 49.7721 158.911 49.5793C158.651 49.3866 158.451 49.1601 158.31 48.8997C158.169 48.6392 158.099 48.3346 158.099 47.9856C158.099 47.6523 158.172 47.3372 158.318 47.0403C158.469 46.7434 158.68 46.4804 158.951 46.2512C159.227 46.0221 159.557 45.8424 159.943 45.7122C160.328 45.5819 160.758 45.5168 161.232 45.5168C161.909 45.5168 162.487 45.6366 162.966 45.8762C163.445 46.1158 163.813 46.4361 164.068 46.8372C164.323 47.233 164.451 47.6731 164.451 48.1575H163.005C163.005 47.9231 162.935 47.6965 162.794 47.4778C162.659 47.2538 162.458 47.0689 162.193 46.9231C161.932 46.7773 161.612 46.7043 161.232 46.7043C160.831 46.7043 160.505 46.7668 160.255 46.8918C160.01 47.0116 159.831 47.1653 159.716 47.3528C159.607 47.5403 159.552 47.7382 159.552 47.9465C159.552 48.1028 159.578 48.2434 159.63 48.3684C159.688 48.4882 159.786 48.6002 159.927 48.7043C160.068 48.8033 160.266 48.8971 160.521 48.9856C160.776 49.0741 161.102 49.1627 161.497 49.2512C162.19 49.4075 162.76 49.595 163.208 49.8137C163.656 50.0325 163.99 50.3007 164.208 50.6184C164.427 50.9361 164.536 51.3215 164.536 51.7747C164.536 52.1444 164.458 52.483 164.302 52.7903C164.151 53.0976 163.93 53.3632 163.638 53.5872C163.352 53.8059 163.008 53.9778 162.607 54.1028C162.211 54.2226 161.766 54.2825 161.271 54.2825C160.526 54.2825 159.896 54.1497 159.38 53.884C158.865 53.6184 158.474 53.2747 158.208 52.8528C157.943 52.4309 157.81 51.9856 157.81 51.5168H159.263C159.284 51.9127 159.398 52.2278 159.607 52.4622C159.815 52.6913 160.07 52.8554 160.372 52.9543C160.675 53.0481 160.974 53.095 161.271 53.095C161.667 53.095 161.997 53.0429 162.263 52.9387C162.534 52.8346 162.74 52.6913 162.88 52.509C163.021 52.3267 163.091 52.1184 163.091 51.884ZM169.974 45.6731V46.7825H165.404V45.6731H169.974ZM166.951 43.6184H168.396V52.0325C168.396 52.3189 168.44 52.5351 168.529 52.6809C168.617 52.8267 168.732 52.9231 168.872 52.97C169.013 53.0168 169.164 53.0403 169.326 53.0403C169.445 53.0403 169.57 53.0299 169.701 53.009C169.836 52.983 169.938 52.9622 170.005 52.9465L170.013 54.1262C169.898 54.1627 169.747 54.1965 169.56 54.2278C169.378 54.2642 169.156 54.2825 168.896 54.2825C168.542 54.2825 168.216 54.2122 167.919 54.0715C167.622 53.9309 167.385 53.6965 167.208 53.3684C167.036 53.0351 166.951 52.5872 166.951 52.0247V43.6184ZM175.177 54.2825C174.589 54.2825 174.055 54.1835 173.576 53.9856C173.102 53.7825 172.693 53.4986 172.349 53.134C172.01 52.7694 171.75 52.3372 171.568 51.8372C171.385 51.3372 171.294 50.7903 171.294 50.1965V49.8684C171.294 49.1809 171.396 48.5689 171.599 48.0325C171.802 47.4908 172.078 47.0325 172.427 46.6575C172.776 46.2825 173.172 45.9986 173.615 45.8059C174.057 45.6132 174.516 45.5168 174.99 45.5168C175.594 45.5168 176.115 45.621 176.552 45.8293C176.995 46.0377 177.357 46.3293 177.638 46.7043C177.919 47.0741 178.128 47.5116 178.263 48.0168C178.398 48.5168 178.466 49.0637 178.466 49.6575V50.3059H172.154V49.1262H177.021V49.0168C177 48.6418 176.922 48.2773 176.786 47.9231C176.656 47.5689 176.448 47.2773 176.161 47.0481C175.875 46.8189 175.484 46.7043 174.99 46.7043C174.661 46.7043 174.359 46.7747 174.083 46.9153C173.807 47.0507 173.57 47.2538 173.372 47.5247C173.175 47.7955 173.021 48.1262 172.911 48.5168C172.802 48.9075 172.747 49.358 172.747 49.8684V50.1965C172.747 50.5976 172.802 50.9752 172.911 51.3293C173.026 51.6783 173.19 51.9856 173.404 52.2512C173.622 52.5168 173.885 52.7252 174.193 52.8762C174.505 53.0273 174.859 53.1028 175.255 53.1028C175.766 53.1028 176.198 52.9986 176.552 52.7903C176.906 52.5819 177.216 52.3033 177.482 51.9543L178.357 52.6497C178.175 52.9257 177.943 53.1887 177.661 53.4387C177.38 53.6887 177.034 53.8918 176.622 54.0481C176.216 54.2043 175.734 54.2825 175.177 54.2825ZM181.599 47.0012V54.1262H180.154V45.6731H181.56L181.599 47.0012ZM184.24 45.6262L184.232 46.97C184.112 46.9439 183.997 46.9283 183.888 46.9231C183.784 46.9127 183.664 46.9075 183.529 46.9075C183.195 46.9075 182.901 46.9596 182.646 47.0637C182.391 47.1679 182.175 47.3137 181.997 47.5012C181.82 47.6887 181.68 47.9127 181.576 48.1731C181.477 48.4283 181.411 48.7096 181.38 49.0168L180.974 49.2512C180.974 48.7408 181.023 48.2616 181.122 47.8137C181.227 47.3658 181.385 46.97 181.599 46.6262C181.813 46.2773 182.083 46.0064 182.411 45.8137C182.745 45.6158 183.141 45.5168 183.599 45.5168C183.703 45.5168 183.823 45.5299 183.958 45.5559C184.094 45.5767 184.188 45.6002 184.24 45.6262ZM184.63 53.3606C184.63 53.1158 184.706 52.9101 184.857 52.7434C185.013 52.5715 185.237 52.4856 185.529 52.4856C185.82 52.4856 186.042 52.5715 186.193 52.7434C186.349 52.9101 186.427 53.1158 186.427 53.3606C186.427 53.6002 186.349 53.8033 186.193 53.97C186.042 54.1366 185.82 54.22 185.529 54.22C185.237 54.22 185.013 54.1366 184.857 53.97C184.706 53.8033 184.63 53.6002 184.63 53.3606Z" fill="white"/>
</svg>
