<svg width="267" height="66" viewBox="0 0 267 66" fill="none" xmlns="http://www.w3.org/2000/svg">
<path d="M5.51562 12.5391H2.47656V11.3125H5.51562C6.10417 11.3125 6.58073 11.2188 6.94531 11.0312C7.3099 10.8438 7.57552 10.5833 7.74219 10.25C7.91406 9.91667 8 9.53646 8 9.10938C8 8.71875 7.91406 8.35156 7.74219 8.00781C7.57552 7.66406 7.3099 7.38802 6.94531 7.17969C6.58073 6.96615 6.10417 6.85938 5.51562 6.85938H2.82812V17H1.32031V5.625H5.51562C6.375 5.625 7.10156 5.77344 7.69531 6.07031C8.28906 6.36719 8.73958 6.77865 9.04688 7.30469C9.35417 7.82552 9.50781 8.42188 9.50781 9.09375C9.50781 9.82292 9.35417 10.4453 9.04688 10.9609C8.73958 11.4766 8.28906 11.8698 7.69531 12.1406C7.10156 12.4062 6.375 12.5391 5.51562 12.5391ZM12.6406 9.875V17H11.1953V8.54688H12.6016L12.6406 9.875ZM15.2812 8.5L15.2734 9.84375C15.1536 9.81771 15.0391 9.80208 14.9297 9.79688C14.8255 9.78646 14.7057 9.78125 14.5703 9.78125C14.237 9.78125 13.9427 9.83333 13.6875 9.9375C13.4323 10.0417 13.2161 10.1875 13.0391 10.375C12.862 10.5625 12.7214 10.7865 12.6172 11.0469C12.5182 11.3021 12.4531 11.5833 12.4219 11.8906L12.0156 12.125C12.0156 11.6146 12.0651 11.1354 12.1641 10.6875C12.2682 10.2396 12.4271 9.84375 12.6406 9.5C12.8542 9.15104 13.125 8.88021 13.4531 8.6875C13.7865 8.48958 14.1823 8.39062 14.6406 8.39062C14.7448 8.39062 14.8646 8.40365 15 8.42969C15.1354 8.45052 15.2292 8.47396 15.2812 8.5ZM19.9688 17.1562C19.3802 17.1562 18.8464 17.0573 18.3672 16.8594C17.8932 16.6562 17.4844 16.3724 17.1406 16.0078C16.8021 15.6432 16.5417 15.2109 16.3594 14.7109C16.1771 14.2109 16.0859 13.6641 16.0859 13.0703V12.7422C16.0859 12.0547 16.1875 11.4427 16.3906 10.9062C16.5938 10.3646 16.8698 9.90625 17.2188 9.53125C17.5677 9.15625 17.9635 8.8724 18.4062 8.67969C18.849 8.48698 19.3073 8.39062 19.7812 8.39062C20.3854 8.39062 20.9062 8.49479 21.3438 8.70312C21.7865 8.91146 22.1484 9.20312 22.4297 9.57812C22.7109 9.94792 22.9193 10.3854 23.0547 10.8906C23.1901 11.3906 23.2578 11.9375 23.2578 12.5312V13.1797H16.9453V12H21.8125V11.8906C21.7917 11.5156 21.7135 11.151 21.5781 10.7969C21.4479 10.4427 21.2396 10.151 20.9531 9.92188C20.6667 9.69271 20.276 9.57812 19.7812 9.57812C19.4531 9.57812 19.151 9.64844 18.875 9.78906C18.599 9.92448 18.362 10.1276 18.1641 10.3984C17.9661 10.6693 17.8125 11 17.7031 11.3906C17.5938 11.7812 17.5391 12.2318 17.5391 12.7422V13.0703C17.5391 13.4714 17.5938 13.849 17.7031 14.2031C17.8177 14.5521 17.9818 14.8594 18.1953 15.125C18.4141 15.3906 18.6771 15.599 18.9844 15.75C19.2969 15.901 19.651 15.9766 20.0469 15.9766C20.5573 15.9766 20.9896 15.8724 21.3438 15.6641C21.6979 15.4557 22.0078 15.1771 22.2734 14.8281L23.1484 15.5234C22.9661 15.7995 22.7344 16.0625 22.4531 16.3125C22.1719 16.5625 21.8255 16.7656 21.4141 16.9219C21.0078 17.0781 20.526 17.1562 19.9688 17.1562ZM28.4531 17.1562C27.8646 17.1562 27.3307 17.0573 26.8516 16.8594C26.3776 16.6562 25.9688 16.3724 25.625 16.0078C25.2865 15.6432 25.026 15.2109 24.8438 14.7109C24.6615 14.2109 24.5703 13.6641 24.5703 13.0703V12.7422C24.5703 12.0547 24.6719 11.4427 24.875 10.9062C25.0781 10.3646 25.3542 9.90625 25.7031 9.53125C26.0521 9.15625 26.4479 8.8724 26.8906 8.67969C27.3333 8.48698 27.7917 8.39062 28.2656 8.39062C28.8698 8.39062 29.3906 8.49479 29.8281 8.70312C30.2708 8.91146 30.6328 9.20312 30.9141 9.57812C31.1953 9.94792 31.4036 10.3854 31.5391 10.8906C31.6745 11.3906 31.7422 11.9375 31.7422 12.5312V13.1797H25.4297V12H30.2969V11.8906C30.276 11.5156 30.1979 11.151 30.0625 10.7969C29.9323 10.4427 29.724 10.151 29.4375 9.92188C29.151 9.69271 28.7604 9.57812 28.2656 9.57812C27.9375 9.57812 27.6354 9.64844 27.3594 9.78906C27.0833 9.92448 26.8464 10.1276 26.6484 10.3984C26.4505 10.6693 26.2969 11 26.1875 11.3906C26.0781 11.7812 26.0234 12.2318 26.0234 12.7422V13.0703C26.0234 13.4714 26.0781 13.849 26.1875 14.2031C26.3021 14.5521 26.4661 14.8594 26.6797 15.125C26.8984 15.3906 27.1615 15.599 27.4688 15.75C27.7812 15.901 28.1354 15.9766 28.5312 15.9766C29.0417 15.9766 29.474 15.8724 29.8281 15.6641C30.1823 15.4557 30.4922 15.1771 30.7578 14.8281L31.6328 15.5234C31.4505 15.7995 31.2188 16.0625 30.9375 16.3125C30.6562 16.5625 30.3099 16.7656 29.8984 16.9219C29.4922 17.0781 29.0104 17.1562 28.4531 17.1562ZM34.875 10.3516V17H33.4297V8.54688H34.7969L34.875 10.3516ZM34.5312 12.4531L33.9297 12.4297C33.9349 11.8516 34.0208 11.3177 34.1875 10.8281C34.3542 10.3333 34.5885 9.90365 34.8906 9.53906C35.1927 9.17448 35.5521 8.89323 35.9688 8.69531C36.3906 8.49219 36.8568 8.39062 37.3672 8.39062C37.7839 8.39062 38.1589 8.44792 38.4922 8.5625C38.8255 8.67188 39.1094 8.84896 39.3438 9.09375C39.5833 9.33854 39.7656 9.65625 39.8906 10.0469C40.0156 10.4323 40.0781 10.9036 40.0781 11.4609V17H38.625V11.4453C38.625 11.0026 38.5599 10.6484 38.4297 10.3828C38.2995 10.112 38.1094 9.91667 37.8594 9.79688C37.6094 9.67188 37.3021 9.60938 36.9375 9.60938C36.5781 9.60938 36.25 9.6849 35.9531 9.83594C35.6615 9.98698 35.4089 10.1953 35.1953 10.4609C34.987 10.7266 34.8229 11.0312 34.7031 11.375C34.5885 11.7135 34.5312 12.0729 34.5312 12.4531ZM45.6562 15.9688C46 15.9688 46.3177 15.8984 46.6094 15.7578C46.901 15.6172 47.1406 15.4245 47.3281 15.1797C47.5156 14.9297 47.6224 14.6458 47.6484 14.3281H49.0234C48.9974 14.8281 48.8281 15.2943 48.5156 15.7266C48.2083 16.1536 47.8047 16.5 47.3047 16.7656C46.8047 17.026 46.2552 17.1562 45.6562 17.1562C45.0208 17.1562 44.4661 17.0443 43.9922 16.8203C43.5234 16.5964 43.1328 16.2891 42.8203 15.8984C42.513 15.5078 42.2812 15.0599 42.125 14.5547C41.974 14.0443 41.8984 13.5052 41.8984 12.9375V12.6094C41.8984 12.0417 41.974 11.5052 42.125 11C42.2812 10.4896 42.513 10.0391 42.8203 9.64844C43.1328 9.25781 43.5234 8.95052 43.9922 8.72656C44.4661 8.5026 45.0208 8.39062 45.6562 8.39062C46.3177 8.39062 46.8958 8.52604 47.3906 8.79688C47.8854 9.0625 48.2734 9.42708 48.5547 9.89062C48.8411 10.349 48.9974 10.8698 49.0234 11.4531H47.6484C47.6224 11.1042 47.5234 10.7891 47.3516 10.5078C47.1849 10.2266 46.9557 10.0026 46.6641 9.83594C46.3776 9.66406 46.0417 9.57812 45.6562 9.57812C45.2135 9.57812 44.8411 9.66667 44.5391 9.84375C44.2422 10.0156 44.0052 10.25 43.8281 10.5469C43.6562 10.8385 43.5312 11.1641 43.4531 11.5234C43.3802 11.8776 43.3438 12.2396 43.3438 12.6094V12.9375C43.3438 13.3073 43.3802 13.6719 43.4531 14.0312C43.526 14.3906 43.6484 14.7161 43.8203 15.0078C43.9974 15.2995 44.2344 15.5339 44.5312 15.7109C44.8333 15.8828 45.2083 15.9688 45.6562 15.9688ZM52.0938 5V17H50.6484V5H52.0938ZM51.75 12.4531L51.1484 12.4297C51.1536 11.8516 51.2396 11.3177 51.4062 10.8281C51.5729 10.3333 51.8073 9.90365 52.1094 9.53906C52.4115 9.17448 52.7708 8.89323 53.1875 8.69531C53.6094 8.49219 54.0755 8.39062 54.5859 8.39062C55.0026 8.39062 55.3776 8.44792 55.7109 8.5625C56.0443 8.67188 56.3281 8.84896 56.5625 9.09375C56.8021 9.33854 56.9844 9.65625 57.1094 10.0469C57.2344 10.4323 57.2969 10.9036 57.2969 11.4609V17H55.8438V11.4453C55.8438 11.0026 55.7786 10.6484 55.6484 10.3828C55.5182 10.112 55.3281 9.91667 55.0781 9.79688C54.8281 9.67188 54.5208 9.60938 54.1562 9.60938C53.7969 9.60938 53.4688 9.6849 53.1719 9.83594C52.8802 9.98698 52.6276 10.1953 52.4141 10.4609C52.2057 10.7266 52.0417 11.0312 51.9219 11.375C51.8073 11.7135 51.75 12.0729 51.75 12.4531ZM64.4453 15.5547V11.2031C64.4453 10.8698 64.3776 10.5807 64.2422 10.3359C64.112 10.0859 63.9141 9.89323 63.6484 9.75781C63.3828 9.6224 63.0547 9.55469 62.6641 9.55469C62.2995 9.55469 61.9792 9.61719 61.7031 9.74219C61.4323 9.86719 61.2188 10.0312 61.0625 10.2344C60.9115 10.4375 60.8359 10.6562 60.8359 10.8906H59.3906C59.3906 10.5885 59.4688 10.2891 59.625 9.99219C59.7812 9.69531 60.0052 9.42708 60.2969 9.1875C60.5938 8.94271 60.9479 8.75 61.3594 8.60938C61.776 8.46354 62.2396 8.39062 62.75 8.39062C63.3646 8.39062 63.9062 8.49479 64.375 8.70312C64.849 8.91146 65.2188 9.22656 65.4844 9.64844C65.7552 10.0651 65.8906 10.5885 65.8906 11.2188V15.1562C65.8906 15.4375 65.9141 15.737 65.9609 16.0547C66.013 16.3724 66.0885 16.6458 66.1875 16.875V17H64.6797C64.6068 16.8333 64.5495 16.612 64.5078 16.3359C64.4661 16.0547 64.4453 15.7943 64.4453 15.5547ZM64.6953 11.875L64.7109 12.8906H63.25C62.8385 12.8906 62.4714 12.9245 62.1484 12.9922C61.8255 13.0547 61.5547 13.151 61.3359 13.2812C61.1172 13.4115 60.9505 13.5755 60.8359 13.7734C60.7214 13.9661 60.6641 14.1927 60.6641 14.4531C60.6641 14.7188 60.724 14.9609 60.8438 15.1797C60.9635 15.3984 61.1432 15.5729 61.3828 15.7031C61.6276 15.8281 61.9271 15.8906 62.2812 15.8906C62.724 15.8906 63.1146 15.7969 63.4531 15.6094C63.7917 15.4219 64.0599 15.1927 64.2578 14.9219C64.4609 14.651 64.5703 14.388 64.5859 14.1328L65.2031 14.8281C65.1667 15.0469 65.0677 15.2891 64.9062 15.5547C64.7448 15.8203 64.5286 16.0755 64.2578 16.3203C63.9922 16.5599 63.6745 16.7604 63.3047 16.9219C62.9401 17.0781 62.5286 17.1562 62.0703 17.1562C61.4974 17.1562 60.9948 17.0443 60.5625 16.8203C60.1354 16.5964 59.8021 16.2969 59.5625 15.9219C59.3281 15.5417 59.2109 15.1172 59.2109 14.6484C59.2109 14.1953 59.2995 13.7969 59.4766 13.4531C59.6536 13.1042 59.9089 12.8151 60.2422 12.5859C60.5755 12.3516 60.9766 12.1745 61.4453 12.0547C61.9141 11.9349 62.4375 11.875 63.0156 11.875H64.6953ZM77.0547 14.7578C77.0547 14.5495 77.0078 14.3568 76.9141 14.1797C76.8255 13.9974 76.6406 13.8333 76.3594 13.6875C76.0833 13.5365 75.6667 13.4062 75.1094 13.2969C74.6406 13.1979 74.2161 13.0807 73.8359 12.9453C73.4609 12.8099 73.1406 12.6458 72.875 12.4531C72.6146 12.2604 72.4141 12.0339 72.2734 11.7734C72.1328 11.513 72.0625 11.2083 72.0625 10.8594C72.0625 10.526 72.1354 10.2109 72.2812 9.91406C72.4323 9.61719 72.6432 9.35417 72.9141 9.125C73.1901 8.89583 73.5208 8.71615 73.9062 8.58594C74.2917 8.45573 74.7214 8.39062 75.1953 8.39062C75.8724 8.39062 76.4505 8.51042 76.9297 8.75C77.4089 8.98958 77.776 9.3099 78.0312 9.71094C78.2865 10.1068 78.4141 10.5469 78.4141 11.0312H76.9688C76.9688 10.7969 76.8984 10.5703 76.7578 10.3516C76.6224 10.1276 76.4219 9.94271 76.1562 9.79688C75.8958 9.65104 75.5755 9.57812 75.1953 9.57812C74.7943 9.57812 74.4688 9.64062 74.2188 9.76562C73.974 9.88542 73.7943 10.0391 73.6797 10.2266C73.5703 10.4141 73.5156 10.612 73.5156 10.8203C73.5156 10.9766 73.5417 11.1172 73.5938 11.2422C73.651 11.362 73.75 11.474 73.8906 11.5781C74.0312 11.6771 74.2292 11.7708 74.4844 11.8594C74.7396 11.9479 75.0651 12.0365 75.4609 12.125C76.1536 12.2812 76.724 12.4688 77.1719 12.6875C77.6198 12.9062 77.9531 13.1745 78.1719 13.4922C78.3906 13.8099 78.5 14.1953 78.5 14.6484C78.5 15.0182 78.4219 15.3568 78.2656 15.6641C78.1146 15.9714 77.8932 16.237 77.6016 16.4609C77.3151 16.6797 76.9714 16.8516 76.5703 16.9766C76.1745 17.0964 75.7292 17.1562 75.2344 17.1562C74.4896 17.1562 73.8594 17.0234 73.3438 16.7578C72.8281 16.4922 72.4375 16.1484 72.1719 15.7266C71.9062 15.3047 71.7734 14.8594 71.7734 14.3906H73.2266C73.2474 14.7865 73.362 15.1016 73.5703 15.3359C73.7786 15.5651 74.0339 15.7292 74.3359 15.8281C74.638 15.9219 74.9375 15.9688 75.2344 15.9688C75.6302 15.9688 75.9609 15.9167 76.2266 15.8125C76.4974 15.7083 76.7031 15.5651 76.8438 15.3828C76.9844 15.2005 77.0547 14.9922 77.0547 14.7578ZM83.9062 17.1562C83.3177 17.1562 82.7839 17.0573 82.3047 16.8594C81.8307 16.6562 81.4219 16.3724 81.0781 16.0078C80.7396 15.6432 80.4792 15.2109 80.2969 14.7109C80.1146 14.2109 80.0234 13.6641 80.0234 13.0703V12.7422C80.0234 12.0547 80.125 11.4427 80.3281 10.9062C80.5312 10.3646 80.8073 9.90625 81.1562 9.53125C81.5052 9.15625 81.901 8.8724 82.3438 8.67969C82.7865 8.48698 83.2448 8.39062 83.7188 8.39062C84.3229 8.39062 84.8438 8.49479 85.2812 8.70312C85.724 8.91146 86.0859 9.20312 86.3672 9.57812C86.6484 9.94792 86.8568 10.3854 86.9922 10.8906C87.1276 11.3906 87.1953 11.9375 87.1953 12.5312V13.1797H80.8828V12H85.75V11.8906C85.7292 11.5156 85.651 11.151 85.5156 10.7969C85.3854 10.4427 85.1771 10.151 84.8906 9.92188C84.6042 9.69271 84.2135 9.57812 83.7188 9.57812C83.3906 9.57812 83.0885 9.64844 82.8125 9.78906C82.5365 9.92448 82.2995 10.1276 82.1016 10.3984C81.9036 10.6693 81.75 11 81.6406 11.3906C81.5312 11.7812 81.4766 12.2318 81.4766 12.7422V13.0703C81.4766 13.4714 81.5312 13.849 81.6406 14.2031C81.7552 14.5521 81.9193 14.8594 82.1328 15.125C82.3516 15.3906 82.6146 15.599 82.9219 15.75C83.2344 15.901 83.5885 15.9766 83.9844 15.9766C84.4948 15.9766 84.9271 15.8724 85.2812 15.6641C85.6354 15.4557 85.9453 15.1771 86.2109 14.8281L87.0859 15.5234C86.9036 15.7995 86.6719 16.0625 86.3906 16.3125C86.1094 16.5625 85.763 16.7656 85.3516 16.9219C84.9453 17.0781 84.4635 17.1562 83.9062 17.1562ZM94.0547 15.0469V8.54688H95.5078V17H94.125L94.0547 15.0469ZM94.3281 13.2656L94.9297 13.25C94.9297 13.8125 94.8698 14.3333 94.75 14.8125C94.6354 15.2865 94.4479 15.6979 94.1875 16.0469C93.9271 16.3958 93.5859 16.6693 93.1641 16.8672C92.7422 17.0599 92.2292 17.1562 91.625 17.1562C91.2135 17.1562 90.8359 17.0964 90.4922 16.9766C90.1536 16.8568 89.862 16.6719 89.6172 16.4219C89.3724 16.1719 89.1823 15.8464 89.0469 15.4453C88.9167 15.0443 88.8516 14.5625 88.8516 14V8.54688H90.2969V14.0156C90.2969 14.3958 90.3385 14.7109 90.4219 14.9609C90.5104 15.2057 90.6276 15.401 90.7734 15.5469C90.9245 15.6875 91.0911 15.7865 91.2734 15.8438C91.4609 15.901 91.6536 15.9297 91.8516 15.9297C92.4661 15.9297 92.9531 15.8125 93.3125 15.5781C93.6719 15.3385 93.9297 15.0182 94.0859 14.6172C94.2474 14.2109 94.3281 13.7604 94.3281 13.2656ZM102.633 14.7578C102.633 14.5495 102.586 14.3568 102.492 14.1797C102.404 13.9974 102.219 13.8333 101.938 13.6875C101.661 13.5365 101.245 13.4062 100.688 13.2969C100.219 13.1979 99.7943 13.0807 99.4141 12.9453C99.0391 12.8099 98.7188 12.6458 98.4531 12.4531C98.1927 12.2604 97.9922 12.0339 97.8516 11.7734C97.7109 11.513 97.6406 11.2083 97.6406 10.8594C97.6406 10.526 97.7135 10.2109 97.8594 9.91406C98.0104 9.61719 98.2214 9.35417 98.4922 9.125C98.7682 8.89583 99.099 8.71615 99.4844 8.58594C99.8698 8.45573 100.299 8.39062 100.773 8.39062C101.451 8.39062 102.029 8.51042 102.508 8.75C102.987 8.98958 103.354 9.3099 103.609 9.71094C103.865 10.1068 103.992 10.5469 103.992 11.0312H102.547C102.547 10.7969 102.477 10.5703 102.336 10.3516C102.201 10.1276 102 9.94271 101.734 9.79688C101.474 9.65104 101.154 9.57812 100.773 9.57812C100.372 9.57812 100.047 9.64062 99.7969 9.76562C99.5521 9.88542 99.3724 10.0391 99.2578 10.2266C99.1484 10.4141 99.0938 10.612 99.0938 10.8203C99.0938 10.9766 99.1198 11.1172 99.1719 11.2422C99.2292 11.362 99.3281 11.474 99.4688 11.5781C99.6094 11.6771 99.8073 11.7708 100.062 11.8594C100.318 11.9479 100.643 12.0365 101.039 12.125C101.732 12.2812 102.302 12.4688 102.75 12.6875C103.198 12.9062 103.531 13.1745 103.75 13.4922C103.969 13.8099 104.078 14.1953 104.078 14.6484C104.078 15.0182 104 15.3568 103.844 15.6641C103.693 15.9714 103.471 16.237 103.18 16.4609C102.893 16.6797 102.549 16.8516 102.148 16.9766C101.753 17.0964 101.307 17.1562 100.812 17.1562C100.068 17.1562 99.4375 17.0234 98.9219 16.7578C98.4062 16.4922 98.0156 16.1484 97.75 15.7266C97.4844 15.3047 97.3516 14.8594 97.3516 14.3906H98.8047C98.8255 14.7865 98.9401 15.1016 99.1484 15.3359C99.3568 15.5651 99.612 15.7292 99.9141 15.8281C100.216 15.9219 100.516 15.9688 100.812 15.9688C101.208 15.9688 101.539 15.9167 101.805 15.8125C102.076 15.7083 102.281 15.5651 102.422 15.3828C102.562 15.2005 102.633 14.9922 102.633 14.7578ZM115.273 15.3594V5H116.727V17H115.398L115.273 15.3594ZM109.586 12.8672V12.7031C109.586 12.0573 109.664 11.4714 109.82 10.9453C109.982 10.4141 110.208 9.95833 110.5 9.57812C110.797 9.19792 111.148 8.90625 111.555 8.70312C111.966 8.49479 112.424 8.39062 112.93 8.39062C113.461 8.39062 113.924 8.48438 114.32 8.67188C114.721 8.85417 115.06 9.1224 115.336 9.47656C115.617 9.82552 115.839 10.2474 116 10.7422C116.161 11.237 116.273 11.7969 116.336 12.4219V13.1406C116.279 13.7604 116.167 14.3177 116 14.8125C115.839 15.3073 115.617 15.7292 115.336 16.0781C115.06 16.4271 114.721 16.6953 114.32 16.8828C113.919 17.0651 113.451 17.1562 112.914 17.1562C112.419 17.1562 111.966 17.0495 111.555 16.8359C111.148 16.6224 110.797 16.3229 110.5 15.9375C110.208 15.5521 109.982 15.099 109.82 14.5781C109.664 14.0521 109.586 13.4818 109.586 12.8672ZM111.039 12.7031V12.8672C111.039 13.2891 111.081 13.6849 111.164 14.0547C111.253 14.4245 111.388 14.75 111.57 15.0312C111.753 15.3125 111.984 15.5339 112.266 15.6953C112.547 15.8516 112.883 15.9297 113.273 15.9297C113.753 15.9297 114.146 15.8281 114.453 15.625C114.766 15.4219 115.016 15.1536 115.203 14.8203C115.391 14.487 115.536 14.125 115.641 13.7344V11.8516C115.578 11.5651 115.487 11.2891 115.367 11.0234C115.253 10.7526 115.102 10.513 114.914 10.3047C114.732 10.0911 114.505 9.92188 114.234 9.79688C113.969 9.67188 113.654 9.60938 113.289 9.60938C112.893 9.60938 112.552 9.69271 112.266 9.85938C111.984 10.0208 111.753 10.2448 111.57 10.5312C111.388 10.8125 111.253 11.1406 111.164 11.5156C111.081 11.8854 111.039 12.2812 111.039 12.7031ZM123.961 15.5547V11.2031C123.961 10.8698 123.893 10.5807 123.758 10.3359C123.628 10.0859 123.43 9.89323 123.164 9.75781C122.898 9.6224 122.57 9.55469 122.18 9.55469C121.815 9.55469 121.495 9.61719 121.219 9.74219C120.948 9.86719 120.734 10.0312 120.578 10.2344C120.427 10.4375 120.352 10.6562 120.352 10.8906H118.906C118.906 10.5885 118.984 10.2891 119.141 9.99219C119.297 9.69531 119.521 9.42708 119.812 9.1875C120.109 8.94271 120.464 8.75 120.875 8.60938C121.292 8.46354 121.755 8.39062 122.266 8.39062C122.88 8.39062 123.422 8.49479 123.891 8.70312C124.365 8.91146 124.734 9.22656 125 9.64844C125.271 10.0651 125.406 10.5885 125.406 11.2188V15.1562C125.406 15.4375 125.43 15.737 125.477 16.0547C125.529 16.3724 125.604 16.6458 125.703 16.875V17H124.195C124.122 16.8333 124.065 16.612 124.023 16.3359C123.982 16.0547 123.961 15.7943 123.961 15.5547ZM124.211 11.875L124.227 12.8906H122.766C122.354 12.8906 121.987 12.9245 121.664 12.9922C121.341 13.0547 121.07 13.151 120.852 13.2812C120.633 13.4115 120.466 13.5755 120.352 13.7734C120.237 13.9661 120.18 14.1927 120.18 14.4531C120.18 14.7188 120.24 14.9609 120.359 15.1797C120.479 15.3984 120.659 15.5729 120.898 15.7031C121.143 15.8281 121.443 15.8906 121.797 15.8906C122.24 15.8906 122.63 15.7969 122.969 15.6094C123.307 15.4219 123.576 15.1927 123.773 14.9219C123.977 14.651 124.086 14.388 124.102 14.1328L124.719 14.8281C124.682 15.0469 124.583 15.2891 124.422 15.5547C124.26 15.8203 124.044 16.0755 123.773 16.3203C123.508 16.5599 123.19 16.7604 122.82 16.9219C122.456 17.0781 122.044 17.1562 121.586 17.1562C121.013 17.1562 120.51 17.0443 120.078 16.8203C119.651 16.5964 119.318 16.2969 119.078 15.9219C118.844 15.5417 118.727 15.1172 118.727 14.6484C118.727 14.1953 118.815 13.7969 118.992 13.4531C119.169 13.1042 119.424 12.8151 119.758 12.5859C120.091 12.3516 120.492 12.1745 120.961 12.0547C121.43 11.9349 121.953 11.875 122.531 11.875H124.211ZM133.008 15.3594V5H134.461V17H133.133L133.008 15.3594ZM127.32 12.8672V12.7031C127.32 12.0573 127.398 11.4714 127.555 10.9453C127.716 10.4141 127.943 9.95833 128.234 9.57812C128.531 9.19792 128.883 8.90625 129.289 8.70312C129.701 8.49479 130.159 8.39062 130.664 8.39062C131.195 8.39062 131.659 8.48438 132.055 8.67188C132.456 8.85417 132.794 9.1224 133.07 9.47656C133.352 9.82552 133.573 10.2474 133.734 10.7422C133.896 11.237 134.008 11.7969 134.07 12.4219V13.1406C134.013 13.7604 133.901 14.3177 133.734 14.8125C133.573 15.3073 133.352 15.7292 133.07 16.0781C132.794 16.4271 132.456 16.6953 132.055 16.8828C131.654 17.0651 131.185 17.1562 130.648 17.1562C130.154 17.1562 129.701 17.0495 129.289 16.8359C128.883 16.6224 128.531 16.3229 128.234 15.9375C127.943 15.5521 127.716 15.099 127.555 14.5781C127.398 14.0521 127.32 13.4818 127.32 12.8672ZM128.773 12.7031V12.8672C128.773 13.2891 128.815 13.6849 128.898 14.0547C128.987 14.4245 129.122 14.75 129.305 15.0312C129.487 15.3125 129.719 15.5339 130 15.6953C130.281 15.8516 130.617 15.9297 131.008 15.9297C131.487 15.9297 131.88 15.8281 132.188 15.625C132.5 15.4219 132.75 15.1536 132.938 14.8203C133.125 14.487 133.271 14.125 133.375 13.7344V11.8516C133.312 11.5651 133.221 11.2891 133.102 11.0234C132.987 10.7526 132.836 10.513 132.648 10.3047C132.466 10.0911 132.24 9.92188 131.969 9.79688C131.703 9.67188 131.388 9.60938 131.023 9.60938C130.628 9.60938 130.286 9.69271 130 9.85938C129.719 10.0208 129.487 10.2448 129.305 10.5312C129.122 10.8125 128.987 11.1406 128.898 11.5156C128.815 11.8854 128.773 12.2812 128.773 12.7031ZM136.328 12.8672V12.6875C136.328 12.0781 136.417 11.513 136.594 10.9922C136.771 10.4661 137.026 10.0104 137.359 9.625C137.693 9.23438 138.096 8.93229 138.57 8.71875C139.044 8.5 139.576 8.39062 140.164 8.39062C140.758 8.39062 141.292 8.5 141.766 8.71875C142.245 8.93229 142.651 9.23438 142.984 9.625C143.323 10.0104 143.581 10.4661 143.758 10.9922C143.935 11.513 144.023 12.0781 144.023 12.6875V12.8672C144.023 13.4766 143.935 14.0417 143.758 14.5625C143.581 15.0833 143.323 15.5391 142.984 15.9297C142.651 16.3151 142.247 16.6172 141.773 16.8359C141.305 17.0495 140.773 17.1562 140.18 17.1562C139.586 17.1562 139.052 17.0495 138.578 16.8359C138.104 16.6172 137.698 16.3151 137.359 15.9297C137.026 15.5391 136.771 15.0833 136.594 14.5625C136.417 14.0417 136.328 13.4766 136.328 12.8672ZM137.773 12.6875V12.8672C137.773 13.2891 137.823 13.6875 137.922 14.0625C138.021 14.4323 138.169 14.7604 138.367 15.0469C138.57 15.3333 138.823 15.5599 139.125 15.7266C139.427 15.888 139.779 15.9688 140.18 15.9688C140.576 15.9688 140.922 15.888 141.219 15.7266C141.521 15.5599 141.771 15.3333 141.969 15.0469C142.167 14.7604 142.315 14.4323 142.414 14.0625C142.518 13.6875 142.57 13.2891 142.57 12.8672V12.6875C142.57 12.2708 142.518 11.8776 142.414 11.5078C142.315 11.1328 142.164 10.8021 141.961 10.5156C141.763 10.224 141.513 9.99479 141.211 9.82812C140.914 9.66146 140.565 9.57812 140.164 9.57812C139.768 9.57812 139.419 9.66146 139.117 9.82812C138.82 9.99479 138.57 10.224 138.367 10.5156C138.169 10.8021 138.021 11.1328 137.922 11.5078C137.823 11.8776 137.773 12.2708 137.773 12.6875ZM150.758 14.7578C150.758 14.5495 150.711 14.3568 150.617 14.1797C150.529 13.9974 150.344 13.8333 150.062 13.6875C149.786 13.5365 149.37 13.4062 148.812 13.2969C148.344 13.1979 147.919 13.0807 147.539 12.9453C147.164 12.8099 146.844 12.6458 146.578 12.4531C146.318 12.2604 146.117 12.0339 145.977 11.7734C145.836 11.513 145.766 11.2083 145.766 10.8594C145.766 10.526 145.839 10.2109 145.984 9.91406C146.135 9.61719 146.346 9.35417 146.617 9.125C146.893 8.89583 147.224 8.71615 147.609 8.58594C147.995 8.45573 148.424 8.39062 148.898 8.39062C149.576 8.39062 150.154 8.51042 150.633 8.75C151.112 8.98958 151.479 9.3099 151.734 9.71094C151.99 10.1068 152.117 10.5469 152.117 11.0312H150.672C150.672 10.7969 150.602 10.5703 150.461 10.3516C150.326 10.1276 150.125 9.94271 149.859 9.79688C149.599 9.65104 149.279 9.57812 148.898 9.57812C148.497 9.57812 148.172 9.64062 147.922 9.76562C147.677 9.88542 147.497 10.0391 147.383 10.2266C147.273 10.4141 147.219 10.612 147.219 10.8203C147.219 10.9766 147.245 11.1172 147.297 11.2422C147.354 11.362 147.453 11.474 147.594 11.5781C147.734 11.6771 147.932 11.7708 148.188 11.8594C148.443 11.9479 148.768 12.0365 149.164 12.125C149.857 12.2812 150.427 12.4688 150.875 12.6875C151.323 12.9062 151.656 13.1745 151.875 13.4922C152.094 13.8099 152.203 14.1953 152.203 14.6484C152.203 15.0182 152.125 15.3568 151.969 15.6641C151.818 15.9714 151.596 16.237 151.305 16.4609C151.018 16.6797 150.674 16.8516 150.273 16.9766C149.878 17.0964 149.432 17.1562 148.938 17.1562C148.193 17.1562 147.562 17.0234 147.047 16.7578C146.531 16.4922 146.141 16.1484 145.875 15.7266C145.609 15.3047 145.477 14.8594 145.477 14.3906H146.93C146.951 14.7865 147.065 15.1016 147.273 15.3359C147.482 15.5651 147.737 15.7292 148.039 15.8281C148.341 15.9219 148.641 15.9688 148.938 15.9688C149.333 15.9688 149.664 15.9167 149.93 15.8125C150.201 15.7083 150.406 15.5651 150.547 15.3828C150.688 15.2005 150.758 14.9922 150.758 14.7578ZM154.039 16.2344C154.039 15.9896 154.115 15.7839 154.266 15.6172C154.422 15.4453 154.646 15.3594 154.938 15.3594C155.229 15.3594 155.451 15.4453 155.602 15.6172C155.758 15.7839 155.836 15.9896 155.836 16.2344C155.836 16.474 155.758 16.6771 155.602 16.8438C155.451 17.0104 155.229 17.0938 154.938 17.0938C154.646 17.0938 154.422 17.0104 154.266 16.8438C154.115 16.6771 154.039 16.474 154.039 16.2344ZM154.047 9.33594C154.047 9.09115 154.122 8.88542 154.273 8.71875C154.43 8.54688 154.654 8.46094 154.945 8.46094C155.237 8.46094 155.458 8.54688 155.609 8.71875C155.766 8.88542 155.844 9.09115 155.844 9.33594C155.844 9.57552 155.766 9.77865 155.609 9.94531C155.458 10.112 155.237 10.1953 154.945 10.1953C154.654 10.1953 154.43 10.112 154.273 9.94531C154.122 9.77865 154.047 9.57552 154.047 9.33594ZM0.814453 26.7109V26.4707C0.814453 26.1348 0.919922 25.8574 1.13086 25.6387C1.3457 25.4199 1.63672 25.3105 2.00391 25.3105C2.375 25.3105 2.66797 25.4199 2.88281 25.6387C3.09766 25.8574 3.20508 26.1348 3.20508 26.4707V26.7109C3.20508 27.043 3.09766 27.3184 2.88281 27.5371C2.67188 27.752 2.38086 27.8594 2.00977 27.8594C1.64258 27.8594 1.35156 27.752 1.13672 27.5371C0.921875 27.3184 0.814453 27.043 0.814453 26.7109ZM14.584 22.4688V31H13.4473L9.15234 24.4199V31H8.02148V22.4688H9.15234L13.4648 29.0664V22.4688H14.584ZM16.1367 27.9004V27.7656C16.1367 27.3086 16.2031 26.8848 16.3359 26.4941C16.4688 26.0996 16.6602 25.7578 16.9102 25.4688C17.1602 25.1758 17.4629 24.9492 17.8184 24.7891C18.1738 24.625 18.5723 24.543 19.0137 24.543C19.459 24.543 19.8594 24.625 20.2148 24.7891C20.5742 24.9492 20.8789 25.1758 21.1289 25.4688C21.3828 25.7578 21.5762 26.0996 21.709 26.4941C21.8418 26.8848 21.9082 27.3086 21.9082 27.7656V27.9004C21.9082 28.3574 21.8418 28.7812 21.709 29.1719C21.5762 29.5625 21.3828 29.9043 21.1289 30.1973C20.8789 30.4863 20.5762 30.7129 20.2207 30.877C19.8691 31.0371 19.4707 31.1172 19.0254 31.1172C18.5801 31.1172 18.1797 31.0371 17.8242 30.877C17.4688 30.7129 17.1641 30.4863 16.9102 30.1973C16.6602 29.9043 16.4688 29.5625 16.3359 29.1719C16.2031 28.7812 16.1367 28.3574 16.1367 27.9004ZM17.2207 27.7656V27.9004C17.2207 28.2168 17.2578 28.5156 17.332 28.7969C17.4062 29.0742 17.5176 29.3203 17.666 29.5352C17.8184 29.75 18.0078 29.9199 18.2344 30.0449C18.4609 30.166 18.7246 30.2266 19.0254 30.2266C19.3223 30.2266 19.582 30.166 19.8047 30.0449C20.0312 29.9199 20.2188 29.75 20.3672 29.5352C20.5156 29.3203 20.627 29.0742 20.7012 28.7969C20.7793 28.5156 20.8184 28.2168 20.8184 27.9004V27.7656C20.8184 27.4531 20.7793 27.1582 20.7012 26.8809C20.627 26.5996 20.5137 26.3516 20.3613 26.1367C20.2129 25.918 20.0254 25.7461 19.7988 25.6211C19.5762 25.4961 19.3145 25.4336 19.0137 25.4336C18.7168 25.4336 18.4551 25.4961 18.2285 25.6211C18.0059 25.7461 17.8184 25.918 17.666 26.1367C17.5176 26.3516 17.4062 26.5996 17.332 26.8809C17.2578 27.1582 17.2207 27.4531 17.2207 27.7656ZM24.3457 25.9199V31H23.2559V24.6602H24.2871L24.3457 25.9199ZM24.123 27.5898L23.6191 27.5723C23.623 27.1387 23.6797 26.7383 23.7891 26.3711C23.8984 26 24.0605 25.6777 24.2754 25.4043C24.4902 25.1309 24.7578 24.9199 25.0781 24.7715C25.3984 24.6191 25.7695 24.543 26.1914 24.543C26.4883 24.543 26.7617 24.5859 27.0117 24.6719C27.2617 24.7539 27.4785 24.8848 27.6621 25.0645C27.8457 25.2441 27.9883 25.4746 28.0898 25.7559C28.1914 26.0371 28.2422 26.377 28.2422 26.7754V31H27.1582V26.8281C27.1582 26.4961 27.1016 26.2305 26.9883 26.0312C26.8789 25.832 26.7227 25.6875 26.5195 25.5977C26.3164 25.5039 26.0781 25.457 25.8047 25.457C25.4844 25.457 25.2168 25.5137 25.002 25.627C24.7871 25.7402 24.6152 25.8965 24.4863 26.0957C24.3574 26.2949 24.2637 26.5234 24.2051 26.7812C24.1504 27.0352 24.123 27.3047 24.123 27.5898ZM28.2305 26.9922L27.5039 27.2148C27.5078 26.8672 27.5645 26.5332 27.6738 26.2129C27.7871 25.8926 27.9492 25.6074 28.1602 25.3574C28.375 25.1074 28.6387 24.9102 28.9512 24.7656C29.2637 24.6172 29.6211 24.543 30.0234 24.543C30.3633 24.543 30.6641 24.5879 30.9258 24.6777C31.1914 24.7676 31.4141 24.9062 31.5938 25.0938C31.7773 25.2773 31.916 25.5137 32.0098 25.8027C32.1035 26.0918 32.1504 26.4355 32.1504 26.834V31H31.0605V26.8223C31.0605 26.4668 31.0039 26.1914 30.8906 25.9961C30.7812 25.7969 30.625 25.6582 30.4219 25.5801C30.2227 25.498 29.9844 25.457 29.707 25.457C29.4688 25.457 29.2578 25.498 29.0742 25.5801C28.8906 25.6621 28.7363 25.7754 28.6113 25.9199C28.4863 26.0605 28.3906 26.2227 28.3242 26.4062C28.2617 26.5898 28.2305 26.7852 28.2305 26.9922ZM36.4219 31.1172C35.9805 31.1172 35.5801 31.043 35.2207 30.8945C34.8652 30.7422 34.5586 30.5293 34.3008 30.2559C34.0469 29.9824 33.8516 29.6582 33.7148 29.2832C33.5781 28.9082 33.5098 28.498 33.5098 28.0527V27.8066C33.5098 27.291 33.5859 26.832 33.7383 26.4297C33.8906 26.0234 34.0977 25.6797 34.3594 25.3984C34.6211 25.1172 34.918 24.9043 35.25 24.7598C35.582 24.6152 35.9258 24.543 36.2812 24.543C36.7344 24.543 37.125 24.6211 37.4531 24.7773C37.7852 24.9336 38.0566 25.1523 38.2676 25.4336C38.4785 25.7109 38.6348 26.0391 38.7363 26.418C38.8379 26.793 38.8887 27.2031 38.8887 27.6484V28.1348H34.1543V27.25H37.8047V27.168C37.7891 26.8867 37.7305 26.6133 37.6289 26.3477C37.5312 26.082 37.375 25.8633 37.1602 25.6914C36.9453 25.5195 36.6523 25.4336 36.2812 25.4336C36.0352 25.4336 35.8086 25.4863 35.6016 25.5918C35.3945 25.6934 35.2168 25.8457 35.0684 26.0488C34.9199 26.252 34.8047 26.5 34.7227 26.793C34.6406 27.0859 34.5996 27.4238 34.5996 27.8066V28.0527C34.5996 28.3535 34.6406 28.6367 34.7227 28.9023C34.8086 29.1641 34.9316 29.3945 35.0918 29.5938C35.2559 29.793 35.4531 29.9492 35.6836 30.0625C35.918 30.1758 36.1836 30.2324 36.4805 30.2324C36.8633 30.2324 37.1875 30.1543 37.4531 29.998C37.7188 29.8418 37.9512 29.6328 38.1504 29.3711L38.8066 29.8926C38.6699 30.0996 38.4961 30.2969 38.2852 30.4844C38.0742 30.6719 37.8145 30.8242 37.5059 30.9414C37.2012 31.0586 36.8398 31.1172 36.4219 31.1172ZM45.668 30.2266C45.9258 30.2266 46.1641 30.1738 46.3828 30.0684C46.6016 29.9629 46.7812 29.8184 46.9219 29.6348C47.0625 29.4473 47.1426 29.2344 47.1621 28.9961H48.1934C48.1738 29.3711 48.0469 29.7207 47.8125 30.0449C47.582 30.3652 47.2793 30.625 46.9043 30.8242C46.5293 31.0195 46.1172 31.1172 45.668 31.1172C45.1914 31.1172 44.7754 31.0332 44.4199 30.8652C44.0684 30.6973 43.7754 30.4668 43.541 30.1738C43.3105 29.8809 43.1367 29.5449 43.0195 29.166C42.9062 28.7832 42.8496 28.3789 42.8496 27.9531V27.707C42.8496 27.2812 42.9062 26.8789 43.0195 26.5C43.1367 26.1172 43.3105 25.7793 43.541 25.4863C43.7754 25.1934 44.0684 24.9629 44.4199 24.7949C44.7754 24.627 45.1914 24.543 45.668 24.543C46.1641 24.543 46.5977 24.6445 46.9688 24.8477C47.3398 25.0469 47.6309 25.3203 47.8418 25.668C48.0566 26.0117 48.1738 26.4023 48.1934 26.8398H47.1621C47.1426 26.5781 47.0684 26.3418 46.9395 26.1309C46.8145 25.9199 46.6426 25.752 46.4238 25.627C46.209 25.498 45.957 25.4336 45.668 25.4336C45.3359 25.4336 45.0566 25.5 44.8301 25.6328C44.6074 25.7617 44.4297 25.9375 44.2969 26.1602C44.168 26.3789 44.0742 26.623 44.0156 26.8926C43.9609 27.1582 43.9336 27.4297 43.9336 27.707V27.9531C43.9336 28.2305 43.9609 28.5039 44.0156 28.7734C44.0703 29.043 44.1621 29.2871 44.291 29.5059C44.4238 29.7246 44.6016 29.9004 44.8242 30.0332C45.0508 30.1621 45.332 30.2266 45.668 30.2266ZM49.125 27.9004V27.7656C49.125 27.3086 49.1914 26.8848 49.3242 26.4941C49.457 26.0996 49.6484 25.7578 49.8984 25.4688C50.1484 25.1758 50.4512 24.9492 50.8066 24.7891C51.1621 24.625 51.5605 24.543 52.002 24.543C52.4473 24.543 52.8477 24.625 53.2031 24.7891C53.5625 24.9492 53.8672 25.1758 54.1172 25.4688C54.3711 25.7578 54.5645 26.0996 54.6973 26.4941C54.8301 26.8848 54.8965 27.3086 54.8965 27.7656V27.9004C54.8965 28.3574 54.8301 28.7812 54.6973 29.1719C54.5645 29.5625 54.3711 29.9043 54.1172 30.1973C53.8672 30.4863 53.5645 30.7129 53.209 30.877C52.8574 31.0371 52.459 31.1172 52.0137 31.1172C51.5684 31.1172 51.168 31.0371 50.8125 30.877C50.457 30.7129 50.1523 30.4863 49.8984 30.1973C49.6484 29.9043 49.457 29.5625 49.3242 29.1719C49.1914 28.7812 49.125 28.3574 49.125 27.9004ZM50.209 27.7656V27.9004C50.209 28.2168 50.2461 28.5156 50.3203 28.7969C50.3945 29.0742 50.5059 29.3203 50.6543 29.5352C50.8066 29.75 50.9961 29.9199 51.2227 30.0449C51.4492 30.166 51.7129 30.2266 52.0137 30.2266C52.3105 30.2266 52.5703 30.166 52.793 30.0449C53.0195 29.9199 53.207 29.75 53.3555 29.5352C53.5039 29.3203 53.6152 29.0742 53.6895 28.7969C53.7676 28.5156 53.8066 28.2168 53.8066 27.9004V27.7656C53.8066 27.4531 53.7676 27.1582 53.6895 26.8809C53.6152 26.5996 53.502 26.3516 53.3496 26.1367C53.2012 25.918 53.0137 25.7461 52.7871 25.6211C52.5645 25.4961 52.3027 25.4336 52.002 25.4336C51.7051 25.4336 51.4434 25.4961 51.2168 25.6211C50.9941 25.7461 50.8066 25.918 50.6543 26.1367C50.5059 26.3516 50.3945 26.5996 50.3203 26.8809C50.2461 27.1582 50.209 27.4531 50.209 27.7656ZM57.334 25.9199V31H56.2441V24.6602H57.2754L57.334 25.9199ZM57.1113 27.5898L56.6074 27.5723C56.6113 27.1387 56.668 26.7383 56.7773 26.3711C56.8867 26 57.0488 25.6777 57.2637 25.4043C57.4785 25.1309 57.7461 24.9199 58.0664 24.7715C58.3867 24.6191 58.7578 24.543 59.1797 24.543C59.4766 24.543 59.75 24.5859 60 24.6719C60.25 24.7539 60.4668 24.8848 60.6504 25.0645C60.834 25.2441 60.9766 25.4746 61.0781 25.7559C61.1797 26.0371 61.2305 26.377 61.2305 26.7754V31H60.1465V26.8281C60.1465 26.4961 60.0898 26.2305 59.9766 26.0312C59.8672 25.832 59.7109 25.6875 59.5078 25.5977C59.3047 25.5039 59.0664 25.457 58.793 25.457C58.4727 25.457 58.2051 25.5137 57.9902 25.627C57.7754 25.7402 57.6035 25.8965 57.4746 26.0957C57.3457 26.2949 57.252 26.5234 57.1934 26.7812C57.1387 27.0352 57.1113 27.3047 57.1113 27.5898ZM61.2188 26.9922L60.4922 27.2148C60.4961 26.8672 60.5527 26.5332 60.6621 26.2129C60.7754 25.8926 60.9375 25.6074 61.1484 25.3574C61.3633 25.1074 61.627 24.9102 61.9395 24.7656C62.252 24.6172 62.6094 24.543 63.0117 24.543C63.3516 24.543 63.6523 24.5879 63.9141 24.6777C64.1797 24.7676 64.4023 24.9062 64.582 25.0938C64.7656 25.2773 64.9043 25.5137 64.998 25.8027C65.0918 26.0918 65.1387 26.4355 65.1387 26.834V31H64.0488V26.8223C64.0488 26.4668 63.9922 26.1914 63.8789 25.9961C63.7695 25.7969 63.6133 25.6582 63.4102 25.5801C63.2109 25.498 62.9727 25.457 62.6953 25.457C62.457 25.457 62.2461 25.498 62.0625 25.5801C61.8789 25.6621 61.7246 25.7754 61.5996 25.9199C61.4746 26.0605 61.3789 26.2227 61.3125 26.4062C61.25 26.5898 61.2188 26.7852 61.2188 26.9922ZM67.8633 25.8789V33.4375H66.7734V24.6602H67.7695L67.8633 25.8789ZM72.1348 27.7773V27.9004C72.1348 28.3613 72.0801 28.7891 71.9707 29.1836C71.8613 29.5742 71.7012 29.9141 71.4902 30.2031C71.2832 30.4922 71.0273 30.7168 70.7227 30.877C70.418 31.0371 70.0684 31.1172 69.6738 31.1172C69.2715 31.1172 68.916 31.0508 68.6074 30.918C68.2988 30.7852 68.0371 30.5918 67.8223 30.3379C67.6074 30.084 67.4355 29.7793 67.3066 29.4238C67.1816 29.0684 67.0957 28.668 67.0488 28.2227V27.5664C67.0957 27.0977 67.1836 26.6777 67.3125 26.3066C67.4414 25.9355 67.6113 25.6191 67.8223 25.3574C68.0371 25.0918 68.2969 24.8906 68.6016 24.7539C68.9062 24.6133 69.2578 24.543 69.6562 24.543C70.0547 24.543 70.4082 24.6211 70.7168 24.7773C71.0254 24.9297 71.2852 25.1484 71.4961 25.4336C71.707 25.7188 71.8652 26.0605 71.9707 26.459C72.0801 26.8535 72.1348 27.293 72.1348 27.7773ZM71.0449 27.9004V27.7773C71.0449 27.4609 71.0117 27.1641 70.9453 26.8867C70.8789 26.6055 70.7754 26.3594 70.6348 26.1484C70.498 25.9336 70.3223 25.7656 70.1074 25.6445C69.8926 25.5195 69.6367 25.457 69.3398 25.457C69.0664 25.457 68.8281 25.5039 68.625 25.5977C68.4258 25.6914 68.2559 25.8184 68.1152 25.9785C67.9746 26.1348 67.8594 26.3145 67.7695 26.5176C67.6836 26.7168 67.6191 26.9238 67.5762 27.1387V28.6562C67.6543 28.9297 67.7637 29.1875 67.9043 29.4297C68.0449 29.668 68.2324 29.8613 68.4668 30.0098C68.7012 30.1543 68.9961 30.2266 69.3516 30.2266C69.6445 30.2266 69.8965 30.166 70.1074 30.0449C70.3223 29.9199 70.498 29.75 70.6348 29.5352C70.7754 29.3203 70.8789 29.0742 70.9453 28.7969C71.0117 28.5156 71.0449 28.2168 71.0449 27.9004ZM74.6953 22V31H73.6055V22H74.6953ZM79.0664 31.1172C78.625 31.1172 78.2246 31.043 77.8652 30.8945C77.5098 30.7422 77.2031 30.5293 76.9453 30.2559C76.6914 29.9824 76.4961 29.6582 76.3594 29.2832C76.2227 28.9082 76.1543 28.498 76.1543 28.0527V27.8066C76.1543 27.291 76.2305 26.832 76.3828 26.4297C76.5352 26.0234 76.7422 25.6797 77.0039 25.3984C77.2656 25.1172 77.5625 24.9043 77.8945 24.7598C78.2266 24.6152 78.5703 24.543 78.9258 24.543C79.3789 24.543 79.7695 24.6211 80.0977 24.7773C80.4297 24.9336 80.7012 25.1523 80.9121 25.4336C81.123 25.7109 81.2793 26.0391 81.3809 26.418C81.4824 26.793 81.5332 27.2031 81.5332 27.6484V28.1348H76.7988V27.25H80.4492V27.168C80.4336 26.8867 80.375 26.6133 80.2734 26.3477C80.1758 26.082 80.0195 25.8633 79.8047 25.6914C79.5898 25.5195 79.2969 25.4336 78.9258 25.4336C78.6797 25.4336 78.4531 25.4863 78.2461 25.5918C78.0391 25.6934 77.8613 25.8457 77.7129 26.0488C77.5645 26.252 77.4492 26.5 77.3672 26.793C77.2852 27.0859 77.2441 27.4238 77.2441 27.8066V28.0527C77.2441 28.3535 77.2852 28.6367 77.3672 28.9023C77.4531 29.1641 77.5762 29.3945 77.7363 29.5938C77.9004 29.793 78.0977 29.9492 78.3281 30.0625C78.5625 30.1758 78.8281 30.2324 79.125 30.2324C79.5078 30.2324 79.832 30.1543 80.0977 29.998C80.3633 29.8418 80.5957 29.6328 80.7949 29.3711L81.4512 29.8926C81.3145 30.0996 81.1406 30.2969 80.9297 30.4844C80.7188 30.6719 80.459 30.8242 80.1504 30.9414C79.8457 31.0586 79.4844 31.1172 79.0664 31.1172ZM85.4531 24.6602V25.4922H82.0254V24.6602H85.4531ZM83.1855 23.1191H84.2695V29.4297C84.2695 29.6445 84.3027 29.8066 84.3691 29.916C84.4355 30.0254 84.5215 30.0977 84.627 30.1328C84.7324 30.168 84.8457 30.1855 84.9668 30.1855C85.0566 30.1855 85.1504 30.1777 85.248 30.1621C85.3496 30.1426 85.4258 30.127 85.4766 30.1152L85.4824 31C85.3965 31.0273 85.2832 31.0527 85.1426 31.0762C85.0059 31.1035 84.8398 31.1172 84.6445 31.1172C84.3789 31.1172 84.1348 31.0645 83.9121 30.959C83.6895 30.8535 83.5117 30.6777 83.3789 30.4316C83.25 30.1816 83.1855 29.8457 83.1855 29.4238V23.1191ZM86.3203 27.9004V27.7656C86.3203 27.3086 86.3867 26.8848 86.5195 26.4941C86.6523 26.0996 86.8438 25.7578 87.0938 25.4688C87.3438 25.1758 87.6465 24.9492 88.002 24.7891C88.3574 24.625 88.7559 24.543 89.1973 24.543C89.6426 24.543 90.043 24.625 90.3984 24.7891C90.7578 24.9492 91.0625 25.1758 91.3125 25.4688C91.5664 25.7578 91.7598 26.0996 91.8926 26.4941C92.0254 26.8848 92.0918 27.3086 92.0918 27.7656V27.9004C92.0918 28.3574 92.0254 28.7812 91.8926 29.1719C91.7598 29.5625 91.5664 29.9043 91.3125 30.1973C91.0625 30.4863 90.7598 30.7129 90.4043 30.877C90.0527 31.0371 89.6543 31.1172 89.209 31.1172C88.7637 31.1172 88.3633 31.0371 88.0078 30.877C87.6523 30.7129 87.3477 30.4863 87.0938 30.1973C86.8438 29.9043 86.6523 29.5625 86.5195 29.1719C86.3867 28.7812 86.3203 28.3574 86.3203 27.9004ZM87.4043 27.7656V27.9004C87.4043 28.2168 87.4414 28.5156 87.5156 28.7969C87.5898 29.0742 87.7012 29.3203 87.8496 29.5352C88.002 29.75 88.1914 29.9199 88.418 30.0449C88.6445 30.166 88.9082 30.2266 89.209 30.2266C89.5059 30.2266 89.7656 30.166 89.9883 30.0449C90.2148 29.9199 90.4023 29.75 90.5508 29.5352C90.6992 29.3203 90.8105 29.0742 90.8848 28.7969C90.9629 28.5156 91.002 28.2168 91.002 27.9004V27.7656C91.002 27.4531 90.9629 27.1582 90.8848 26.8809C90.8105 26.5996 90.6973 26.3516 90.5449 26.1367C90.3965 25.918 90.209 25.7461 89.9824 25.6211C89.7598 25.4961 89.498 25.4336 89.1973 25.4336C88.9004 25.4336 88.6387 25.4961 88.4121 25.6211C88.1895 25.7461 88.002 25.918 87.8496 26.1367C87.7012 26.3516 87.5898 26.5996 87.5156 26.8809C87.4414 27.1582 87.4043 27.4531 87.4043 27.7656ZM0.814453 42.7109V42.4707C0.814453 42.1348 0.919922 41.8574 1.13086 41.6387C1.3457 41.4199 1.63672 41.3105 2.00391 41.3105C2.375 41.3105 2.66797 41.4199 2.88281 41.6387C3.09766 41.8574 3.20508 42.1348 3.20508 42.4707V42.7109C3.20508 43.043 3.09766 43.3184 2.88281 43.5371C2.67188 43.752 2.38086 43.8594 2.00977 43.8594C1.64258 43.8594 1.35156 43.752 1.13672 43.5371C0.921875 43.3184 0.814453 43.043 0.814453 42.7109ZM13.1719 44.2871H14.2969C14.2383 44.8262 14.084 45.3086 13.834 45.7344C13.584 46.1602 13.2305 46.498 12.7734 46.748C12.3164 46.9941 11.7461 47.1172 11.0625 47.1172C10.5625 47.1172 10.1074 47.0234 9.69727 46.8359C9.29102 46.6484 8.94141 46.3828 8.64844 46.0391C8.35547 45.6914 8.12891 45.2754 7.96875 44.791C7.8125 44.3027 7.73438 43.7598 7.73438 43.1621V42.3125C7.73438 41.7148 7.8125 41.1738 7.96875 40.6895C8.12891 40.2012 8.35742 39.7832 8.6543 39.4355C8.95508 39.0879 9.31641 38.8203 9.73828 38.6328C10.1602 38.4453 10.6348 38.3516 11.1621 38.3516C11.8066 38.3516 12.3516 38.4727 12.7969 38.7148C13.2422 38.957 13.5879 39.293 13.834 39.7227C14.084 40.1484 14.2383 40.6426 14.2969 41.2051H13.1719C13.1172 40.8066 13.0156 40.4648 12.8672 40.1797C12.7188 39.8906 12.5078 39.668 12.2344 39.5117C11.9609 39.3555 11.6035 39.2773 11.1621 39.2773C10.7832 39.2773 10.4492 39.3496 10.1602 39.4941C9.875 39.6387 9.63477 39.8438 9.43945 40.1094C9.24805 40.375 9.10352 40.6934 9.00586 41.0645C8.9082 41.4355 8.85938 41.8477 8.85938 42.3008V43.1621C8.85938 43.5801 8.90234 43.9727 8.98828 44.3398C9.07812 44.707 9.21289 45.0293 9.39258 45.3066C9.57227 45.584 9.80078 45.8027 10.0781 45.9629C10.3555 46.1191 10.6836 46.1973 11.0625 46.1973C11.543 46.1973 11.9258 46.1211 12.2109 45.9688C12.4961 45.8164 12.7109 45.5977 12.8555 45.3125C13.0039 45.0273 13.1094 44.6855 13.1719 44.2871ZM18.9844 43.6543H16.7051V42.7344H18.9844C19.4258 42.7344 19.7832 42.6641 20.0566 42.5234C20.3301 42.3828 20.5293 42.1875 20.6543 41.9375C20.7832 41.6875 20.8477 41.4023 20.8477 41.082C20.8477 40.7891 20.7832 40.5137 20.6543 40.2559C20.5293 39.998 20.3301 39.791 20.0566 39.6348C19.7832 39.4746 19.4258 39.3945 18.9844 39.3945H16.9688V47H15.8379V38.4688H18.9844C19.6289 38.4688 20.1738 38.5801 20.6191 38.8027C21.0645 39.0254 21.4023 39.334 21.6328 39.7285C21.8633 40.1191 21.9785 40.5664 21.9785 41.0703C21.9785 41.6172 21.8633 42.084 21.6328 42.4707C21.4023 42.8574 21.0645 43.1523 20.6191 43.3555C20.1738 43.5547 19.6289 43.6543 18.9844 43.6543ZM24.5391 38.4688V47H23.4082V38.4688H24.5391ZM28.1133 42.3066V43.2324H24.293V42.3066H28.1133ZM28.6934 38.4688V39.3945H24.293V38.4688H28.6934ZM0.814453 58.7109V58.4707C0.814453 58.1348 0.919922 57.8574 1.13086 57.6387C1.3457 57.4199 1.63672 57.3105 2.00391 57.3105C2.375 57.3105 2.66797 57.4199 2.88281 57.6387C3.09766 57.8574 3.20508 58.1348 3.20508 58.4707V58.7109C3.20508 59.043 3.09766 59.3184 2.88281 59.5371C2.67188 59.752 2.38086 59.8594 2.00977 59.8594C1.64258 59.8594 1.35156 59.752 1.13672 59.5371C0.921875 59.3184 0.814453 59.043 0.814453 58.7109ZM10.3301 63H8.54883L8.56055 62.0801H10.3301C10.9395 62.0801 11.4473 61.9531 11.8535 61.6992C12.2598 61.4414 12.5645 61.082 12.7676 60.6211C12.9746 60.1562 13.0781 59.6133 13.0781 58.9922V58.4707C13.0781 57.9824 13.0195 57.5488 12.9023 57.1699C12.7852 56.7871 12.6133 56.4648 12.3867 56.2031C12.1602 55.9375 11.8828 55.7363 11.5547 55.5996C11.2305 55.4629 10.8574 55.3945 10.4355 55.3945H8.51367V54.4688H10.4355C10.9941 54.4688 11.5039 54.5625 11.9648 54.75C12.4258 54.9336 12.8223 55.2012 13.1543 55.5527C13.4902 55.9004 13.748 56.3223 13.9277 56.8184C14.1074 57.3105 14.1973 57.8652 14.1973 58.4824V58.9922C14.1973 59.6094 14.1074 60.166 13.9277 60.6621C13.748 61.1543 13.4883 61.5742 13.1484 61.9219C12.8125 62.2695 12.4062 62.5371 11.9297 62.7246C11.457 62.9082 10.9238 63 10.3301 63ZM9.15234 54.4688V63H8.02148V54.4688H9.15234ZM19.4707 61.916V58.6523C19.4707 58.4023 19.4199 58.1855 19.3184 58.002C19.2207 57.8145 19.0723 57.6699 18.873 57.5684C18.6738 57.4668 18.4277 57.416 18.1348 57.416C17.8613 57.416 17.6211 57.4629 17.4141 57.5566C17.2109 57.6504 17.0508 57.7734 16.9336 57.9258C16.8203 58.0781 16.7637 58.2422 16.7637 58.418H15.6797C15.6797 58.1914 15.7383 57.9668 15.8555 57.7441C15.9727 57.5215 16.1406 57.3203 16.3594 57.1406C16.582 56.957 16.8477 56.8125 17.1562 56.707C17.4688 56.5977 17.8164 56.543 18.1992 56.543C18.6602 56.543 19.0664 56.6211 19.418 56.7773C19.7734 56.9336 20.0508 57.1699 20.25 57.4863C20.4531 57.7988 20.5547 58.1914 20.5547 58.6641V61.6172C20.5547 61.8281 20.5723 62.0527 20.6074 62.291C20.6465 62.5293 20.7031 62.7344 20.7773 62.9062V63H19.6465C19.5918 62.875 19.5488 62.709 19.5176 62.502C19.4863 62.291 19.4707 62.0957 19.4707 61.916ZM19.6582 59.1562L19.6699 59.918H18.5742C18.2656 59.918 17.9902 59.9434 17.748 59.9941C17.5059 60.041 17.3027 60.1133 17.1387 60.2109C16.9746 60.3086 16.8496 60.4316 16.7637 60.5801C16.6777 60.7246 16.6348 60.8945 16.6348 61.0898C16.6348 61.2891 16.6797 61.4707 16.7695 61.6348C16.8594 61.7988 16.9941 61.9297 17.1738 62.0273C17.3574 62.1211 17.582 62.168 17.8477 62.168C18.1797 62.168 18.4727 62.0977 18.7266 61.957C18.9805 61.8164 19.1816 61.6445 19.3301 61.4414C19.4824 61.2383 19.5645 61.041 19.5762 60.8496L20.0391 61.3711C20.0117 61.5352 19.9375 61.7168 19.8164 61.916C19.6953 62.1152 19.5332 62.3066 19.3301 62.4902C19.1309 62.6699 18.8926 62.8203 18.6152 62.9414C18.3418 63.0586 18.0332 63.1172 17.6895 63.1172C17.2598 63.1172 16.8828 63.0332 16.5586 62.8652C16.2383 62.6973 15.9883 62.4727 15.8086 62.1914C15.6328 61.9062 15.5449 61.5879 15.5449 61.2363C15.5449 60.8965 15.6113 60.5977 15.7441 60.3398C15.877 60.0781 16.0684 59.8613 16.3184 59.6895C16.5684 59.5137 16.8691 59.3809 17.2207 59.291C17.5723 59.2012 17.9648 59.1562 18.3984 59.1562H19.6582ZM24.9141 56.6602V57.4922H21.4863V56.6602H24.9141ZM22.6465 55.1191H23.7305V61.4297C23.7305 61.6445 23.7637 61.8066 23.8301 61.916C23.8965 62.0254 23.9824 62.0977 24.0879 62.1328C24.1934 62.168 24.3066 62.1855 24.4277 62.1855C24.5176 62.1855 24.6113 62.1777 24.709 62.1621C24.8105 62.1426 24.8867 62.127 24.9375 62.1152L24.9434 63C24.8574 63.0273 24.7441 63.0527 24.6035 63.0762C24.4668 63.1035 24.3008 63.1172 24.1055 63.1172C23.8398 63.1172 23.5957 63.0645 23.373 62.959C23.1504 62.8535 22.9727 62.6777 22.8398 62.4316C22.7109 62.1816 22.6465 61.8457 22.6465 61.4238V55.1191ZM29.9238 61.916V58.6523C29.9238 58.4023 29.873 58.1855 29.7715 58.002C29.6738 57.8145 29.5254 57.6699 29.3262 57.5684C29.127 57.4668 28.8809 57.416 28.5879 57.416C28.3145 57.416 28.0742 57.4629 27.8672 57.5566C27.6641 57.6504 27.5039 57.7734 27.3867 57.9258C27.2734 58.0781 27.2168 58.2422 27.2168 58.418H26.1328C26.1328 58.1914 26.1914 57.9668 26.3086 57.7441C26.4258 57.5215 26.5938 57.3203 26.8125 57.1406C27.0352 56.957 27.3008 56.8125 27.6094 56.707C27.9219 56.5977 28.2695 56.543 28.6523 56.543C29.1133 56.543 29.5195 56.6211 29.8711 56.7773C30.2266 56.9336 30.5039 57.1699 30.7031 57.4863C30.9062 57.7988 31.0078 58.1914 31.0078 58.6641V61.6172C31.0078 61.8281 31.0254 62.0527 31.0605 62.291C31.0996 62.5293 31.1562 62.7344 31.2305 62.9062V63H30.0996C30.0449 62.875 30.002 62.709 29.9707 62.502C29.9395 62.291 29.9238 62.0957 29.9238 61.916ZM30.1113 59.1562L30.123 59.918H29.0273C28.7188 59.918 28.4434 59.9434 28.2012 59.9941C27.959 60.041 27.7559 60.1133 27.5918 60.2109C27.4277 60.3086 27.3027 60.4316 27.2168 60.5801C27.1309 60.7246 27.0879 60.8945 27.0879 61.0898C27.0879 61.2891 27.1328 61.4707 27.2227 61.6348C27.3125 61.7988 27.4473 61.9297 27.627 62.0273C27.8105 62.1211 28.0352 62.168 28.3008 62.168C28.6328 62.168 28.9258 62.0977 29.1797 61.957C29.4336 61.8164 29.6348 61.6445 29.7832 61.4414C29.9355 61.2383 30.0176 61.041 30.0293 60.8496L30.4922 61.3711C30.4648 61.5352 30.3906 61.7168 30.2695 61.916C30.1484 62.1152 29.9863 62.3066 29.7832 62.4902C29.584 62.6699 29.3457 62.8203 29.0684 62.9414C28.7949 63.0586 28.4863 63.1172 28.1426 63.1172C27.7129 63.1172 27.3359 63.0332 27.0117 62.8652C26.6914 62.6973 26.4414 62.4727 26.2617 62.1914C26.0859 61.9062 25.998 61.5879 25.998 61.2363C25.998 60.8965 26.0645 60.5977 26.1973 60.3398C26.3301 60.0781 26.5215 59.8613 26.7715 59.6895C27.0215 59.5137 27.3223 59.3809 27.6738 59.291C28.0254 59.2012 28.418 59.1562 28.8516 59.1562H30.1113ZM36.7734 58.0137V63H35.6895V56.6602H36.7148L36.7734 58.0137ZM36.5156 59.5898L36.0645 59.5723C36.0684 59.1387 36.1328 58.7383 36.2578 58.3711C36.3828 58 36.5586 57.6777 36.7852 57.4043C37.0117 57.1309 37.2812 56.9199 37.5938 56.7715C37.9102 56.6191 38.2598 56.543 38.6426 56.543C38.9551 56.543 39.2363 56.5859 39.4863 56.6719C39.7363 56.7539 39.9492 56.8867 40.125 57.0703C40.3047 57.2539 40.4414 57.4922 40.5352 57.7852C40.6289 58.0742 40.6758 58.4277 40.6758 58.8457V63H39.5859V58.834C39.5859 58.502 39.5371 58.2363 39.4395 58.0371C39.3418 57.834 39.1992 57.6875 39.0117 57.5977C38.8242 57.5039 38.5938 57.457 38.3203 57.457C38.0508 57.457 37.8047 57.5137 37.582 57.627C37.3633 57.7402 37.1738 57.8965 37.0137 58.0957C36.8574 58.2949 36.7344 58.5234 36.6445 58.7812C36.5586 59.0352 36.5156 59.3047 36.5156 59.5898ZM46.0605 61.916V58.6523C46.0605 58.4023 46.0098 58.1855 45.9082 58.002C45.8105 57.8145 45.6621 57.6699 45.4629 57.5684C45.2637 57.4668 45.0176 57.416 44.7246 57.416C44.4512 57.416 44.2109 57.4629 44.0039 57.5566C43.8008 57.6504 43.6406 57.7734 43.5234 57.9258C43.4102 58.0781 43.3535 58.2422 43.3535 58.418H42.2695C42.2695 58.1914 42.3281 57.9668 42.4453 57.7441C42.5625 57.5215 42.7305 57.3203 42.9492 57.1406C43.1719 56.957 43.4375 56.8125 43.7461 56.707C44.0586 56.5977 44.4062 56.543 44.7891 56.543C45.25 56.543 45.6562 56.6211 46.0078 56.7773C46.3633 56.9336 46.6406 57.1699 46.8398 57.4863C47.043 57.7988 47.1445 58.1914 47.1445 58.6641V61.6172C47.1445 61.8281 47.1621 62.0527 47.1973 62.291C47.2363 62.5293 47.293 62.7344 47.3672 62.9062V63H46.2363C46.1816 62.875 46.1387 62.709 46.1074 62.502C46.0762 62.291 46.0605 62.0957 46.0605 61.916ZM46.248 59.1562L46.2598 59.918H45.1641C44.8555 59.918 44.5801 59.9434 44.3379 59.9941C44.0957 60.041 43.8926 60.1133 43.7285 60.2109C43.5645 60.3086 43.4395 60.4316 43.3535 60.5801C43.2676 60.7246 43.2246 60.8945 43.2246 61.0898C43.2246 61.2891 43.2695 61.4707 43.3594 61.6348C43.4492 61.7988 43.584 61.9297 43.7637 62.0273C43.9473 62.1211 44.1719 62.168 44.4375 62.168C44.7695 62.168 45.0625 62.0977 45.3164 61.957C45.5703 61.8164 45.7715 61.6445 45.9199 61.4414C46.0723 61.2383 46.1543 61.041 46.166 60.8496L46.6289 61.3711C46.6016 61.5352 46.5273 61.7168 46.4062 61.916C46.2852 62.1152 46.123 62.3066 45.9199 62.4902C45.7207 62.6699 45.4824 62.8203 45.2051 62.9414C44.9316 63.0586 44.623 63.1172 44.2793 63.1172C43.8496 63.1172 43.4727 63.0332 43.1484 62.8652C42.8281 62.6973 42.5781 62.4727 42.3984 62.1914C42.2227 61.9062 42.1348 61.5879 42.1348 61.2363C42.1348 60.8965 42.2012 60.5977 42.334 60.3398C42.4668 60.0781 42.6582 59.8613 42.9082 59.6895C43.1582 59.5137 43.459 59.3809 43.8105 59.291C44.1621 59.2012 44.5547 59.1562 44.9883 59.1562H46.248ZM52.541 61.3184C52.541 61.1621 52.5059 61.0176 52.4355 60.8848C52.3691 60.748 52.2305 60.625 52.0195 60.5156C51.8125 60.4023 51.5 60.3047 51.082 60.2227C50.7305 60.1484 50.4121 60.0605 50.127 59.959C49.8457 59.8574 49.6055 59.7344 49.4062 59.5898C49.2109 59.4453 49.0605 59.2754 48.9551 59.0801C48.8496 58.8848 48.7969 58.6562 48.7969 58.3945C48.7969 58.1445 48.8516 57.9082 48.9609 57.6855C49.0742 57.4629 49.2324 57.2656 49.4355 57.0938C49.6426 56.9219 49.8906 56.7871 50.1797 56.6895C50.4688 56.5918 50.791 56.543 51.1465 56.543C51.6543 56.543 52.0879 56.6328 52.4473 56.8125C52.8066 56.9922 53.082 57.2324 53.2734 57.5332C53.4648 57.8301 53.5605 58.1602 53.5605 58.5234H52.4766C52.4766 58.3477 52.4238 58.1777 52.3184 58.0137C52.2168 57.8457 52.0664 57.707 51.8672 57.5977C51.6719 57.4883 51.4316 57.4336 51.1465 57.4336C50.8457 57.4336 50.6016 57.4805 50.4141 57.5742C50.2305 57.6641 50.0957 57.7793 50.0098 57.9199C49.9277 58.0605 49.8867 58.209 49.8867 58.3652C49.8867 58.4824 49.9062 58.5879 49.9453 58.6816C49.9883 58.7715 50.0625 58.8555 50.168 58.9336C50.2734 59.0078 50.4219 59.0781 50.6133 59.1445C50.8047 59.2109 51.0488 59.2773 51.3457 59.3438C51.8652 59.4609 52.293 59.6016 52.6289 59.7656C52.9648 59.9297 53.2148 60.1309 53.3789 60.3691C53.543 60.6074 53.625 60.8965 53.625 61.2363C53.625 61.5137 53.5664 61.7676 53.4492 61.998C53.3359 62.2285 53.1699 62.4277 52.9512 62.5957C52.7363 62.7598 52.4785 62.8887 52.1777 62.9824C51.8809 63.0723 51.5469 63.1172 51.1758 63.1172C50.6172 63.1172 50.1445 63.0176 49.7578 62.8184C49.3711 62.6191 49.0781 62.3613 48.8789 62.0449C48.6797 61.7285 48.5801 61.3945 48.5801 61.043H49.6699C49.6855 61.3398 49.7715 61.5762 49.9277 61.752C50.084 61.9238 50.2754 62.0469 50.502 62.1211C50.7285 62.1914 50.9531 62.2266 51.1758 62.2266C51.4727 62.2266 51.7207 62.1875 51.9199 62.1094C52.123 62.0312 52.2773 61.9238 52.3828 61.7871C52.4883 61.6504 52.541 61.4941 52.541 61.3184ZM57.5859 62.2266C57.8438 62.2266 58.082 62.1738 58.3008 62.0684C58.5195 61.9629 58.6992 61.8184 58.8398 61.6348C58.9805 61.4473 59.0605 61.2344 59.0801 60.9961H60.1113C60.0918 61.3711 59.9648 61.7207 59.7305 62.0449C59.5 62.3652 59.1973 62.625 58.8223 62.8242C58.4473 63.0195 58.0352 63.1172 57.5859 63.1172C57.1094 63.1172 56.6934 63.0332 56.3379 62.8652C55.9863 62.6973 55.6934 62.4668 55.459 62.1738C55.2285 61.8809 55.0547 61.5449 54.9375 61.166C54.8242 60.7832 54.7676 60.3789 54.7676 59.9531V59.707C54.7676 59.2812 54.8242 58.8789 54.9375 58.5C55.0547 58.1172 55.2285 57.7793 55.459 57.4863C55.6934 57.1934 55.9863 56.9629 56.3379 56.7949C56.6934 56.627 57.1094 56.543 57.5859 56.543C58.082 56.543 58.5156 56.6445 58.8867 56.8477C59.2578 57.0469 59.5488 57.3203 59.7598 57.668C59.9746 58.0117 60.0918 58.4023 60.1113 58.8398H59.0801C59.0605 58.5781 58.9863 58.3418 58.8574 58.1309C58.7324 57.9199 58.5605 57.752 58.3418 57.627C58.127 57.498 57.875 57.4336 57.5859 57.4336C57.2539 57.4336 56.9746 57.5 56.748 57.6328C56.5254 57.7617 56.3477 57.9375 56.2148 58.1602C56.0859 58.3789 55.9922 58.623 55.9336 58.8926C55.8789 59.1582 55.8516 59.4297 55.8516 59.707V59.9531C55.8516 60.2305 55.8789 60.5039 55.9336 60.7734C55.9883 61.043 56.0801 61.2871 56.209 61.5059C56.3418 61.7246 56.5195 61.9004 56.7422 62.0332C56.9688 62.1621 57.25 62.2266 57.5859 62.2266ZM62.5078 56.6602V63H61.418V56.6602H62.5078ZM61.3359 54.9785C61.3359 54.8027 61.3887 54.6543 61.4941 54.5332C61.6035 54.4121 61.7637 54.3516 61.9746 54.3516C62.1816 54.3516 62.3398 54.4121 62.4492 54.5332C62.5625 54.6543 62.6191 54.8027 62.6191 54.9785C62.6191 55.1465 62.5625 55.291 62.4492 55.4121C62.3398 55.5293 62.1816 55.5879 61.9746 55.5879C61.7637 55.5879 61.6035 55.5293 61.4941 55.4121C61.3887 55.291 61.3359 55.1465 61.3359 54.9785ZM65.3262 57.9199V63H64.2363V56.6602H65.2676L65.3262 57.9199ZM65.1035 59.5898L64.5996 59.5723C64.6035 59.1387 64.6602 58.7383 64.7695 58.3711C64.8789 58 65.041 57.6777 65.2559 57.4043C65.4707 57.1309 65.7383 56.9199 66.0586 56.7715C66.3789 56.6191 66.75 56.543 67.1719 56.543C67.4688 56.543 67.7422 56.5859 67.9922 56.6719C68.2422 56.7539 68.459 56.8848 68.6426 57.0645C68.8262 57.2441 68.9688 57.4746 69.0703 57.7559C69.1719 58.0371 69.2227 58.377 69.2227 58.7754V63H68.1387V58.8281C68.1387 58.4961 68.082 58.2305 67.9688 58.0312C67.8594 57.832 67.7031 57.6875 67.5 57.5977C67.2969 57.5039 67.0586 57.457 66.7852 57.457C66.4648 57.457 66.1973 57.5137 65.9824 57.627C65.7676 57.7402 65.5957 57.8965 65.4668 58.0957C65.3379 58.2949 65.2441 58.5234 65.1855 58.7812C65.1309 59.0352 65.1035 59.3047 65.1035 59.5898ZM69.2109 58.9922L68.4844 59.2148C68.4883 58.8672 68.5449 58.5332 68.6543 58.2129C68.7676 57.8926 68.9297 57.6074 69.1406 57.3574C69.3555 57.1074 69.6191 56.9102 69.9316 56.7656C70.2441 56.6172 70.6016 56.543 71.0039 56.543C71.3438 56.543 71.6445 56.5879 71.9062 56.6777C72.1719 56.7676 72.3945 56.9062 72.5742 57.0938C72.7578 57.2773 72.8965 57.5137 72.9902 57.8027C73.084 58.0918 73.1309 58.4355 73.1309 58.834V63H72.041V58.8223C72.041 58.4668 71.9844 58.1914 71.8711 57.9961C71.7617 57.7969 71.6055 57.6582 71.4023 57.5801C71.2031 57.498 70.9648 57.457 70.6875 57.457C70.4492 57.457 70.2383 57.498 70.0547 57.5801C69.8711 57.6621 69.7168 57.7754 69.5918 57.9199C69.4668 58.0605 69.3711 58.2227 69.3047 58.4062C69.2422 58.5898 69.2109 58.7852 69.2109 58.9922ZM77.4023 63.1172C76.9609 63.1172 76.5605 63.043 76.2012 62.8945C75.8457 62.7422 75.5391 62.5293 75.2812 62.2559C75.0273 61.9824 74.832 61.6582 74.6953 61.2832C74.5586 60.9082 74.4902 60.498 74.4902 60.0527V59.8066C74.4902 59.291 74.5664 58.832 74.7188 58.4297C74.8711 58.0234 75.0781 57.6797 75.3398 57.3984C75.6016 57.1172 75.8984 56.9043 76.2305 56.7598C76.5625 56.6152 76.9062 56.543 77.2617 56.543C77.7148 56.543 78.1055 56.6211 78.4336 56.7773C78.7656 56.9336 79.0371 57.1523 79.248 57.4336C79.459 57.7109 79.6152 58.0391 79.7168 58.418C79.8184 58.793 79.8691 59.2031 79.8691 59.6484V60.1348H75.1348V59.25H78.7852V59.168C78.7695 58.8867 78.7109 58.6133 78.6094 58.3477C78.5117 58.082 78.3555 57.8633 78.1406 57.6914C77.9258 57.5195 77.6328 57.4336 77.2617 57.4336C77.0156 57.4336 76.7891 57.4863 76.582 57.5918C76.375 57.6934 76.1973 57.8457 76.0488 58.0488C75.9004 58.252 75.7852 58.5 75.7031 58.793C75.6211 59.0859 75.5801 59.4238 75.5801 59.8066V60.0527C75.5801 60.3535 75.6211 60.6367 75.7031 60.9023C75.7891 61.1641 75.9121 61.3945 76.0723 61.5938C76.2363 61.793 76.4336 61.9492 76.6641 62.0625C76.8984 62.1758 77.1641 62.2324 77.4609 62.2324C77.8438 62.2324 78.168 62.1543 78.4336 61.998C78.6992 61.8418 78.9316 61.6328 79.1309 61.3711L79.7871 61.8926C79.6504 62.0996 79.4766 62.2969 79.2656 62.4844C79.0547 62.6719 78.7949 62.8242 78.4863 62.9414C78.1816 63.0586 77.8203 63.1172 77.4023 63.1172ZM82.2188 58.0137V63H81.1348V56.6602H82.1602L82.2188 58.0137ZM81.9609 59.5898L81.5098 59.5723C81.5137 59.1387 81.5781 58.7383 81.7031 58.3711C81.8281 58 82.0039 57.6777 82.2305 57.4043C82.457 57.1309 82.7266 56.9199 83.0391 56.7715C83.3555 56.6191 83.7051 56.543 84.0879 56.543C84.4004 56.543 84.6816 56.5859 84.9316 56.6719C85.1816 56.7539 85.3945 56.8867 85.5703 57.0703C85.75 57.2539 85.8867 57.4922 85.9805 57.7852C86.0742 58.0742 86.1211 58.4277 86.1211 58.8457V63H85.0312V58.834C85.0312 58.502 84.9824 58.2363 84.8848 58.0371C84.7871 57.834 84.6445 57.6875 84.457 57.5977C84.2695 57.5039 84.0391 57.457 83.7656 57.457C83.4961 57.457 83.25 57.5137 83.0273 57.627C82.8086 57.7402 82.6191 57.8965 82.459 58.0957C82.3027 58.2949 82.1797 58.5234 82.0898 58.7812C82.0039 59.0352 81.9609 59.3047 81.9609 59.5898ZM90.4219 56.6602V57.4922H86.9941V56.6602H90.4219ZM88.1543 55.1191H89.2383V61.4297C89.2383 61.6445 89.2715 61.8066 89.3379 61.916C89.4043 62.0254 89.4902 62.0977 89.5957 62.1328C89.7012 62.168 89.8145 62.1855 89.9355 62.1855C90.0254 62.1855 90.1191 62.1777 90.2168 62.1621C90.3184 62.1426 90.3945 62.127 90.4453 62.1152L90.4512 63C90.3652 63.0273 90.252 63.0527 90.1113 63.0762C89.9746 63.1035 89.8086 63.1172 89.6133 63.1172C89.3477 63.1172 89.1035 63.0645 88.8809 62.959C88.6582 62.8535 88.4805 62.6777 88.3477 62.4316C88.2188 62.1816 88.1543 61.8457 88.1543 61.4238V55.1191ZM91.2891 59.9004V59.7656C91.2891 59.3086 91.3555 58.8848 91.4883 58.4941C91.6211 58.0996 91.8125 57.7578 92.0625 57.4688C92.3125 57.1758 92.6152 56.9492 92.9707 56.7891C93.3262 56.625 93.7246 56.543 94.166 56.543C94.6113 56.543 95.0117 56.625 95.3672 56.7891C95.7266 56.9492 96.0312 57.1758 96.2812 57.4688C96.5352 57.7578 96.7285 58.0996 96.8613 58.4941C96.9941 58.8848 97.0605 59.3086 97.0605 59.7656V59.9004C97.0605 60.3574 96.9941 60.7812 96.8613 61.1719C96.7285 61.5625 96.5352 61.9043 96.2812 62.1973C96.0312 62.4863 95.7285 62.7129 95.373 62.877C95.0215 63.0371 94.623 63.1172 94.1777 63.1172C93.7324 63.1172 93.332 63.0371 92.9766 62.877C92.6211 62.7129 92.3164 62.4863 92.0625 62.1973C91.8125 61.9043 91.6211 61.5625 91.4883 61.1719C91.3555 60.7812 91.2891 60.3574 91.2891 59.9004ZM92.373 59.7656V59.9004C92.373 60.2168 92.4102 60.5156 92.4844 60.7969C92.5586 61.0742 92.6699 61.3203 92.8184 61.5352C92.9707 61.75 93.1602 61.9199 93.3867 62.0449C93.6133 62.166 93.877 62.2266 94.1777 62.2266C94.4746 62.2266 94.7344 62.166 94.957 62.0449C95.1836 61.9199 95.3711 61.75 95.5195 61.5352C95.668 61.3203 95.7793 61.0742 95.8535 60.7969C95.9316 60.5156 95.9707 60.2168 95.9707 59.9004V59.7656C95.9707 59.4531 95.9316 59.1582 95.8535 58.8809C95.7793 58.5996 95.666 58.3516 95.5137 58.1367C95.3652 57.918 95.1777 57.7461 94.9512 57.6211C94.7285 57.4961 94.4668 57.4336 94.166 57.4336C93.8691 57.4336 93.6074 57.4961 93.3809 57.6211C93.1582 57.7461 92.9707 57.918 92.8184 58.1367C92.6699 58.3516 92.5586 58.5996 92.4844 58.8809C92.4102 59.1582 92.373 59.4531 92.373 59.7656Z" fill="white"/>
<path d="M102.772 26.9985V26.7583C102.772 26.4224 102.878 26.145 103.089 25.9263C103.304 25.7075 103.595 25.5981 103.962 25.5981C104.333 25.5981 104.626 25.7075 104.841 25.9263C105.056 26.145 105.163 26.4224 105.163 26.7583V26.9985C105.163 27.3306 105.056 27.606 104.841 27.8247C104.63 28.0396 104.339 28.147 103.968 28.147C103.601 28.147 103.31 28.0396 103.095 27.8247C102.88 27.606 102.772 27.3306 102.772 26.9985ZM115.13 28.5747H116.255C116.196 29.1138 116.042 29.5962 115.792 30.022C115.542 30.4478 115.189 30.7856 114.731 31.0356C114.274 31.2817 113.704 31.4048 113.021 31.4048C112.521 31.4048 112.065 31.311 111.655 31.1235C111.249 30.936 110.899 30.6704 110.606 30.3267C110.314 29.979 110.087 29.563 109.927 29.0786C109.771 28.5903 109.692 28.0474 109.692 27.4497V26.6001C109.692 26.0024 109.771 25.4614 109.927 24.9771C110.087 24.4888 110.315 24.0708 110.612 23.7231C110.913 23.3755 111.274 23.1079 111.696 22.9204C112.118 22.7329 112.593 22.6392 113.12 22.6392C113.765 22.6392 114.31 22.7603 114.755 23.0024C115.2 23.2446 115.546 23.5806 115.792 24.0103C116.042 24.436 116.196 24.9302 116.255 25.4927H115.13C115.075 25.0942 114.974 24.7524 114.825 24.4673C114.677 24.1782 114.466 23.9556 114.192 23.7993C113.919 23.6431 113.562 23.5649 113.12 23.5649C112.741 23.5649 112.407 23.6372 112.118 23.7817C111.833 23.9263 111.593 24.1313 111.397 24.397C111.206 24.6626 111.062 24.981 110.964 25.3521C110.866 25.7231 110.817 26.1353 110.817 26.5884V27.4497C110.817 27.8677 110.86 28.2603 110.946 28.6274C111.036 28.9946 111.171 29.3169 111.351 29.5942C111.53 29.8716 111.759 30.0903 112.036 30.2505C112.314 30.4067 112.642 30.4849 113.021 30.4849C113.501 30.4849 113.884 30.4087 114.169 30.2563C114.454 30.104 114.669 29.8853 114.814 29.6001C114.962 29.3149 115.067 28.9731 115.13 28.5747ZM124.358 22.7563V31.2876H123.222L118.927 24.7075V31.2876H117.796V22.7563H118.927L123.239 29.354V22.7563H124.358ZM129.509 27.9419H127.23V27.022H129.509C129.95 27.022 130.308 26.9517 130.581 26.811C130.855 26.6704 131.054 26.4751 131.179 26.2251C131.308 25.9751 131.372 25.6899 131.372 25.3696C131.372 25.0767 131.308 24.8013 131.179 24.5435C131.054 24.2856 130.855 24.0786 130.581 23.9224C130.308 23.7622 129.95 23.6821 129.509 23.6821H127.493V31.2876H126.362V22.7563H129.509C130.153 22.7563 130.698 22.8677 131.144 23.0903C131.589 23.313 131.927 23.6216 132.157 24.0161C132.388 24.4067 132.503 24.854 132.503 25.3579C132.503 25.9048 132.388 26.3716 132.157 26.7583C131.927 27.145 131.589 27.4399 131.144 27.6431C130.698 27.8423 130.153 27.9419 129.509 27.9419ZM136.341 28.7974V22.7563H137.466V28.7974C137.466 29.3599 137.351 29.8345 137.12 30.2212C136.89 30.6079 136.571 30.9028 136.165 31.106C135.763 31.3052 135.3 31.4048 134.776 31.4048C134.253 31.4048 133.788 31.3149 133.382 31.1353C132.976 30.9556 132.657 30.6821 132.427 30.3149C132.196 29.9478 132.081 29.4849 132.081 28.9263H133.212C133.212 29.2856 133.278 29.5806 133.411 29.811C133.544 30.0415 133.728 30.2114 133.962 30.3208C134.2 30.4302 134.472 30.4849 134.776 30.4849C135.073 30.4849 135.339 30.4224 135.573 30.2974C135.812 30.1685 135.999 29.979 136.136 29.729C136.272 29.4751 136.341 29.1646 136.341 28.7974ZM142.022 28.4458V28.397C142.022 27.6873 142.102 27.0461 142.262 26.4731C142.421 25.897 142.625 25.3924 142.872 24.9595C143.119 24.5265 143.38 24.1685 143.653 23.8853C143.927 23.5988 144.179 23.3921 144.41 23.2651L144.601 23.8608C144.409 24.0073 144.213 24.2091 144.015 24.4663C143.819 24.7235 143.639 25.0392 143.473 25.4136C143.31 25.7879 143.178 26.2225 143.077 26.7173C142.976 27.2121 142.926 27.7687 142.926 28.3872V28.4556C142.926 29.0741 142.976 29.6323 143.077 30.1304C143.178 30.6252 143.31 31.0614 143.473 31.439C143.639 31.8166 143.819 32.1372 144.015 32.4009C144.213 32.6678 144.409 32.8794 144.601 33.0356L144.41 33.5825C144.179 33.4556 143.927 33.2489 143.653 32.9624C143.38 32.6792 143.119 32.3211 142.872 31.8882C142.625 31.4585 142.421 30.9556 142.262 30.3794C142.102 29.8032 142.022 29.1587 142.022 28.4458ZM149.913 29.0269H150.851C150.802 29.4761 150.673 29.8781 150.465 30.2329C150.257 30.5877 149.962 30.8693 149.581 31.0776C149.2 31.2827 148.725 31.3853 148.155 31.3853C147.739 31.3853 147.359 31.3071 147.018 31.1509C146.679 30.9946 146.388 30.7733 146.144 30.4868C145.899 30.1971 145.711 29.8504 145.577 29.4468C145.447 29.0399 145.382 28.5874 145.382 28.0894V27.3813C145.382 26.8833 145.447 26.4325 145.577 26.0288C145.711 25.6219 145.901 25.2736 146.148 24.9839C146.399 24.6942 146.7 24.4712 147.052 24.3149C147.403 24.1587 147.799 24.0806 148.238 24.0806C148.775 24.0806 149.23 24.1815 149.601 24.3833C149.972 24.5851 150.26 24.8651 150.465 25.2231C150.673 25.578 150.802 25.9897 150.851 26.4585H149.913C149.868 26.1265 149.783 25.8416 149.659 25.604C149.536 25.3631 149.36 25.1776 149.132 25.0474C148.904 24.9172 148.606 24.8521 148.238 24.8521C147.923 24.8521 147.644 24.9123 147.403 25.0327C147.166 25.1532 146.966 25.3241 146.803 25.5454C146.643 25.7668 146.523 26.0321 146.441 26.3413C146.36 26.6506 146.319 26.994 146.319 27.3716V28.0894C146.319 28.4377 146.355 28.7648 146.427 29.0708C146.502 29.3768 146.614 29.6453 146.764 29.8765C146.913 30.1076 147.104 30.2899 147.335 30.4233C147.566 30.5535 147.84 30.6187 148.155 30.6187C148.556 30.6187 148.875 30.5552 149.112 30.4282C149.35 30.3013 149.529 30.119 149.649 29.8813C149.773 29.6437 149.861 29.3589 149.913 29.0269ZM151.759 28.7046V28.5923C151.759 28.2114 151.814 27.8582 151.925 27.5327C152.036 27.2039 152.195 26.9191 152.403 26.6782C152.612 26.4341 152.864 26.2453 153.16 26.1118C153.456 25.9751 153.788 25.9067 154.156 25.9067C154.527 25.9067 154.861 25.9751 155.157 26.1118C155.457 26.2453 155.711 26.4341 155.919 26.6782C156.131 26.9191 156.292 27.2039 156.402 27.5327C156.513 27.8582 156.568 28.2114 156.568 28.5923V28.7046C156.568 29.0854 156.513 29.4386 156.402 29.7642C156.292 30.0897 156.131 30.3745 155.919 30.6187C155.711 30.8595 155.458 31.0483 155.162 31.1851C154.869 31.3185 154.537 31.3853 154.166 31.3853C153.795 31.3853 153.461 31.3185 153.165 31.1851C152.869 31.0483 152.615 30.8595 152.403 30.6187C152.195 30.3745 152.036 30.0897 151.925 29.7642C151.814 29.4386 151.759 29.0854 151.759 28.7046ZM152.662 28.5923V28.7046C152.662 28.9683 152.693 29.2173 152.755 29.4517C152.817 29.6828 152.91 29.8879 153.033 30.0669C153.16 30.2459 153.318 30.3875 153.507 30.4917C153.696 30.5926 153.915 30.6431 154.166 30.6431C154.413 30.6431 154.63 30.5926 154.815 30.4917C155.004 30.3875 155.161 30.2459 155.284 30.0669C155.408 29.8879 155.501 29.6828 155.563 29.4517C155.628 29.2173 155.66 28.9683 155.66 28.7046V28.5923C155.66 28.3319 155.628 28.0861 155.563 27.855C155.501 27.6206 155.406 27.4139 155.279 27.2349C155.156 27.0526 154.999 26.9093 154.811 26.8052C154.625 26.701 154.407 26.6489 154.156 26.6489C153.909 26.6489 153.691 26.701 153.502 26.8052C153.316 26.9093 153.16 27.0526 153.033 27.2349C152.91 27.4139 152.817 27.6206 152.755 27.855C152.693 28.0861 152.662 28.3319 152.662 28.5923ZM157.462 28.7046V28.5923C157.462 28.2114 157.517 27.8582 157.628 27.5327C157.739 27.2039 157.898 26.9191 158.106 26.6782C158.315 26.4341 158.567 26.2453 158.863 26.1118C159.16 25.9751 159.492 25.9067 159.859 25.9067C160.23 25.9067 160.564 25.9751 160.86 26.1118C161.16 26.2453 161.414 26.4341 161.622 26.6782C161.834 26.9191 161.995 27.2039 162.105 27.5327C162.216 27.8582 162.272 28.2114 162.272 28.5923V28.7046C162.272 29.0854 162.216 29.4386 162.105 29.7642C161.995 30.0897 161.834 30.3745 161.622 30.6187C161.414 30.8595 161.161 31.0483 160.865 31.1851C160.572 31.3185 160.24 31.3853 159.869 31.3853C159.498 31.3853 159.164 31.3185 158.868 31.1851C158.572 31.0483 158.318 30.8595 158.106 30.6187C157.898 30.3745 157.739 30.0897 157.628 29.7642C157.517 29.4386 157.462 29.0854 157.462 28.7046ZM158.365 28.5923V28.7046C158.365 28.9683 158.396 29.2173 158.458 29.4517C158.52 29.6828 158.613 29.8879 158.736 30.0669C158.863 30.2459 159.021 30.3875 159.21 30.4917C159.399 30.5926 159.619 30.6431 159.869 30.6431C160.117 30.6431 160.333 30.5926 160.519 30.4917C160.707 30.3875 160.864 30.2459 160.987 30.0669C161.111 29.8879 161.204 29.6828 161.266 29.4517C161.331 29.2173 161.363 28.9683 161.363 28.7046V28.5923C161.363 28.3319 161.331 28.0861 161.266 27.855C161.204 27.6206 161.109 27.4139 160.982 27.2349C160.859 27.0526 160.703 26.9093 160.514 26.8052C160.328 26.701 160.11 26.6489 159.859 26.6489C159.612 26.6489 159.394 26.701 159.205 26.8052C159.02 26.9093 158.863 27.0526 158.736 27.2349C158.613 27.4139 158.52 27.6206 158.458 27.855C158.396 28.0861 158.365 28.3319 158.365 28.5923ZM164.308 27.02V33.3188H163.399V26.0044H164.23L164.308 27.02ZM167.867 28.6021V28.7046C167.867 29.0887 167.822 29.4451 167.73 29.7739C167.639 30.0994 167.506 30.3826 167.33 30.6235C167.158 30.8644 166.944 31.0516 166.69 31.1851C166.437 31.3185 166.145 31.3853 165.816 31.3853C165.481 31.3853 165.185 31.3299 164.928 31.2192C164.671 31.1086 164.453 30.9474 164.273 30.7358C164.094 30.5243 163.951 30.2703 163.844 29.9741C163.74 29.6779 163.668 29.3442 163.629 28.9731V28.4263C163.668 28.0356 163.741 27.6857 163.849 27.3765C163.956 27.0672 164.098 26.8035 164.273 26.5854C164.453 26.3641 164.669 26.1965 164.923 26.0825C165.177 25.9653 165.47 25.9067 165.802 25.9067C166.134 25.9067 166.428 25.9718 166.686 26.1021C166.943 26.229 167.159 26.4113 167.335 26.6489C167.511 26.8866 167.643 27.1714 167.73 27.5034C167.822 27.8322 167.867 28.1984 167.867 28.6021ZM166.959 28.7046V28.6021C166.959 28.3384 166.931 28.091 166.876 27.8599C166.821 27.6255 166.734 27.4204 166.617 27.2446C166.503 27.0656 166.357 26.9256 166.178 26.8247C165.999 26.7205 165.786 26.6685 165.538 26.6685C165.31 26.6685 165.112 26.7075 164.942 26.7856C164.776 26.8638 164.635 26.9696 164.518 27.103C164.4 27.2332 164.304 27.383 164.23 27.5522C164.158 27.7183 164.104 27.8908 164.068 28.0698V29.3345C164.133 29.5623 164.225 29.7772 164.342 29.979C164.459 30.1776 164.615 30.3387 164.811 30.4624C165.006 30.5828 165.252 30.6431 165.548 30.6431C165.792 30.6431 166.002 30.5926 166.178 30.4917C166.357 30.3875 166.503 30.2459 166.617 30.0669C166.734 29.8879 166.821 29.6828 166.876 29.4517C166.931 29.2173 166.959 28.9683 166.959 28.7046ZM171.212 31.3853C170.844 31.3853 170.51 31.3234 170.211 31.1997C169.915 31.0728 169.659 30.8953 169.444 30.6675C169.233 30.4396 169.07 30.1694 168.956 29.8569C168.842 29.5444 168.785 29.2026 168.785 28.8315V28.6265C168.785 28.1968 168.849 27.8143 168.976 27.479C169.103 27.1405 169.275 26.854 169.493 26.6196C169.711 26.3853 169.959 26.2078 170.235 26.0874C170.512 25.967 170.799 25.9067 171.095 25.9067C171.472 25.9067 171.798 25.9718 172.071 26.1021C172.348 26.2323 172.574 26.4146 172.75 26.6489C172.926 26.88 173.056 27.1535 173.141 27.4692C173.225 27.7817 173.268 28.1235 173.268 28.4946V28.8999H169.322V28.1626H172.364V28.0942C172.351 27.8599 172.302 27.632 172.218 27.4106C172.136 27.1893 172.006 27.007 171.827 26.8638C171.648 26.7205 171.404 26.6489 171.095 26.6489C170.89 26.6489 170.701 26.6929 170.528 26.7808C170.356 26.8654 170.208 26.9924 170.084 27.1616C169.96 27.3309 169.864 27.5376 169.796 27.7817C169.728 28.0259 169.693 28.3075 169.693 28.6265V28.8315C169.693 29.0822 169.728 29.3182 169.796 29.5396C169.868 29.7576 169.97 29.9497 170.104 30.1157C170.24 30.2817 170.405 30.4119 170.597 30.5063C170.792 30.6007 171.013 30.6479 171.261 30.6479C171.58 30.6479 171.85 30.5828 172.071 30.4526C172.293 30.3224 172.486 30.1483 172.652 29.9302L173.199 30.3647C173.085 30.5373 172.94 30.7017 172.765 30.8579C172.589 31.0142 172.372 31.1411 172.115 31.2388C171.861 31.3364 171.56 31.3853 171.212 31.3853ZM175.226 26.8345V31.2876H174.322V26.0044H175.201L175.226 26.8345ZM176.876 25.9751L176.871 26.8149C176.796 26.7987 176.725 26.7889 176.656 26.7856C176.591 26.7791 176.516 26.7759 176.432 26.7759C176.223 26.7759 176.039 26.8084 175.88 26.8735C175.72 26.9386 175.585 27.0298 175.475 27.147C175.364 27.2642 175.276 27.4041 175.211 27.5669C175.149 27.7264 175.108 27.9022 175.089 28.0942L174.835 28.2407C174.835 27.9217 174.866 27.6222 174.928 27.3423C174.993 27.0623 175.092 26.8149 175.226 26.6001C175.359 26.382 175.528 26.2127 175.733 26.0923C175.942 25.9686 176.189 25.9067 176.476 25.9067C176.541 25.9067 176.616 25.9149 176.7 25.9312C176.785 25.9442 176.843 25.9588 176.876 25.9751ZM180.631 30.3843V27.6646C180.631 27.4562 180.589 27.2756 180.504 27.1226C180.423 26.9663 180.299 26.8459 180.133 26.7612C179.967 26.6766 179.762 26.6343 179.518 26.6343C179.29 26.6343 179.09 26.6733 178.917 26.7515C178.748 26.8296 178.614 26.9321 178.517 27.0591C178.422 27.186 178.375 27.3228 178.375 27.4692H177.472C177.472 27.2804 177.521 27.0933 177.618 26.9077C177.716 26.7222 177.856 26.5545 178.038 26.4048C178.224 26.2518 178.445 26.1313 178.702 26.0435C178.963 25.9523 179.252 25.9067 179.571 25.9067C179.955 25.9067 180.294 25.9718 180.587 26.1021C180.883 26.2323 181.114 26.4292 181.28 26.6929C181.45 26.9533 181.534 27.2804 181.534 27.6743V30.1353C181.534 30.311 181.549 30.4982 181.578 30.6968C181.611 30.8953 181.658 31.0662 181.72 31.2095V31.2876H180.777C180.732 31.1834 180.696 31.0451 180.67 30.8726C180.644 30.6968 180.631 30.534 180.631 30.3843ZM180.787 28.0845L180.797 28.7192H179.884C179.627 28.7192 179.397 28.7404 179.195 28.7827C178.994 28.8218 178.824 28.882 178.688 28.9634C178.551 29.0448 178.447 29.1473 178.375 29.271C178.303 29.3914 178.268 29.533 178.268 29.6958C178.268 29.8618 178.305 30.0132 178.38 30.1499C178.455 30.2866 178.567 30.3957 178.717 30.4771C178.87 30.5552 179.057 30.5942 179.278 30.5942C179.555 30.5942 179.799 30.5356 180.011 30.4185C180.222 30.3013 180.39 30.158 180.514 29.9888C180.641 29.8195 180.709 29.6551 180.719 29.4956L181.105 29.9302C181.082 30.0669 181.02 30.2183 180.919 30.3843C180.818 30.5503 180.683 30.7098 180.514 30.8628C180.348 31.0125 180.149 31.1379 179.918 31.2388C179.69 31.3364 179.433 31.3853 179.147 31.3853C178.788 31.3853 178.474 31.3153 178.204 31.1753C177.937 31.0353 177.729 30.8481 177.579 30.6138C177.433 30.3761 177.359 30.1108 177.359 29.8179C177.359 29.5347 177.415 29.2856 177.525 29.0708C177.636 28.8527 177.796 28.672 178.004 28.5288C178.212 28.3823 178.463 28.2716 178.756 28.1968C179.049 28.1219 179.376 28.0845 179.737 28.0845H180.787ZM185.167 26.0044V26.6978H182.311V26.0044H185.167ZM183.277 24.7202H184.181V29.979C184.181 30.158 184.208 30.2931 184.264 30.3843C184.319 30.4754 184.391 30.5356 184.479 30.5649C184.566 30.5942 184.661 30.6089 184.762 30.6089C184.837 30.6089 184.915 30.6024 184.996 30.5894C185.081 30.5731 185.144 30.5601 185.187 30.5503L185.191 31.2876C185.12 31.3104 185.025 31.3315 184.908 31.3511C184.794 31.3739 184.656 31.3853 184.493 31.3853C184.272 31.3853 184.068 31.3413 183.883 31.2534C183.697 31.1655 183.549 31.019 183.439 30.814C183.331 30.6056 183.277 30.3257 183.277 29.9741V24.7202ZM187.208 26.0044V31.2876H186.3V26.0044H187.208ZM186.231 24.603C186.231 24.4565 186.275 24.3328 186.363 24.2319C186.454 24.131 186.588 24.0806 186.764 24.0806C186.936 24.0806 187.068 24.131 187.159 24.2319C187.254 24.3328 187.301 24.4565 187.301 24.603C187.301 24.743 187.254 24.8634 187.159 24.9644C187.068 25.062 186.936 25.1108 186.764 25.1108C186.588 25.1108 186.454 25.062 186.363 24.9644C186.275 24.8634 186.231 24.743 186.231 24.603ZM190.265 30.4722L191.71 26.0044H192.633L190.733 31.2876H190.128L190.265 30.4722ZM189.059 26.0044L190.548 30.4966L190.65 31.2876H190.045L188.131 26.0044H189.059ZM196.539 30.3843V27.6646C196.539 27.4562 196.497 27.2756 196.412 27.1226C196.331 26.9663 196.207 26.8459 196.041 26.7612C195.875 26.6766 195.67 26.6343 195.426 26.6343C195.198 26.6343 194.998 26.6733 194.825 26.7515C194.656 26.8296 194.522 26.9321 194.425 27.0591C194.33 27.186 194.283 27.3228 194.283 27.4692H193.38C193.38 27.2804 193.429 27.0933 193.526 26.9077C193.624 26.7222 193.764 26.5545 193.946 26.4048C194.132 26.2518 194.353 26.1313 194.61 26.0435C194.871 25.9523 195.161 25.9067 195.48 25.9067C195.864 25.9067 196.202 25.9718 196.495 26.1021C196.791 26.2323 197.022 26.4292 197.189 26.6929C197.358 26.9533 197.442 27.2804 197.442 27.6743V30.1353C197.442 30.311 197.457 30.4982 197.486 30.6968C197.519 30.8953 197.566 31.0662 197.628 31.2095V31.2876H196.686C196.64 31.1834 196.604 31.0451 196.578 30.8726C196.552 30.6968 196.539 30.534 196.539 30.3843ZM196.695 28.0845L196.705 28.7192H195.792C195.535 28.7192 195.305 28.7404 195.104 28.7827C194.902 28.8218 194.732 28.882 194.596 28.9634C194.459 29.0448 194.355 29.1473 194.283 29.271C194.212 29.3914 194.176 29.533 194.176 29.6958C194.176 29.8618 194.213 30.0132 194.288 30.1499C194.363 30.2866 194.475 30.3957 194.625 30.4771C194.778 30.5552 194.965 30.5942 195.187 30.5942C195.463 30.5942 195.707 30.5356 195.919 30.4185C196.131 30.3013 196.298 30.158 196.422 29.9888C196.549 29.8195 196.617 29.6551 196.627 29.4956L197.013 29.9302C196.99 30.0669 196.928 30.2183 196.827 30.3843C196.726 30.5503 196.591 30.7098 196.422 30.8628C196.256 31.0125 196.057 31.1379 195.826 31.2388C195.598 31.3364 195.341 31.3853 195.055 31.3853C194.697 31.3853 194.383 31.3153 194.112 31.1753C193.845 31.0353 193.637 30.8481 193.487 30.6138C193.341 30.3761 193.268 30.1108 193.268 29.8179C193.268 29.5347 193.323 29.2856 193.434 29.0708C193.544 28.8527 193.704 28.672 193.912 28.5288C194.12 28.3823 194.371 28.2716 194.664 28.1968C194.957 28.1219 195.284 28.0845 195.646 28.0845H196.695ZM202.008 24.1782L199.044 31.8979H198.268L201.236 24.1782H202.008ZM205.055 31.2876H203.57L203.58 30.521H205.055C205.563 30.521 205.986 30.4152 206.324 30.2036C206.663 29.9888 206.917 29.6893 207.086 29.3052C207.258 28.9178 207.345 28.4653 207.345 27.9478V27.5132C207.345 27.1063 207.296 26.745 207.198 26.4292C207.101 26.1102 206.957 25.8416 206.769 25.6235C206.58 25.4022 206.349 25.2345 206.075 25.1206C205.805 25.0067 205.494 24.9497 205.143 24.9497H203.541V24.1782H205.143C205.608 24.1782 206.033 24.2563 206.417 24.4126C206.801 24.5656 207.132 24.7886 207.408 25.0815C207.688 25.3713 207.903 25.7228 208.053 26.1362C208.203 26.5464 208.277 27.0086 208.277 27.5229V27.9478C208.277 28.4621 208.203 28.9259 208.053 29.3394C207.903 29.7495 207.687 30.0994 207.403 30.3892C207.123 30.6789 206.785 30.9019 206.388 31.0581C205.994 31.2111 205.55 31.2876 205.055 31.2876ZM204.073 24.1782V31.2876H203.131V24.1782H204.073ZM210.538 26.0044V31.2876H209.63V26.0044H210.538ZM209.562 24.603C209.562 24.4565 209.605 24.3328 209.693 24.2319C209.785 24.131 209.918 24.0806 210.094 24.0806C210.266 24.0806 210.398 24.131 210.489 24.2319C210.584 24.3328 210.631 24.4565 210.631 24.603C210.631 24.743 210.584 24.8634 210.489 24.9644C210.398 25.062 210.266 25.1108 210.094 25.1108C209.918 25.1108 209.785 25.062 209.693 24.9644C209.605 24.8634 209.562 24.743 209.562 24.603ZM215.064 29.8862C215.064 29.756 215.035 29.6356 214.977 29.5249C214.921 29.411 214.806 29.3084 214.63 29.2173C214.457 29.1229 214.197 29.0415 213.849 28.9731C213.556 28.9113 213.29 28.8381 213.053 28.7534C212.818 28.6688 212.618 28.5662 212.452 28.4458C212.289 28.3254 212.164 28.1838 212.076 28.021C211.988 27.8582 211.944 27.6678 211.944 27.4497C211.944 27.2414 211.99 27.0444 212.081 26.8589C212.175 26.6733 212.307 26.509 212.477 26.3657C212.649 26.2225 212.856 26.1102 213.097 26.0288C213.338 25.9474 213.606 25.9067 213.902 25.9067C214.326 25.9067 214.687 25.9816 214.986 26.1313C215.286 26.2811 215.515 26.4813 215.675 26.7319C215.834 26.9793 215.914 27.2544 215.914 27.5571H215.011C215.011 27.4106 214.967 27.269 214.879 27.1323C214.794 26.9924 214.669 26.8768 214.503 26.7856C214.34 26.6945 214.14 26.6489 213.902 26.6489C213.652 26.6489 213.448 26.688 213.292 26.7661C213.139 26.841 213.027 26.937 212.955 27.0542C212.887 27.1714 212.853 27.2951 212.853 27.4253C212.853 27.5229 212.869 27.6108 212.901 27.689C212.937 27.7638 212.999 27.8338 213.087 27.8989C213.175 27.9608 213.299 28.0194 213.458 28.0747C213.618 28.13 213.821 28.1854 214.068 28.2407C214.501 28.3384 214.858 28.4556 215.138 28.5923C215.418 28.729 215.626 28.8966 215.763 29.0952C215.899 29.2938 215.968 29.5347 215.968 29.8179C215.968 30.049 215.919 30.2606 215.821 30.4526C215.727 30.6447 215.589 30.8107 215.406 30.9507C215.227 31.0874 215.012 31.1948 214.762 31.2729C214.514 31.3478 214.236 31.3853 213.927 31.3853C213.461 31.3853 213.067 31.3022 212.745 31.1362C212.423 30.9702 212.179 30.7554 212.013 30.4917C211.847 30.228 211.764 29.9497 211.764 29.6567H212.672C212.685 29.9041 212.757 30.1011 212.887 30.2476C213.017 30.3908 213.176 30.4933 213.365 30.5552C213.554 30.6138 213.741 30.6431 213.927 30.6431C214.174 30.6431 214.381 30.6105 214.547 30.5454C214.716 30.4803 214.845 30.3908 214.933 30.2769C215.021 30.1629 215.064 30.0327 215.064 29.8862ZM219.366 26.0044V26.6978H216.51V26.0044H219.366ZM217.477 24.7202H218.38V29.979C218.38 30.158 218.408 30.2931 218.463 30.3843C218.518 30.4754 218.59 30.5356 218.678 30.5649C218.766 30.5942 218.86 30.6089 218.961 30.6089C219.036 30.6089 219.114 30.6024 219.195 30.5894C219.28 30.5731 219.343 30.5601 219.386 30.5503L219.391 31.2876C219.319 31.3104 219.225 31.3315 219.107 31.3511C218.994 31.3739 218.855 31.3853 218.692 31.3853C218.471 31.3853 218.268 31.3413 218.082 31.2534C217.897 31.1655 217.748 31.019 217.638 30.814C217.53 30.6056 217.477 30.3257 217.477 29.9741V24.7202ZM221.329 26.8345V31.2876H220.426V26.0044H221.305L221.329 26.8345ZM222.98 25.9751L222.975 26.8149C222.9 26.7987 222.828 26.7889 222.76 26.7856C222.695 26.7791 222.62 26.7759 222.535 26.7759C222.327 26.7759 222.143 26.8084 221.983 26.8735C221.824 26.9386 221.689 27.0298 221.578 27.147C221.467 27.2642 221.38 27.4041 221.314 27.5669C221.253 27.7264 221.212 27.9022 221.192 28.0942L220.939 28.2407C220.939 27.9217 220.969 27.6222 221.031 27.3423C221.096 27.0623 221.196 26.8149 221.329 26.6001C221.463 26.382 221.632 26.2127 221.837 26.0923C222.045 25.9686 222.293 25.9067 222.579 25.9067C222.644 25.9067 222.719 25.9149 222.804 25.9312C222.888 25.9442 222.947 25.9588 222.98 25.9751ZM224.796 26.0044V31.2876H223.888V26.0044H224.796ZM223.819 24.603C223.819 24.4565 223.863 24.3328 223.951 24.2319C224.042 24.131 224.176 24.0806 224.352 24.0806C224.524 24.0806 224.656 24.131 224.747 24.2319C224.842 24.3328 224.889 24.4565 224.889 24.603C224.889 24.743 224.842 24.8634 224.747 24.9644C224.656 25.062 224.524 25.1108 224.352 25.1108C224.176 25.1108 224.042 25.062 223.951 24.9644C223.863 24.8634 223.819 24.743 223.819 24.603ZM226.241 23.7876H227.149V30.2622L227.071 31.2876H226.241V23.7876ZM230.719 28.6021V28.7046C230.719 29.0887 230.673 29.4451 230.582 29.7739C230.491 30.0994 230.357 30.3826 230.182 30.6235C230.006 30.8644 229.791 31.0516 229.537 31.1851C229.283 31.3185 228.992 31.3853 228.663 31.3853C228.328 31.3853 228.033 31.3283 227.779 31.2144C227.529 31.0972 227.317 30.9295 227.145 30.7114C226.972 30.4933 226.834 30.2297 226.73 29.9204C226.629 29.6112 226.559 29.2629 226.52 28.8755V28.4263C226.559 28.0356 226.629 27.6857 226.73 27.3765C226.834 27.0672 226.972 26.8035 227.145 26.5854C227.317 26.3641 227.529 26.1965 227.779 26.0825C228.03 25.9653 228.321 25.9067 228.653 25.9067C228.985 25.9067 229.28 25.9718 229.537 26.1021C229.794 26.229 230.009 26.4113 230.182 26.6489C230.357 26.8866 230.491 27.1714 230.582 27.5034C230.673 27.8322 230.719 28.1984 230.719 28.6021ZM229.811 28.7046V28.6021C229.811 28.3384 229.786 28.091 229.737 27.8599C229.689 27.6255 229.61 27.4204 229.503 27.2446C229.396 27.0656 229.254 26.9256 229.078 26.8247C228.902 26.7205 228.686 26.6685 228.429 26.6685C228.201 26.6685 228.002 26.7075 227.833 26.7856C227.667 26.8638 227.525 26.9696 227.408 27.103C227.291 27.2332 227.195 27.383 227.12 27.5522C227.049 27.7183 226.995 27.8908 226.959 28.0698V29.2466C227.011 29.4744 227.096 29.6942 227.213 29.9058C227.333 30.1141 227.493 30.285 227.691 30.4185C227.893 30.5519 228.142 30.6187 228.439 30.6187C228.683 30.6187 228.891 30.5698 229.064 30.4722C229.239 30.3713 229.381 30.2329 229.488 30.0571C229.599 29.8813 229.68 29.6779 229.732 29.4468C229.785 29.2157 229.811 28.9683 229.811 28.7046ZM235.094 30.0669V26.0044H236.002V31.2876H235.138L235.094 30.0669ZM235.265 28.9536L235.641 28.9438C235.641 29.2954 235.603 29.6209 235.528 29.9204C235.457 30.2166 235.34 30.4738 235.177 30.6919C235.014 30.91 234.801 31.0809 234.537 31.2046C234.273 31.325 233.953 31.3853 233.575 31.3853C233.318 31.3853 233.082 31.3478 232.867 31.2729C232.656 31.1981 232.473 31.0825 232.32 30.9263C232.167 30.77 232.049 30.5666 231.964 30.3159C231.883 30.0653 231.842 29.7642 231.842 29.4126V26.0044H232.745V29.4224C232.745 29.66 232.771 29.8569 232.823 30.0132C232.879 30.1662 232.952 30.2882 233.043 30.3794C233.137 30.4673 233.242 30.5291 233.355 30.5649C233.473 30.6007 233.593 30.6187 233.717 30.6187C234.101 30.6187 234.405 30.5454 234.63 30.3989C234.855 30.2492 235.016 30.049 235.113 29.7983C235.214 29.5444 235.265 29.2629 235.265 28.9536ZM238.36 26.0044V31.2876H237.452V26.0044H238.36ZM237.384 24.603C237.384 24.4565 237.428 24.3328 237.516 24.2319C237.607 24.131 237.74 24.0806 237.916 24.0806C238.089 24.0806 238.22 24.131 238.312 24.2319C238.406 24.3328 238.453 24.4565 238.453 24.603C238.453 24.743 238.406 24.8634 238.312 24.9644C238.22 25.062 238.089 25.1108 237.916 25.1108C237.74 25.1108 237.607 25.062 237.516 24.9644C237.428 24.8634 237.384 24.743 237.384 24.603ZM243.141 30.2622V23.7876H244.049V31.2876H243.219L243.141 30.2622ZM239.586 28.7046V28.6021C239.586 28.1984 239.635 27.8322 239.732 27.5034C239.833 27.1714 239.975 26.8866 240.157 26.6489C240.343 26.4113 240.563 26.229 240.816 26.1021C241.074 25.9718 241.36 25.9067 241.676 25.9067C242.008 25.9067 242.298 25.9653 242.545 26.0825C242.796 26.1965 243.007 26.3641 243.18 26.5854C243.355 26.8035 243.494 27.0672 243.595 27.3765C243.696 27.6857 243.766 28.0356 243.805 28.4263V28.8755C243.769 29.2629 243.699 29.6112 243.595 29.9204C243.494 30.2297 243.355 30.4933 243.18 30.7114C243.007 30.9295 242.796 31.0972 242.545 31.2144C242.294 31.3283 242.001 31.3853 241.666 31.3853C241.357 31.3853 241.074 31.3185 240.816 31.1851C240.563 31.0516 240.343 30.8644 240.157 30.6235C239.975 30.3826 239.833 30.0994 239.732 29.7739C239.635 29.4451 239.586 29.0887 239.586 28.7046ZM240.494 28.6021V28.7046C240.494 28.9683 240.52 29.2157 240.572 29.4468C240.628 29.6779 240.712 29.8813 240.826 30.0571C240.94 30.2329 241.085 30.3713 241.261 30.4722C241.437 30.5698 241.647 30.6187 241.891 30.6187C242.19 30.6187 242.436 30.5552 242.628 30.4282C242.823 30.3013 242.98 30.1336 243.097 29.9253C243.214 29.717 243.305 29.4907 243.37 29.2466V28.0698C243.331 27.8908 243.274 27.7183 243.199 27.5522C243.128 27.383 243.033 27.2332 242.916 27.103C242.802 26.9696 242.661 26.8638 242.491 26.7856C242.325 26.7075 242.128 26.6685 241.9 26.6685C241.653 26.6685 241.44 26.7205 241.261 26.8247C241.085 26.9256 240.94 27.0656 240.826 27.2446C240.712 27.4204 240.628 27.6255 240.572 27.8599C240.52 28.091 240.494 28.3384 240.494 28.6021ZM245.216 28.7046V28.5923C245.216 28.2114 245.271 27.8582 245.382 27.5327C245.493 27.2039 245.652 26.9191 245.86 26.6782C246.069 26.4341 246.321 26.2453 246.617 26.1118C246.913 25.9751 247.245 25.9067 247.613 25.9067C247.984 25.9067 248.318 25.9751 248.614 26.1118C248.914 26.2453 249.168 26.4341 249.376 26.6782C249.588 26.9191 249.749 27.2039 249.859 27.5327C249.97 27.8582 250.025 28.2114 250.025 28.5923V28.7046C250.025 29.0854 249.97 29.4386 249.859 29.7642C249.749 30.0897 249.588 30.3745 249.376 30.6187C249.168 30.8595 248.915 31.0483 248.619 31.1851C248.326 31.3185 247.994 31.3853 247.623 31.3853C247.252 31.3853 246.918 31.3185 246.622 31.1851C246.326 31.0483 246.072 30.8595 245.86 30.6187C245.652 30.3745 245.493 30.0897 245.382 29.7642C245.271 29.4386 245.216 29.0854 245.216 28.7046ZM246.119 28.5923V28.7046C246.119 28.9683 246.15 29.2173 246.212 29.4517C246.274 29.6828 246.367 29.8879 246.49 30.0669C246.617 30.2459 246.775 30.3875 246.964 30.4917C247.153 30.5926 247.372 30.6431 247.623 30.6431C247.87 30.6431 248.087 30.5926 248.272 30.4917C248.461 30.3875 248.618 30.2459 248.741 30.0669C248.865 29.8879 248.958 29.6828 249.02 29.4517C249.085 29.2173 249.117 28.9683 249.117 28.7046V28.5923C249.117 28.3319 249.085 28.0861 249.02 27.855C248.958 27.6206 248.863 27.4139 248.736 27.2349C248.613 27.0526 248.456 26.9093 248.268 26.8052C248.082 26.701 247.864 26.6489 247.613 26.6489C247.366 26.6489 247.148 26.701 246.959 26.8052C246.773 26.9093 246.617 27.0526 246.49 27.2349C246.367 27.4139 246.274 27.6206 246.212 27.855C246.15 28.0861 246.119 28.3319 246.119 28.5923ZM252.062 26.8345V31.2876H251.158V26.0044H252.037L252.062 26.8345ZM253.712 25.9751L253.707 26.8149C253.632 26.7987 253.561 26.7889 253.492 26.7856C253.427 26.7791 253.352 26.7759 253.268 26.7759C253.059 26.7759 252.875 26.8084 252.716 26.8735C252.556 26.9386 252.421 27.0298 252.311 27.147C252.2 27.2642 252.112 27.4041 252.047 27.5669C251.985 27.7264 251.944 27.9022 251.925 28.0942L251.671 28.2407C251.671 27.9217 251.702 27.6222 251.764 27.3423C251.829 27.0623 251.928 26.8149 252.062 26.6001C252.195 26.382 252.364 26.2127 252.569 26.0923C252.778 25.9686 253.025 25.9067 253.312 25.9067C253.377 25.9067 253.452 25.9149 253.536 25.9312C253.621 25.9442 253.679 25.9588 253.712 25.9751ZM257.467 30.3843V27.6646C257.467 27.4562 257.425 27.2756 257.34 27.1226C257.258 26.9663 257.135 26.8459 256.969 26.7612C256.803 26.6766 256.598 26.6343 256.354 26.6343C256.126 26.6343 255.925 26.6733 255.753 26.7515C255.584 26.8296 255.45 26.9321 255.353 27.0591C255.258 27.186 255.211 27.3228 255.211 27.4692H254.308C254.308 27.2804 254.356 27.0933 254.454 26.9077C254.552 26.7222 254.692 26.5545 254.874 26.4048C255.06 26.2518 255.281 26.1313 255.538 26.0435C255.799 25.9523 256.088 25.9067 256.407 25.9067C256.791 25.9067 257.13 25.9718 257.423 26.1021C257.719 26.2323 257.95 26.4292 258.116 26.6929C258.286 26.9533 258.37 27.2804 258.37 27.6743V30.1353C258.37 30.311 258.385 30.4982 258.414 30.6968C258.447 30.8953 258.494 31.0662 258.556 31.2095V31.2876H257.613C257.568 31.1834 257.532 31.0451 257.506 30.8726C257.48 30.6968 257.467 30.534 257.467 30.3843ZM257.623 28.0845L257.633 28.7192H256.72C256.463 28.7192 256.233 28.7404 256.031 28.7827C255.829 28.8218 255.66 28.882 255.523 28.9634C255.387 29.0448 255.283 29.1473 255.211 29.271C255.139 29.3914 255.104 29.533 255.104 29.6958C255.104 29.8618 255.141 30.0132 255.216 30.1499C255.291 30.2866 255.403 30.3957 255.553 30.4771C255.706 30.5552 255.893 30.5942 256.114 30.5942C256.391 30.5942 256.635 30.5356 256.847 30.4185C257.058 30.3013 257.226 30.158 257.35 29.9888C257.477 29.8195 257.545 29.6551 257.555 29.4956L257.94 29.9302C257.918 30.0669 257.856 30.2183 257.755 30.3843C257.654 30.5503 257.519 30.7098 257.35 30.8628C257.184 31.0125 256.985 31.1379 256.754 31.2388C256.526 31.3364 256.269 31.3853 255.982 31.3853C255.624 31.3853 255.31 31.3153 255.04 31.1753C254.773 31.0353 254.565 30.8481 254.415 30.6138C254.269 30.3761 254.195 30.1108 254.195 29.8179C254.195 29.5347 254.251 29.2856 254.361 29.0708C254.472 28.8527 254.632 28.672 254.84 28.5288C255.048 28.3823 255.299 28.2716 255.592 28.1968C255.885 28.1219 256.212 28.0845 256.573 28.0845H257.623ZM261.871 28.397V28.4458C261.871 29.1587 261.791 29.8032 261.632 30.3794C261.472 30.9556 261.269 31.4585 261.022 31.8882C260.774 32.3211 260.514 32.6792 260.24 32.9624C259.967 33.2489 259.715 33.4556 259.483 33.5825L259.293 33.0356C259.485 32.8892 259.679 32.6841 259.874 32.4204C260.069 32.16 260.25 31.8377 260.416 31.4536C260.582 31.0728 260.716 30.6333 260.816 30.1353C260.917 29.634 260.968 29.0741 260.968 28.4556V28.3872C260.968 27.7687 260.914 27.2104 260.807 26.7124C260.699 26.2111 260.559 25.77 260.387 25.3892C260.217 25.0083 260.035 24.6877 259.84 24.4272C259.648 24.1636 259.466 23.9601 259.293 23.8169L259.483 23.2651C259.715 23.3921 259.967 23.5988 260.24 23.8853C260.514 24.1685 260.774 24.5265 261.022 24.9595C261.269 25.3924 261.472 25.897 261.632 26.4731C261.791 27.0461 261.871 27.6873 261.871 28.397Z" fill="white"/>
</svg>
