<svg width="352" height="31" viewBox="0 0 352 31" fill="none" xmlns="http://www.w3.org/2000/svg">
<mask id="path-1-inside-1_581_1116" fill="white">
<path d="M1.52731 0H2.47155L0 12.8647V7.94978L1.52731 0Z"/>
</mask>
<path d="M1.52731 0H2.47155L0 12.8647V7.94978L1.52731 0Z" fill="#8AD429"/>
<path d="M2.47155 0L3.45359 0.188669L3.68196 -1H2.47155V0ZM1.52731 0V-1H0.70114L0.545267 -0.188669L1.52731 0ZM0 7.94978L-0.982041 7.76111L-1 7.85459V7.94978H0ZM0 12.8647H-1L0.982041 13.0533L0 12.8647ZM2.47155 0V-1H1.52731V0V1H2.47155V0ZM1.52731 0L0.545267 -0.188669L-0.982041 7.76111L0 7.94978L0.982041 8.13845L2.50935 0.188669L1.52731 0ZM0 12.8647L0.982041 13.0533L3.45359 0.188669L2.47155 0L1.48951 -0.188669L-0.982041 12.676L0 12.8647ZM0 7.94978H-1V12.8647H0H1V7.94978H0Z" fill="#00BCFF" mask="url(#path-1-inside-1_581_1116)"/>
<mask id="path-3-inside-2_581_1116" fill="white">
<path d="M5.89474 0L0.128418 30.0142H1.07266L6.83899 0H5.89474Z"/>
</mask>
<path d="M5.89474 0L0.128418 30.0142H1.07266L6.83899 0H5.89474Z" fill="#8AD429"/>
<path d="M5.89474 0V-1H5.06857L4.9127 -0.188669L5.89474 0ZM0.128418 30.0142L-0.853623 29.8256L-1.08199 31.0142H0.128418V30.0142ZM1.07266 30.0142V31.0142H1.89883L2.05471 30.2029L1.07266 30.0142ZM6.83899 0L7.82103 0.188669L8.04939 -1H6.83899V0ZM5.89474 0L4.9127 -0.188669L-0.853623 29.8256L0.128418 30.0142L1.11046 30.2029L6.87678 0.188669L5.89474 0ZM0.128418 30.0142V31.0142H1.07266V30.0142V29.0142H0.128418V30.0142ZM1.07266 30.0142L2.05471 30.2029L7.82103 0.188669L6.83899 0L5.85695 -0.188669L0.0906238 29.8256L1.07266 30.0142ZM6.83899 0V-1H5.89474V0V1H6.83899V0Z" fill="#00BCFF" mask="url(#path-3-inside-2_581_1116)"/>
<mask id="path-5-inside-3_581_1116" fill="white">
<path d="M10.2622 0L4.49585 30.0142H5.4401L11.2064 0H10.2622Z"/>
</mask>
<path d="M10.2622 0L4.49585 30.0142H5.4401L11.2064 0H10.2622Z" fill="#8AD429"/>
<path d="M10.2622 0V-1H9.436L9.28013 -0.188669L10.2622 0ZM4.49585 30.0142L3.51381 29.8256L3.28544 31.0142H4.49585V30.0142ZM5.4401 30.0142V31.0142H6.26626L6.42214 30.2029L5.4401 30.0142ZM11.2064 0L12.1885 0.188669L12.4168 -1H11.2064V0ZM10.2622 0L9.28013 -0.188669L3.51381 29.8256L4.49585 30.0142L5.47789 30.2029L11.2442 0.188669L10.2622 0ZM4.49585 30.0142V31.0142H5.4401V30.0142V29.0142H4.49585V30.0142ZM5.4401 30.0142L6.42214 30.2029L12.1885 0.188669L11.2064 0L10.2244 -0.188669L4.45806 29.8256L5.4401 30.0142ZM11.2064 0V-1H10.2622V0V1H11.2064V0Z" fill="#00BCFF" mask="url(#path-5-inside-3_581_1116)"/>
<mask id="path-7-inside-4_581_1116" fill="white">
<path d="M14.6296 0L8.86328 30.0142H9.80753L15.5738 0H14.6296Z"/>
</mask>
<path d="M14.6296 0L8.86328 30.0142H9.80753L15.5738 0H14.6296Z" fill="#8AD429"/>
<path d="M14.6296 0V-1H13.8034L13.6476 -0.188669L14.6296 0ZM8.86328 30.0142L7.88124 29.8256L7.65287 31.0142H8.86328V30.0142ZM9.80753 30.0142V31.0142H10.6337L10.7896 30.2029L9.80753 30.0142ZM15.5738 0L16.5559 0.188669L16.7843 -1H15.5738V0ZM14.6296 0L13.6476 -0.188669L7.88124 29.8256L8.86328 30.0142L9.84532 30.2029L15.6116 0.188669L14.6296 0ZM8.86328 30.0142V31.0142H9.80753V30.0142V29.0142H8.86328V30.0142ZM9.80753 30.0142L10.7896 30.2029L16.5559 0.188669L15.5738 0L14.5918 -0.188669L8.82549 29.8256L9.80753 30.0142ZM15.5738 0V-1H14.6296V0V1H15.5738V0Z" fill="#00BCFF" mask="url(#path-7-inside-4_581_1116)"/>
<mask id="path-9-inside-5_581_1116" fill="white">
<path d="M18.997 0L13.2307 30.0142H14.175L19.9413 0H18.997Z"/>
</mask>
<path d="M18.997 0L13.2307 30.0142H14.175L19.9413 0H18.997Z" fill="#8AD429"/>
<path d="M18.997 0V-1H18.1709L18.015 -0.188669L18.997 0ZM13.2307 30.0142L12.2487 29.8256L12.0203 31.0142H13.2307V30.0142ZM14.175 30.0142V31.0142H15.0011L15.157 30.2029L14.175 30.0142ZM19.9413 0L20.9233 0.188669L21.1517 -1H19.9413V0ZM18.997 0L18.015 -0.188669L12.2487 29.8256L13.2307 30.0142L14.2128 30.2029L19.9791 0.188669L18.997 0ZM13.2307 30.0142V31.0142H14.175V30.0142V29.0142H13.2307V30.0142ZM14.175 30.0142L15.157 30.2029L20.9233 0.188669L19.9413 0L18.9592 -0.188669L13.1929 29.8256L14.175 30.0142ZM19.9413 0V-1H18.997V0V1H19.9413V0Z" fill="#00BCFF" mask="url(#path-9-inside-5_581_1116)"/>
<mask id="path-11-inside-6_581_1116" fill="white">
<path d="M23.3645 0L17.5981 30.0142H18.5424L24.3087 0H23.3645Z"/>
</mask>
<path d="M23.3645 0L17.5981 30.0142H18.5424L24.3087 0H23.3645Z" fill="#8AD429"/>
<path d="M23.3645 0V-1H22.5383L22.3824 -0.188669L23.3645 0ZM17.5981 30.0142L16.6161 29.8256L16.3877 31.0142H17.5981V30.0142ZM18.5424 30.0142V31.0142H19.3686L19.5244 30.2029L18.5424 30.0142ZM24.3087 0L25.2908 0.188669L25.5191 -1H24.3087V0ZM23.3645 0L22.3824 -0.188669L16.6161 29.8256L17.5981 30.0142L18.5802 30.2029L24.3465 0.188669L23.3645 0ZM17.5981 30.0142V31.0142H18.5424V30.0142V29.0142H17.5981V30.0142ZM18.5424 30.0142L19.5244 30.2029L25.2908 0.188669L24.3087 0L23.3267 -0.188669L17.5604 29.8256L18.5424 30.0142ZM24.3087 0V-1H23.3645V0V1H24.3087V0Z" fill="#00BCFF" mask="url(#path-11-inside-6_581_1116)"/>
<mask id="path-13-inside-7_581_1116" fill="white">
<path d="M27.7319 0L21.9656 30.0142H22.9098L28.6761 0H27.7319Z"/>
</mask>
<path d="M27.7319 0L21.9656 30.0142H22.9098L28.6761 0H27.7319Z" fill="#8AD429"/>
<path d="M27.7319 0V-1H26.9057L26.7499 -0.188669L27.7319 0ZM21.9656 30.0142L20.9835 29.8256L20.7552 31.0142H21.9656V30.0142ZM22.9098 30.0142V31.0142H23.736L23.8919 30.2029L22.9098 30.0142ZM28.6761 0L29.6582 0.188669L29.8866 -1H28.6761V0ZM27.7319 0L26.7499 -0.188669L20.9835 29.8256L21.9656 30.0142L22.9476 30.2029L28.7139 0.188669L27.7319 0ZM21.9656 30.0142V31.0142H22.9098V30.0142V29.0142H21.9656V30.0142ZM22.9098 30.0142L23.8919 30.2029L29.6582 0.188669L28.6761 0L27.6941 -0.188669L21.9278 29.8256L22.9098 30.0142ZM28.6761 0V-1H27.7319V0V1H28.6761V0Z" fill="#00BCFF" mask="url(#path-13-inside-7_581_1116)"/>
<mask id="path-15-inside-8_581_1116" fill="white">
<path d="M32.0993 0L26.333 30.0142H27.2773L33.0436 0H32.0993Z"/>
</mask>
<path d="M32.0993 0L26.333 30.0142H27.2773L33.0436 0H32.0993Z" fill="#8AD429"/>
<path d="M32.0993 0V-1H31.2732L31.1173 -0.188669L32.0993 0ZM26.333 30.0142L25.351 29.8256L25.1226 31.0142H26.333V30.0142ZM27.2773 30.0142V31.0142H28.1034L28.2593 30.2029L27.2773 30.0142ZM33.0436 0L34.0256 0.188669L34.254 -1H33.0436V0ZM32.0993 0L31.1173 -0.188669L25.351 29.8256L26.333 30.0142L27.315 30.2029L33.0814 0.188669L32.0993 0ZM26.333 30.0142V31.0142H27.2773V30.0142V29.0142H26.333V30.0142ZM27.2773 30.0142L28.2593 30.2029L34.0256 0.188669L33.0436 0L32.0615 -0.188669L26.2952 29.8256L27.2773 30.0142ZM33.0436 0V-1H32.0993V0V1H33.0436V0Z" fill="#00BCFF" mask="url(#path-15-inside-8_581_1116)"/>
<mask id="path-17-inside-9_581_1116" fill="white">
<path d="M36.4668 0L30.7004 30.0142H31.6447L37.411 0H36.4668Z"/>
</mask>
<path d="M36.4668 0L30.7004 30.0142H31.6447L37.411 0H36.4668Z" fill="#8AD429"/>
<path d="M36.4668 0V-1H35.6406L35.4847 -0.188669L36.4668 0ZM30.7004 30.0142L29.7184 29.8256L29.49 31.0142H30.7004V30.0142ZM31.6447 30.0142V31.0142H32.4709L32.6267 30.2029L31.6447 30.0142ZM37.411 0L38.393 0.188669L38.6214 -1H37.411V0ZM36.4668 0L35.4847 -0.188669L29.7184 29.8256L30.7004 30.0142L31.6825 30.2029L37.4488 0.188669L36.4668 0ZM30.7004 30.0142V31.0142H31.6447V30.0142V29.0142H30.7004V30.0142ZM31.6447 30.0142L32.6267 30.2029L38.393 0.188669L37.411 0L36.429 -0.188669L30.6626 29.8256L31.6447 30.0142ZM37.411 0V-1H36.4668V0V1H37.411V0Z" fill="#00BCFF" mask="url(#path-17-inside-9_581_1116)"/>
<mask id="path-19-inside-10_581_1116" fill="white">
<path d="M40.8342 0L35.0679 30.0142H36.0121L41.7784 0H40.8342Z"/>
</mask>
<path d="M40.8342 0L35.0679 30.0142H36.0121L41.7784 0H40.8342Z" fill="#8AD429"/>
<path d="M40.8342 0V-1H40.008L39.8522 -0.188669L40.8342 0ZM35.0679 30.0142L34.0858 29.8256L33.8575 31.0142H35.0679V30.0142ZM36.0121 30.0142V31.0142H36.8383L36.9942 30.2029L36.0121 30.0142ZM41.7784 0L42.7605 0.188669L42.9888 -1H41.7784V0ZM40.8342 0L39.8522 -0.188669L34.0858 29.8256L35.0679 30.0142L36.0499 30.2029L41.8162 0.188669L40.8342 0ZM35.0679 30.0142V31.0142H36.0121V30.0142V29.0142H35.0679V30.0142ZM36.0121 30.0142L36.9942 30.2029L42.7605 0.188669L41.7784 0L40.7964 -0.188669L35.0301 29.8256L36.0121 30.0142ZM41.7784 0V-1H40.8342V0V1H41.7784V0Z" fill="#00BCFF" mask="url(#path-19-inside-10_581_1116)"/>
<mask id="path-21-inside-11_581_1116" fill="white">
<path d="M45.2016 0L39.4353 30.0142H40.3795L46.1459 0H45.2016Z"/>
</mask>
<path d="M45.2016 0L39.4353 30.0142H40.3795L46.1459 0H45.2016Z" fill="#8AD429"/>
<path d="M45.2016 0V-1H44.3755L44.2196 -0.188669L45.2016 0ZM39.4353 30.0142L38.4533 29.8256L38.2249 31.0142H39.4353V30.0142ZM40.3795 30.0142V31.0142H41.2057L41.3616 30.2029L40.3795 30.0142ZM46.1459 0L47.1279 0.188669L47.3563 -1H46.1459V0ZM45.2016 0L44.2196 -0.188669L38.4533 29.8256L39.4353 30.0142L40.4173 30.2029L46.1837 0.188669L45.2016 0ZM39.4353 30.0142V31.0142H40.3795V30.0142V29.0142H39.4353V30.0142ZM40.3795 30.0142L41.3616 30.2029L47.1279 0.188669L46.1459 0L45.1638 -0.188669L39.3975 29.8256L40.3795 30.0142ZM46.1459 0V-1H45.2016V0V1H46.1459V0Z" fill="#00BCFF" mask="url(#path-21-inside-11_581_1116)"/>
<mask id="path-23-inside-12_581_1116" fill="white">
<path d="M49.5691 0L43.8027 30.0142H44.747L50.5133 0H49.5691Z"/>
</mask>
<path d="M49.5691 0L43.8027 30.0142H44.747L50.5133 0H49.5691Z" fill="#8AD429"/>
<path d="M49.5691 0V-1H48.7429L48.587 -0.188669L49.5691 0ZM43.8027 30.0142L42.8207 29.8256L42.5923 31.0142H43.8027V30.0142ZM44.747 30.0142V31.0142H45.5731L45.729 30.2029L44.747 30.0142ZM50.5133 0L51.4953 0.188669L51.7237 -1H50.5133V0ZM49.5691 0L48.587 -0.188669L42.8207 29.8256L43.8027 30.0142L44.7848 30.2029L50.5511 0.188669L49.5691 0ZM43.8027 30.0142V31.0142H44.747V30.0142V29.0142H43.8027V30.0142ZM44.747 30.0142L45.729 30.2029L51.4953 0.188669L50.5133 0L49.5313 -0.188669L43.7649 29.8256L44.747 30.0142ZM50.5133 0V-1H49.5691V0V1H50.5133V0Z" fill="#00BCFF" mask="url(#path-23-inside-12_581_1116)"/>
<mask id="path-25-inside-13_581_1116" fill="white">
<path d="M53.9365 0L48.1702 30.0142H49.1144L54.8807 0H53.9365Z"/>
</mask>
<path d="M53.9365 0L48.1702 30.0142H49.1144L54.8807 0H53.9365Z" fill="#8AD429"/>
<path d="M53.9365 0V-1H53.1103L52.9544 -0.188669L53.9365 0ZM48.1702 30.0142L47.1881 29.8256L46.9598 31.0142H48.1702V30.0142ZM49.1144 30.0142V31.0142H49.9406L50.0965 30.2029L49.1144 30.0142ZM54.8807 0L55.8628 0.188669L56.0911 -1H54.8807V0ZM53.9365 0L52.9544 -0.188669L47.1881 29.8256L48.1702 30.0142L49.1522 30.2029L54.9185 0.188669L53.9365 0ZM48.1702 30.0142V31.0142H49.1144V30.0142V29.0142H48.1702V30.0142ZM49.1144 30.0142L50.0965 30.2029L55.8628 0.188669L54.8807 0L53.8987 -0.188669L48.1324 29.8256L49.1144 30.0142ZM54.8807 0V-1H53.9365V0V1H54.8807V0Z" fill="#00BCFF" mask="url(#path-25-inside-13_581_1116)"/>
<mask id="path-27-inside-14_581_1116" fill="white">
<path d="M58.3039 0L52.5376 30.0142H53.4818L59.2482 0H58.3039Z"/>
</mask>
<path d="M58.3039 0L52.5376 30.0142H53.4818L59.2482 0H58.3039Z" fill="#8AD429"/>
<path d="M58.3039 0V-1H57.4778L57.3219 -0.188669L58.3039 0ZM52.5376 30.0142L51.5556 29.8256L51.3272 31.0142H52.5376V30.0142ZM53.4818 30.0142V31.0142H54.308L54.4639 30.2029L53.4818 30.0142ZM59.2482 0L60.2302 0.188669L60.4586 -1H59.2482V0ZM58.3039 0L57.3219 -0.188669L51.5556 29.8256L52.5376 30.0142L53.5196 30.2029L59.286 0.188669L58.3039 0ZM52.5376 30.0142V31.0142H53.4818V30.0142V29.0142H52.5376V30.0142ZM53.4818 30.0142L54.4639 30.2029L60.2302 0.188669L59.2482 0L58.2661 -0.188669L52.4998 29.8256L53.4818 30.0142ZM59.2482 0V-1H58.3039V0V1H59.2482V0Z" fill="#00BCFF" mask="url(#path-27-inside-14_581_1116)"/>
<mask id="path-29-inside-15_581_1116" fill="white">
<path d="M62.6714 0L56.905 30.0142H57.8493L63.6156 0H62.6714Z"/>
</mask>
<path d="M62.6714 0L56.905 30.0142H57.8493L63.6156 0H62.6714Z" fill="#8AD429"/>
<path d="M62.6714 0V-1H61.8452L61.6893 -0.188669L62.6714 0ZM56.905 30.0142L55.923 29.8256L55.6946 31.0142H56.905V30.0142ZM57.8493 30.0142V31.0142H58.6754L58.8313 30.2029L57.8493 30.0142ZM63.6156 0L64.5976 0.188669L64.826 -1H63.6156V0ZM62.6714 0L61.6893 -0.188669L55.923 29.8256L56.905 30.0142L57.8871 30.2029L63.6534 0.188669L62.6714 0ZM56.905 30.0142V31.0142H57.8493V30.0142V29.0142H56.905V30.0142ZM57.8493 30.0142L58.8313 30.2029L64.5976 0.188669L63.6156 0L62.6336 -0.188669L56.8672 29.8256L57.8493 30.0142ZM63.6156 0V-1H62.6714V0V1H63.6156V0Z" fill="#00BCFF" mask="url(#path-29-inside-15_581_1116)"/>
<mask id="path-31-inside-16_581_1116" fill="white">
<path d="M67.0388 0L61.2725 30.0142H62.2167L67.983 0H67.0388Z"/>
</mask>
<path d="M67.0388 0L61.2725 30.0142H62.2167L67.983 0H67.0388Z" fill="#8AD429"/>
<path d="M67.0388 0V-1H66.2126L66.0567 -0.188669L67.0388 0ZM61.2725 30.0142L60.2904 29.8256L60.0621 31.0142H61.2725V30.0142ZM62.2167 30.0142V31.0142H63.0429L63.1987 30.2029L62.2167 30.0142ZM67.983 0L68.9651 0.188669L69.1934 -1H67.983V0ZM67.0388 0L66.0567 -0.188669L60.2904 29.8256L61.2725 30.0142L62.2545 30.2029L68.0208 0.188669L67.0388 0ZM61.2725 30.0142V31.0142H62.2167V30.0142V29.0142H61.2725V30.0142ZM62.2167 30.0142L63.1987 30.2029L68.9651 0.188669L67.983 0L67.001 -0.188669L61.2347 29.8256L62.2167 30.0142ZM67.983 0V-1H67.0388V0V1H67.983V0Z" fill="#00BCFF" mask="url(#path-31-inside-16_581_1116)"/>
<mask id="path-33-inside-17_581_1116" fill="white">
<path d="M71.4062 0L65.6399 30.0142H66.5841L72.3505 0H71.4062Z"/>
</mask>
<path d="M71.4062 0L65.6399 30.0142H66.5841L72.3505 0H71.4062Z" fill="#8AD429"/>
<path d="M71.4062 0V-1H70.58L70.4242 -0.188669L71.4062 0ZM65.6399 30.0142L64.6579 29.8256L64.4295 31.0142H65.6399V30.0142ZM66.5841 30.0142V31.0142H67.4103L67.5662 30.2029L66.5841 30.0142ZM72.3505 0L73.3325 0.188669L73.5609 -1H72.3505V0ZM71.4062 0L70.4242 -0.188669L64.6579 29.8256L65.6399 30.0142L66.6219 30.2029L72.3883 0.188669L71.4062 0ZM65.6399 30.0142V31.0142H66.5841V30.0142V29.0142H65.6399V30.0142ZM66.5841 30.0142L67.5662 30.2029L73.3325 0.188669L72.3505 0L71.3684 -0.188669L65.6021 29.8256L66.5841 30.0142ZM72.3505 0V-1H71.4062V0V1H72.3505V0Z" fill="#00BCFF" mask="url(#path-33-inside-17_581_1116)"/>
<mask id="path-35-inside-18_581_1116" fill="white">
<path d="M75.7736 0L70.0073 30.0142H70.9516L76.7179 0H75.7736Z"/>
</mask>
<path d="M75.7736 0L70.0073 30.0142H70.9516L76.7179 0H75.7736Z" fill="#8AD429"/>
<path d="M75.7736 0V-1H74.9475L74.7916 -0.188669L75.7736 0ZM70.0073 30.0142L69.0253 29.8256L68.7969 31.0142H70.0073V30.0142ZM70.9516 30.0142V31.0142H71.7777L71.9336 30.2029L70.9516 30.0142ZM76.7179 0L77.6999 0.188669L77.9283 -1H76.7179V0ZM75.7736 0L74.7916 -0.188669L69.0253 29.8256L70.0073 30.0142L70.9894 30.2029L76.7557 0.188669L75.7736 0ZM70.0073 30.0142V31.0142H70.9516V30.0142V29.0142H70.0073V30.0142ZM70.9516 30.0142L71.9336 30.2029L77.6999 0.188669L76.7179 0L75.7359 -0.188669L69.9695 29.8256L70.9516 30.0142ZM76.7179 0V-1H75.7736V0V1H76.7179V0Z" fill="#00BCFF" mask="url(#path-35-inside-18_581_1116)"/>
<mask id="path-37-inside-19_581_1116" fill="white">
<path d="M80.1411 0L74.3748 30.0142H75.319L81.0853 0H80.1411Z"/>
</mask>
<path d="M80.1411 0L74.3748 30.0142H75.319L81.0853 0H80.1411Z" fill="#8AD429"/>
<path d="M80.1411 0V-1H79.3149L79.159 -0.188669L80.1411 0ZM74.3748 30.0142L73.3927 29.8256L73.1643 31.0142H74.3748V30.0142ZM75.319 30.0142V31.0142H76.1452L76.301 30.2029L75.319 30.0142ZM81.0853 0L82.0674 0.188669L82.2957 -1H81.0853V0ZM80.1411 0L79.159 -0.188669L73.3927 29.8256L74.3748 30.0142L75.3568 30.2029L81.1231 0.188669L80.1411 0ZM74.3748 30.0142V31.0142H75.319V30.0142V29.0142H74.3748V30.0142ZM75.319 30.0142L76.301 30.2029L82.0674 0.188669L81.0853 0L80.1033 -0.188669L74.337 29.8256L75.319 30.0142ZM81.0853 0V-1H80.1411V0V1H81.0853V0Z" fill="#00BCFF" mask="url(#path-37-inside-19_581_1116)"/>
<mask id="path-39-inside-20_581_1116" fill="white">
<path d="M84.5085 0L78.7422 30.0142H79.6864L85.4528 0H84.5085Z"/>
</mask>
<path d="M84.5085 0L78.7422 30.0142H79.6864L85.4528 0H84.5085Z" fill="#8AD429"/>
<path d="M84.5085 0V-1H83.6823L83.5265 -0.188669L84.5085 0ZM78.7422 30.0142L77.7601 29.8256L77.5318 31.0142H78.7422V30.0142ZM79.6864 30.0142V31.0142H80.5126L80.6685 30.2029L79.6864 30.0142ZM85.4528 0L86.4348 0.188669L86.6632 -1H85.4528V0ZM84.5085 0L83.5265 -0.188669L77.7601 29.8256L78.7422 30.0142L79.7242 30.2029L85.4905 0.188669L84.5085 0ZM78.7422 30.0142V31.0142H79.6864V30.0142V29.0142H78.7422V30.0142ZM79.6864 30.0142L80.6685 30.2029L86.4348 0.188669L85.4528 0L84.4707 -0.188669L78.7044 29.8256L79.6864 30.0142ZM85.4528 0V-1H84.5085V0V1H85.4528V0Z" fill="#00BCFF" mask="url(#path-39-inside-20_581_1116)"/>
<mask id="path-41-inside-21_581_1116" fill="white">
<path d="M88.8759 0L83.1096 30.0142H84.0539L89.8202 0H88.8759Z"/>
</mask>
<path d="M88.8759 0L83.1096 30.0142H84.0539L89.8202 0H88.8759Z" fill="#8AD429"/>
<path d="M88.8759 0V-1H88.0498L87.8939 -0.188669L88.8759 0ZM83.1096 30.0142L82.1276 29.8256L81.8992 31.0142H83.1096V30.0142ZM84.0539 30.0142V31.0142H84.88L85.0359 30.2029L84.0539 30.0142ZM89.8202 0L90.8022 0.188669L91.0306 -1H89.8202V0ZM88.8759 0L87.8939 -0.188669L82.1276 29.8256L83.1096 30.0142L84.0917 30.2029L89.858 0.188669L88.8759 0ZM83.1096 30.0142V31.0142H84.0539V30.0142V29.0142H83.1096V30.0142ZM84.0539 30.0142L85.0359 30.2029L90.8022 0.188669L89.8202 0L88.8381 -0.188669L83.0718 29.8256L84.0539 30.0142ZM89.8202 0V-1H88.8759V0V1H89.8202V0Z" fill="#00BCFF" mask="url(#path-41-inside-21_581_1116)"/>
<mask id="path-43-inside-22_581_1116" fill="white">
<path d="M93.2434 0L87.4771 30.0142H88.4213L94.1876 0H93.2434Z"/>
</mask>
<path d="M93.2434 0L87.4771 30.0142H88.4213L94.1876 0H93.2434Z" fill="#8AD429"/>
<path d="M93.2434 0V-1H92.4172L92.2613 -0.188669L93.2434 0ZM87.4771 30.0142L86.495 29.8256L86.2666 31.0142H87.4771V30.0142ZM88.4213 30.0142V31.0142H89.2475L89.4033 30.2029L88.4213 30.0142ZM94.1876 0L95.1697 0.188669L95.398 -1H94.1876V0ZM93.2434 0L92.2613 -0.188669L86.495 29.8256L87.4771 30.0142L88.4591 30.2029L94.2254 0.188669L93.2434 0ZM87.4771 30.0142V31.0142H88.4213V30.0142V29.0142H87.4771V30.0142ZM88.4213 30.0142L89.4033 30.2029L95.1697 0.188669L94.1876 0L93.2056 -0.188669L87.4393 29.8256L88.4213 30.0142ZM94.1876 0V-1H93.2434V0V1H94.1876V0Z" fill="#00BCFF" mask="url(#path-43-inside-22_581_1116)"/>
<mask id="path-45-inside-23_581_1116" fill="white">
<path d="M97.6108 0L91.8445 30.0142H92.7887L98.5551 0H97.6108Z"/>
</mask>
<path d="M97.6108 0L91.8445 30.0142H92.7887L98.5551 0H97.6108Z" fill="#8AD429"/>
<path d="M97.6108 0V-1H96.7846L96.6288 -0.188669L97.6108 0ZM91.8445 30.0142L90.8624 29.8256L90.6341 31.0142H91.8445V30.0142ZM92.7887 30.0142V31.0142H93.6149L93.7708 30.2029L92.7887 30.0142ZM98.5551 0L99.5371 0.188669L99.7655 -1H98.5551V0ZM97.6108 0L96.6288 -0.188669L90.8624 29.8256L91.8445 30.0142L92.8265 30.2029L98.5928 0.188669L97.6108 0ZM91.8445 30.0142V31.0142H92.7887V30.0142V29.0142H91.8445V30.0142ZM92.7887 30.0142L93.7708 30.2029L99.5371 0.188669L98.5551 0L97.573 -0.188669L91.8067 29.8256L92.7887 30.0142ZM98.5551 0V-1H97.6108V0V1H98.5551V0Z" fill="#00BCFF" mask="url(#path-45-inside-23_581_1116)"/>
<mask id="path-47-inside-24_581_1116" fill="white">
<path d="M101.978 0L96.2119 30.0142H97.1562L102.922 0H101.978Z"/>
</mask>
<path d="M101.978 0L96.2119 30.0142H97.1562L102.922 0H101.978Z" fill="#8AD429"/>
<path d="M101.978 0V-1H101.152L100.996 -0.188669L101.978 0ZM96.2119 30.0142L95.2299 29.8256L95.0015 31.0142H96.2119V30.0142ZM97.1562 30.0142V31.0142H97.9823L98.1382 30.2029L97.1562 30.0142ZM102.922 0L103.905 0.188669L104.133 -1H102.922V0ZM101.978 0L100.996 -0.188669L95.2299 29.8256L96.2119 30.0142L97.194 30.2029L102.96 0.188669L101.978 0ZM96.2119 30.0142V31.0142H97.1562V30.0142V29.0142H96.2119V30.0142ZM97.1562 30.0142L98.1382 30.2029L103.905 0.188669L102.922 0L101.94 -0.188669L96.1741 29.8256L97.1562 30.0142ZM102.922 0V-1H101.978V0V1H102.922V0Z" fill="#00BCFF" mask="url(#path-47-inside-24_581_1116)"/>
<mask id="path-49-inside-25_581_1116" fill="white">
<path d="M106.346 0L100.579 30.0142H101.524L107.29 0H106.346Z"/>
</mask>
<path d="M106.346 0L100.579 30.0142H101.524L107.29 0H106.346Z" fill="#8AD429"/>
<path d="M106.346 0V-1H105.519L105.364 -0.188669L106.346 0ZM100.579 30.0142L99.5973 29.8256L99.3689 31.0142H100.579V30.0142ZM101.524 30.0142V31.0142H102.35L102.506 30.2029L101.524 30.0142ZM107.29 0L108.272 0.188669L108.5 -1H107.29V0ZM106.346 0L105.364 -0.188669L99.5973 29.8256L100.579 30.0142L101.561 30.2029L107.328 0.188669L106.346 0ZM100.579 30.0142V31.0142H101.524V30.0142V29.0142H100.579V30.0142ZM101.524 30.0142L102.506 30.2029L108.272 0.188669L107.29 0L106.308 -0.188669L100.542 29.8256L101.524 30.0142ZM107.29 0V-1H106.346V0V1H107.29V0Z" fill="#00BCFF" mask="url(#path-49-inside-25_581_1116)"/>
<mask id="path-51-inside-26_581_1116" fill="white">
<path d="M110.713 0L104.947 30.0142H105.891L111.657 0H110.713Z"/>
</mask>
<path d="M110.713 0L104.947 30.0142H105.891L111.657 0H110.713Z" fill="#8AD429"/>
<path d="M110.713 0V-1H109.887L109.731 -0.188669L110.713 0ZM104.947 30.0142L103.965 29.8256L103.736 31.0142H104.947V30.0142ZM105.891 30.0142V31.0142H106.717L106.873 30.2029L105.891 30.0142ZM111.657 0L112.639 0.188669L112.868 -1H111.657V0ZM110.713 0L109.731 -0.188669L103.965 29.8256L104.947 30.0142L105.929 30.2029L111.695 0.188669L110.713 0ZM104.947 30.0142V31.0142H105.891V30.0142V29.0142H104.947V30.0142ZM105.891 30.0142L106.873 30.2029L112.639 0.188669L111.657 0L110.675 -0.188669L104.909 29.8256L105.891 30.0142ZM111.657 0V-1H110.713V0V1H111.657V0Z" fill="#00BCFF" mask="url(#path-51-inside-26_581_1116)"/>
<mask id="path-53-inside-27_581_1116" fill="white">
<path d="M115.081 0L109.314 30.0142H110.258L116.025 0H115.081Z"/>
</mask>
<path d="M115.081 0L109.314 30.0142H110.258L116.025 0H115.081Z" fill="#8AD429"/>
<path d="M115.081 0V-1H114.254L114.098 -0.188669L115.081 0ZM109.314 30.0142L108.332 29.8256L108.104 31.0142H109.314V30.0142ZM110.258 30.0142V31.0142H111.085L111.24 30.2029L110.258 30.0142ZM116.025 0L117.007 0.188669L117.235 -1H116.025V0ZM115.081 0L114.098 -0.188669L108.332 29.8256L109.314 30.0142L110.296 30.2029L116.063 0.188669L115.081 0ZM109.314 30.0142V31.0142H110.258V30.0142V29.0142H109.314V30.0142ZM110.258 30.0142L111.24 30.2029L117.007 0.188669L116.025 0L115.043 -0.188669L109.276 29.8256L110.258 30.0142ZM116.025 0V-1H115.081V0V1H116.025V0Z" fill="#00BCFF" mask="url(#path-53-inside-27_581_1116)"/>
<mask id="path-55-inside-28_581_1116" fill="white">
<path d="M119.448 0L113.682 30.0142H114.626L120.392 0H119.448Z"/>
</mask>
<path d="M119.448 0L113.682 30.0142H114.626L120.392 0H119.448Z" fill="#8AD429"/>
<path d="M119.448 0V-1H118.622L118.466 -0.188669L119.448 0ZM113.682 30.0142L112.7 29.8256L112.471 31.0142H113.682V30.0142ZM114.626 30.0142V31.0142H115.452L115.608 30.2029L114.626 30.0142ZM120.392 0L121.374 0.188669L121.603 -1H120.392V0ZM119.448 0L118.466 -0.188669L112.7 29.8256L113.682 30.0142L114.664 30.2029L120.43 0.188669L119.448 0ZM113.682 30.0142V31.0142H114.626V30.0142V29.0142H113.682V30.0142ZM114.626 30.0142L115.608 30.2029L121.374 0.188669L120.392 0L119.41 -0.188669L113.644 29.8256L114.626 30.0142ZM120.392 0V-1H119.448V0V1H120.392V0Z" fill="#00BCFF" mask="url(#path-55-inside-28_581_1116)"/>
<mask id="path-57-inside-29_581_1116" fill="white">
<path d="M123.815 0L118.049 30.0142H118.993L124.76 0H123.815Z"/>
</mask>
<path d="M123.815 0L118.049 30.0142H118.993L124.76 0H123.815Z" fill="#8AD429"/>
<path d="M123.815 0V-1H122.989L122.833 -0.188669L123.815 0ZM118.049 30.0142L117.067 29.8256L116.839 31.0142H118.049V30.0142ZM118.993 30.0142V31.0142H119.819L119.975 30.2029L118.993 30.0142ZM124.76 0L125.742 0.188669L125.97 -1H124.76V0ZM123.815 0L122.833 -0.188669L117.067 29.8256L118.049 30.0142L119.031 30.2029L124.797 0.188669L123.815 0ZM118.049 30.0142V31.0142H118.993V30.0142V29.0142H118.049V30.0142ZM118.993 30.0142L119.975 30.2029L125.742 0.188669L124.76 0L123.778 -0.188669L118.011 29.8256L118.993 30.0142ZM124.76 0V-1H123.815V0V1H124.76V0Z" fill="#00BCFF" mask="url(#path-57-inside-29_581_1116)"/>
<mask id="path-59-inside-30_581_1116" fill="white">
<path d="M128.183 0L122.417 30.0142H123.361L129.127 0H128.183Z"/>
</mask>
<path d="M128.183 0L122.417 30.0142H123.361L129.127 0H128.183Z" fill="#8AD429"/>
<path d="M128.183 0V-1H127.357L127.201 -0.188669L128.183 0ZM122.417 30.0142L121.434 29.8256L121.206 31.0142H122.417V30.0142ZM123.361 30.0142V31.0142H124.187L124.343 30.2029L123.361 30.0142ZM129.127 0L130.109 0.188669L130.337 -1H129.127V0ZM128.183 0L127.201 -0.188669L121.434 29.8256L122.417 30.0142L123.399 30.2029L129.165 0.188669L128.183 0ZM122.417 30.0142V31.0142H123.361V30.0142V29.0142H122.417V30.0142ZM123.361 30.0142L124.343 30.2029L130.109 0.188669L129.127 0L128.145 -0.188669L122.379 29.8256L123.361 30.0142ZM129.127 0V-1H128.183V0V1H129.127V0Z" fill="#00BCFF" mask="url(#path-59-inside-30_581_1116)"/>
<mask id="path-61-inside-31_581_1116" fill="white">
<path d="M132.55 0L126.784 30.0142H127.728L133.495 0H132.55Z"/>
</mask>
<path d="M132.55 0L126.784 30.0142H127.728L133.495 0H132.55Z" fill="#8AD429"/>
<path d="M132.55 0V-1H131.724L131.568 -0.188669L132.55 0ZM126.784 30.0142L125.802 29.8256L125.574 31.0142H126.784V30.0142ZM127.728 30.0142V31.0142H128.554L128.71 30.2029L127.728 30.0142ZM133.495 0L134.477 0.188669L134.705 -1H133.495V0ZM132.55 0L131.568 -0.188669L125.802 29.8256L126.784 30.0142L127.766 30.2029L133.532 0.188669L132.55 0ZM126.784 30.0142V31.0142H127.728V30.0142V29.0142H126.784V30.0142ZM127.728 30.0142L128.71 30.2029L134.477 0.188669L133.495 0L132.512 -0.188669L126.746 29.8256L127.728 30.0142ZM133.495 0V-1H132.55V0V1H133.495V0Z" fill="#00BCFF" mask="url(#path-61-inside-31_581_1116)"/>
<mask id="path-63-inside-32_581_1116" fill="white">
<path d="M136.918 0L131.151 30.0142H132.096L137.862 0H136.918Z"/>
</mask>
<path d="M136.918 0L131.151 30.0142H132.096L137.862 0H136.918Z" fill="#8AD429"/>
<path d="M136.918 0V-1H136.092L135.936 -0.188669L136.918 0ZM131.151 30.0142L130.169 29.8256L129.941 31.0142H131.151V30.0142ZM132.096 30.0142V31.0142H132.922L133.078 30.2029L132.096 30.0142ZM137.862 0L138.844 0.188669L139.072 -1H137.862V0ZM136.918 0L135.936 -0.188669L130.169 29.8256L131.151 30.0142L132.133 30.2029L137.9 0.188669L136.918 0ZM131.151 30.0142V31.0142H132.096V30.0142V29.0142H131.151V30.0142ZM132.096 30.0142L133.078 30.2029L138.844 0.188669L137.862 0L136.88 -0.188669L131.114 29.8256L132.096 30.0142ZM137.862 0V-1H136.918V0V1H137.862V0Z" fill="#00BCFF" mask="url(#path-63-inside-32_581_1116)"/>
<mask id="path-65-inside-33_581_1116" fill="white">
<path d="M141.285 0L135.519 30.0142H136.463L142.229 0H141.285Z"/>
</mask>
<path d="M141.285 0L135.519 30.0142H136.463L142.229 0H141.285Z" fill="#8AD429"/>
<path d="M141.285 0V-1H140.459L140.303 -0.188669L141.285 0ZM135.519 30.0142L134.537 29.8256L134.308 31.0142H135.519V30.0142ZM136.463 30.0142V31.0142H137.289L137.445 30.2029L136.463 30.0142ZM142.229 0L143.211 0.188669L143.44 -1H142.229V0ZM141.285 0L140.303 -0.188669L134.537 29.8256L135.519 30.0142L136.501 30.2029L142.267 0.188669L141.285 0ZM135.519 30.0142V31.0142H136.463V30.0142V29.0142H135.519V30.0142ZM136.463 30.0142L137.445 30.2029L143.211 0.188669L142.229 0L141.247 -0.188669L135.481 29.8256L136.463 30.0142ZM142.229 0V-1H141.285V0V1H142.229V0Z" fill="#00BCFF" mask="url(#path-65-inside-33_581_1116)"/>
<mask id="path-67-inside-34_581_1116" fill="white">
<path d="M145.653 0L139.886 30.0142H140.83L146.597 0H145.653Z"/>
</mask>
<path d="M145.653 0L139.886 30.0142H140.83L146.597 0H145.653Z" fill="#8AD429"/>
<path d="M145.653 0V-1H144.826L144.671 -0.188669L145.653 0ZM139.886 30.0142L138.904 29.8256L138.676 31.0142H139.886V30.0142ZM140.83 30.0142V31.0142H141.657L141.813 30.2029L140.83 30.0142ZM146.597 0L147.579 0.188669L147.807 -1H146.597V0ZM145.653 0L144.671 -0.188669L138.904 29.8256L139.886 30.0142L140.868 30.2029L146.635 0.188669L145.653 0ZM139.886 30.0142V31.0142H140.83V30.0142V29.0142H139.886V30.0142ZM140.83 30.0142L141.813 30.2029L147.579 0.188669L146.597 0L145.615 -0.188669L139.848 29.8256L140.83 30.0142ZM146.597 0V-1H145.653V0V1H146.597V0Z" fill="#00BCFF" mask="url(#path-67-inside-34_581_1116)"/>
<mask id="path-69-inside-35_581_1116" fill="white">
<path d="M150.02 0L144.254 30.0142H145.198L150.964 0H150.02Z"/>
</mask>
<path d="M150.02 0L144.254 30.0142H145.198L150.964 0H150.02Z" fill="#8AD429"/>
<path d="M150.02 0V-1H149.194L149.038 -0.188669L150.02 0ZM144.254 30.0142L143.272 29.8256L143.043 31.0142H144.254V30.0142ZM145.198 30.0142V31.0142H146.024L146.18 30.2029L145.198 30.0142ZM150.964 0L151.946 0.188669L152.175 -1H150.964V0ZM150.02 0L149.038 -0.188669L143.272 29.8256L144.254 30.0142L145.236 30.2029L151.002 0.188669L150.02 0ZM144.254 30.0142V31.0142H145.198V30.0142V29.0142H144.254V30.0142ZM145.198 30.0142L146.18 30.2029L151.946 0.188669L150.964 0L149.982 -0.188669L144.216 29.8256L145.198 30.0142ZM150.964 0V-1H150.02V0V1H150.964V0Z" fill="#00BCFF" mask="url(#path-69-inside-35_581_1116)"/>
<mask id="path-71-inside-36_581_1116" fill="white">
<path d="M154.387 0L148.621 30.0142H149.565L155.332 0H154.387Z"/>
</mask>
<path d="M154.387 0L148.621 30.0142H149.565L155.332 0H154.387Z" fill="#8AD429"/>
<path d="M154.387 0V-1H153.561L153.405 -0.188669L154.387 0ZM148.621 30.0142L147.639 29.8256L147.411 31.0142H148.621V30.0142ZM149.565 30.0142V31.0142H150.392L150.547 30.2029L149.565 30.0142ZM155.332 0L156.314 0.188669L156.542 -1H155.332V0ZM154.387 0L153.405 -0.188669L147.639 29.8256L148.621 30.0142L149.603 30.2029L155.369 0.188669L154.387 0ZM148.621 30.0142V31.0142H149.565V30.0142V29.0142H148.621V30.0142ZM149.565 30.0142L150.547 30.2029L156.314 0.188669L155.332 0L154.35 -0.188669L148.583 29.8256L149.565 30.0142ZM155.332 0V-1H154.387V0V1H155.332V0Z" fill="#00BCFF" mask="url(#path-71-inside-36_581_1116)"/>
<mask id="path-73-inside-37_581_1116" fill="white">
<path d="M158.755 0L152.989 30.0142H153.933L159.699 0H158.755Z"/>
</mask>
<path d="M158.755 0L152.989 30.0142H153.933L159.699 0H158.755Z" fill="#8AD429"/>
<path d="M158.755 0V-1H157.929L157.773 -0.188669L158.755 0ZM152.989 30.0142L152.006 29.8256L151.778 31.0142H152.989V30.0142ZM153.933 30.0142V31.0142H154.759L154.915 30.2029L153.933 30.0142ZM159.699 0L160.681 0.188669L160.91 -1H159.699V0ZM158.755 0L157.773 -0.188669L152.006 29.8256L152.989 30.0142L153.971 30.2029L159.737 0.188669L158.755 0ZM152.989 30.0142V31.0142H153.933V30.0142V29.0142H152.989V30.0142ZM153.933 30.0142L154.915 30.2029L160.681 0.188669L159.699 0L158.717 -0.188669L152.951 29.8256L153.933 30.0142ZM159.699 0V-1H158.755V0V1H159.699V0Z" fill="#00BCFF" mask="url(#path-73-inside-37_581_1116)"/>
<mask id="path-75-inside-38_581_1116" fill="white">
<path d="M163.122 0L157.356 30.0142H158.3L164.067 0H163.122Z"/>
</mask>
<path d="M163.122 0L157.356 30.0142H158.3L164.067 0H163.122Z" fill="#8AD429"/>
<path d="M163.122 0V-1H162.296L162.14 -0.188669L163.122 0ZM157.356 30.0142L156.374 29.8256L156.146 31.0142H157.356V30.0142ZM158.3 30.0142V31.0142H159.126L159.282 30.2029L158.3 30.0142ZM164.067 0L165.049 0.188669L165.277 -1H164.067V0ZM163.122 0L162.14 -0.188669L156.374 29.8256L157.356 30.0142L158.338 30.2029L164.104 0.188669L163.122 0ZM157.356 30.0142V31.0142H158.3V30.0142V29.0142H157.356V30.0142ZM158.3 30.0142L159.282 30.2029L165.049 0.188669L164.067 0L163.084 -0.188669L157.318 29.8256L158.3 30.0142ZM164.067 0V-1H163.122V0V1H164.067V0Z" fill="#00BCFF" mask="url(#path-75-inside-38_581_1116)"/>
<mask id="path-77-inside-39_581_1116" fill="white">
<path d="M167.49 0L161.723 30.0142H162.668L168.434 0H167.49Z"/>
</mask>
<path d="M167.49 0L161.723 30.0142H162.668L168.434 0H167.49Z" fill="#8AD429"/>
<path d="M167.49 0V-1H166.664L166.508 -0.188669L167.49 0ZM161.723 30.0142L160.741 29.8256L160.513 31.0142H161.723V30.0142ZM162.668 30.0142V31.0142H163.494L163.65 30.2029L162.668 30.0142ZM168.434 0L169.416 0.188669L169.644 -1H168.434V0ZM167.49 0L166.508 -0.188669L160.741 29.8256L161.723 30.0142L162.705 30.2029L168.472 0.188669L167.49 0ZM161.723 30.0142V31.0142H162.668V30.0142V29.0142H161.723V30.0142ZM162.668 30.0142L163.65 30.2029L169.416 0.188669L168.434 0L167.452 -0.188669L161.686 29.8256L162.668 30.0142ZM168.434 0V-1H167.49V0V1H168.434V0Z" fill="#00BCFF" mask="url(#path-77-inside-39_581_1116)"/>
<mask id="path-79-inside-40_581_1116" fill="white">
<path d="M171.857 0L166.091 30.0142H167.035L172.801 0H171.857Z"/>
</mask>
<path d="M171.857 0L166.091 30.0142H167.035L172.801 0H171.857Z" fill="#8AD429"/>
<path d="M171.857 0V-1H171.031L170.875 -0.188669L171.857 0ZM166.091 30.0142L165.109 29.8256L164.88 31.0142H166.091V30.0142ZM167.035 30.0142V31.0142H167.861L168.017 30.2029L167.035 30.0142ZM172.801 0L173.783 0.188669L174.012 -1H172.801V0ZM171.857 0L170.875 -0.188669L165.109 29.8256L166.091 30.0142L167.073 30.2029L172.839 0.188669L171.857 0ZM166.091 30.0142V31.0142H167.035V30.0142V29.0142H166.091V30.0142ZM167.035 30.0142L168.017 30.2029L173.783 0.188669L172.801 0L171.819 -0.188669L166.053 29.8256L167.035 30.0142ZM172.801 0V-1H171.857V0V1H172.801V0Z" fill="#00BCFF" mask="url(#path-79-inside-40_581_1116)"/>
<mask id="path-81-inside-41_581_1116" fill="white">
<path d="M176.225 0L170.458 30.0142H171.402L177.169 0H176.225Z"/>
</mask>
<path d="M176.225 0L170.458 30.0142H171.402L177.169 0H176.225Z" fill="#8AD429"/>
<path d="M176.225 0V-1H175.398L175.243 -0.188669L176.225 0ZM170.458 30.0142L169.476 29.8256L169.248 31.0142H170.458V30.0142ZM171.402 30.0142V31.0142H172.229L172.385 30.2029L171.402 30.0142ZM177.169 0L178.151 0.188669L178.379 -1H177.169V0ZM176.225 0L175.243 -0.188669L169.476 29.8256L170.458 30.0142L171.44 30.2029L177.207 0.188669L176.225 0ZM170.458 30.0142V31.0142H171.402V30.0142V29.0142H170.458V30.0142ZM171.402 30.0142L172.385 30.2029L178.151 0.188669L177.169 0L176.187 -0.188669L170.42 29.8256L171.402 30.0142ZM177.169 0V-1H176.225V0V1H177.169V0Z" fill="#00BCFF" mask="url(#path-81-inside-41_581_1116)"/>
<mask id="path-83-inside-42_581_1116" fill="white">
<path d="M180.592 0L174.826 30.0142H175.77L181.536 0H180.592Z"/>
</mask>
<path d="M180.592 0L174.826 30.0142H175.77L181.536 0H180.592Z" fill="#8AD429"/>
<path d="M180.592 0V-1H179.766L179.61 -0.188669L180.592 0ZM174.826 30.0142L173.844 29.8256L173.615 31.0142H174.826V30.0142ZM175.77 30.0142V31.0142H176.596L176.752 30.2029L175.77 30.0142ZM181.536 0L182.518 0.188669L182.747 -1H181.536V0ZM180.592 0L179.61 -0.188669L173.844 29.8256L174.826 30.0142L175.808 30.2029L181.574 0.188669L180.592 0ZM174.826 30.0142V31.0142H175.77V30.0142V29.0142H174.826V30.0142ZM175.77 30.0142L176.752 30.2029L182.518 0.188669L181.536 0L180.554 -0.188669L174.788 29.8256L175.77 30.0142ZM181.536 0V-1H180.592V0V1H181.536V0Z" fill="#00BCFF" mask="url(#path-83-inside-42_581_1116)"/>
<mask id="path-85-inside-43_581_1116" fill="white">
<path d="M184.959 0L179.193 30.0142H180.137L185.904 0H184.959Z"/>
</mask>
<path d="M184.959 0L179.193 30.0142H180.137L185.904 0H184.959Z" fill="#8AD429"/>
<path d="M184.959 0V-1H184.133L183.977 -0.188669L184.959 0ZM179.193 30.0142L178.211 29.8256L177.983 31.0142H179.193V30.0142ZM180.137 30.0142V31.0142H180.964L181.119 30.2029L180.137 30.0142ZM185.904 0L186.886 0.188669L187.114 -1H185.904V0ZM184.959 0L183.977 -0.188669L178.211 29.8256L179.193 30.0142L180.175 30.2029L185.941 0.188669L184.959 0ZM179.193 30.0142V31.0142H180.137V30.0142V29.0142H179.193V30.0142ZM180.137 30.0142L181.119 30.2029L186.886 0.188669L185.904 0L184.922 -0.188669L179.155 29.8256L180.137 30.0142ZM185.904 0V-1H184.959V0V1H185.904V0Z" fill="#00BCFF" mask="url(#path-85-inside-43_581_1116)"/>
<mask id="path-87-inside-44_581_1116" fill="white">
<path d="M189.327 0L183.561 30.0142H184.505L190.271 0H189.327Z"/>
</mask>
<path d="M189.327 0L183.561 30.0142H184.505L190.271 0H189.327Z" fill="#8AD429"/>
<path d="M189.327 0V-1H188.501L188.345 -0.188669L189.327 0ZM183.561 30.0142L182.579 29.8256L182.35 31.0142H183.561V30.0142ZM184.505 30.0142V31.0142H185.331L185.487 30.2029L184.505 30.0142ZM190.271 0L191.253 0.188669L191.482 -1H190.271V0ZM189.327 0L188.345 -0.188669L182.579 29.8256L183.561 30.0142L184.543 30.2029L190.309 0.188669L189.327 0ZM183.561 30.0142V31.0142H184.505V30.0142V29.0142H183.561V30.0142ZM184.505 30.0142L185.487 30.2029L191.253 0.188669L190.271 0L189.289 -0.188669L183.523 29.8256L184.505 30.0142ZM190.271 0V-1H189.327V0V1H190.271V0Z" fill="#00BCFF" mask="url(#path-87-inside-44_581_1116)"/>
<mask id="path-89-inside-45_581_1116" fill="white">
<path d="M193.694 0L187.928 30.0142H188.872L194.639 0H193.694Z"/>
</mask>
<path d="M193.694 0L187.928 30.0142H188.872L194.639 0H193.694Z" fill="#8AD429"/>
<path d="M193.694 0V-1H192.868L192.712 -0.188669L193.694 0ZM187.928 30.0142L186.946 29.8256L186.718 31.0142H187.928V30.0142ZM188.872 30.0142V31.0142H189.698L189.854 30.2029L188.872 30.0142ZM194.639 0L195.621 0.188669L195.849 -1H194.639V0ZM193.694 0L192.712 -0.188669L186.946 29.8256L187.928 30.0142L188.91 30.2029L194.676 0.188669L193.694 0ZM187.928 30.0142V31.0142H188.872V30.0142V29.0142H187.928V30.0142ZM188.872 30.0142L189.854 30.2029L195.621 0.188669L194.639 0L193.657 -0.188669L187.89 29.8256L188.872 30.0142ZM194.639 0V-1H193.694V0V1H194.639V0Z" fill="#00BCFF" mask="url(#path-89-inside-45_581_1116)"/>
<mask id="path-91-inside-46_581_1116" fill="white">
<path d="M198.062 0L192.295 30.0142H193.24L199.006 0H198.062Z"/>
</mask>
<path d="M198.062 0L192.295 30.0142H193.24L199.006 0H198.062Z" fill="#8AD429"/>
<path d="M198.062 0V-1H197.236L197.08 -0.188669L198.062 0ZM192.295 30.0142L191.313 29.8256L191.085 31.0142H192.295V30.0142ZM193.24 30.0142V31.0142H194.066L194.222 30.2029L193.24 30.0142ZM199.006 0L199.988 0.188669L200.216 -1H199.006V0ZM198.062 0L197.08 -0.188669L191.313 29.8256L192.295 30.0142L193.277 30.2029L199.044 0.188669L198.062 0ZM192.295 30.0142V31.0142H193.24V30.0142V29.0142H192.295V30.0142ZM193.24 30.0142L194.222 30.2029L199.988 0.188669L199.006 0L198.024 -0.188669L192.258 29.8256L193.24 30.0142ZM199.006 0V-1H198.062V0V1H199.006V0Z" fill="#00BCFF" mask="url(#path-91-inside-46_581_1116)"/>
<mask id="path-93-inside-47_581_1116" fill="white">
<path d="M202.429 0L196.663 30.0142H197.607L203.373 0H202.429Z"/>
</mask>
<path d="M202.429 0L196.663 30.0142H197.607L203.373 0H202.429Z" fill="#8AD429"/>
<path d="M202.429 0V-1H201.603L201.447 -0.188669L202.429 0ZM196.663 30.0142L195.681 29.8256L195.452 31.0142H196.663V30.0142ZM197.607 30.0142V31.0142H198.433L198.589 30.2029L197.607 30.0142ZM203.373 0L204.355 0.188669L204.584 -1H203.373V0ZM202.429 0L201.447 -0.188669L195.681 29.8256L196.663 30.0142L197.645 30.2029L203.411 0.188669L202.429 0ZM196.663 30.0142V31.0142H197.607V30.0142V29.0142H196.663V30.0142ZM197.607 30.0142L198.589 30.2029L204.355 0.188669L203.373 0L202.391 -0.188669L196.625 29.8256L197.607 30.0142ZM203.373 0V-1H202.429V0V1H203.373V0Z" fill="#00BCFF" mask="url(#path-93-inside-47_581_1116)"/>
<mask id="path-95-inside-48_581_1116" fill="white">
<path d="M206.797 0L201.03 30.0142H201.975L207.741 0H206.797Z"/>
</mask>
<path d="M206.797 0L201.03 30.0142H201.975L207.741 0H206.797Z" fill="#8AD429"/>
<path d="M206.797 0V-1H205.97L205.815 -0.188669L206.797 0ZM201.03 30.0142L200.048 29.8256L199.82 31.0142H201.03V30.0142ZM201.975 30.0142V31.0142H202.801L202.957 30.2029L201.975 30.0142ZM207.741 0L208.723 0.188669L208.951 -1H207.741V0ZM206.797 0L205.815 -0.188669L200.048 29.8256L201.03 30.0142L202.012 30.2029L207.779 0.188669L206.797 0ZM201.03 30.0142V31.0142H201.975V30.0142V29.0142H201.03V30.0142ZM201.975 30.0142L202.957 30.2029L208.723 0.188669L207.741 0L206.759 -0.188669L200.992 29.8256L201.975 30.0142ZM207.741 0V-1H206.797V0V1H207.741V0Z" fill="#00BCFF" mask="url(#path-95-inside-48_581_1116)"/>
<mask id="path-97-inside-49_581_1116" fill="white">
<path d="M211.164 0L205.398 30.0142H206.342L212.108 0H211.164Z"/>
</mask>
<path d="M211.164 0L205.398 30.0142H206.342L212.108 0H211.164Z" fill="#8AD429"/>
<path d="M211.164 0V-1H210.338L210.182 -0.188669L211.164 0ZM205.398 30.0142L204.416 29.8256L204.187 31.0142H205.398V30.0142ZM206.342 30.0142V31.0142H207.168L207.324 30.2029L206.342 30.0142ZM212.108 0L213.09 0.188669L213.319 -1H212.108V0ZM211.164 0L210.182 -0.188669L204.416 29.8256L205.398 30.0142L206.38 30.2029L212.146 0.188669L211.164 0ZM205.398 30.0142V31.0142H206.342V30.0142V29.0142H205.398V30.0142ZM206.342 30.0142L207.324 30.2029L213.09 0.188669L212.108 0L211.126 -0.188669L205.36 29.8256L206.342 30.0142ZM212.108 0V-1H211.164V0V1H212.108V0Z" fill="#00BCFF" mask="url(#path-97-inside-49_581_1116)"/>
<mask id="path-99-inside-50_581_1116" fill="white">
<path d="M215.531 0L209.765 30.0142H210.709L216.476 0H215.531Z"/>
</mask>
<path d="M215.531 0L209.765 30.0142H210.709L216.476 0H215.531Z" fill="#8AD429"/>
<path d="M215.531 0V-1H214.705L214.549 -0.188669L215.531 0ZM209.765 30.0142L208.783 29.8256L208.555 31.0142H209.765V30.0142ZM210.709 30.0142V31.0142H211.536L211.691 30.2029L210.709 30.0142ZM216.476 0L217.458 0.188669L217.686 -1H216.476V0ZM215.531 0L214.549 -0.188669L208.783 29.8256L209.765 30.0142L210.747 30.2029L216.513 0.188669L215.531 0ZM209.765 30.0142V31.0142H210.709V30.0142V29.0142H209.765V30.0142ZM210.709 30.0142L211.691 30.2029L217.458 0.188669L216.476 0L215.494 -0.188669L209.727 29.8256L210.709 30.0142ZM216.476 0V-1H215.531V0V1H216.476V0Z" fill="#00BCFF" mask="url(#path-99-inside-50_581_1116)"/>
<mask id="path-101-inside-51_581_1116" fill="white">
<path d="M219.899 0L214.133 30.0142H215.077L220.843 0H219.899Z"/>
</mask>
<path d="M219.899 0L214.133 30.0142H215.077L220.843 0H219.899Z" fill="#8AD429"/>
<path d="M219.899 0V-1H219.073L218.917 -0.188669L219.899 0ZM214.133 30.0142L213.151 29.8256L212.922 31.0142H214.133V30.0142ZM215.077 30.0142V31.0142H215.903L216.059 30.2029L215.077 30.0142ZM220.843 0L221.825 0.188669L222.054 -1H220.843V0ZM219.899 0L218.917 -0.188669L213.151 29.8256L214.133 30.0142L215.115 30.2029L220.881 0.188669L219.899 0ZM214.133 30.0142V31.0142H215.077V30.0142V29.0142H214.133V30.0142ZM215.077 30.0142L216.059 30.2029L221.825 0.188669L220.843 0L219.861 -0.188669L214.095 29.8256L215.077 30.0142ZM220.843 0V-1H219.899V0V1H220.843V0Z" fill="#00BCFF" mask="url(#path-101-inside-51_581_1116)"/>
<mask id="path-103-inside-52_581_1116" fill="white">
<path d="M224.266 0L218.5 30.0142H219.444L225.211 0H224.266Z"/>
</mask>
<path d="M224.266 0L218.5 30.0142H219.444L225.211 0H224.266Z" fill="#8AD429"/>
<path d="M224.266 0V-1H223.44L223.284 -0.188669L224.266 0ZM218.5 30.0142L217.518 29.8256L217.29 31.0142H218.5V30.0142ZM219.444 30.0142V31.0142H220.27L220.426 30.2029L219.444 30.0142ZM225.211 0L226.193 0.188669L226.421 -1H225.211V0ZM224.266 0L223.284 -0.188669L217.518 29.8256L218.5 30.0142L219.482 30.2029L225.248 0.188669L224.266 0ZM218.5 30.0142V31.0142H219.444V30.0142V29.0142H218.5V30.0142ZM219.444 30.0142L220.426 30.2029L226.193 0.188669L225.211 0L224.229 -0.188669L218.462 29.8256L219.444 30.0142ZM225.211 0V-1H224.266V0V1H225.211V0Z" fill="#00BCFF" mask="url(#path-103-inside-52_581_1116)"/>
<mask id="path-105-inside-53_581_1116" fill="white">
<path d="M228.634 0L222.867 30.0142H223.812L229.578 0H228.634Z"/>
</mask>
<path d="M228.634 0L222.867 30.0142H223.812L229.578 0H228.634Z" fill="#8AD429"/>
<path d="M228.634 0V-1H227.808L227.652 -0.188669L228.634 0ZM222.867 30.0142L221.885 29.8256L221.657 31.0142H222.867V30.0142ZM223.812 30.0142V31.0142H224.638L224.794 30.2029L223.812 30.0142ZM229.578 0L230.56 0.188669L230.788 -1H229.578V0ZM228.634 0L227.652 -0.188669L221.885 29.8256L222.867 30.0142L223.849 30.2029L229.616 0.188669L228.634 0ZM222.867 30.0142V31.0142H223.812V30.0142V29.0142H222.867V30.0142ZM223.812 30.0142L224.794 30.2029L230.56 0.188669L229.578 0L228.596 -0.188669L222.83 29.8256L223.812 30.0142ZM229.578 0V-1H228.634V0V1H229.578V0Z" fill="#00BCFF" mask="url(#path-105-inside-53_581_1116)"/>
<mask id="path-107-inside-54_581_1116" fill="white">
<path d="M233.001 0L227.235 30.0142H228.179L233.945 0H233.001Z"/>
</mask>
<path d="M233.001 0L227.235 30.0142H228.179L233.945 0H233.001Z" fill="#8AD429"/>
<path d="M233.001 0V-1H232.175L232.019 -0.188669L233.001 0ZM227.235 30.0142L226.253 29.8256L226.024 31.0142H227.235V30.0142ZM228.179 30.0142V31.0142H229.005L229.161 30.2029L228.179 30.0142ZM233.945 0L234.927 0.188669L235.156 -1H233.945V0ZM233.001 0L232.019 -0.188669L226.253 29.8256L227.235 30.0142L228.217 30.2029L233.983 0.188669L233.001 0ZM227.235 30.0142V31.0142H228.179V30.0142V29.0142H227.235V30.0142ZM228.179 30.0142L229.161 30.2029L234.927 0.188669L233.945 0L232.963 -0.188669L227.197 29.8256L228.179 30.0142ZM233.945 0V-1H233.001V0V1H233.945V0Z" fill="#00BCFF" mask="url(#path-107-inside-54_581_1116)"/>
<mask id="path-109-inside-55_581_1116" fill="white">
<path d="M237.369 0L231.602 30.0142H232.547L238.313 0H237.369Z"/>
</mask>
<path d="M237.369 0L231.602 30.0142H232.547L238.313 0H237.369Z" fill="#8AD429"/>
<path d="M237.369 0V-1H236.542L236.387 -0.188669L237.369 0ZM231.602 30.0142L230.62 29.8256L230.392 31.0142H231.602V30.0142ZM232.547 30.0142V31.0142H233.373L233.529 30.2029L232.547 30.0142ZM238.313 0L239.295 0.188669L239.523 -1H238.313V0ZM237.369 0L236.387 -0.188669L230.62 29.8256L231.602 30.0142L232.584 30.2029L238.351 0.188669L237.369 0ZM231.602 30.0142V31.0142H232.547V30.0142V29.0142H231.602V30.0142ZM232.547 30.0142L233.529 30.2029L239.295 0.188669L238.313 0L237.331 -0.188669L231.565 29.8256L232.547 30.0142ZM238.313 0V-1H237.369V0V1H238.313V0Z" fill="#00BCFF" mask="url(#path-109-inside-55_581_1116)"/>
<mask id="path-111-inside-56_581_1116" fill="white">
<path d="M241.736 0L235.97 30.0142H236.914L242.68 0H241.736Z"/>
</mask>
<path d="M241.736 0L235.97 30.0142H236.914L242.68 0H241.736Z" fill="#8AD429"/>
<path d="M241.736 0V-1H240.91L240.754 -0.188669L241.736 0ZM235.97 30.0142L234.988 29.8256L234.759 31.0142H235.97V30.0142ZM236.914 30.0142V31.0142H237.74L237.896 30.2029L236.914 30.0142ZM242.68 0L243.662 0.188669L243.891 -1H242.68V0ZM241.736 0L240.754 -0.188669L234.988 29.8256L235.97 30.0142L236.952 30.2029L242.718 0.188669L241.736 0ZM235.97 30.0142V31.0142H236.914V30.0142V29.0142H235.97V30.0142ZM236.914 30.0142L237.896 30.2029L243.662 0.188669L242.68 0L241.698 -0.188669L235.932 29.8256L236.914 30.0142ZM242.68 0V-1H241.736V0V1H242.68V0Z" fill="#00BCFF" mask="url(#path-111-inside-56_581_1116)"/>
<mask id="path-113-inside-57_581_1116" fill="white">
<path d="M246.103 0L240.337 30.0142H241.281L247.048 0H246.103Z"/>
</mask>
<path d="M246.103 0L240.337 30.0142H241.281L247.048 0H246.103Z" fill="#8AD429"/>
<path d="M246.103 0V-1H245.277L245.121 -0.188669L246.103 0ZM240.337 30.0142L239.355 29.8256L239.127 31.0142H240.337V30.0142ZM241.281 30.0142V31.0142H242.108L242.263 30.2029L241.281 30.0142ZM247.048 0L248.03 0.188669L248.258 -1H247.048V0ZM246.103 0L245.121 -0.188669L239.355 29.8256L240.337 30.0142L241.319 30.2029L247.086 0.188669L246.103 0ZM240.337 30.0142V31.0142H241.281V30.0142V29.0142H240.337V30.0142ZM241.281 30.0142L242.263 30.2029L248.03 0.188669L247.048 0L246.066 -0.188669L240.299 29.8256L241.281 30.0142ZM247.048 0V-1H246.103V0V1H247.048V0Z" fill="#00BCFF" mask="url(#path-113-inside-57_581_1116)"/>
<mask id="path-115-inside-58_581_1116" fill="white">
<path d="M250.471 0L244.705 30.0142H245.649L251.415 0H250.471Z"/>
</mask>
<path d="M250.471 0L244.705 30.0142H245.649L251.415 0H250.471Z" fill="#8AD429"/>
<path d="M250.471 0V-1H249.645L249.489 -0.188669L250.471 0ZM244.705 30.0142L243.723 29.8256L243.494 31.0142H244.705V30.0142ZM245.649 30.0142V31.0142H246.475L246.631 30.2029L245.649 30.0142ZM251.415 0L252.397 0.188669L252.626 -1H251.415V0ZM250.471 0L249.489 -0.188669L243.723 29.8256L244.705 30.0142L245.687 30.2029L251.453 0.188669L250.471 0ZM244.705 30.0142V31.0142H245.649V30.0142V29.0142H244.705V30.0142ZM245.649 30.0142L246.631 30.2029L252.397 0.188669L251.415 0L250.433 -0.188669L244.667 29.8256L245.649 30.0142ZM251.415 0V-1H250.471V0V1H251.415V0Z" fill="#00BCFF" mask="url(#path-115-inside-58_581_1116)"/>
<mask id="path-117-inside-59_581_1116" fill="white">
<path d="M254.838 0L249.072 30.0142H250.016L255.783 0H254.838Z"/>
</mask>
<path d="M254.838 0L249.072 30.0142H250.016L255.783 0H254.838Z" fill="#8AD429"/>
<path d="M254.838 0V-1H254.012L253.856 -0.188669L254.838 0ZM249.072 30.0142L248.09 29.8256L247.862 31.0142H249.072V30.0142ZM250.016 30.0142V31.0142H250.842L250.998 30.2029L250.016 30.0142ZM255.783 0L256.765 0.188669L256.993 -1H255.783V0ZM254.838 0L253.856 -0.188669L248.09 29.8256L249.072 30.0142L250.054 30.2029L255.82 0.188669L254.838 0ZM249.072 30.0142V31.0142H250.016V30.0142V29.0142H249.072V30.0142ZM250.016 30.0142L250.998 30.2029L256.765 0.188669L255.783 0L254.801 -0.188669L249.034 29.8256L250.016 30.0142ZM255.783 0V-1H254.838V0V1H255.783V0Z" fill="#00BCFF" mask="url(#path-117-inside-59_581_1116)"/>
<mask id="path-119-inside-60_581_1116" fill="white">
<path d="M259.206 0L253.439 30.0142H254.384L260.15 0H259.206Z"/>
</mask>
<path d="M259.206 0L253.439 30.0142H254.384L260.15 0H259.206Z" fill="#8AD429"/>
<path d="M259.206 0V-1H258.38L258.224 -0.188669L259.206 0ZM253.439 30.0142L252.457 29.8256L252.229 31.0142H253.439V30.0142ZM254.384 30.0142V31.0142H255.21L255.366 30.2029L254.384 30.0142ZM260.15 0L261.132 0.188669L261.36 -1H260.15V0ZM259.206 0L258.224 -0.188669L252.457 29.8256L253.439 30.0142L254.421 30.2029L260.188 0.188669L259.206 0ZM253.439 30.0142V31.0142H254.384V30.0142V29.0142H253.439V30.0142ZM254.384 30.0142L255.366 30.2029L261.132 0.188669L260.15 0L259.168 -0.188669L253.402 29.8256L254.384 30.0142ZM260.15 0V-1H259.206V0V1H260.15V0Z" fill="#00BCFF" mask="url(#path-119-inside-60_581_1116)"/>
<mask id="path-121-inside-61_581_1116" fill="white">
<path d="M263.573 0L257.807 30.0142H258.751L264.517 0H263.573Z"/>
</mask>
<path d="M263.573 0L257.807 30.0142H258.751L264.517 0H263.573Z" fill="#8AD429"/>
<path d="M263.573 0V-1H262.747L262.591 -0.188669L263.573 0ZM257.807 30.0142L256.825 29.8256L256.596 31.0142H257.807V30.0142ZM258.751 30.0142V31.0142H259.577L259.733 30.2029L258.751 30.0142ZM264.517 0L265.499 0.188669L265.728 -1H264.517V0ZM263.573 0L262.591 -0.188669L256.825 29.8256L257.807 30.0142L258.789 30.2029L264.555 0.188669L263.573 0ZM257.807 30.0142V31.0142H258.751V30.0142V29.0142H257.807V30.0142ZM258.751 30.0142L259.733 30.2029L265.499 0.188669L264.517 0L263.535 -0.188669L257.769 29.8256L258.751 30.0142ZM264.517 0V-1H263.573V0V1H264.517V0Z" fill="#00BCFF" mask="url(#path-121-inside-61_581_1116)"/>
<mask id="path-123-inside-62_581_1116" fill="white">
<path d="M267.941 0L262.174 30.0142H263.119L268.885 0H267.941Z"/>
</mask>
<path d="M267.941 0L262.174 30.0142H263.119L268.885 0H267.941Z" fill="#8AD429"/>
<path d="M267.941 0V-1H267.114L266.959 -0.188669L267.941 0ZM262.174 30.0142L261.192 29.8256L260.964 31.0142H262.174V30.0142ZM263.119 30.0142V31.0142H263.945L264.101 30.2029L263.119 30.0142ZM268.885 0L269.867 0.188669L270.095 -1H268.885V0ZM267.941 0L266.959 -0.188669L261.192 29.8256L262.174 30.0142L263.156 30.2029L268.923 0.188669L267.941 0ZM262.174 30.0142V31.0142H263.119V30.0142V29.0142H262.174V30.0142ZM263.119 30.0142L264.101 30.2029L269.867 0.188669L268.885 0L267.903 -0.188669L262.137 29.8256L263.119 30.0142ZM268.885 0V-1H267.941V0V1H268.885V0Z" fill="#00BCFF" mask="url(#path-123-inside-62_581_1116)"/>
<mask id="path-125-inside-63_581_1116" fill="white">
<path d="M272.308 0L266.542 30.0142H267.486L273.252 0H272.308Z"/>
</mask>
<path d="M272.308 0L266.542 30.0142H267.486L273.252 0H272.308Z" fill="#8AD429"/>
<path d="M272.308 0V-1H271.482L271.326 -0.188669L272.308 0ZM266.542 30.0142L265.56 29.8256L265.331 31.0142H266.542V30.0142ZM267.486 30.0142V31.0142H268.312L268.468 30.2029L267.486 30.0142ZM273.252 0L274.234 0.188669L274.463 -1H273.252V0ZM272.308 0L271.326 -0.188669L265.56 29.8256L266.542 30.0142L267.524 30.2029L273.29 0.188669L272.308 0ZM266.542 30.0142V31.0142H267.486V30.0142V29.0142H266.542V30.0142ZM267.486 30.0142L268.468 30.2029L274.234 0.188669L273.252 0L272.27 -0.188669L266.504 29.8256L267.486 30.0142ZM273.252 0V-1H272.308V0V1H273.252V0Z" fill="#00BCFF" mask="url(#path-125-inside-63_581_1116)"/>
<mask id="path-127-inside-64_581_1116" fill="white">
<path d="M276.676 0L270.909 30.0142H271.853L277.62 0H276.676Z"/>
</mask>
<path d="M276.676 0L270.909 30.0142H271.853L277.62 0H276.676Z" fill="#8AD429"/>
<path d="M276.676 0V-1H275.849L275.693 -0.188669L276.676 0ZM270.909 30.0142L269.927 29.8256L269.699 31.0142H270.909V30.0142ZM271.853 30.0142V31.0142H272.68L272.835 30.2029L271.853 30.0142ZM277.62 0L278.602 0.188669L278.83 -1H277.62V0ZM276.676 0L275.693 -0.188669L269.927 29.8256L270.909 30.0142L271.891 30.2029L277.658 0.188669L276.676 0ZM270.909 30.0142V31.0142H271.853V30.0142V29.0142H270.909V30.0142ZM271.853 30.0142L272.835 30.2029L278.602 0.188669L277.62 0L276.638 -0.188669L270.871 29.8256L271.853 30.0142ZM277.62 0V-1H276.676V0V1H277.62V0Z" fill="#00BCFF" mask="url(#path-127-inside-64_581_1116)"/>
<mask id="path-129-inside-65_581_1116" fill="white">
<path d="M281.043 0L275.277 30.0142H276.221L281.987 0H281.043Z"/>
</mask>
<path d="M281.043 0L275.277 30.0142H276.221L281.987 0H281.043Z" fill="#8AD429"/>
<path d="M281.043 0V-1H280.217L280.061 -0.188669L281.043 0ZM275.277 30.0142L274.295 29.8256L274.066 31.0142H275.277V30.0142ZM276.221 30.0142V31.0142H277.047L277.203 30.2029L276.221 30.0142ZM281.987 0L282.969 0.188669L283.198 -1H281.987V0ZM281.043 0L280.061 -0.188669L274.295 29.8256L275.277 30.0142L276.259 30.2029L282.025 0.188669L281.043 0ZM275.277 30.0142V31.0142H276.221V30.0142V29.0142H275.277V30.0142ZM276.221 30.0142L277.203 30.2029L282.969 0.188669L281.987 0L281.005 -0.188669L275.239 29.8256L276.221 30.0142ZM281.987 0V-1H281.043V0V1H281.987V0Z" fill="#00BCFF" mask="url(#path-129-inside-65_581_1116)"/>
<mask id="path-131-inside-66_581_1116" fill="white">
<path d="M285.41 0L279.644 30.0142H280.588L286.355 0H285.41Z"/>
</mask>
<path d="M285.41 0L279.644 30.0142H280.588L286.355 0H285.41Z" fill="#8AD429"/>
<path d="M285.41 0V-1H284.584L284.428 -0.188669L285.41 0ZM279.644 30.0142L278.662 29.8256L278.434 31.0142H279.644V30.0142ZM280.588 30.0142V31.0142H281.414L281.57 30.2029L280.588 30.0142ZM286.355 0L287.337 0.188669L287.565 -1H286.355V0ZM285.41 0L284.428 -0.188669L278.662 29.8256L279.644 30.0142L280.626 30.2029L286.392 0.188669L285.41 0ZM279.644 30.0142V31.0142H280.588V30.0142V29.0142H279.644V30.0142ZM280.588 30.0142L281.57 30.2029L287.337 0.188669L286.355 0L285.373 -0.188669L279.606 29.8256L280.588 30.0142ZM286.355 0V-1H285.41V0V1H286.355V0Z" fill="#00BCFF" mask="url(#path-131-inside-66_581_1116)"/>
<mask id="path-133-inside-67_581_1116" fill="white">
<path d="M289.778 0L284.011 30.0142H284.956L290.722 0H289.778Z"/>
</mask>
<path d="M289.778 0L284.011 30.0142H284.956L290.722 0H289.778Z" fill="#8AD429"/>
<path d="M289.778 0V-1H288.952L288.796 -0.188669L289.778 0ZM284.011 30.0142L283.029 29.8256L282.801 31.0142H284.011V30.0142ZM284.956 30.0142V31.0142H285.782L285.938 30.2029L284.956 30.0142ZM290.722 0L291.704 0.188669L291.932 -1H290.722V0ZM289.778 0L288.796 -0.188669L283.029 29.8256L284.011 30.0142L284.994 30.2029L290.76 0.188669L289.778 0ZM284.011 30.0142V31.0142H284.956V30.0142V29.0142H284.011V30.0142ZM284.956 30.0142L285.938 30.2029L291.704 0.188669L290.722 0L289.74 -0.188669L283.974 29.8256L284.956 30.0142ZM290.722 0V-1H289.778V0V1H290.722V0Z" fill="#00BCFF" mask="url(#path-133-inside-67_581_1116)"/>
<mask id="path-135-inside-68_581_1116" fill="white">
<path d="M294.145 0L288.379 30.0142H289.323L295.089 0H294.145Z"/>
</mask>
<path d="M294.145 0L288.379 30.0142H289.323L295.089 0H294.145Z" fill="#8AD429"/>
<path d="M294.145 0V-1H293.319L293.163 -0.188669L294.145 0ZM288.379 30.0142L287.397 29.8256L287.168 31.0142H288.379V30.0142ZM289.323 30.0142V31.0142H290.149L290.305 30.2029L289.323 30.0142ZM295.089 0L296.072 0.188669L296.3 -1H295.089V0ZM294.145 0L293.163 -0.188669L287.397 29.8256L288.379 30.0142L289.361 30.2029L295.127 0.188669L294.145 0ZM288.379 30.0142V31.0142H289.323V30.0142V29.0142H288.379V30.0142ZM289.323 30.0142L290.305 30.2029L296.072 0.188669L295.089 0L294.107 -0.188669L288.341 29.8256L289.323 30.0142ZM295.089 0V-1H294.145V0V1H295.089V0Z" fill="#00BCFF" mask="url(#path-135-inside-68_581_1116)"/>
<mask id="path-137-inside-69_581_1116" fill="white">
<path d="M298.513 0L292.746 30.0142H293.691L299.457 0H298.513Z"/>
</mask>
<path d="M298.513 0L292.746 30.0142H293.691L299.457 0H298.513Z" fill="#8AD429"/>
<path d="M298.513 0V-1H297.686L297.531 -0.188669L298.513 0ZM292.746 30.0142L291.764 29.8256L291.536 31.0142H292.746V30.0142ZM293.691 30.0142V31.0142H294.517L294.673 30.2029L293.691 30.0142ZM299.457 0L300.439 0.188669L300.667 -1H299.457V0ZM298.513 0L297.531 -0.188669L291.764 29.8256L292.746 30.0142L293.728 30.2029L299.495 0.188669L298.513 0ZM292.746 30.0142V31.0142H293.691V30.0142V29.0142H292.746V30.0142ZM293.691 30.0142L294.673 30.2029L300.439 0.188669L299.457 0L298.475 -0.188669L292.709 29.8256L293.691 30.0142ZM299.457 0V-1H298.513V0V1H299.457V0Z" fill="#00BCFF" mask="url(#path-137-inside-69_581_1116)"/>
<mask id="path-139-inside-70_581_1116" fill="white">
<path d="M302.88 0L297.114 30.0142H298.058L303.824 0H302.88Z"/>
</mask>
<path d="M302.88 0L297.114 30.0142H298.058L303.824 0H302.88Z" fill="#8AD429"/>
<path d="M302.88 0V-1H302.054L301.898 -0.188669L302.88 0ZM297.114 30.0142L296.132 29.8256L295.903 31.0142H297.114V30.0142ZM298.058 30.0142V31.0142H298.884L299.04 30.2029L298.058 30.0142ZM303.824 0L304.806 0.188669L305.035 -1H303.824V0ZM302.88 0L301.898 -0.188669L296.132 29.8256L297.114 30.0142L298.096 30.2029L303.862 0.188669L302.88 0ZM297.114 30.0142V31.0142H298.058V30.0142V29.0142H297.114V30.0142ZM298.058 30.0142L299.04 30.2029L304.806 0.188669L303.824 0L302.842 -0.188669L297.076 29.8256L298.058 30.0142ZM303.824 0V-1H302.88V0V1H303.824V0Z" fill="#00BCFF" mask="url(#path-139-inside-70_581_1116)"/>
<mask id="path-141-inside-71_581_1116" fill="white">
<path d="M307.248 0L301.481 30.0142H302.425L308.192 0H307.248Z"/>
</mask>
<path d="M307.248 0L301.481 30.0142H302.425L308.192 0H307.248Z" fill="#8AD429"/>
<path d="M307.248 0V-1H306.421L306.265 -0.188669L307.248 0ZM301.481 30.0142L300.499 29.8256L300.271 31.0142H301.481V30.0142ZM302.425 30.0142V31.0142H303.252L303.407 30.2029L302.425 30.0142ZM308.192 0L309.174 0.188669L309.402 -1H308.192V0ZM307.248 0L306.265 -0.188669L300.499 29.8256L301.481 30.0142L302.463 30.2029L308.23 0.188669L307.248 0ZM301.481 30.0142V31.0142H302.425V30.0142V29.0142H301.481V30.0142ZM302.425 30.0142L303.407 30.2029L309.174 0.188669L308.192 0L307.21 -0.188669L301.443 29.8256L302.425 30.0142ZM308.192 0V-1H307.248V0V1H308.192V0Z" fill="#00BCFF" mask="url(#path-141-inside-71_581_1116)"/>
<mask id="path-143-inside-72_581_1116" fill="white">
<path d="M311.615 0L305.849 30.0142H306.793L312.559 0H311.615Z"/>
</mask>
<path d="M311.615 0L305.849 30.0142H306.793L312.559 0H311.615Z" fill="#8AD429"/>
<path d="M311.615 0V-1H310.789L310.633 -0.188669L311.615 0ZM305.849 30.0142L304.867 29.8256L304.638 31.0142H305.849V30.0142ZM306.793 30.0142V31.0142H307.619L307.775 30.2029L306.793 30.0142ZM312.559 0L313.541 0.188669L313.77 -1H312.559V0ZM311.615 0L310.633 -0.188669L304.867 29.8256L305.849 30.0142L306.831 30.2029L312.597 0.188669L311.615 0ZM305.849 30.0142V31.0142H306.793V30.0142V29.0142H305.849V30.0142ZM306.793 30.0142L307.775 30.2029L313.541 0.188669L312.559 0L311.577 -0.188669L305.811 29.8256L306.793 30.0142ZM312.559 0V-1H311.615V0V1H312.559V0Z" fill="#00BCFF" mask="url(#path-143-inside-72_581_1116)"/>
<mask id="path-145-inside-73_581_1116" fill="white">
<path d="M315.982 0L310.216 30.0142H311.16L316.927 0H315.982Z"/>
</mask>
<path d="M315.982 0L310.216 30.0142H311.16L316.927 0H315.982Z" fill="#8AD429"/>
<path d="M315.982 0V-1H315.156L315 -0.188669L315.982 0ZM310.216 30.0142L309.234 29.8256L309.006 31.0142H310.216V30.0142ZM311.16 30.0142V31.0142H311.986L312.142 30.2029L311.16 30.0142ZM316.927 0L317.909 0.188669L318.137 -1H316.927V0ZM315.982 0L315 -0.188669L309.234 29.8256L310.216 30.0142L311.198 30.2029L316.964 0.188669L315.982 0ZM310.216 30.0142V31.0142H311.16V30.0142V29.0142H310.216V30.0142ZM311.16 30.0142L312.142 30.2029L317.909 0.188669L316.927 0L315.945 -0.188669L310.178 29.8256L311.16 30.0142ZM316.927 0V-1H315.982V0V1H316.927V0Z" fill="#00BCFF" mask="url(#path-145-inside-73_581_1116)"/>
<mask id="path-147-inside-74_581_1116" fill="white">
<path d="M320.35 0L314.583 30.0142H315.528L321.294 0H320.35Z"/>
</mask>
<path d="M320.35 0L314.583 30.0142H315.528L321.294 0H320.35Z" fill="#8AD429"/>
<path d="M320.35 0V-1H319.524L319.368 -0.188669L320.35 0ZM314.583 30.0142L313.601 29.8256L313.373 31.0142H314.583V30.0142ZM315.528 30.0142V31.0142H316.354L316.51 30.2029L315.528 30.0142ZM321.294 0L322.276 0.188669L322.504 -1H321.294V0ZM320.35 0L319.368 -0.188669L313.601 29.8256L314.583 30.0142L315.566 30.2029L321.332 0.188669L320.35 0ZM314.583 30.0142V31.0142H315.528V30.0142V29.0142H314.583V30.0142ZM315.528 30.0142L316.51 30.2029L322.276 0.188669L321.294 0L320.312 -0.188669L314.546 29.8256L315.528 30.0142ZM321.294 0V-1H320.35V0V1H321.294V0Z" fill="#00BCFF" mask="url(#path-147-inside-74_581_1116)"/>
<mask id="path-149-inside-75_581_1116" fill="white">
<path d="M324.717 0L318.951 30.0142H319.895L325.661 0H324.717Z"/>
</mask>
<path d="M324.717 0L318.951 30.0142H319.895L325.661 0H324.717Z" fill="#8AD429"/>
<path d="M324.717 0V-1H323.891L323.735 -0.188669L324.717 0ZM318.951 30.0142L317.969 29.8256L317.741 31.0142H318.951V30.0142ZM319.895 30.0142V31.0142H320.721L320.877 30.2029L319.895 30.0142ZM325.661 0L326.644 0.188669L326.872 -1H325.661V0ZM324.717 0L323.735 -0.188669L317.969 29.8256L318.951 30.0142L319.933 30.2029L325.699 0.188669L324.717 0ZM318.951 30.0142V31.0142H319.895V30.0142V29.0142H318.951V30.0142ZM319.895 30.0142L320.877 30.2029L326.644 0.188669L325.661 0L324.679 -0.188669L318.913 29.8256L319.895 30.0142ZM325.661 0V-1H324.717V0V1H325.661V0Z" fill="#00BCFF" mask="url(#path-149-inside-75_581_1116)"/>
<mask id="path-151-inside-76_581_1116" fill="white">
<path d="M329.085 0L323.318 30.0142H324.263L330.029 0H329.085Z"/>
</mask>
<path d="M329.085 0L323.318 30.0142H324.263L330.029 0H329.085Z" fill="#8AD429"/>
<path d="M329.085 0V-1H328.259L328.103 -0.188669L329.085 0ZM323.318 30.0142L322.336 29.8256L322.108 31.0142H323.318V30.0142ZM324.263 30.0142V31.0142H325.089L325.245 30.2029L324.263 30.0142ZM330.029 0L331.011 0.188669L331.239 -1H330.029V0ZM329.085 0L328.103 -0.188669L322.336 29.8256L323.318 30.0142L324.3 30.2029L330.067 0.188669L329.085 0ZM323.318 30.0142V31.0142H324.263V30.0142V29.0142H323.318V30.0142ZM324.263 30.0142L325.245 30.2029L331.011 0.188669L330.029 0L329.047 -0.188669L323.281 29.8256L324.263 30.0142ZM330.029 0V-1H329.085V0V1H330.029V0Z" fill="#00BCFF" mask="url(#path-151-inside-76_581_1116)"/>
<mask id="path-153-inside-77_581_1116" fill="white">
<path d="M333.452 0L327.686 30.0142H328.63L334.396 0H333.452Z"/>
</mask>
<path d="M333.452 0L327.686 30.0142H328.63L334.396 0H333.452Z" fill="#8AD429"/>
<path d="M333.452 0V-1H332.626L332.47 -0.188669L333.452 0ZM327.686 30.0142L326.704 29.8256L326.475 31.0142H327.686V30.0142ZM328.63 30.0142V31.0142H329.456L329.612 30.2029L328.63 30.0142ZM334.396 0L335.378 0.188669L335.607 -1H334.396V0ZM333.452 0L332.47 -0.188669L326.704 29.8256L327.686 30.0142L328.668 30.2029L334.434 0.188669L333.452 0ZM327.686 30.0142V31.0142H328.63V30.0142V29.0142H327.686V30.0142ZM328.63 30.0142L329.612 30.2029L335.378 0.188669L334.396 0L333.414 -0.188669L327.648 29.8256L328.63 30.0142ZM334.396 0V-1H333.452V0V1H334.396V0Z" fill="#00BCFF" mask="url(#path-153-inside-77_581_1116)"/>
<mask id="path-155-inside-78_581_1116" fill="white">
<path d="M337.82 0L332.053 30.0142H332.997L338.764 0H337.82Z"/>
</mask>
<path d="M337.82 0L332.053 30.0142H332.997L338.764 0H337.82Z" fill="#8AD429"/>
<path d="M337.82 0V-1H336.993L336.838 -0.188669L337.82 0ZM332.053 30.0142L331.071 29.8256L330.843 31.0142H332.053V30.0142ZM332.997 30.0142V31.0142H333.824L333.98 30.2029L332.997 30.0142ZM338.764 0L339.746 0.188669L339.974 -1H338.764V0ZM337.82 0L336.838 -0.188669L331.071 29.8256L332.053 30.0142L333.035 30.2029L338.802 0.188669L337.82 0ZM332.053 30.0142V31.0142H332.997V30.0142V29.0142H332.053V30.0142ZM332.997 30.0142L333.98 30.2029L339.746 0.188669L338.764 0L337.782 -0.188669L332.015 29.8256L332.997 30.0142ZM338.764 0V-1H337.82V0V1H338.764V0Z" fill="#00BCFF" mask="url(#path-155-inside-78_581_1116)"/>
<mask id="path-157-inside-79_581_1116" fill="white">
<path d="M342.187 0L336.421 30.0142H337.365L343.131 0H342.187Z"/>
</mask>
<path d="M342.187 0L336.421 30.0142H337.365L343.131 0H342.187Z" fill="#8AD429"/>
<path d="M342.187 0V-1H341.361L341.205 -0.188669L342.187 0ZM336.421 30.0142L335.439 29.8256L335.21 31.0142H336.421V30.0142ZM337.365 30.0142V31.0142H338.191L338.347 30.2029L337.365 30.0142ZM343.131 0L344.113 0.188669L344.342 -1H343.131V0ZM342.187 0L341.205 -0.188669L335.439 29.8256L336.421 30.0142L337.403 30.2029L343.169 0.188669L342.187 0ZM336.421 30.0142V31.0142H337.365V30.0142V29.0142H336.421V30.0142ZM337.365 30.0142L338.347 30.2029L344.113 0.188669L343.131 0L342.149 -0.188669L336.383 29.8256L337.365 30.0142ZM343.131 0V-1H342.187V0V1H343.131V0Z" fill="#00BCFF" mask="url(#path-157-inside-79_581_1116)"/>
<mask id="path-159-inside-80_581_1116" fill="white">
<path d="M346.554 0L340.788 30.0142H341.732L347.499 0H346.554Z"/>
</mask>
<path d="M346.554 0L340.788 30.0142H341.732L347.499 0H346.554Z" fill="#8AD429"/>
<path d="M346.554 0V-1H345.728L345.572 -0.188669L346.554 0ZM340.788 30.0142L339.806 29.8256L339.578 31.0142H340.788V30.0142ZM341.732 30.0142V31.0142H342.559L342.714 30.2029L341.732 30.0142ZM347.499 0L348.481 0.188669L348.709 -1H347.499V0ZM346.554 0L345.572 -0.188669L339.806 29.8256L340.788 30.0142L341.77 30.2029L347.536 0.188669L346.554 0ZM340.788 30.0142V31.0142H341.732V30.0142V29.0142H340.788V30.0142ZM341.732 30.0142L342.714 30.2029L348.481 0.188669L347.499 0L346.517 -0.188669L340.75 29.8256L341.732 30.0142ZM347.499 0V-1H346.554V0V1H347.499V0Z" fill="#00BCFF" mask="url(#path-159-inside-80_581_1116)"/>
<mask id="path-161-inside-81_581_1116" fill="white">
<path d="M350.922 0L345.156 30.0142H346.1L351.866 0H350.922Z"/>
</mask>
<path d="M350.922 0L345.156 30.0142H346.1L351.866 0H350.922Z" fill="#8AD429"/>
<path d="M350.922 0V-1H350.096L349.94 -0.188669L350.922 0ZM345.156 30.0142L344.173 29.8256L343.945 31.0142H345.156V30.0142ZM346.1 30.0142V31.0142H346.926L347.082 30.2029L346.1 30.0142ZM351.866 0L352.848 0.188669L353.076 -1H351.866V0ZM350.922 0L349.94 -0.188669L344.173 29.8256L345.156 30.0142L346.138 30.2029L351.904 0.188669L350.922 0ZM345.156 30.0142V31.0142H346.1V30.0142V29.0142H345.156V30.0142ZM346.1 30.0142L347.082 30.2029L352.848 0.188669L351.866 0L350.884 -0.188669L345.118 29.8256L346.1 30.0142ZM351.866 0V-1H350.922V0V1H351.866V0Z" fill="#00BCFF" mask="url(#path-161-inside-81_581_1116)"/>
</svg>
