<svg width="32" height="31" viewBox="0 0 32 31" fill="none" xmlns="http://www.w3.org/2000/svg">
<mask id="path-1-inside-1_581_889" fill="white">
<path d="M26.393 30.0141H26.3838L32 0.827637V5.73472L27.328 30.0141H26.393Z"/>
</mask>
<path d="M26.393 30.0141H26.3838L32 0.827637V5.73472L27.328 30.0141H26.393Z" fill="#00BCFF"/>
<path d="M26.3838 30.0141L25.4018 29.8251L25.173 31.0141H26.3838V30.0141ZM27.328 30.0141V31.0141H28.154L28.31 30.2031L27.328 30.0141ZM32 0.827637H33L31.018 0.638678L32 0.827637ZM32 5.73472L32.982 5.92368L33 5.83006V5.73472H32ZM26.3838 30.0141V31.0141H26.393V30.0141V29.0141H26.3838V30.0141ZM26.393 30.0141V31.0141H27.328V30.0141V29.0141H26.393V30.0141ZM32 0.827637L31.018 0.638678L25.4018 29.8251L26.3838 30.0141L27.3658 30.2031L32.982 1.0166L32 0.827637ZM27.328 30.0141L28.31 30.2031L32.982 5.92368L32 5.73472L31.018 5.54576L26.3461 29.8251L27.328 30.0141ZM32 0.827637H31V5.73472H32H33V0.827637H32Z" fill="#00BCFF" mask="url(#path-1-inside-1_581_889)"/>
<mask id="path-3-inside-2_581_889" fill="white">
<path d="M27.0531 0L21.2776 30.0142H22.2218L27.9882 0H27.0531Z"/>
</mask>
<path d="M27.0531 0L21.2776 30.0142H22.2218L27.9882 0H27.0531Z" fill="#00BCFF"/>
<path d="M27.0531 0V-1H26.2272L26.0711 -0.188959L27.0531 0ZM21.2776 30.0142L20.2956 29.8253L20.0668 31.0142H21.2776V30.0142ZM22.2218 30.0142V31.0142H23.048L23.2039 30.2029L22.2218 30.0142ZM27.9882 0L28.9702 0.188669L29.1986 -1H27.9882V0ZM27.0531 0L26.0711 -0.188959L20.2956 29.8253L21.2776 30.0142L22.2596 30.2032L28.0351 0.188959L27.0531 0ZM21.2776 30.0142V31.0142H22.2218V30.0142V29.0142H21.2776V30.0142ZM22.2218 30.0142L23.2039 30.2029L28.9702 0.188669L27.9882 0L27.0061 -0.188669L21.2398 29.8256L22.2218 30.0142ZM27.9882 0V-1H27.0531V0V1H27.9882V0Z" fill="#00BCFF" mask="url(#path-3-inside-2_581_889)"/>
<mask id="path-5-inside-3_581_889" fill="white">
<path d="M21.681 0L15.9055 30.0142H16.8498L22.6253 0H21.681Z"/>
</mask>
<path d="M21.681 0L15.9055 30.0142H16.8498L22.6253 0H21.681Z" fill="#00BCFF"/>
<path d="M21.681 0V-1H20.8551L20.699 -0.188959L21.681 0ZM15.9055 30.0142L14.9235 29.8253L14.6947 31.0142H15.9055V30.0142ZM16.8498 30.0142V31.0142H17.6757L17.8317 30.2032L16.8498 30.0142ZM22.6253 0L23.6072 0.188959L23.836 -1H22.6253V0ZM21.681 0L20.699 -0.188959L14.9235 29.8253L15.9055 30.0142L16.8875 30.2032L22.663 0.188959L21.681 0ZM15.9055 30.0142V31.0142H16.8498V30.0142V29.0142H15.9055V30.0142ZM16.8498 30.0142L17.8317 30.2032L23.6072 0.188959L22.6253 0L21.6433 -0.188959L15.8678 29.8253L16.8498 30.0142ZM22.6253 0V-1H21.681V0V1H22.6253V0Z" fill="#00BCFF" mask="url(#path-5-inside-3_581_889)"/>
<mask id="path-7-inside-4_581_889" fill="white">
<path d="M16.3088 0L10.5425 30.0142H11.4776L17.2531 0H16.3088Z"/>
</mask>
<path d="M16.3088 0L10.5425 30.0142H11.4776L17.2531 0H16.3088Z" fill="#00BCFF"/>
<path d="M16.3088 0V-1H15.4826L15.3268 -0.188669L16.3088 0ZM10.5425 30.0142L9.56044 29.8256L9.33207 31.0142H10.5425V30.0142ZM11.4776 30.0142V31.0142H12.3035L12.4595 30.2032L11.4776 30.0142ZM17.2531 0L18.235 0.188959L18.4638 -1H17.2531V0ZM16.3088 0L15.3268 -0.188669L9.56044 29.8256L10.5425 30.0142L11.5245 30.2029L17.2908 0.188669L16.3088 0ZM10.5425 30.0142V31.0142H11.4776V30.0142V29.0142H10.5425V30.0142ZM11.4776 30.0142L12.4595 30.2032L18.235 0.188959L17.2531 0L16.2711 -0.188959L10.4956 29.8253L11.4776 30.0142ZM17.2531 0V-1H16.3088V0V1H17.2531V0Z" fill="#00BCFF" mask="url(#path-7-inside-4_581_889)"/>
<mask id="path-9-inside-5_581_889" fill="white">
<path d="M11.047 0L5.27148 30.0142H6.21573L11.9821 0H11.047Z"/>
</mask>
<path d="M11.047 0L5.27148 30.0142H6.21573L11.9821 0H11.047Z" fill="#00BCFF"/>
<path d="M11.047 0V-1H10.2211L10.065 -0.188959L11.047 0ZM5.27148 30.0142L4.2895 29.8253L4.06071 31.0142H5.27148V30.0142ZM6.21573 30.0142V31.0142H7.0419L7.19777 30.2029L6.21573 30.0142ZM11.9821 0L12.9641 0.188669L13.1925 -1H11.9821V0ZM11.047 0L10.065 -0.188959L4.2895 29.8253L5.27148 30.0142L6.25347 30.2032L12.029 0.188959L11.047 0ZM5.27148 30.0142V31.0142H6.21573V30.0142V29.0142H5.27148V30.0142ZM6.21573 30.0142L7.19777 30.2029L12.9641 0.188669L11.9821 0L11 -0.188669L5.23369 29.8256L6.21573 30.0142ZM11.9821 0V-1H11.047V0V1H11.9821V0Z" fill="#00BCFF" mask="url(#path-9-inside-5_581_889)"/>
<mask id="path-11-inside-6_581_889" fill="white">
<path d="M5.76633 0L0 30.0142H0.935081L6.71058 0H5.76633Z"/>
</mask>
<path d="M5.76633 0L0 30.0142H0.935081L6.71058 0H5.76633Z" fill="#00BCFF"/>
<path d="M5.76633 0V-1H4.94016L4.78429 -0.188669L5.76633 0ZM0 30.0142L-0.982041 29.8256L-1.21041 31.0142H0V30.0142ZM0.935081 30.0142V31.0142H1.761L1.91707 30.2032L0.935081 30.0142ZM6.71058 0L7.69256 0.188959L7.92135 -1H6.71058V0ZM5.76633 0L4.78429 -0.188669L-0.982041 29.8256L0 30.0142L0.982041 30.2029L6.74837 0.188669L5.76633 0ZM0 30.0142V31.0142H0.935081V30.0142V29.0142H0V30.0142ZM0.935081 30.0142L1.91707 30.2032L7.69256 0.188959L6.71058 0L5.72859 -0.188959L-0.0469045 29.8253L0.935081 30.0142ZM6.71058 0V-1H5.76633V0V1H6.71058V0Z" fill="#00BCFF" mask="url(#path-11-inside-6_581_889)"/>
</svg>
