<svg width="272" height="80" viewBox="0 0 272 80" fill="none" xmlns="http://www.w3.org/2000/svg">
<path d="M271.16 0L257.617 80H0L17.3227 0H271.16ZM2.28846 78.1538H256.057L268.975 1.84615H18.8119L2.28846 78.1538Z" fill="#8AD429"/>
<path d="M60.2055 57.086H27.7931C27.177 57.086 26.611 56.7624 26.2818 56.2232C25.9314 55.6474 25.9064 54.9464 26.2144 54.3456L42.4206 22.8573C42.7325 22.2506 43.337 21.8751 43.9993 21.8751C44.6615 21.8751 45.2661 22.2526 45.5779 22.8573L61.7841 54.3456C62.0941 54.9464 62.0691 55.6474 61.7168 56.2232C61.3875 56.7644 60.8215 57.086 60.2055 57.086Z" fill="#FEC311"/>
<path d="M44.1895 46.028C44.1799 46.028 44.1683 46.028 44.1587 46.028C43.2885 46.0107 42.582 45.3194 42.5127 44.42L41.8696 35.962C41.8311 35.4652 42.0006 34.9741 42.3336 34.614C42.6532 34.2693 43.0825 34.0786 43.5446 34.0786H44.9114C45.3696 34.0786 45.8124 34.275 46.1281 34.6198C46.4612 34.9837 46.6287 35.4787 46.5863 35.9794L45.8625 44.4373C45.7855 45.3348 45.052 46.028 44.1876 46.028H44.1895Z" fill="#00213A"/>
<path d="M44.5065 52.2948C43.1858 52.2948 42.1116 51.1682 42.1116 49.7855C42.1116 48.4028 43.1858 47.2762 44.5065 47.2762C45.8272 47.2762 46.9014 48.4028 46.9014 49.7855C46.9014 51.1682 45.8272 52.2948 44.5065 52.2948Z" fill="#00213A"/>
<path d="M79.4346 30.625L82.1143 21.625H84.7236L80.7627 33H79.0439L79.4346 30.625ZM76.9658 21.625L79.6377 30.625L80.0439 33H78.3096L74.3721 21.625H76.9658ZM84.9268 28.8594V28.6953C84.9268 28.0755 85.0153 27.5052 85.1924 26.9844C85.3695 26.4583 85.6273 26.0026 85.9658 25.6172C86.3044 25.2318 86.721 24.9323 87.2158 24.7188C87.7106 24.5 88.2783 24.3906 88.9189 24.3906C89.5596 24.3906 90.1299 24.5 90.6299 24.7188C91.1299 24.9323 91.5492 25.2318 91.8877 25.6172C92.2314 26.0026 92.4919 26.4583 92.6689 26.9844C92.846 27.5052 92.9346 28.0755 92.9346 28.6953V28.8594C92.9346 29.474 92.846 30.0443 92.6689 30.5703C92.4919 31.0911 92.2314 31.5469 91.8877 31.9375C91.5492 32.3229 91.1325 32.6224 90.6377 32.8359C90.1429 33.0495 89.5752 33.1562 88.9346 33.1562C88.2939 33.1562 87.7236 33.0495 87.2236 32.8359C86.7288 32.6224 86.3096 32.3229 85.9658 31.9375C85.6273 31.5469 85.3695 31.0911 85.1924 30.5703C85.0153 30.0443 84.9268 29.474 84.9268 28.8594ZM87.1768 28.6953V28.8594C87.1768 29.2135 87.208 29.5443 87.2705 29.8516C87.333 30.1589 87.432 30.4297 87.5674 30.6641C87.708 30.8932 87.8903 31.0729 88.1143 31.2031C88.3382 31.3333 88.6117 31.3984 88.9346 31.3984C89.2471 31.3984 89.5153 31.3333 89.7393 31.2031C89.9632 31.0729 90.1429 30.8932 90.2783 30.6641C90.4137 30.4297 90.5127 30.1589 90.5752 29.8516C90.6429 29.5443 90.6768 29.2135 90.6768 28.8594V28.6953C90.6768 28.3516 90.6429 28.0286 90.5752 27.7266C90.5127 27.4193 90.4111 27.1484 90.2705 26.9141C90.1351 26.6745 89.9554 26.487 89.7314 26.3516C89.5075 26.2161 89.2367 26.1484 88.9189 26.1484C88.6012 26.1484 88.3304 26.2161 88.1064 26.3516C87.8877 26.487 87.708 26.6745 87.5674 26.9141C87.432 27.1484 87.333 27.4193 87.2705 27.7266C87.208 28.0286 87.1768 28.3516 87.1768 28.6953ZM97.8096 31.3984C98.0856 31.3984 98.3304 31.3464 98.5439 31.2422C98.7575 31.1328 98.9242 30.9818 99.0439 30.7891C99.1689 30.5911 99.234 30.3594 99.2393 30.0938H101.356C101.351 30.6875 101.192 31.2161 100.88 31.6797C100.567 32.138 100.148 32.5 99.6221 32.7656C99.096 33.026 98.5075 33.1562 97.8564 33.1562C97.2002 33.1562 96.6273 33.0469 96.1377 32.8281C95.6533 32.6094 95.2497 32.3073 94.9268 31.9219C94.6038 31.5312 94.3617 31.0781 94.2002 30.5625C94.0387 30.0417 93.958 29.4844 93.958 28.8906V28.6641C93.958 28.0651 94.0387 27.5078 94.2002 26.9922C94.3617 26.4714 94.6038 26.0182 94.9268 25.6328C95.2497 25.2422 95.6533 24.9375 96.1377 24.7188C96.6221 24.5 97.1898 24.3906 97.8408 24.3906C98.5335 24.3906 99.1403 24.5234 99.6611 24.7891C100.187 25.0547 100.599 25.4349 100.896 25.9297C101.198 26.4193 101.351 27 101.356 27.6719H99.2393C99.234 27.3906 99.1742 27.1354 99.0596 26.9062C98.9502 26.6771 98.7887 26.4948 98.5752 26.3594C98.3669 26.2188 98.109 26.1484 97.8018 26.1484C97.4736 26.1484 97.2054 26.2188 96.9971 26.3594C96.7887 26.4948 96.6273 26.6823 96.5127 26.9219C96.3981 27.1562 96.3174 27.4245 96.2705 27.7266C96.2288 28.0234 96.208 28.3359 96.208 28.6641V28.8906C96.208 29.2188 96.2288 29.5339 96.2705 29.8359C96.3122 30.138 96.3903 30.4062 96.5049 30.6406C96.6247 30.875 96.7887 31.0599 96.9971 31.1953C97.2054 31.3307 97.4762 31.3984 97.8096 31.3984ZM106.552 33.1562C105.896 33.1562 105.307 33.0521 104.786 32.8438C104.265 32.6302 103.823 32.3359 103.458 31.9609C103.099 31.5859 102.823 31.151 102.63 30.6562C102.437 30.1562 102.341 29.625 102.341 29.0625V28.75C102.341 28.1094 102.432 27.5234 102.614 26.9922C102.797 26.4609 103.057 26 103.396 25.6094C103.739 25.2188 104.156 24.9193 104.646 24.7109C105.135 24.4974 105.687 24.3906 106.302 24.3906C106.901 24.3906 107.432 24.4896 107.896 24.6875C108.359 24.8854 108.747 25.1667 109.06 25.5312C109.377 25.8958 109.617 26.3333 109.778 26.8438C109.94 27.349 110.021 27.9115 110.021 28.5312V29.4688H103.302V27.9688H107.81V27.7969C107.81 27.4844 107.752 27.2057 107.638 26.9609C107.528 26.7109 107.362 26.513 107.138 26.3672C106.914 26.2214 106.627 26.1484 106.278 26.1484C105.981 26.1484 105.726 26.2135 105.513 26.3438C105.299 26.474 105.125 26.6562 104.989 26.8906C104.859 27.125 104.76 27.401 104.692 27.7188C104.63 28.0312 104.599 28.375 104.599 28.75V29.0625C104.599 29.401 104.646 29.7135 104.739 30C104.838 30.2865 104.976 30.5339 105.153 30.7422C105.336 30.9505 105.554 31.112 105.81 31.2266C106.07 31.3411 106.364 31.3984 106.692 31.3984C107.099 31.3984 107.476 31.3203 107.825 31.1641C108.179 31.0026 108.484 30.7604 108.739 30.4375L109.833 31.625C109.656 31.8802 109.414 32.125 109.106 32.3594C108.804 32.5938 108.44 32.7865 108.013 32.9375C107.586 33.0833 107.099 33.1562 106.552 33.1562ZM106.692 20.9922L109.052 23.1641V23.2578H107.263L106.036 22.1172L104.825 23.2578H103.067V23.1406L105.388 20.9922H106.692ZM119.427 24.5469V26.1406H114.505V24.5469H119.427ZM115.724 22.4609H117.974V30.4531C117.974 30.6979 118.005 30.8854 118.067 31.0156C118.135 31.1458 118.234 31.237 118.364 31.2891C118.494 31.3359 118.659 31.3594 118.856 31.3594C118.997 31.3594 119.122 31.3542 119.231 31.3438C119.346 31.3281 119.442 31.3125 119.521 31.2969L119.528 32.9531C119.336 33.0156 119.127 33.0651 118.903 33.1016C118.679 33.138 118.432 33.1562 118.161 33.1562C117.666 33.1562 117.234 33.0755 116.864 32.9141C116.5 32.7474 116.218 32.4818 116.021 32.1172C115.823 31.7526 115.724 31.2734 115.724 30.6797V22.4609ZM124.599 33.1562C123.942 33.1562 123.354 33.0521 122.833 32.8438C122.312 32.6302 121.869 32.3359 121.505 31.9609C121.146 31.5859 120.869 31.151 120.677 30.6562C120.484 30.1562 120.388 29.625 120.388 29.0625V28.75C120.388 28.1094 120.479 27.5234 120.661 26.9922C120.843 26.4609 121.104 26 121.442 25.6094C121.786 25.2188 122.203 24.9193 122.692 24.7109C123.182 24.4974 123.734 24.3906 124.349 24.3906C124.948 24.3906 125.479 24.4896 125.942 24.6875C126.406 24.8854 126.794 25.1667 127.106 25.5312C127.424 25.8958 127.664 26.3333 127.825 26.8438C127.987 27.349 128.067 27.9115 128.067 28.5312V29.4688H121.349V27.9688H125.856V27.7969C125.856 27.4844 125.799 27.2057 125.685 26.9609C125.575 26.7109 125.409 26.513 125.185 26.3672C124.961 26.2214 124.674 26.1484 124.325 26.1484C124.028 26.1484 123.773 26.2135 123.56 26.3438C123.346 26.474 123.172 26.6562 123.036 26.8906C122.906 27.125 122.807 27.401 122.739 27.7188C122.677 28.0312 122.646 28.375 122.646 28.75V29.0625C122.646 29.401 122.692 29.7135 122.786 30C122.885 30.2865 123.023 30.5339 123.2 30.7422C123.382 30.9505 123.601 31.112 123.856 31.2266C124.117 31.3411 124.411 31.3984 124.739 31.3984C125.146 31.3984 125.523 31.3203 125.872 31.1641C126.226 31.0026 126.531 30.7604 126.786 30.4375L127.88 31.625C127.703 31.8802 127.461 32.125 127.153 32.3594C126.851 32.5938 126.487 32.7865 126.06 32.9375C125.632 33.0833 125.146 33.1562 124.599 33.1562ZM131.599 26.2969V33H129.341V24.5469H131.458L131.599 26.2969ZM131.286 28.4766H130.661C130.661 27.888 130.731 27.3464 130.872 26.8516C131.018 26.3516 131.229 25.9193 131.505 25.5547C131.786 25.1849 132.132 24.8984 132.544 24.6953C132.955 24.4922 133.432 24.3906 133.974 24.3906C134.349 24.3906 134.692 24.4479 135.005 24.5625C135.317 24.6719 135.586 24.8464 135.81 25.0859C136.039 25.3203 136.216 25.6276 136.341 26.0078C136.466 26.3828 136.528 26.8333 136.528 27.3594V33H134.278V27.6094C134.278 27.224 134.226 26.9271 134.122 26.7188C134.018 26.5104 133.869 26.3646 133.677 26.2812C133.489 26.1979 133.263 26.1562 132.997 26.1562C132.705 26.1562 132.45 26.2161 132.231 26.3359C132.018 26.4557 131.841 26.6224 131.7 26.8359C131.56 27.0443 131.455 27.2891 131.388 27.5703C131.32 27.8516 131.286 28.1536 131.286 28.4766ZM136.317 28.2188L135.513 28.3203C135.513 27.7682 135.58 27.2552 135.716 26.7812C135.856 26.3073 136.062 25.8906 136.333 25.5312C136.609 25.1719 136.95 24.8932 137.356 24.6953C137.763 24.4922 138.231 24.3906 138.763 24.3906C139.169 24.3906 139.539 24.4505 139.872 24.5703C140.205 24.6849 140.489 24.8698 140.724 25.125C140.963 25.375 141.146 25.7031 141.271 26.1094C141.401 26.5156 141.466 27.013 141.466 27.6016V33H139.208V27.6016C139.208 27.2109 139.156 26.9141 139.052 26.7109C138.953 26.5026 138.807 26.3594 138.614 26.2812C138.427 26.1979 138.203 26.1562 137.942 26.1562C137.672 26.1562 137.435 26.2109 137.231 26.3203C137.028 26.4245 136.859 26.5703 136.724 26.7578C136.588 26.9453 136.487 27.1641 136.419 27.4141C136.351 27.6589 136.317 27.9271 136.317 28.2188ZM152.903 21.5078H153.231V23.3047H153.099C152.505 23.3047 151.976 23.3932 151.513 23.5703C151.049 23.7474 150.656 24 150.333 24.3281C150.015 24.651 149.771 25.0417 149.599 25.5C149.432 25.9583 149.349 26.4714 149.349 27.0391V28.9297C149.349 29.3359 149.388 29.6953 149.466 30.0078C149.549 30.3151 149.666 30.5729 149.817 30.7812C149.974 30.9844 150.156 31.138 150.364 31.2422C150.573 31.3411 150.807 31.3906 151.067 31.3906C151.312 31.3906 151.534 31.3385 151.731 31.2344C151.935 31.1302 152.106 30.9844 152.247 30.7969C152.393 30.6042 152.502 30.3802 152.575 30.125C152.653 29.8646 152.692 29.5807 152.692 29.2734C152.692 28.9661 152.653 28.6823 152.575 28.4219C152.502 28.1615 152.393 27.9375 152.247 27.75C152.101 27.5573 151.924 27.4089 151.716 27.3047C151.507 27.2005 151.273 27.1484 151.013 27.1484C150.659 27.1484 150.346 27.2318 150.075 27.3984C149.81 27.5599 149.601 27.7682 149.45 28.0234C149.299 28.2786 149.218 28.5469 149.208 28.8281L148.528 28.3906C148.544 27.9896 148.627 27.6094 148.778 27.25C148.935 26.8906 149.148 26.5729 149.419 26.2969C149.695 26.0156 150.026 25.7969 150.411 25.6406C150.797 25.4792 151.231 25.3984 151.716 25.3984C152.247 25.3984 152.713 25.5 153.114 25.7031C153.521 25.9062 153.859 26.1849 154.13 26.5391C154.401 26.8932 154.604 27.3021 154.739 27.7656C154.875 28.2292 154.942 28.724 154.942 29.25C154.942 29.8021 154.851 30.3151 154.669 30.7891C154.492 31.263 154.234 31.6771 153.896 32.0312C153.562 32.3854 153.161 32.6615 152.692 32.8594C152.224 33.0573 151.698 33.1562 151.114 33.1562C150.51 33.1562 149.961 33.0469 149.466 32.8281C148.976 32.6042 148.554 32.2917 148.2 31.8906C147.846 31.4896 147.573 31.013 147.38 30.4609C147.192 29.9089 147.099 29.3047 147.099 28.6484V27.7734C147.099 26.8568 147.231 26.0182 147.497 25.2578C147.768 24.4922 148.156 23.8307 148.661 23.2734C149.166 22.7109 149.776 22.276 150.489 21.9688C151.203 21.6615 152.007 21.5078 152.903 21.5078ZM162.614 26.2969V33H160.356V24.5469H162.474L162.614 26.2969ZM162.302 28.4766H161.677C161.677 27.888 161.747 27.3464 161.888 26.8516C162.034 26.3516 162.244 25.9193 162.521 25.5547C162.802 25.1849 163.148 24.8984 163.56 24.6953C163.971 24.4922 164.448 24.3906 164.989 24.3906C165.364 24.3906 165.708 24.4479 166.021 24.5625C166.333 24.6719 166.601 24.8464 166.825 25.0859C167.054 25.3203 167.231 25.6276 167.356 26.0078C167.481 26.3828 167.544 26.8333 167.544 27.3594V33H165.294V27.6094C165.294 27.224 165.242 26.9271 165.138 26.7188C165.034 26.5104 164.885 26.3646 164.692 26.2812C164.505 26.1979 164.278 26.1562 164.013 26.1562C163.721 26.1562 163.466 26.2161 163.247 26.3359C163.034 26.4557 162.856 26.6224 162.716 26.8359C162.575 27.0443 162.471 27.2891 162.403 27.5703C162.336 27.8516 162.302 28.1536 162.302 28.4766ZM167.333 28.2188L166.528 28.3203C166.528 27.7682 166.596 27.2552 166.731 26.7812C166.872 26.3073 167.078 25.8906 167.349 25.5312C167.625 25.1719 167.966 24.8932 168.372 24.6953C168.778 24.4922 169.247 24.3906 169.778 24.3906C170.185 24.3906 170.554 24.4505 170.888 24.5703C171.221 24.6849 171.505 24.8698 171.739 25.125C171.979 25.375 172.161 25.7031 172.286 26.1094C172.416 26.5156 172.481 27.013 172.481 27.6016V33H170.224V27.6016C170.224 27.2109 170.172 26.9141 170.067 26.7109C169.968 26.5026 169.823 26.3594 169.63 26.2812C169.442 26.1979 169.218 26.1562 168.958 26.1562C168.687 26.1562 168.45 26.2109 168.247 26.3203C168.044 26.4245 167.875 26.5703 167.739 26.7578C167.604 26.9453 167.502 27.1641 167.435 27.4141C167.367 27.6589 167.333 27.9271 167.333 28.2188ZM178.114 33.1562C177.458 33.1562 176.869 33.0521 176.349 32.8438C175.828 32.6302 175.385 32.3359 175.021 31.9609C174.661 31.5859 174.385 31.151 174.192 30.6562C174 30.1562 173.903 29.625 173.903 29.0625V28.75C173.903 28.1094 173.994 27.5234 174.177 26.9922C174.359 26.4609 174.619 26 174.958 25.6094C175.302 25.2188 175.718 24.9193 176.208 24.7109C176.698 24.4974 177.25 24.3906 177.864 24.3906C178.463 24.3906 178.994 24.4896 179.458 24.6875C179.922 24.8854 180.31 25.1667 180.622 25.5312C180.94 25.8958 181.179 26.3333 181.341 26.8438C181.502 27.349 181.583 27.9115 181.583 28.5312V29.4688H174.864V27.9688H179.372V27.7969C179.372 27.4844 179.315 27.2057 179.2 26.9609C179.091 26.7109 178.924 26.513 178.7 26.3672C178.476 26.2214 178.19 26.1484 177.841 26.1484C177.544 26.1484 177.289 26.2135 177.075 26.3438C176.862 26.474 176.687 26.6562 176.552 26.8906C176.422 27.125 176.323 27.401 176.255 27.7188C176.192 28.0312 176.161 28.375 176.161 28.75V29.0625C176.161 29.401 176.208 29.7135 176.302 30C176.401 30.2865 176.539 30.5339 176.716 30.7422C176.898 30.9505 177.117 31.112 177.372 31.2266C177.632 31.3411 177.927 31.3984 178.255 31.3984C178.661 31.3984 179.039 31.3203 179.388 31.1641C179.742 31.0026 180.047 30.7604 180.302 30.4375L181.396 31.625C181.218 31.8802 180.976 32.125 180.669 32.3594C180.367 32.5938 180.002 32.7865 179.575 32.9375C179.148 33.0833 178.661 33.1562 178.114 33.1562ZM187.435 30.6641C187.435 30.5026 187.388 30.3568 187.294 30.2266C187.2 30.0964 187.026 29.9766 186.771 29.8672C186.521 29.7526 186.159 29.6484 185.685 29.5547C185.257 29.4609 184.859 29.3438 184.489 29.2031C184.125 29.0573 183.807 28.8828 183.536 28.6797C183.271 28.4766 183.062 28.237 182.911 27.9609C182.76 27.6797 182.685 27.3594 182.685 27C182.685 26.6458 182.76 26.3125 182.911 26C183.067 25.6875 183.289 25.4115 183.575 25.1719C183.867 24.9271 184.221 24.737 184.638 24.6016C185.06 24.4609 185.534 24.3906 186.06 24.3906C186.794 24.3906 187.424 24.5078 187.95 24.7422C188.481 24.9766 188.888 25.2995 189.169 25.7109C189.455 26.1172 189.599 26.5807 189.599 27.1016H187.349C187.349 26.8828 187.302 26.6875 187.208 26.5156C187.119 26.3385 186.979 26.2005 186.786 26.1016C186.599 25.9974 186.354 25.9453 186.052 25.9453C185.802 25.9453 185.586 25.9896 185.403 26.0781C185.221 26.1615 185.08 26.276 184.981 26.4219C184.888 26.5625 184.841 26.7188 184.841 26.8906C184.841 27.0208 184.867 27.138 184.919 27.2422C184.976 27.3411 185.067 27.4323 185.192 27.5156C185.317 27.599 185.479 27.6771 185.677 27.75C185.88 27.8177 186.13 27.8802 186.427 27.9375C187.036 28.0625 187.58 28.2266 188.06 28.4297C188.539 28.6276 188.919 28.8984 189.2 29.2422C189.481 29.5807 189.622 30.026 189.622 30.5781C189.622 30.9531 189.539 31.2969 189.372 31.6094C189.205 31.9219 188.966 32.1953 188.653 32.4297C188.341 32.6589 187.966 32.8385 187.528 32.9688C187.096 33.0938 186.609 33.1562 186.067 33.1562C185.281 33.1562 184.614 33.0156 184.067 32.7344C183.526 32.4531 183.114 32.0964 182.833 31.6641C182.557 31.2266 182.419 30.7786 182.419 30.3203H184.552C184.562 30.6276 184.64 30.875 184.786 31.0625C184.937 31.25 185.127 31.3854 185.356 31.4688C185.591 31.5521 185.843 31.5938 186.114 31.5938C186.406 31.5938 186.648 31.5547 186.841 31.4766C187.034 31.3932 187.179 31.2839 187.278 31.1484C187.382 31.0078 187.435 30.8464 187.435 30.6641ZM194.974 33.1562C194.317 33.1562 193.729 33.0521 193.208 32.8438C192.687 32.6302 192.244 32.3359 191.88 31.9609C191.521 31.5859 191.244 31.151 191.052 30.6562C190.859 30.1562 190.763 29.625 190.763 29.0625V28.75C190.763 28.1094 190.854 27.5234 191.036 26.9922C191.218 26.4609 191.479 26 191.817 25.6094C192.161 25.2188 192.578 24.9193 193.067 24.7109C193.557 24.4974 194.109 24.3906 194.724 24.3906C195.323 24.3906 195.854 24.4896 196.317 24.6875C196.781 24.8854 197.169 25.1667 197.481 25.5312C197.799 25.8958 198.039 26.3333 198.2 26.8438C198.362 27.349 198.442 27.9115 198.442 28.5312V29.4688H191.724V27.9688H196.231V27.7969C196.231 27.4844 196.174 27.2057 196.06 26.9609C195.95 26.7109 195.784 26.513 195.56 26.3672C195.336 26.2214 195.049 26.1484 194.7 26.1484C194.403 26.1484 194.148 26.2135 193.935 26.3438C193.721 26.474 193.547 26.6562 193.411 26.8906C193.281 27.125 193.182 27.401 193.114 27.7188C193.052 28.0312 193.021 28.375 193.021 28.75V29.0625C193.021 29.401 193.067 29.7135 193.161 30C193.26 30.2865 193.398 30.5339 193.575 30.7422C193.757 30.9505 193.976 31.112 194.231 31.2266C194.492 31.3411 194.786 31.3984 195.114 31.3984C195.521 31.3984 195.898 31.3203 196.247 31.1641C196.601 31.0026 196.906 30.7604 197.161 30.4375L198.255 31.625C198.078 31.8802 197.836 32.125 197.528 32.3594C197.226 32.5938 196.862 32.7865 196.435 32.9375C196.007 33.0833 195.521 33.1562 194.974 33.1562ZM204.294 30.6641C204.294 30.5026 204.247 30.3568 204.153 30.2266C204.06 30.0964 203.885 29.9766 203.63 29.8672C203.38 29.7526 203.018 29.6484 202.544 29.5547C202.117 29.4609 201.718 29.3438 201.349 29.2031C200.984 29.0573 200.666 28.8828 200.396 28.6797C200.13 28.4766 199.922 28.237 199.771 27.9609C199.619 27.6797 199.544 27.3594 199.544 27C199.544 26.6458 199.619 26.3125 199.771 26C199.927 25.6875 200.148 25.4115 200.435 25.1719C200.726 24.9271 201.08 24.737 201.497 24.6016C201.919 24.4609 202.393 24.3906 202.919 24.3906C203.653 24.3906 204.284 24.5078 204.81 24.7422C205.341 24.9766 205.747 25.2995 206.028 25.7109C206.315 26.1172 206.458 26.5807 206.458 27.1016H204.208C204.208 26.8828 204.161 26.6875 204.067 26.5156C203.979 26.3385 203.838 26.2005 203.646 26.1016C203.458 25.9974 203.213 25.9453 202.911 25.9453C202.661 25.9453 202.445 25.9896 202.263 26.0781C202.08 26.1615 201.94 26.276 201.841 26.4219C201.747 26.5625 201.7 26.7188 201.7 26.8906C201.7 27.0208 201.726 27.138 201.778 27.2422C201.836 27.3411 201.927 27.4323 202.052 27.5156C202.177 27.599 202.338 27.6771 202.536 27.75C202.739 27.8177 202.989 27.8802 203.286 27.9375C203.896 28.0625 204.44 28.2266 204.919 28.4297C205.398 28.6276 205.778 28.8984 206.06 29.2422C206.341 29.5807 206.481 30.026 206.481 30.5781C206.481 30.9531 206.398 31.2969 206.231 31.6094C206.065 31.9219 205.825 32.1953 205.513 32.4297C205.2 32.6589 204.825 32.8385 204.388 32.9688C203.955 33.0938 203.468 33.1562 202.927 33.1562C202.14 33.1562 201.474 33.0156 200.927 32.7344C200.385 32.4531 199.974 32.0964 199.692 31.6641C199.416 31.2266 199.278 30.7786 199.278 30.3203H201.411C201.422 30.6276 201.5 30.875 201.646 31.0625C201.797 31.25 201.987 31.3854 202.216 31.4688C202.45 31.5521 202.703 31.5938 202.974 31.5938C203.265 31.5938 203.507 31.5547 203.7 31.4766C203.893 31.3932 204.039 31.2839 204.138 31.1484C204.242 31.0078 204.294 30.8464 204.294 30.6641ZM214.177 26.1719V36.25H211.927V24.5469H214.013L214.177 26.1719ZM219.528 28.6797V28.8438C219.528 29.4583 219.455 30.0286 219.31 30.5547C219.169 31.0807 218.961 31.5391 218.685 31.9297C218.409 32.3151 218.065 32.6172 217.653 32.8359C217.247 33.0495 216.778 33.1562 216.247 33.1562C215.731 33.1562 215.284 33.0521 214.903 32.8438C214.523 32.6354 214.203 32.3438 213.942 31.9688C213.687 31.5885 213.481 31.1484 213.325 30.6484C213.169 30.1484 213.049 29.612 212.966 29.0391V28.6094C213.049 27.9948 213.169 27.4323 213.325 26.9219C213.481 26.4062 213.687 25.9609 213.942 25.5859C214.203 25.2057 214.521 24.9115 214.896 24.7031C215.276 24.4948 215.721 24.3906 216.231 24.3906C216.768 24.3906 217.239 24.4922 217.646 24.6953C218.057 24.8984 218.401 25.1901 218.677 25.5703C218.958 25.9505 219.169 26.4036 219.31 26.9297C219.455 27.4557 219.528 28.0391 219.528 28.6797ZM217.271 28.8438V28.6797C217.271 28.3203 217.239 27.9896 217.177 27.6875C217.119 27.3802 217.026 27.112 216.896 26.8828C216.771 26.6536 216.604 26.4766 216.396 26.3516C216.192 26.2214 215.945 26.1562 215.653 26.1562C215.346 26.1562 215.083 26.2057 214.864 26.3047C214.651 26.4036 214.476 26.5469 214.341 26.7344C214.205 26.9219 214.104 27.1458 214.036 27.4062C213.968 27.6667 213.927 27.9609 213.911 28.2891V29.375C213.937 29.7604 214.01 30.1068 214.13 30.4141C214.25 30.7161 214.435 30.9557 214.685 31.1328C214.935 31.3099 215.263 31.3984 215.669 31.3984C215.966 31.3984 216.216 31.3333 216.419 31.2031C216.622 31.0677 216.786 30.8828 216.911 30.6484C217.041 30.4141 217.132 30.1432 217.185 29.8359C217.242 29.5286 217.271 29.1979 217.271 28.8438ZM225.489 31.0938V27.3281C225.489 27.0573 225.445 26.8255 225.356 26.6328C225.268 26.4349 225.13 26.2812 224.942 26.1719C224.76 26.0625 224.523 26.0078 224.231 26.0078C223.981 26.0078 223.765 26.0521 223.583 26.1406C223.401 26.224 223.26 26.3464 223.161 26.5078C223.062 26.6641 223.013 26.849 223.013 27.0625H220.763C220.763 26.7031 220.846 26.362 221.013 26.0391C221.179 25.7161 221.422 25.4323 221.739 25.1875C222.057 24.9375 222.435 24.7422 222.872 24.6016C223.315 24.4609 223.81 24.3906 224.356 24.3906C225.013 24.3906 225.596 24.5 226.106 24.7188C226.617 24.9375 227.018 25.2656 227.31 25.7031C227.606 26.1406 227.755 26.6875 227.755 27.3438V30.9609C227.755 31.4245 227.784 31.8047 227.841 32.1016C227.898 32.3932 227.981 32.6484 228.091 32.8672V33H225.817C225.708 32.7708 225.625 32.4844 225.567 32.1406C225.515 31.7917 225.489 31.4427 225.489 31.0938ZM225.786 27.8516L225.802 29.125H224.544C224.247 29.125 223.989 29.1589 223.771 29.2266C223.552 29.2943 223.372 29.3906 223.231 29.5156C223.091 29.6354 222.987 29.776 222.919 29.9375C222.856 30.099 222.825 30.276 222.825 30.4688C222.825 30.6615 222.869 30.8359 222.958 30.9922C223.047 31.1432 223.174 31.263 223.341 31.3516C223.507 31.4349 223.703 31.4766 223.927 31.4766C224.265 31.4766 224.56 31.4089 224.81 31.2734C225.06 31.138 225.252 30.9714 225.388 30.7734C225.528 30.5755 225.601 30.388 225.606 30.2109L226.2 31.1641C226.117 31.3776 226.002 31.599 225.856 31.8281C225.716 32.0573 225.536 32.2734 225.317 32.4766C225.099 32.6745 224.836 32.8385 224.528 32.9688C224.221 33.0938 223.856 33.1562 223.435 33.1562C222.898 33.1562 222.411 33.0495 221.974 32.8359C221.541 32.6172 221.198 32.3177 220.942 31.9375C220.692 31.5521 220.567 31.1146 220.567 30.625C220.567 30.1823 220.651 29.7891 220.817 29.4453C220.984 29.1016 221.229 28.8125 221.552 28.5781C221.88 28.3385 222.289 28.1589 222.778 28.0391C223.268 27.9141 223.836 27.8516 224.481 27.8516H225.786ZM231.739 26.3906V33H229.489V24.5469H231.606L231.739 26.3906ZM234.286 24.4922L234.247 26.5781C234.138 26.5625 234.005 26.5495 233.849 26.5391C233.698 26.5234 233.56 26.5156 233.435 26.5156C233.117 26.5156 232.841 26.5573 232.606 26.6406C232.377 26.7188 232.185 26.8359 232.028 26.9922C231.877 27.1484 231.763 27.3385 231.685 27.5625C231.612 27.7865 231.57 28.0417 231.56 28.3281L231.106 28.1875C231.106 27.6406 231.161 27.138 231.271 26.6797C231.38 26.2161 231.539 25.8125 231.747 25.4688C231.961 25.125 232.221 24.8594 232.528 24.6719C232.836 24.4844 233.187 24.3906 233.583 24.3906C233.708 24.3906 233.836 24.401 233.966 24.4219C234.096 24.4375 234.203 24.4609 234.286 24.4922ZM239.646 31.0938V27.3281C239.646 27.0573 239.601 26.8255 239.513 26.6328C239.424 26.4349 239.286 26.2812 239.099 26.1719C238.916 26.0625 238.679 26.0078 238.388 26.0078C238.138 26.0078 237.922 26.0521 237.739 26.1406C237.557 26.224 237.416 26.3464 237.317 26.5078C237.218 26.6641 237.169 26.849 237.169 27.0625H234.919C234.919 26.7031 235.002 26.362 235.169 26.0391C235.336 25.7161 235.578 25.4323 235.896 25.1875C236.213 24.9375 236.591 24.7422 237.028 24.6016C237.471 24.4609 237.966 24.3906 238.513 24.3906C239.169 24.3906 239.752 24.5 240.263 24.7188C240.773 24.9375 241.174 25.2656 241.466 25.7031C241.763 26.1406 241.911 26.6875 241.911 27.3438V30.9609C241.911 31.4245 241.94 31.8047 241.997 32.1016C242.054 32.3932 242.138 32.6484 242.247 32.8672V33H239.974C239.864 32.7708 239.781 32.4844 239.724 32.1406C239.672 31.7917 239.646 31.4427 239.646 31.0938ZM239.942 27.8516L239.958 29.125H238.7C238.403 29.125 238.146 29.1589 237.927 29.2266C237.708 29.2943 237.528 29.3906 237.388 29.5156C237.247 29.6354 237.143 29.776 237.075 29.9375C237.013 30.099 236.981 30.276 236.981 30.4688C236.981 30.6615 237.026 30.8359 237.114 30.9922C237.203 31.1432 237.33 31.263 237.497 31.3516C237.664 31.4349 237.859 31.4766 238.083 31.4766C238.422 31.4766 238.716 31.4089 238.966 31.2734C239.216 31.138 239.409 30.9714 239.544 30.7734C239.685 30.5755 239.757 30.388 239.763 30.2109L240.356 31.1641C240.273 31.3776 240.159 31.599 240.013 31.8281C239.872 32.0573 239.692 32.2734 239.474 32.4766C239.255 32.6745 238.992 32.8385 238.685 32.9688C238.377 33.0938 238.013 33.1562 237.591 33.1562C237.054 33.1562 236.567 33.0495 236.13 32.8359C235.698 32.6172 235.354 32.3177 235.099 31.9375C234.849 31.5521 234.724 31.1146 234.724 30.625C234.724 30.1823 234.807 29.7891 234.974 29.4453C235.14 29.1016 235.385 28.8125 235.708 28.5781C236.036 28.3385 236.445 28.1589 236.935 28.0391C237.424 27.9141 237.992 27.8516 238.638 27.8516H239.942ZM77.4424 50.3906V57H75.1924V48.5469H77.3096L77.4424 50.3906ZM79.9893 48.4922L79.9502 50.5781C79.8408 50.5625 79.708 50.5495 79.5518 50.5391C79.4007 50.5234 79.2627 50.5156 79.1377 50.5156C78.82 50.5156 78.5439 50.5573 78.3096 50.6406C78.0804 50.7188 77.8877 50.8359 77.7314 50.9922C77.5804 51.1484 77.4658 51.3385 77.3877 51.5625C77.3148 51.7865 77.2731 52.0417 77.2627 52.3281L76.8096 52.1875C76.8096 51.6406 76.8643 51.138 76.9736 50.6797C77.083 50.2161 77.2419 49.8125 77.4502 49.4688C77.6637 49.125 77.9242 48.8594 78.2314 48.6719C78.5387 48.4844 78.8903 48.3906 79.2861 48.3906C79.4111 48.3906 79.5387 48.401 79.6689 48.4219C79.7992 48.4375 79.9059 48.4609 79.9893 48.4922ZM84.7861 57.1562C84.1299 57.1562 83.5413 57.0521 83.0205 56.8438C82.4997 56.6302 82.057 56.3359 81.6924 55.9609C81.333 55.5859 81.057 55.151 80.8643 54.6562C80.6715 54.1562 80.5752 53.625 80.5752 53.0625V52.75C80.5752 52.1094 80.6663 51.5234 80.8486 50.9922C81.0309 50.4609 81.2913 50 81.6299 49.6094C81.9736 49.2188 82.3903 48.9193 82.8799 48.7109C83.3695 48.4974 83.9215 48.3906 84.5361 48.3906C85.1351 48.3906 85.6663 48.4896 86.1299 48.6875C86.5934 48.8854 86.9814 49.1667 87.2939 49.5312C87.6117 49.8958 87.8512 50.3333 88.0127 50.8438C88.1742 51.349 88.2549 51.9115 88.2549 52.5312V53.4688H81.5361V51.9688H86.0439V51.7969C86.0439 51.4844 85.9867 51.2057 85.8721 50.9609C85.7627 50.7109 85.596 50.513 85.3721 50.3672C85.1481 50.2214 84.8617 50.1484 84.5127 50.1484C84.2158 50.1484 83.9606 50.2135 83.7471 50.3438C83.5335 50.474 83.359 50.6562 83.2236 50.8906C83.0934 51.125 82.9945 51.401 82.9268 51.7188C82.8643 52.0312 82.833 52.375 82.833 52.75V53.0625C82.833 53.401 82.8799 53.7135 82.9736 54C83.0726 54.2865 83.2106 54.5339 83.3877 54.7422C83.57 54.9505 83.7887 55.112 84.0439 55.2266C84.3044 55.3411 84.5986 55.3984 84.9268 55.3984C85.333 55.3984 85.7106 55.3203 86.0596 55.1641C86.4137 55.0026 86.7184 54.7604 86.9736 54.4375L88.0674 55.625C87.8903 55.8802 87.6481 56.125 87.3408 56.3594C87.0387 56.5938 86.6742 56.7865 86.2471 56.9375C85.82 57.0833 85.333 57.1562 84.7861 57.1562ZM94.1064 54.6641C94.1064 54.5026 94.0596 54.3568 93.9658 54.2266C93.8721 54.0964 93.6976 53.9766 93.4424 53.8672C93.1924 53.7526 92.8304 53.6484 92.3564 53.5547C91.9294 53.4609 91.5309 53.3438 91.1611 53.2031C90.7965 53.0573 90.4788 52.8828 90.208 52.6797C89.9424 52.4766 89.734 52.237 89.583 51.9609C89.432 51.6797 89.3564 51.3594 89.3564 51C89.3564 50.6458 89.432 50.3125 89.583 50C89.7393 49.6875 89.9606 49.4115 90.2471 49.1719C90.5387 48.9271 90.8929 48.737 91.3096 48.6016C91.7314 48.4609 92.2054 48.3906 92.7314 48.3906C93.4658 48.3906 94.096 48.5078 94.6221 48.7422C95.1533 48.9766 95.5596 49.2995 95.8408 49.7109C96.1273 50.1172 96.2705 50.5807 96.2705 51.1016H94.0205C94.0205 50.8828 93.9736 50.6875 93.8799 50.5156C93.7913 50.3385 93.6507 50.2005 93.458 50.1016C93.2705 49.9974 93.0257 49.9453 92.7236 49.9453C92.4736 49.9453 92.2575 49.9896 92.0752 50.0781C91.8929 50.1615 91.7523 50.276 91.6533 50.4219C91.5596 50.5625 91.5127 50.7188 91.5127 50.8906C91.5127 51.0208 91.5387 51.138 91.5908 51.2422C91.6481 51.3411 91.7393 51.4323 91.8643 51.5156C91.9893 51.599 92.1507 51.6771 92.3486 51.75C92.5518 51.8177 92.8018 51.8802 93.0986 51.9375C93.708 52.0625 94.2523 52.2266 94.7314 52.4297C95.2106 52.6276 95.5908 52.8984 95.8721 53.2422C96.1533 53.5807 96.2939 54.026 96.2939 54.5781C96.2939 54.9531 96.2106 55.2969 96.0439 55.6094C95.8773 55.9219 95.6377 56.1953 95.3252 56.4297C95.0127 56.6589 94.6377 56.8385 94.2002 56.9688C93.7679 57.0938 93.2809 57.1562 92.7393 57.1562C91.9528 57.1562 91.2861 57.0156 90.7393 56.7344C90.1976 56.4531 89.7861 56.0964 89.5049 55.6641C89.2288 55.2266 89.0908 54.7786 89.0908 54.3203H91.2236C91.234 54.6276 91.3122 54.875 91.458 55.0625C91.609 55.25 91.7992 55.3854 92.0283 55.4688C92.2627 55.5521 92.5153 55.5938 92.7861 55.5938C93.0778 55.5938 93.32 55.5547 93.5127 55.4766C93.7054 55.3932 93.8512 55.2839 93.9502 55.1484C94.0544 55.0078 94.1064 54.8464 94.1064 54.6641ZM103.106 48.5469H105.146V56.7188C105.146 57.4896 104.974 58.1432 104.63 58.6797C104.291 59.2214 103.817 59.6302 103.208 59.9062C102.599 60.1875 101.89 60.3281 101.083 60.3281C100.729 60.3281 100.354 60.2812 99.958 60.1875C99.5674 60.0938 99.1924 59.9479 98.833 59.75C98.4788 59.5521 98.182 59.3021 97.9424 59L98.9346 57.6719C99.195 57.974 99.4971 58.2083 99.8408 58.375C100.185 58.5469 100.565 58.6328 100.981 58.6328C101.388 58.6328 101.731 58.5573 102.013 58.4062C102.294 58.2604 102.51 58.0443 102.661 57.7578C102.812 57.4766 102.888 57.1354 102.888 56.7344V50.5L103.106 48.5469ZM97.4189 52.875V52.7109C97.4189 52.0651 97.4971 51.4792 97.6533 50.9531C97.8148 50.4219 98.0413 49.9661 98.333 49.5859C98.6299 49.2057 98.9893 48.9115 99.4111 48.7031C99.833 48.4948 100.31 48.3906 100.841 48.3906C101.403 48.3906 101.875 48.4948 102.255 48.7031C102.635 48.9115 102.948 49.2083 103.192 49.5938C103.437 49.974 103.627 50.4245 103.763 50.9453C103.903 51.4609 104.013 52.026 104.091 52.6406V53C104.013 53.5885 103.896 54.1354 103.739 54.6406C103.583 55.1458 103.377 55.5885 103.122 55.9688C102.867 56.3438 102.549 56.6354 102.169 56.8438C101.794 57.0521 101.346 57.1562 100.825 57.1562C100.304 57.1562 99.833 57.0495 99.4111 56.8359C98.9945 56.6224 98.6377 56.3229 98.3408 55.9375C98.0439 55.5521 97.8148 55.099 97.6533 54.5781C97.4971 54.0573 97.4189 53.4896 97.4189 52.875ZM99.6689 52.7109V52.875C99.6689 53.224 99.7028 53.5495 99.7705 53.8516C99.8382 54.1536 99.9424 54.4219 100.083 54.6562C100.229 54.8854 100.409 55.0651 100.622 55.1953C100.841 55.3203 101.099 55.3828 101.396 55.3828C101.807 55.3828 102.143 55.2969 102.403 55.125C102.664 54.9479 102.859 54.7057 102.989 54.3984C103.119 54.0911 103.195 53.737 103.216 53.3359V52.3125C103.205 51.9844 103.161 51.6901 103.083 51.4297C103.005 51.1641 102.896 50.9375 102.755 50.75C102.614 50.5625 102.432 50.4167 102.208 50.3125C101.984 50.2083 101.718 50.1562 101.411 50.1562C101.114 50.1562 100.856 50.224 100.638 50.3594C100.424 50.4896 100.244 50.6693 100.099 50.8984C99.958 51.1276 99.8512 51.3984 99.7783 51.7109C99.7054 52.0182 99.6689 52.3516 99.6689 52.7109ZM111.458 55.0938V51.3281C111.458 51.0573 111.414 50.8255 111.325 50.6328C111.237 50.4349 111.099 50.2812 110.911 50.1719C110.729 50.0625 110.492 50.0078 110.2 50.0078C109.95 50.0078 109.734 50.0521 109.552 50.1406C109.369 50.224 109.229 50.3464 109.13 50.5078C109.031 50.6641 108.981 50.849 108.981 51.0625H106.731C106.731 50.7031 106.815 50.362 106.981 50.0391C107.148 49.7161 107.39 49.4323 107.708 49.1875C108.026 48.9375 108.403 48.7422 108.841 48.6016C109.284 48.4609 109.778 48.3906 110.325 48.3906C110.981 48.3906 111.565 48.5 112.075 48.7188C112.586 48.9375 112.987 49.2656 113.278 49.7031C113.575 50.1406 113.724 50.6875 113.724 51.3438V54.9609C113.724 55.4245 113.752 55.8047 113.81 56.1016C113.867 56.3932 113.95 56.6484 114.06 56.8672V57H111.786C111.677 56.7708 111.593 56.4844 111.536 56.1406C111.484 55.7917 111.458 55.4427 111.458 55.0938ZM111.755 51.8516L111.771 53.125H110.513C110.216 53.125 109.958 53.1589 109.739 53.2266C109.521 53.2943 109.341 53.3906 109.2 53.5156C109.06 53.6354 108.955 53.776 108.888 53.9375C108.825 54.099 108.794 54.276 108.794 54.4688C108.794 54.6615 108.838 54.8359 108.927 54.9922C109.015 55.1432 109.143 55.263 109.31 55.3516C109.476 55.4349 109.672 55.4766 109.896 55.4766C110.234 55.4766 110.528 55.4089 110.778 55.2734C111.028 55.138 111.221 54.9714 111.356 54.7734C111.497 54.5755 111.57 54.388 111.575 54.2109L112.169 55.1641C112.086 55.3776 111.971 55.599 111.825 55.8281C111.685 56.0573 111.505 56.2734 111.286 56.4766C111.067 56.6745 110.804 56.8385 110.497 56.9688C110.19 57.0938 109.825 57.1562 109.403 57.1562C108.867 57.1562 108.38 57.0495 107.942 56.8359C107.51 56.6172 107.166 56.3177 106.911 55.9375C106.661 55.5521 106.536 55.1146 106.536 54.625C106.536 54.1823 106.619 53.7891 106.786 53.4453C106.953 53.1016 107.198 52.8125 107.521 52.5781C107.849 52.3385 108.257 52.1589 108.747 52.0391C109.237 51.9141 109.804 51.8516 110.45 51.8516H111.755ZM119.599 48.5469V50.1406H114.677V48.5469H119.599ZM115.896 46.4609H118.146V54.4531C118.146 54.6979 118.177 54.8854 118.239 55.0156C118.307 55.1458 118.406 55.237 118.536 55.2891C118.666 55.3359 118.83 55.3594 119.028 55.3594C119.169 55.3594 119.294 55.3542 119.403 55.3438C119.518 55.3281 119.614 55.3125 119.692 55.2969L119.7 56.9531C119.507 57.0156 119.299 57.0651 119.075 57.1016C118.851 57.138 118.604 57.1562 118.333 57.1562C117.838 57.1562 117.406 57.0755 117.036 56.9141C116.672 56.7474 116.39 56.4818 116.192 56.1172C115.994 55.7526 115.896 55.2734 115.896 54.6797V46.4609ZM125.442 55.0938V51.3281C125.442 51.0573 125.398 50.8255 125.31 50.6328C125.221 50.4349 125.083 50.2812 124.896 50.1719C124.713 50.0625 124.476 50.0078 124.185 50.0078C123.935 50.0078 123.718 50.0521 123.536 50.1406C123.354 50.224 123.213 50.3464 123.114 50.5078C123.015 50.6641 122.966 50.849 122.966 51.0625H120.716C120.716 50.7031 120.799 50.362 120.966 50.0391C121.132 49.7161 121.375 49.4323 121.692 49.1875C122.01 48.9375 122.388 48.7422 122.825 48.6016C123.268 48.4609 123.763 48.3906 124.31 48.3906C124.966 48.3906 125.549 48.5 126.06 48.7188C126.57 48.9375 126.971 49.2656 127.263 49.7031C127.56 50.1406 127.708 50.6875 127.708 51.3438V54.9609C127.708 55.4245 127.737 55.8047 127.794 56.1016C127.851 56.3932 127.935 56.6484 128.044 56.8672V57H125.771C125.661 56.7708 125.578 56.4844 125.521 56.1406C125.468 55.7917 125.442 55.4427 125.442 55.0938ZM125.739 51.8516L125.755 53.125H124.497C124.2 53.125 123.942 53.1589 123.724 53.2266C123.505 53.2943 123.325 53.3906 123.185 53.5156C123.044 53.6354 122.94 53.776 122.872 53.9375C122.81 54.099 122.778 54.276 122.778 54.4688C122.778 54.6615 122.823 54.8359 122.911 54.9922C123 55.1432 123.127 55.263 123.294 55.3516C123.461 55.4349 123.656 55.4766 123.88 55.4766C124.218 55.4766 124.513 55.4089 124.763 55.2734C125.013 55.138 125.205 54.9714 125.341 54.7734C125.481 54.5755 125.554 54.388 125.56 54.2109L126.153 55.1641C126.07 55.3776 125.955 55.599 125.81 55.8281C125.669 56.0573 125.489 56.2734 125.271 56.4766C125.052 56.6745 124.789 56.8385 124.481 56.9688C124.174 57.0938 123.81 57.1562 123.388 57.1562C122.851 57.1562 122.364 57.0495 121.927 56.8359C121.494 56.6172 121.151 56.3177 120.896 55.9375C120.646 55.5521 120.521 55.1146 120.521 54.625C120.521 54.1823 120.604 53.7891 120.771 53.4453C120.937 53.1016 121.182 52.8125 121.505 52.5781C121.833 52.3385 122.242 52.1589 122.731 52.0391C123.221 51.9141 123.789 51.8516 124.435 51.8516H125.739ZM131.692 50.3906V57H129.442V48.5469H131.56L131.692 50.3906ZM134.239 48.4922L134.2 50.5781C134.091 50.5625 133.958 50.5495 133.802 50.5391C133.651 50.5234 133.513 50.5156 133.388 50.5156C133.07 50.5156 132.794 50.5573 132.56 50.6406C132.33 50.7188 132.138 50.8359 131.981 50.9922C131.83 51.1484 131.716 51.3385 131.638 51.5625C131.565 51.7865 131.523 52.0417 131.513 52.3281L131.06 52.1875C131.06 51.6406 131.114 51.138 131.224 50.6797C131.333 50.2161 131.492 49.8125 131.7 49.4688C131.914 49.125 132.174 48.8594 132.481 48.6719C132.789 48.4844 133.14 48.3906 133.536 48.3906C133.661 48.3906 133.789 48.401 133.919 48.4219C134.049 48.4375 134.156 48.4609 134.239 48.4922ZM143.856 54.6641C143.856 54.5026 143.81 54.3568 143.716 54.2266C143.622 54.0964 143.448 53.9766 143.192 53.8672C142.942 53.7526 142.58 53.6484 142.106 53.5547C141.679 53.4609 141.281 53.3438 140.911 53.2031C140.547 53.0573 140.229 52.8828 139.958 52.6797C139.692 52.4766 139.484 52.237 139.333 51.9609C139.182 51.6797 139.106 51.3594 139.106 51C139.106 50.6458 139.182 50.3125 139.333 50C139.489 49.6875 139.711 49.4115 139.997 49.1719C140.289 48.9271 140.643 48.737 141.06 48.6016C141.481 48.4609 141.955 48.3906 142.481 48.3906C143.216 48.3906 143.846 48.5078 144.372 48.7422C144.903 48.9766 145.31 49.2995 145.591 49.7109C145.877 50.1172 146.021 50.5807 146.021 51.1016H143.771C143.771 50.8828 143.724 50.6875 143.63 50.5156C143.541 50.3385 143.401 50.2005 143.208 50.1016C143.021 49.9974 142.776 49.9453 142.474 49.9453C142.224 49.9453 142.007 49.9896 141.825 50.0781C141.643 50.1615 141.502 50.276 141.403 50.4219C141.31 50.5625 141.263 50.7188 141.263 50.8906C141.263 51.0208 141.289 51.138 141.341 51.2422C141.398 51.3411 141.489 51.4323 141.614 51.5156C141.739 51.599 141.901 51.6771 142.099 51.75C142.302 51.8177 142.552 51.8802 142.849 51.9375C143.458 52.0625 144.002 52.2266 144.481 52.4297C144.961 52.6276 145.341 52.8984 145.622 53.2422C145.903 53.5807 146.044 54.026 146.044 54.5781C146.044 54.9531 145.961 55.2969 145.794 55.6094C145.627 55.9219 145.388 56.1953 145.075 56.4297C144.763 56.6589 144.388 56.8385 143.95 56.9688C143.518 57.0938 143.031 57.1562 142.489 57.1562C141.703 57.1562 141.036 57.0156 140.489 56.7344C139.948 56.4531 139.536 56.0964 139.255 55.6641C138.979 55.2266 138.841 54.7786 138.841 54.3203H140.974C140.984 54.6276 141.062 54.875 141.208 55.0625C141.359 55.25 141.549 55.3854 141.778 55.4688C142.013 55.5521 142.265 55.5938 142.536 55.5938C142.828 55.5938 143.07 55.5547 143.263 55.4766C143.455 55.3932 143.601 55.2839 143.7 55.1484C143.804 55.0078 143.856 54.8464 143.856 54.6641ZM151.396 57.1562C150.739 57.1562 150.151 57.0521 149.63 56.8438C149.109 56.6302 148.666 56.3359 148.302 55.9609C147.942 55.5859 147.666 55.151 147.474 54.6562C147.281 54.1562 147.185 53.625 147.185 53.0625V52.75C147.185 52.1094 147.276 51.5234 147.458 50.9922C147.64 50.4609 147.901 50 148.239 49.6094C148.583 49.2188 149 48.9193 149.489 48.7109C149.979 48.4974 150.531 48.3906 151.146 48.3906C151.744 48.3906 152.276 48.4896 152.739 48.6875C153.203 48.8854 153.591 49.1667 153.903 49.5312C154.221 49.8958 154.461 50.3333 154.622 50.8438C154.784 51.349 154.864 51.9115 154.864 52.5312V53.4688H148.146V51.9688H152.653V51.7969C152.653 51.4844 152.596 51.2057 152.481 50.9609C152.372 50.7109 152.205 50.513 151.981 50.3672C151.757 50.2214 151.471 50.1484 151.122 50.1484C150.825 50.1484 150.57 50.2135 150.356 50.3438C150.143 50.474 149.968 50.6562 149.833 50.8906C149.703 51.125 149.604 51.401 149.536 51.7188C149.474 52.0312 149.442 52.375 149.442 52.75V53.0625C149.442 53.401 149.489 53.7135 149.583 54C149.682 54.2865 149.82 54.5339 149.997 54.7422C150.179 54.9505 150.398 55.112 150.653 55.2266C150.914 55.3411 151.208 55.3984 151.536 55.3984C151.942 55.3984 152.32 55.3203 152.669 55.1641C153.023 55.0026 153.328 54.7604 153.583 54.4375L154.677 55.625C154.5 55.8802 154.257 56.125 153.95 56.3594C153.648 56.5938 153.284 56.7865 152.856 56.9375C152.429 57.0833 151.942 57.1562 151.396 57.1562ZM161.146 54.9766V48.5469H163.396V57H161.278L161.146 54.9766ZM161.396 53.2422L162.06 53.2266C162.06 53.7891 161.994 54.3125 161.864 54.7969C161.734 55.276 161.539 55.6927 161.278 56.0469C161.018 56.3958 160.69 56.6693 160.294 56.8672C159.898 57.0599 159.432 57.1562 158.896 57.1562C158.484 57.1562 158.104 57.099 157.755 56.9844C157.411 56.8646 157.114 56.6797 156.864 56.4297C156.619 56.1745 156.427 55.849 156.286 55.4531C156.151 55.0521 156.083 54.5703 156.083 54.0078V48.5469H158.333V54.0234C158.333 54.2734 158.362 54.4844 158.419 54.6562C158.481 54.8281 158.567 54.9688 158.677 55.0781C158.786 55.1875 158.914 55.2656 159.06 55.3125C159.211 55.3594 159.377 55.3828 159.56 55.3828C160.023 55.3828 160.388 55.2891 160.653 55.1016C160.924 54.9141 161.114 54.6589 161.224 54.3359C161.338 54.0078 161.396 53.6432 161.396 53.2422ZM171.349 50.1719V60.25H169.099V48.5469H171.185L171.349 50.1719ZM176.7 52.6797V52.8438C176.7 53.4583 176.627 54.0286 176.481 54.5547C176.341 55.0807 176.132 55.5391 175.856 55.9297C175.58 56.3151 175.237 56.6172 174.825 56.8359C174.419 57.0495 173.95 57.1562 173.419 57.1562C172.903 57.1562 172.455 57.0521 172.075 56.8438C171.695 56.6354 171.375 56.3438 171.114 55.9688C170.859 55.5885 170.653 55.1484 170.497 54.6484C170.341 54.1484 170.221 53.612 170.138 53.0391V52.6094C170.221 51.9948 170.341 51.4323 170.497 50.9219C170.653 50.4062 170.859 49.9609 171.114 49.5859C171.375 49.2057 171.692 48.9115 172.067 48.7031C172.448 48.4948 172.893 48.3906 173.403 48.3906C173.94 48.3906 174.411 48.4922 174.817 48.6953C175.229 48.8984 175.573 49.1901 175.849 49.5703C176.13 49.9505 176.341 50.4036 176.481 50.9297C176.627 51.4557 176.7 52.0391 176.7 52.6797ZM174.442 52.8438V52.6797C174.442 52.3203 174.411 51.9896 174.349 51.6875C174.291 51.3802 174.198 51.112 174.067 50.8828C173.942 50.6536 173.776 50.4766 173.567 50.3516C173.364 50.2214 173.117 50.1562 172.825 50.1562C172.518 50.1562 172.255 50.2057 172.036 50.3047C171.823 50.4036 171.648 50.5469 171.513 50.7344C171.377 50.9219 171.276 51.1458 171.208 51.4062C171.14 51.6667 171.099 51.9609 171.083 52.2891V53.375C171.109 53.7604 171.182 54.1068 171.302 54.4141C171.422 54.7161 171.606 54.9557 171.856 55.1328C172.106 55.3099 172.435 55.3984 172.841 55.3984C173.138 55.3984 173.388 55.3333 173.591 55.2031C173.794 55.0677 173.958 54.8828 174.083 54.6484C174.213 54.4141 174.304 54.1432 174.356 53.8359C174.414 53.5286 174.442 53.1979 174.442 52.8438ZM180.349 50.3906V57H178.099V48.5469H180.216L180.349 50.3906ZM182.896 48.4922L182.856 50.5781C182.747 50.5625 182.614 50.5495 182.458 50.5391C182.307 50.5234 182.169 50.5156 182.044 50.5156C181.726 50.5156 181.45 50.5573 181.216 50.6406C180.987 50.7188 180.794 50.8359 180.638 50.9922C180.487 51.1484 180.372 51.3385 180.294 51.5625C180.221 51.7865 180.179 52.0417 180.169 52.3281L179.716 52.1875C179.716 51.6406 179.771 51.138 179.88 50.6797C179.989 50.2161 180.148 49.8125 180.356 49.4688C180.57 49.125 180.83 48.8594 181.138 48.6719C181.445 48.4844 181.797 48.3906 182.192 48.3906C182.317 48.3906 182.445 48.401 182.575 48.4219C182.705 48.4375 182.812 48.4609 182.896 48.4922ZM187.692 57.1562C187.036 57.1562 186.448 57.0521 185.927 56.8438C185.406 56.6302 184.963 56.3359 184.599 55.9609C184.239 55.5859 183.963 55.151 183.771 54.6562C183.578 54.1562 183.481 53.625 183.481 53.0625V52.75C183.481 52.1094 183.573 51.5234 183.755 50.9922C183.937 50.4609 184.198 50 184.536 49.6094C184.88 49.2188 185.297 48.9193 185.786 48.7109C186.276 48.4974 186.828 48.3906 187.442 48.3906C188.041 48.3906 188.573 48.4896 189.036 48.6875C189.5 48.8854 189.888 49.1667 190.2 49.5312C190.518 49.8958 190.757 50.3333 190.919 50.8438C191.08 51.349 191.161 51.9115 191.161 52.5312V53.4688H184.442V51.9688H188.95V51.7969C188.95 51.4844 188.893 51.2057 188.778 50.9609C188.669 50.7109 188.502 50.513 188.278 50.3672C188.054 50.2214 187.768 50.1484 187.419 50.1484C187.122 50.1484 186.867 50.2135 186.653 50.3438C186.44 50.474 186.265 50.6562 186.13 50.8906C186 51.125 185.901 51.401 185.833 51.7188C185.771 52.0312 185.739 52.375 185.739 52.75V53.0625C185.739 53.401 185.786 53.7135 185.88 54C185.979 54.2865 186.117 54.5339 186.294 54.7422C186.476 54.9505 186.695 55.112 186.95 55.2266C187.211 55.3411 187.505 55.3984 187.833 55.3984C188.239 55.3984 188.617 55.3203 188.966 55.1641C189.32 55.0026 189.625 54.7604 189.88 54.4375L190.974 55.625C190.797 55.8802 190.554 56.125 190.247 56.3594C189.945 56.5938 189.58 56.7865 189.153 56.9375C188.726 57.0833 188.239 57.1562 187.692 57.1562ZM187.833 44.9922L190.192 47.1641V47.2578H188.403L187.177 46.1172L185.966 47.2578H184.208V47.1406L186.528 44.9922H187.833ZM194.692 50.2969V57H192.435V48.5469H194.552L194.692 50.2969ZM194.38 52.4766H193.755C193.755 51.888 193.825 51.3464 193.966 50.8516C194.112 50.3516 194.323 49.9193 194.599 49.5547C194.88 49.1849 195.226 48.8984 195.638 48.6953C196.049 48.4922 196.526 48.3906 197.067 48.3906C197.442 48.3906 197.786 48.4479 198.099 48.5625C198.411 48.6719 198.679 48.8464 198.903 49.0859C199.132 49.3203 199.31 49.6276 199.435 50.0078C199.56 50.3828 199.622 50.8333 199.622 51.3594V57H197.372V51.6094C197.372 51.224 197.32 50.9271 197.216 50.7188C197.112 50.5104 196.963 50.3646 196.771 50.2812C196.583 50.1979 196.356 50.1562 196.091 50.1562C195.799 50.1562 195.544 50.2161 195.325 50.3359C195.112 50.4557 194.935 50.6224 194.794 50.8359C194.653 51.0443 194.549 51.2891 194.481 51.5703C194.414 51.8516 194.38 52.1536 194.38 52.4766ZM199.411 52.2188L198.606 52.3203C198.606 51.7682 198.674 51.2552 198.81 50.7812C198.95 50.3073 199.156 49.8906 199.427 49.5312C199.703 49.1719 200.044 48.8932 200.45 48.6953C200.856 48.4922 201.325 48.3906 201.856 48.3906C202.263 48.3906 202.632 48.4505 202.966 48.5703C203.299 48.6849 203.583 48.8698 203.817 49.125C204.057 49.375 204.239 49.7031 204.364 50.1094C204.494 50.5156 204.56 51.013 204.56 51.6016V57H202.302V51.6016C202.302 51.2109 202.25 50.9141 202.146 50.7109C202.047 50.5026 201.901 50.3594 201.708 50.2812C201.521 50.1979 201.297 50.1562 201.036 50.1562C200.765 50.1562 200.528 50.2109 200.325 50.3203C200.122 50.4245 199.953 50.5703 199.817 50.7578C199.682 50.9453 199.58 51.1641 199.513 51.4141C199.445 51.6589 199.411 51.9271 199.411 52.2188ZM208.677 48.5469V57H206.419V48.5469H208.677ZM206.278 46.3438C206.278 46.0156 206.393 45.7448 206.622 45.5312C206.851 45.3177 207.159 45.2109 207.544 45.2109C207.924 45.2109 208.229 45.3177 208.458 45.5312C208.692 45.7448 208.81 46.0156 208.81 46.3438C208.81 46.6719 208.692 46.9427 208.458 47.1562C208.229 47.3698 207.924 47.4766 207.544 47.4766C207.159 47.4766 206.851 47.3698 206.622 47.1562C206.393 46.9427 206.278 46.6719 206.278 46.3438ZM210.177 52.8594V52.6953C210.177 52.0755 210.265 51.5052 210.442 50.9844C210.619 50.4583 210.877 50.0026 211.216 49.6172C211.554 49.2318 211.971 48.9323 212.466 48.7188C212.961 48.5 213.528 48.3906 214.169 48.3906C214.81 48.3906 215.38 48.5 215.88 48.7188C216.38 48.9323 216.799 49.2318 217.138 49.6172C217.481 50.0026 217.742 50.4583 217.919 50.9844C218.096 51.5052 218.185 52.0755 218.185 52.6953V52.8594C218.185 53.474 218.096 54.0443 217.919 54.5703C217.742 55.0911 217.481 55.5469 217.138 55.9375C216.799 56.3229 216.382 56.6224 215.888 56.8359C215.393 57.0495 214.825 57.1562 214.185 57.1562C213.544 57.1562 212.974 57.0495 212.474 56.8359C211.979 56.6224 211.56 56.3229 211.216 55.9375C210.877 55.5469 210.619 55.0911 210.442 54.5703C210.265 54.0443 210.177 53.474 210.177 52.8594ZM212.427 52.6953V52.8594C212.427 53.2135 212.458 53.5443 212.521 53.8516C212.583 54.1589 212.682 54.4297 212.817 54.6641C212.958 54.8932 213.14 55.0729 213.364 55.2031C213.588 55.3333 213.862 55.3984 214.185 55.3984C214.497 55.3984 214.765 55.3333 214.989 55.2031C215.213 55.0729 215.393 54.8932 215.528 54.6641C215.664 54.4297 215.763 54.1589 215.825 53.8516C215.893 53.5443 215.927 53.2135 215.927 52.8594V52.6953C215.927 52.3516 215.893 52.0286 215.825 51.7266C215.763 51.4193 215.661 51.1484 215.521 50.9141C215.385 50.6745 215.205 50.487 214.981 50.3516C214.757 50.2161 214.487 50.1484 214.169 50.1484C213.851 50.1484 213.58 50.2161 213.356 50.3516C213.138 50.487 212.958 50.6745 212.817 50.9141C212.682 51.1484 212.583 51.4193 212.521 51.7266C212.458 52.0286 212.427 52.3516 212.427 52.6953ZM222.106 45.625L221.849 53.5234H219.974L219.708 45.625H222.106ZM219.646 55.9688C219.646 55.6354 219.76 55.3594 219.989 55.1406C220.224 54.9167 220.531 54.8047 220.911 54.8047C221.297 54.8047 221.604 54.9167 221.833 55.1406C222.062 55.3594 222.177 55.6354 222.177 55.9688C222.177 56.2917 222.062 56.5651 221.833 56.7891C221.604 57.013 221.297 57.125 220.911 57.125C220.531 57.125 220.224 57.013 219.989 56.7891C219.76 56.5651 219.646 56.2917 219.646 55.9688Z" fill="#00213A"/>
</svg>
