<svg width="184" height="26" viewBox="0 0 184 26" fill="none" xmlns="http://www.w3.org/2000/svg">
<mask id="path-1-inside-1_581_1312" fill="white">
<path d="M66.7039 0L61.8901 25.056H62.6784L67.4921 0H66.7039Z"/>
</mask>
<path d="M66.7039 0L61.8901 25.056H62.6784L67.4921 0H66.7039Z" fill="#8AD429"/>
<path d="M66.7039 0V-1H65.8777L65.7218 -0.188669L66.7039 0ZM61.8901 25.056L60.9081 24.8673L60.6797 26.056H61.8901V25.056ZM62.6784 25.056V26.056H63.5046L63.6604 25.2446L62.6784 25.056ZM67.4921 0L68.4742 0.188669L68.7026 -1H67.4921V0ZM66.7039 0L65.7218 -0.188669L60.9081 24.8673L61.8901 25.056L62.8722 25.2446L67.6859 0.188669L66.7039 0ZM61.8901 25.056V26.056H62.6784V25.056V24.056H61.8901V25.056ZM62.6784 25.056L63.6604 25.2446L68.4742 0.188669L67.4921 0L66.5101 -0.188669L61.6964 24.8673L62.6784 25.056ZM67.4921 0V-1H66.7039V0V1H67.4921V0Z" fill="#8AD429" mask="url(#path-1-inside-1_581_1312)"/>
<mask id="path-3-inside-2_581_1312" fill="white">
<path d="M160.071 0L155.257 25.056H156.045L160.859 0H160.071Z"/>
</mask>
<path d="M160.071 0L155.257 25.056H156.045L160.859 0H160.071Z" fill="#8AD429"/>
<path d="M160.071 0V-1H159.244L159.089 -0.188669L160.071 0ZM155.257 25.056L154.275 24.8673L154.046 26.056H155.257V25.056ZM156.045 25.056V26.056H156.871L157.027 25.2446L156.045 25.056ZM160.859 0L161.841 0.188669L162.069 -1H160.859V0ZM160.071 0L159.089 -0.188669L154.275 24.8673L155.257 25.056L156.239 25.2446L161.053 0.188669L160.071 0ZM155.257 25.056V26.056H156.045V25.056V24.056H155.257V25.056ZM156.045 25.056L157.027 25.2446L161.841 0.188669L160.859 0L159.877 -0.188669L155.063 24.8673L156.045 25.056ZM160.859 0V-1H160.071V0V1H160.859V0Z" fill="#8AD429" mask="url(#path-3-inside-2_581_1312)"/>
<mask id="path-5-inside-3_581_1312" fill="white">
<path d="M62.2115 0L57.3901 25.056H58.1784L62.9998 0H62.2115Z"/>
</mask>
<path d="M62.2115 0L57.3901 25.056H58.1784L62.9998 0H62.2115Z" fill="#8AD429"/>
<path d="M62.2115 0V-1H61.3856L61.2295 -0.188958L62.2115 0ZM57.3901 25.056L56.4082 24.867L56.1794 26.056H57.3901V25.056ZM58.1784 25.056V26.056H59.0043L59.1604 25.2449L58.1784 25.056ZM62.9998 0L63.9818 0.188958L64.2106 -1H62.9998V0ZM62.2115 0L61.2295 -0.188958L56.4082 24.867L57.3901 25.056L58.3721 25.2449L63.1935 0.188958L62.2115 0ZM57.3901 25.056V26.056H58.1784V25.056V24.056H57.3901V25.056ZM58.1784 25.056L59.1604 25.2449L63.9818 0.188958L62.9998 0L62.0178 -0.188958L57.1964 24.867L58.1784 25.056ZM62.9998 0V-1H62.2115V0V1H62.9998V0Z" fill="#8AD429" mask="url(#path-5-inside-3_581_1312)"/>
<mask id="path-7-inside-4_581_1312" fill="white">
<path d="M155.578 0L150.757 25.056H151.545L156.367 0H155.578Z"/>
</mask>
<path d="M155.578 0L150.757 25.056H151.545L156.367 0H155.578Z" fill="#8AD429"/>
<path d="M155.578 0V-1H154.753L154.596 -0.188958L155.578 0ZM150.757 25.056L149.775 24.867L149.546 26.056H150.757V25.056ZM151.545 25.056V26.056H152.371L152.527 25.2449L151.545 25.056ZM156.367 0L157.349 0.188958L157.578 -1H156.367V0ZM155.578 0L154.596 -0.188958L149.775 24.867L150.757 25.056L151.739 25.2449L156.56 0.188958L155.578 0ZM150.757 25.056V26.056H151.545V25.056V24.056H150.757V25.056ZM151.545 25.056L152.527 25.2449L157.349 0.188958L156.367 0L155.385 -0.188958L150.563 24.867L151.545 25.056ZM156.367 0V-1H155.578V0V1H156.367V0Z" fill="#8AD429" mask="url(#path-7-inside-4_581_1312)"/>
<mask id="path-9-inside-5_581_1312" fill="white">
<path d="M57.8648 0L53.051 25.056H53.8393L58.653 0H57.8648Z"/>
</mask>
<path d="M57.8648 0L53.051 25.056H53.8393L58.653 0H57.8648Z" fill="#8AD429"/>
<path d="M57.8648 0V-1H57.0386L56.8827 -0.188669L57.8648 0ZM53.051 25.056L52.069 24.8673L51.8406 26.056H53.051V25.056ZM53.8393 25.056V26.056H54.6655L54.8213 25.2446L53.8393 25.056ZM58.653 0L59.6351 0.188669L59.8634 -1H58.653V0ZM57.8648 0L56.8827 -0.188669L52.069 24.8673L53.051 25.056L54.0331 25.2446L58.8468 0.188669L57.8648 0ZM53.051 25.056V26.056H53.8393V25.056V24.056H53.051V25.056ZM53.8393 25.056L54.8213 25.2446L59.6351 0.188669L58.653 0L57.671 -0.188669L52.8572 24.8673L53.8393 25.056ZM58.653 0V-1H57.8648V0V1H58.653V0Z" fill="#8AD429" mask="url(#path-9-inside-5_581_1312)"/>
<mask id="path-11-inside-6_581_1312" fill="white">
<path d="M151.231 0L146.418 25.056H147.206L152.02 0H151.231Z"/>
</mask>
<path d="M151.231 0L146.418 25.056H147.206L152.02 0H151.231Z" fill="#8AD429"/>
<path d="M151.231 0V-1H150.405L150.249 -0.188669L151.231 0ZM146.418 25.056L145.436 24.8673L145.207 26.056H146.418V25.056ZM147.206 25.056V26.056H148.032L148.188 25.2446L147.206 25.056ZM152.02 0L153.002 0.188669L153.23 -1H152.02V0ZM151.231 0L150.249 -0.188669L145.436 24.8673L146.418 25.056L147.4 25.2446L152.214 0.188669L151.231 0ZM146.418 25.056V26.056H147.206V25.056V24.056H146.418V25.056ZM147.206 25.056L148.188 25.2446L153.002 0.188669L152.02 0L151.038 -0.188669L146.224 24.8673L147.206 25.056ZM152.02 0V-1H151.231V0V1H152.02V0Z" fill="#8AD429" mask="url(#path-11-inside-6_581_1312)"/>
<mask id="path-13-inside-7_581_1312" fill="white">
<path d="M53.4258 0L48.6121 25.056H49.3927L54.2141 0H53.4258Z"/>
</mask>
<path d="M53.4258 0L48.6121 25.056H49.3927L54.2141 0H53.4258Z" fill="#8AD429"/>
<path d="M53.4258 0V-1H52.5996L52.4438 -0.188669L53.4258 0ZM48.6121 25.056L47.63 24.8673L47.4017 26.056H48.6121V25.056ZM49.3927 25.056V26.056H50.2186L50.3747 25.2449L49.3927 25.056ZM54.2141 0L55.1961 0.188959L55.4248 -1H54.2141V0ZM53.4258 0L52.4438 -0.188669L47.63 24.8673L48.6121 25.056L49.5941 25.2446L54.4078 0.188669L53.4258 0ZM48.6121 25.056V26.056H49.3927V25.056V24.056H48.6121V25.056ZM49.3927 25.056L50.3747 25.2449L55.1961 0.188959L54.2141 0L53.2321 -0.188959L48.4107 24.867L49.3927 25.056ZM54.2141 0V-1H53.4258V0V1H54.2141V0Z" fill="#8AD429" mask="url(#path-13-inside-7_581_1312)"/>
<mask id="path-15-inside-8_581_1312" fill="white">
<path d="M146.793 0L141.979 25.056H142.76L147.581 0H146.793Z"/>
</mask>
<path d="M146.793 0L141.979 25.056H142.76L147.581 0H146.793Z" fill="#8AD429"/>
<path d="M146.793 0V-1H145.967L145.811 -0.188669L146.793 0ZM141.979 25.056L140.997 24.8673L140.769 26.056H141.979V25.056ZM142.76 25.056V26.056H143.586L143.742 25.2449L142.76 25.056ZM147.581 0L148.563 0.188959L148.792 -1H147.581V0ZM146.793 0L145.811 -0.188669L140.997 24.8673L141.979 25.056L142.961 25.2446L147.775 0.188669L146.793 0ZM141.979 25.056V26.056H142.76V25.056V24.056H141.979V25.056ZM142.76 25.056L143.742 25.2449L148.563 0.188959L147.581 0L146.599 -0.188959L141.778 24.867L142.76 25.056ZM147.581 0V-1H146.793V0V1H147.581V0Z" fill="#8AD429" mask="url(#path-15-inside-8_581_1312)"/>
<mask id="path-17-inside-9_581_1312" fill="white">
<path d="M49.0025 0L44.1812 25.056H44.9694L49.7908 0H49.0025Z"/>
</mask>
<path d="M49.0025 0L44.1812 25.056H44.9694L49.7908 0H49.0025Z" fill="#8AD429"/>
<path d="M49.0025 0V-1H48.1766L48.0206 -0.188958L49.0025 0ZM44.1812 25.056L43.1992 24.867L42.9704 26.056H44.1812V25.056ZM44.9694 25.056V26.056H45.7953L45.9514 25.2449L44.9694 25.056ZM49.7908 0L50.7728 0.188959L51.0016 -1H49.7908V0ZM49.0025 0L48.0206 -0.188958L43.1992 24.867L44.1812 25.056L45.1631 25.2449L49.9845 0.188958L49.0025 0ZM44.1812 25.056V26.056H44.9694V25.056V24.056H44.1812V25.056ZM44.9694 25.056L45.9514 25.2449L50.7728 0.188959L49.7908 0L48.8088 -0.188959L43.9874 24.867L44.9694 25.056ZM49.7908 0V-1H49.0025V0V1H49.7908V0Z" fill="#8AD429" mask="url(#path-17-inside-9_581_1312)"/>
<mask id="path-19-inside-10_581_1312" fill="white">
<path d="M142.369 0L137.548 25.056H138.336L143.158 0H142.369Z"/>
</mask>
<path d="M142.369 0L137.548 25.056H138.336L143.158 0H142.369Z" fill="#8AD429"/>
<path d="M142.369 0V-1H141.543L141.387 -0.188958L142.369 0ZM137.548 25.056L136.566 24.867L136.337 26.056H137.548V25.056ZM138.336 25.056V26.056H139.162L139.318 25.2449L138.336 25.056ZM143.158 0L144.139 0.188959L144.368 -1H143.158V0ZM142.369 0L141.387 -0.188958L136.566 24.867L137.548 25.056L138.53 25.2449L143.351 0.188958L142.369 0ZM137.548 25.056V26.056H138.336V25.056V24.056H137.548V25.056ZM138.336 25.056L139.318 25.2449L144.139 0.188959L143.158 0L142.176 -0.188959L137.354 24.867L138.336 25.056ZM143.158 0V-1H142.369V0V1H143.158V0Z" fill="#8AD429" mask="url(#path-19-inside-10_581_1312)"/>
<mask id="path-21-inside-11_581_1312" fill="white">
<path d="M44.5636 0L39.7422 25.056H39.7498H40.5304L45.3518 0H44.5636Z"/>
</mask>
<path d="M44.5636 0L39.7422 25.056H39.7498H40.5304L45.3518 0H44.5636Z" fill="#8AD429"/>
<path d="M44.5636 0V-1H43.7377L43.5816 -0.188959L44.5636 0ZM39.7422 25.056L38.7602 24.867L38.5314 26.056H39.7422V25.056ZM40.5304 25.056V26.056H41.3564L41.5124 25.2449L40.5304 25.056ZM45.3518 0L46.3338 0.188959L46.5626 -1H45.3518V0ZM44.5636 0L43.5816 -0.188959L38.7602 24.867L39.7422 25.056L40.7242 25.2449L45.5456 0.188959L44.5636 0ZM39.7422 25.056V26.056H39.7498V25.056V24.056H39.7422V25.056ZM39.7498 25.056V26.056H40.5304V25.056V24.056H39.7498V25.056ZM40.5304 25.056L41.5124 25.2449L46.3338 0.188959L45.3518 0L44.3699 -0.188959L39.5485 24.867L40.5304 25.056ZM45.3518 0V-1H44.5636V0V1H45.3518V0Z" fill="#8AD429" mask="url(#path-21-inside-11_581_1312)"/>
<mask id="path-23-inside-12_581_1312" fill="white">
<path d="M137.931 0L133.109 25.056H133.117H133.898L138.719 0H137.931Z"/>
</mask>
<path d="M137.931 0L133.109 25.056H133.117H133.898L138.719 0H137.931Z" fill="#8AD429"/>
<path d="M137.931 0V-1H137.105L136.949 -0.188959L137.931 0ZM133.109 25.056L132.127 24.867L131.899 26.056H133.109V25.056ZM133.898 25.056V26.056H134.724L134.88 25.2449L133.898 25.056ZM138.719 0L139.701 0.188959L139.93 -1H138.719V0ZM137.931 0L136.949 -0.188959L132.127 24.867L133.109 25.056L134.091 25.2449L138.913 0.188959L137.931 0ZM133.109 25.056V26.056H133.117V25.056V24.056H133.109V25.056ZM133.117 25.056V26.056H133.898V25.056V24.056H133.117V25.056ZM133.898 25.056L134.88 25.2449L139.701 0.188959L138.719 0L137.737 -0.188959L132.916 24.867L133.898 25.056ZM138.719 0V-1H137.931V0V1H138.719V0Z" fill="#8AD429" mask="url(#path-23-inside-12_581_1312)"/>
<mask id="path-25-inside-13_581_1312" fill="white">
<path d="M40.1713 0L35.3499 25.056H36.1381L40.9595 0H40.1713Z"/>
</mask>
<path d="M40.1713 0L35.3499 25.056H36.1381L40.9595 0H40.1713Z" fill="#8AD429"/>
<path d="M40.1713 0V-1H39.3453L39.1893 -0.188959L40.1713 0ZM35.3499 25.056L34.3679 24.867L34.1391 26.056H35.3499V25.056ZM36.1381 25.056V26.056H36.964L37.1201 25.2449L36.1381 25.056ZM40.9595 0L41.9415 0.188959L42.1703 -1H40.9595V0ZM40.1713 0L39.1893 -0.188959L34.3679 24.867L35.3499 25.056L36.3318 25.2449L41.1532 0.188959L40.1713 0ZM35.3499 25.056V26.056H36.1381V25.056V24.056H35.3499V25.056ZM36.1381 25.056L37.1201 25.2449L41.9415 0.188959L40.9595 0L39.9775 -0.188959L35.1561 24.867L36.1381 25.056ZM40.9595 0V-1H40.1713V0V1H40.9595V0Z" fill="#8AD429" mask="url(#path-25-inside-13_581_1312)"/>
<mask id="path-27-inside-14_581_1312" fill="white">
<path d="M133.538 0L128.716 25.056H129.505L134.326 0H133.538Z"/>
</mask>
<path d="M133.538 0L128.716 25.056H129.505L134.326 0H133.538Z" fill="#8AD429"/>
<path d="M133.538 0V-1H132.712L132.556 -0.188959L133.538 0ZM128.716 25.056L127.734 24.867L127.506 26.056H128.716V25.056ZM129.505 25.056V26.056H130.33L130.487 25.2449L129.505 25.056ZM134.326 0L135.308 0.188959L135.537 -1H134.326V0ZM133.538 0L132.556 -0.188959L127.734 24.867L128.716 25.056L129.698 25.2449L134.52 0.188959L133.538 0ZM128.716 25.056V26.056H129.505V25.056V24.056H128.716V25.056ZM129.505 25.056L130.487 25.2449L135.308 0.188959L134.326 0L133.344 -0.188959L128.523 24.867L129.505 25.056ZM134.326 0V-1H133.538V0V1H134.326V0Z" fill="#8AD429" mask="url(#path-27-inside-14_581_1312)"/>
<mask id="path-29-inside-15_581_1312" fill="white">
<path d="M35.7167 0L30.8953 25.056H31.6835L36.5049 0H35.7167Z"/>
</mask>
<path d="M35.7167 0L30.8953 25.056H31.6835L36.5049 0H35.7167Z" fill="#8AD429"/>
<path d="M35.7167 0V-1H34.8907L34.7347 -0.188959L35.7167 0ZM30.8953 25.056L29.9133 24.867L29.6845 26.056H30.8953V25.056ZM31.6835 25.056V26.056H32.5094L32.6655 25.2449L31.6835 25.056ZM36.5049 0L37.4869 0.188959L37.7157 -1H36.5049V0ZM35.7167 0L34.7347 -0.188959L29.9133 24.867L30.8953 25.056L31.8772 25.2449L36.6987 0.188959L35.7167 0ZM30.8953 25.056V26.056H31.6835V25.056V24.056H30.8953V25.056ZM31.6835 25.056L32.6655 25.2449L37.4869 0.188959L36.5049 0L35.5229 -0.188959L30.7015 24.867L31.6835 25.056ZM36.5049 0V-1H35.7167V0V1H36.5049V0Z" fill="#8AD429" mask="url(#path-29-inside-15_581_1312)"/>
<mask id="path-31-inside-16_581_1312" fill="white">
<path d="M129.084 0L124.262 25.056H125.051L129.872 0H129.084Z"/>
</mask>
<path d="M129.084 0L124.262 25.056H125.051L129.872 0H129.084Z" fill="#8AD429"/>
<path d="M129.084 0V-1H128.258L128.102 -0.188959L129.084 0ZM124.262 25.056L123.28 24.867L123.052 26.056H124.262V25.056ZM125.051 25.056V26.056H125.877L126.033 25.2449L125.051 25.056ZM129.872 0L130.854 0.188959L131.083 -1H129.872V0ZM129.084 0L128.102 -0.188959L123.28 24.867L124.262 25.056L125.244 25.2449L130.066 0.188959L129.084 0ZM124.262 25.056V26.056H125.051V25.056V24.056H124.262V25.056ZM125.051 25.056L126.033 25.2449L130.854 0.188959L129.872 0L128.89 -0.188959L124.069 24.867L125.051 25.056ZM129.872 0V-1H129.084V0V1H129.872V0Z" fill="#8AD429" mask="url(#path-31-inside-16_581_1312)"/>
<mask id="path-33-inside-17_581_1312" fill="white">
<path d="M31.3011 0L26.4873 25.056H27.2756L32.0893 0H31.3011Z"/>
</mask>
<path d="M31.3011 0L26.4873 25.056H27.2756L32.0893 0H31.3011Z" fill="#8AD429"/>
<path d="M31.3011 0V-1H30.4749L30.319 -0.188669L31.3011 0ZM26.4873 25.056L25.5053 24.8673L25.2769 26.056H26.4873V25.056ZM27.2756 25.056V26.056H28.1017L28.2576 25.2446L27.2756 25.056ZM32.0893 0L33.0714 0.188669L33.2997 -1H32.0893V0ZM31.3011 0L30.319 -0.188669L25.5053 24.8673L26.4873 25.056L27.4693 25.2446L32.2831 0.188669L31.3011 0ZM26.4873 25.056V26.056H27.2756V25.056V24.056H26.4873V25.056ZM27.2756 25.056L28.2576 25.2446L33.0714 0.188669L32.0893 0L31.1073 -0.188669L26.2935 24.8673L27.2756 25.056ZM32.0893 0V-1H31.3011V0V1H32.0893V0Z" fill="#8AD429" mask="url(#path-33-inside-17_581_1312)"/>
<mask id="path-35-inside-18_581_1312" fill="white">
<path d="M124.668 0L119.854 25.056H120.642L125.456 0H124.668Z"/>
</mask>
<path d="M124.668 0L119.854 25.056H120.642L125.456 0H124.668Z" fill="#8AD429"/>
<path d="M124.668 0V-1H123.842L123.686 -0.188669L124.668 0ZM119.854 25.056L118.872 24.8673L118.644 26.056H119.854V25.056ZM120.642 25.056V26.056H121.468L121.624 25.2446L120.642 25.056ZM125.456 0L126.438 0.188669L126.666 -1H125.456V0ZM124.668 0L123.686 -0.188669L118.872 24.8673L119.854 25.056L120.836 25.2446L125.65 0.188669L124.668 0ZM119.854 25.056V26.056H120.642V25.056V24.056H119.854V25.056ZM120.642 25.056L121.624 25.2446L126.438 0.188669L125.456 0L124.474 -0.188669L119.66 24.8673L120.642 25.056ZM125.456 0V-1H124.668V0V1H125.456V0Z" fill="#8AD429" mask="url(#path-35-inside-18_581_1312)"/>
<mask id="path-37-inside-19_581_1312" fill="white">
<path d="M26.8468 0L22.0254 25.056H22.033H22.8137L27.635 0H26.8468Z"/>
</mask>
<path d="M26.8468 0L22.0254 25.056H22.033H22.8137L27.635 0H26.8468Z" fill="#8AD429"/>
<path d="M26.8468 0V-1H26.0209L25.8648 -0.188959L26.8468 0ZM22.0254 25.056L21.0434 24.867L20.8146 26.056H22.0254V25.056ZM22.8137 25.056V26.056H23.6396L23.7956 25.2449L22.8137 25.056ZM27.635 0L28.617 0.188959L28.8458 -1H27.635V0ZM26.8468 0L25.8648 -0.188959L21.0434 24.867L22.0254 25.056L23.0074 25.2449L27.8288 0.188959L26.8468 0ZM22.0254 25.056V26.056H22.033V25.056V24.056H22.0254V25.056ZM22.033 25.056V26.056H22.8137V25.056V24.056H22.033V25.056ZM22.8137 25.056L23.7956 25.2449L28.617 0.188959L27.635 0L26.6531 -0.188959L21.8317 24.867L22.8137 25.056ZM27.635 0V-1H26.8468V0V1H27.635V0Z" fill="#8AD429" mask="url(#path-37-inside-19_581_1312)"/>
<mask id="path-39-inside-20_581_1312" fill="white">
<path d="M120.214 0L115.393 25.056H115.4H116.181L121.002 0H120.214Z"/>
</mask>
<path d="M120.214 0L115.393 25.056H115.4H116.181L121.002 0H120.214Z" fill="#8AD429"/>
<path d="M120.214 0V-1H119.388L119.232 -0.188959L120.214 0ZM115.393 25.056L114.411 24.867L114.182 26.056H115.393V25.056ZM116.181 25.056V26.056H117.007L117.163 25.2449L116.181 25.056ZM121.002 0L121.984 0.188959L122.213 -1H121.002V0ZM120.214 0L119.232 -0.188959L114.411 24.867L115.393 25.056L116.375 25.2449L121.196 0.188959L120.214 0ZM115.393 25.056V26.056H115.4V25.056V24.056H115.393V25.056ZM115.4 25.056V26.056H116.181V25.056V24.056H115.4V25.056ZM116.181 25.056L117.163 25.2449L121.984 0.188959L121.002 0L120.02 -0.188959L115.199 24.867L116.181 25.056ZM121.002 0V-1H120.214V0V1H121.002V0Z" fill="#8AD429" mask="url(#path-39-inside-20_581_1312)"/>
<mask id="path-41-inside-21_581_1312" fill="white">
<path d="M22.5843 0L17.7629 25.056H18.5512L23.3649 0H22.5843Z"/>
</mask>
<path d="M22.5843 0L17.7629 25.056H18.5512L23.3649 0H22.5843Z" fill="#8AD429"/>
<path d="M22.5843 0V-1H21.7584L21.6024 -0.188959L22.5843 0ZM17.7629 25.056L16.781 24.867L16.5522 26.056H17.7629V25.056ZM18.5512 25.056V26.056H19.3774L19.5332 25.2446L18.5512 25.056ZM23.3649 0L24.347 0.188669L24.5754 -1H23.3649V0ZM22.5843 0L21.6024 -0.188959L16.781 24.867L17.7629 25.056L18.7449 25.2449L23.5663 0.188959L22.5843 0ZM17.7629 25.056V26.056H18.5512V25.056V24.056H17.7629V25.056ZM18.5512 25.056L19.5332 25.2446L24.347 0.188669L23.3649 0L22.3829 -0.188669L17.5692 24.8673L18.5512 25.056ZM23.3649 0V-1H22.5843V0V1H23.3649V0Z" fill="#8AD429" mask="url(#path-41-inside-21_581_1312)"/>
<mask id="path-43-inside-22_581_1312" fill="white">
<path d="M115.951 0L111.13 25.056H111.918L116.732 0H115.951Z"/>
</mask>
<path d="M115.951 0L111.13 25.056H111.918L116.732 0H115.951Z" fill="#8AD429"/>
<path d="M115.951 0V-1H115.125L114.969 -0.188959L115.951 0ZM111.13 25.056L110.148 24.867L109.919 26.056H111.13V25.056ZM111.918 25.056V26.056H112.744L112.9 25.2446L111.918 25.056ZM116.732 0L117.714 0.188669L117.942 -1H116.732V0ZM115.951 0L114.969 -0.188959L110.148 24.867L111.13 25.056L112.112 25.2449L116.933 0.188959L115.951 0ZM111.13 25.056V26.056H111.918V25.056V24.056H111.13V25.056ZM111.918 25.056L112.9 25.2446L117.714 0.188669L116.732 0L115.75 -0.188669L110.936 24.8673L111.918 25.056ZM116.732 0V-1H115.951V0V1H116.732V0Z" fill="#8AD429" mask="url(#path-43-inside-22_581_1312)"/>
<mask id="path-45-inside-23_581_1312" fill="white">
<path d="M18.0995 0L13.2781 25.056H14.0663L18.8877 0H18.0995Z"/>
</mask>
<path d="M18.0995 0L13.2781 25.056H14.0663L18.8877 0H18.0995Z" fill="#8AD429"/>
<path d="M18.0995 0V-1H17.2736L17.1175 -0.188959L18.0995 0ZM13.2781 25.056L12.2961 24.867L12.0673 26.056H13.2781V25.056ZM14.0663 25.056V26.056H14.8923L15.0483 25.2449L14.0663 25.056ZM18.8877 0L19.8697 0.188959L20.0985 -1H18.8877V0ZM18.0995 0L17.1175 -0.188959L12.2961 24.867L13.2781 25.056L14.2601 25.2449L19.0815 0.188959L18.0995 0ZM13.2781 25.056V26.056H14.0663V25.056V24.056H13.2781V25.056ZM14.0663 25.056L15.0483 25.2449L19.8697 0.188959L18.8877 0L17.9058 -0.188959L13.0844 24.867L14.0663 25.056ZM18.8877 0V-1H18.0995V0V1H18.8877V0Z" fill="#8AD429" mask="url(#path-45-inside-23_581_1312)"/>
<mask id="path-47-inside-24_581_1312" fill="white">
<path d="M111.466 0L106.645 25.056H107.433L112.255 0H111.466Z"/>
</mask>
<path d="M111.466 0L106.645 25.056H107.433L112.255 0H111.466Z" fill="#8AD429"/>
<path d="M111.466 0V-1H110.64L110.484 -0.188959L111.466 0ZM106.645 25.056L105.663 24.867L105.434 26.056H106.645V25.056ZM107.433 25.056V26.056H108.259L108.415 25.2449L107.433 25.056ZM112.255 0L113.237 0.188959L113.465 -1H112.255V0ZM111.466 0L110.484 -0.188959L105.663 24.867L106.645 25.056L107.627 25.2449L112.448 0.188959L111.466 0ZM106.645 25.056V26.056H107.433V25.056V24.056H106.645V25.056ZM107.433 25.056L108.415 25.2449L113.237 0.188959L112.255 0L111.273 -0.188959L106.451 24.867L107.433 25.056ZM112.255 0V-1H111.466V0V1H112.255V0Z" fill="#8AD429" mask="url(#path-47-inside-24_581_1312)"/>
<mask id="path-49-inside-25_581_1312" fill="white">
<path d="M13.6148 0L8.80103 25.056H9.58163L14.403 0H13.6148Z"/>
</mask>
<path d="M13.6148 0L8.80103 25.056H9.58163L14.403 0H13.6148Z" fill="#8AD429"/>
<path d="M13.6148 0V-1H12.7886L12.6327 -0.188669L13.6148 0ZM8.80103 25.056L7.81898 24.8673L7.59062 26.056H8.80103V25.056ZM9.58163 25.056V26.056H10.4076L10.5636 25.2449L9.58163 25.056ZM14.403 0L15.385 0.188959L15.6138 -1H14.403V0ZM13.6148 0L12.6327 -0.188669L7.81898 24.8673L8.80103 25.056L9.78307 25.2446L14.5968 0.188669L13.6148 0ZM8.80103 25.056V26.056H9.58163V25.056V24.056H8.80103V25.056ZM9.58163 25.056L10.5636 25.2449L15.385 0.188959L14.403 0L13.421 -0.188959L8.59965 24.867L9.58163 25.056ZM14.403 0V-1H13.6148V0V1H14.403V0Z" fill="#8AD429" mask="url(#path-49-inside-25_581_1312)"/>
<mask id="path-51-inside-26_581_1312" fill="white">
<path d="M106.982 0L102.168 25.056H102.949L107.77 0H106.982Z"/>
</mask>
<path d="M106.982 0L102.168 25.056H102.949L107.77 0H106.982Z" fill="#8AD429"/>
<path d="M106.982 0V-1H106.156L106 -0.188669L106.982 0ZM102.168 25.056L101.186 24.8673L100.958 26.056H102.168V25.056ZM102.949 25.056V26.056H103.775L103.931 25.2449L102.949 25.056ZM107.77 0L108.752 0.188959L108.981 -1H107.77V0ZM106.982 0L106 -0.188669L101.186 24.8673L102.168 25.056L103.15 25.2446L107.964 0.188669L106.982 0ZM102.168 25.056V26.056H102.949V25.056V24.056H102.168V25.056ZM102.949 25.056L103.931 25.2449L108.752 0.188959L107.77 0L106.788 -0.188959L101.967 24.867L102.949 25.056ZM107.77 0V-1H106.982V0V1H107.77V0Z" fill="#8AD429" mask="url(#path-51-inside-26_581_1312)"/>
<mask id="path-53-inside-27_581_1312" fill="white">
<path d="M9.22228 0L4.40088 25.056H5.18914L10.0029 0H9.22228Z"/>
</mask>
<path d="M9.22228 0L4.40088 25.056H5.18914L10.0029 0H9.22228Z" fill="#8AD429"/>
<path d="M9.22228 0V-1H8.39636L8.24029 -0.188959L9.22228 0ZM4.40088 25.056L3.41889 24.867L3.19011 26.056H4.40088V25.056ZM5.18914 25.056V26.056H6.01531L6.17118 25.2446L5.18914 25.056ZM10.0029 0L10.9849 0.188669L11.2133 -1H10.0029V0ZM9.22228 0L8.24029 -0.188959L3.41889 24.867L4.40088 25.056L5.38286 25.2449L10.2043 0.188959L9.22228 0ZM4.40088 25.056V26.056H5.18914V25.056V24.056H4.40088V25.056ZM5.18914 25.056L6.17118 25.2446L10.9849 0.188669L10.0029 0L9.02085 -0.188669L4.2071 24.8673L5.18914 25.056ZM10.0029 0V-1H9.22228V0V1H10.0029V0Z" fill="#8AD429" mask="url(#path-53-inside-27_581_1312)"/>
<mask id="path-55-inside-28_581_1312" fill="white">
<path d="M102.589 0L97.7676 25.056H98.5558L103.37 0H102.589Z"/>
</mask>
<path d="M102.589 0L97.7676 25.056H98.5558L103.37 0H102.589Z" fill="#8AD429"/>
<path d="M102.589 0V-1H101.763L101.607 -0.188959L102.589 0ZM97.7676 25.056L96.7856 24.867L96.5568 26.056H97.7676V25.056ZM98.5558 25.056V26.056H99.382L99.5379 25.2446L98.5558 25.056ZM103.37 0L104.352 0.188669L104.58 -1H103.37V0ZM102.589 0L101.607 -0.188959L96.7856 24.867L97.7676 25.056L98.7496 25.2449L103.571 0.188959L102.589 0ZM97.7676 25.056V26.056H98.5558V25.056V24.056H97.7676V25.056ZM98.5558 25.056L99.5379 25.2446L104.352 0.188669L103.37 0L102.388 -0.188669L97.5738 24.8673L98.5558 25.056ZM103.37 0V-1H102.589V0V1H103.37V0Z" fill="#8AD429" mask="url(#path-55-inside-28_581_1312)"/>
<mask id="path-57-inside-29_581_1312" fill="white">
<path d="M4.81375 0L0 25.056H0.780608L5.60201 0H4.81375Z"/>
</mask>
<path d="M4.81375 0L0 25.056H0.780608L5.60201 0H4.81375Z" fill="#8AD429"/>
<path d="M4.81375 0V-1H3.98758L3.83171 -0.188669L4.81375 0ZM0 25.056L-0.982041 24.8673L-1.21041 26.056H0V25.056ZM0.780608 25.056V26.056H1.60653L1.76259 25.2449L0.780608 25.056ZM5.60201 0L6.58399 0.188959L6.81278 -1H5.60201V0ZM4.81375 0L3.83171 -0.188669L-0.982041 24.8673L0 25.056L0.982041 25.2446L5.79579 0.188669L4.81375 0ZM0 25.056V26.056H0.780608V25.056V24.056H0V25.056ZM0.780608 25.056L1.76259 25.2449L6.58399 0.188959L5.60201 0L4.62002 -0.188959L-0.201377 24.867L0.780608 25.056ZM5.60201 0V-1H4.81375V0V1H5.60201V0Z" fill="#8AD429" mask="url(#path-57-inside-29_581_1312)"/>
<mask id="path-59-inside-30_581_1312" fill="white">
<path d="M98.1807 0L93.3669 25.056H94.1476L98.969 0H98.1807Z"/>
</mask>
<path d="M98.1807 0L93.3669 25.056H94.1476L98.969 0H98.1807Z" fill="#8AD429"/>
<path d="M98.1807 0V-1H97.3545L97.1986 -0.188669L98.1807 0ZM93.3669 25.056L92.3849 24.8673L92.1565 26.056H93.3669V25.056ZM94.1476 25.056V26.056H94.9735L95.1295 25.2449L94.1476 25.056ZM98.969 0L99.9509 0.188959L100.18 -1H98.969V0ZM98.1807 0L97.1986 -0.188669L92.3849 24.8673L93.3669 25.056L94.349 25.2446L99.1627 0.188669L98.1807 0ZM93.3669 25.056V26.056H94.1476V25.056V24.056H93.3669V25.056ZM94.1476 25.056L95.1295 25.2449L99.9509 0.188959L98.969 0L97.987 -0.188959L93.1656 24.867L94.1476 25.056ZM98.969 0V-1H98.1807V0V1H98.969V0Z" fill="#8AD429" mask="url(#path-59-inside-30_581_1312)"/>
<mask id="path-61-inside-31_581_1312" fill="white">
<path d="M75.5736 0L70.7522 25.056H71.5405L76.3619 0H75.5736Z"/>
</mask>
<path d="M75.5736 0L70.7522 25.056H71.5405L76.3619 0H75.5736Z" fill="#8AD429"/>
<path d="M75.5736 0V-1H74.7477L74.5916 -0.188958L75.5736 0ZM70.7522 25.056L69.7702 24.867L69.5414 26.056H70.7522V25.056ZM71.5405 25.056V26.056H72.3664L72.5224 25.2449L71.5405 25.056ZM76.3619 0L77.3438 0.188958L77.5726 -1H76.3619V0ZM75.5736 0L74.5916 -0.188958L69.7702 24.867L70.7522 25.056L71.7342 25.2449L76.5556 0.188958L75.5736 0ZM70.7522 25.056V26.056H71.5405V25.056V24.056H70.7522V25.056ZM71.5405 25.056L72.5224 25.2449L77.3438 0.188958L76.3619 0L75.3799 -0.188958L70.5585 24.867L71.5405 25.056ZM76.3619 0V-1H75.5736V0V1H76.3619V0Z" fill="#8AD429" mask="url(#path-61-inside-31_581_1312)"/>
<mask id="path-63-inside-32_581_1312" fill="white">
<path d="M168.941 0L164.119 25.056H164.908L169.729 0H168.941Z"/>
</mask>
<path d="M168.941 0L164.119 25.056H164.908L169.729 0H168.941Z" fill="#8AD429"/>
<path d="M168.941 0V-1H168.115L167.959 -0.188958L168.941 0ZM164.119 25.056L163.137 24.867L162.909 26.056H164.119V25.056ZM164.908 25.056V26.056H165.734L165.89 25.2449L164.908 25.056ZM169.729 0L170.711 0.188958L170.94 -1H169.729V0ZM168.941 0L167.959 -0.188958L163.137 24.867L164.119 25.056L165.101 25.2449L169.923 0.188958L168.941 0ZM164.119 25.056V26.056H164.908V25.056V24.056H164.119V25.056ZM164.908 25.056L165.89 25.2449L170.711 0.188958L169.729 0L168.747 -0.188958L163.926 24.867L164.908 25.056ZM169.729 0V-1H168.941V0V1H169.729V0Z" fill="#8AD429" mask="url(#path-63-inside-32_581_1312)"/>
<mask id="path-65-inside-33_581_1312" fill="white">
<path d="M71.1734 0L66.3521 25.056H67.1403L71.9617 0H71.1734Z"/>
</mask>
<path d="M71.1734 0L66.3521 25.056H67.1403L71.9617 0H71.1734Z" fill="#8AD429"/>
<path d="M71.1734 0V-1H70.3475L70.1915 -0.188958L71.1734 0ZM66.3521 25.056L65.3701 24.867L65.1413 26.056H66.3521V25.056ZM67.1403 25.056V26.056H67.9662L68.1223 25.2449L67.1403 25.056ZM71.9617 0L72.9437 0.188958L73.1725 -1H71.9617V0ZM71.1734 0L70.1915 -0.188958L65.3701 24.867L66.3521 25.056L67.334 25.2449L72.1554 0.188958L71.1734 0ZM66.3521 25.056V26.056H67.1403V25.056V24.056H66.3521V25.056ZM67.1403 25.056L68.1223 25.2449L72.9437 0.188958L71.9617 0L70.9797 -0.188958L66.1583 24.867L67.1403 25.056ZM71.9617 0V-1H71.1734V0V1H71.9617V0Z" fill="#8AD429" mask="url(#path-65-inside-33_581_1312)"/>
<mask id="path-67-inside-34_581_1312" fill="white">
<path d="M164.54 0L159.719 25.056H160.507L165.328 0H164.54Z"/>
</mask>
<path d="M164.54 0L159.719 25.056H160.507L165.328 0H164.54Z" fill="#8AD429"/>
<path d="M164.54 0V-1H163.714L163.558 -0.188958L164.54 0ZM159.719 25.056L158.737 24.867L158.508 26.056H159.719V25.056ZM160.507 25.056V26.056H161.333L161.489 25.2449L160.507 25.056ZM165.328 0L166.31 0.188958L166.539 -1H165.328V0ZM164.54 0L163.558 -0.188958L158.737 24.867L159.719 25.056L160.701 25.2449L165.522 0.188958L164.54 0ZM159.719 25.056V26.056H160.507V25.056V24.056H159.719V25.056ZM160.507 25.056L161.489 25.2449L166.31 0.188958L165.328 0L164.346 -0.188958L159.525 24.867L160.507 25.056ZM165.328 0V-1H164.54V0V1H165.328V0Z" fill="#8AD429" mask="url(#path-67-inside-34_581_1312)"/>
<mask id="path-69-inside-35_581_1312" fill="white">
<path d="M79.9742 0L75.1528 25.056H75.9411L80.7625 0H79.9742Z"/>
</mask>
<path d="M79.9742 0L75.1528 25.056H75.9411L80.7625 0H79.9742Z" fill="#8AD429"/>
<path d="M79.9742 0V-1H79.1483L78.9922 -0.188959L79.9742 0ZM75.1528 25.056L74.1708 24.867L73.9421 26.056H75.1528V25.056ZM75.9411 25.056V26.056H76.767L76.9231 25.2449L75.9411 25.056ZM80.7625 0L81.7445 0.188959L81.9733 -1H80.7625V0ZM79.9742 0L78.9922 -0.188959L74.1708 24.867L75.1528 25.056L76.1348 25.2449L80.9562 0.188959L79.9742 0ZM75.1528 25.056V26.056H75.9411V25.056V24.056H75.1528V25.056ZM75.9411 25.056L76.9231 25.2449L81.7445 0.188959L80.7625 0L79.7805 -0.188959L74.9591 24.867L75.9411 25.056ZM80.7625 0V-1H79.9742V0V1H80.7625V0Z" fill="#8AD429" mask="url(#path-69-inside-35_581_1312)"/>
<mask id="path-71-inside-36_581_1312" fill="white">
<path d="M173.341 0L168.52 25.056H169.308L174.129 0H173.341Z"/>
</mask>
<path d="M173.341 0L168.52 25.056H169.308L174.129 0H173.341Z" fill="#8AD429"/>
<path d="M173.341 0V-1H172.515L172.359 -0.188959L173.341 0ZM168.52 25.056L167.538 24.867L167.309 26.056H168.52V25.056ZM169.308 25.056V26.056H170.134L170.29 25.2449L169.308 25.056ZM174.129 0L175.111 0.188959L175.34 -1H174.129V0ZM173.341 0L172.359 -0.188959L167.538 24.867L168.52 25.056L169.502 25.2449L174.323 0.188959L173.341 0ZM168.52 25.056V26.056H169.308V25.056V24.056H168.52V25.056ZM169.308 25.056L170.29 25.2449L175.111 0.188959L174.129 0L173.147 -0.188959L168.326 24.867L169.308 25.056ZM174.129 0V-1H173.341V0V1H174.129V0Z" fill="#8AD429" mask="url(#path-71-inside-36_581_1312)"/>
<mask id="path-73-inside-37_581_1312" fill="white">
<path d="M84.4205 0L79.5991 25.056H80.3874L85.2088 0H84.4205Z"/>
</mask>
<path d="M84.4205 0L79.5991 25.056H80.3874L85.2088 0H84.4205Z" fill="#8AD429"/>
<path d="M84.4205 0V-1H83.5946L83.4385 -0.188959L84.4205 0ZM79.5991 25.056L78.6171 24.867L78.3884 26.056H79.5991V25.056ZM80.3874 25.056V26.056H81.2133L81.3694 25.2449L80.3874 25.056ZM85.2088 0L86.1908 0.188959L86.4196 -1H85.2088V0ZM84.4205 0L83.4385 -0.188959L78.6171 24.867L79.5991 25.056L80.5811 25.2449L85.4025 0.188959L84.4205 0ZM79.5991 25.056V26.056H80.3874V25.056V24.056H79.5991V25.056ZM80.3874 25.056L81.3694 25.2449L86.1908 0.188959L85.2088 0L84.2268 -0.188959L79.4054 24.867L80.3874 25.056ZM85.2088 0V-1H84.4205V0V1H85.2088V0Z" fill="#8AD429" mask="url(#path-73-inside-37_581_1312)"/>
<mask id="path-75-inside-38_581_1312" fill="white">
<path d="M177.788 0L172.966 25.056H173.755L178.576 0H177.788Z"/>
</mask>
<path d="M177.788 0L172.966 25.056H173.755L178.576 0H177.788Z" fill="#8AD429"/>
<path d="M177.788 0V-1H176.962L176.806 -0.188959L177.788 0ZM172.966 25.056L171.984 24.867L171.756 26.056H172.966V25.056ZM173.755 25.056V26.056H174.58L174.737 25.2449L173.755 25.056ZM178.576 0L179.558 0.188959L179.787 -1H178.576V0ZM177.788 0L176.806 -0.188959L171.984 24.867L172.966 25.056L173.948 25.2449L178.77 0.188959L177.788 0ZM172.966 25.056V26.056H173.755V25.056V24.056H172.966V25.056ZM173.755 25.056L174.737 25.2449L179.558 0.188959L178.576 0L177.594 -0.188959L172.773 24.867L173.755 25.056ZM178.576 0V-1H177.788V0V1H178.576V0Z" fill="#8AD429" mask="url(#path-75-inside-38_581_1312)"/>
<mask id="path-77-inside-39_581_1312" fill="white">
<path d="M88.783 0L83.9692 25.056H84.7575L89.5712 0H88.783Z"/>
</mask>
<path d="M88.783 0L83.9692 25.056H84.7575L89.5712 0H88.783Z" fill="#8AD429"/>
<path d="M88.783 0V-1H87.9568L87.8009 -0.188669L88.783 0ZM83.9692 25.056L82.9872 24.8673L82.7588 26.056H83.9692V25.056ZM84.7575 25.056V26.056H85.5837L85.7395 25.2446L84.7575 25.056ZM89.5712 0L90.5533 0.188669L90.7816 -1H89.5712V0ZM88.783 0L87.8009 -0.188669L82.9872 24.8673L83.9692 25.056L84.9513 25.2446L89.765 0.188669L88.783 0ZM83.9692 25.056V26.056H84.7575V25.056V24.056H83.9692V25.056ZM84.7575 25.056L85.7395 25.2446L90.5533 0.188669L89.5712 0L88.5892 -0.188669L83.7755 24.8673L84.7575 25.056ZM89.5712 0V-1H88.783V0V1H89.5712V0Z" fill="#8AD429" mask="url(#path-77-inside-39_581_1312)"/>
<mask id="path-79-inside-40_581_1312" fill="white">
<path d="M182.15 0L177.336 25.056H178.124L182.938 0H182.15Z"/>
</mask>
<path d="M182.15 0L177.336 25.056H178.124L182.938 0H182.15Z" fill="#8AD429"/>
<path d="M182.15 0V-1H181.324L181.168 -0.188669L182.15 0ZM177.336 25.056L176.354 24.8673L176.126 26.056H177.336V25.056ZM178.124 25.056V26.056H178.95L179.106 25.2446L178.124 25.056ZM182.938 0L183.92 0.188669L184.148 -1H182.938V0ZM182.15 0L181.168 -0.188669L176.354 24.8673L177.336 25.056L178.318 25.2446L183.132 0.188669L182.15 0ZM177.336 25.056V26.056H178.124V25.056V24.056H177.336V25.056ZM178.124 25.056L179.106 25.2446L183.92 0.188669L182.938 0L181.956 -0.188669L177.142 24.8673L178.124 25.056ZM182.938 0V-1H182.15V0V1H182.938V0Z" fill="#8AD429" mask="url(#path-79-inside-40_581_1312)"/>
<mask id="path-81-inside-41_581_1312" fill="white">
<path d="M93.1909 0L88.3772 25.056H89.1655L93.9792 0H93.1909Z"/>
</mask>
<path d="M93.1909 0L88.3772 25.056H89.1655L93.9792 0H93.1909Z" fill="#8AD429"/>
<path d="M93.1909 0V-1H92.3648L92.2089 -0.188669L93.1909 0ZM88.3772 25.056L87.3952 24.8673L87.1668 26.056H88.3772V25.056ZM89.1655 25.056V26.056H89.9916L90.1475 25.2446L89.1655 25.056ZM93.9792 0L94.9612 0.188669L95.1896 -1H93.9792V0ZM93.1909 0L92.2089 -0.188669L87.3952 24.8673L88.3772 25.056L89.3592 25.2446L94.173 0.188669L93.1909 0ZM88.3772 25.056V26.056H89.1655V25.056V24.056H88.3772V25.056ZM89.1655 25.056L90.1475 25.2446L94.9612 0.188669L93.9792 0L92.9972 -0.188669L88.1834 24.8673L89.1655 25.056ZM93.9792 0V-1H93.1909V0V1H93.9792V0Z" fill="#8AD429" mask="url(#path-81-inside-41_581_1312)"/>
<mask id="path-83-inside-42_581_1312" fill="white">
<path d="M182.532 25.056H181.744L184 13.3115V17.4145L182.532 25.056Z"/>
</mask>
<path d="M182.532 25.056H181.744L184 13.3115V17.4145L182.532 25.056Z" fill="#8AD429"/>
<path d="M181.744 25.056L180.762 24.8674L180.533 26.056H181.744V25.056ZM182.532 25.056V26.056H183.358L183.514 25.2447L182.532 25.056ZM184 13.3115H185L183.018 13.1229L184 13.3115ZM184 17.4145L184.982 17.6032L185 17.5097V17.4145H184ZM181.744 25.056V26.056H182.532V25.056V24.056H181.744V25.056ZM184 13.3115L183.018 13.1229L180.762 24.8674L181.744 25.056L182.726 25.2447L184.982 13.5002L184 13.3115ZM182.532 25.056L183.514 25.2447L184.982 17.6032L184 17.4145L183.018 17.2258L181.55 24.8674L182.532 25.056ZM184 13.3115H183V17.4145H184H185V13.3115H184Z" fill="#8AD429" mask="url(#path-83-inside-42_581_1312)"/>
</svg>
