<svg width="88" height="31" viewBox="0 0 88 31" fill="none" xmlns="http://www.w3.org/2000/svg">
<mask id="path-1-inside-1_581_1457" fill="white">
<path d="M79.4262 0L73.6943 30.0142H74.6329L80.3648 0H79.4262Z"/>
</mask>
<path d="M79.4262 0L73.6943 30.0142H74.6329L80.3648 0H79.4262Z" fill="#8AD429"/>
<path d="M79.4262 0V-1H78.5991L78.444 -0.187582L79.4262 0ZM73.6943 30.0142L72.7121 29.8267L72.4853 31.0142H73.6943V30.0142ZM74.6329 30.0142V31.0142H75.46L75.6152 30.2018L74.6329 30.0142ZM80.3648 0L81.3471 0.187582L81.5739 -1H80.3648V0ZM79.4262 0L78.444 -0.187582L72.7121 29.8267L73.6943 30.0142L74.6766 30.2018L80.4085 0.187582L79.4262 0ZM73.6943 30.0142V31.0142H74.6329V30.0142V29.0142H73.6943V30.0142ZM74.6329 30.0142L75.6152 30.2018L81.3471 0.187582L80.3648 0L79.3826 -0.187582L73.6507 29.8267L74.6329 30.0142ZM80.3648 0V-1H79.4262V0V1H80.3648V0Z" fill="#8AD429" mask="url(#path-1-inside-1_581_1457)"/>
<mask id="path-3-inside-2_581_1457" fill="white">
<path d="M74.0769 0L68.3359 30.0142H69.2745L75.0155 0H74.0769Z"/>
</mask>
<path d="M74.0769 0L68.3359 30.0142H69.2745L75.0155 0H74.0769Z" fill="#8AD429"/>
<path d="M74.0769 0V-1H73.2501L73.0947 -0.18787L74.0769 0ZM68.3359 30.0142L67.3537 29.8264L67.1265 31.0142H68.3359V30.0142ZM69.2745 30.0142V31.0142H70.1014L70.2567 30.2021L69.2745 30.0142ZM75.0155 0L75.9977 0.18787L76.2249 -1H75.0155V0ZM74.0769 0L73.0947 -0.18787L67.3537 29.8264L68.3359 30.0142L69.3181 30.2021L75.0591 0.18787L74.0769 0ZM68.3359 30.0142V31.0142H69.2745V30.0142V29.0142H68.3359V30.0142ZM69.2745 30.0142L70.2567 30.2021L75.9977 0.18787L75.0155 0L74.0333 -0.18787L68.2924 29.8264L69.2745 30.0142ZM75.0155 0V-1H74.0769V0V1H75.0155V0Z" fill="#8AD429" mask="url(#path-3-inside-2_581_1457)"/>
<mask id="path-5-inside-3_581_1457" fill="white">
<path d="M68.9013 0L63.1694 30.0142H64.108L69.8399 0H68.9013Z"/>
</mask>
<path d="M68.9013 0L63.1694 30.0142H64.108L69.8399 0H68.9013Z" fill="#8AD429"/>
<path d="M68.9013 0V-1H68.0742L67.9191 -0.187582L68.9013 0ZM63.1694 30.0142L62.1872 29.8267L61.9604 31.0142H63.1694V30.0142ZM64.108 30.0142V31.0142H64.9351L65.0903 30.2018L64.108 30.0142ZM69.8399 0L70.8222 0.187582L71.049 -1H69.8399V0ZM68.9013 0L67.9191 -0.187582L62.1872 29.8267L63.1694 30.0142L64.1517 30.2018L69.8836 0.187582L68.9013 0ZM63.1694 30.0142V31.0142H64.108V30.0142V29.0142H63.1694V30.0142ZM64.108 30.0142L65.0903 30.2018L70.8222 0.187582L69.8399 0L68.8577 -0.187582L63.1258 29.8267L64.108 30.0142ZM69.8399 0V-1H68.9013V0V1H69.8399V0Z" fill="#8AD429" mask="url(#path-5-inside-3_581_1457)"/>
<mask id="path-7-inside-4_581_1457" fill="white">
<path d="M63.6157 0L57.8838 30.0142H58.8133L64.5543 0H63.6157Z"/>
</mask>
<path d="M63.6157 0L57.8838 30.0142H58.8133L64.5543 0H63.6157Z" fill="#8AD429"/>
<path d="M63.6157 0V-1H62.7886L62.6334 -0.187582L63.6157 0ZM57.8838 30.0142L56.9015 29.8267L56.6747 31.0142H57.8838V30.0142ZM58.8133 30.0142V31.0142H59.6401L59.7955 30.2021L58.8133 30.0142ZM64.5543 0L65.5365 0.18787L65.7637 -1H64.5543V0ZM63.6157 0L62.6334 -0.187582L56.9015 29.8267L57.8838 30.0142L58.866 30.2018L64.5979 0.187582L63.6157 0ZM57.8838 30.0142V31.0142H58.8133V30.0142V29.0142H57.8838V30.0142ZM58.8133 30.0142L59.7955 30.2021L65.5365 0.18787L64.5543 0L63.5721 -0.18787L57.8311 29.8264L58.8133 30.0142ZM64.5543 0V-1H63.6157V0V1H64.5543V0Z" fill="#8AD429" mask="url(#path-7-inside-4_581_1457)"/>
<mask id="path-9-inside-5_581_1457" fill="white">
<path d="M58.3484 0L52.6074 30.0142H53.546L59.287 0H58.3484Z"/>
</mask>
<path d="M58.3484 0L52.6074 30.0142H53.546L59.287 0H58.3484Z" fill="#8AD429"/>
<path d="M58.3484 0V-1H57.5216L57.3662 -0.18787L58.3484 0ZM52.6074 30.0142L51.6252 29.8264L51.398 31.0142H52.6074V30.0142ZM53.546 30.0142V31.0142H54.3729L54.5282 30.2021L53.546 30.0142ZM59.287 0L60.2692 0.18787L60.4964 -1H59.287V0ZM58.3484 0L57.3662 -0.18787L51.6252 29.8264L52.6074 30.0142L53.5896 30.2021L59.3306 0.18787L58.3484 0ZM52.6074 30.0142V31.0142H53.546V30.0142V29.0142H52.6074V30.0142ZM53.546 30.0142L54.5282 30.2021L60.2692 0.18787L59.287 0L58.3048 -0.18787L52.5638 29.8264L53.546 30.0142ZM59.287 0V-1H58.3484V0V1H59.287V0Z" fill="#8AD429" mask="url(#path-9-inside-5_581_1457)"/>
<mask id="path-11-inside-6_581_1457" fill="white">
<path d="M53.0633 0L47.3223 30.0142H47.3314H48.2609L54.0019 0H53.0633Z"/>
</mask>
<path d="M53.0633 0L47.3223 30.0142H47.3314H48.2609L54.0019 0H53.0633Z" fill="#8AD429"/>
<path d="M53.0633 0V-1H52.2364L52.0811 -0.18787L53.0633 0ZM47.3223 30.0142L46.3401 29.8264L46.1129 31.0142H47.3223V30.0142ZM48.2609 30.0142V31.0142H49.0877L49.2431 30.2021L48.2609 30.0142ZM54.0019 0L54.9841 0.18787L55.2113 -1H54.0019V0ZM53.0633 0L52.0811 -0.18787L46.3401 29.8264L47.3223 30.0142L48.3045 30.2021L54.0455 0.18787L53.0633 0ZM47.3223 30.0142V31.0142H47.3314V30.0142V29.0142H47.3223V30.0142ZM47.3314 30.0142V31.0142H48.2609V30.0142V29.0142H47.3314V30.0142ZM48.2609 30.0142L49.2431 30.2021L54.9841 0.18787L54.0019 0L53.0197 -0.18787L47.2787 29.8264L48.2609 30.0142ZM54.0019 0V-1H53.0633V0V1H54.0019V0Z" fill="#8AD429" mask="url(#path-11-inside-6_581_1457)"/>
<mask id="path-13-inside-7_581_1457" fill="white">
<path d="M47.8326 0L42.0916 30.0142H43.0302L48.7712 0H47.8326Z"/>
</mask>
<path d="M47.8326 0L42.0916 30.0142H43.0302L48.7712 0H47.8326Z" fill="#8AD429"/>
<path d="M47.8326 0V-1H47.0057L46.8504 -0.18787L47.8326 0ZM42.0916 30.0142L41.1094 29.8264L40.8821 31.0142H42.0916V30.0142ZM43.0302 30.0142V31.0142H43.857L44.0124 30.2021L43.0302 30.0142ZM48.7712 0L49.7534 0.18787L49.9806 -1H48.7712V0ZM47.8326 0L46.8504 -0.18787L41.1094 29.8264L42.0916 30.0142L43.0737 30.2021L48.8147 0.18787L47.8326 0ZM42.0916 30.0142V31.0142H43.0302V30.0142V29.0142H42.0916V30.0142ZM43.0302 30.0142L44.0124 30.2021L49.7534 0.18787L48.7712 0L47.789 -0.18787L42.048 29.8264L43.0302 30.0142ZM48.7712 0V-1H47.8326V0V1H48.7712V0Z" fill="#8AD429" mask="url(#path-13-inside-7_581_1457)"/>
<mask id="path-15-inside-8_581_1457" fill="white">
<path d="M42.5291 0L36.7881 30.0142H37.7267L43.4677 0H42.5291Z"/>
</mask>
<path d="M42.5291 0L36.7881 30.0142H37.7267L43.4677 0H42.5291Z" fill="#8AD429"/>
<path d="M42.5291 0V-1H41.7022L41.5469 -0.18787L42.5291 0ZM36.7881 30.0142L35.8059 29.8264L35.5787 31.0142H36.7881V30.0142ZM37.7267 30.0142V31.0142H38.5535L38.7089 30.2021L37.7267 30.0142ZM43.4677 0L44.4499 0.18787L44.6771 -1H43.4677V0ZM42.5291 0L41.5469 -0.18787L35.8059 29.8264L36.7881 30.0142L37.7703 30.2021L43.5113 0.18787L42.5291 0ZM36.7881 30.0142V31.0142H37.7267V30.0142V29.0142H36.7881V30.0142ZM37.7267 30.0142L38.7089 30.2021L44.4499 0.18787L43.4677 0L42.4855 -0.18787L36.7445 29.8264L37.7267 30.0142ZM43.4677 0V-1H42.5291V0V1H43.4677V0Z" fill="#8AD429" mask="url(#path-15-inside-8_581_1457)"/>
<mask id="path-17-inside-9_581_1457" fill="white">
<path d="M37.2709 0L31.5391 30.0142H32.4777L38.2096 0H37.2709Z"/>
</mask>
<path d="M37.2709 0L31.5391 30.0142H32.4777L38.2096 0H37.2709Z" fill="#8AD429"/>
<path d="M37.2709 0V-1H36.4439L36.2887 -0.187582L37.2709 0ZM31.5391 30.0142L30.5568 29.8267L30.33 31.0142H31.5391V30.0142ZM32.4777 30.0142V31.0142H33.3048L33.4599 30.2018L32.4777 30.0142ZM38.2096 0L39.1918 0.187582L39.4186 -1H38.2096V0ZM37.2709 0L36.2887 -0.187582L30.5568 29.8267L31.5391 30.0142L32.5213 30.2018L38.2532 0.187582L37.2709 0ZM31.5391 30.0142V31.0142H32.4777V30.0142V29.0142H31.5391V30.0142ZM32.4777 30.0142L33.4599 30.2018L39.1918 0.187582L38.2096 0L37.2273 -0.187582L31.4954 29.8267L32.4777 30.0142ZM38.2096 0V-1H37.2709V0V1H38.2096V0Z" fill="#8AD429" mask="url(#path-17-inside-9_581_1457)"/>
<mask id="path-19-inside-10_581_1457" fill="white">
<path d="M31.9676 0L26.2266 30.0142H26.2357H27.1652L32.9062 0H31.9676Z"/>
</mask>
<path d="M31.9676 0L26.2266 30.0142H26.2357H27.1652L32.9062 0H31.9676Z" fill="#8AD429"/>
<path d="M31.9676 0V-1H31.1407L30.9854 -0.18787L31.9676 0ZM26.2266 30.0142L25.2444 29.8264L25.0172 31.0142H26.2266V30.0142ZM27.1652 30.0142V31.0142H27.992L28.1474 30.2021L27.1652 30.0142ZM32.9062 0L33.8884 0.18787L34.1156 -1H32.9062V0ZM31.9676 0L30.9854 -0.18787L25.2444 29.8264L26.2266 30.0142L27.2088 30.2021L32.9498 0.18787L31.9676 0ZM26.2266 30.0142V31.0142H26.2357V30.0142V29.0142H26.2266V30.0142ZM26.2357 30.0142V31.0142H27.1652V30.0142V29.0142H26.2357V30.0142ZM27.1652 30.0142L28.1474 30.2021L33.8884 0.18787L32.9062 0L31.924 -0.18787L26.183 29.8264L27.1652 30.0142ZM32.9062 0V-1H31.9676V0V1H32.9062V0Z" fill="#8AD429" mask="url(#path-19-inside-10_581_1457)"/>
<mask id="path-21-inside-11_581_1457" fill="white">
<path d="M26.8914 0L21.1504 30.0142H22.089L27.8209 0H26.8914Z"/>
</mask>
<path d="M26.8914 0L21.1504 30.0142H22.089L27.8209 0H26.8914Z" fill="#8AD429"/>
<path d="M26.8914 0V-1H26.0645L25.9092 -0.18787L26.8914 0ZM21.1504 30.0142L20.1682 29.8264L19.941 31.0142H21.1504V30.0142ZM22.089 30.0142V31.0142H22.9161L23.0712 30.2018L22.089 30.0142ZM27.8209 0L28.8031 0.187582L29.0299 -1H27.8209V0ZM26.8914 0L25.9092 -0.18787L20.1682 29.8264L21.1504 30.0142L22.1326 30.2021L27.8736 0.18787L26.8914 0ZM21.1504 30.0142V31.0142H22.089V30.0142V29.0142H21.1504V30.0142ZM22.089 30.0142L23.0712 30.2018L28.8031 0.187582L27.8209 0L26.8386 -0.187582L21.1067 29.8267L22.089 30.0142ZM27.8209 0V-1H26.8914V0V1H27.8209V0Z" fill="#8AD429" mask="url(#path-21-inside-11_581_1457)"/>
<mask id="path-23-inside-12_581_1457" fill="white">
<path d="M21.5515 0L15.8105 30.0142H16.7492L22.4902 0H21.5515Z"/>
</mask>
<path d="M21.5515 0L15.8105 30.0142H16.7492L22.4902 0H21.5515Z" fill="#8AD429"/>
<path d="M21.5515 0V-1H20.7247L20.5694 -0.18787L21.5515 0ZM15.8105 30.0142L14.8284 29.8264L14.6011 31.0142H15.8105V30.0142ZM16.7492 30.0142V31.0142H17.576L17.7313 30.2021L16.7492 30.0142ZM22.4902 0L23.4723 0.18787L23.6996 -1H22.4902V0ZM21.5515 0L20.5694 -0.18787L14.8284 29.8264L15.8105 30.0142L16.7927 30.2021L22.5337 0.18787L21.5515 0ZM15.8105 30.0142V31.0142H16.7492V30.0142V29.0142H15.8105V30.0142ZM16.7492 30.0142L17.7313 30.2021L23.4723 0.18787L22.4902 0L21.508 -0.18787L15.767 29.8264L16.7492 30.0142ZM22.4902 0V-1H21.5515V0V1H22.4902V0Z" fill="#8AD429" mask="url(#path-23-inside-12_581_1457)"/>
<mask id="path-25-inside-13_581_1457" fill="white">
<path d="M16.2114 0L10.4795 30.0142H11.409L17.15 0H16.2114Z"/>
</mask>
<path d="M16.2114 0L10.4795 30.0142H11.409L17.15 0H16.2114Z" fill="#8AD429"/>
<path d="M16.2114 0V-1H15.3843L15.2291 -0.187582L16.2114 0ZM10.4795 30.0142L9.49724 29.8267L9.27045 31.0142H10.4795V30.0142ZM11.409 30.0142V31.0142H12.2358L12.3912 30.2021L11.409 30.0142ZM17.15 0L18.1322 0.18787L18.3594 -1H17.15V0ZM16.2114 0L15.2291 -0.187582L9.49724 29.8267L10.4795 30.0142L11.4617 30.2018L17.1936 0.187582L16.2114 0ZM10.4795 30.0142V31.0142H11.409V30.0142V29.0142H10.4795V30.0142ZM11.409 30.0142L12.3912 30.2021L18.1322 0.18787L17.15 0L16.1678 -0.18787L10.4268 29.8264L11.409 30.0142ZM17.15 0V-1H16.2114V0V1H17.15V0Z" fill="#8AD429" mask="url(#path-25-inside-13_581_1457)"/>
<mask id="path-27-inside-14_581_1457" fill="white">
<path d="M10.9807 0L5.23975 30.0142H6.17835L11.9102 0H10.9807Z"/>
</mask>
<path d="M10.9807 0L5.23975 30.0142H6.17835L11.9102 0H10.9807Z" fill="#8AD429"/>
<path d="M10.9807 0V-1H10.1539L9.99855 -0.18787L10.9807 0ZM5.23975 30.0142L4.25755 29.8264L4.03034 31.0142H5.23975V30.0142ZM6.17835 30.0142V31.0142H7.00545L7.1606 30.2018L6.17835 30.0142ZM11.9102 0L12.8925 0.187582L13.1193 -1H11.9102V0ZM10.9807 0L9.99855 -0.18787L4.25755 29.8264L5.23975 30.0142L6.22194 30.2021L11.9629 0.18787L10.9807 0ZM5.23975 30.0142V31.0142H6.17835V30.0142V29.0142H5.23975V30.0142ZM6.17835 30.0142L7.1606 30.2018L12.8925 0.187582L11.9102 0L10.928 -0.187582L5.19611 29.8267L6.17835 30.0142ZM11.9102 0V-1H10.9807V0V1H11.9102V0Z" fill="#8AD429" mask="url(#path-27-inside-14_581_1457)"/>
<mask id="path-29-inside-15_581_1457" fill="white">
<path d="M5.73189 3.05176e-05L0 30.0143H0.929495L6.6705 3.05176e-05H5.73189Z"/>
</mask>
<path d="M5.73189 3.05176e-05L0 30.0143H0.929495L6.6705 3.05176e-05H5.73189Z" fill="#8AD429"/>
<path d="M5.73189 3.05176e-05V-0.999969H4.90479L4.74964 -0.187552L5.73189 3.05176e-05ZM0 30.0143L-0.982249 29.8267L-1.20904 31.0143H0V30.0143ZM0.929495 30.0143V31.0143H1.75635L1.91169 30.2021L0.929495 30.0143ZM6.6705 3.05176e-05L7.65269 0.187901L7.8799 -0.999969H6.6705V3.05176e-05ZM5.73189 3.05176e-05L4.74964 -0.187552L-0.982249 29.8267L0 30.0143L0.982249 30.2019L6.71414 0.187613L5.73189 3.05176e-05ZM0 30.0143V31.0143H0.929495V30.0143V29.0143H0V30.0143ZM0.929495 30.0143L1.91169 30.2021L7.65269 0.187901L6.6705 3.05176e-05L5.6883 -0.187839L-0.0526984 29.8264L0.929495 30.0143ZM6.6705 3.05176e-05V-0.999969H5.73189V3.05176e-05V1.00003H6.6705V3.05176e-05Z" fill="#8AD429" mask="url(#path-29-inside-15_581_1457)"/>
<mask id="path-31-inside-16_581_1457" fill="white">
<path d="M85.1857 30.0142H84.2471L88 10.3937V15.3008L85.1857 30.0142Z"/>
</mask>
<path d="M85.1857 30.0142H84.2471L88 10.3937V15.3008L85.1857 30.0142Z" fill="#8AD429"/>
<path d="M84.2471 30.0142L83.2649 29.8264L83.0377 31.0142H84.2471V30.0142ZM85.1857 30.0142V31.0142H86.0125L86.1679 30.2021L85.1857 30.0142ZM88 10.3937H89L87.0178 10.2059L88 10.3937ZM88 15.3008L88.9822 15.4887L89 15.3956V15.3008H88ZM84.2471 30.0142V31.0142H85.1857V30.0142V29.0142H84.2471V30.0142ZM88 10.3937L87.0178 10.2059L83.2649 29.8264L84.2471 30.0142L85.2293 30.2021L88.9822 10.5816L88 10.3937ZM88 10.3937H87V15.3008H88H89V10.3937H88ZM85.1857 30.0142L86.1679 30.2021L88.9822 15.4887L88 15.3008L87.0178 15.1129L84.2035 29.8264L85.1857 30.0142Z" fill="#8AD429" mask="url(#path-31-inside-16_581_1457)"/>
<mask id="path-33-inside-17_581_1457" fill="white">
<path d="M84.7478 0L79.0068 30.0142H79.9454L85.6864 0H84.7478Z"/>
</mask>
<path d="M84.7478 0L79.0068 30.0142H79.9454L85.6864 0H84.7478Z" fill="#8AD429"/>
<path d="M84.7478 0V-1H83.921L83.7656 -0.18787L84.7478 0ZM79.0068 30.0142L78.0246 29.8264L77.7974 31.0142H79.0068V30.0142ZM79.9454 30.0142V31.0142H80.7723L80.9276 30.2021L79.9454 30.0142ZM85.6864 0L86.6686 0.18787L86.8958 -1H85.6864V0ZM84.7478 0L83.7656 -0.18787L78.0246 29.8264L79.0068 30.0142L79.989 30.2021L85.73 0.18787L84.7478 0ZM79.0068 30.0142V31.0142H79.9454V30.0142V29.0142H79.0068V30.0142ZM79.9454 30.0142L80.9276 30.2021L86.6686 0.18787L85.6864 0L84.7042 -0.18787L78.9632 29.8264L79.9454 30.0142ZM85.6864 0V-1H84.7478V0V1H85.6864V0Z" fill="#8AD429" mask="url(#path-33-inside-17_581_1457)"/>
</svg>
