<svg width="225" height="31" viewBox="0 0 225 31" fill="none" xmlns="http://www.w3.org/2000/svg">
<path d="M79.9035 0L74.1372 30.0142H75.0815L80.8478 0H79.9035Z" fill="#FEC311"/>
<path d="M191.747 0L185.98 30.0142H186.924L192.691 0H191.747Z" fill="#FEC311"/>
<path d="M74.5222 0L68.7467 30.0142H69.691L75.4664 0H74.5222Z" fill="#FEC311"/>
<path d="M186.365 0L180.59 30.0142H181.534L187.309 0H186.365Z" fill="#FEC311"/>
<path d="M69.3152 0L63.5488 30.0142H64.4931L70.2594 0H69.3152Z" fill="#FEC311"/>
<path d="M181.158 0L175.392 30.0142H176.336L182.102 0H181.158Z" fill="#FEC311"/>
<path d="M63.998 0L58.2317 30.0142H59.1668L64.9423 0H63.998Z" fill="#FEC311"/>
<path d="M175.841 0L170.075 30.0142H171.01L176.785 0H175.841Z" fill="#FEC311"/>
<path d="M58.6992 0L52.9237 30.0142H53.868L59.6435 0H58.6992Z" fill="#FEC311"/>
<path d="M170.542 0L164.767 30.0142H165.711L171.486 0H170.542Z" fill="#FEC311"/>
<path d="M53.3821 0L47.6066 30.0142H47.6157H48.5508L54.3263 0H53.3821Z" fill="#FEC311"/>
<path d="M165.225 0L159.45 30.0142H159.459H160.394L166.169 0H165.225Z" fill="#FEC311"/>
<path d="M48.12 0L42.3445 30.0142H43.2887L49.0642 0H48.12Z" fill="#FEC311"/>
<path d="M159.963 0L154.188 30.0142H155.132L160.907 0H159.963Z" fill="#FEC311"/>
<path d="M42.7845 0L37.009 30.0142H37.9533L43.7288 0H42.7845Z" fill="#FEC311"/>
<path d="M154.627 0L148.852 30.0142H149.796L155.572 0H154.627Z" fill="#FEC311"/>
<path d="M37.4948 0L31.7285 30.0142H32.6728L38.4391 0H37.4948Z" fill="#FEC311"/>
<path d="M149.338 0L143.572 30.0142H144.516L150.282 0H149.338Z" fill="#FEC311"/>
<path d="M32.1594 0L26.3839 30.0142H26.3931H27.3282L33.1037 0H32.1594Z" fill="#FEC311"/>
<path d="M144.002 0L138.227 30.0142H138.236H139.171L144.947 0H144.002Z" fill="#FEC311"/>
<path d="M27.0531 0L21.2776 30.0142H22.2218L27.9882 0H27.0531Z" fill="#FEC311"/>
<path d="M138.896 0L133.121 30.0142H134.065L139.831 0H138.896Z" fill="#FEC311"/>
<path d="M21.681 0L15.9055 30.0142H16.8498L22.6253 0H21.681Z" fill="#FEC311"/>
<path d="M133.524 0L127.748 30.0142H128.693L134.468 0H133.524Z" fill="#FEC311"/>
<path d="M16.3089 0L10.5426 30.0142H11.4777L17.2532 0H16.3089Z" fill="#FEC311"/>
<path d="M128.152 0L122.385 30.0142H123.321L129.096 0H128.152Z" fill="#FEC311"/>
<path d="M11.0469 0L5.27136 30.0142H6.21561L11.9819 0H11.0469Z" fill="#FEC311"/>
<path d="M122.89 0L117.114 30.0142H118.059L123.825 0H122.89Z" fill="#FEC311"/>
<path d="M5.76633 0L0 30.0142H0.935081L6.71058 0H5.76633Z" fill="#FEC311"/>
<path d="M117.609 0L111.843 30.0142H112.778L118.553 0H117.609Z" fill="#FEC311"/>
<path d="M90.5285 0L84.7531 30.0142H85.6973L91.4728 0H90.5285Z" fill="#FEC311"/>
<path d="M202.371 0L196.596 30.0142H197.54L203.316 0H202.371Z" fill="#FEC311"/>
<path d="M85.2573 0L79.4818 30.0142H80.4261L86.2015 0H85.2573Z" fill="#FEC311"/>
<path d="M197.1 0L191.325 30.0142H192.269L198.044 0H197.1Z" fill="#FEC311"/>
<path d="M95.7998 0L90.0243 30.0142H90.9685L96.744 0H95.7998Z" fill="#FEC311"/>
<path d="M207.643 0L201.867 30.0142H202.811L208.587 0H207.643Z" fill="#FEC311"/>
<path d="M101.126 0L95.3507 30.0142H96.295L102.07 0H101.126Z" fill="#FEC311"/>
<path d="M212.969 0L207.194 30.0142H208.138L213.913 0H212.969Z" fill="#FEC311"/>
<path d="M106.352 0L100.585 30.0142H101.529L107.296 0H106.352Z" fill="#FEC311"/>
<path d="M218.195 0L212.428 30.0142H213.372L219.139 0H218.195Z" fill="#FEC311"/>
<path d="M111.632 0L105.866 30.0142H106.81L112.576 0H111.632Z" fill="#FEC311"/>
<path d="M223.475 0L217.709 30.0142H218.653L224.419 0H223.475Z" fill="#FEC311"/>
</svg>
